# Blender v2.79 (sub 0) OBJ File: 'ara_base_mesh_BI.blend'
# www.blender.org
mtllib ara_feather_tail_primary_004.mtl
o feather_tail_primary_004
v 0.008632 0.125284 -0.276074
v -0.005888 0.125284 -0.277882
v 0.051864 0.125284 -0.602924
v 0.032362 0.125284 -0.605353
v 0.000347 0.126476 -0.268748
v 0.044257 0.126476 -0.621355
v 0.015290 0.125284 -0.302934
v 0.022155 0.125284 -0.338126
v 0.049079 0.125284 -0.539534
v 0.052232 0.125284 -0.575189
v 0.025203 0.125284 -0.578554
v 0.019515 0.125284 -0.543216
v -0.003780 0.125284 -0.341356
v -0.005756 0.125284 -0.305555
v 0.004767 0.126476 -0.304245
v 0.009188 0.126476 -0.339741
v 0.034297 0.126476 -0.541375
v 0.038718 0.126476 -0.576871
v 0.044150 0.125284 -0.499196
v 0.038952 0.125284 -0.458891
v 0.033636 0.125284 -0.418601
v 0.028209 0.125284 -0.378325
v 0.000211 0.125284 -0.381811
v 0.004827 0.125284 -0.422188
v 0.009555 0.125284 -0.462552
v 0.014400 0.125284 -0.502900
v 0.029275 0.126476 -0.501048
v 0.024253 0.126476 -0.460721
v 0.019232 0.126476 -0.420395
v 0.014210 0.126476 -0.380068
vn 0.0004 1.0000 -0.0035
vn 0.0933 0.9956 0.0082
vn 0.1050 0.9944 0.0075
vn 0.0007 1.0000 -0.0055
vn -0.0924 0.9956 -0.0149
vn -0.1036 0.9944 -0.0185
vn -0.0009 1.0000 0.0070
vn 0.1331 0.9908 0.0236
vn 0.1150 0.9932 0.0195
vn -0.0006 1.0000 0.0052
vn 0.0926 0.9956 0.0138
vn -0.0003 1.0000 0.0023
vn 0.0000 1.0000 0.0000
vn 0.0790 0.9968 0.0099
vn 0.0808 0.9967 0.0093
vn 0.0001 1.0000 -0.0008
vn -0.1348 0.9908 -0.0097
vn -0.1163 0.9932 -0.0093
vn -0.0931 0.9956 -0.0093
vn -0.0790 0.9968 -0.0098
vn -0.0806 0.9967 -0.0108
vn 0.0844 0.9964 0.0113
vn -0.0001 1.0000 0.0008
vn 0.0813 0.9966 0.0105
vn -0.0000 1.0000 0.0003
vn 0.0797 0.9968 0.0101
vn 0.0000 1.0000 0.0002
vn -0.0846 0.9964 -0.0097
vn -0.0814 0.9966 -0.0098
vn -0.0797 0.9968 -0.0097
usemtl feather_003
s 1
f 18//1 10//2 3//3 6//4
f 11//5 18//1 6//4 4//6
f 5//7 1//8 7//9 15//10
f 15//10 7//9 8//11 16//12
f 27//13 19//14 9//15 17//16
f 17//16 9//15 10//2 18//1
f 2//17 5//7 15//10 14//18
f 14//18 15//10 16//12 13//19
f 26//20 27//13 17//16 12//21
f 12//21 17//16 18//1 11//5
f 16//12 8//11 22//22 30//23
f 30//23 22//22 21//24 29//25
f 29//25 21//24 20//26 28//27
f 28//27 20//26 19//14 27//13
f 13//19 16//12 30//23 23//28
f 23//28 30//23 29//25 24//29
f 24//29 29//25 28//27 25//30
f 25//30 28//27 27//13 26//20
