# Blender v2.79 (sub 0) OBJ File: 'ara_base_mesh_BI.blend'
# www.blender.org
mtllib ara_feather_flight_tertiary_052.mtl
o feather_flight_tertiary_052
v 0.265118 0.185518 0.012248
v 0.257420 0.183552 0.012248
v 0.273552 0.158349 0.012248
v 0.263047 0.155666 0.012248
v 0.260910 0.185941 0.011524
v 0.269086 0.153928 0.011524
v 0.268401 0.181391 0.012248
v 0.271710 0.175772 0.012248
v 0.274384 0.169991 0.012248
v 0.275622 0.163843 0.012248
v 0.258596 0.159494 0.012248
v 0.256734 0.165483 0.012248
v 0.256308 0.171838 0.012248
v 0.256518 0.178356 0.012248
v 0.262460 0.179873 0.011524
v 0.264009 0.173805 0.011524
v 0.265559 0.167737 0.011524
v 0.267109 0.161668 0.011524
vn 0.0038 -0.0148 -0.9999
vn 0.0909 0.0110 -0.9958
vn 0.1113 -0.0008 -0.9938
vn 0.0070 -0.0276 -0.9996
vn -0.0850 -0.0339 -0.9958
vn -0.0973 -0.0540 -0.9938
vn -0.0071 0.0279 -0.9996
vn 0.1343 0.0637 -0.9889
vn 0.1104 0.0489 -0.9927
vn -0.0054 0.0211 -0.9998
vn 0.0866 0.0333 -0.9957
vn -0.0028 0.0110 -0.9999
vn 0.0793 0.0230 -0.9966
vn -0.0007 0.0028 -1.0000
vn -0.1484 -0.0085 -0.9889
vn -0.1203 -0.0100 -0.9927
vn -0.0920 -0.0123 -0.9957
vn -0.0807 -0.0179 -0.9966
usemtl feather_001
s 1
f 18//1 10//2 3//3 6//4
f 11//5 18//1 6//4 4//6
f 5//7 1//8 7//9 15//10
f 15//10 7//9 8//11 16//12
f 16//12 8//11 9//13 17//14
f 17//14 9//13 10//2 18//1
f 2//15 5//7 15//10 14//16
f 14//16 15//10 16//12 13//17
f 13//17 16//12 17//14 12//18
f 12//18 17//14 18//1 11//5
