# Blender v2.79 (sub 0) OBJ File: 'ara_base_mesh_BI.blend'
# www.blender.org
mtllib ara_feather_flight_tertiary_010.mtl
o feather_flight_tertiary_010
v 0.160266 0.184863 0.015106
v 0.153053 0.184384 0.015106
v 0.163293 0.159160 0.015106
v 0.153450 0.158506 0.015106
v 0.156572 0.185941 0.015831
v 0.158563 0.155948 0.015831
v 0.162516 0.180626 0.015106
v 0.164542 0.175050 0.015106
v 0.165972 0.169434 0.015106
v 0.166057 0.163730 0.015106
v 0.150106 0.162671 0.015106
v 0.149436 0.168337 0.015106
v 0.150111 0.174092 0.015106
v 0.151382 0.179887 0.015106
v 0.156949 0.180256 0.015831
v 0.157327 0.174571 0.015831
v 0.157704 0.168885 0.015831
v 0.158081 0.163200 0.015831
vn -0.0011 0.0167 -0.9998
vn -0.1003 0.0064 -0.9949
vn -0.1200 0.0232 -0.9925
vn -0.0020 0.0312 -0.9995
vn 0.0986 0.0196 -0.9949
vn 0.1159 0.0388 -0.9925
vn 0.0021 -0.0315 -0.9995
vn -0.1576 -0.0417 -0.9866
vn -0.1289 -0.0306 -0.9911
vn 0.0016 -0.0239 -0.9997
vn -0.1002 -0.0185 -0.9948
vn 0.0008 -0.0125 -0.9999
vn -0.0903 -0.0089 -0.9958
vn 0.0002 -0.0031 -1.0000
vn 0.1617 -0.0205 -0.9866
vn 0.1318 -0.0133 -0.9911
vn 0.1017 -0.0051 -0.9948
vn 0.0907 0.0031 -0.9958
usemtl feather_001
s 1
f 18//1 10//2 3//3 6//4
f 11//5 18//1 6//4 4//6
f 5//7 1//8 7//9 15//10
f 15//10 7//9 8//11 16//12
f 16//12 8//11 9//13 17//14
f 17//14 9//13 10//2 18//1
f 2//15 5//7 15//10 14//16
f 14//16 15//10 16//12 13//17
f 13//17 16//12 17//14 12//18
f 12//18 17//14 18//1 11//5
