# Blender v2.79 (sub 0) OBJ File: 'ara_base_mesh_BI.blend'
# www.blender.org
mtllib ara_feather_flight_tertiary_048.mtl
o feather_flight_tertiary_048
v 0.223860 0.185147 0.012249
v 0.216950 0.183720 0.012226
v 0.231258 0.155782 0.012064
v 0.221829 0.153835 0.012033
v 0.220090 0.185942 0.011522
v 0.227228 0.151488 0.011302
v 0.226778 0.180518 0.012223
v 0.229710 0.174313 0.012186
v 0.232072 0.167991 0.012148
v 0.233144 0.161402 0.012105
v 0.217863 0.158247 0.012056
v 0.216230 0.164720 0.012096
v 0.215885 0.171459 0.012141
v 0.216111 0.178316 0.012188
v 0.221443 0.179411 0.011481
v 0.222796 0.172880 0.011439
v 0.224149 0.166350 0.011397
v 0.225502 0.159819 0.011355
vn 0.0046 -0.0073 -0.9999
vn 0.1048 0.0162 -0.9944
vn 0.1258 0.0053 -0.9920
vn 0.0073 -0.0194 -0.9998
vn -0.0965 -0.0255 -0.9950
vn -0.1115 -0.0439 -0.9928
vn -0.0038 0.0332 -0.9994
vn 0.1567 0.0660 -0.9854
vn 0.1299 0.0526 -0.9901
vn -0.0024 0.0268 -0.9996
vn 0.1015 0.0378 -0.9941
vn -0.0004 0.0172 -0.9998
vn 0.0923 0.0280 -0.9953
vn 0.0012 0.0094 -0.9999
vn -0.1642 -0.0005 -0.9864
vn -0.1342 -0.0020 -0.9909
vn -0.1021 -0.0043 -0.9948
vn -0.0898 -0.0096 -0.9959
usemtl feather_001
s 1
f 18//1 10//2 3//3 6//4
f 11//5 18//1 6//4 4//6
f 5//7 1//8 7//9 15//10
f 15//10 7//9 8//11 16//12
f 16//12 8//11 9//13 17//14
f 17//14 9//13 10//2 18//1
f 2//15 5//7 15//10 14//16
f 14//16 15//10 16//12 13//17
f 13//17 16//12 17//14 12//18
f 12//18 17//14 18//1 11//5
