# Blender v2.79 (sub 0) OBJ File: 'ara_base_mesh_BI.blend'
# www.blender.org
mtllib ara_feather_tail_secondary_006.mtl
o feather_tail_secondary_006
v 0.003934 0.124794 -0.272266
v 0.013626 0.124794 -0.267164
v 0.006030 0.123936 -0.264491
v 0.010868 0.124794 -0.290721
v 0.021099 0.124794 -0.314111
v 0.038410 0.124794 -0.304997
v 0.024916 0.124794 -0.283325
v 0.017892 0.123936 -0.287023
v 0.029754 0.123936 -0.309554
v 0.058337 0.124794 -0.384448
v 0.047093 0.124794 -0.365811
v 0.033887 0.124794 -0.340071
v 0.052575 0.124794 -0.330232
v 0.066322 0.124794 -0.355688
v 0.075323 0.124794 -0.375505
v 0.070184 0.123936 -0.386347
v 0.056707 0.123936 -0.360749
v 0.043231 0.123936 -0.335152
vn -0.0033 -1.0000 0.0063
vn -0.1183 -0.9915 -0.0542
vn -0.1016 -0.9937 -0.0476
vn -0.0025 -1.0000 0.0047
vn -0.0807 -0.9959 -0.0399
vn -0.0011 -1.0000 0.0020
vn 0.1116 -0.9915 0.0668
vn 0.0968 -0.9937 0.0568
vn 0.0786 -0.9959 0.0439
vn -0.0728 -0.9966 -0.0374
vn -0.0003 -1.0000 0.0007
vn -0.0722 -0.9966 -0.0389
vn 0.0004 -1.0000 -0.0007
vn -0.0736 -0.9964 -0.0411
vn 0.0010 -1.0000 -0.0019
vn 0.0721 -0.9966 0.0388
vn 0.0729 -0.9966 0.0375
vn 0.0755 -0.9964 0.0374
usemtl feather_001
s 1
f 3//1 1//2 4//3 8//4
f 8//4 4//3 5//5 9//6
f 2//7 3//1 8//4 7//8
f 7//8 8//4 9//6 6//9
f 9//6 5//5 12//10 18//11
f 18//11 12//10 11//12 17//13
f 17//13 11//12 10//14 16//15
f 6//9 9//6 18//11 13//16
f 13//16 18//11 17//13 14//17
f 14//17 17//13 16//15 15//18
