# Blender v2.79 (sub 0) OBJ File: 'ara_base_mesh_BI.blend'
# www.blender.org
mtllib ara_feather_flight_primary_015.mtl
o feather_flight_primary_015
v 0.369379 0.189477 0.013275
v 0.363480 0.176227 0.013275
v 0.506227 0.131443 0.013275
v 0.498177 0.113361 0.013275
v 0.359490 0.185941 0.014000
v 0.517391 0.115640 0.014000
v 0.393974 0.182843 0.013275
v 0.425252 0.172545 0.013275
v 0.456044 0.161154 0.013275
v 0.485734 0.147290 0.013275
v 0.472688 0.117987 0.013275
v 0.442518 0.130774 0.013275
v 0.413449 0.146035 0.013275
v 0.384867 0.162389 0.013275
v 0.389421 0.172616 0.014000
v 0.419351 0.159290 0.014000
v 0.449281 0.145964 0.014000
v 0.479211 0.132638 0.014000
vn -0.0027 0.0012 -1.0000
vn -0.0232 -0.0456 -0.9987
vn -0.0291 -0.0519 -0.9982
vn -0.0049 0.0022 -1.0000
vn 0.0183 0.0478 -0.9987
vn 0.0191 0.0563 -0.9982
vn 0.0050 -0.0022 -1.0000
vn -0.0277 -0.0758 -0.9967
vn -0.0237 -0.0632 -0.9977
vn 0.0038 -0.0017 -1.0000
vn -0.0188 -0.0475 -0.9987
vn 0.0020 -0.0009 -1.0000
vn -0.0179 -0.0417 -0.9990
vn 0.0005 -0.0002 -1.0000
vn 0.0378 0.0713 -0.9967
vn 0.0311 0.0599 -0.9977
vn 0.0227 0.0458 -0.9987
vn 0.0189 0.0412 -0.9990
usemtl feather_003
s 1
f 18//1 10//2 3//3 6//4
f 11//5 18//1 6//4 4//6
f 5//7 1//8 7//9 15//10
f 15//10 7//9 8//11 16//12
f 16//12 8//11 9//13 17//14
f 17//14 9//13 10//2 18//1
f 2//15 5//7 15//10 14//16
f 14//16 15//10 16//12 13//17
f 13//17 16//12 17//14 12//18
f 12//18 17//14 18//1 11//5
