# Blender v2.79 (sub 0) OBJ File: 'ara_base_mesh_BI.blend'
# www.blender.org
mtllib ara_feather_flight_primary_012.mtl
o feather_flight_primary_012
v 0.303874 0.184608 0.013275
v 0.292066 0.176029 0.013275
v 0.385149 0.077271 0.013275
v 0.369035 0.065564 0.013275
v 0.293926 0.185885 0.014000
v 0.385943 0.059234 0.014000
v 0.320482 0.168500 0.013275
v 0.340623 0.146454 0.013275
v 0.359788 0.123700 0.013275
v 0.376751 0.099345 0.013275
v 0.350637 0.080372 0.013275
v 0.332716 0.104030 0.013275
v 0.316998 0.129289 0.013275
v 0.302254 0.155256 0.013275
v 0.311368 0.161878 0.014000
v 0.328810 0.137871 0.014000
v 0.346252 0.113865 0.014000
v 0.363694 0.089858 0.014000
vn -0.0019 0.0026 -1.0000
vn -0.0428 -0.0274 -0.9987
vn -0.0511 -0.0297 -0.9982
vn -0.0035 0.0049 -1.0000
vn 0.0393 0.0322 -0.9987
vn 0.0441 0.0394 -0.9982
vn 0.0035 -0.0049 -1.0000
vn -0.0612 -0.0519 -0.9968
vn -0.0515 -0.0429 -0.9977
vn 0.0027 -0.0037 -1.0000
vn -0.0397 -0.0317 -0.9987
vn 0.0014 -0.0019 -1.0000
vn -0.0361 -0.0270 -0.9990
vn 0.0003 -0.0005 -1.0000
vn 0.0683 0.0421 -0.9968
vn 0.0567 0.0357 -0.9977
vn 0.0425 0.0279 -0.9987
vn 0.0368 0.0260 -0.9990
usemtl feather_003
s 1
f 18//1 10//2 3//3 6//4
f 11//5 18//1 6//4 4//6
f 5//7 1//8 7//9 15//10
f 15//10 7//9 8//11 16//12
f 16//12 8//11 9//13 17//14
f 17//14 9//13 10//2 18//1
f 2//15 5//7 15//10 14//16
f 14//16 15//10 16//12 13//17
f 13//17 16//12 17//14 12//18
f 12//18 17//14 18//1 11//5
