# Blender v2.79 (sub 0) OBJ File: 'ara_base_mesh_BI.blend'
# www.blender.org
mtllib ara_feather_flight_secondary_024.mtl
o feather_flight_secondary_024
v 0.220489 0.183694 0.013062
v 0.208941 0.181658 0.013062
v 0.233861 0.120166 0.013062
v 0.218103 0.117387 0.013062
v 0.214139 0.185941 0.012338
v 0.227243 0.111628 0.012338
v 0.225536 0.173427 0.013062
v 0.230659 0.159806 0.013062
v 0.234828 0.146017 0.013062
v 0.236843 0.131848 0.013062
v 0.211305 0.127345 0.013062
v 0.208353 0.141349 0.013062
v 0.207555 0.155732 0.013062
v 0.207710 0.170284 0.013062
v 0.216623 0.171855 0.012338
v 0.219107 0.157769 0.012338
v 0.221591 0.143683 0.012338
v 0.224074 0.129597 0.012338
vn 0.0012 -0.0066 -1.0000
vn 0.0625 0.0052 -0.9980
vn 0.0743 0.0005 -0.9972
vn 0.0021 -0.0123 -0.9999
vn -0.0605 -0.0164 -0.9980
vn -0.0699 -0.0249 -0.9972
vn -0.0022 0.0124 -0.9999
vn 0.0958 0.0296 -0.9949
vn 0.0794 0.0232 -0.9966
vn -0.0016 0.0094 -0.9999
vn 0.0611 0.0157 -0.9980
vn -0.0009 0.0049 -1.0000
vn 0.0550 0.0109 -0.9984
vn -0.0002 0.0012 -1.0000
vn -0.1001 -0.0049 -0.9949
vn -0.0826 -0.0053 -0.9966
vn -0.0628 -0.0062 -0.9980
vn -0.0554 -0.0085 -0.9984
usemtl feather_002
s 1
f 18//1 10//2 3//3 6//4
f 11//5 18//1 6//4 4//6
f 5//7 1//8 7//9 15//10
f 15//10 7//9 8//11 16//12
f 16//12 8//11 9//13 17//14
f 17//14 9//13 10//2 18//1
f 2//15 5//7 15//10 14//16
f 14//16 15//10 16//12 13//17
f 13//17 16//12 17//14 12//18
f 12//18 17//14 18//1 11//5
