# Blender v2.79 (sub 0) OBJ File: 'ara_base_mesh_BI.blend'
# www.blender.org
mtllib ara_feather_flight_tertiary_064.mtl
o feather_flight_tertiary_064
v 0.393988 0.188478 0.012190
v 0.392805 0.182614 0.012280
v 0.427010 0.182720 0.011904
v 0.425396 0.174718 0.012027
v 0.391730 0.185907 0.011521
v 0.429883 0.177968 0.011208
v 0.399865 0.188916 0.012120
v 0.407367 0.188751 0.012040
v 0.414772 0.188102 0.011967
v 0.421955 0.186359 0.011911
v 0.419340 0.173391 0.012111
v 0.412060 0.174658 0.012174
v 0.405001 0.177019 0.012220
v 0.398039 0.179864 0.012259
v 0.398962 0.184402 0.011462
v 0.406194 0.182897 0.011402
v 0.413426 0.181393 0.011343
v 0.420658 0.179888 0.011283
vn 0.0019 -0.0151 -0.9999
vn 0.0250 0.1049 -0.9941
vn 0.0421 0.1229 -0.9915
vn 0.0127 -0.0183 -0.9997
vn -0.0248 -0.1345 -0.9906
vn -0.0164 -0.1571 -0.9874
vn -0.0346 -0.0068 -0.9994
vn 0.0051 0.1819 -0.9833
vn 0.0048 0.1483 -0.9889
vn -0.0289 -0.0086 -0.9995
vn 0.0051 0.1099 -0.9939
vn -0.0203 -0.0107 -0.9997
vn 0.0092 0.0953 -0.9954
vn -0.0132 -0.0123 -0.9998
vn -0.0731 -0.1958 -0.9779
vn -0.0602 -0.1654 -0.9844
vn -0.0449 -0.1312 -0.9903
vn -0.0354 -0.1198 -0.9922
usemtl feather_001
s 1
f 18//1 10//2 3//3 6//4
f 11//5 18//1 6//4 4//6
f 5//7 1//8 7//9 15//10
f 15//10 7//9 8//11 16//12
f 16//12 8//11 9//13 17//14
f 17//14 9//13 10//2 18//1
f 2//15 5//7 15//10 14//16
f 14//16 15//10 16//12 13//17
f 13//17 16//12 17//14 12//18
f 12//18 17//14 18//1 11//5
