# Blender v2.79 (sub 0) OBJ File: 'ara_base_mesh_BI.blend'
# www.blender.org
mtllib ara_feather_flight_tertiary_015.mtl
o feather_flight_tertiary_015
v 0.212307 0.184870 0.015106
v 0.204944 0.184002 0.015119
v 0.217129 0.155573 0.015226
v 0.207080 0.154389 0.015244
v 0.208446 0.185938 0.015831
v 0.212492 0.151682 0.015973
v 0.214898 0.180118 0.015123
v 0.217347 0.173823 0.015147
v 0.219189 0.167456 0.015172
v 0.219657 0.160928 0.015199
v 0.203373 0.159009 0.015229
v 0.202307 0.165467 0.015203
v 0.202615 0.172087 0.015174
v 0.203531 0.178779 0.015144
v 0.209213 0.179444 0.015858
v 0.209980 0.172951 0.015885
v 0.210747 0.166458 0.015912
v 0.211514 0.159965 0.015939
vn -0.0030 0.0102 -0.9999
vn -0.0996 -0.0042 -0.9950
vn -0.1190 0.0091 -0.9928
vn -0.0045 0.0228 -0.9997
vn 0.0943 0.0187 -0.9954
vn 0.1101 0.0362 -0.9933
vn 0.0020 -0.0316 -0.9995
vn -0.1531 -0.0496 -0.9870
vn -0.1262 -0.0385 -0.9912
vn 0.0012 -0.0251 -0.9997
vn -0.0982 -0.0262 -0.9948
vn 0.0000 -0.0151 -0.9999
vn -0.0889 -0.0172 -0.9959
vn -0.0010 -0.0070 -1.0000
vn 0.1570 -0.0130 -0.9875
vn 0.1281 -0.0085 -0.9917
vn 0.0981 -0.0030 -0.9951
vn 0.0869 0.0035 -0.9962
usemtl feather_001
s 1
f 18//1 10//2 3//3 6//4
f 11//5 18//1 6//4 4//6
f 5//7 1//8 7//9 15//10
f 15//10 7//9 8//11 16//12
f 16//12 8//11 9//13 17//14
f 17//14 9//13 10//2 18//1
f 2//15 5//7 15//10 14//16
f 14//16 15//10 16//12 13//17
f 13//17 16//12 17//14 12//18
f 12//18 17//14 18//1 11//5
