# Blender v2.79 (sub 0) OBJ File: 'ara_base_mesh_BI.blend'
# www.blender.org
mtllib ara_feather_flight_primary_010.mtl
o feather_flight_primary_010
v 0.264000 0.182256 0.013275
v 0.250812 0.177194 0.013275
v 0.313096 0.061546 0.013276
v 0.295098 0.054637 0.013276
v 0.255020 0.185941 0.014000
v 0.309320 0.044484 0.014000
v 0.275492 0.163036 0.013275
v 0.288798 0.137379 0.013275
v 0.301017 0.111305 0.013275
v 0.310774 0.084287 0.013275
v 0.281607 0.073090 0.013275
v 0.270779 0.099698 0.013275
v 0.262412 0.127251 0.013275
v 0.255133 0.155221 0.013275
v 0.265312 0.159128 0.014000
v 0.275605 0.132315 0.014000
v 0.285898 0.105502 0.014000
v 0.296190 0.078688 0.014000
vn -0.0012 0.0031 -1.0000
vn -0.0500 -0.0159 -0.9986
vn -0.0590 -0.0160 -0.9981
vn -0.0022 0.0058 -1.0000
vn 0.0478 0.0216 -0.9986
vn 0.0545 0.0276 -0.9981
vn 0.0022 -0.0058 -1.0000
vn -0.0749 -0.0354 -0.9966
vn -0.0628 -0.0291 -0.9976
vn 0.0017 -0.0044 -1.0000
vn -0.0481 -0.0211 -0.9986
vn 0.0009 -0.0023 -1.0000
vn -0.0432 -0.0172 -0.9989
vn 0.0002 -0.0006 -1.0000
vn 0.0794 0.0238 -0.9966
vn 0.0661 0.0204 -0.9976
vn 0.0498 0.0165 -0.9986
vn 0.0437 0.0161 -0.9989
usemtl feather_003
s 1
f 18//1 10//2 3//3 6//4
f 11//5 18//1 6//4 4//6
f 5//7 1//8 7//9 15//10
f 15//10 7//9 8//11 16//12
f 16//12 8//11 9//13 17//14
f 17//14 9//13 10//2 18//1
f 2//15 5//7 15//10 14//16
f 14//16 15//10 16//12 13//17
f 13//17 16//12 17//14 12//18
f 12//18 17//14 18//1 11//5
