# Blender v2.79 (sub 0) OBJ File: 'ara_base_mesh_BI.blend'
# www.blender.org
mtllib ara_feather_flight_tertiary_053.mtl
o feather_flight_tertiary_053
v 0.273267 0.185563 0.012269
v 0.266217 0.183184 0.012216
v 0.284975 0.155205 0.012157
v 0.275355 0.151958 0.012086
v 0.269204 0.185941 0.011523
v 0.281326 0.150132 0.011383
v 0.276948 0.180997 0.012262
v 0.280857 0.174754 0.012248
v 0.284184 0.168313 0.012229
v 0.286195 0.161428 0.012200
v 0.270605 0.156165 0.012084
v 0.268021 0.162858 0.012109
v 0.266752 0.169993 0.012143
v 0.266066 0.177324 0.012182
v 0.271502 0.179156 0.011497
v 0.273800 0.172369 0.011470
v 0.276098 0.165581 0.011444
v 0.278395 0.158793 0.011417
vn 0.0096 -0.0069 -0.9999
vn 0.1012 0.0267 -0.9945
vn 0.1221 0.0191 -0.9923
vn 0.0134 -0.0178 -0.9997
vn -0.0837 -0.0359 -0.9958
vn -0.0958 -0.0547 -0.9939
vn -0.0029 0.0295 -0.9995
vn 0.1445 0.0790 -0.9863
vn 0.1208 0.0635 -0.9906
vn -0.0009 0.0237 -0.9997
vn 0.0957 0.0463 -0.9943
vn 0.0021 0.0151 -0.9999
vn 0.0881 0.0362 -0.9954
vn 0.0045 0.0081 -0.9999
vn -0.1503 -0.0207 -0.9884
vn -0.1218 -0.0185 -0.9924
vn -0.0912 -0.0169 -0.9957
vn -0.0790 -0.0203 -0.9966
usemtl feather_001
s 1
f 18//1 10//2 3//3 6//4
f 11//5 18//1 6//4 4//6
f 5//7 1//8 7//9 15//10
f 15//10 7//9 8//11 16//12
f 16//12 8//11 9//13 17//14
f 17//14 9//13 10//2 18//1
f 2//15 5//7 15//10 14//16
f 14//16 15//10 16//12 13//17
f 13//17 16//12 17//14 12//18
f 12//18 17//14 18//1 11//5
