# Blender v2.79 (sub 0) OBJ File: 'ara_base_mesh_BI.blend'
# www.blender.org
mtllib ara_feather_flight_tertiary_039.mtl
o feather_flight_tertiary_039
v 0.130295 0.184682 0.012248
v 0.122591 0.184413 0.012248
v 0.132653 0.157453 0.012248
v 0.122139 0.157086 0.012248
v 0.126395 0.185941 0.011524
v 0.127503 0.154218 0.011524
v 0.132551 0.180136 0.012248
v 0.134522 0.174184 0.012248
v 0.135856 0.168210 0.012248
v 0.135754 0.162186 0.012248
v 0.118716 0.161591 0.012248
v 0.118193 0.167593 0.012248
v 0.119108 0.173646 0.012248
v 0.120658 0.179721 0.012248
v 0.126605 0.179928 0.011524
v 0.126815 0.173915 0.011524
v 0.127025 0.167902 0.011524
v 0.127235 0.161889 0.011524
vn 0.0005 -0.0159 -0.9998
vn 0.0939 -0.0090 -0.9955
vn 0.1119 -0.0255 -0.9934
vn 0.0010 -0.0296 -0.9995
vn -0.0930 -0.0155 -0.9955
vn -0.1098 -0.0333 -0.9934
vn -0.0010 0.0299 -0.9995
vn 0.1491 0.0348 -0.9882
vn 0.1218 0.0251 -0.9922
vn -0.0008 0.0227 -0.9997
vn 0.0945 0.0145 -0.9954
vn -0.0004 0.0118 -0.9999
vn 0.0849 0.0057 -0.9963
vn -0.0001 0.0030 -1.0000
vn -0.1512 0.0243 -0.9882
vn -0.1233 0.0165 -0.9922
vn -0.0952 0.0079 -0.9954
vn -0.0851 -0.0002 -0.9963
usemtl feather_001
s 1
f 18//1 10//2 3//3 6//4
f 11//5 18//1 6//4 4//6
f 5//7 1//8 7//9 15//10
f 15//10 7//9 8//11 16//12
f 16//12 8//11 9//13 17//14
f 17//14 9//13 10//2 18//1
f 2//15 5//7 15//10 14//16
f 14//16 15//10 16//12 13//17
f 13//17 16//12 17//14 12//18
f 12//18 17//14 18//1 11//5
