# Blender v2.79 (sub 0) OBJ File: 'ara_base_mesh_BI.blend'
# www.blender.org
mtllib ara_feather_tail_secondary_003.mtl
o feather_tail_secondary_003
v 0.014620 0.125308 -0.271845
v 0.003427 0.125308 -0.274588
v 0.007161 0.126499 -0.265614
v 0.023306 0.125308 -0.296416
v 0.033224 0.125308 -0.328743
v 0.013230 0.125308 -0.333641
v 0.007082 0.125308 -0.300390
v 0.015194 0.126499 -0.298403
v 0.023227 0.126499 -0.331192
v 0.058142 0.125308 -0.431270
v 0.052583 0.125308 -0.402972
v 0.043145 0.125308 -0.365798
v 0.021561 0.125308 -0.371086
v 0.030374 0.125308 -0.408413
v 0.038525 0.125308 -0.436076
v 0.050605 0.126499 -0.442943
v 0.041479 0.126499 -0.405693
v 0.032353 0.126499 -0.368442
vn -0.0018 1.0000 0.0073
vn 0.1638 0.9853 0.0477
vn 0.1420 0.9890 0.0404
vn -0.0013 1.0000 0.0054
vn 0.1145 0.9929 0.0305
vn -0.0005 1.0000 0.0023
vn -0.1673 0.9853 -0.0334
vn -0.1446 0.9890 -0.0298
vn -0.1157 0.9929 -0.0259
vn 0.1046 0.9941 0.0264
vn -0.0002 1.0000 0.0008
vn 0.1051 0.9941 0.0248
vn 0.0002 1.0000 -0.0009
vn 0.1083 0.9938 0.0243
vn 0.0005 1.0000 -0.0021
vn -0.1049 0.9941 -0.0249
vn -0.1047 0.9941 -0.0265
vn -0.1072 0.9938 -0.0285
usemtl feather_001
s 1
f 3//1 1//2 4//3 8//4
f 8//4 4//3 5//5 9//6
f 2//7 3//1 8//4 7//8
f 7//8 8//4 9//6 6//9
f 9//6 5//5 12//10 18//11
f 18//11 12//10 11//12 17//13
f 17//13 11//12 10//14 16//15
f 6//9 9//6 18//11 13//16
f 13//16 18//11 17//13 14//17
f 14//17 17//13 16//15 15//18
