# Blender v2.79 (sub 0) OBJ File: 'ara_base_mesh_BI.blend'
# www.blender.org
mtllib ara_feather_flight_secondary_032.mtl
o feather_flight_secondary_032
v 0.394325 0.191098 0.012921
v 0.391388 0.178549 0.013129
v 0.482237 0.172429 0.012162
v 0.478228 0.155304 0.012445
v 0.388403 0.185908 0.012334
v 0.490019 0.161536 0.011494
v 0.409920 0.190960 0.012743
v 0.429853 0.189208 0.012536
v 0.449543 0.186421 0.012347
v 0.468685 0.181291 0.012196
v 0.462188 0.153539 0.012655
v 0.442807 0.157649 0.012823
v 0.423975 0.164101 0.012952
v 0.405385 0.171589 0.013063
v 0.407664 0.181288 0.012175
v 0.426926 0.176669 0.012016
v 0.446187 0.172049 0.011856
v 0.465449 0.167429 0.011697
vn -0.0068 -0.0148 -0.9998
vn 0.0060 0.0411 -0.9991
vn 0.0129 0.0494 -0.9987
vn -0.0028 -0.0161 -0.9998
vn -0.0207 -0.0705 -0.9973
vn -0.0183 -0.0808 -0.9966
vn -0.0204 -0.0113 -0.9997
vn 0.0008 0.0770 -0.9970
vn -0.0003 0.0615 -0.9981
vn -0.0183 -0.0121 -0.9998
vn -0.0015 0.0432 -0.9991
vn -0.0150 -0.0129 -0.9998
vn -0.0004 0.0363 -0.9993
vn -0.0124 -0.0135 -0.9998
vn -0.0415 -0.0998 -0.9941
vn -0.0355 -0.0855 -0.9957
vn -0.0284 -0.0689 -0.9972
vn -0.0243 -0.0634 -0.9977
usemtl feather_002
s 1
f 18//1 10//2 3//3 6//4
f 11//5 18//1 6//4 4//6
f 5//7 1//8 7//9 15//10
f 15//10 7//9 8//11 16//12
f 16//12 8//11 9//13 17//14
f 17//14 9//13 10//2 18//1
f 2//15 5//7 15//10 14//16
f 14//16 15//10 16//12 13//17
f 13//17 16//12 17//14 12//18
f 12//18 17//14 18//1 11//5
