# Blender v2.79 (sub 0) OBJ File: 'ara_base_mesh_BI.blend'
# www.blender.org
mtllib ara_feather_flight_tertiary_013.mtl
o feather_flight_tertiary_013
v 0.192382 0.184691 0.015106
v 0.184594 0.184185 0.015112
v 0.195713 0.155364 0.015162
v 0.185085 0.154674 0.015169
v 0.188390 0.185940 0.015831
v 0.190612 0.151726 0.015896
v 0.194823 0.179846 0.015114
v 0.197024 0.173477 0.015125
v 0.198582 0.167065 0.015137
v 0.198687 0.160559 0.015150
v 0.181464 0.159441 0.015162
v 0.180726 0.165906 0.015150
v 0.181442 0.172465 0.015137
v 0.182801 0.179066 0.015123
v 0.188811 0.179455 0.015843
v 0.189232 0.172969 0.015856
v 0.189654 0.166484 0.015868
v 0.190075 0.159999 0.015881
vn -0.0015 0.0127 -0.9999
vn -0.0937 0.0036 -0.9956
vn -0.1117 0.0182 -0.9936
vn -0.0024 0.0254 -0.9997
vn 0.0910 0.0156 -0.9957
vn 0.1070 0.0324 -0.9937
vn 0.0012 -0.0296 -0.9995
vn -0.1469 -0.0389 -0.9884
vn -0.1205 -0.0292 -0.9923
vn 0.0008 -0.0229 -0.9997
vn -0.0936 -0.0184 -0.9954
vn 0.0001 -0.0129 -0.9999
vn -0.0843 -0.0099 -0.9964
vn -0.0004 -0.0047 -1.0000
vn 0.1493 -0.0197 -0.9886
vn 0.1219 -0.0134 -0.9924
vn 0.0938 -0.0063 -0.9955
vn 0.0835 0.0009 -0.9965
usemtl feather_001
s 1
f 18//1 10//2 3//3 6//4
f 11//5 18//1 6//4 4//6
f 5//7 1//8 7//9 15//10
f 15//10 7//9 8//11 16//12
f 16//12 8//11 9//13 17//14
f 17//14 9//13 10//2 18//1
f 2//15 5//7 15//10 14//16
f 14//16 15//10 16//12 13//17
f 13//17 16//12 17//14 12//18
f 12//18 17//14 18//1 11//5
