# Blender v2.79 (sub 0) OBJ File: 'ara_base_mesh_BI.blend'
# www.blender.org
mtllib ara_feather_flight_primary_013.mtl
o feather_flight_primary_013
v 0.324749 0.186255 0.013275
v 0.313799 0.175305 0.013275
v 0.427734 0.087263 0.013275
v 0.412791 0.072320 0.013275
v 0.314113 0.185941 0.014000
v 0.431560 0.068494 0.014000
v 0.344827 0.172131 0.013275
v 0.369591 0.152371 0.013275
v 0.393452 0.131708 0.013275
v 0.415270 0.109001 0.013275
v 0.391053 0.084784 0.013275
v 0.368347 0.106602 0.013275
v 0.347683 0.130463 0.013275
v 0.327923 0.155227 0.013275
v 0.336375 0.163679 0.014000
v 0.358637 0.141417 0.014000
v 0.380899 0.119155 0.014000
v 0.403162 0.096893 0.014000
vn -0.0021 0.0021 -1.0000
vn -0.0358 -0.0318 -0.9988
vn -0.0432 -0.0352 -0.9984
vn -0.0040 0.0040 -1.0000
vn 0.0318 0.0358 -0.9988
vn 0.0352 0.0432 -0.9984
vn 0.0040 -0.0040 -1.0000
vn -0.0493 -0.0574 -0.9971
vn -0.0416 -0.0475 -0.9980
vn 0.0031 -0.0031 -1.0000
vn -0.0323 -0.0354 -0.9988
vn 0.0016 -0.0016 -1.0000
vn -0.0296 -0.0304 -0.9991
vn 0.0004 -0.0004 -1.0000
vn 0.0574 0.0493 -0.9971
vn 0.0475 0.0416 -0.9980
vn 0.0354 0.0323 -0.9988
vn 0.0304 0.0296 -0.9991
usemtl feather_003
s 1
f 18//1 10//2 3//3 6//4
f 11//5 18//1 6//4 4//6
f 5//7 1//8 7//9 15//10
f 15//10 7//9 8//11 16//12
f 16//12 8//11 9//13 17//14
f 17//14 9//13 10//2 18//1
f 2//15 5//7 15//10 14//16
f 14//16 15//10 16//12 13//17
f 13//17 16//12 17//14 12//18
f 12//18 17//14 18//1 11//5
