# Blender v2.79 (sub 0) OBJ File: 'ara_base_mesh_BI.blend'
# www.blender.org
mtllib ara_feather_flight_tertiary_060.mtl
o feather_flight_tertiary_060
v 0.346881 0.187643 0.012182
v 0.342942 0.182171 0.012285
v 0.373940 0.169396 0.011865
v 0.368565 0.161928 0.012006
v 0.343581 0.185898 0.011521
v 0.374215 0.163516 0.011174
v 0.352412 0.185872 0.012103
v 0.359119 0.182880 0.012014
v 0.365500 0.179436 0.011933
v 0.371147 0.174972 0.011871
v 0.362437 0.162870 0.012101
v 0.356471 0.166890 0.012170
v 0.351239 0.171932 0.012221
v 0.346332 0.177425 0.012263
v 0.349388 0.181655 0.011455
v 0.355194 0.177413 0.011390
v 0.361001 0.173170 0.011324
v 0.366808 0.168928 0.011258
vn -0.0053 -0.0144 -0.9999
vn 0.0566 0.0742 -0.9956
vn 0.0791 0.0816 -0.9935
vn 0.0035 -0.0219 -0.9997
vn -0.0710 -0.1006 -0.9924
vn -0.0710 -0.1236 -0.9898
vn -0.0360 0.0088 -0.9993
vn 0.0655 0.1471 -0.9869
vn 0.0533 0.1188 -0.9915
vn -0.0315 0.0046 -0.9995
vn 0.0405 0.0872 -0.9954
vn -0.0243 -0.0009 -0.9997
vn 0.0394 0.0734 -0.9965
vn -0.0183 -0.0053 -0.9998
vn -0.1369 -0.1304 -0.9819
vn -0.1139 -0.1106 -0.9873
vn -0.0882 -0.0893 -0.9921
vn -0.0757 -0.0842 -0.9936
usemtl feather_001
s 1
f 18//1 10//2 3//3 6//4
f 11//5 18//1 6//4 4//6
f 5//7 1//8 7//9 15//10
f 15//10 7//9 8//11 16//12
f 16//12 8//11 9//13 17//14
f 17//14 9//13 10//2 18//1
f 2//15 5//7 15//10 14//16
f 14//16 15//10 16//12 13//17
f 13//17 16//12 17//14 12//18
f 12//18 17//14 18//1 11//5
