# Blender v2.79 (sub 0) OBJ File: 'ara_base_mesh_BI.blend'
# www.blender.org
mtllib ara_feather_tail_secondary_002.mtl
o feather_tail_secondary_002
v 0.014415 0.125477 -0.269173
v 0.003747 0.125477 -0.273218
v 0.006703 0.126549 -0.264922
v 0.024693 0.125477 -0.289047
v 0.036748 0.125477 -0.315422
v 0.017693 0.125477 -0.322647
v 0.009230 0.125477 -0.294910
v 0.016962 0.126549 -0.291978
v 0.027221 0.126549 -0.319034
v 0.068634 0.125477 -0.400053
v 0.061114 0.125477 -0.376497
v 0.049162 0.125477 -0.345872
v 0.028591 0.125477 -0.353672
v 0.039948 0.125477 -0.384523
v 0.049937 0.125477 -0.407142
v 0.062186 0.126549 -0.411247
v 0.050531 0.126549 -0.380510
v 0.038876 0.126549 -0.349772
vn -0.0028 0.9999 0.0074
vn 0.1425 0.9878 0.0623
vn 0.1235 0.9909 0.0529
vn -0.0021 1.0000 0.0055
vn 0.0999 0.9941 0.0406
vn -0.0009 1.0000 0.0024
vn -0.1480 0.9878 -0.0478
vn -0.1275 0.9909 -0.0423
vn -0.1017 0.9941 -0.0359
vn 0.0915 0.9951 0.0356
vn -0.0003 1.0000 0.0008
vn 0.0922 0.9951 0.0340
vn 0.0003 1.0000 -0.0009
vn 0.0952 0.9949 0.0336
vn 0.0008 1.0000 -0.0022
vn -0.0920 0.9951 -0.0340
vn -0.0916 0.9951 -0.0357
vn -0.0936 0.9949 -0.0380
usemtl feather_001
s 1
f 3//1 1//2 4//3 8//4
f 8//4 4//3 5//5 9//6
f 2//7 3//1 8//4 7//8
f 7//8 8//4 9//6 6//9
f 9//6 5//5 12//10 18//11
f 18//11 12//10 11//12 17//13
f 17//13 11//12 10//14 16//15
f 6//9 9//6 18//11 13//16
f 13//16 18//11 17//13 14//17
f 14//17 17//13 16//15 15//18
