# Blender v2.79 (sub 0) OBJ File: 'boa_constrictor_base_mesh_BI.blend'
# www.blender.org
mtllib boa_constrictor_eye.mtl
o eye
v 0.061685 0.090427 1.181901
v 0.057366 0.095203 1.180655
v 0.051687 0.097901 1.178789
v 0.045512 0.098112 1.176589
v 0.039781 0.095802 1.174389
v 0.035368 0.091324 1.172524
v 0.032943 0.085359 1.171278
v 0.062599 0.090091 1.179588
v 0.059055 0.094582 1.176381
v 0.053894 0.097090 1.173205
v 0.047901 0.097234 1.170545
v 0.041988 0.094991 1.168805
v 0.037057 0.090703 1.168250
v 0.033857 0.085023 1.168965
v 0.063544 0.088842 1.177627
v 0.060801 0.092274 1.172757
v 0.056175 0.094074 1.168471
v 0.050370 0.093969 1.165421
v 0.044270 0.091975 1.164071
v 0.038803 0.088395 1.164627
v 0.034802 0.083774 1.167004
v 0.032876 0.078815 1.170841
v 0.064376 0.086869 1.176316
v 0.062339 0.088629 1.170336
v 0.058184 0.089313 1.165308
v 0.052545 0.088815 1.161997
v 0.046279 0.087213 1.160907
v 0.040340 0.084750 1.162206
v 0.035634 0.081801 1.165694
v 0.064969 0.084474 1.175856
v 0.063433 0.084204 1.169486
v 0.059614 0.083530 1.164197
v 0.054092 0.082557 1.160794
v 0.047709 0.081431 1.159797
v 0.041435 0.080325 1.161355
v 0.036226 0.079406 1.165234
v 0.065231 0.082021 1.176316
v 0.063918 0.079671 1.170336
v 0.060248 0.077607 1.165308
v 0.054779 0.076146 1.161997
v 0.048343 0.075508 1.160907
v 0.041920 0.075792 1.162206
v 0.036489 0.076953 1.165694
v 0.063986 0.084301 1.182338
v 0.065124 0.079883 1.177627
v 0.063720 0.075720 1.172757
v 0.059989 0.072446 1.168471
v 0.054498 0.070559 1.165421
v 0.048084 0.070347 1.164071
v 0.041722 0.071841 1.164627
v 0.036382 0.074815 1.167004
v 0.064663 0.078386 1.179588
v 0.062869 0.072954 1.176381
v 0.058877 0.068832 1.173205
v 0.053294 0.066647 1.170545
v 0.046971 0.066732 1.168805
v 0.040871 0.069075 1.168250
v 0.035921 0.073318 1.168965
v 0.063919 0.077758 1.181901
v 0.061494 0.071793 1.180655
v 0.057080 0.067315 1.178789
v 0.051350 0.065005 1.176589
v 0.045175 0.065215 1.174389
v 0.039496 0.067914 1.172524
v 0.035177 0.072690 1.171278
v 0.063005 0.078094 1.184214
v 0.059805 0.072414 1.184929
v 0.054873 0.068126 1.184374
v 0.048961 0.065883 1.182634
v 0.042968 0.066026 1.179974
v 0.037806 0.068535 1.176798
v 0.034263 0.073026 1.173591
v 0.062060 0.079343 1.186175
v 0.058059 0.074722 1.188552
v 0.052592 0.071142 1.189108
v 0.046491 0.069147 1.187758
v 0.040686 0.069042 1.184708
v 0.036060 0.070843 1.180422
v 0.033318 0.074275 1.175552
v 0.061228 0.081315 1.187485
v 0.056521 0.078366 1.190973
v 0.050583 0.075903 1.192272
v 0.044317 0.074301 1.191182
v 0.038678 0.073804 1.187871
v 0.034523 0.074487 1.182843
v 0.032485 0.076247 1.176863
v 0.060635 0.083710 1.187945
v 0.055427 0.082792 1.191823
v 0.049153 0.081686 1.193382
v 0.042769 0.080560 1.192385
v 0.037247 0.079586 1.188982
v 0.033428 0.078913 1.183693
v 0.031893 0.078642 1.177323
v 0.060373 0.086164 1.187485
v 0.054942 0.087325 1.190973
v 0.048519 0.087608 1.192271
v 0.042083 0.086971 1.191182
v 0.036614 0.085509 1.187871
v 0.032943 0.083446 1.182843
v 0.031631 0.081096 1.176863
v 0.060480 0.088302 1.186175
v 0.055140 0.091275 1.188552
v 0.048778 0.092770 1.189108
v 0.042364 0.092557 1.187758
v 0.036873 0.090671 1.184708
v 0.033141 0.087396 1.180422
v 0.031738 0.083233 1.175552
v 0.060941 0.089799 1.184214
v 0.055991 0.094042 1.184929
v 0.049890 0.096384 1.184374
v 0.043568 0.096470 1.182634
v 0.037985 0.094285 1.179974
v 0.033993 0.090163 1.176798
v 0.032199 0.084731 1.173591
v 0.059526 0.092815 1.181278
v 0.060827 0.092337 1.177984
v 0.062173 0.090558 1.175192
v 0.063358 0.087749 1.173326
v 0.064201 0.084339 1.172671
v 0.064575 0.080846 1.173326
v 0.064422 0.077802 1.175192
v 0.063766 0.075670 1.177984
v 0.062706 0.074775 1.181278
v 0.061405 0.075254 1.184571
v 0.060059 0.077032 1.187364
v 0.058874 0.079841 1.189229
v 0.058031 0.083251 1.189884
v 0.057657 0.086744 1.189229
v 0.057810 0.089788 1.187364
v 0.058466 0.091920 1.184571
vn -0.9169 0.2476 -0.3130
vn -0.7681 0.5945 -0.2377
vn -0.6660 0.5569 -0.4963
vn -0.8596 0.2266 -0.4579
vn -0.5075 0.8521 -0.1280
vn -0.3757 0.8036 -0.4615
vn -0.1736 0.9848 0.0000
vn -0.0315 0.9326 -0.3596
vn 0.1854 0.9743 0.1280
vn 0.3172 0.9258 -0.2054
vn 0.5184 0.8213 0.2377
vn 0.6206 0.7838 -0.0207
vn -0.5604 0.4173 -0.7154
vn -0.8004 0.1483 -0.5808
vn -0.2394 0.6236 -0.7442
vn 0.1154 0.7383 -0.6644
vn 0.4534 0.7458 -0.4881
vn 0.7262 0.6442 -0.2399
vn -0.4674 0.1969 -0.8618
vn -0.7482 0.0247 -0.6630
vn -0.1195 0.3392 -0.9330
vn 0.2447 0.4317 -0.8682
vn 0.5734 0.4614 -0.6770
vn 0.8192 0.4238 -0.3863
vn -0.4012 -0.0707 -0.9132
vn -0.7111 -0.1254 -0.6918
vn -0.0341 -0.0060 -0.9994
vn 0.3368 0.0594 -0.9397
vn 0.6588 0.1162 -0.7433
vn 0.8854 0.1561 -0.4377
vn -0.3718 -0.3449 -0.8618
vn -0.6947 -0.2791 -0.6630
vn 0.0037 -0.3597 -0.9330
vn 0.3776 -0.3220 -0.8682
vn 0.6966 -0.2375 -0.6770
vn 0.9148 -0.1180 -0.3863
vn -0.3838 -0.5838 -0.7154
vn -0.7014 -0.4131 -0.5808
vn -0.0117 -0.6679 -0.7442
vn 0.3609 -0.6543 -0.6644
vn 0.6811 -0.5457 -0.4881
vn 0.9028 -0.3569 -0.2399
vn -0.4353 -0.7511 -0.4963
vn -0.7303 -0.5069 -0.4579
vn -0.0782 -0.8837 -0.4615
vn 0.2893 -0.8871 -0.3596
vn 0.6147 -0.7615 -0.2054
vn 0.8513 -0.5243 -0.0207
vn -0.5185 -0.8213 -0.2377
vn -0.7769 -0.5463 -0.3130
vn -0.1854 -0.9743 -0.1280
vn 0.1736 -0.9848 0.0000
vn 0.5075 -0.8521 0.1280
vn 0.7681 -0.5945 0.2377
vn -0.6206 -0.7838 0.0207
vn -0.8342 -0.5252 -0.1680
vn -0.3172 -0.9258 0.2054
vn 0.0315 -0.9326 0.3596
vn 0.3757 -0.8036 0.4615
vn 0.6660 -0.5569 0.4962
vn -0.7262 -0.6442 0.2399
vn -0.8934 -0.4469 -0.0452
vn -0.4534 -0.7458 0.4881
vn -0.1154 -0.7383 0.6644
vn 0.2394 -0.6236 0.7442
vn 0.5604 -0.4173 0.7154
vn -0.8192 -0.4238 0.3863
vn -0.9455 -0.3233 0.0369
vn -0.5734 -0.4614 0.6770
vn -0.2447 -0.4317 0.8682
vn 0.1195 -0.3392 0.9330
vn 0.4674 -0.1969 0.8618
vn -0.8854 -0.1561 0.4377
vn -0.9827 -0.1733 0.0658
vn -0.6588 -0.1162 0.7433
vn -0.3368 -0.0594 0.9397
vn 0.0341 0.0060 0.9994
vn 0.4012 0.0707 0.9132
vn -0.9148 0.1180 0.3863
vn -0.9991 -0.0195 0.0369
vn -0.6966 0.2375 0.6770
vn -0.3776 0.3220 0.8682
vn -0.0037 0.3597 0.9330
vn 0.3718 0.3449 0.8618
vn -0.9028 0.3569 0.2399
vn -0.9924 0.1144 -0.0451
vn -0.6811 0.5457 0.4881
vn -0.3609 0.6543 0.6644
vn 0.0117 0.6679 0.7442
vn 0.3838 0.5838 0.7154
vn -0.8513 0.5242 0.0207
vn -0.9635 0.2082 -0.1680
vn -0.6147 0.7615 0.2054
vn -0.2893 0.8871 0.3596
vn 0.0781 0.8837 0.4615
vn 0.4353 0.7511 0.4962
vn -0.9254 -0.1632 -0.3420
vn 0.6730 0.6828 0.2844
vn 0.7519 0.6538 0.0846
vn 0.8336 0.5459 -0.0847
vn 0.9054 0.3755 -0.1979
vn 0.9566 0.1686 -0.2377
vn 0.9792 -0.0432 -0.1979
vn 0.9700 -0.2279 -0.0847
vn 0.9302 -0.3572 0.0846
vn 0.8659 -0.4115 0.2844
vn 0.7870 -0.3824 0.4841
vn 0.7053 -0.2745 0.6535
vn 0.6335 -0.1042 0.7667
vn 0.5823 0.1027 0.8064
vn 0.5596 0.3146 0.7667
vn 0.5689 0.4992 0.6535
vn 0.6087 0.6285 0.4841
vn 0.7769 0.5463 0.3130
vn 0.8342 0.5252 0.1680
vn 0.8934 0.4469 0.0452
vn 0.9455 0.3233 -0.0369
vn 0.9827 0.1733 -0.0658
vn 0.9991 0.0195 -0.0369
vn 0.9924 -0.1144 0.0452
vn 0.9635 -0.2082 0.1680
vn 0.9169 -0.2476 0.3130
vn 0.8596 -0.2266 0.4579
vn 0.8004 -0.1483 0.5808
vn 0.7483 -0.0247 0.6629
vn 0.7111 0.1254 0.6918
vn 0.6947 0.2791 0.6630
vn 0.7014 0.4131 0.5808
vn 0.7302 0.5069 0.4579
vn 0.9254 0.1632 0.3420
usemtl eyes_iris
s 1
f 7//1 6//2 13//3 14//4
f 6//2 5//5 12//6 13//3
f 5//5 4//7 11//8 12//6
f 4//7 3//9 10//10 11//8
f 3//9 2//11 9//12 10//10
f 14//4 13//3 20//13 21//14
f 13//3 12//6 19//15 20//13
f 12//6 11//8 18//16 19//15
f 11//8 10//10 17//17 18//16
f 10//10 9//12 16//18 17//17
f 21//14 20//13 28//19 29//20
f 20//13 19//15 27//21 28//19
f 19//15 18//16 26//22 27//21
f 18//16 17//17 25//23 26//22
f 17//17 16//18 24//24 25//23
f 29//20 28//19 35//25 36//26
f 28//19 27//21 34//27 35//25
f 27//21 26//22 33//28 34//27
f 26//22 25//23 32//29 33//28
f 25//23 24//24 31//30 32//29
f 36//26 35//25 42//31 43//32
f 35//25 34//27 41//33 42//31
f 34//27 33//28 40//34 41//33
f 33//28 32//29 39//35 40//34
f 32//29 31//30 38//36 39//35
f 43//32 42//31 50//37 51//38
f 42//31 41//33 49//39 50//37
f 41//33 40//34 48//40 49//39
f 40//34 39//35 47//41 48//40
f 39//35 38//36 46//42 47//41
f 51//38 50//37 57//43 58//44
f 50//37 49//39 56//45 57//43
f 49//39 48//40 55//46 56//45
f 48//40 47//41 54//47 55//46
f 47//41 46//42 53//48 54//47
f 58//44 57//43 64//49 65//50
f 57//43 56//45 63//51 64//49
f 56//45 55//46 62//52 63//51
f 55//46 54//47 61//53 62//52
f 54//47 53//48 60//54 61//53
f 65//50 64//49 71//55 72//56
f 64//49 63//51 70//57 71//55
f 63//51 62//52 69//58 70//57
f 62//52 61//53 68//59 69//58
f 61//53 60//54 67//60 68//59
f 72//56 71//55 78//61 79//62
f 71//55 70//57 77//63 78//61
f 70//57 69//58 76//64 77//63
f 69//58 68//59 75//65 76//64
f 68//59 67//60 74//66 75//65
f 79//62 78//61 85//67 86//68
f 78//61 77//63 84//69 85//67
f 77//63 76//64 83//70 84//69
f 76//64 75//65 82//71 83//70
f 75//65 74//66 81//72 82//71
f 86//68 85//67 92//73 93//74
f 85//67 84//69 91//75 92//73
f 84//69 83//70 90//76 91//75
f 83//70 82//71 89//77 90//76
f 82//71 81//72 88//78 89//77
f 93//74 92//73 99//79 100//80
f 92//73 91//75 98//81 99//79
f 91//75 90//76 97//82 98//81
f 90//76 89//77 96//83 97//82
f 89//77 88//78 95//84 96//83
f 100//80 99//79 106//85 107//86
f 99//79 98//81 105//87 106//85
f 98//81 97//82 104//88 105//87
f 97//82 96//83 103//89 104//88
f 96//83 95//84 102//90 103//89
f 107//86 106//85 113//91 114//92
f 106//85 105//87 112//93 113//91
f 105//87 104//88 111//94 112//93
f 104//88 103//89 110//95 111//94
f 103//89 102//90 109//96 110//95
f 22//97 7//1 14//4
f 22//97 14//4 21//14
f 22//97 21//14 29//20
f 22//97 29//20 36//26
f 22//97 36//26 43//32
f 22//97 43//32 51//38
f 22//97 51//38 58//44
f 22//97 58//44 65//50
f 22//97 65//50 72//56
f 22//97 72//56 79//62
f 22//97 79//62 86//68
f 22//97 86//68 93//74
f 22//97 93//74 100//80
f 22//97 100//80 107//86
f 22//97 107//86 114//92
f 22//97 114//92 7//1
f 114//92 113//91 6//2 7//1
f 113//91 112//93 5//5 6//2
f 112//93 111//94 4//7 5//5
f 111//94 110//95 3//9 4//7
f 110//95 109//96 2//11 3//9
f 2//11 115//98 116//99 9//12
f 9//12 116//99 117//100 16//18
f 16//18 117//100 118//101 24//24
f 24//24 118//101 119//102 31//30
f 31//30 119//102 120//103 38//36
f 38//36 120//103 121//104 46//42
f 46//42 121//104 122//105 53//48
f 53//48 122//105 123//106 60//54
f 60//54 123//106 124//107 67//60
f 67//60 124//107 125//108 74//66
f 74//66 125//108 126//109 81//72
f 81//72 126//109 127//110 88//78
f 88//78 127//110 128//111 95//84
f 95//84 128//111 129//112 102//90
f 102//90 129//112 130//113 109//96
f 109//96 130//113 115//98 2//11
usemtl eyes_pupil
f 115//98 1//114 8//115 116//99
f 116//99 8//115 15//116 117//100
f 117//100 15//116 23//117 118//101
f 118//101 23//117 30//118 119//102
f 119//102 30//118 37//119 120//103
f 120//103 37//119 45//120 121//104
f 121//104 45//120 52//121 122//105
f 122//105 52//121 59//122 123//106
f 123//106 59//122 66//123 124//107
f 124//107 66//123 73//124 125//108
f 125//108 73//124 80//125 126//109
f 126//109 80//125 87//126 127//110
f 127//110 87//126 94//127 128//111
f 128//111 94//127 101//128 129//112
f 129//112 101//128 108//129 130//113
f 1//114 44//130 8//115
f 8//115 44//130 15//116
f 15//116 44//130 23//117
f 23//117 44//130 30//118
f 30//118 44//130 37//119
f 37//119 44//130 45//120
f 45//120 44//130 52//121
f 52//121 44//130 59//122
f 59//122 44//130 66//123
f 66//123 44//130 73//124
f 73//124 44//130 80//125
f 80//125 44//130 87//126
f 87//126 44//130 94//127
f 94//127 44//130 101//128
f 101//128 44//130 108//129
f 130//113 108//129 1//114 115//98
f 108//129 44//130 1//114
