# Blender v2.79 (sub 0) OBJ File: 'budgie_base_mesh_BI.blend'
# www.blender.org
mtllib budgie_feather_flight_tertiary_050.mtl
o feather_flight_tertiary_050
v 0.110434 0.097721 0.035293
v 0.106971 0.097022 0.035287
v 0.113863 0.083997 0.035235
v 0.109137 0.083044 0.035227
v 0.108559 0.098078 0.034971
v 0.111655 0.082748 0.034906
v 0.111849 0.095565 0.035285
v 0.113257 0.092671 0.035273
v 0.114379 0.089720 0.035261
v 0.114855 0.086638 0.035248
v 0.107197 0.085093 0.035234
v 0.106440 0.088119 0.035246
v 0.106329 0.091274 0.035260
v 0.106503 0.094487 0.035275
v 0.109176 0.095024 0.034958
v 0.109792 0.091971 0.034945
v 0.110409 0.088918 0.034932
v 0.111026 0.085864 0.034919
vn 0.0039 -0.0103 -0.9999
vn 0.0915 0.0105 -0.9957
vn 0.1093 -0.0024 -0.9940
vn 0.0066 -0.0233 -0.9997
vn -0.0849 -0.0251 -0.9961
vn -0.0963 -0.0439 -0.9944
vn -0.0042 0.0296 -0.9995
vn 0.1387 0.0581 -0.9886
vn 0.1145 0.0457 -0.9923
vn -0.0029 0.0235 -0.9997
vn 0.0894 0.0322 -0.9955
vn -0.0010 0.0144 -0.9999
vn 0.0814 0.0231 -0.9964
vn 0.0004 0.0070 -1.0000
vn -0.1470 0.0004 -0.9891
vn -0.1198 -0.0015 -0.9928
vn -0.0913 -0.0043 -0.9958
vn -0.0804 -0.0096 -0.9967
usemtl feather_blue_001
s 1
f 18//1 10//2 3//3 6//4
f 11//5 18//1 6//4 4//6
f 5//7 1//8 7//9 15//10
f 15//10 7//9 8//11 16//12
f 16//12 8//11 9//13 17//14
f 17//14 9//13 10//2 18//1
f 2//15 5//7 15//10 14//16
f 14//16 15//10 16//12 13//17
f 13//17 16//12 17//14 12//18
f 12//18 17//14 18//1 11//5
