# Blender v2.79 (sub 0) OBJ File: 'budgie_base_mesh_BI.blend'
# www.blender.org
mtllib budgie_feather_flight_primary_012.mtl
o feather_flight_primary_012
v 0.136928 0.097513 0.035749
v 0.131683 0.093702 0.035749
v 0.173028 0.049836 0.035749
v 0.165871 0.044636 0.035749
v 0.132510 0.098080 0.036071
v 0.171405 0.044545 0.036071
v 0.144305 0.090358 0.035749
v 0.153251 0.080565 0.035749
v 0.161764 0.070459 0.035749
v 0.169298 0.059641 0.035749
v 0.157699 0.051213 0.035749
v 0.149739 0.061722 0.035749
v 0.142757 0.072941 0.035749
v 0.136209 0.084475 0.035749
v 0.140257 0.087416 0.036071
v 0.148004 0.076753 0.036071
v 0.155751 0.066090 0.036071
v 0.163499 0.055427 0.036071
vn -0.0021 0.0029 -1.0000
vn -0.0424 -0.0268 -0.9987
vn -0.0503 -0.0283 -0.9983
vn -0.0039 0.0054 -1.0000
vn 0.0385 0.0320 -0.9987
vn 0.0425 0.0391 -0.9983
vn 0.0035 -0.0049 -1.0000
vn -0.0612 -0.0519 -0.9968
vn -0.0515 -0.0429 -0.9977
vn 0.0027 -0.0037 -1.0000
vn -0.0397 -0.0317 -0.9987
vn 0.0014 -0.0019 -1.0000
vn -0.0361 -0.0270 -0.9990
vn 0.0003 -0.0005 -1.0000
vn 0.0683 0.0421 -0.9968
vn 0.0567 0.0357 -0.9977
vn 0.0425 0.0279 -0.9987
vn 0.0368 0.0260 -0.9990
usemtl feather_blue_003
s 1
f 18//1 10//2 3//3 6//4
f 11//5 18//1 6//4 4//6
f 5//7 1//8 7//9 15//10
f 15//10 7//9 8//11 16//12
f 16//12 8//11 9//13 17//14
f 17//14 9//13 10//2 18//1
f 2//15 5//7 15//10 14//16
f 14//16 15//10 16//12 13//17
f 13//17 16//12 17//14 12//18
f 12//18 17//14 18//1 11//5
