# Blender v2.79 (sub 0) OBJ File: 'budgie_base_mesh_BI.blend'
# www.blender.org
mtllib budgie_feather_flight_secondary_014.mtl
o feather_flight_secondary_014
v 0.154246 0.099135 0.036196
v 0.151035 0.094806 0.036102
v 0.183661 0.078634 0.036106
v 0.179280 0.072726 0.035978
v 0.151170 0.098066 0.036478
v 0.183078 0.074502 0.036359
v 0.160000 0.096706 0.036203
v 0.167089 0.093002 0.036201
v 0.173913 0.088941 0.036191
v 0.180139 0.084072 0.036164
v 0.173039 0.074499 0.035956
v 0.166553 0.079016 0.035976
v 0.160666 0.084342 0.036013
v 0.155044 0.090024 0.036059
v 0.157526 0.093372 0.036454
v 0.163881 0.088679 0.036430
v 0.170237 0.083985 0.036407
v 0.176592 0.079292 0.036383
vn 0.0030 0.0192 -0.9998
vn -0.0321 -0.0295 -0.9990
vn -0.0423 -0.0334 -0.9985
vn -0.0012 0.0223 -0.9997
vn 0.0393 0.0670 -0.9969
vn 0.0399 0.0778 -0.9962
vn 0.0161 0.0097 -0.9998
vn -0.0415 -0.0683 -0.9968
vn -0.0339 -0.0533 -0.9980
vn 0.0139 0.0109 -0.9998
vn -0.0253 -0.0359 -0.9990
vn 0.0110 0.0132 -0.9998
vn -0.0237 -0.0287 -0.9993
vn 0.0087 0.0150 -0.9998
vn 0.0731 0.0870 -0.9935
vn 0.0613 0.0756 -0.9952
vn 0.0473 0.0624 -0.9969
vn 0.0409 0.0588 -0.9974
usemtl feather_blue_002
s 1
f 18//1 10//2 3//3 6//4
f 11//5 18//1 6//4 4//6
f 5//7 1//8 7//9 15//10
f 15//10 7//9 8//11 16//12
f 16//12 8//11 9//13 17//14
f 17//14 9//13 10//2 18//1
f 2//15 5//7 15//10 14//16
f 14//16 15//10 16//12 13//17
f 13//17 16//12 17//14 12//18
f 12//18 17//14 18//1 11//5
