# Blender v2.79 (sub 0) OBJ File: 'budgie_base_mesh_BI.blend'
# www.blender.org
mtllib budgie_feather_tail_primary_004.mtl
o feather_tail_primary_004
v 0.003788 0.044743 -0.105754
v -0.002820 0.044743 -0.106577
v 0.019187 0.044743 -0.220158
v 0.010310 0.044743 -0.221264
v 0.000125 0.045160 -0.103284
v 0.015499 0.045160 -0.226739
v 0.006462 0.044743 -0.115115
v 0.009123 0.044743 -0.127405
v 0.018740 0.044743 -0.197898
v 0.019711 0.044743 -0.210398
v 0.007408 0.044743 -0.211930
v 0.005284 0.044743 -0.199574
v -0.002682 0.044743 -0.128875
v -0.003117 0.044743 -0.116308
v 0.001673 0.045160 -0.115712
v 0.003221 0.045160 -0.128140
v 0.012012 0.045160 -0.198736
v 0.013560 0.045160 -0.211164
v 0.017024 0.044743 -0.183774
v 0.015185 0.044743 -0.169665
v 0.013293 0.044743 -0.155562
v 0.011350 0.044743 -0.141466
v -0.001393 0.044743 -0.143053
v 0.000181 0.044743 -0.157195
v 0.001805 0.044743 -0.171331
v 0.003483 0.044743 -0.185460
v 0.010254 0.045160 -0.184617
v 0.008495 0.045160 -0.170498
v 0.006737 0.045160 -0.156378
v 0.004979 0.045160 -0.142259
vn 0.0004 1.0000 -0.0035
vn 0.0718 0.9974 0.0056
vn 0.0811 0.9967 0.0045
vn 0.0007 1.0000 -0.0055
vn -0.0710 0.9974 -0.0122
vn -0.0797 0.9967 -0.0155
vn -0.0009 1.0000 0.0070
vn 0.1025 0.9945 0.0199
vn 0.0883 0.9959 0.0161
vn -0.0006 1.0000 0.0052
vn 0.0712 0.9974 0.0111
vn -0.0003 1.0000 0.0023
vn 0.0000 1.0000 0.0000
vn 0.0608 0.9981 0.0076
vn 0.0623 0.9980 0.0070
vn 0.0001 1.0000 -0.0008
vn -0.1043 0.9945 -0.0059
vn -0.0896 0.9959 -0.0060
vn -0.0718 0.9974 -0.0067
vn -0.0608 0.9981 -0.0075
vn -0.0621 0.9980 -0.0085
vn 0.0650 0.9978 0.0089
vn -0.0001 1.0000 0.0008
vn 0.0626 0.9980 0.0081
vn -0.0000 1.0000 0.0003
vn 0.0614 0.9981 0.0079
vn 0.0000 1.0000 0.0002
vn -0.0652 0.9978 -0.0073
vn -0.0627 0.9980 -0.0074
vn -0.0614 0.9981 -0.0074
usemtl feather_blue_003
s 1
f 18//1 10//2 3//3 6//4
f 11//5 18//1 6//4 4//6
f 5//7 1//8 7//9 15//10
f 15//10 7//9 8//11 16//12
f 27//13 19//14 9//15 17//16
f 17//16 9//15 10//2 18//1
f 2//17 5//7 15//10 14//18
f 14//18 15//10 16//12 13//19
f 26//20 27//13 17//16 12//21
f 12//21 17//16 18//1 11//5
f 16//12 8//11 22//22 30//23
f 30//23 22//22 21//24 29//25
f 29//25 21//24 20//26 28//27
f 28//27 20//26 19//14 27//13
f 13//19 16//12 30//23 23//28
f 23//28 30//23 29//25 24//29
f 24//29 29//25 28//27 25//30
f 25//30 28//27 27//13 26//20
