# Blender v2.79 (sub 0) OBJ File: 'budgie_base_mesh_BI.blend'
# www.blender.org
mtllib budgie_feather_flight_tertiary_059.mtl
o feather_flight_tertiary_059
v 0.150753 0.098690 0.035262
v 0.148676 0.096388 0.035310
v 0.162200 0.088977 0.035115
v 0.159365 0.085835 0.035181
v 0.149156 0.098059 0.034970
v 0.161406 0.086845 0.034817
v 0.153192 0.097600 0.035226
v 0.156107 0.095893 0.035184
v 0.158850 0.093995 0.035147
v 0.161206 0.091668 0.035119
v 0.156611 0.086576 0.035225
v 0.154087 0.088717 0.035257
v 0.151950 0.091286 0.035280
v 0.149985 0.094046 0.035300
v 0.151596 0.095826 0.034940
v 0.154036 0.093592 0.034909
v 0.156476 0.091358 0.034879
v 0.158916 0.089125 0.034848
vn -0.0063 -0.0144 -0.9998
vn 0.0615 0.0633 -0.9961
vn 0.0838 0.0656 -0.9943
vn 0.0024 -0.0234 -0.9997
vn -0.0779 -0.0891 -0.9930
vn -0.0779 -0.1108 -0.9908
vn -0.0343 0.0121 -0.9993
vn 0.0779 0.1342 -0.9879
vn 0.0631 0.1082 -0.9921
vn -0.0305 0.0075 -0.9995
vn 0.0475 0.0791 -0.9957
vn -0.0241 0.0014 -0.9997
vn 0.0449 0.0661 -0.9968
vn -0.0189 -0.0034 -0.9998
vn -0.1461 -0.1110 -0.9830
vn -0.1219 -0.0943 -0.9880
vn -0.0949 -0.0766 -0.9925
vn -0.0823 -0.0730 -0.9939
usemtl feather_blue_001
s 1
f 18//1 10//2 3//3 6//4
f 11//5 18//1 6//4 4//6
f 5//7 1//8 7//9 15//10
f 15//10 7//9 8//11 16//12
f 16//12 8//11 9//13 17//14
f 17//14 9//13 10//2 18//1
f 2//15 5//7 15//10 14//16
f 14//16 15//10 16//12 13//17
f 13//17 16//12 17//14 12//18
f 12//18 17//14 18//1 11//5
