# Blender v2.79 (sub 0) OBJ File: 'budgie_base_mesh_BI.blend'
# www.blender.org
mtllib budgie_feather_tail_secondary_002.mtl
o feather_tail_secondary_002
v 0.006328 0.044811 -0.102948
v 0.001472 0.044811 -0.104789
v 0.003067 0.045186 -0.101672
v 0.010178 0.044811 -0.109811
v 0.014588 0.044811 -0.118974
v 0.005915 0.044811 -0.122263
v 0.003140 0.044811 -0.112480
v 0.006659 0.045186 -0.111145
v 0.010251 0.045186 -0.120618
v 0.025733 0.044811 -0.148612
v 0.023230 0.044811 -0.140315
v 0.019013 0.044811 -0.129605
v 0.009650 0.044811 -0.133155
v 0.013596 0.044811 -0.143969
v 0.017223 0.044811 -0.151839
v 0.022493 0.045186 -0.152904
v 0.018413 0.045186 -0.142142
v 0.014332 0.045186 -0.131380
vn -0.0028 0.9999 0.0074
vn 0.1095 0.9927 0.0499
vn 0.0946 0.9946 0.0420
vn -0.0021 1.0000 0.0055
vn 0.0768 0.9965 0.0318
vn -0.0009 1.0000 0.0024
vn -0.1151 0.9927 -0.0352
vn -0.0987 0.9946 -0.0313
vn -0.0786 0.9965 -0.0271
vn 0.0704 0.9971 0.0276
vn -0.0003 1.0000 0.0008
vn 0.0711 0.9971 0.0260
vn 0.0003 1.0000 -0.0009
vn 0.0736 0.9969 0.0254
vn 0.0008 1.0000 -0.0022
vn -0.0710 0.9971 -0.0260
vn -0.0705 0.9971 -0.0277
vn -0.0719 0.9969 -0.0298
usemtl feather_blue_001
s 1
f 3//1 1//2 4//3 8//4
f 8//4 4//3 5//5 9//6
f 2//7 3//1 8//4 7//8
f 7//8 8//4 9//6 6//9
f 9//6 5//5 12//10 18//11
f 18//11 12//10 11//12 17//13
f 17//13 11//12 10//14 16//15
f 6//9 9//6 18//11 13//16
f 13//16 18//11 17//13 14//17
f 14//17 17//13 16//15 15//18
