# Blender v2.79 (sub 0) OBJ File: 'budgie_base_mesh_BI.blend'
# www.blender.org
mtllib budgie_feather_flight_primary_003.mtl
o feather_flight_primary_003
v 0.053123 0.095871 0.035749
v 0.048437 0.095871 0.035749
v 0.053977 0.052652 0.035749
v 0.047582 0.052652 0.035749
v 0.050780 0.098080 0.036071
v 0.050780 0.050248 0.036071
v 0.054397 0.088552 0.035749
v 0.055468 0.079025 0.035749
v 0.056152 0.069498 0.035749
v 0.055962 0.059970 0.035749
v 0.045598 0.059970 0.035749
v 0.045408 0.069498 0.035749
v 0.046092 0.079025 0.035749
v 0.047163 0.088552 0.035749
v 0.050780 0.088552 0.036071
v 0.050780 0.079025 0.036071
v 0.050780 0.069498 0.036071
v 0.050780 0.059970 0.036071
vn 0.0000 0.0049 -1.0000
vn -0.0691 0.0045 -0.9976
vn -0.0792 0.0092 -0.9968
vn 0.0000 0.0092 -0.9999
vn 0.0691 0.0045 -0.9976
vn 0.0792 0.0092 -0.9968
vn 0.0000 -0.0084 -0.9999
vn -0.1104 -0.0083 -0.9938
vn -0.0923 -0.0061 -0.9957
vn 0.0000 -0.0063 -1.0000
vn -0.0701 -0.0032 -0.9975
vn 0.0000 -0.0033 -1.0000
vn -0.0623 -0.0008 -0.9980
vn 0.0000 -0.0008 -1.0000
vn 0.1104 -0.0083 -0.9938
vn 0.0923 -0.0061 -0.9957
vn 0.0701 -0.0032 -0.9975
vn 0.0623 -0.0008 -0.9980
usemtl feather_blue_003
s 1
f 18//1 10//2 3//3 6//4
f 11//5 18//1 6//4 4//6
f 5//7 1//8 7//9 15//10
f 15//10 7//9 8//11 16//12
f 16//12 8//11 9//13 17//14
f 17//14 9//13 10//2 18//1
f 2//15 5//7 15//10 14//16
f 14//16 15//10 16//12 13//17
f 13//17 16//12 17//14 12//18
f 12//18 17//14 18//1 11//5
