# Blender v2.79 (sub 0) OBJ File: 'budgie_base_mesh_BI.blend'
# www.blender.org
mtllib budgie_feather_flight_tertiary_043.mtl
o feather_flight_tertiary_043
v 0.078576 0.097413 0.035293
v 0.074915 0.097382 0.035293
v 0.079358 0.084073 0.035293
v 0.074362 0.084030 0.035293
v 0.076739 0.098080 0.034971
v 0.076867 0.083309 0.034971
v 0.079590 0.095162 0.035293
v 0.080452 0.092227 0.035293
v 0.081012 0.089290 0.035293
v 0.080889 0.086347 0.035293
v 0.072792 0.086277 0.035293
v 0.072618 0.089217 0.035293
v 0.073128 0.092164 0.035293
v 0.073939 0.095113 0.035293
v 0.076765 0.095138 0.034971
v 0.076790 0.092196 0.034971
v 0.076815 0.089254 0.034971
v 0.076841 0.086312 0.034971
vn 0.0001 -0.0159 -0.9998
vn 0.0867 -0.0116 -0.9962
vn 0.1014 -0.0289 -0.9944
vn 0.0002 -0.0299 -0.9995
vn -0.0865 -0.0131 -0.9962
vn -0.1009 -0.0306 -0.9944
vn -0.0002 0.0272 -0.9996
vn 0.1405 0.0281 -0.9897
vn 0.1147 0.0200 -0.9932
vn -0.0002 0.0206 -0.9998
vn 0.0888 0.0110 -0.9960
vn -0.0001 0.0107 -0.9999
vn 0.0796 0.0032 -0.9968
vn 0.0000 0.0027 -1.0000
vn -0.1409 0.0257 -0.9897
vn -0.1151 0.0180 -0.9932
vn -0.0890 0.0095 -0.9960
vn -0.0796 0.0018 -0.9968
usemtl feather_blue_001
s 1
f 18//1 10//2 3//3 6//4
f 11//5 18//1 6//4 4//6
f 5//7 1//8 7//9 15//10
f 15//10 7//9 8//11 16//12
f 16//12 8//11 9//13 17//14
f 17//14 9//13 10//2 18//1
f 2//15 5//7 15//10 14//16
f 14//16 15//10 16//12 13//17
f 13//17 16//12 17//14 12//18
f 12//18 17//14 18//1 11//5
