# Blender v2.79 (sub 0) OBJ File: 'budgie_base_mesh_BI.blend'
# www.blender.org
mtllib budgie_feather_flight_tertiary_023.mtl
o feather_flight_tertiary_023
v 0.132322 0.098080 0.036562
v 0.129553 0.096839 0.036562
v 0.138267 0.086166 0.036562
v 0.134487 0.084472 0.036562
v 0.130659 0.098080 0.036884
v 0.136680 0.084643 0.036884
v 0.133996 0.096361 0.036562
v 0.135829 0.093969 0.036562
v 0.137432 0.091474 0.036562
v 0.138519 0.088747 0.036562
v 0.132393 0.086002 0.036562
v 0.131082 0.088628 0.036562
v 0.130287 0.091486 0.036562
v 0.129721 0.094445 0.036562
v 0.131859 0.095403 0.036884
v 0.133058 0.092727 0.036884
v 0.134257 0.090051 0.036884
v 0.135456 0.087375 0.036884
vn -0.0065 0.0146 -0.9998
vn -0.1010 -0.0310 -0.9944
vn -0.1233 -0.0226 -0.9921
vn -0.0123 0.0274 -0.9995
vn 0.0903 0.0547 -0.9944
vn 0.0989 0.0770 -0.9921
vn 0.0111 -0.0249 -0.9996
vn -0.1432 -0.0936 -0.9852
vn -0.1191 -0.0745 -0.9901
vn 0.0085 -0.0189 -0.9998
vn -0.0937 -0.0533 -0.9942
vn 0.0044 -0.0098 -0.9999
vn -0.0865 -0.0415 -0.9954
vn 0.0011 -0.0025 -1.0000
vn 0.1652 0.0446 -0.9852
vn 0.1348 0.0393 -0.9901
vn 0.1021 0.0344 -0.9942
vn 0.0886 0.0369 -0.9954
usemtl feather_blue_001
s 1
f 18//1 10//2 3//3 6//4
f 11//5 18//1 6//4 4//6
f 5//7 1//8 7//9 15//10
f 15//10 7//9 8//11 16//12
f 16//12 8//11 9//13 17//14
f 17//14 9//13 10//2 18//1
f 2//15 5//7 15//10 14//16
f 14//16 15//10 16//12 13//17
f 13//17 16//12 17//14 12//18
f 12//18 17//14 18//1 11//5
