# Blender v2.79 (sub 0) OBJ File: 'budgie_base_mesh_BI.blend'
# www.blender.org
mtllib budgie_feather_flight_primary_011.mtl
o feather_flight_primary_011
v 0.127953 0.096931 0.035749
v 0.122391 0.093974 0.035749
v 0.156244 0.046172 0.035749
v 0.148653 0.042136 0.035749
v 0.123778 0.098075 0.036071
v 0.153966 0.041300 0.036071
v 0.134084 0.089049 0.035749
v 0.141368 0.078416 0.035749
v 0.148193 0.067540 0.035749
v 0.153980 0.056111 0.035749
v 0.141679 0.049570 0.035749
v 0.135440 0.060759 0.035749
v 0.130240 0.072499 0.035749
v 0.125498 0.084483 0.035749
v 0.129791 0.086766 0.036071
v 0.135804 0.075458 0.036071
v 0.141817 0.064149 0.036071
v 0.147829 0.052841 0.036071
vn -0.0017 0.0032 -1.0000
vn -0.0470 -0.0212 -0.9987
vn -0.0553 -0.0216 -0.9982
vn -0.0032 0.0061 -1.0000
vn 0.0439 0.0271 -0.9987
vn 0.0489 0.0338 -0.9982
vn 0.0029 -0.0055 -1.0000
vn -0.0698 -0.0441 -0.9966
vn -0.0586 -0.0363 -0.9976
vn 0.0022 -0.0042 -1.0000
vn -0.0450 -0.0266 -0.9986
vn 0.0012 -0.0022 -1.0000
vn -0.0407 -0.0223 -0.9989
vn 0.0003 -0.0005 -1.0000
vn 0.0756 0.0331 -0.9966
vn 0.0629 0.0282 -0.9976
vn 0.0472 0.0224 -0.9986
vn 0.0412 0.0212 -0.9989
usemtl feather_blue_003
s 1
f 18//1 10//2 3//3 6//4
f 11//5 18//1 6//4 4//6
f 5//7 1//8 7//9 15//10
f 15//10 7//9 8//11 16//12
f 16//12 8//11 9//13 17//14
f 17//14 9//13 10//2 18//1
f 2//15 5//7 15//10 14//16
f 14//16 15//10 16//12 13//17
f 13//17 16//12 17//14 12//18
f 12//18 17//14 18//1 11//5
