# Blender v2.79 (sub 0) OBJ File: 'budgie_base_mesh_BI.blend'
# www.blender.org
mtllib budgie_feather_flight_secondary_010.mtl
o feather_flight_secondary_010
v 0.118272 0.097620 0.036156
v 0.113265 0.095710 0.036166
v 0.129757 0.070286 0.036280
v 0.122923 0.067680 0.036294
v 0.115228 0.098078 0.036476
v 0.127969 0.066765 0.036555
v 0.121424 0.093452 0.036175
v 0.124899 0.087786 0.036200
v 0.127960 0.081963 0.036226
v 0.130087 0.075783 0.036255
v 0.119012 0.071558 0.036277
v 0.116479 0.077583 0.036250
v 0.114879 0.083964 0.036220
v 0.113693 0.090503 0.036190
v 0.117559 0.091975 0.036504
v 0.119889 0.085873 0.036532
v 0.122219 0.079771 0.036560
v 0.124550 0.073669 0.036588
vn -0.0034 0.0035 -1.0000
vn -0.0584 -0.0203 -0.9981
vn -0.0698 -0.0168 -0.9974
vn -0.0099 0.0093 -0.9999
vn 0.0495 0.0236 -0.9985
vn 0.0499 0.0354 -0.9981
vn 0.0042 -0.0161 -0.9998
vn -0.0862 -0.0505 -0.9950
vn -0.0717 -0.0414 -0.9966
vn 0.0031 -0.0133 -0.9999
vn -0.0557 -0.0308 -0.9980
vn 0.0015 -0.0092 -0.9999
vn -0.0508 -0.0252 -0.9984
vn 0.0002 -0.0058 -1.0000
vn 0.0945 0.0185 -0.9953
vn 0.0776 0.0156 -0.9969
vn 0.0586 0.0128 -0.9982
vn 0.0511 0.0137 -0.9986
usemtl feather_blue_002
s 1
f 18//1 10//2 3//3 6//4
f 11//5 18//1 6//4 4//6
f 5//7 1//8 7//9 15//10
f 15//10 7//9 8//11 16//12
f 16//12 8//11 9//13 17//14
f 17//14 9//13 10//2 18//1
f 2//15 5//7 15//10 14//16
f 14//16 15//10 16//12 13//17
f 13//17 16//12 17//14 12//18
f 12//18 17//14 18//1 11//5
