# Blender v2.79 (sub 0) OBJ File: 'budgie_base_mesh_BI.blend'
# www.blender.org
mtllib budgie_feather_tail_primary_001.mtl
o feather_tail_primary_001
v 0.005963 0.044709 -0.101795
v 0.001156 0.044709 -0.104220
v 0.037064 0.044709 -0.161405
v 0.030607 0.044709 -0.164662
v 0.002798 0.044979 -0.101497
v 0.035438 0.044979 -0.166211
v 0.009567 0.044709 -0.106253
v 0.013661 0.044709 -0.112357
v 0.032921 0.044709 -0.149049
v 0.035787 0.044709 -0.155774
v 0.026838 0.044709 -0.160287
v 0.023133 0.044709 -0.153986
v 0.005074 0.044709 -0.116688
v 0.002599 0.044709 -0.109767
v 0.006083 0.044979 -0.108010
v 0.009368 0.044979 -0.114523
v 0.028027 0.044979 -0.151518
v 0.031312 0.044979 -0.158031
v 0.029220 0.044709 -0.141635
v 0.025430 0.044709 -0.134265
v 0.021601 0.044709 -0.126915
v 0.017734 0.044709 -0.119584
v 0.008465 0.044709 -0.124260
v 0.012062 0.044709 -0.131726
v 0.015697 0.044709 -0.139174
v 0.019371 0.044709 -0.146603
v 0.024295 0.044979 -0.144119
v 0.020563 0.044979 -0.136720
v 0.016831 0.044979 -0.129321
v 0.013100 0.044979 -0.121922
vn 0.0017 1.0000 -0.0035
vn 0.0530 0.9983 0.0226
vn 0.0609 0.9978 0.0238
vn 0.0027 1.0000 -0.0055
vn -0.0497 0.9983 -0.0292
vn -0.0553 0.9978 -0.0348
vn -0.0035 0.9999 0.0070
vn 0.0712 0.9964 0.0447
vn 0.0614 0.9974 0.0373
vn -0.0026 1.0000 0.0052
vn 0.0504 0.9983 0.0282
vn -0.0011 1.0000 0.0023
vn 0.0000 1.0000 0.0000
vn 0.0439 0.9988 0.0222
vn 0.0452 0.9987 0.0219
vn 0.0004 1.0000 -0.0008
vn -0.0782 0.9964 -0.0307
vn -0.0665 0.9974 -0.0272
vn -0.0526 0.9983 -0.0238
vn -0.0439 0.9988 -0.0221
vn -0.0445 0.9987 -0.0234
vn 0.0466 0.9986 0.0244
vn -0.0004 1.0000 0.0008
vn 0.0450 0.9987 0.0231
vn -0.0002 1.0000 0.0003
vn 0.0442 0.9987 0.0226
vn -0.0001 1.0000 0.0002
vn -0.0473 0.9986 -0.0229
vn -0.0454 0.9987 -0.0224
vn -0.0444 0.9987 -0.0221
usemtl feather_blue_003
s 1
f 18//1 10//2 3//3 6//4
f 11//5 18//1 6//4 4//6
f 5//7 1//8 7//9 15//10
f 15//10 7//9 8//11 16//12
f 27//13 19//14 9//15 17//16
f 17//16 9//15 10//2 18//1
f 2//17 5//7 15//10 14//18
f 14//18 15//10 16//12 13//19
f 26//20 27//13 17//16 12//21
f 12//21 17//16 18//1 11//5
f 16//12 8//11 22//22 30//23
f 30//23 22//22 21//24 29//25
f 29//25 21//24 20//26 28//27
f 28//27 20//26 19//14 27//13
f 13//19 16//12 30//23 23//28
f 23//28 30//23 29//25 24//29
f 24//29 29//25 28//27 25//30
f 25//30 28//27 27//13 26//20
