# Blender v2.79 (sub 0) OBJ File: 'budgie_base_mesh_BI.blend'
# www.blender.org
mtllib budgie_feather_flight_tertiary_012.mtl
o feather_flight_tertiary_012
v 0.082725 0.097620 0.036562
v 0.079241 0.097241 0.036562
v 0.084741 0.084987 0.036562
v 0.079986 0.084470 0.036562
v 0.080913 0.098080 0.036884
v 0.082441 0.084022 0.036884
v 0.083906 0.095572 0.036562
v 0.085007 0.092858 0.036562
v 0.085820 0.090114 0.036562
v 0.085983 0.087298 0.036562
v 0.078277 0.086461 0.036562
v 0.077831 0.089245 0.036562
v 0.078036 0.092101 0.036562
v 0.078528 0.094987 0.036562
v 0.081217 0.095280 0.036884
v 0.081521 0.092480 0.036884
v 0.081826 0.089680 0.036884
v 0.082130 0.086879 0.036884
vn -0.0018 0.0165 -0.9998
vn -0.0913 0.0031 -0.9958
vn -0.1083 0.0195 -0.9939
vn -0.0034 0.0311 -0.9995
vn 0.0885 0.0226 -0.9958
vn 0.1016 0.0423 -0.9939
vn 0.0031 -0.0282 -0.9996
vn -0.1429 -0.0438 -0.9887
vn -0.1171 -0.0327 -0.9926
vn 0.0023 -0.0214 -0.9998
vn -0.0911 -0.0206 -0.9956
vn 0.0012 -0.0112 -0.9999
vn -0.0824 -0.0116 -0.9965
vn 0.0003 -0.0028 -1.0000
vn 0.1490 -0.0121 -0.9887
vn 0.1214 -0.0067 -0.9926
vn 0.0934 -0.0006 -0.9956
vn 0.0829 0.0063 -0.9965
usemtl feather_blue_001
s 1
f 18//1 10//2 3//3 6//4
f 11//5 18//1 6//4 4//6
f 5//7 1//8 7//9 15//10
f 15//10 7//9 8//11 16//12
f 16//12 8//11 9//13 17//14
f 17//14 9//13 10//2 18//1
f 2//15 5//7 15//10 14//16
f 14//16 15//10 16//12 13//17
f 13//17 16//12 17//14 12//18
f 12//18 17//14 18//1 11//5
