# Blender v2.79 (sub 0) OBJ File: 'budgie_base_mesh_BI.blend'
# www.blender.org
mtllib budgie_feather_flight_secondary_017.mtl
o feather_flight_secondary_017
v 0.036375 0.096930 0.035655
v 0.032309 0.096930 0.035655
v 0.037116 0.074433 0.035655
v 0.031568 0.074433 0.035655
v 0.034342 0.098080 0.035333
v 0.034342 0.073181 0.035333
v 0.037480 0.093120 0.035655
v 0.038409 0.088161 0.035655
v 0.039003 0.083202 0.035655
v 0.038838 0.078242 0.035655
v 0.029847 0.078242 0.035655
v 0.029682 0.083202 0.035655
v 0.030275 0.088161 0.035655
v 0.031204 0.093120 0.035655
v 0.034342 0.093120 0.035333
v 0.034342 0.088161 0.035333
v 0.034342 0.083202 0.035333
v 0.034342 0.078242 0.035333
vn 0.0000 -0.0095 -0.9999
vn 0.0789 -0.0081 -0.9968
vn 0.0912 -0.0177 -0.9957
vn 0.0000 -0.0178 -0.9998
vn -0.0789 -0.0081 -0.9968
vn -0.0912 -0.0177 -0.9957
vn 0.0000 0.0161 -0.9998
vn 0.1270 0.0160 -0.9918
vn 0.1051 0.0116 -0.9944
vn 0.0000 0.0122 -0.9999
vn 0.0805 0.0062 -0.9967
vn 0.0000 0.0064 -1.0000
vn 0.0718 0.0015 -0.9974
vn 0.0000 0.0016 -1.0000
vn -0.1270 0.0160 -0.9918
vn -0.1051 0.0116 -0.9944
vn -0.0805 0.0062 -0.9967
vn -0.0718 0.0015 -0.9974
usemtl feather_blue_002
s 1
f 18//1 10//2 3//3 6//4
f 11//5 18//1 6//4 4//6
f 5//7 1//8 7//9 15//10
f 15//10 7//9 8//11 16//12
f 16//12 8//11 9//13 17//14
f 17//14 9//13 10//2 18//1
f 2//15 5//7 15//10 14//16
f 14//16 15//10 16//12 13//17
f 13//17 16//12 17//14 12//18
f 12//18 17//14 18//1 11//5
