# Blender v2.79 (sub 0) OBJ File: 'budgie_base_mesh_BI.blend'
# www.blender.org
mtllib budgie_feather_flight_secondary_013.mtl
o feather_flight_secondary_013
v 0.144704 0.098865 0.036169
v 0.140489 0.094909 0.036141
v 0.167394 0.076231 0.036179
v 0.161642 0.070832 0.036140
v 0.141477 0.098082 0.036476
v 0.165739 0.072233 0.036482
v 0.149562 0.095986 0.036177
v 0.155357 0.091741 0.036185
v 0.160805 0.087170 0.036190
v 0.165467 0.081861 0.036190
v 0.156145 0.073111 0.036128
v 0.151142 0.078099 0.036125
v 0.146924 0.083825 0.036129
v 0.143055 0.089878 0.036134
v 0.146310 0.092933 0.036477
v 0.151142 0.087785 0.036479
v 0.155975 0.082636 0.036480
v 0.160807 0.077487 0.036481
vn -0.0009 0.0080 -0.9999
vn -0.0408 -0.0307 -0.9987
vn -0.0518 -0.0317 -0.9981
vn -0.0049 0.0123 -0.9999
vn 0.0403 0.0454 -0.9981
vn 0.0419 0.0562 -0.9975
vn 0.0114 -0.0051 -0.9999
vn -0.0541 -0.0665 -0.9963
vn -0.0449 -0.0535 -0.9975
vn 0.0095 -0.0031 -0.9999
vn -0.0348 -0.0388 -0.9986
vn 0.0067 -0.0001 -1.0000
vn -0.0325 -0.0322 -0.9989
vn 0.0044 0.0023 -1.0000
vn 0.0767 0.0563 -0.9955
vn 0.0632 0.0479 -0.9968
vn 0.0479 0.0388 -0.9981
vn 0.0412 0.0370 -0.9984
usemtl feather_blue_002
s 1
f 18//1 10//2 3//3 6//4
f 11//5 18//1 6//4 4//6
f 5//7 1//8 7//9 15//10
f 15//10 7//9 8//11 16//12
f 16//12 8//11 9//13 17//14
f 17//14 9//13 10//2 18//1
f 2//15 5//7 15//10 14//16
f 14//16 15//10 16//12 13//17
f 13//17 16//12 17//14 12//18
f 12//18 17//14 18//1 11//5
