# Blender v2.79 (sub 0) OBJ File: 'budgie_base_mesh_BI.blend'
# www.blender.org
mtllib budgie_feather_flight_tertiary_037.mtl
o feather_flight_tertiary_037
v 0.050380 0.097493 0.035293
v 0.046973 0.097434 0.035293
v 0.051211 0.085454 0.035293
v 0.046562 0.085373 0.035293
v 0.048666 0.098080 0.034971
v 0.048899 0.084743 0.034971
v 0.051341 0.095469 0.035293
v 0.052166 0.092826 0.035293
v 0.052710 0.090178 0.035293
v 0.052618 0.087519 0.035293
v 0.045084 0.087388 0.035293
v 0.044900 0.090042 0.035293
v 0.045351 0.092707 0.035293
v 0.046083 0.095377 0.035293
v 0.048712 0.095423 0.034971
v 0.048758 0.092767 0.034971
v 0.048805 0.090110 0.034971
v 0.048851 0.087454 0.034971
vn 0.0003 -0.0176 -0.9998
vn 0.0931 -0.0120 -0.9956
vn 0.1091 -0.0310 -0.9935
vn 0.0005 -0.0331 -0.9994
vn -0.0926 -0.0152 -0.9956
vn -0.1080 -0.0349 -0.9935
vn -0.0005 0.0301 -0.9995
vn 0.1504 0.0324 -0.9881
vn 0.1228 0.0231 -0.9922
vn -0.0004 0.0228 -0.9997
vn 0.0952 0.0129 -0.9954
vn -0.0002 0.0119 -0.9999
vn 0.0855 0.0042 -0.9963
vn -0.0000 0.0030 -1.0000
vn -0.1515 0.0271 -0.9881
vn -0.1236 0.0188 -0.9922
vn -0.0956 0.0096 -0.9954
vn -0.0855 0.0013 -0.9963
usemtl feather_blue_001
s 1
f 18//1 10//2 3//3 6//4
f 11//5 18//1 6//4 4//6
f 5//7 1//8 7//9 15//10
f 15//10 7//9 8//11 16//12
f 16//12 8//11 9//13 17//14
f 17//14 9//13 10//2 18//1
f 2//15 5//7 15//10 14//16
f 14//16 15//10 16//12 13//17
f 13//17 16//12 17//14 12//18
f 12//18 17//14 18//1 11//5
