# Blender v2.79 (sub 0) OBJ File: 'budgie_base_mesh_BI.blend'
# www.blender.org
mtllib budgie_feather_flight_secondary_002.mtl
o feather_flight_secondary_002
v 0.044590 0.096839 0.036155
v 0.040202 0.096839 0.036155
v 0.045389 0.072562 0.036155
v 0.039402 0.072562 0.036155
v 0.042396 0.098080 0.036476
v 0.042396 0.071211 0.036476
v 0.045782 0.092728 0.036155
v 0.046785 0.087376 0.036155
v 0.047425 0.082024 0.036155
v 0.047247 0.076673 0.036155
v 0.037545 0.076673 0.036155
v 0.037367 0.082024 0.036155
v 0.038007 0.087376 0.036155
v 0.039010 0.092728 0.036155
v 0.042396 0.092728 0.036476
v 0.042396 0.087376 0.036476
v 0.042396 0.082024 0.036476
v 0.042396 0.076673 0.036476
vn 0.0000 0.0088 -0.9999
vn -0.0732 0.0074 -0.9973
vn -0.0845 0.0164 -0.9963
vn 0.0000 0.0164 -0.9998
vn 0.0732 0.0074 -0.9973
vn 0.0845 0.0164 -0.9963
vn 0.0000 -0.0150 -0.9999
vn -0.1178 -0.0148 -0.9929
vn -0.0975 -0.0107 -0.9952
vn 0.0000 -0.0113 -0.9999
vn -0.0746 -0.0057 -0.9972
vn 0.0000 -0.0059 -1.0000
vn -0.0665 -0.0014 -0.9978
vn 0.0000 -0.0015 -1.0000
vn 0.1178 -0.0148 -0.9929
vn 0.0975 -0.0107 -0.9952
vn 0.0746 -0.0057 -0.9972
vn 0.0665 -0.0014 -0.9978
usemtl feather_blue_002
s 1
f 18//1 10//2 3//3 6//4
f 11//5 18//1 6//4 4//6
f 5//7 1//8 7//9 15//10
f 15//10 7//9 8//11 16//12
f 16//12 8//11 9//13 17//14
f 17//14 9//13 10//2 18//1
f 2//15 5//7 15//10 14//16
f 14//16 15//10 16//12 13//17
f 13//17 16//12 17//14 12//18
f 12//18 17//14 18//1 11//5
