# Blender v2.79 (sub 0) OBJ File: 'budgie_base_mesh_BI.blend'
# www.blender.org
mtllib budgie_feather_flight_primary_010.mtl
o feather_flight_primary_010
v 0.119217 0.096443 0.035749
v 0.113359 0.094194 0.035749
v 0.141024 0.042826 0.035749
v 0.133030 0.039758 0.035749
v 0.115228 0.098080 0.036071
v 0.138181 0.038286 0.036071
v 0.124321 0.087905 0.035749
v 0.130232 0.076510 0.035749
v 0.135659 0.064928 0.035749
v 0.139993 0.052927 0.035749
v 0.127038 0.047954 0.035749
v 0.122228 0.059772 0.035749
v 0.118512 0.072011 0.035749
v 0.115278 0.084434 0.035749
v 0.119800 0.086170 0.036071
v 0.124372 0.074260 0.036071
v 0.128943 0.062350 0.036071
v 0.133515 0.050440 0.036071
vn -0.0013 0.0034 -1.0000
vn -0.0494 -0.0154 -0.9987
vn -0.0577 -0.0148 -0.9982
vn -0.0025 0.0064 -1.0000
vn 0.0470 0.0216 -0.9987
vn 0.0528 0.0276 -0.9982
vn 0.0022 -0.0058 -1.0000
vn -0.0749 -0.0354 -0.9966
vn -0.0628 -0.0291 -0.9976
vn 0.0017 -0.0044 -1.0000
vn -0.0481 -0.0211 -0.9986
vn 0.0009 -0.0023 -1.0000
vn -0.0432 -0.0172 -0.9989
vn 0.0002 -0.0006 -1.0000
vn 0.0794 0.0238 -0.9966
vn 0.0661 0.0204 -0.9976
vn 0.0498 0.0165 -0.9986
vn 0.0437 0.0161 -0.9989
usemtl feather_blue_003
s 1
f 18//1 10//2 3//3 6//4
f 11//5 18//1 6//4 4//6
f 5//7 1//8 7//9 15//10
f 15//10 7//9 8//11 16//12
f 16//12 8//11 9//13 17//14
f 17//14 9//13 10//2 18//1
f 2//15 5//7 15//10 14//16
f 14//16 15//10 16//12 13//17
f 13//17 16//12 17//14 12//18
f 12//18 17//14 18//1 11//5
