# Blender v2.79 (sub 0) OBJ File: 'budgie_base_mesh_BI.blend'
# www.blender.org
mtllib budgie_feather_flight_primary_006.mtl
o feather_flight_primary_006
v 0.081925 0.095716 0.035749
v 0.076615 0.095437 0.035749
v 0.085460 0.046793 0.035749
v 0.078213 0.046413 0.035749
v 0.079139 0.098080 0.036071
v 0.081979 0.043879 0.036071
v 0.083803 0.087498 0.035749
v 0.085583 0.076766 0.035749
v 0.086924 0.066011 0.035749
v 0.087274 0.055204 0.035749
v 0.075530 0.054588 0.035749
v 0.074749 0.065373 0.035749
v 0.074958 0.076209 0.035749
v 0.075606 0.087069 0.035749
v 0.079705 0.087284 0.036071
v 0.080271 0.076488 0.036071
v 0.080836 0.065692 0.036071
v 0.081402 0.054896 0.036071
vn -0.0002 0.0043 -1.0000
vn -0.0611 0.0008 -0.9981
vn -0.0702 0.0045 -0.9975
vn -0.0004 0.0081 -0.9999
vn 0.0606 0.0071 -0.9981
vn 0.0693 0.0117 -0.9975
vn 0.0004 -0.0074 -1.0000
vn -0.0969 -0.0125 -0.9952
vn -0.0810 -0.0097 -0.9966
vn 0.0003 -0.0056 -1.0000
vn -0.0616 -0.0061 -0.9981
vn 0.0002 -0.0029 -1.0000
vn -0.0548 -0.0036 -0.9985
vn 0.0000 -0.0007 -1.0000
vn 0.0977 -0.0023 -0.9952
vn 0.0816 -0.0012 -0.9966
vn 0.0619 0.0004 -0.9981
vn 0.0549 0.0021 -0.9985
usemtl feather_blue_003
s 1
f 18//1 10//2 3//3 6//4
f 11//5 18//1 6//4 4//6
f 5//7 1//8 7//9 15//10
f 15//10 7//9 8//11 16//12
f 16//12 8//11 9//13 17//14
f 17//14 9//13 10//2 18//1
f 2//15 5//7 15//10 14//16
f 14//16 15//10 16//12 13//17
f 13//17 16//12 17//14 12//18
f 12//18 17//14 18//1 11//5
