# Blender v2.79 (sub 0) OBJ File: 'budgie_base_mesh_BI.blend'
# www.blender.org
mtllib budgie_feather_tail_secondary_010.mtl
o feather_tail_secondary_010
v -0.002548 0.044777 -0.106633
v 0.002497 0.044777 -0.106633
v -0.000026 0.044360 -0.103284
v -0.003682 0.044777 -0.117730
v -0.004531 0.044777 -0.132177
v 0.004480 0.044777 -0.132177
v 0.003630 0.044777 -0.117730
v -0.000026 0.044360 -0.117730
v -0.000026 0.044360 -0.132177
v -0.004446 0.044777 -0.177329
v -0.005030 0.044777 -0.165001
v -0.004889 0.044777 -0.148589
v 0.004838 0.044777 -0.148589
v 0.004979 0.044777 -0.165001
v 0.004395 0.044777 -0.177329
v -0.000026 0.044360 -0.181413
v -0.000026 0.044360 -0.165001
v -0.000026 0.044360 -0.148589
vn 0.0000 -1.0000 0.0061
vn -0.1370 -0.9905 0.0061
vn -0.1185 -0.9929 0.0045
vn 0.0000 -1.0000 0.0045
vn -0.0950 -0.9955 0.0019
vn 0.0000 -1.0000 0.0020
vn 0.1370 -0.9905 0.0061
vn 0.1185 -0.9929 0.0045
vn 0.0950 -0.9955 0.0019
vn -0.0864 -0.9962 0.0006
vn 0.0000 -1.0000 0.0006
vn -0.0866 -0.9962 -0.0007
vn 0.0000 -1.0000 -0.0007
vn -0.0889 -0.9960 -0.0018
vn 0.0000 -1.0000 -0.0018
vn 0.0864 -0.9962 0.0006
vn 0.0866 -0.9962 -0.0007
vn 0.0889 -0.9960 -0.0018
usemtl feather_blue_001
s 1
f 3//1 1//2 4//3 8//4
f 8//4 4//3 5//5 9//6
f 2//7 3//1 8//4 7//8
f 7//8 8//4 9//6 6//9
f 9//6 5//5 12//10 18//11
f 18//11 12//10 11//12 17//13
f 17//13 11//12 10//14 16//15
f 6//9 9//6 18//11 13//16
f 13//16 18//11 17//13 14//17
f 14//17 17//13 16//15 15//18
