# Blender v2.79 (sub 0) OBJ File: 'budgie_base_mesh_BI.blend'
# www.blender.org
mtllib budgie_feather_tail_secondary_008.mtl
o feather_tail_secondary_008
v 0.001367 0.044271 -0.105288
v 0.006462 0.044271 -0.104040
v 0.003262 0.043854 -0.102002
v 0.002382 0.044271 -0.114387
v 0.004337 0.044271 -0.126077
v 0.013437 0.044271 -0.123848
v 0.009767 0.044271 -0.112578
v 0.006075 0.043854 -0.113482
v 0.008887 0.043854 -0.124963
v 0.013213 0.044271 -0.161937
v 0.010223 0.044271 -0.152285
v 0.007170 0.044271 -0.139208
v 0.016994 0.044271 -0.136801
v 0.020332 0.044271 -0.149809
v 0.022142 0.044271 -0.159749
v 0.018473 0.043854 -0.164089
v 0.015278 0.043854 -0.151047
v 0.012082 0.043854 -0.138005
vn -0.0018 -1.0000 0.0073
vn -0.1299 -0.9912 -0.0241
vn -0.1118 -0.9935 -0.0218
vn -0.0013 -1.0000 0.0054
vn -0.0893 -0.9958 -0.0194
vn -0.0005 -1.0000 0.0023
vn 0.1263 -0.9912 0.0386
vn 0.1092 -0.9935 0.0323
vn 0.0882 -0.9958 0.0240
vn -0.0809 -0.9965 -0.0190
vn -0.0002 -1.0000 0.0008
vn -0.0807 -0.9965 -0.0206
vn 0.0002 -1.0000 -0.0009
vn -0.0826 -0.9963 -0.0225
vn 0.0005 -1.0000 -0.0021
vn 0.0806 -0.9965 0.0206
vn 0.0811 -0.9965 0.0190
vn 0.0836 -0.9963 0.0182
usemtl feather_blue_001
s 1
f 3//1 1//2 4//3 8//4
f 8//4 4//3 5//5 9//6
f 2//7 3//1 8//4 7//8
f 7//8 8//4 9//6 6//9
f 9//6 5//5 12//10 18//11
f 18//11 12//10 11//12 17//13
f 17//13 11//12 10//14 16//15
f 6//9 9//6 18//11 13//16
f 13//16 18//11 17//13 14//17
f 14//17 17//13 16//15 15//18
