# Blender v2.79 (sub 0) OBJ File: 'budgie_base_mesh_BI.blend'
# www.blender.org
mtllib budgie_feather_flight_tertiary_058.mtl
o feather_flight_tertiary_058
v 0.145665 0.098667 0.035293
v 0.143111 0.096388 0.035293
v 0.155781 0.088264 0.035293
v 0.152295 0.085155 0.035293
v 0.143895 0.098081 0.034971
v 0.154575 0.086107 0.034971
v 0.147994 0.097454 0.035293
v 0.150705 0.095590 0.035293
v 0.153205 0.093538 0.035293
v 0.155229 0.091061 0.035293
v 0.149579 0.086022 0.035293
v 0.147348 0.088314 0.035293
v 0.145594 0.091031 0.035293
v 0.144050 0.093937 0.035293
v 0.146022 0.095696 0.034971
v 0.148149 0.093311 0.034971
v 0.150277 0.090926 0.034971
v 0.152404 0.088541 0.034971
vn 0.0098 -0.0109 -0.9999
vn 0.0772 0.0530 -0.9956
vn 0.0989 0.0515 -0.9937
vn 0.0183 -0.0206 -0.9996
vn -0.0615 -0.0707 -0.9956
vn -0.0624 -0.0924 -0.9937
vn -0.0167 0.0187 -0.9997
vn 0.0957 0.1185 -0.9883
vn 0.0804 0.0954 -0.9922
vn -0.0126 0.0142 -0.9998
vn 0.0647 0.0704 -0.9954
vn -0.0066 0.0074 -0.9999
vn 0.0620 0.0584 -0.9963
vn -0.0016 0.0019 -1.0000
vn -0.1286 -0.0816 -0.9883
vn -0.1039 -0.0690 -0.9922
vn -0.0773 -0.0563 -0.9954
vn -0.0651 -0.0549 -0.9963
usemtl feather_blue_001
s 1
f 18//1 10//2 3//3 6//4
f 11//5 18//1 6//4 4//6
f 5//7 1//8 7//9 15//10
f 15//10 7//9 8//11 16//12
f 16//12 8//11 9//13 17//14
f 17//14 9//13 10//2 18//1
f 2//15 5//7 15//10 14//16
f 14//16 15//10 16//12 13//17
f 13//17 16//12 17//14 12//18
f 12//18 17//14 18//1 11//5
