# Blender v2.79 (sub 0) OBJ File: 'budgie_base_mesh_BI.blend'
# www.blender.org
mtllib budgie_feather_tail_secondary_006.mtl
o feather_tail_secondary_006
v 0.001524 0.044571 -0.104440
v 0.005935 0.044571 -0.102118
v 0.002766 0.044271 -0.101450
v 0.003723 0.044571 -0.111022
v 0.007133 0.044571 -0.119302
v 0.015013 0.044571 -0.115154
v 0.010117 0.044571 -0.107656
v 0.006920 0.044271 -0.109339
v 0.011073 0.044271 -0.117228
v 0.020188 0.044571 -0.143919
v 0.016134 0.044571 -0.137456
v 0.011538 0.044571 -0.128429
v 0.020044 0.044571 -0.123951
v 0.024886 0.044571 -0.132848
v 0.027919 0.044571 -0.139849
v 0.025228 0.044271 -0.144115
v 0.020510 0.044271 -0.135152
v 0.015791 0.044271 -0.126190
vn -0.0033 -1.0000 0.0063
vn -0.0920 -0.9949 -0.0404
vn -0.0787 -0.9962 -0.0356
vn -0.0025 -1.0000 0.0047
vn -0.0624 -0.9976 -0.0303
vn -0.0011 -1.0000 0.0020
vn 0.0854 -0.9949 0.0530
vn 0.0739 -0.9962 0.0447
vn 0.0603 -0.9976 0.0343
vn -0.0562 -0.9980 -0.0287
vn -0.0003 -1.0000 0.0007
vn -0.0555 -0.9980 -0.0302
vn 0.0004 -1.0000 -0.0007
vn -0.0565 -0.9979 -0.0321
vn 0.0010 -1.0000 -0.0019
vn 0.0555 -0.9980 0.0301
vn 0.0563 -0.9980 0.0287
vn 0.0584 -0.9979 0.0284
usemtl feather_blue_001
s 1
f 3//1 1//2 4//3 8//4
f 8//4 4//3 5//5 9//6
f 2//7 3//1 8//4 7//8
f 7//8 8//4 9//6 6//9
f 9//6 5//5 12//10 18//11
f 18//11 12//10 11//12 17//13
f 17//13 11//12 10//14 16//15
f 6//9 9//6 18//11 13//16
f 13//16 18//11 17//13 14//17
f 14//17 17//13 16//15 15//18
