# Blender v2.79 (sub 0) OBJ File: 'budgie_base_mesh_BI.blend'
# www.blender.org
mtllib budgie_feather_flight_tertiary_009.mtl
o feather_flight_tertiary_009
v 0.068336 0.097584 0.036562
v 0.064956 0.097347 0.036562
v 0.069792 0.085614 0.036562
v 0.065180 0.085292 0.036562
v 0.066603 0.098080 0.036884
v 0.067533 0.084785 0.036884
v 0.069397 0.095614 0.036562
v 0.070355 0.093020 0.036562
v 0.071033 0.090406 0.036562
v 0.071081 0.087749 0.036562
v 0.063606 0.087226 0.036562
v 0.063284 0.089864 0.036562
v 0.063592 0.092547 0.036562
v 0.064179 0.095249 0.036562
v 0.066788 0.095432 0.036884
v 0.066973 0.092783 0.036884
v 0.067159 0.090135 0.036884
v 0.067344 0.087487 0.036884
vn -0.0012 0.0176 -0.9998
vn -0.0941 0.0071 -0.9955
vn -0.1112 0.0253 -0.9935
vn -0.0023 0.0331 -0.9994
vn 0.0922 0.0201 -0.9955
vn 0.1066 0.0405 -0.9935
vn 0.0021 -0.0301 -0.9995
vn -0.1493 -0.0403 -0.9879
vn -0.1221 -0.0296 -0.9921
vn 0.0016 -0.0228 -0.9997
vn -0.0949 -0.0180 -0.9953
vn 0.0008 -0.0119 -0.9999
vn -0.0856 -0.0088 -0.9963
vn 0.0002 -0.0030 -1.0000
vn 0.1535 -0.0191 -0.9879
vn 0.1251 -0.0123 -0.9921
vn 0.0965 -0.0046 -0.9953
vn 0.0860 0.0032 -0.9963
usemtl feather_blue_001
s 1
f 18//1 10//2 3//3 6//4
f 11//5 18//1 6//4 4//6
f 5//7 1//8 7//9 15//10
f 15//10 7//9 8//11 16//12
f 16//12 8//11 9//13 17//14
f 17//14 9//13 10//2 18//1
f 2//15 5//7 15//10 14//16
f 14//16 15//10 16//12 13//17
f 13//17 16//12 17//14 12//18
f 12//18 17//14 18//1 11//5
