# Blender v2.79 (sub 0) OBJ File: 'budgie_base_mesh_BI.blend'
# www.blender.org
mtllib budgie_feather_flight_secondary_016.mtl
o feather_flight_secondary_016
v 0.177100 0.100389 0.036217
v 0.175795 0.094815 0.036125
v 0.216148 0.092097 0.036555
v 0.214367 0.084491 0.036429
v 0.174469 0.098084 0.036478
v 0.217422 0.087782 0.036833
v 0.184027 0.100328 0.036296
v 0.192880 0.099550 0.036388
v 0.201626 0.098312 0.036472
v 0.210129 0.096034 0.036539
v 0.207243 0.083707 0.036335
v 0.198634 0.085532 0.036261
v 0.190269 0.088398 0.036204
v 0.182012 0.091724 0.036154
v 0.183025 0.096032 0.036549
v 0.191580 0.093980 0.036619
v 0.200136 0.091928 0.036690
v 0.208691 0.089876 0.036761
vn 0.0063 0.0149 -0.9998
vn -0.0063 -0.0403 -0.9991
vn -0.0135 -0.0474 -0.9988
vn 0.0018 0.0163 -0.9998
vn 0.0201 0.0699 -0.9973
vn 0.0169 0.0793 -0.9967
vn 0.0204 0.0113 -0.9997
vn -0.0008 -0.0770 -0.9970
vn 0.0003 -0.0615 -0.9981
vn 0.0183 0.0121 -0.9998
vn 0.0015 -0.0432 -0.9991
vn 0.0150 0.0129 -0.9998
vn 0.0004 -0.0363 -0.9993
vn 0.0124 0.0135 -0.9998
vn 0.0415 0.0998 -0.9941
vn 0.0355 0.0855 -0.9957
vn 0.0284 0.0689 -0.9972
vn 0.0243 0.0634 -0.9977
usemtl feather_blue_002
s 1
f 18//1 10//2 3//3 6//4
f 11//5 18//1 6//4 4//6
f 5//7 1//8 7//9 15//10
f 15//10 7//9 8//11 16//12
f 16//12 8//11 9//13 17//14
f 17//14 9//13 10//2 18//1
f 2//15 5//7 15//10 14//16
f 14//16 15//10 16//12 13//17
f 13//17 16//12 17//14 12//18
f 12//18 17//14 18//1 11//5
