# Blender v2.79 (sub 0) OBJ File: 'budgie_base_mesh_BI.blend'
# www.blender.org
mtllib budgie_feather_flight_tertiary_062.mtl
o feather_flight_tertiary_062
v 0.165552 0.098726 0.035276
v 0.164467 0.096656 0.035312
v 0.179719 0.091681 0.035137
v 0.178238 0.088856 0.035185
v 0.164302 0.098074 0.034958
v 0.179762 0.089860 0.034811
v 0.168213 0.098031 0.035244
v 0.171540 0.096868 0.035207
v 0.174778 0.095534 0.035172
v 0.177813 0.093814 0.035144
v 0.175413 0.089237 0.035223
v 0.172289 0.090789 0.035254
v 0.169369 0.092728 0.035278
v 0.166537 0.094837 0.035299
v 0.167382 0.096438 0.034929
v 0.170461 0.094802 0.034900
v 0.173540 0.093166 0.034870
v 0.176619 0.091529 0.034841
vn -0.0015 -0.0154 -0.9999
vn 0.0652 0.1139 -0.9913
vn 0.0881 0.1267 -0.9880
vn 0.0092 -0.0221 -0.9997
vn -0.0714 -0.1431 -0.9871
vn -0.0690 -0.1684 -0.9833
vn -0.0354 0.0033 -0.9994
vn 0.0735 0.2070 -0.9756
vn 0.0612 0.1704 -0.9835
vn -0.0304 0.0002 -0.9995
vn 0.0471 0.1264 -0.9908
vn -0.0228 -0.0044 -0.9997
vn 0.0457 0.1088 -0.9930
vn -0.0165 -0.0078 -0.9998
vn -0.1423 -0.2003 -0.9693
vn -0.1194 -0.1703 -0.9781
vn -0.0917 -0.1351 -0.9865
vn -0.0782 -0.1244 -0.9891
usemtl feather_blue_001
s 1
f 18//1 10//2 3//3 6//4
f 11//5 18//1 6//4 4//6
f 5//7 1//8 7//9 15//10
f 15//10 7//9 8//11 16//12
f 16//12 8//11 9//13 17//14
f 17//14 9//13 10//2 18//1
f 2//15 5//7 15//10 14//16
f 14//16 15//10 16//12 13//17
f 13//17 16//12 17//14 12//18
f 12//18 17//14 18//1 11//5
