# Blender v2.79 (sub 0) OBJ File: 'bull_base_mesh_BI.blend'
# www.blender.org
mtllib bull_eye.mtl
o eye
v 0.137808 1.207708 1.294163
v 0.132516 1.216854 1.291108
v 0.124595 1.222965 1.286535
v 0.115252 1.225111 1.281141
v 0.105909 1.222965 1.275747
v 0.097989 1.216854 1.271174
v 0.092697 1.207708 1.268119
v 0.139872 1.206887 1.290588
v 0.136330 1.215336 1.284502
v 0.129579 1.220982 1.277903
v 0.120646 1.222965 1.271798
v 0.110893 1.220982 1.267115
v 0.101803 1.215336 1.264568
v 0.094761 1.206887 1.264543
v 0.141622 1.204548 1.287557
v 0.139563 1.211015 1.278901
v 0.133803 1.215336 1.270586
v 0.125219 1.216854 1.263878
v 0.115118 1.215336 1.259798
v 0.105037 1.211015 1.258967
v 0.096511 1.204548 1.261512
v 0.090838 1.196920 1.267045
v 0.142791 1.201048 1.285532
v 0.141724 1.204548 1.275159
v 0.136626 1.206887 1.265696
v 0.128275 1.207708 1.258585
v 0.117941 1.206887 1.254908
v 0.107197 1.204548 1.255225
v 0.097680 1.201048 1.259487
v 0.143202 1.196920 1.284821
v 0.142483 1.196920 1.273845
v 0.137618 1.196920 1.263979
v 0.129348 1.196920 1.256727
v 0.118932 1.196920 1.253191
v 0.107956 1.196920 1.253911
v 0.098091 1.196920 1.258776
v 0.142791 1.192791 1.285532
v 0.141724 1.189292 1.275159
v 0.136626 1.186953 1.265696
v 0.128275 1.186132 1.258585
v 0.117941 1.186953 1.254908
v 0.107197 1.189291 1.255225
v 0.097680 1.192791 1.259487
v 0.139666 1.196920 1.295236
v 0.141622 1.189292 1.287557
v 0.139563 1.182824 1.278901
v 0.133803 1.178503 1.270586
v 0.125219 1.176986 1.263878
v 0.115118 1.178503 1.259798
v 0.105037 1.182824 1.258967
v 0.096511 1.189291 1.261512
v 0.139872 1.186953 1.290588
v 0.136330 1.178503 1.284502
v 0.129579 1.172858 1.277903
v 0.120646 1.170875 1.271798
v 0.110893 1.172858 1.267115
v 0.101803 1.178503 1.264568
v 0.094761 1.186953 1.264543
v 0.137808 1.186132 1.294163
v 0.132516 1.176986 1.291108
v 0.124595 1.170875 1.286535
v 0.115252 1.168729 1.281141
v 0.105909 1.170875 1.275747
v 0.097989 1.176986 1.271174
v 0.092697 1.186132 1.268119
v 0.135744 1.186953 1.297739
v 0.128701 1.178503 1.297714
v 0.119612 1.172858 1.295167
v 0.109858 1.170875 1.290484
v 0.100926 1.172858 1.284379
v 0.094175 1.178503 1.277780
v 0.090632 1.186953 1.271694
v 0.133994 1.189292 1.300770
v 0.125468 1.182824 1.303315
v 0.115387 1.178503 1.302484
v 0.105285 1.176986 1.298404
v 0.096701 1.178503 1.291696
v 0.090941 1.182824 1.283381
v 0.088882 1.189292 1.274725
v 0.132824 1.192791 1.302795
v 0.123307 1.189292 1.307057
v 0.112564 1.186953 1.307374
v 0.102230 1.186132 1.303697
v 0.093878 1.186953 1.296585
v 0.088781 1.189292 1.287123
v 0.087713 1.192791 1.276750
v 0.132414 1.196920 1.303506
v 0.122549 1.196920 1.308371
v 0.111573 1.196920 1.309091
v 0.101157 1.196920 1.305555
v 0.092887 1.196920 1.298302
v 0.088022 1.196920 1.288437
v 0.087303 1.196920 1.277461
v 0.132824 1.201048 1.302795
v 0.123307 1.204548 1.307057
v 0.112564 1.206887 1.307374
v 0.102230 1.207708 1.303697
v 0.093878 1.206887 1.296585
v 0.088781 1.204548 1.287123
v 0.087713 1.201048 1.276750
v 0.133994 1.204548 1.300770
v 0.125468 1.211015 1.303315
v 0.115387 1.215336 1.302484
v 0.105285 1.216854 1.298404
v 0.096701 1.215336 1.291696
v 0.090941 1.211015 1.283381
v 0.088882 1.204548 1.274725
v 0.135744 1.206887 1.297739
v 0.128701 1.215336 1.297714
v 0.119612 1.220982 1.295167
v 0.109858 1.222965 1.290484
v 0.100926 1.220982 1.284379
v 0.094175 1.215336 1.277780
v 0.090632 1.206887 1.271694
vn -0.7925 0.4031 -0.4576
vn -0.6020 0.7188 -0.3476
vn -0.4645 0.6641 -0.5858
vn -0.7154 0.3724 -0.5911
vn -0.3242 0.9273 -0.1872
vn 0.0000 1.0000 0.0000
vn 0.1913 0.9239 -0.3314
vn -0.1468 0.8567 -0.4945
vn 0.3242 0.9273 0.1872
vn 0.6020 0.7188 0.3476
vn 0.7396 0.6641 0.1093
vn 0.5016 0.8567 -0.1201
vn 0.7925 0.4031 0.4576
vn 0.8660 0.0000 0.5000
vn 0.8697 0.3724 0.3240
vn -0.8660 0.0000 -0.5000
vn 0.8562 0.5083 -0.0926
vn 0.6520 0.6557 -0.3807
vn 0.9351 0.2850 0.2107
vn -0.6500 0.2850 -0.7044
vn 0.0036 0.6557 -0.7550
vn -0.3478 0.5083 -0.7878
vn 0.3535 0.7071 -0.6124
vn -0.6063 0.1542 -0.7801
vn 0.1041 0.3548 -0.9291
vn -0.2699 0.2751 -0.9227
vn 0.7526 0.3548 -0.5547
vn 0.4619 0.3827 -0.8001
vn 0.9787 0.1542 0.1350
vn 0.9341 0.2751 -0.2276
vn 0.9941 0.0000 0.1085
vn 0.9614 0.0000 -0.2749
vn -0.2426 0.0000 -0.9701
vn -0.5910 0.0000 -0.8067
vn 0.5000 0.0000 -0.8660
vn 0.1394 0.0000 -0.9902
vn 0.7878 0.0000 -0.6158
vn -0.2699 -0.2751 -0.9227
vn -0.6063 -0.1542 -0.7801
vn 0.4619 -0.3827 -0.8001
vn 0.1041 -0.3548 -0.9291
vn 0.9341 -0.2751 -0.2276
vn 0.7526 -0.3548 -0.5547
vn 0.9787 -0.1542 0.1350
vn 0.9351 -0.2850 0.2107
vn -0.6500 -0.2850 -0.7044
vn 0.0036 -0.6557 -0.7550
vn -0.3478 -0.5083 -0.7878
vn 0.6520 -0.6557 -0.3806
vn 0.3535 -0.7071 -0.6124
vn 0.8562 -0.5083 -0.0926
vn -0.1468 -0.8567 -0.4945
vn -0.4645 -0.6641 -0.5858
vn 0.5016 -0.8567 -0.1201
vn 0.1913 -0.9239 -0.3314
vn 0.8697 -0.3724 0.3240
vn 0.7396 -0.6641 0.1093
vn -0.7154 -0.3724 -0.5911
vn -0.6020 -0.7188 -0.3476
vn -0.7925 -0.4031 -0.4576
vn 0.0000 -1.0000 0.0000
vn -0.3242 -0.9273 -0.1872
vn 0.6020 -0.7188 0.3476
vn 0.3242 -0.9273 0.1872
vn 0.7925 -0.4031 0.4576
vn -0.1913 -0.9239 0.3314
vn -0.5016 -0.8567 0.1201
vn 0.4645 -0.6641 0.5858
vn 0.1468 -0.8567 0.4945
vn 0.7154 -0.3724 0.5911
vn -0.8697 -0.3724 -0.3240
vn -0.7396 -0.6641 -0.1093
vn -0.9351 -0.2850 -0.2107
vn -0.6520 -0.6557 0.3807
vn -0.8562 -0.5083 0.0926
vn -0.0036 -0.6557 0.7550
vn -0.3535 -0.7071 0.6124
vn 0.6500 -0.2850 0.7044
vn 0.3478 -0.5083 0.7878
vn -0.1041 -0.3548 0.9291
vn -0.4619 -0.3827 0.8001
vn 0.6063 -0.1542 0.7801
vn 0.2699 -0.2751 0.9227
vn -0.9341 -0.2751 0.2276
vn -0.9787 -0.1542 -0.1350
vn -0.7526 -0.3548 0.5547
vn -0.9614 0.0000 0.2750
vn -0.9941 0.0000 -0.1085
vn -0.5000 0.0000 0.8660
vn -0.7878 0.0000 0.6159
vn 0.2426 0.0000 0.9701
vn -0.1394 0.0000 0.9902
vn 0.5910 0.0000 0.8067
vn 0.2699 0.2751 0.9227
vn -0.1041 0.3548 0.9291
vn 0.6063 0.1542 0.7801
vn -0.9787 0.1542 -0.1350
vn -0.7526 0.3548 0.5547
vn -0.9341 0.2751 0.2276
vn -0.4619 0.3827 0.8001
vn -0.9351 0.2850 -0.2107
vn -0.6520 0.6557 0.3807
vn -0.8562 0.5083 0.0926
vn -0.0036 0.6557 0.7550
vn -0.3535 0.7071 0.6124
vn 0.6500 0.2850 0.7044
vn 0.3478 0.5083 0.7878
vn 0.7154 0.3724 0.5911
vn 0.4645 0.6641 0.5858
vn -0.7396 0.6641 -0.1093
vn -0.8697 0.3724 -0.3240
vn -0.1913 0.9239 0.3314
vn -0.5016 0.8567 0.1201
vn 0.1468 0.8567 0.4945
usemtl eyes
s 1
f 7//1 6//2 13//3 14//4
f 5//5 4//6 11//7 12//8
f 3//9 2//10 9//11 10//12
f 1//13 44//14 8//15
f 22//16 7//1 14//4
f 6//2 5//5 12//8 13//3
f 4//6 3//9 10//12 11//7
f 2//10 1//13 8//15 9//11
f 10//12 9//11 16//17 17//18
f 8//15 44//14 15//19
f 22//16 14//4 21//20
f 13//3 12//8 19//21 20//22
f 11//7 10//12 17//18 18//23
f 9//11 8//15 15//19 16//17
f 14//4 13//3 20//22 21//20
f 12//8 11//7 18//23 19//21
f 22//16 21//20 29//24
f 20//22 19//21 27//25 28//26
f 18//23 17//18 25//27 26//28
f 16//17 15//19 23//29 24//30
f 21//20 20//22 28//26 29//24
f 19//21 18//23 26//28 27//25
f 17//18 16//17 24//30 25//27
f 15//19 44//14 23//29
f 24//30 23//29 30//31 31//32
f 29//24 28//26 35//33 36//34
f 27//25 26//28 33//35 34//36
f 25//27 24//30 31//32 32//37
f 23//29 44//14 30//31
f 22//16 29//24 36//34
f 28//26 27//25 34//36 35//33
f 26//28 25//27 32//37 33//35
f 36//34 35//33 42//38 43//39
f 34//36 33//35 40//40 41//41
f 32//37 31//32 38//42 39//43
f 30//31 44//14 37//44
f 22//16 36//34 43//39
f 35//33 34//36 41//41 42//38
f 33//35 32//37 39//43 40//40
f 31//32 30//31 37//44 38//42
f 37//44 44//14 45//45
f 22//16 43//39 51//46
f 42//38 41//41 49//47 50//48
f 40//40 39//43 47//49 48//50
f 38//42 37//44 45//45 46//51
f 43//39 42//38 50//48 51//46
f 41//41 40//40 48//50 49//47
f 39//43 38//42 46//51 47//49
f 50//48 49//47 56//52 57//53
f 48//50 47//49 54//54 55//55
f 46//51 45//45 52//56 53//57
f 51//46 50//48 57//53 58//58
f 49//47 48//50 55//55 56//52
f 47//49 46//51 53//57 54//54
f 45//45 44//14 52//56
f 22//16 51//46 58//58
f 58//58 57//53 64//59 65//60
f 56//52 55//55 62//61 63//62
f 54//54 53//57 60//63 61//64
f 52//56 44//14 59//65
f 22//16 58//58 65//60
f 57//53 56//52 63//62 64//59
f 55//55 54//54 61//64 62//61
f 53//57 52//56 59//65 60//63
f 63//62 62//61 69//66 70//67
f 61//64 60//63 67//68 68//69
f 59//65 44//14 66//70
f 22//16 65//60 72//71
f 64//59 63//62 70//67 71//72
f 62//61 61//64 68//69 69//66
f 60//63 59//65 66//70 67//68
f 65//60 64//59 71//72 72//71
f 22//16 72//71 79//73
f 71//72 70//67 77//74 78//75
f 69//66 68//69 75//76 76//77
f 67//68 66//70 73//78 74//79
f 72//71 71//72 78//75 79//73
f 70//67 69//66 76//77 77//74
f 68//69 67//68 74//79 75//76
f 66//70 44//14 73//78
f 76//77 75//76 82//80 83//81
f 74//79 73//78 80//82 81//83
f 79//73 78//75 85//84 86//85
f 77//74 76//77 83//81 84//86
f 75//76 74//79 81//83 82//80
f 73//78 44//14 80//82
f 22//16 79//73 86//85
f 78//75 77//74 84//86 85//84
f 86//85 85//84 92//87 93//88
f 84//86 83//81 90//89 91//90
f 82//80 81//83 88//91 89//92
f 80//82 44//14 87//93
f 22//16 86//85 93//88
f 85//84 84//86 91//90 92//87
f 83//81 82//80 89//92 90//89
f 81//83 80//82 87//93 88//91
f 89//92 88//91 95//94 96//95
f 87//93 44//14 94//96
f 22//16 93//88 100//97
f 92//87 91//90 98//98 99//99
f 90//89 89//92 96//95 97//100
f 88//91 87//93 94//96 95//94
f 93//88 92//87 99//99 100//97
f 91//90 90//89 97//100 98//98
f 22//16 100//97 107//101
f 99//99 98//98 105//102 106//103
f 97//100 96//95 103//104 104//105
f 95//94 94//96 101//106 102//107
f 100//97 99//99 106//103 107//101
f 98//98 97//100 104//105 105//102
f 96//95 95//94 102//107 103//104
f 94//96 44//14 101//106
f 102//107 101//106 108//108 109//109
f 107//101 106//103 113//110 114//111
f 105//102 104//105 111//112 112//113
f 103//104 102//107 109//109 110//114
f 101//106 44//14 108//108
f 22//16 107//101 114//111
f 106//103 105//102 112//113 113//110
f 104//105 103//104 110//114 111//112
f 114//111 113//110 6//2 7//1
f 112//113 111//112 4//6 5//5
f 110//114 109//109 2//10 3//9
f 108//108 44//14 1//13
f 22//16 114//111 7//1
f 113//110 112//113 5//5 6//2
f 111//112 110//114 3//9 4//6
f 109//109 108//108 1//13 2//10
