# Blender v2.79 (sub 0) OBJ File: 'canary_base_mesh_BI.blend'
# www.blender.org
mtllib canary_feather_flight_primary_003.mtl
o feather_flight_primary_003
v 0.028056 0.051382 0.017018
v 0.025803 0.051382 0.017018
v 0.028467 0.030601 0.017018
v 0.025392 0.030601 0.017018
v 0.026930 0.052444 0.017173
v 0.026930 0.029445 0.017173
v 0.028669 0.047863 0.017018
v 0.029184 0.043282 0.017018
v 0.029513 0.038701 0.017018
v 0.029421 0.034120 0.017018
v 0.024438 0.034120 0.017018
v 0.024347 0.038701 0.017018
v 0.024676 0.043282 0.017018
v 0.025190 0.047863 0.017018
v 0.026930 0.047863 0.017173
v 0.026930 0.043282 0.017173
v 0.026930 0.038701 0.017173
v 0.026930 0.034120 0.017173
vn 0.0000 0.0049 -1.0000
vn -0.0691 0.0045 -0.9976
vn -0.0792 0.0092 -0.9968
vn 0.0000 0.0092 -0.9999
vn 0.0691 0.0045 -0.9976
vn 0.0792 0.0092 -0.9968
vn 0.0000 -0.0084 -0.9999
vn -0.1104 -0.0083 -0.9938
vn -0.0923 -0.0061 -0.9957
vn 0.0000 -0.0063 -1.0000
vn -0.0701 -0.0032 -0.9975
vn 0.0000 -0.0033 -1.0000
vn -0.0623 -0.0008 -0.9980
vn 0.0000 -0.0008 -1.0000
vn 0.1104 -0.0083 -0.9938
vn 0.0923 -0.0061 -0.9957
vn 0.0701 -0.0032 -0.9975
vn 0.0623 -0.0008 -0.9980
usemtl feather_yellow_003
s 1
f 18//1 10//2 3//3 6//4
f 11//5 18//1 6//4 4//6
f 5//7 1//8 7//9 15//10
f 15//10 7//9 8//11 16//12
f 16//12 8//11 9//13 17//14
f 17//14 9//13 10//2 18//1
f 2//15 5//7 15//10 14//16
f 14//16 15//10 16//12 13//17
f 13//17 16//12 17//14 12//18
f 12//18 17//14 18//1 11//5
