# Blender v2.79 (sub 0) OBJ File: 'canary_base_mesh_BI.blend'
# www.blender.org
mtllib canary_feather_tail_primary_002.mtl
o feather_tail_primary_002
v 0.003219 0.026176 -0.044302
v 0.000761 0.026176 -0.045186
v 0.017619 0.026176 -0.083049
v 0.014317 0.026176 -0.084236
v 0.001638 0.026380 -0.043766
v 0.016708 0.026380 -0.085702
v 0.004936 0.026176 -0.047346
v 0.006867 0.026176 -0.051417
v 0.015789 0.026176 -0.075281
v 0.017091 0.026176 -0.079578
v 0.012515 0.026176 -0.081223
v 0.010784 0.026176 -0.077079
v 0.002476 0.026176 -0.052995
v 0.001373 0.026176 -0.048626
v 0.003155 0.026380 -0.047986
v 0.004671 0.026380 -0.052206
v 0.013286 0.026380 -0.076180
v 0.014803 0.026380 -0.080400
v 0.014082 0.026176 -0.070480
v 0.012329 0.026176 -0.065696
v 0.010556 0.026176 -0.060920
v 0.008765 0.026176 -0.056149
v 0.004024 0.026176 -0.057853
v 0.005679 0.026176 -0.062672
v 0.007352 0.026176 -0.067485
v 0.009045 0.026176 -0.072290
v 0.011563 0.026380 -0.071385
v 0.009840 0.026380 -0.066591
v 0.008117 0.026380 -0.061796
v 0.006394 0.026380 -0.057001
vn 0.0016 1.0000 -0.0045
vn 0.0860 0.9959 0.0261
vn 0.0978 0.9948 0.0271
vn 0.0026 1.0000 -0.0071
vn -0.0829 0.9959 -0.0346
vn -0.0927 0.9948 -0.0413
vn -0.0033 0.9999 0.0091
vn 0.1190 0.9915 0.0530
vn 0.1028 0.9937 0.0443
vn -0.0024 1.0000 0.0068
vn 0.0836 0.9959 0.0333
vn -0.0010 1.0000 0.0029
vn 0.0000 1.0000 0.0000
vn 0.0720 0.9970 0.0259
vn 0.0740 0.9969 0.0255
vn 0.0004 1.0000 -0.0010
vn -0.1255 0.9915 -0.0349
vn -0.1075 0.9937 -0.0312
vn -0.0857 0.9959 -0.0275
vn -0.0721 0.9970 -0.0258
vn -0.0733 0.9969 -0.0275
vn 0.0767 0.9966 0.0287
vn -0.0003 1.0000 0.0010
vn 0.0740 0.9969 0.0271
vn -0.0002 1.0000 0.0005
vn 0.0726 0.9970 0.0264
vn -0.0001 1.0000 0.0003
vn -0.0774 0.9966 -0.0267
vn -0.0744 0.9969 -0.0262
vn -0.0728 0.9970 -0.0258
usemtl feather_yellow_003
s 1
f 18//1 10//2 3//3 6//4
f 11//5 18//1 6//4 4//6
f 5//7 1//8 7//9 15//10
f 15//10 7//9 8//11 16//12
f 27//13 19//14 9//15 17//16
f 17//16 9//15 10//2 18//1
f 2//17 5//7 15//10 14//18
f 14//18 15//10 16//12 13//19
f 26//20 27//13 17//16 12//21
f 12//21 17//16 18//1 11//5
f 16//12 8//11 22//22 30//23
f 30//23 22//22 21//24 29//25
f 29//25 21//24 20//26 28//27
f 28//27 20//26 19//14 27//13
f 13//19 16//12 30//23 23//28
f 23//28 30//23 29//25 24//29
f 24//29 29//25 28//27 25//30
f 25//30 28//27 27//13 26//20
