# Blender v2.79 (sub 0) OBJ File: 'canary_base_mesh_BI.blend'
# www.blender.org
mtllib canary_feather_flight_tertiary_051.mtl
o feather_flight_tertiary_051
v 0.057654 0.052260 0.016799
v 0.056173 0.051984 0.016794
v 0.059111 0.045958 0.016760
v 0.057090 0.045582 0.016753
v 0.056852 0.052446 0.016644
v 0.058166 0.045416 0.016599
v 0.058258 0.051260 0.016794
v 0.058858 0.049922 0.016786
v 0.059336 0.048562 0.016778
v 0.059538 0.047151 0.016768
v 0.056261 0.046541 0.016758
v 0.055939 0.047930 0.016767
v 0.055894 0.049371 0.016776
v 0.055971 0.050834 0.016786
v 0.057114 0.051045 0.016635
v 0.057376 0.049645 0.016626
v 0.057637 0.048245 0.016617
v 0.057899 0.046845 0.016608
vn 0.0048 -0.0089 -0.9999
vn 0.1041 0.0127 -0.9945
vn 0.1233 -0.0007 -0.9923
vn 0.0074 -0.0226 -0.9997
vn -0.0956 -0.0246 -0.9951
vn -0.1087 -0.0441 -0.9931
vn -0.0031 0.0332 -0.9994
vn 0.1580 0.0628 -0.9854
vn 0.1309 0.0501 -0.9901
vn -0.0019 0.0268 -0.9996
vn 0.1022 0.0358 -0.9941
vn -0.0000 0.0172 -0.9998
vn 0.0928 0.0262 -0.9953
vn 0.0014 0.0094 -0.9999
vn -0.1642 0.0027 -0.9864
vn -0.1342 0.0006 -0.9909
vn -0.1022 -0.0023 -0.9948
vn -0.0899 -0.0079 -0.9959
usemtl feather_yellow_001
s 1
f 18//1 10//2 3//3 6//4
f 11//5 18//1 6//4 4//6
f 5//7 1//8 7//9 15//10
f 15//10 7//9 8//11 16//12
f 16//12 8//11 9//13 17//14
f 17//14 9//13 10//2 18//1
f 2//15 5//7 15//10 14//16
f 14//16 15//10 16//12 13//17
f 13//17 16//12 17//14 12//18
f 12//18 17//14 18//1 11//5
