# Blender v2.79 (sub 0) OBJ File: 'canary_base_mesh_BI.blend'
# www.blender.org
mtllib canary_feather_flight_tertiary_043.mtl
o feather_flight_tertiary_043
v 0.040295 0.052124 0.016799
v 0.038535 0.052109 0.016799
v 0.040671 0.045710 0.016799
v 0.038269 0.045689 0.016799
v 0.039412 0.052444 0.016644
v 0.039473 0.045342 0.016644
v 0.040783 0.051042 0.016799
v 0.041197 0.049630 0.016799
v 0.041466 0.048218 0.016799
v 0.041407 0.046803 0.016799
v 0.037514 0.046769 0.016799
v 0.037430 0.048183 0.016799
v 0.037675 0.049600 0.016799
v 0.038065 0.051018 0.016799
v 0.039424 0.051030 0.016644
v 0.039436 0.049615 0.016644
v 0.039448 0.048201 0.016644
v 0.039461 0.046786 0.016644
vn 0.0001 -0.0159 -0.9998
vn 0.0867 -0.0116 -0.9962
vn 0.1014 -0.0289 -0.9944
vn 0.0002 -0.0299 -0.9995
vn -0.0865 -0.0131 -0.9962
vn -0.1009 -0.0306 -0.9944
vn -0.0002 0.0272 -0.9996
vn 0.1405 0.0281 -0.9897
vn 0.1147 0.0200 -0.9932
vn -0.0002 0.0206 -0.9998
vn 0.0888 0.0110 -0.9960
vn -0.0001 0.0107 -0.9999
vn 0.0796 0.0032 -0.9968
vn 0.0000 0.0027 -1.0000
vn -0.1409 0.0257 -0.9897
vn -0.1151 0.0180 -0.9932
vn -0.0890 0.0095 -0.9960
vn -0.0796 0.0018 -0.9968
usemtl feather_yellow_001
s 1
f 18//1 10//2 3//3 6//4
f 11//5 18//1 6//4 4//6
f 5//7 1//8 7//9 15//10
f 15//10 7//9 8//11 16//12
f 16//12 8//11 9//13 17//14
f 17//14 9//13 10//2 18//1
f 2//15 5//7 15//10 14//16
f 14//16 15//10 16//12 13//17
f 13//17 16//12 17//14 12//18
f 12//18 17//14 18//1 11//5
