# Blender v2.79 (sub 0) OBJ File: 'canary_base_mesh_BI.blend'
# www.blender.org
mtllib canary_feather_flight_tertiary_022.mtl
o feather_flight_tertiary_022
v 0.064091 0.052448 0.017404
v 0.062568 0.051813 0.017416
v 0.066918 0.046473 0.017427
v 0.064841 0.045606 0.017443
v 0.063198 0.052441 0.017564
v 0.066021 0.045700 0.017591
v 0.064936 0.051590 0.017405
v 0.065846 0.050392 0.017408
v 0.066631 0.049142 0.017412
v 0.067131 0.047774 0.017418
v 0.063764 0.046368 0.017444
v 0.063140 0.047685 0.017439
v 0.062800 0.049121 0.017432
v 0.062586 0.050609 0.017424
v 0.063760 0.051098 0.017569
v 0.064322 0.049755 0.017575
v 0.064885 0.048413 0.017580
v 0.065447 0.047070 0.017586
vn -0.0109 0.0081 -0.9999
vn -0.0952 -0.0305 -0.9950
vn -0.1156 -0.0211 -0.9930
vn -0.0163 0.0207 -0.9996
vn 0.0757 0.0410 -0.9963
vn 0.0835 0.0623 -0.9945
vn 0.0054 -0.0305 -0.9995
vn -0.1331 -0.0880 -0.9872
vn -0.1112 -0.0707 -0.9913
vn 0.0028 -0.0246 -0.9997
vn -0.0887 -0.0520 -0.9947
vn -0.0009 -0.0158 -0.9998
vn -0.0824 -0.0412 -0.9957
vn -0.0040 -0.0086 -0.9999
vn 0.1438 0.0277 -0.9892
vn 0.1158 0.0243 -0.9930
vn 0.0865 0.0213 -0.9960
vn 0.0744 0.0244 -0.9969
usemtl feather_yellow_001
s 1
f 18//1 10//2 3//3 6//4
f 11//5 18//1 6//4 4//6
f 5//7 1//8 7//9 15//10
f 15//10 7//9 8//11 16//12
f 16//12 8//11 9//13 17//14
f 17//14 9//13 10//2 18//1
f 2//15 5//7 15//10 14//16
f 14//16 15//10 16//12 13//17
f 13//17 16//12 17//14 12//18
f 12//18 17//14 18//1 11//5
