# Blender v2.79 (sub 0) OBJ File: 'canary_base_mesh_BI.blend'
# www.blender.org
mtllib canary_feather_flight_tertiary_004.mtl
o feather_flight_tertiary_004
v 0.024761 0.052162 0.017409
v 0.023117 0.052133 0.017409
v 0.025162 0.046352 0.017409
v 0.022919 0.046313 0.017409
v 0.023934 0.052444 0.017564
v 0.024046 0.046009 0.017564
v 0.025225 0.051185 0.017409
v 0.025623 0.049909 0.017409
v 0.025885 0.048632 0.017409
v 0.025841 0.047349 0.017409
v 0.022205 0.047285 0.017409
v 0.022116 0.048566 0.017409
v 0.022334 0.049852 0.017409
v 0.022687 0.051140 0.017409
v 0.023956 0.051163 0.017564
v 0.023978 0.049881 0.017564
v 0.024001 0.048599 0.017564
v 0.024023 0.047317 0.017564
vn -0.0003 0.0176 -0.9998
vn -0.0928 0.0119 -0.9956
vn -0.1087 0.0309 -0.9936
vn -0.0005 0.0330 -0.9995
vn 0.0923 0.0152 -0.9956
vn 0.1076 0.0347 -0.9936
vn 0.0005 -0.0300 -0.9995
vn -0.1499 -0.0323 -0.9882
vn -0.1224 -0.0230 -0.9922
vn 0.0004 -0.0227 -0.9997
vn -0.0949 -0.0129 -0.9954
vn 0.0002 -0.0119 -0.9999
vn -0.0851 -0.0042 -0.9963
vn 0.0000 -0.0030 -1.0000
vn 0.1509 -0.0270 -0.9882
vn 0.1231 -0.0187 -0.9922
vn 0.0952 -0.0096 -0.9954
vn 0.0852 -0.0013 -0.9963
usemtl feather_yellow_001
s 1
f 18//1 10//2 3//3 6//4
f 11//5 18//1 6//4 4//6
f 5//7 1//8 7//9 15//10
f 15//10 7//9 8//11 16//12
f 16//12 8//11 9//13 17//14
f 17//14 9//13 10//2 18//1
f 2//15 5//7 15//10 14//16
f 14//16 15//10 16//12 13//17
f 13//17 16//12 17//14 12//18
f 12//18 17//14 18//1 11//5
