# Blender v2.79 (sub 0) OBJ File: 'canary_base_mesh_BI.blend'
# www.blender.org
mtllib canary_feather_flight_tertiary_001.mtl
o feather_flight_tertiary_001
v 0.018884 0.052175 0.017409
v 0.017392 0.052175 0.017409
v 0.019155 0.046901 0.017409
v 0.017120 0.046901 0.017409
v 0.018138 0.052444 0.017564
v 0.018138 0.046608 0.017564
v 0.019289 0.051282 0.017409
v 0.019630 0.050119 0.017409
v 0.019847 0.048957 0.017409
v 0.019787 0.047794 0.017409
v 0.016489 0.047794 0.017409
v 0.016428 0.048957 0.017409
v 0.016646 0.050119 0.017409
v 0.016987 0.051282 0.017409
v 0.018138 0.051282 0.017564
v 0.018138 0.050119 0.017564
v 0.018138 0.048957 0.017564
v 0.018138 0.047794 0.017564
vn 0.0000 0.0194 -0.9998
vn -0.1019 0.0149 -0.9947
vn -0.1191 0.0362 -0.9922
vn 0.0000 0.0364 -0.9993
vn 0.1019 0.0149 -0.9947
vn 0.1191 0.0362 -0.9922
vn 0.0000 -0.0331 -0.9995
vn -0.1654 -0.0326 -0.9857
vn -0.1351 -0.0230 -0.9905
vn 0.0000 -0.0251 -0.9997
vn -0.1047 -0.0124 -0.9944
vn 0.0000 -0.0131 -0.9999
vn -0.0939 -0.0030 -0.9956
vn 0.0000 -0.0033 -1.0000
vn 0.1654 -0.0326 -0.9857
vn 0.1351 -0.0230 -0.9905
vn 0.1047 -0.0124 -0.9944
vn 0.0939 -0.0030 -0.9956
usemtl feather_yellow_001
s 1
f 18//1 10//2 3//3 6//4
f 11//5 18//1 6//4 4//6
f 5//7 1//8 7//9 15//10
f 15//10 7//9 8//11 16//12
f 16//12 8//11 9//13 17//14
f 17//14 9//13 10//2 18//1
f 2//15 5//7 15//10 14//16
f 14//16 15//10 16//12 13//17
f 13//17 16//12 17//14 12//18
f 12//18 17//14 18//1 11//5
