# Blender v2.79 (sub 0) OBJ File: 'canary_base_mesh_BI.blend'
# www.blender.org
mtllib canary_feather_tail_secondary_010.mtl
o feather_tail_secondary_010
v -0.000968 0.026313 -0.045733
v 0.001382 0.026313 -0.045733
v 0.000207 0.026061 -0.044553
v -0.001496 0.026313 -0.049642
v -0.001891 0.026313 -0.054732
v 0.002305 0.026313 -0.054732
v 0.001910 0.026313 -0.049642
v 0.000207 0.026061 -0.049642
v 0.000207 0.026061 -0.054732
v -0.001852 0.026313 -0.070639
v -0.002124 0.026313 -0.066296
v -0.002058 0.026313 -0.060514
v 0.002472 0.026313 -0.060514
v 0.002538 0.026313 -0.066296
v 0.002266 0.026313 -0.070639
v 0.000207 0.026061 -0.072078
v 0.000207 0.026061 -0.066296
v 0.000207 0.026061 -0.060514
vn 0.0000 -0.9999 0.0105
vn -0.1770 -0.9841 0.0104
vn -0.1529 -0.9882 0.0076
vn 0.0000 -0.9999 0.0078
vn -0.1231 -0.9924 0.0033
vn 0.0000 -1.0000 0.0034
vn 0.1770 -0.9841 0.0104
vn 0.1529 -0.9882 0.0076
vn 0.1231 -0.9924 0.0033
vn -0.1121 -0.9937 0.0011
vn 0.0000 -1.0000 0.0011
vn -0.1122 -0.9937 -0.0012
vn 0.0000 -1.0000 -0.0012
vn -0.1153 -0.9933 -0.0031
vn 0.0000 -1.0000 -0.0031
vn 0.1121 -0.9937 0.0011
vn 0.1122 -0.9937 -0.0012
vn 0.1153 -0.9933 -0.0031
usemtl feather_yellow_001
s 1
f 3//1 1//2 4//3 8//4
f 8//4 4//3 5//5 9//6
f 2//7 3//1 8//4 7//8
f 7//8 8//4 9//6 6//9
f 9//6 5//5 12//10 18//11
f 18//11 12//10 11//12 17//13
f 17//13 11//12 10//14 16//15
f 6//9 9//6 18//11 13//16
f 13//16 18//11 17//13 14//17
f 14//17 17//13 16//15 15//18
