# Blender v2.79 (sub 0) OBJ File: 'canary_base_mesh_BI.blend'
# www.blender.org
mtllib canary_feather_flight_tertiary_018.mtl
o feather_flight_tertiary_018
v 0.055613 0.052272 0.017409
v 0.053948 0.051936 0.017412
v 0.057262 0.045673 0.017437
v 0.054990 0.045215 0.017441
v 0.054712 0.052444 0.017564
v 0.056201 0.045072 0.017595
v 0.056294 0.051235 0.017413
v 0.056971 0.049844 0.017419
v 0.057510 0.048425 0.017424
v 0.057739 0.046943 0.017431
v 0.054057 0.046200 0.017438
v 0.053693 0.047655 0.017432
v 0.053640 0.049172 0.017425
v 0.053723 0.050717 0.017418
v 0.055008 0.050975 0.017570
v 0.055305 0.049507 0.017576
v 0.055601 0.048039 0.017583
v 0.055898 0.046571 0.017589
vn -0.0039 0.0103 -0.9999
vn -0.0915 -0.0105 -0.9957
vn -0.1093 0.0024 -0.9940
vn -0.0066 0.0233 -0.9997
vn 0.0849 0.0251 -0.9961
vn 0.0963 0.0439 -0.9944
vn 0.0042 -0.0296 -0.9995
vn -0.1387 -0.0581 -0.9886
vn -0.1145 -0.0457 -0.9923
vn 0.0029 -0.0235 -0.9997
vn -0.0894 -0.0322 -0.9955
vn 0.0010 -0.0144 -0.9999
vn -0.0814 -0.0231 -0.9964
vn -0.0004 -0.0070 -1.0000
vn 0.1470 -0.0004 -0.9891
vn 0.1198 0.0015 -0.9928
vn 0.0914 0.0043 -0.9958
vn 0.0804 0.0096 -0.9967
usemtl feather_yellow_001
s 1
f 18//1 10//2 3//3 6//4
f 11//5 18//1 6//4 4//6
f 5//7 1//8 7//9 15//10
f 15//10 7//9 8//11 16//12
f 16//12 8//11 9//13 17//14
f 17//14 9//13 10//2 18//1
f 2//15 5//7 15//10 14//16
f 14//16 15//10 16//12 13//17
f 13//17 16//12 17//14 12//18
f 12//18 17//14 18//1 11//5
