# Blender v2.79 (sub 0) OBJ File: 'canary_base_mesh_BI.blend'
# www.blender.org
mtllib canary_feather_flight_tertiary_014.mtl
o feather_flight_tertiary_014
v 0.046869 0.052257 0.017409
v 0.045132 0.051961 0.017411
v 0.048302 0.045750 0.017422
v 0.045932 0.045347 0.017424
v 0.045943 0.052444 0.017564
v 0.047179 0.045183 0.017578
v 0.047530 0.051226 0.017411
v 0.048173 0.049848 0.017414
v 0.048673 0.048445 0.017416
v 0.048849 0.046986 0.017419
v 0.045008 0.046333 0.017422
v 0.044691 0.047767 0.017419
v 0.044698 0.049256 0.017416
v 0.044849 0.050770 0.017413
v 0.046189 0.050998 0.017567
v 0.046436 0.049552 0.017570
v 0.046682 0.048105 0.017572
v 0.046928 0.046659 0.017575
vn -0.0030 0.0131 -0.9999
vn -0.0878 -0.0046 -0.9961
vn -0.1049 0.0093 -0.9944
vn -0.0052 0.0264 -0.9996
vn 0.0829 0.0244 -0.9962
vn 0.0944 0.0433 -0.9946
vn 0.0040 -0.0279 -0.9996
vn -0.1346 -0.0512 -0.9896
vn -0.1107 -0.0394 -0.9931
vn 0.0029 -0.0216 -0.9998
vn -0.0863 -0.0266 -0.9959
vn 0.0013 -0.0122 -0.9999
vn -0.0784 -0.0178 -0.9967
vn 0.0000 -0.0046 -1.0000
vn 0.1426 -0.0040 -0.9897
vn 0.1161 -0.0008 -0.9932
vn 0.0889 0.0031 -0.9960
vn 0.0785 0.0089 -0.9969
usemtl feather_yellow_001
s 1
f 18//1 10//2 3//3 6//4
f 11//5 18//1 6//4 4//6
f 5//7 1//8 7//9 15//10
f 15//10 7//9 8//11 16//12
f 16//12 8//11 9//13 17//14
f 17//14 9//13 10//2 18//1
f 2//15 5//7 15//10 14//16
f 14//16 15//10 16//12 13//17
f 13//17 16//12 17//14 12//18
f 12//18 17//14 18//1 11//5
