# Blender v2.79 (sub 0) OBJ File: 'canary_base_mesh_BI.blend'
# www.blender.org
mtllib canary_feather_flight_secondary_023.mtl
o feather_flight_secondary_023
v 0.046036 0.051903 0.016973
v 0.043685 0.051656 0.016973
v 0.047832 0.038938 0.016973
v 0.044624 0.038601 0.016973
v 0.044790 0.052444 0.016818
v 0.046304 0.038046 0.016818
v 0.046907 0.049767 0.016973
v 0.047745 0.046956 0.016973
v 0.048390 0.044124 0.016973
v 0.048596 0.041246 0.016973
v 0.043396 0.040700 0.016973
v 0.043000 0.043557 0.016973
v 0.043041 0.046461 0.016973
v 0.043277 0.049386 0.016973
v 0.045092 0.049577 0.016818
v 0.045393 0.046709 0.016818
v 0.045695 0.043841 0.016818
v 0.045996 0.040973 0.016818
vn 0.0008 -0.0078 -0.9999
vn 0.0656 0.0002 -0.9978
vn 0.0766 -0.0067 -0.9970
vn 0.0015 -0.0146 -0.9999
vn -0.0642 -0.0135 -0.9978
vn -0.0735 -0.0225 -0.9970
vn -0.0014 0.0132 -0.9999
vn 0.1033 0.0242 -0.9943
vn 0.0856 0.0186 -0.9962
vn -0.0010 0.0101 -0.9999
vn 0.0657 0.0120 -0.9977
vn -0.0005 0.0052 -1.0000
vn 0.0589 0.0074 -0.9982
vn -0.0001 0.0013 -1.0000
vn -0.1061 0.0022 -0.9943
vn -0.0876 0.0004 -0.9962
vn -0.0668 -0.0019 -0.9977
vn -0.0592 -0.0049 -0.9982
usemtl feather_yellow_002
s 1
f 18//1 10//2 3//3 6//4
f 11//5 18//1 6//4 4//6
f 5//7 1//8 7//9 15//10
f 15//10 7//9 8//11 16//12
f 16//12 8//11 9//13 17//14
f 17//14 9//13 10//2 18//1
f 2//15 5//7 15//10 14//16
f 14//16 15//10 16//12 13//17
f 13//17 16//12 17//14 12//18
f 12//18 17//14 18//1 11//5
