# Blender v2.79 (sub 0) OBJ File: 'canary_base_mesh_BI.blend'
# www.blender.org
mtllib canary_feather_flight_tertiary_005.mtl
o feather_flight_tertiary_005
v 0.026737 0.052163 0.017409
v 0.025099 0.052134 0.017409
v 0.027137 0.046373 0.017409
v 0.024902 0.046334 0.017409
v 0.025913 0.052444 0.017564
v 0.026025 0.046032 0.017564
v 0.027200 0.051189 0.017409
v 0.027596 0.049918 0.017409
v 0.027858 0.048645 0.017409
v 0.027814 0.047367 0.017409
v 0.024191 0.047304 0.017409
v 0.024102 0.048580 0.017409
v 0.024319 0.049861 0.017409
v 0.024671 0.051145 0.017409
v 0.025935 0.051167 0.017564
v 0.025958 0.049890 0.017564
v 0.025980 0.048612 0.017564
v 0.026002 0.047335 0.017564
vn -0.0003 0.0176 -0.9998
vn -0.0931 0.0120 -0.9956
vn -0.1091 0.0310 -0.9935
vn -0.0005 0.0331 -0.9994
vn 0.0926 0.0152 -0.9956
vn 0.1080 0.0349 -0.9935
vn 0.0005 -0.0301 -0.9995
vn -0.1504 -0.0324 -0.9881
vn -0.1228 -0.0231 -0.9922
vn 0.0004 -0.0228 -0.9997
vn -0.0952 -0.0129 -0.9954
vn 0.0002 -0.0119 -0.9999
vn -0.0855 -0.0042 -0.9963
vn 0.0000 -0.0030 -1.0000
vn 0.1515 -0.0271 -0.9881
vn 0.1236 -0.0188 -0.9922
vn 0.0956 -0.0096 -0.9954
vn 0.0855 -0.0013 -0.9963
usemtl feather_yellow_001
s 1
f 18//1 10//2 3//3 6//4
f 11//5 18//1 6//4 4//6
f 5//7 1//8 7//9 15//10
f 15//10 7//9 8//11 16//12
f 16//12 8//11 9//13 17//14
f 17//14 9//13 10//2 18//1
f 2//15 5//7 15//10 14//16
f 14//16 15//10 16//12 13//17
f 13//17 16//12 17//14 12//18
f 12//18 17//14 18//1 11//5
