# Blender v2.79 (sub 0) OBJ File: 'canary_base_mesh_BI.blend'
# www.blender.org
mtllib canary_feather_flight_tertiary_030.mtl
o feather_flight_tertiary_030
v 0.082116 0.052753 0.017461
v 0.081594 0.051758 0.017444
v 0.088928 0.049365 0.017528
v 0.088216 0.048007 0.017505
v 0.081515 0.052440 0.017614
v 0.088948 0.048490 0.017685
v 0.083395 0.052419 0.017477
v 0.084995 0.051860 0.017495
v 0.086552 0.051218 0.017511
v 0.088011 0.050391 0.017525
v 0.086857 0.048190 0.017487
v 0.085355 0.048937 0.017472
v 0.083951 0.049869 0.017461
v 0.082590 0.050883 0.017450
v 0.082995 0.051653 0.017628
v 0.084476 0.050866 0.017642
v 0.085957 0.050080 0.017656
v 0.087437 0.049293 0.017671
vn 0.0015 0.0154 -0.9999
vn -0.0652 -0.1139 -0.9913
vn -0.0881 -0.1267 -0.9880
vn -0.0092 0.0221 -0.9997
vn 0.0714 0.1431 -0.9871
vn 0.0690 0.1684 -0.9833
vn 0.0354 -0.0033 -0.9994
vn -0.0735 -0.2070 -0.9756
vn -0.0612 -0.1704 -0.9835
vn 0.0304 -0.0002 -0.9995
vn -0.0471 -0.1264 -0.9908
vn 0.0228 0.0044 -0.9997
vn -0.0457 -0.1088 -0.9930
vn 0.0165 0.0078 -0.9998
vn 0.1423 0.2003 -0.9693
vn 0.1194 0.1703 -0.9781
vn 0.0917 0.1351 -0.9865
vn 0.0782 0.1244 -0.9891
usemtl feather_yellow_001
s 1
f 18//1 10//2 3//3 6//4
f 11//5 18//1 6//4 4//6
f 5//7 1//8 7//9 15//10
f 15//10 7//9 8//11 16//12
f 16//12 8//11 9//13 17//14
f 17//14 9//13 10//2 18//1
f 2//15 5//7 15//10 14//16
f 14//16 15//10 16//12 13//17
f 13//17 16//12 17//14 12//18
f 12//18 17//14 18//1 11//5
