# Blender v2.79 (sub 0) OBJ File: 'canary_base_mesh_BI.blend'
# www.blender.org
mtllib canary_feather_flight_tertiary_049.mtl
o feather_flight_tertiary_049
v 0.053506 0.052208 0.016799
v 0.052025 0.052037 0.016794
v 0.054516 0.045888 0.016760
v 0.052494 0.045654 0.016754
v 0.052727 0.052446 0.016644
v 0.053546 0.045417 0.016600
v 0.054034 0.051179 0.016794
v 0.054535 0.049818 0.016786
v 0.054915 0.048443 0.016778
v 0.055018 0.047036 0.016769
v 0.051742 0.046657 0.016759
v 0.051519 0.048050 0.016767
v 0.051572 0.049475 0.016777
v 0.051747 0.050915 0.016786
v 0.052890 0.051046 0.016635
v 0.053053 0.049646 0.016626
v 0.053216 0.048246 0.016618
v 0.053379 0.046846 0.016609
vn 0.0042 -0.0094 -0.9999
vn 0.1057 0.0055 -0.9944
vn 0.1242 -0.0094 -0.9922
vn 0.0059 -0.0233 -0.9997
vn -0.0981 -0.0182 -0.9950
vn -0.1127 -0.0370 -0.9929
vn -0.0009 0.0336 -0.9994
vn 0.1635 0.0522 -0.9851
vn 0.1353 0.0413 -0.9899
vn -0.0001 0.0270 -0.9996
vn 0.1055 0.0289 -0.9940
vn 0.0011 0.0172 -0.9998
vn 0.0954 0.0199 -0.9952
vn 0.0020 0.0092 -0.9999
vn -0.1653 0.0140 -0.9861
vn -0.1353 0.0098 -0.9908
vn -0.1032 0.0046 -0.9946
vn -0.0913 -0.0018 -0.9958
usemtl feather_yellow_001
s 1
f 18//1 10//2 3//3 6//4
f 11//5 18//1 6//4 4//6
f 5//7 1//8 7//9 15//10
f 15//10 7//9 8//11 16//12
f 16//12 8//11 9//13 17//14
f 17//14 9//13 10//2 18//1
f 2//15 5//7 15//10 14//16
f 14//16 15//10 16//12 13//17
f 13//17 16//12 17//14 12//18
f 12//18 17//14 18//1 11//5
