# Blender v2.79 (sub 0) OBJ File: 'canary_base_mesh_BI.blend'
# www.blender.org
mtllib canary_feather_flight_secondary_014.mtl
o feather_flight_secondary_014
v 0.076680 0.052952 0.017233
v 0.075136 0.050870 0.017188
v 0.090824 0.043094 0.017190
v 0.088717 0.040254 0.017128
v 0.075201 0.052438 0.017369
v 0.090543 0.041108 0.017311
v 0.079447 0.051784 0.017237
v 0.082855 0.050003 0.017236
v 0.086137 0.048050 0.017231
v 0.089130 0.045709 0.017217
v 0.085716 0.041106 0.017118
v 0.082597 0.043278 0.017127
v 0.079767 0.045839 0.017145
v 0.077064 0.048571 0.017167
v 0.078257 0.050181 0.017357
v 0.081313 0.047924 0.017346
v 0.084369 0.045668 0.017334
v 0.087424 0.043411 0.017323
vn 0.0030 0.0192 -0.9998
vn -0.0321 -0.0295 -0.9990
vn -0.0423 -0.0334 -0.9985
vn -0.0012 0.0223 -0.9997
vn 0.0393 0.0670 -0.9969
vn 0.0399 0.0778 -0.9962
vn 0.0161 0.0097 -0.9998
vn -0.0415 -0.0683 -0.9968
vn -0.0339 -0.0533 -0.9980
vn 0.0139 0.0109 -0.9998
vn -0.0253 -0.0359 -0.9990
vn 0.0110 0.0132 -0.9998
vn -0.0237 -0.0287 -0.9993
vn 0.0087 0.0150 -0.9998
vn 0.0731 0.0870 -0.9935
vn 0.0613 0.0756 -0.9952
vn 0.0473 0.0624 -0.9969
vn 0.0409 0.0588 -0.9974
usemtl feather_yellow_002
s 1
f 18//1 10//2 3//3 6//4
f 11//5 18//1 6//4 4//6
f 5//7 1//8 7//9 15//10
f 15//10 7//9 8//11 16//12
f 16//12 8//11 9//13 17//14
f 17//14 9//13 10//2 18//1
f 2//15 5//7 15//10 14//16
f 14//16 15//10 16//12 13//17
f 13//17 16//12 17//14 12//18
f 12//18 17//14 18//1 11//5
