# Blender v2.79 (sub 0) OBJ File: 'canary_base_mesh_BI.blend'
# www.blender.org
mtllib canary_feather_flight_secondary_013.mtl
o feather_flight_secondary_013
v 0.072091 0.052822 0.017220
v 0.070065 0.050920 0.017207
v 0.083002 0.041939 0.017225
v 0.080236 0.039343 0.017206
v 0.070540 0.052445 0.017368
v 0.082206 0.040017 0.017370
v 0.074427 0.051438 0.017224
v 0.077214 0.049397 0.017228
v 0.079834 0.047199 0.017230
v 0.082075 0.044646 0.017230
v 0.077593 0.040439 0.017200
v 0.075187 0.042837 0.017199
v 0.073159 0.045591 0.017201
v 0.071299 0.048501 0.017203
v 0.072864 0.049970 0.017368
v 0.075187 0.047494 0.017369
v 0.077511 0.045019 0.017369
v 0.079835 0.042543 0.017370
vn -0.0009 0.0080 -0.9999
vn -0.0408 -0.0307 -0.9987
vn -0.0518 -0.0317 -0.9981
vn -0.0049 0.0123 -0.9999
vn 0.0403 0.0454 -0.9981
vn 0.0419 0.0562 -0.9975
vn 0.0114 -0.0051 -0.9999
vn -0.0541 -0.0665 -0.9963
vn -0.0449 -0.0535 -0.9975
vn 0.0095 -0.0031 -0.9999
vn -0.0348 -0.0388 -0.9986
vn 0.0067 -0.0001 -1.0000
vn -0.0325 -0.0322 -0.9989
vn 0.0044 0.0023 -1.0000
vn 0.0767 0.0563 -0.9955
vn 0.0632 0.0479 -0.9968
vn 0.0479 0.0388 -0.9981
vn 0.0412 0.0370 -0.9984
usemtl feather_yellow_002
s 1
f 18//1 10//2 3//3 6//4
f 11//5 18//1 6//4 4//6
f 5//7 1//8 7//9 15//10
f 15//10 7//9 8//11 16//12
f 16//12 8//11 9//13 17//14
f 17//14 9//13 10//2 18//1
f 2//15 5//7 15//10 14//16
f 14//16 15//10 16//12 13//17
f 13//17 16//12 17//14 12//18
f 12//18 17//14 18//1 11//5
