# Blender v2.79 (sub 0) OBJ File: 'canary_base_mesh_BI.blend'
# www.blender.org
mtllib canary_feather_flight_tertiary_003.mtl
o feather_flight_tertiary_003
v 0.022691 0.052172 0.017409
v 0.021185 0.052172 0.017409
v 0.022966 0.046847 0.017409
v 0.020911 0.046847 0.017409
v 0.021938 0.052444 0.017564
v 0.021938 0.046551 0.017564
v 0.023101 0.051270 0.017409
v 0.023445 0.050097 0.017409
v 0.023665 0.048923 0.017409
v 0.023603 0.047749 0.017409
v 0.020273 0.047749 0.017409
v 0.020212 0.048923 0.017409
v 0.020432 0.050097 0.017409
v 0.020776 0.051270 0.017409
v 0.021938 0.051270 0.017564
v 0.021938 0.050097 0.017564
v 0.021938 0.048923 0.017564
v 0.021938 0.047749 0.017564
vn 0.0000 0.0192 -0.9998
vn -0.1010 0.0148 -0.9948
vn -0.1180 0.0358 -0.9923
vn 0.0000 0.0361 -0.9993
vn 0.1010 0.0148 -0.9948
vn 0.1180 0.0358 -0.9923
vn 0.0000 -0.0327 -0.9995
vn -0.1639 -0.0323 -0.9859
vn -0.1338 -0.0228 -0.9907
vn 0.0000 -0.0248 -0.9997
vn -0.1037 -0.0123 -0.9945
vn 0.0000 -0.0130 -0.9999
vn -0.0930 -0.0030 -0.9956
vn 0.0000 -0.0033 -1.0000
vn 0.1639 -0.0323 -0.9859
vn 0.1338 -0.0228 -0.9907
vn 0.1037 -0.0123 -0.9945
vn 0.0930 -0.0030 -0.9956
usemtl feather_yellow_001
s 1
f 18//1 10//2 3//3 6//4
f 11//5 18//1 6//4 4//6
f 5//7 1//8 7//9 15//10
f 15//10 7//9 8//11 16//12
f 16//12 8//11 9//13 17//14
f 17//14 9//13 10//2 18//1
f 2//15 5//7 15//10 14//16
f 14//16 15//10 16//12 13//17
f 13//17 16//12 17//14 12//18
f 12//18 17//14 18//1 11//5
