# Blender v2.79 (sub 0) OBJ File: 'canary_base_mesh_BI.blend'
# www.blender.org
mtllib canary_feather_flight_primary_009.mtl
o feather_flight_primary_009
v 0.055285 0.051508 0.017018
v 0.052508 0.050764 0.017018
v 0.062653 0.026034 0.017018
v 0.058864 0.025019 0.017018
v 0.053546 0.052444 0.017173
v 0.061140 0.024102 0.017173
v 0.057202 0.047373 0.017018
v 0.059349 0.041898 0.017018
v 0.061267 0.036361 0.017018
v 0.062667 0.030686 0.017018
v 0.056526 0.029040 0.017018
v 0.054901 0.034656 0.017018
v 0.053794 0.040410 0.017018
v 0.052915 0.046225 0.017018
v 0.055059 0.046799 0.017173
v 0.056571 0.041154 0.017173
v 0.058084 0.035509 0.017173
v 0.059597 0.029863 0.017173
vn -0.0010 0.0037 -1.0000
vn -0.0533 -0.0106 -0.9985
vn -0.0619 -0.0091 -0.9980
vn -0.0019 0.0070 -1.0000
vn 0.0515 0.0174 -0.9985
vn 0.0581 0.0231 -0.9980
vn 0.0017 -0.0063 -1.0000
vn -0.0821 -0.0288 -0.9962
vn -0.0687 -0.0234 -0.9973
vn 0.0013 -0.0048 -1.0000
vn -0.0525 -0.0167 -0.9985
vn 0.0007 -0.0025 -1.0000
vn -0.0470 -0.0132 -0.9988
vn 0.0002 -0.0006 -1.0000
vn 0.0855 0.0161 -0.9962
vn 0.0713 0.0141 -0.9973
vn 0.0538 0.0117 -0.9985
vn 0.0474 0.0120 -0.9988
usemtl feather_yellow_003
s 1
f 18//1 10//2 3//3 6//4
f 11//5 18//1 6//4 4//6
f 5//7 1//8 7//9 15//10
f 15//10 7//9 8//11 16//12
f 16//12 8//11 9//13 17//14
f 17//14 9//13 10//2 18//1
f 2//15 5//7 15//10 14//16
f 14//16 15//10 16//12 13//17
f 13//17 16//12 17//14 12//18
f 12//18 17//14 18//1 11//5
