# Blender v2.79 (sub 0) OBJ File: 'canary_base_mesh_BI.blend'
# www.blender.org
mtllib canary_feather_flight_secondary_024.mtl
o feather_flight_secondary_024
v 0.050544 0.051964 0.016973
v 0.048078 0.051530 0.016973
v 0.053400 0.038396 0.016973
v 0.050034 0.037803 0.016973
v 0.049188 0.052444 0.016818
v 0.051851 0.037341 0.016818
v 0.051622 0.049772 0.016973
v 0.052716 0.046863 0.016973
v 0.053606 0.043918 0.016973
v 0.054037 0.040892 0.016973
v 0.048582 0.039930 0.016973
v 0.047952 0.042921 0.016973
v 0.047781 0.045993 0.016973
v 0.047815 0.049100 0.016973
v 0.049718 0.049436 0.016818
v 0.050249 0.046428 0.016818
v 0.050779 0.043419 0.016818
v 0.051310 0.040411 0.016818
vn 0.0013 -0.0073 -1.0000
vn 0.0618 0.0045 -0.9980
vn 0.0726 -0.0012 -0.9973
vn 0.0024 -0.0136 -0.9999
vn -0.0596 -0.0169 -0.9980
vn -0.0678 -0.0260 -0.9973
vn -0.0022 0.0124 -0.9999
vn 0.0958 0.0296 -0.9949
vn 0.0794 0.0232 -0.9966
vn -0.0016 0.0094 -0.9999
vn 0.0611 0.0157 -0.9980
vn -0.0009 0.0049 -1.0000
vn 0.0550 0.0109 -0.9984
vn -0.0002 0.0012 -1.0000
vn -0.1001 -0.0049 -0.9949
vn -0.0826 -0.0053 -0.9966
vn -0.0628 -0.0062 -0.9980
vn -0.0554 -0.0085 -0.9984
usemtl feather_yellow_002
s 1
f 18//1 10//2 3//3 6//4
f 11//5 18//1 6//4 4//6
f 5//7 1//8 7//9 15//10
f 15//10 7//9 8//11 16//12
f 16//12 8//11 9//13 17//14
f 17//14 9//13 10//2 18//1
f 2//15 5//7 15//10 14//16
f 14//16 15//10 16//12 13//17
f 13//17 16//12 17//14 12//18
f 12//18 17//14 18//1 11//5
