# Blender v2.79 (sub 0) OBJ File: 'canary_base_mesh_BI.blend'
# www.blender.org
mtllib canary_feather_flight_secondary_022.mtl
o feather_flight_secondary_022
v 0.041754 0.051878 0.016973
v 0.039468 0.051718 0.016973
v 0.043056 0.039254 0.016973
v 0.039936 0.039036 0.016973
v 0.040566 0.052444 0.016818
v 0.041545 0.038441 0.016818
v 0.042526 0.049779 0.016973
v 0.043243 0.047026 0.016973
v 0.043772 0.044260 0.016973
v 0.043874 0.041464 0.016973
v 0.038817 0.041111 0.016973
v 0.038530 0.043894 0.016973
v 0.038668 0.046706 0.016973
v 0.038996 0.049532 0.016973
v 0.040761 0.049655 0.016818
v 0.040956 0.046866 0.016818
v 0.041151 0.044077 0.016818
v 0.041346 0.041288 0.016818
vn 0.0005 -0.0080 -0.9999
vn 0.0677 -0.0021 -0.9977
vn 0.0787 -0.0096 -0.9968
vn 0.0010 -0.0151 -0.9999
vn -0.0667 -0.0115 -0.9977
vn -0.0766 -0.0205 -0.9968
vn -0.0009 0.0137 -0.9999
vn 0.1073 0.0212 -0.9940
vn 0.0889 0.0161 -0.9959
vn -0.0007 0.0104 -0.9999
vn 0.0682 0.0100 -0.9976
vn -0.0004 0.0054 -1.0000
vn 0.0610 0.0056 -0.9981
vn -0.0001 0.0014 -1.0000
vn -0.1092 0.0061 -0.9940
vn -0.0902 0.0036 -0.9959
vn -0.0689 0.0005 -0.9976
vn -0.0612 -0.0030 -0.9981
usemtl feather_yellow_002
s 1
f 18//1 10//2 3//3 6//4
f 11//5 18//1 6//4 4//6
f 5//7 1//8 7//9 15//10
f 15//10 7//9 8//11 16//12
f 16//12 8//11 9//13 17//14
f 17//14 9//13 10//2 18//1
f 2//15 5//7 15//10 14//16
f 14//16 15//10 16//12 13//17
f 13//17 16//12 17//14 12//18
f 12//18 17//14 18//1 11//5
