# Blender v2.79 (sub 0) OBJ File: 'capybara_base_mesh_BI.blend'
# www.blender.org
mtllib capybara_eye.mtl
o eye
v 0.076914 0.596939 0.501469
v 0.071885 0.603412 0.500277
v 0.064857 0.607417 0.498495
v 0.056898 0.608343 0.496392
v 0.049222 0.606049 0.494289
v 0.042995 0.600885 0.492507
v 0.039167 0.593636 0.491316
v 0.077770 0.596393 0.498465
v 0.073466 0.602404 0.494728
v 0.066922 0.606099 0.491245
v 0.059134 0.606916 0.488545
v 0.051287 0.604731 0.487039
v 0.044576 0.599876 0.486958
v 0.040023 0.593090 0.488313
v 0.078603 0.594698 0.495920
v 0.075006 0.599272 0.490024
v 0.068934 0.602007 0.485098
v 0.061311 0.602487 0.481892
v 0.053298 0.600639 0.480893
v 0.046115 0.596744 0.482254
v 0.040856 0.591395 0.485767
v 0.038320 0.585407 0.490897
v 0.079286 0.592112 0.494218
v 0.076269 0.594493 0.486881
v 0.070584 0.595764 0.480991
v 0.063098 0.595730 0.477447
v 0.054949 0.594396 0.476786
v 0.047379 0.591966 0.479110
v 0.041540 0.588809 0.484066
v 0.079717 0.589028 0.493621
v 0.077064 0.588796 0.485777
v 0.071623 0.588320 0.479549
v 0.064223 0.587673 0.475886
v 0.055988 0.586952 0.475344
v 0.048174 0.586269 0.478007
v 0.041970 0.585726 0.483468
v 0.079828 0.585917 0.494218
v 0.077270 0.583048 0.486881
v 0.071893 0.580809 0.480992
v 0.064514 0.579543 0.477447
v 0.056257 0.579441 0.476786
v 0.048380 0.580520 0.479110
v 0.042082 0.582615 0.484066
v 0.079177 0.588981 0.501887
v 0.079604 0.583252 0.495920
v 0.076856 0.578123 0.490024
v 0.071351 0.574374 0.485098
v 0.063928 0.572578 0.481892
v 0.055716 0.573007 0.480893
v 0.047966 0.575595 0.482254
v 0.041857 0.579949 0.485767
v 0.079078 0.581438 0.498465
v 0.075884 0.574771 0.494728
v 0.070081 0.569995 0.491245
v 0.062553 0.567838 0.488545
v 0.054446 0.568628 0.487039
v 0.046994 0.572244 0.486958
v 0.041331 0.578136 0.488313
v 0.078330 0.580752 0.501469
v 0.074502 0.573503 0.500277
v 0.068276 0.568339 0.498495
v 0.060599 0.566045 0.496392
v 0.052641 0.566971 0.494289
v 0.045612 0.570976 0.492507
v 0.040583 0.577449 0.491316
v 0.077475 0.581298 0.504472
v 0.072921 0.574512 0.505826
v 0.066210 0.569657 0.505745
v 0.058363 0.567472 0.504240
v 0.050575 0.568289 0.501539
v 0.044031 0.571984 0.498056
v 0.039728 0.577995 0.494319
v 0.076642 0.582993 0.507017
v 0.071382 0.577644 0.510531
v 0.064199 0.573749 0.511891
v 0.056187 0.571901 0.510892
v 0.048564 0.572381 0.507686
v 0.042492 0.575116 0.502760
v 0.038895 0.579690 0.496865
v 0.075958 0.585579 0.508719
v 0.070119 0.582422 0.513674
v 0.062548 0.579992 0.515998
v 0.054400 0.578658 0.515338
v 0.046913 0.578624 0.511793
v 0.041228 0.579894 0.505903
v 0.038211 0.582276 0.498566
v 0.075527 0.588662 0.509316
v 0.069323 0.588119 0.514778
v 0.061509 0.587435 0.517440
v 0.053275 0.586715 0.516899
v 0.045874 0.586068 0.513235
v 0.040433 0.585592 0.507007
v 0.037781 0.585360 0.499163
v 0.075416 0.591773 0.508719
v 0.069117 0.593868 0.513674
v 0.061240 0.594946 0.515998
v 0.052984 0.594845 0.515338
v 0.045605 0.593579 0.511793
v 0.040227 0.591340 0.505903
v 0.037669 0.588471 0.498566
v 0.075640 0.594438 0.507017
v 0.069532 0.598793 0.510531
v 0.061782 0.601381 0.511891
v 0.053570 0.601810 0.510892
v 0.046146 0.600013 0.507686
v 0.040642 0.596265 0.502760
v 0.037894 0.591136 0.496865
v 0.076166 0.596252 0.504472
v 0.070504 0.602144 0.505826
v 0.063052 0.605760 0.505745
v 0.054945 0.606550 0.504240
v 0.047417 0.604392 0.501539
v 0.041614 0.599617 0.498056
v 0.038420 0.592950 0.494319
vn -0.4411 0.8922 -0.0969
vn -0.0871 0.9962 0.0000
vn 0.0181 0.9290 -0.3696
vn -0.3434 0.8299 -0.4396
vn 0.2794 0.9553 0.0969
vn 0.6063 0.7746 0.1799
vn 0.6819 0.7263 -0.0858
vn 0.3771 0.8929 -0.2459
vn 0.8455 0.4786 0.2369
vn 0.9622 0.0842 0.2588
vn 0.8879 0.4515 0.0878
vn -0.9622 -0.0842 -0.2588
vn -0.9157 0.3245 -0.2369
vn -0.8733 0.2974 -0.3858
vn -0.7316 0.6576 -0.1799
vn -0.6558 0.6093 -0.4456
vn -0.8319 0.2133 -0.5122
vn -0.2483 0.6365 -0.7302
vn -0.5821 0.4593 -0.6709
vn 0.4721 0.6995 -0.5364
vn 0.1207 0.7204 -0.6830
vn 0.9293 0.3674 -0.0385
vn 0.7557 0.5763 -0.3110
vn 0.9632 0.2391 -0.1228
vn 0.8162 0.3475 -0.4616
vn -0.5217 0.2305 -0.8214
vn -0.7980 0.0850 -0.5966
vn 0.2048 0.4021 -0.8924
vn -0.1703 0.3413 -0.9244
vn 0.5502 0.4043 -0.7306
vn -0.4836 -0.0423 -0.8743
vn -0.7767 -0.0679 -0.6262
vn 0.2578 0.0226 -0.9659
vn -0.1211 -0.0106 -0.9926
vn 0.8542 0.0747 -0.5144
vn 0.5993 0.0524 -0.7988
vn 0.9845 0.0861 -0.1525
vn 0.9901 -0.0682 -0.1228
vn -0.7711 -0.2223 -0.5966
vn -0.1084 -0.3657 -0.9244
vn -0.4737 -0.3176 -0.8214
vn 0.6120 -0.3027 -0.7306
vn 0.2716 -0.3604 -0.8924
vn 0.8641 -0.2005 -0.4616
vn -0.1340 -0.6699 -0.7302
vn -0.4935 -0.5534 -0.6709
vn 0.5864 -0.6069 -0.5364
vn 0.2439 -0.6884 -0.6830
vn 0.9789 -0.2004 -0.0385
vn 0.8443 -0.4364 -0.3110
vn -0.7823 -0.3545 -0.5122
vn -0.5401 -0.7139 -0.4456
vn -0.8084 -0.4445 -0.3858
vn 0.1792 -0.9117 -0.3696
vn -0.1941 -0.8769 -0.4396
vn 0.7977 -0.5969 -0.0858
vn 0.5264 -0.8139 -0.2459
vn 0.9528 -0.2904 0.0878
vn 0.0871 -0.9962 0.0000
vn -0.2794 -0.9553 -0.0969
vn 0.7316 -0.6576 0.1799
vn 0.4410 -0.8922 0.0969
vn 0.9157 -0.3245 0.2369
vn -0.8455 -0.4786 -0.2369
vn -0.6063 -0.7746 -0.1799
vn -0.8879 -0.4515 -0.0878
vn -0.3771 -0.8929 0.2459
vn -0.6819 -0.7263 0.0858
vn 0.3434 -0.8299 0.4396
vn -0.0181 -0.9290 0.3696
vn 0.8733 -0.2974 0.3858
vn 0.6558 -0.6093 0.4456
vn 0.2483 -0.6365 0.7302
vn -0.1207 -0.7204 0.6830
vn 0.8320 -0.2133 0.5122
vn 0.5821 -0.4593 0.6709
vn -0.7557 -0.5763 0.3110
vn -0.9293 -0.3674 0.0385
vn -0.4721 -0.6995 0.5364
vn -0.8162 -0.3475 0.4616
vn -0.9632 -0.2391 0.1228
vn -0.2048 -0.4021 0.8924
vn -0.5502 -0.4043 0.7306
vn 0.5217 -0.2305 0.8214
vn 0.1703 -0.3413 0.9244
vn 0.7980 -0.0850 0.5966
vn 0.4836 0.0423 0.8743
vn 0.1211 0.0106 0.9926
vn 0.7767 0.0679 0.6262
vn -0.9845 -0.0861 0.1525
vn -0.5993 -0.0524 0.7988
vn -0.8542 -0.0747 0.5144
vn -0.2578 -0.0226 0.9659
vn -0.9901 0.0682 0.1228
vn -0.6120 0.3027 0.7306
vn -0.8641 0.2005 0.4616
vn 0.1084 0.3657 0.9244
vn -0.2716 0.3604 0.8924
vn 0.7711 0.2223 0.5966
vn 0.4737 0.3176 0.8214
vn 0.7823 0.3545 0.5122
vn 0.4935 0.5534 0.6709
vn -0.8443 0.4364 0.3110
vn -0.9789 0.2004 0.0385
vn -0.2439 0.6884 0.6830
vn -0.5864 0.6069 0.5364
vn 0.1340 0.6699 0.7302
vn -0.7977 0.5969 0.0858
vn -0.9528 0.2904 -0.0878
vn -0.1792 0.9117 0.3696
vn -0.5264 0.8139 0.2459
vn 0.5401 0.7139 0.4456
vn 0.1941 0.8769 0.4396
vn 0.8084 0.4445 0.3858
usemtl eyes
s 1
f 5//1 4//2 11//3 12//4
f 3//5 2//6 9//7 10//8
f 1//9 44//10 8//11
f 22//12 7//13 14//14
f 6//15 5//1 12//4 13//16
f 4//2 3//5 10//8 11//3
f 2//6 1//9 8//11 9//7
f 7//13 6//15 13//16 14//14
f 22//12 14//14 21//17
f 13//16 12//4 19//18 20//19
f 11//3 10//8 17//20 18//21
f 9//7 8//11 15//22 16//23
f 14//14 13//16 20//19 21//17
f 12//4 11//3 18//21 19//18
f 10//8 9//7 16//23 17//20
f 8//11 44//10 15//22
f 16//23 15//22 23//24 24//25
f 21//17 20//19 28//26 29//27
f 19//18 18//21 26//28 27//29
f 17//20 16//23 24//25 25//30
f 15//22 44//10 23//24
f 22//12 21//17 29//27
f 20//19 19//18 27//29 28//26
f 18//21 17//20 25//30 26//28
f 29//27 28//26 35//31 36//32
f 27//29 26//28 33//33 34//34
f 25//30 24//25 31//35 32//36
f 23//24 44//10 30//37
f 22//12 29//27 36//32
f 28//26 27//29 34//34 35//31
f 26//28 25//30 32//36 33//33
f 24//25 23//24 30//37 31//35
f 30//37 44//10 37//38
f 22//12 36//32 43//39
f 35//31 34//34 41//40 42//41
f 33//33 32//36 39//42 40//43
f 31//35 30//37 37//38 38//44
f 36//32 35//31 42//41 43//39
f 34//34 33//33 40//43 41//40
f 32//36 31//35 38//44 39//42
f 42//41 41//40 49//45 50//46
f 40//43 39//42 47//47 48//48
f 38//44 37//38 45//49 46//50
f 43//39 42//41 50//46 51//51
f 41//40 40//43 48//48 49//45
f 39//42 38//44 46//50 47//47
f 37//38 44//10 45//49
f 22//12 43//39 51//51
f 51//51 50//46 57//52 58//53
f 49//45 48//48 55//54 56//55
f 47//47 46//50 53//56 54//57
f 45//49 44//10 52//58
f 22//12 51//51 58//53
f 50//46 49//45 56//55 57//52
f 48//48 47//47 54//57 55//54
f 46//50 45//49 52//58 53//56
f 56//55 55//54 62//59 63//60
f 54//57 53//56 60//61 61//62
f 52//58 44//10 59//63
f 22//12 58//53 65//64
f 57//52 56//55 63//60 64//65
f 55//54 54//57 61//62 62//59
f 53//56 52//58 59//63 60//61
f 58//53 57//52 64//65 65//64
f 22//12 65//64 72//66
f 64//65 63//60 70//67 71//68
f 62//59 61//62 68//69 69//70
f 60//61 59//63 66//71 67//72
f 65//64 64//65 71//68 72//66
f 63//60 62//59 69//70 70//67
f 61//62 60//61 67//72 68//69
f 59//63 44//10 66//71
f 69//70 68//69 75//73 76//74
f 67//72 66//71 73//75 74//76
f 72//66 71//68 78//77 79//78
f 70//67 69//70 76//74 77//79
f 68//69 67//72 74//76 75//73
f 66//71 44//10 73//75
f 22//12 72//66 79//78
f 71//68 70//67 77//79 78//77
f 79//78 78//77 85//80 86//81
f 77//79 76//74 83//82 84//83
f 75//73 74//76 81//84 82//85
f 73//75 44//10 80//86
f 22//12 79//78 86//81
f 78//77 77//79 84//83 85//80
f 76//74 75//73 82//85 83//82
f 74//76 73//75 80//86 81//84
f 82//85 81//84 88//87 89//88
f 80//86 44//10 87//89
f 22//12 86//81 93//90
f 85//80 84//83 91//91 92//92
f 83//82 82//85 89//88 90//93
f 81//84 80//86 87//89 88//87
f 86//81 85//80 92//92 93//90
f 84//83 83//82 90//93 91//91
f 22//12 93//90 100//94
f 92//92 91//91 98//95 99//96
f 90//93 89//88 96//97 97//98
f 88//87 87//89 94//99 95//100
f 93//90 92//92 99//96 100//94
f 91//91 90//93 97//98 98//95
f 89//88 88//87 95//100 96//97
f 87//89 44//10 94//99
f 95//100 94//99 101//101 102//102
f 100//94 99//96 106//103 107//104
f 98//95 97//98 104//105 105//106
f 96//97 95//100 102//102 103//107
f 94//99 44//10 101//101
f 22//12 100//94 107//104
f 99//96 98//95 105//106 106//103
f 97//98 96//97 103//107 104//105
f 107//104 106//103 113//108 114//109
f 105//106 104//105 111//110 112//111
f 103//107 102//102 109//112 110//113
f 101//101 44//10 108//114
f 22//12 107//104 114//109
f 106//103 105//106 112//111 113//108
f 104//105 103//107 110//113 111//110
f 102//102 101//101 108//114 109//112
f 108//114 44//10 1//9
f 22//12 114//109 7//13
f 113//108 112//111 5//1 6//15
f 111//110 110//113 3//5 4//2
f 109//112 108//114 1//9 2//6
f 114//109 113//108 6//15 7//13
f 112//111 111//110 4//2 5//1
f 110//113 109//112 2//6 3//5
