# Blender v2.79 (sub 0) OBJ File: 'chameleon_base_mesh_BI.blend'
# www.blender.org
mtllib chameleon_eye.mtl
o eye
v 0.024315 0.104384 0.116348
v 0.022043 0.106834 0.115863
v 0.019047 0.108211 0.115136
v 0.015783 0.108304 0.114279
v 0.012748 0.107100 0.113422
v 0.010403 0.104782 0.112695
v 0.009106 0.101703 0.112210
v 0.024682 0.104193 0.115124
v 0.022721 0.106481 0.113601
v 0.019933 0.107749 0.112181
v 0.016741 0.107804 0.111080
v 0.013633 0.106638 0.110467
v 0.011081 0.104428 0.110434
v 0.009473 0.101511 0.110986
v 0.025080 0.103535 0.114086
v 0.023457 0.105264 0.111683
v 0.020895 0.106159 0.109676
v 0.017783 0.106083 0.108369
v 0.014595 0.105048 0.107962
v 0.011817 0.103211 0.108516
v 0.009871 0.100853 0.109948
v 0.009055 0.098331 0.112039
v 0.025450 0.102509 0.113393
v 0.024140 0.103369 0.110402
v 0.021787 0.103683 0.108002
v 0.018748 0.103403 0.106557
v 0.015487 0.102572 0.106288
v 0.012500 0.101316 0.107235
v 0.010241 0.099827 0.109255
v 0.025734 0.101272 0.113149
v 0.024665 0.101084 0.109952
v 0.022473 0.100697 0.107414
v 0.019491 0.100171 0.105921
v 0.016173 0.099586 0.105700
v 0.013025 0.099031 0.106785
v 0.010525 0.098590 0.109011
v 0.025890 0.100013 0.113393
v 0.024953 0.098757 0.110402
v 0.022849 0.097657 0.108002
v 0.019898 0.096881 0.106557
v 0.016549 0.096546 0.106288
v 0.013313 0.096704 0.107235
v 0.010681 0.097331 0.109255
v 0.025517 0.101234 0.116518
v 0.025894 0.098923 0.114086
v 0.024960 0.096743 0.111683
v 0.022858 0.095025 0.109676
v 0.019908 0.094032 0.108369
v 0.016558 0.093914 0.107962
v 0.013319 0.094690 0.108516
v 0.010684 0.096241 0.109948
v 0.025744 0.098168 0.115124
v 0.024684 0.095347 0.113601
v 0.022498 0.093202 0.112181
v 0.019518 0.092059 0.111080
v 0.016198 0.092091 0.110467
v 0.013044 0.093295 0.110434
v 0.010535 0.095486 0.110986
v 0.025465 0.097862 0.116348
v 0.024168 0.094783 0.115863
v 0.021824 0.092465 0.115136
v 0.018788 0.091261 0.114279
v 0.015524 0.091354 0.113422
v 0.012528 0.092731 0.112695
v 0.010256 0.095181 0.112210
v 0.025098 0.098054 0.117572
v 0.023491 0.095137 0.118124
v 0.020938 0.092927 0.118091
v 0.017830 0.091761 0.117477
v 0.014638 0.091816 0.116377
v 0.011850 0.093084 0.114957
v 0.009889 0.095372 0.113434
v 0.024700 0.098712 0.118610
v 0.022754 0.096354 0.120042
v 0.019976 0.094517 0.120596
v 0.016789 0.093482 0.120189
v 0.013676 0.093406 0.118882
v 0.011114 0.094301 0.116874
v 0.009491 0.096031 0.114472
v 0.024330 0.099738 0.119303
v 0.022072 0.098249 0.121323
v 0.019084 0.096993 0.122270
v 0.015823 0.096162 0.122001
v 0.012784 0.095882 0.120556
v 0.010431 0.096196 0.118155
v 0.009121 0.097056 0.115165
v 0.024046 0.100975 0.119546
v 0.021546 0.100534 0.121773
v 0.018398 0.099979 0.122858
v 0.015080 0.099394 0.122637
v 0.012098 0.098868 0.121144
v 0.009906 0.098481 0.118605
v 0.008837 0.098293 0.115408
v 0.023890 0.102234 0.119303
v 0.021258 0.102861 0.121323
v 0.018022 0.103019 0.122270
v 0.014673 0.102684 0.122001
v 0.011722 0.101908 0.120556
v 0.009618 0.100808 0.118155
v 0.008681 0.099552 0.115165
v 0.023887 0.103324 0.118610
v 0.021252 0.104875 0.120042
v 0.018013 0.105651 0.120596
v 0.014664 0.105533 0.120189
v 0.011713 0.104540 0.118882
v 0.009611 0.102823 0.116874
v 0.008678 0.100642 0.114472
v 0.024036 0.104079 0.117572
v 0.021527 0.106270 0.118124
v 0.018373 0.107474 0.118091
v 0.015053 0.107506 0.117477
v 0.012073 0.106363 0.116377
v 0.009887 0.104218 0.114957
v 0.008827 0.101397 0.113434
vn -0.9405 0.2434 -0.2369
vn -0.7861 0.5913 -0.1799
vn -0.7065 0.5498 -0.4456
vn -0.8959 0.2202 -0.3858
vn -0.5171 0.8504 -0.0969
vn -0.1736 0.9848 0.0000
vn -0.0629 0.9270 -0.3696
vn -0.4144 0.7968 -0.4396
vn 0.1951 0.9760 0.0969
vn 0.5364 0.8245 0.1799
vn 0.6160 0.7830 -0.0858
vn 0.2978 0.9224 -0.2459
vn -0.9512 -0.1677 -0.2588
vn 0.8005 0.5505 0.2369
vn 0.8452 0.5272 0.0878
vn -0.8474 0.1400 -0.5122
vn -0.3028 0.6124 -0.7302
vn -0.6200 0.4068 -0.6709
vn 0.4094 0.7380 -0.5364
vn 0.0574 0.7281 -0.6830
vn 0.8937 0.4470 -0.0385
vn 0.7025 0.6400 -0.3110
vn 0.5128 0.4508 -0.7306
vn 0.1690 0.4184 -0.8924
vn 0.9387 0.3221 -0.1228
vn 0.7828 0.4173 -0.4616
vn -0.5398 0.1841 -0.8214
vn -0.8024 0.0151 -0.5966
vn -0.1993 0.3251 -0.9244
vn -0.4780 -0.0843 -0.8743
vn -0.7678 -0.1354 -0.6262
vn 0.2549 0.0449 -0.9659
vn -0.1198 -0.0211 -0.9926
vn 0.8445 0.1489 -0.5144
vn 0.5925 0.1045 -0.7988
vn 0.9733 0.1716 -0.1525
vn 0.8783 -0.1245 -0.4616
vn 0.6361 -0.2481 -0.7306
vn -0.7488 -0.2887 -0.5966
vn -0.0761 -0.3737 -0.9244
vn -0.4442 -0.3576 -0.8214
vn 0.3019 -0.3353 -0.8924
vn 0.9922 0.0183 -0.1228
vn -0.7484 -0.4214 -0.5122
vn -0.0751 -0.6790 -0.7302
vn -0.4434 -0.5943 -0.6709
vn 0.6371 -0.5535 -0.5364
vn 0.3030 -0.6646 -0.6830
vn 0.9927 -0.1144 -0.0385
vn 0.8791 -0.3611 -0.3110
vn 0.9745 -0.2063 0.0878
vn 0.8467 -0.5251 -0.0858
vn -0.4758 -0.7583 -0.4456
vn -0.7665 -0.5133 -0.3858
vn 0.2579 -0.8926 -0.3696
vn -0.1169 -0.8905 -0.4396
vn 0.5953 -0.7649 -0.2459
vn -0.5364 -0.8245 -0.1799
vn -0.8005 -0.5505 -0.2369
vn 0.1736 -0.9848 0.0000
vn -0.1951 -0.9760 -0.0969
vn 0.7861 -0.5913 0.1799
vn 0.5171 -0.8504 0.0969
vn 0.9405 -0.2434 0.2369
vn -0.8452 -0.5272 -0.0878
vn -0.2978 -0.9224 0.2459
vn -0.6160 -0.7830 0.0858
vn 0.4144 -0.7968 0.4396
vn 0.0629 -0.9270 0.3696
vn 0.8959 -0.2202 0.3858
vn 0.7065 -0.5498 0.4456
vn -0.4094 -0.7380 0.5364
vn -0.7025 -0.6400 0.3110
vn 0.3028 -0.6124 0.7302
vn -0.0574 -0.7281 0.6830
vn 0.8474 -0.1400 0.5122
vn 0.6200 -0.4068 0.6709
vn -0.8937 -0.4470 0.0385
vn -0.7828 -0.4173 0.4616
vn -0.9387 -0.3221 0.1228
vn -0.1690 -0.4184 0.8924
vn -0.5128 -0.4508 0.7306
vn 0.5398 -0.1841 0.8214
vn 0.1994 -0.3251 0.9244
vn 0.8024 -0.0151 0.5966
vn -0.2549 -0.0449 0.9659
vn -0.5925 -0.1045 0.7988
vn 0.4780 0.0843 0.8743
vn 0.1198 0.0211 0.9926
vn -0.9733 -0.1716 0.1525
vn -0.8445 -0.1489 0.5144
vn 0.7678 0.1354 0.6262
vn -0.9922 -0.0183 0.1228
vn -0.6361 0.2481 0.7306
vn -0.8783 0.1245 0.4616
vn 0.0761 0.3737 0.9244
vn -0.3019 0.3353 0.8924
vn 0.7488 0.2887 0.5966
vn 0.4442 0.3576 0.8214
vn 0.0751 0.6790 0.7302
vn -0.3030 0.6646 0.6830
vn 0.7484 0.4214 0.5122
vn 0.4434 0.5943 0.6709
vn -0.8791 0.3611 0.3110
vn -0.9927 0.1144 0.0385
vn -0.6371 0.5535 0.5364
vn -0.8467 0.5251 0.0858
vn -0.9745 0.2063 -0.0878
vn -0.2579 0.8926 0.3696
vn -0.5953 0.7649 0.2459
vn 0.4758 0.7583 0.4456
vn 0.1169 0.8905 0.4396
vn 0.7665 0.5133 0.3858
vn 0.9512 0.1677 0.2588
usemtl eyes_iris
s 1
f 7//1 6//2 13//3 14//4
f 5//5 4//6 11//7 12//8
f 3//9 2//10 9//11 10//12
f 22//13 7//1 14//4
f 6//2 5//5 12//8 13//3
f 4//6 3//9 10//12 11//7
f 2//10 1//14 8//15 9//11
f 22//13 14//4 21//16
f 13//3 12//8 19//17 20//18
f 11//7 10//12 17//19 18//20
f 9//11 8//15 15//21 16//22
f 14//4 13//3 20//18 21//16
f 12//8 11//7 18//20 19//17
f 10//12 9//11 16//22 17//19
f 18//20 17//19 25//23 26//24
f 16//22 15//21 23//25 24//26
f 21//16 20//18 28//27 29//28
f 19//17 18//20 26//24 27//29
f 17//19 16//22 24//26 25//23
f 22//13 21//16 29//28
f 20//18 19//17 27//29 28//27
f 29//28 28//27 35//30 36//31
f 27//29 26//24 33//32 34//33
f 25//23 24//26 31//34 32//35
f 22//13 29//28 36//31
f 28//27 27//29 34//33 35//30
f 26//24 25//23 32//35 33//32
f 24//26 23//25 30//36 31//34
f 32//35 31//34 38//37 39//38
f 22//13 36//31 43//39
f 35//30 34//33 41//40 42//41
f 33//32 32//35 39//38 40//42
f 31//34 30//36 37//43 38//37
f 36//31 35//30 42//41 43//39
f 34//33 33//32 40//42 41//40
f 22//13 43//39 51//44
f 42//41 41//40 49//45 50//46
f 40//42 39//38 47//47 48//48
f 38//37 37//43 45//49 46//50
f 43//39 42//41 50//46 51//44
f 41//40 40//42 48//48 49//45
f 39//38 38//37 46//50 47//47
f 46//50 45//49 52//51 53//52
f 51//44 50//46 57//53 58//54
f 49//45 48//48 55//55 56//56
f 47//47 46//50 53//52 54//57
f 22//13 51//44 58//54
f 50//46 49//45 56//56 57//53
f 48//48 47//47 54//57 55//55
f 58//54 57//53 64//58 65//59
f 56//56 55//55 62//60 63//61
f 54//57 53//52 60//62 61//63
f 22//13 58//54 65//59
f 57//53 56//56 63//61 64//58
f 55//55 54//57 61//63 62//60
f 53//52 52//51 59//64 60//62
f 22//13 65//59 72//65
f 64//58 63//61 70//66 71//67
f 62//60 61//63 68//68 69//69
f 60//62 59//64 66//70 67//71
f 65//59 64//58 71//67 72//65
f 63//61 62//60 69//69 70//66
f 61//63 60//62 67//71 68//68
f 71//67 70//66 77//72 78//73
f 69//69 68//68 75//74 76//75
f 67//71 66//70 73//76 74//77
f 72//65 71//67 78//73 79//78
f 70//66 69//69 76//75 77//72
f 68//68 67//71 74//77 75//74
f 22//13 72//65 79//78
f 79//78 78//73 85//79 86//80
f 77//72 76//75 83//81 84//82
f 75//74 74//77 81//83 82//84
f 22//13 79//78 86//80
f 78//73 77//72 84//82 85//79
f 76//75 75//74 82//84 83//81
f 74//77 73//76 80//85 81//83
f 84//82 83//81 90//86 91//87
f 82//84 81//83 88//88 89//89
f 22//13 86//80 93//90
f 85//79 84//82 91//87 92//91
f 83//81 82//84 89//89 90//86
f 81//83 80//85 87//92 88//88
f 86//80 85//79 92//91 93//90
f 22//13 93//90 100//93
f 92//91 91//87 98//94 99//95
f 90//86 89//89 96//96 97//97
f 88//88 87//92 94//98 95//99
f 93//90 92//91 99//95 100//93
f 91//87 90//86 97//97 98//94
f 89//89 88//88 95//99 96//96
f 97//97 96//96 103//100 104//101
f 95//99 94//98 101//102 102//103
f 100//93 99//95 106//104 107//105
f 98//94 97//97 104//101 105//106
f 96//96 95//99 102//103 103//100
f 22//13 100//93 107//105
f 99//95 98//94 105//106 106//104
f 107//105 106//104 113//107 114//108
f 105//106 104//101 111//109 112//110
f 103//100 102//103 109//111 110//112
f 22//13 107//105 114//108
f 106//104 105//106 112//110 113//107
f 104//101 103//100 110//112 111//109
f 102//103 101//102 108//113 109//111
f 110//112 109//111 2//10 3//9
f 22//13 114//108 7//1
f 113//107 112//110 5//5 6//2
f 111//109 110//112 3//9 4//6
f 109//111 108//113 1//14 2//10
f 114//108 113//107 6//2 7//1
f 112//110 111//109 4//6 5//5
usemtl eyes_pupil
f 1//14 44//114 8//15
f 8//15 44//114 15//21
f 15//21 44//114 23//25
f 23//25 44//114 30//36
f 30//36 44//114 37//43
f 37//43 44//114 45//49
f 45//49 44//114 52//51
f 52//51 44//114 59//64
f 59//64 44//114 66//70
f 66//70 44//114 73//76
f 73//76 44//114 80//85
f 80//85 44//114 87//92
f 87//92 44//114 94//98
f 94//98 44//114 101//102
f 101//102 44//114 108//113
f 108//113 44//114 1//14
