# Blender v2.79 (sub 0) OBJ File: 'chick_base_mesh_BI.blend'
# www.blender.org
mtllib chick_eye.mtl
o eye
v 0.012768 0.124306 0.042825
v 0.012160 0.125275 0.042604
v 0.011250 0.125922 0.042273
v 0.010176 0.126149 0.041882
v 0.009102 0.125922 0.041491
v 0.008192 0.125275 0.041160
v 0.007584 0.124306 0.040938
v 0.012918 0.124219 0.042414
v 0.012436 0.125114 0.041845
v 0.011611 0.125712 0.041281
v 0.010567 0.125922 0.040808
v 0.009463 0.125712 0.040499
v 0.008468 0.125114 0.040400
v 0.007733 0.124219 0.040527
v 0.013045 0.123971 0.042066
v 0.012671 0.124656 0.041201
v 0.011917 0.125114 0.040440
v 0.010898 0.125275 0.039898
v 0.009769 0.125114 0.039658
v 0.008703 0.124656 0.039757
v 0.007860 0.123971 0.040179
v 0.007370 0.123163 0.040860
v 0.013129 0.123600 0.041833
v 0.012827 0.123971 0.040771
v 0.012122 0.124219 0.039878
v 0.011120 0.124306 0.039289
v 0.009974 0.124219 0.039096
v 0.008859 0.123971 0.039327
v 0.007945 0.123600 0.039946
v 0.013159 0.123163 0.041751
v 0.012882 0.123163 0.040620
v 0.012193 0.123163 0.039680
v 0.011197 0.123163 0.039076
v 0.010046 0.123163 0.038899
v 0.008914 0.123163 0.039176
v 0.007975 0.123163 0.039864
v 0.013129 0.122726 0.041833
v 0.012827 0.122355 0.040771
v 0.012122 0.122108 0.039878
v 0.011120 0.122021 0.039289
v 0.009974 0.122108 0.039096
v 0.008859 0.122355 0.039327
v 0.007945 0.122726 0.039946
v 0.012982 0.123163 0.042903
v 0.013045 0.122355 0.042066
v 0.012671 0.121670 0.041201
v 0.011917 0.121213 0.040440
v 0.010898 0.121052 0.039898
v 0.009769 0.121213 0.039658
v 0.008703 0.121670 0.039757
v 0.007860 0.122355 0.040179
v 0.012918 0.122108 0.042414
v 0.012436 0.121213 0.041845
v 0.011611 0.120615 0.041281
v 0.010567 0.120405 0.040808
v 0.009463 0.120615 0.040499
v 0.008468 0.121213 0.040400
v 0.007733 0.122108 0.040527
v 0.012768 0.122021 0.042825
v 0.012160 0.121052 0.042604
v 0.011250 0.120405 0.042273
v 0.010176 0.120177 0.041882
v 0.009102 0.120405 0.041491
v 0.008192 0.121052 0.041160
v 0.007584 0.122021 0.040938
v 0.012619 0.122108 0.043236
v 0.011884 0.121213 0.043363
v 0.010889 0.120615 0.043265
v 0.009785 0.120405 0.042955
v 0.008741 0.120615 0.042483
v 0.007916 0.121213 0.041919
v 0.007434 0.122108 0.041349
v 0.012492 0.122355 0.043585
v 0.011649 0.121670 0.044007
v 0.010583 0.121213 0.044106
v 0.009454 0.121052 0.043866
v 0.008435 0.121213 0.043324
v 0.007681 0.121670 0.042563
v 0.007307 0.122355 0.041697
v 0.012407 0.122726 0.043817
v 0.011493 0.122355 0.044437
v 0.010378 0.122108 0.044668
v 0.009233 0.122021 0.044474
v 0.008231 0.122108 0.043886
v 0.007525 0.122355 0.042993
v 0.007223 0.122726 0.041930
v 0.012378 0.123163 0.043899
v 0.011438 0.123163 0.044588
v 0.010306 0.123163 0.044865
v 0.009155 0.123163 0.044688
v 0.008159 0.123163 0.044083
v 0.007470 0.123163 0.043144
v 0.007193 0.123163 0.042012
v 0.012407 0.123600 0.043817
v 0.011493 0.123971 0.044437
v 0.010378 0.124219 0.044668
v 0.009233 0.124306 0.044474
v 0.008231 0.124219 0.043886
v 0.007525 0.123971 0.042993
v 0.007223 0.123600 0.041930
v 0.012492 0.123971 0.043585
v 0.011649 0.124656 0.044007
v 0.010583 0.125114 0.044106
v 0.009454 0.125275 0.043866
v 0.008435 0.125114 0.043324
v 0.007681 0.124656 0.042563
v 0.007307 0.123971 0.041697
v 0.012619 0.124219 0.043236
v 0.011884 0.125114 0.043363
v 0.010889 0.125712 0.043265
v 0.009785 0.125922 0.042955
v 0.008741 0.125712 0.042483
v 0.007916 0.125114 0.041919
v 0.007434 0.124219 0.041349
vn 0.8600 0.4031 0.3130
vn 0.9397 0.0000 0.3420
vn 0.9127 0.3724 0.1680
vn -0.9397 0.0000 -0.3420
vn -0.8600 0.4031 -0.3130
vn -0.8072 0.3724 -0.4579
vn -0.6532 0.7188 -0.2377
vn -0.3518 0.9273 -0.1280
vn -0.2304 0.8567 -0.4615
vn -0.5591 0.6641 -0.4963
vn 0.0000 1.0000 0.0000
vn 0.3518 0.9273 0.1280
vn 0.4731 0.8567 -0.2054
vn 0.1309 0.9239 -0.3596
vn 0.6532 0.7188 0.2377
vn 0.7473 0.6641 -0.0207
vn 0.5760 0.6557 -0.4881
vn 0.2418 0.7071 -0.6644
vn 0.9574 0.2850 0.0451
vn 0.8271 0.5083 -0.2399
vn -0.4794 0.5083 -0.7154
vn -0.7625 0.2850 -0.5808
vn -0.1275 0.6557 -0.7442
vn -0.4261 0.2751 -0.8618
vn -0.7326 0.1542 -0.6629
vn 0.3160 0.3827 -0.8682
vn -0.0588 0.3548 -0.9330
vn 0.8804 0.2751 -0.3863
vn 0.6448 0.3548 -0.6770
vn 0.9873 0.1542 -0.0369
vn 0.8991 0.0000 -0.4377
vn 0.6689 0.0000 -0.7433
vn 0.9978 0.0000 -0.0658
vn -0.7221 0.0000 -0.6918
vn -0.0346 0.0000 -0.9994
vn -0.4074 0.0000 -0.9132
vn 0.3420 0.0000 -0.9397
vn -0.7326 -0.1542 -0.6629
vn -0.0588 -0.3548 -0.9330
vn -0.4261 -0.2751 -0.8618
vn 0.6448 -0.3548 -0.6770
vn 0.3160 -0.3827 -0.8682
vn 0.9873 -0.1542 -0.0369
vn 0.8804 -0.2751 -0.3863
vn 0.9574 -0.2850 0.0451
vn 0.8271 -0.5083 -0.2399
vn -0.4794 -0.5083 -0.7154
vn -0.7625 -0.2850 -0.5808
vn 0.2418 -0.7071 -0.6644
vn -0.1275 -0.6557 -0.7442
vn 0.5760 -0.6557 -0.4881
vn -0.5591 -0.6641 -0.4962
vn -0.8072 -0.3724 -0.4579
vn 0.1309 -0.9239 -0.3596
vn -0.2304 -0.8567 -0.4615
vn 0.7473 -0.6641 -0.0207
vn 0.4731 -0.8567 -0.2054
vn 0.9127 -0.3724 0.1680
vn 0.8600 -0.4031 0.3130
vn -0.8600 -0.4031 -0.3130
vn -0.3518 -0.9273 -0.1280
vn -0.6532 -0.7188 -0.2377
vn 0.3518 -0.9273 0.1280
vn 0.0000 -1.0000 0.0000
vn 0.6532 -0.7188 0.2377
vn -0.4731 -0.8567 0.2054
vn -0.7473 -0.6641 0.0207
vn 0.2304 -0.8567 0.4615
vn -0.1309 -0.9239 0.3596
vn 0.8072 -0.3724 0.4579
vn 0.5591 -0.6641 0.4962
vn -0.9127 -0.3724 -0.1680
vn -0.8271 -0.5083 0.2399
vn -0.9574 -0.2850 -0.0451
vn -0.2418 -0.7071 0.6644
vn -0.5760 -0.6557 0.4881
vn 0.4794 -0.5083 0.7154
vn 0.1275 -0.6557 0.7442
vn 0.7625 -0.2850 0.5808
vn -0.3160 -0.3827 0.8682
vn -0.6448 -0.3548 0.6770
vn 0.4261 -0.2751 0.8618
vn 0.0588 -0.3548 0.9330
vn 0.7326 -0.1542 0.6630
vn -0.9873 -0.1542 0.0369
vn -0.8804 -0.2751 0.3863
vn -0.9978 0.0000 0.0658
vn -0.6689 0.0000 0.7433
vn -0.8991 0.0000 0.4377
vn 0.0346 0.0000 0.9994
vn -0.3420 0.0000 0.9397
vn 0.7221 0.0000 0.6918
vn 0.4074 0.0000 0.9132
vn 0.0588 0.3548 0.9330
vn -0.3160 0.3827 0.8682
vn 0.7326 0.1542 0.6629
vn 0.4261 0.2751 0.8618
vn -0.8804 0.2751 0.3863
vn -0.9873 0.1542 0.0369
vn -0.6448 0.3548 0.6770
vn -0.8271 0.5083 0.2399
vn -0.9574 0.2850 -0.0451
vn -0.2418 0.7071 0.6644
vn -0.5760 0.6557 0.4881
vn 0.4794 0.5083 0.7154
vn 0.1275 0.6557 0.7442
vn 0.7625 0.2850 0.5808
vn 0.5591 0.6641 0.4962
vn 0.2304 0.8567 0.4615
vn 0.8072 0.3724 0.4579
vn -0.9127 0.3724 -0.1680
vn -0.4731 0.8567 0.2054
vn -0.7473 0.6641 0.0207
vn -0.1309 0.9239 0.3596
usemtl eyes
s 1
f 1//1 44//2 8//3
f 22//4 7//5 14//6
f 6//7 5//8 12//9 13//10
f 4//11 3//12 10//13 11//14
f 2//15 1//1 8//3 9//16
f 7//5 6//7 13//10 14//6
f 5//8 4//11 11//14 12//9
f 3//12 2//15 9//16 10//13
f 11//14 10//13 17//17 18//18
f 9//16 8//3 15//19 16//20
f 14//6 13//10 20//21 21//22
f 12//9 11//14 18//18 19//23
f 10//13 9//16 16//20 17//17
f 8//3 44//2 15//19
f 22//4 14//6 21//22
f 13//10 12//9 19//23 20//21
f 21//22 20//21 28//24 29//25
f 19//23 18//18 26//26 27//27
f 17//17 16//20 24//28 25//29
f 15//19 44//2 23//30
f 22//4 21//22 29//25
f 20//21 19//23 27//27 28//24
f 18//18 17//17 25//29 26//26
f 16//20 15//19 23//30 24//28
f 25//29 24//28 31//31 32//32
f 23//30 44//2 30//33
f 22//4 29//25 36//34
f 28//24 27//27 34//35 35//36
f 26//26 25//29 32//32 33//37
f 24//28 23//30 30//33 31//31
f 29//25 28//24 35//36 36//34
f 27//27 26//26 33//37 34//35
f 22//4 36//34 43//38
f 35//36 34//35 41//39 42//40
f 33//37 32//32 39//41 40//42
f 31//31 30//33 37//43 38//44
f 36//34 35//36 42//40 43//38
f 34//35 33//37 40//42 41//39
f 32//32 31//31 38//44 39//41
f 30//33 44//2 37//43
f 38//44 37//43 45//45 46//46
f 43//38 42//40 50//47 51//48
f 41//39 40//42 48//49 49//50
f 39//41 38//44 46//46 47//51
f 37//43 44//2 45//45
f 22//4 43//38 51//48
f 42//40 41//39 49//50 50//47
f 40//42 39//41 47//51 48//49
f 51//48 50//47 57//52 58//53
f 49//50 48//49 55//54 56//55
f 47//51 46//46 53//56 54//57
f 45//45 44//2 52//58
f 22//4 51//48 58//53
f 50//47 49//50 56//55 57//52
f 48//49 47//51 54//57 55//54
f 46//46 45//45 52//58 53//56
f 52//58 44//2 59//59
f 22//4 58//53 65//60
f 57//52 56//55 63//61 64//62
f 55//54 54//57 61//63 62//64
f 53//56 52//58 59//59 60//65
f 58//53 57//52 64//62 65//60
f 56//55 55//54 62//64 63//61
f 54//57 53//56 60//65 61//63
f 64//62 63//61 70//66 71//67
f 62//64 61//63 68//68 69//69
f 60//65 59//59 66//70 67//71
f 65//60 64//62 71//67 72//72
f 63//61 62//64 69//69 70//66
f 61//63 60//65 67//71 68//68
f 59//59 44//2 66//70
f 22//4 65//60 72//72
f 72//72 71//67 78//73 79//74
f 70//66 69//69 76//75 77//76
f 68//68 67//71 74//77 75//78
f 66//70 44//2 73//79
f 22//4 72//72 79//74
f 71//67 70//66 77//76 78//73
f 69//69 68//68 75//78 76//75
f 67//71 66//70 73//79 74//77
f 77//76 76//75 83//80 84//81
f 75//78 74//77 81//82 82//83
f 73//79 44//2 80//84
f 22//4 79//74 86//85
f 78//73 77//76 84//81 85//86
f 76//75 75//78 82//83 83//80
f 74//77 73//79 80//84 81//82
f 79//74 78//73 85//86 86//85
f 22//4 86//85 93//87
f 85//86 84//81 91//88 92//89
f 83//80 82//83 89//90 90//91
f 81//82 80//84 87//92 88//93
f 86//85 85//86 92//89 93//87
f 84//81 83//80 90//91 91//88
f 82//83 81//82 88//93 89//90
f 80//84 44//2 87//92
f 90//91 89//90 96//94 97//95
f 88//93 87//92 94//96 95//97
f 93//87 92//89 99//98 100//99
f 91//88 90//91 97//95 98//100
f 89//90 88//93 95//97 96//94
f 87//92 44//2 94//96
f 22//4 93//87 100//99
f 92//89 91//88 98//100 99//98
f 100//99 99//98 106//101 107//102
f 98//100 97//95 104//103 105//104
f 96//94 95//97 102//105 103//106
f 94//96 44//2 101//107
f 22//4 100//99 107//102
f 99//98 98//100 105//104 106//101
f 97//95 96//94 103//106 104//103
f 95//97 94//96 101//107 102//105
f 103//106 102//105 109//108 110//109
f 101//107 44//2 108//110
f 22//4 107//102 114//111
f 106//101 105//104 112//112 113//113
f 104//103 103//106 110//109 111//114
f 102//105 101//107 108//110 109//108
f 107//102 106//101 113//113 114//111
f 105//104 104//103 111//114 112//112
f 22//4 114//111 7//5
f 113//113 112//112 5//8 6//7
f 111//114 110//109 3//12 4//11
f 109//108 108//110 1//1 2//15
f 114//111 113//113 6//7 7//5
f 112//112 111//114 4//11 5//8
f 110//109 109//108 2//15 3//12
f 108//110 44//2 1//1
