# Blender v2.79 (sub 0) OBJ File: 'chinchilla_base_mesh_BI.blend'
# www.blender.org
mtllib chinchilla_eye.mtl
o eye
v 0.021737 0.100442 0.109769
v 0.020473 0.102751 0.108884
v 0.018582 0.104294 0.107559
v 0.016351 0.104836 0.105997
v 0.014119 0.104294 0.104434
v 0.012228 0.102751 0.103110
v 0.010964 0.100442 0.102225
v 0.022335 0.100235 0.108915
v 0.021578 0.102368 0.107306
v 0.020025 0.103794 0.105498
v 0.017913 0.104294 0.103765
v 0.015563 0.103794 0.102373
v 0.013332 0.102368 0.101532
v 0.011562 0.100235 0.101371
v 0.022842 0.099644 0.108191
v 0.022515 0.101277 0.105968
v 0.021249 0.102368 0.103750
v 0.019237 0.102751 0.101874
v 0.016786 0.102368 0.100625
v 0.014269 0.101277 0.100194
v 0.012068 0.099644 0.100647
v 0.010520 0.097718 0.101914
v 0.023181 0.098760 0.107707
v 0.023141 0.099644 0.105074
v 0.022067 0.100235 0.102582
v 0.020122 0.100442 0.100610
v 0.017604 0.100235 0.099457
v 0.014895 0.099644 0.099301
v 0.012407 0.098760 0.100163
v 0.023300 0.097718 0.107537
v 0.023360 0.097718 0.104761
v 0.022354 0.097718 0.102172
v 0.020433 0.097718 0.100166
v 0.017891 0.097718 0.099047
v 0.015114 0.097718 0.098987
v 0.012526 0.097718 0.099993
v 0.023181 0.096675 0.107707
v 0.023141 0.095792 0.105074
v 0.022067 0.095201 0.102582
v 0.020122 0.094994 0.100610
v 0.017604 0.095201 0.099457
v 0.014895 0.095792 0.099301
v 0.012407 0.096675 0.100163
v 0.022181 0.097718 0.110079
v 0.022842 0.095792 0.108191
v 0.022515 0.094159 0.105968
v 0.021249 0.093068 0.103750
v 0.019237 0.092685 0.101874
v 0.016786 0.093068 0.100625
v 0.014269 0.094159 0.100194
v 0.012068 0.095792 0.100647
v 0.022335 0.095201 0.108915
v 0.021578 0.093068 0.107306
v 0.020025 0.091642 0.105498
v 0.017913 0.091142 0.103765
v 0.015563 0.091642 0.102373
v 0.013332 0.093068 0.101532
v 0.011562 0.095201 0.101371
v 0.021737 0.094994 0.109769
v 0.020473 0.092685 0.108884
v 0.018582 0.091142 0.107559
v 0.016351 0.090600 0.105997
v 0.014119 0.091142 0.104434
v 0.012228 0.092685 0.103110
v 0.010964 0.094994 0.102225
v 0.021140 0.095201 0.110623
v 0.019369 0.093068 0.110461
v 0.017138 0.091642 0.109621
v 0.014788 0.091142 0.108228
v 0.012676 0.091642 0.106496
v 0.011123 0.093068 0.104688
v 0.010366 0.095201 0.103079
v 0.020633 0.095792 0.111346
v 0.018432 0.094159 0.111799
v 0.015915 0.093068 0.111368
v 0.013464 0.092685 0.110120
v 0.011452 0.093068 0.108243
v 0.010186 0.094159 0.106025
v 0.009859 0.095792 0.103802
v 0.020294 0.096675 0.111830
v 0.017806 0.095792 0.112693
v 0.015097 0.095201 0.112536
v 0.012579 0.094994 0.111384
v 0.010634 0.095201 0.109411
v 0.009560 0.095792 0.106919
v 0.009520 0.096675 0.104286
v 0.020175 0.097718 0.112000
v 0.017587 0.097718 0.113007
v 0.014810 0.097718 0.112946
v 0.012268 0.097718 0.111827
v 0.010347 0.097718 0.109821
v 0.009341 0.097718 0.107233
v 0.009401 0.097718 0.104456
v 0.020294 0.098760 0.111830
v 0.017806 0.099644 0.112693
v 0.015097 0.100235 0.112536
v 0.012579 0.100442 0.111384
v 0.010634 0.100235 0.109411
v 0.009560 0.099644 0.106919
v 0.009520 0.098760 0.104286
v 0.020633 0.099644 0.111346
v 0.018432 0.101277 0.111799
v 0.015915 0.102368 0.111368
v 0.013464 0.102751 0.110120
v 0.011452 0.102368 0.108243
v 0.010186 0.101277 0.106025
v 0.009859 0.099644 0.103802
v 0.021140 0.100235 0.110623
v 0.019369 0.102368 0.110461
v 0.017138 0.103794 0.109621
v 0.014788 0.104294 0.108228
v 0.012676 0.103794 0.106496
v 0.011123 0.102368 0.104688
v 0.010366 0.100235 0.103079
vn 0.5694 0.7188 0.3987
vn 0.7496 0.4031 0.5249
vn 0.8381 0.3724 0.3985
vn 0.7272 0.6641 0.1734
vn -0.7496 0.4031 -0.5249
vn -0.5694 0.7188 -0.3987
vn -0.4116 0.6641 -0.6240
vn -0.6612 0.3724 -0.6513
vn -0.3066 0.9273 -0.2147
vn 0.0000 1.0000 0.0000
vn 0.2195 0.9239 -0.3135
vn -0.1031 0.8567 -0.5054
vn 0.3066 0.9273 0.2147
vn 0.5102 0.8567 -0.0759
vn 0.8191 0.0000 0.5736
vn -0.8191 0.0000 -0.5736
vn 0.4056 0.7071 -0.5792
vn 0.0694 0.6557 -0.7518
vn 0.8610 0.5083 -0.0176
vn 0.6827 0.6557 -0.3224
vn 0.9131 0.2850 0.2914
vn -0.5861 0.2850 -0.7584
vn -0.2779 0.5083 -0.8151
vn -0.5360 0.1542 -0.8300
vn 0.1847 0.3548 -0.9165
vn -0.1885 0.2751 -0.9427
vn 0.7980 0.3548 -0.4870
vn 0.5299 0.3827 -0.7568
vn 0.9633 0.1542 0.2198
vn 0.9503 0.2751 -0.1453
vn 0.8385 0.0000 -0.5448
vn 0.5736 0.0000 -0.8191
vn 0.9808 0.0000 0.1947
vn 0.9817 0.0000 -0.1901
vn -0.1571 0.0000 -0.9876
vn -0.5184 0.0000 -0.8551
vn 0.2252 0.0000 -0.9743
vn -0.1885 -0.2751 -0.9427
vn -0.5360 -0.1542 -0.8300
vn 0.5299 -0.3827 -0.7568
vn 0.1847 -0.3548 -0.9165
vn 0.9503 -0.2751 -0.1453
vn 0.7980 -0.3548 -0.4870
vn 0.9633 -0.1542 0.2198
vn 0.8610 -0.5083 -0.0176
vn 0.6827 -0.6557 -0.3224
vn 0.9131 -0.2850 0.2914
vn -0.5861 -0.2850 -0.7584
vn 0.0694 -0.6557 -0.7518
vn -0.2779 -0.5083 -0.8151
vn 0.4056 -0.7071 -0.5792
vn -0.6612 -0.3724 -0.6513
vn -0.1031 -0.8567 -0.5054
vn -0.4116 -0.6641 -0.6240
vn 0.5102 -0.8567 -0.0759
vn 0.2195 -0.9239 -0.3135
vn 0.8381 -0.3724 0.3985
vn 0.7272 -0.6641 0.1734
vn 0.7496 -0.4031 0.5249
vn 0.5694 -0.7188 0.3987
vn -0.5694 -0.7188 -0.3987
vn -0.7496 -0.4031 -0.5249
vn 0.0000 -1.0000 0.0000
vn -0.3066 -0.9273 -0.2147
vn 0.3066 -0.9273 0.2147
vn -0.7272 -0.6641 -0.1734
vn -0.8381 -0.3724 -0.3985
vn -0.2195 -0.9239 0.3135
vn -0.5102 -0.8567 0.0759
vn 0.4116 -0.6641 0.6240
vn 0.1031 -0.8567 0.5054
vn 0.6612 -0.3724 0.6513
vn 0.5861 -0.2850 0.7584
vn -0.9131 -0.2850 -0.2914
vn -0.6827 -0.6557 0.3224
vn -0.8610 -0.5083 0.0176
vn -0.0694 -0.6557 0.7518
vn -0.4056 -0.7071 0.5792
vn 0.2779 -0.5083 0.8151
vn -0.7980 -0.3548 0.4870
vn -0.9503 -0.2751 0.1453
vn -0.1847 -0.3548 0.9165
vn -0.5299 -0.3827 0.7568
vn 0.5360 -0.1542 0.8300
vn 0.1885 -0.2751 0.9427
vn -0.9633 -0.1542 -0.2198
vn -0.9817 0.0000 0.1901
vn -0.9808 0.0000 -0.1947
vn -0.5736 0.0000 0.8191
vn -0.8385 0.0000 0.5448
vn 0.1571 0.0000 0.9876
vn -0.2252 0.0000 0.9743
vn 0.5184 0.0000 0.8551
vn -0.5299 0.3827 0.7568
vn -0.7980 0.3548 0.4870
vn 0.1885 0.2751 0.9427
vn -0.1847 0.3548 0.9165
vn 0.5360 0.1542 0.8300
vn -0.9633 0.1542 -0.2198
vn -0.9503 0.2751 0.1453
vn -0.9131 0.2850 -0.2914
vn -0.6827 0.6557 0.3224
vn -0.8610 0.5083 0.0176
vn -0.0694 0.6557 0.7518
vn -0.4056 0.7071 0.5792
vn 0.5861 0.2850 0.7584
vn 0.2779 0.5083 0.8151
vn 0.1031 0.8567 0.5054
vn -0.2195 0.9239 0.3135
vn 0.6612 0.3724 0.6513
vn 0.4116 0.6641 0.6240
vn -0.7272 0.6641 -0.1734
vn -0.8381 0.3724 -0.3985
vn -0.5102 0.8567 0.0759
usemtl eyes
s 1
f 2//1 1//2 8//3 9//4
f 7//5 6//6 13//7 14//8
f 5//9 4//10 11//11 12//12
f 3//13 2//1 9//4 10//14
f 1//2 44//15 8//3
f 22//16 7//5 14//8
f 6//6 5//9 12//12 13//7
f 4//10 3//13 10//14 11//11
f 12//12 11//11 18//17 19//18
f 10//14 9//4 16//19 17//20
f 8//3 44//15 15//21
f 22//16 14//8 21//22
f 13//7 12//12 19//18 20//23
f 11//11 10//14 17//20 18//17
f 9//4 8//3 15//21 16//19
f 14//8 13//7 20//23 21//22
f 22//16 21//22 29//24
f 20//23 19//18 27//25 28//26
f 18//17 17//20 25//27 26//28
f 16//19 15//21 23//29 24//30
f 21//22 20//23 28//26 29//24
f 19//18 18//17 26//28 27//25
f 17//20 16//19 24//30 25//27
f 15//21 44//15 23//29
f 26//28 25//27 32//31 33//32
f 24//30 23//29 30//33 31//34
f 29//24 28//26 35//35 36//36
f 27//25 26//28 33//32 34//37
f 25//27 24//30 31//34 32//31
f 23//29 44//15 30//33
f 22//16 29//24 36//36
f 28//26 27//25 34//37 35//35
f 36//36 35//35 42//38 43//39
f 34//37 33//32 40//40 41//41
f 32//31 31//34 38//42 39//43
f 30//33 44//15 37//44
f 22//16 36//36 43//39
f 35//35 34//37 41//41 42//38
f 33//32 32//31 39//43 40//40
f 31//34 30//33 37//44 38//42
f 39//43 38//42 46//45 47//46
f 37//44 44//15 45//47
f 22//16 43//39 51//48
f 42//38 41//41 49//49 50//50
f 40//40 39//43 47//46 48//51
f 38//42 37//44 45//47 46//45
f 43//39 42//38 50//50 51//48
f 41//41 40//40 48//51 49//49
f 22//16 51//48 58//52
f 50//50 49//49 56//53 57//54
f 48//51 47//46 54//55 55//56
f 46//45 45//47 52//57 53//58
f 51//48 50//50 57//54 58//52
f 49//49 48//51 55//56 56//53
f 47//46 46//45 53//58 54//55
f 45//47 44//15 52//57
f 53//58 52//57 59//59 60//60
f 58//52 57//54 64//61 65//62
f 56//53 55//56 62//63 63//64
f 54//55 53//58 60//60 61//65
f 52//57 44//15 59//59
f 22//16 58//52 65//62
f 57//54 56//53 63//64 64//61
f 55//56 54//55 61//65 62//63
f 65//62 64//61 71//66 72//67
f 63//64 62//63 69//68 70//69
f 61//65 60//60 67//70 68//71
f 59//59 44//15 66//72
f 22//16 65//62 72//67
f 64//61 63//64 70//69 71//66
f 62//63 61//65 68//71 69//68
f 60//60 59//59 66//72 67//70
f 66//72 44//15 73//73
f 22//16 72//67 79//74
f 71//66 70//69 77//75 78//76
f 69//68 68//71 75//77 76//78
f 67//70 66//72 73//73 74//79
f 72//67 71//66 78//76 79//74
f 70//69 69//68 76//78 77//75
f 68//71 67//70 74//79 75//77
f 78//76 77//75 84//80 85//81
f 76//78 75//77 82//82 83//83
f 74//79 73//73 80//84 81//85
f 79//74 78//76 85//81 86//86
f 77//75 76//78 83//83 84//80
f 75//77 74//79 81//85 82//82
f 73//73 44//15 80//84
f 22//16 79//74 86//86
f 86//86 85//81 92//87 93//88
f 84//80 83//83 90//89 91//90
f 82//82 81//85 88//91 89//92
f 80//84 44//15 87//93
f 22//16 86//86 93//88
f 85//81 84//80 91//90 92//87
f 83//83 82//82 89//92 90//89
f 81//85 80//84 87//93 88//91
f 91//90 90//89 97//94 98//95
f 89//92 88//91 95//96 96//97
f 87//93 44//15 94//98
f 22//16 93//88 100//99
f 92//87 91//90 98//95 99//100
f 90//89 89//92 96//97 97//94
f 88//91 87//93 94//98 95//96
f 93//88 92//87 99//100 100//99
f 22//16 100//99 107//101
f 99//100 98//95 105//102 106//103
f 97//94 96//97 103//104 104//105
f 95//96 94//98 101//106 102//107
f 100//99 99//100 106//103 107//101
f 98//95 97//94 104//105 105//102
f 96//97 95//96 102//107 103//104
f 94//98 44//15 101//106
f 104//105 103//104 110//108 111//109
f 102//107 101//106 108//110 109//111
f 107//101 106//103 113//112 114//113
f 105//102 104//105 111//109 112//114
f 103//104 102//107 109//111 110//108
f 101//106 44//15 108//110
f 22//16 107//101 114//113
f 106//103 105//102 112//114 113//112
f 114//113 113//112 6//6 7//5
f 112//114 111//109 4//10 5//9
f 110//108 109//111 2//1 3//13
f 108//110 44//15 1//2
f 22//16 114//113 7//5
f 113//112 112//114 5//9 6//6
f 111//109 110//108 3//13 4//10
f 109//111 108//110 1//2 2//1
