# Blender v2.79 (sub 0) OBJ File: 'cockatiel_base_mesh_BI.blend'
# www.blender.org
mtllib cockatiel_feather_flight_secondary_026.mtl
o feather_flight_secondary_026
v 0.119855 0.086429 0.018429
v 0.115032 0.084589 0.018419
v 0.130914 0.060107 0.018309
v 0.124333 0.057597 0.018296
v 0.116923 0.086869 0.018120
v 0.128762 0.055868 0.017979
v 0.122889 0.082415 0.018411
v 0.126235 0.076959 0.018386
v 0.129184 0.071351 0.018361
v 0.131232 0.065400 0.018334
v 0.120567 0.061332 0.018312
v 0.118127 0.067133 0.018339
v 0.116587 0.073278 0.018367
v 0.115445 0.079575 0.018396
v 0.119167 0.080993 0.018093
v 0.121411 0.075117 0.018067
v 0.123655 0.069240 0.018040
v 0.125900 0.063364 0.018013
vn 0.0025 -0.0014 -1.0000
vn 0.0589 0.0211 -0.9980
vn 0.0710 0.0187 -0.9973
vn 0.0046 -0.0067 -0.9999
vn -0.0545 -0.0222 -0.9983
vn -0.0620 -0.0320 -0.9976
vn -0.0042 0.0161 -0.9998
vn 0.0862 0.0505 -0.9950
vn 0.0717 0.0414 -0.9966
vn -0.0031 0.0133 -0.9999
vn 0.0557 0.0308 -0.9980
vn -0.0015 0.0092 -0.9999
vn 0.0508 0.0252 -0.9984
vn -0.0002 0.0058 -1.0000
vn -0.0945 -0.0185 -0.9953
vn -0.0776 -0.0156 -0.9969
vn -0.0586 -0.0128 -0.9982
vn -0.0511 -0.0137 -0.9986
usemtl feather_004
s 1
f 18//1 10//2 3//3 6//4
f 11//5 18//1 6//4 4//6
f 5//7 1//8 7//9 15//10
f 15//10 7//9 8//11 16//12
f 16//12 8//11 9//13 17//14
f 17//14 9//13 10//2 18//1
f 2//15 5//7 15//10 14//16
f 14//16 15//10 16//12 13//17
f 13//17 16//12 17//14 12//18
f 12//18 17//14 18//1 11//5
