# Blender v2.79 (sub 0) OBJ File: 'cockatiel_base_mesh_BI.blend'
# www.blender.org
mtllib cockatiel_feather_tail_secondary_005.mtl
o feather_tail_secondary_005
v 0.002797 0.039327 -0.091974
v -0.002781 0.039327 -0.091974
v 0.000008 0.039927 -0.087160
v 0.004050 0.039327 -0.107923
v 0.004989 0.039327 -0.128686
v -0.004973 0.039327 -0.128686
v -0.004034 0.039327 -0.107923
v 0.000008 0.039927 -0.107923
v 0.000008 0.039927 -0.128686
v 0.004895 0.039327 -0.193581
v 0.005541 0.039327 -0.175863
v 0.005385 0.039327 -0.152275
v -0.005369 0.039327 -0.152275
v -0.005525 0.039327 -0.175863
v -0.004879 0.039327 -0.193581
v 0.000008 0.039927 -0.199452
v 0.000008 0.039927 -0.175863
v 0.000008 0.039927 -0.152275
vn 0.0000 1.0000 0.0061
vn 0.1770 0.9842 0.0060
vn 0.1535 0.9881 0.0044
vn 0.0000 1.0000 0.0045
vn 0.1232 0.9924 0.0019
vn 0.0000 1.0000 0.0020
vn -0.1770 0.9842 0.0060
vn -0.1535 0.9881 0.0044
vn -0.1232 0.9924 0.0019
vn 0.1121 0.9937 0.0006
vn 0.0000 1.0000 0.0006
vn 0.1122 0.9937 -0.0007
vn 0.0000 1.0000 -0.0007
vn 0.1153 0.9933 -0.0018
vn 0.0000 1.0000 -0.0018
vn -0.1121 0.9937 0.0006
vn -0.1122 0.9937 -0.0007
vn -0.1153 0.9933 -0.0018
usemtl feather_003
s 1
f 3//1 1//2 4//3 8//4
f 8//4 4//3 5//5 9//6
f 2//7 3//1 8//4 7//8
f 7//8 8//4 9//6 6//9
f 9//6 5//5 12//10 18//11
f 18//11 12//10 11//12 17//13
f 17//13 11//12 10//14 16//15
f 6//9 9//6 18//11 13//16
f 13//16 18//11 17//13 14//17
f 14//17 17//13 16//15 15//18
