# Blender v2.79 (sub 0) OBJ File: 'cockatiel_base_mesh_BI.blend'
# www.blender.org
mtllib cockatiel_feather_flight_secondary_016.mtl
o feather_flight_secondary_016
v 0.176504 0.089075 0.018972
v 0.175248 0.083707 0.018883
v 0.214107 0.081090 0.019297
v 0.212392 0.073765 0.019176
v 0.173971 0.086855 0.019223
v 0.217435 0.076430 0.019582
v 0.183174 0.089016 0.019048
v 0.191700 0.088267 0.019137
v 0.200122 0.087074 0.019218
v 0.208310 0.084880 0.019282
v 0.205531 0.073010 0.019086
v 0.197241 0.074768 0.019014
v 0.189186 0.077528 0.018959
v 0.181235 0.080730 0.018911
v 0.182210 0.084879 0.019291
v 0.190448 0.082903 0.019359
v 0.198687 0.080927 0.019427
v 0.206926 0.078951 0.019496
vn 0.0068 0.0148 -0.9998
vn -0.0060 -0.0411 -0.9991
vn -0.0129 -0.0494 -0.9987
vn 0.0028 0.0161 -0.9998
vn 0.0207 0.0705 -0.9973
vn 0.0183 0.0808 -0.9966
vn 0.0204 0.0113 -0.9997
vn -0.0008 -0.0770 -0.9970
vn 0.0003 -0.0615 -0.9981
vn 0.0183 0.0121 -0.9998
vn 0.0015 -0.0432 -0.9991
vn 0.0150 0.0129 -0.9998
vn 0.0004 -0.0363 -0.9993
vn 0.0124 0.0135 -0.9998
vn 0.0415 0.0998 -0.9941
vn 0.0355 0.0855 -0.9957
vn 0.0284 0.0689 -0.9972
vn 0.0243 0.0634 -0.9977
usemtl feather_004
s 1
f 18//1 10//2 3//3 6//4
f 11//5 18//1 6//4 4//6
f 5//7 1//8 7//9 15//10
f 15//10 7//9 8//11 16//12
f 16//12 8//11 9//13 17//14
f 17//14 9//13 10//2 18//1
f 2//15 5//7 15//10 14//16
f 14//16 15//10 16//12 13//17
f 13//17 16//12 17//14 12//18
f 12//18 17//14 18//1 11//5
