# Blender v2.79 (sub 0) OBJ File: 'cockatiel_base_mesh_BI.blend'
# www.blender.org
mtllib cockatiel_feather_flight_tertiary_058.mtl
o feather_flight_tertiary_058
v 0.146233 0.087415 0.018082
v 0.143773 0.085220 0.018082
v 0.155975 0.077397 0.018082
v 0.152618 0.074403 0.018082
v 0.144528 0.086850 0.017772
v 0.155336 0.074734 0.017772
v 0.148476 0.086247 0.018082
v 0.151086 0.084452 0.018082
v 0.153494 0.082476 0.018082
v 0.155443 0.080090 0.018082
v 0.150002 0.075238 0.018082
v 0.147854 0.077445 0.018082
v 0.146165 0.080062 0.018082
v 0.144678 0.082860 0.018082
v 0.146577 0.084554 0.017772
v 0.148626 0.082257 0.017772
v 0.150674 0.079960 0.017772
v 0.152723 0.077664 0.017772
vn 0.0088 -0.0099 -0.9999
vn 0.0774 0.0546 -0.9955
vn 0.0992 0.0555 -0.9935
vn 0.0165 -0.0185 -0.9997
vn -0.0631 -0.0707 -0.9955
vn -0.0664 -0.0923 -0.9935
vn -0.0167 0.0187 -0.9997
vn 0.0957 0.1185 -0.9883
vn 0.0804 0.0954 -0.9922
vn -0.0126 0.0142 -0.9998
vn 0.0647 0.0704 -0.9954
vn -0.0066 0.0074 -0.9999
vn 0.0620 0.0584 -0.9963
vn -0.0016 0.0019 -1.0000
vn -0.1286 -0.0816 -0.9883
vn -0.1039 -0.0690 -0.9922
vn -0.0773 -0.0563 -0.9954
vn -0.0651 -0.0549 -0.9963
usemtl feather_003
s 1
f 18//1 10//2 3//3 6//4
f 11//5 18//1 6//4 4//6
f 5//7 1//8 7//9 15//10
f 15//10 7//9 8//11 16//12
f 16//12 8//11 9//13 17//14
f 17//14 9//13 10//2 18//1
f 2//15 5//7 15//10 14//16
f 14//16 15//10 16//12 13//17
f 13//17 16//12 17//14 12//18
f 12//18 17//14 18//1 11//5
