# Blender v2.79 (sub 0) OBJ File: 'cockatiel_base_mesh_BI.blend'
# www.blender.org
mtllib cockatiel_feather_flight_primary_011.mtl
o feather_flight_primary_011
v 0.129177 0.085769 0.018522
v 0.123821 0.082921 0.018522
v 0.156420 0.036889 0.018522
v 0.149110 0.033002 0.018522
v 0.125157 0.086869 0.018831
v 0.155704 0.029419 0.018831
v 0.135081 0.078178 0.018522
v 0.142095 0.067939 0.018522
v 0.148668 0.057465 0.018522
v 0.154240 0.046460 0.018522
v 0.142395 0.040161 0.018522
v 0.136387 0.050935 0.018522
v 0.131379 0.062241 0.018522
v 0.126813 0.073781 0.018522
v 0.130947 0.075980 0.018831
v 0.136737 0.065090 0.018831
v 0.142527 0.054200 0.018831
v 0.148318 0.043310 0.018831
vn -0.0016 0.0029 -1.0000
vn -0.0475 -0.0218 -0.9986
vn -0.0564 -0.0230 -0.9981
vn -0.0029 0.0054 -1.0000
vn 0.0446 0.0272 -0.9986
vn 0.0506 0.0339 -0.9981
vn 0.0029 -0.0055 -1.0000
vn -0.0698 -0.0441 -0.9966
vn -0.0586 -0.0363 -0.9976
vn 0.0022 -0.0042 -1.0000
vn -0.0450 -0.0266 -0.9986
vn 0.0012 -0.0022 -1.0000
vn -0.0407 -0.0223 -0.9989
vn 0.0003 -0.0005 -1.0000
vn 0.0756 0.0331 -0.9966
vn 0.0629 0.0282 -0.9976
vn 0.0472 0.0224 -0.9986
vn 0.0412 0.0212 -0.9989
usemtl feather_005
s 1
f 18//1 10//2 3//3 6//4
f 11//5 18//1 6//4 4//6
f 5//7 1//8 7//9 15//10
f 15//10 7//9 8//11 16//12
f 16//12 8//11 9//13 17//14
f 17//14 9//13 10//2 18//1
f 2//15 5//7 15//10 14//16
f 14//16 15//10 16//12 13//17
f 13//17 16//12 17//14 12//18
f 12//18 17//14 18//1 11//5
