# Blender v2.79 (sub 0) OBJ File: 'cockatiel_base_mesh_BI.blend'
# www.blender.org
mtllib cockatiel_feather_flight_primary_015.mtl
o feather_flight_primary_015
v 0.165838 0.088382 0.018522
v 0.163315 0.082714 0.018522
v 0.224372 0.063559 0.018522
v 0.220929 0.055825 0.018522
v 0.161609 0.086869 0.018831
v 0.229147 0.056799 0.018831
v 0.176358 0.085544 0.018522
v 0.189737 0.081139 0.018522
v 0.202907 0.076267 0.018522
v 0.215607 0.070337 0.018522
v 0.210026 0.057803 0.018522
v 0.197122 0.063273 0.018522
v 0.184688 0.069800 0.018522
v 0.172463 0.076795 0.018522
v 0.174411 0.081170 0.018831
v 0.187213 0.075470 0.018831
v 0.200015 0.069770 0.018831
v 0.212817 0.064070 0.018831
vn -0.0027 0.0012 -1.0000
vn -0.0232 -0.0456 -0.9987
vn -0.0291 -0.0519 -0.9982
vn -0.0049 0.0022 -1.0000
vn 0.0183 0.0478 -0.9987
vn 0.0191 0.0563 -0.9982
vn 0.0050 -0.0022 -1.0000
vn -0.0277 -0.0758 -0.9967
vn -0.0237 -0.0632 -0.9977
vn 0.0038 -0.0017 -1.0000
vn -0.0188 -0.0475 -0.9987
vn 0.0020 -0.0009 -1.0000
vn -0.0179 -0.0417 -0.9990
vn 0.0005 -0.0002 -1.0000
vn 0.0378 0.0713 -0.9967
vn 0.0311 0.0599 -0.9977
vn 0.0227 0.0458 -0.9987
vn 0.0189 0.0412 -0.9990
usemtl feather_005
s 1
f 18//1 10//2 3//3 6//4
f 11//5 18//1 6//4 4//6
f 5//7 1//8 7//9 15//10
f 15//10 7//9 8//11 16//12
f 16//12 8//11 9//13 17//14
f 17//14 9//13 10//2 18//1
f 2//15 5//7 15//10 14//16
f 14//16 15//10 16//12 13//17
f 13//17 16//12 17//14 12//18
f 12//18 17//14 18//1 11//5
