# Blender v2.79 (sub 0) OBJ File: 'cockatiel_base_mesh_BI.blend'
# www.blender.org
mtllib cockatiel_feather_flight_secondary_019.mtl
o feather_flight_secondary_019
v 0.057003 0.085658 0.018430
v 0.052719 0.085658 0.018430
v 0.057784 0.061953 0.018430
v 0.051938 0.061953 0.018430
v 0.054861 0.086869 0.018120
v 0.054861 0.059301 0.018120
v 0.058167 0.081644 0.018430
v 0.059146 0.076418 0.018430
v 0.059772 0.071193 0.018430
v 0.059598 0.065967 0.018430
v 0.050124 0.065967 0.018430
v 0.049950 0.071193 0.018430
v 0.050576 0.076418 0.018430
v 0.051554 0.081644 0.018430
v 0.054861 0.081644 0.018120
v 0.054861 0.076418 0.018120
v 0.054861 0.071193 0.018120
v 0.054861 0.065967 0.018120
vn 0.0000 -0.0078 -0.9999
vn 0.0731 -0.0067 -0.9973
vn 0.0856 -0.0145 -0.9962
vn 0.0000 -0.0146 -0.9999
vn -0.0731 -0.0067 -0.9973
vn -0.0856 -0.0145 -0.9962
vn 0.0000 0.0147 -0.9999
vn 0.1162 0.0146 -0.9931
vn 0.0961 0.0106 -0.9953
vn 0.0000 0.0112 -0.9999
vn 0.0736 0.0056 -0.9973
vn 0.0000 0.0058 -1.0000
vn 0.0656 0.0014 -0.9978
vn 0.0000 0.0015 -1.0000
vn -0.1162 0.0146 -0.9931
vn -0.0961 0.0106 -0.9953
vn -0.0736 0.0056 -0.9973
vn -0.0656 0.0014 -0.9978
usemtl feather_004
s 1
f 18//1 10//2 3//3 6//4
f 11//5 18//1 6//4 4//6
f 5//7 1//8 7//9 15//10
f 15//10 7//9 8//11 16//12
f 16//12 8//11 9//13 17//14
f 17//14 9//13 10//2 18//1
f 2//15 5//7 15//10 14//16
f 14//16 15//10 16//12 13//17
f 13//17 16//12 17//14 12//18
f 12//18 17//14 18//1 11//5
