# Blender v2.79 (sub 0) OBJ File: 'cockatiel_base_mesh_BI.blend'
# www.blender.org
mtllib cockatiel_feather_flight_tertiary_016.mtl
o feather_flight_tertiary_016
v 0.103595 0.086530 0.019304
v 0.100640 0.085919 0.019314
v 0.106760 0.073969 0.019383
v 0.102726 0.073136 0.019396
v 0.101983 0.086870 0.019615
v 0.105036 0.072133 0.019709
v 0.104843 0.084550 0.019315
v 0.106097 0.081896 0.019331
v 0.107108 0.079192 0.019347
v 0.107567 0.076373 0.019365
v 0.101030 0.075024 0.019387
v 0.100332 0.077792 0.019369
v 0.100184 0.080675 0.019350
v 0.100281 0.083608 0.019330
v 0.102561 0.084076 0.019633
v 0.103140 0.081283 0.019650
v 0.103719 0.078489 0.019668
v 0.104298 0.075696 0.019686
vn -0.0047 0.0073 -0.9999
vn -0.1048 -0.0162 -0.9944
vn -0.1258 -0.0053 -0.9920
vn -0.0073 0.0194 -0.9998
vn 0.0965 0.0255 -0.9950
vn 0.1115 0.0439 -0.9928
vn 0.0038 -0.0332 -0.9994
vn -0.1567 -0.0660 -0.9854
vn -0.1299 -0.0526 -0.9901
vn 0.0024 -0.0268 -0.9996
vn -0.1015 -0.0378 -0.9941
vn 0.0004 -0.0172 -0.9998
vn -0.0923 -0.0280 -0.9953
vn -0.0012 -0.0094 -0.9999
vn 0.1642 0.0005 -0.9864
vn 0.1342 0.0020 -0.9909
vn 0.1021 0.0043 -0.9948
vn 0.0898 0.0096 -0.9959
usemtl feather_003
s 1
f 18//1 10//2 3//3 6//4
f 11//5 18//1 6//4 4//6
f 5//7 1//8 7//9 15//10
f 15//10 7//9 8//11 16//12
f 16//12 8//11 9//13 17//14
f 17//14 9//13 10//2 18//1
f 2//15 5//7 15//10 14//16
f 14//16 15//10 16//12 13//17
f 13//17 16//12 17//14 12//18
f 12//18 17//14 18//1 11//5
