# Blender v2.79 (sub 0) OBJ File: 'cockatiel_base_mesh_BI.blend'
# www.blender.org
mtllib cockatiel_feather_flight_tertiary_054.mtl
o feather_flight_tertiary_054
v 0.129284 0.086882 0.018092
v 0.126235 0.085610 0.018068
v 0.134947 0.074916 0.018046
v 0.130786 0.073179 0.018014
v 0.127497 0.086867 0.017772
v 0.133436 0.072680 0.017714
v 0.130978 0.085163 0.018090
v 0.132800 0.082764 0.018084
v 0.134371 0.080261 0.018076
v 0.135374 0.077520 0.018064
v 0.128630 0.074706 0.018013
v 0.127381 0.077343 0.018023
v 0.126700 0.080218 0.018037
v 0.126271 0.083198 0.018053
v 0.128622 0.084178 0.017761
v 0.129748 0.081489 0.017750
v 0.130874 0.078800 0.017739
v 0.132000 0.076111 0.017728
vn 0.0103 -0.0068 -0.9999
vn 0.0958 0.0320 -0.9949
vn 0.1171 0.0249 -0.9928
vn 0.0152 -0.0179 -0.9997
vn -0.0772 -0.0404 -0.9962
vn -0.0873 -0.0608 -0.9943
vn -0.0054 0.0305 -0.9995
vn 0.1331 0.0880 -0.9872
vn 0.1112 0.0707 -0.9913
vn -0.0028 0.0246 -0.9997
vn 0.0887 0.0520 -0.9947
vn 0.0009 0.0158 -0.9998
vn 0.0824 0.0412 -0.9957
vn 0.0040 0.0086 -0.9999
vn -0.1438 -0.0277 -0.9892
vn -0.1158 -0.0243 -0.9930
vn -0.0865 -0.0213 -0.9960
vn -0.0744 -0.0244 -0.9969
usemtl feather_003
s 1
f 18//1 10//2 3//3 6//4
f 11//5 18//1 6//4 4//6
f 5//7 1//8 7//9 15//10
f 15//10 7//9 8//11 16//12
f 16//12 8//11 9//13 17//14
f 17//14 9//13 10//2 18//1
f 2//15 5//7 15//10 14//16
f 14//16 15//10 16//12 13//17
f 13//17 16//12 17//14 12//18
f 12//18 17//14 18//1 11//5
