# Blender v2.79 (sub 0) OBJ File: 'cockatiel_base_mesh_BI.blend'
# www.blender.org
mtllib cockatiel_feather_flight_secondary_009.mtl
o feather_flight_secondary_009
v 0.111072 0.086116 0.018913
v 0.106023 0.084768 0.018917
v 0.119451 0.058431 0.018969
v 0.112561 0.056591 0.018974
v 0.108166 0.086869 0.019222
v 0.116841 0.054385 0.019287
v 0.113707 0.081753 0.018921
v 0.116505 0.075903 0.018933
v 0.118887 0.069943 0.018945
v 0.120326 0.063731 0.018957
v 0.109160 0.060750 0.018966
v 0.107311 0.066853 0.018954
v 0.106404 0.073207 0.018941
v 0.105913 0.079672 0.018927
v 0.109810 0.080711 0.019234
v 0.111454 0.074554 0.019247
v 0.113099 0.068397 0.019259
v 0.114743 0.062240 0.019272
vn -0.0019 0.0041 -1.0000
vn -0.0596 -0.0122 -0.9981
vn -0.0712 -0.0087 -0.9974
vn -0.0033 0.0095 -0.9999
vn 0.0563 0.0187 -0.9982
vn 0.0646 0.0276 -0.9975
vn 0.0029 -0.0137 -0.9999
vn -0.0894 -0.0383 -0.9952
vn -0.0742 -0.0308 -0.9967
vn 0.0021 -0.0109 -0.9999
vn -0.0573 -0.0221 -0.9981
vn 0.0010 -0.0067 -1.0000
vn -0.0519 -0.0171 -0.9985
vn 0.0001 -0.0032 -1.0000
vn 0.0952 0.0109 -0.9954
vn 0.0783 0.0099 -0.9969
vn 0.0593 0.0090 -0.9982
vn 0.0521 0.0107 -0.9986
usemtl feather_004
s 1
f 18//1 10//2 3//3 6//4
f 11//5 18//1 6//4 4//6
f 5//7 1//8 7//9 15//10
f 15//10 7//9 8//11 16//12
f 16//12 8//11 9//13 17//14
f 17//14 9//13 10//2 18//1
f 2//15 5//7 15//10 14//16
f 14//16 15//10 16//12 13//17
f 13//17 16//12 17//14 12//18
f 12//18 17//14 18//1 11//5
