# Blender v2.79 (sub 0) OBJ File: 'cockatiel_base_mesh_BI.blend'
# www.blender.org
mtllib cockatiel_feather_tail_secondary_001.mtl
o feather_tail_secondary_001
v 0.006857 0.038838 -0.086363
v 0.001980 0.038838 -0.088930
v 0.003034 0.039269 -0.085018
v 0.012538 0.038838 -0.094495
v 0.019328 0.038838 -0.105401
v 0.010617 0.038838 -0.109987
v 0.005469 0.038838 -0.098217
v 0.009003 0.039269 -0.096356
v 0.014973 0.039269 -0.107694
v 0.037903 0.038838 -0.140881
v 0.033374 0.038838 -0.130909
v 0.026456 0.038838 -0.118100
v 0.017052 0.038838 -0.123051
v 0.023698 0.038838 -0.136003
v 0.029356 0.038838 -0.145381
v 0.035317 0.039269 -0.146337
v 0.028536 0.039269 -0.133456
v 0.021754 0.039269 -0.120575
vn -0.0033 1.0000 0.0063
vn 0.1116 0.9915 0.0668
vn 0.0968 0.9937 0.0568
vn -0.0025 1.0000 0.0047
vn 0.0786 0.9959 0.0439
vn -0.0011 1.0000 0.0020
vn -0.1183 0.9915 -0.0542
vn -0.1016 0.9937 -0.0476
vn -0.0807 0.9959 -0.0399
vn 0.0721 0.9966 0.0388
vn -0.0003 1.0000 0.0007
vn 0.0729 0.9966 0.0375
vn 0.0004 1.0000 -0.0007
vn 0.0755 0.9964 0.0374
vn 0.0010 1.0000 -0.0019
vn -0.0728 0.9966 -0.0374
vn -0.0722 0.9966 -0.0389
vn -0.0736 0.9964 -0.0411
usemtl feather_003
s 1
f 3//1 1//2 4//3 8//4
f 8//4 4//3 5//5 9//6
f 2//7 3//1 8//4 7//8
f 7//8 8//4 9//6 6//9
f 9//6 5//5 12//10 18//11
f 18//11 12//10 11//12 17//13
f 17//13 11//12 10//14 16//15
f 6//9 9//6 18//11 13//16
f 13//16 18//11 17//13 14//17
f 14//17 17//13 16//15 15//18
