# Blender v2.79 (sub 0) OBJ File: 'cockatiel_base_mesh_BI.blend'
# www.blender.org
mtllib cockatiel_feather_flight_tertiary_025.mtl
o feather_flight_tertiary_025
v 0.141681 0.086927 0.019310
v 0.139499 0.085560 0.019298
v 0.149452 0.075404 0.019315
v 0.146474 0.073539 0.019298
v 0.140215 0.086846 0.019614
v 0.148789 0.073155 0.019616
v 0.143523 0.085305 0.019314
v 0.145647 0.083022 0.019317
v 0.147591 0.080627 0.019320
v 0.149128 0.077976 0.019319
v 0.144301 0.074953 0.019292
v 0.142587 0.077493 0.019291
v 0.141281 0.080288 0.019293
v 0.140154 0.083195 0.019295
v 0.141840 0.084251 0.019615
v 0.143465 0.081656 0.019615
v 0.145091 0.079061 0.019615
v 0.146716 0.076466 0.019616
vn -0.0031 0.0136 -0.9999
vn -0.1046 -0.0523 -0.9931
vn -0.1292 -0.0519 -0.9902
vn -0.0091 0.0235 -0.9997
vn 0.1005 0.0761 -0.9920
vn 0.1108 0.0983 -0.9890
vn 0.0173 -0.0190 -0.9997
vn -0.1451 -0.1202 -0.9821
vn -0.1209 -0.0971 -0.9879
vn 0.0140 -0.0139 -0.9998
vn -0.0942 -0.0705 -0.9930
vn 0.0093 -0.0061 -0.9999
vn -0.0869 -0.0574 -0.9945
vn 0.0053 0.0002 -1.0000
vn 0.1787 0.0827 -0.9804
vn 0.1477 0.0712 -0.9864
vn 0.1123 0.0589 -0.9919
vn 0.0974 0.0580 -0.9935
usemtl feather_003
s 1
f 18//1 10//2 3//3 6//4
f 11//5 18//1 6//4 4//6
f 5//7 1//8 7//9 15//10
f 15//10 7//9 8//11 16//12
f 16//12 8//11 9//13 17//14
f 17//14 9//13 10//2 18//1
f 2//15 5//7 15//10 14//16
f 14//16 15//10 16//12 13//17
f 13//17 16//12 17//14 12//18
f 12//18 17//14 18//1 11//5
