# Blender v2.79 (sub 0) OBJ File: 'cockatiel_base_mesh_BI.blend'
# www.blender.org
mtllib cockatiel_feather_flight_tertiary_049.mtl
o feather_flight_tertiary_049
v 0.108086 0.086396 0.018082
v 0.105120 0.086053 0.018073
v 0.110108 0.073739 0.018005
v 0.106060 0.073271 0.017992
v 0.106526 0.086872 0.017772
v 0.108249 0.072080 0.017679
v 0.109143 0.084336 0.018072
v 0.110148 0.081610 0.018056
v 0.110907 0.078856 0.018040
v 0.111113 0.076039 0.018022
v 0.104553 0.075279 0.018001
v 0.104106 0.078069 0.018018
v 0.104213 0.080923 0.018037
v 0.104564 0.083806 0.018057
v 0.106853 0.084068 0.017754
v 0.107179 0.081264 0.017737
v 0.107506 0.078460 0.017719
v 0.107832 0.075657 0.017702
vn 0.0040 -0.0079 -0.9999
vn 0.1068 0.0068 -0.9942
vn 0.1270 -0.0060 -0.9919
vn 0.0055 -0.0203 -0.9998
vn -0.0995 -0.0172 -0.9949
vn -0.1162 -0.0344 -0.9926
vn -0.0009 0.0336 -0.9994
vn 0.1635 0.0522 -0.9851
vn 0.1353 0.0413 -0.9899
vn -0.0001 0.0270 -0.9996
vn 0.1055 0.0289 -0.9940
vn 0.0011 0.0172 -0.9998
vn 0.0954 0.0199 -0.9952
vn 0.0020 0.0092 -0.9999
vn -0.1653 0.0140 -0.9861
vn -0.1353 0.0098 -0.9908
vn -0.1032 0.0046 -0.9946
vn -0.0913 -0.0018 -0.9958
usemtl feather_003
s 1
f 18//1 10//2 3//3 6//4
f 11//5 18//1 6//4 4//6
f 5//7 1//8 7//9 15//10
f 15//10 7//9 8//11 16//12
f 16//12 8//11 9//13 17//14
f 17//14 9//13 10//2 18//1
f 2//15 5//7 15//10 14//16
f 14//16 15//10 16//12 13//17
f 13//17 16//12 17//14 12//18
f 12//18 17//14 18//1 11//5
