# Blender v2.79 (sub 0) OBJ File: 'cockatiel_base_mesh_BI.blend'
# www.blender.org
mtllib cockatiel_feather_flight_tertiary_052.mtl
o feather_flight_tertiary_052
v 0.121243 0.086688 0.018082
v 0.117950 0.085847 0.018082
v 0.124850 0.075067 0.018082
v 0.120357 0.073920 0.018082
v 0.119443 0.086869 0.017772
v 0.122940 0.073176 0.017772
v 0.122647 0.084923 0.018082
v 0.124062 0.082520 0.018082
v 0.125206 0.080047 0.018082
v 0.125735 0.077417 0.018082
v 0.118453 0.075557 0.018082
v 0.117656 0.078119 0.018082
v 0.117474 0.080837 0.018082
v 0.117564 0.083625 0.018082
v 0.120105 0.084274 0.017772
v 0.120768 0.081678 0.017772
v 0.121431 0.079083 0.017772
v 0.122094 0.076487 0.017772
vn 0.0038 -0.0148 -0.9999
vn 0.0909 0.0110 -0.9958
vn 0.1113 -0.0008 -0.9938
vn 0.0070 -0.0276 -0.9996
vn -0.0850 -0.0339 -0.9958
vn -0.0973 -0.0540 -0.9938
vn -0.0071 0.0279 -0.9996
vn 0.1343 0.0637 -0.9889
vn 0.1104 0.0489 -0.9927
vn -0.0054 0.0211 -0.9998
vn 0.0866 0.0333 -0.9957
vn -0.0028 0.0110 -0.9999
vn 0.0793 0.0230 -0.9966
vn -0.0007 0.0028 -1.0000
vn -0.1484 -0.0085 -0.9889
vn -0.1203 -0.0100 -0.9927
vn -0.0920 -0.0123 -0.9957
vn -0.0807 -0.0179 -0.9966
usemtl feather_003
s 1
f 18//1 10//2 3//3 6//4
f 11//5 18//1 6//4 4//6
f 5//7 1//8 7//9 15//10
f 15//10 7//9 8//11 16//12
f 16//12 8//11 9//13 17//14
f 17//14 9//13 10//2 18//1
f 2//15 5//7 15//10 14//16
f 14//16 15//10 16//12 13//17
f 13//17 16//12 17//14 12//18
f 12//18 17//14 18//1 11//5
