# Blender v2.79 (sub 0) OBJ File: 'cockatiel_base_mesh_BI.blend'
# www.blender.org
mtllib cockatiel_feather_flight_secondary_028.mtl
o feather_flight_secondary_028
v 0.136739 0.087167 0.018444
v 0.132187 0.083999 0.018404
v 0.155169 0.062515 0.018333
v 0.148956 0.058192 0.018278
v 0.133562 0.086869 0.018120
v 0.154030 0.057528 0.017982
v 0.140957 0.083756 0.018435
v 0.145877 0.078918 0.018418
v 0.150422 0.073819 0.018398
v 0.154117 0.068129 0.018370
v 0.144048 0.061123 0.018281
v 0.139983 0.066556 0.018305
v 0.136768 0.072580 0.018337
v 0.133929 0.078866 0.018373
v 0.137442 0.081308 0.018094
v 0.141321 0.075746 0.018068
v 0.145201 0.070185 0.018041
v 0.149081 0.064623 0.018015
vn 0.0072 0.0023 -1.0000
vn 0.0531 0.0354 -0.9980
vn 0.0645 0.0360 -0.9973
vn 0.0102 -0.0019 -0.9999
vn -0.0397 -0.0293 -0.9988
vn -0.0442 -0.0399 -0.9982
vn -0.0028 0.0166 -0.9998
vn 0.0710 0.0681 -0.9951
vn 0.0601 0.0566 -0.9966
vn -0.0012 0.0144 -0.9999
vn 0.0479 0.0435 -0.9979
vn 0.0012 0.0110 -0.9999
vn 0.0447 0.0372 -0.9983
vn 0.0031 0.0082 -0.9999
vn -0.0767 -0.0350 -0.9964
vn -0.0621 -0.0286 -0.9977
vn -0.0455 -0.0217 -0.9987
vn -0.0385 -0.0208 -0.9990
usemtl feather_004
s 1
f 18//1 10//2 3//3 6//4
f 11//5 18//1 6//4 4//6
f 5//7 1//8 7//9 15//10
f 15//10 7//9 8//11 16//12
f 16//12 8//11 9//13 17//14
f 17//14 9//13 10//2 18//1
f 2//15 5//7 15//10 14//16
f 14//16 15//10 16//12 13//17
f 13//17 16//12 17//14 12//18
f 12//18 17//14 18//1 11//5
