# Blender v2.79 (sub 0) OBJ File: 'cockatiel_base_mesh_BI.blend'
# www.blender.org
mtllib cockatiel_feather_flight_tertiary_028.mtl
o feather_flight_tertiary_028
v 0.156215 0.087597 0.019333
v 0.154530 0.085257 0.019288
v 0.167789 0.079792 0.019468
v 0.165490 0.076598 0.019408
v 0.154804 0.086851 0.019615
v 0.167907 0.077277 0.019764
v 0.158581 0.086840 0.019366
v 0.161450 0.085560 0.019405
v 0.164179 0.084087 0.019439
v 0.166595 0.082177 0.019465
v 0.162869 0.077001 0.019367
v 0.160317 0.078721 0.019338
v 0.158079 0.080877 0.019316
v 0.155980 0.083227 0.019298
v 0.157287 0.085036 0.019643
v 0.159771 0.083221 0.019672
v 0.162255 0.081407 0.019700
v 0.164738 0.079592 0.019728
vn 0.0053 0.0144 -0.9999
vn -0.0566 -0.0742 -0.9956
vn -0.0791 -0.0816 -0.9935
vn -0.0035 0.0219 -0.9997
vn 0.0710 0.1006 -0.9924
vn 0.0710 0.1236 -0.9898
vn 0.0360 -0.0088 -0.9993
vn -0.0655 -0.1471 -0.9869
vn -0.0533 -0.1188 -0.9915
vn 0.0315 -0.0046 -0.9995
vn -0.0405 -0.0872 -0.9954
vn 0.0243 0.0009 -0.9997
vn -0.0394 -0.0734 -0.9965
vn 0.0183 0.0053 -0.9998
vn 0.1369 0.1304 -0.9819
vn 0.1139 0.1106 -0.9873
vn 0.0882 0.0893 -0.9921
vn 0.0757 0.0842 -0.9936
usemtl feather_003
s 1
f 18//1 10//2 3//3 6//4
f 11//5 18//1 6//4 4//6
f 5//7 1//8 7//9 15//10
f 15//10 7//9 8//11 16//12
f 16//12 8//11 9//13 17//14
f 17//14 9//13 10//2 18//1
f 2//15 5//7 15//10 14//16
f 14//16 15//10 16//12 13//17
f 13//17 16//12 17//14 12//18
f 12//18 17//14 18//1 11//5
