# Blender v2.79 (sub 0) OBJ File: 'cockatiel_base_mesh_BI.blend'
# www.blender.org
mtllib cockatiel_feather_flight_primary_002.mtl
o feather_flight_primary_002
v 0.048932 0.084848 0.018521
v 0.044643 0.084848 0.018521
v 0.049714 0.045286 0.018521
v 0.043860 0.045286 0.018521
v 0.046787 0.086869 0.018831
v 0.046787 0.040860 0.018831
v 0.050098 0.078148 0.018521
v 0.051079 0.069427 0.018521
v 0.051705 0.060706 0.018521
v 0.051531 0.051985 0.018521
v 0.042044 0.051985 0.018521
v 0.041870 0.060706 0.018521
v 0.042496 0.069427 0.018521
v 0.043476 0.078148 0.018521
v 0.046787 0.078148 0.018831
v 0.046787 0.069427 0.018831
v 0.046787 0.060706 0.018831
v 0.046787 0.051985 0.018831
vn 0.0000 0.0047 -1.0000
vn -0.0737 0.0043 -0.9973
vn -0.0855 0.0087 -0.9963
vn 0.0000 0.0087 -0.9999
vn 0.0737 0.0043 -0.9973
vn 0.0855 0.0087 -0.9963
vn 0.0000 -0.0088 -0.9999
vn -0.1161 -0.0088 -0.9932
vn -0.0971 -0.0065 -0.9952
vn 0.0000 -0.0067 -1.0000
vn -0.0738 -0.0034 -0.9973
vn 0.0000 -0.0035 -1.0000
vn -0.0656 -0.0009 -0.9978
vn 0.0000 -0.0009 -1.0000
vn 0.1161 -0.0088 -0.9932
vn 0.0971 -0.0065 -0.9952
vn 0.0738 -0.0034 -0.9973
vn 0.0656 -0.0009 -0.9978
usemtl feather_005
s 1
f 18//1 10//2 3//3 6//4
f 11//5 18//1 6//4 4//6
f 5//7 1//8 7//9 15//10
f 15//10 7//9 8//11 16//12
f 16//12 8//11 9//13 17//14
f 17//14 9//13 10//2 18//1
f 2//15 5//7 15//10 14//16
f 14//16 15//10 16//12 13//17
f 13//17 16//12 17//14 12//18
f 12//18 17//14 18//1 11//5
