# Blender v2.79 (sub 0) OBJ File: 'cockatiel_base_mesh_BI.blend'
# www.blender.org
mtllib cockatiel_feather_flight_tertiary_055.mtl
o feather_flight_tertiary_055
v 0.133384 0.086867 0.018082
v 0.130717 0.085672 0.018082
v 0.139109 0.075394 0.018082
v 0.135469 0.073763 0.018082
v 0.131783 0.086867 0.017772
v 0.137875 0.073271 0.017772
v 0.134997 0.085212 0.018082
v 0.136761 0.082908 0.018082
v 0.138305 0.080506 0.018082
v 0.139352 0.077880 0.018082
v 0.133453 0.075237 0.018082
v 0.132190 0.077766 0.018082
v 0.131424 0.080517 0.018082
v 0.130879 0.083368 0.018082
v 0.132938 0.084290 0.017772
v 0.134093 0.081713 0.017772
v 0.135247 0.079136 0.017772
v 0.136402 0.076559 0.017772
vn 0.0059 -0.0132 -0.9999
vn 0.1016 0.0326 -0.9943
vn 0.1250 0.0266 -0.9918
vn 0.0110 -0.0246 -0.9996
vn -0.0920 -0.0541 -0.9943
vn -0.1031 -0.0755 -0.9918
vn -0.0111 0.0249 -0.9996
vn 0.1432 0.0936 -0.9852
vn 0.1191 0.0744 -0.9901
vn -0.0085 0.0189 -0.9998
vn 0.0937 0.0533 -0.9942
vn -0.0044 0.0098 -0.9999
vn 0.0865 0.0415 -0.9954
vn -0.0011 0.0025 -1.0000
vn -0.1652 -0.0446 -0.9852
vn -0.1348 -0.0393 -0.9901
vn -0.1021 -0.0344 -0.9942
vn -0.0886 -0.0369 -0.9954
usemtl feather_003
s 1
f 18//1 10//2 3//3 6//4
f 11//5 18//1 6//4 4//6
f 5//7 1//8 7//9 15//10
f 15//10 7//9 8//11 16//12
f 16//12 8//11 9//13 17//14
f 17//14 9//13 10//2 18//1
f 2//15 5//7 15//10 14//16
f 14//16 15//10 16//12 13//17
f 13//17 16//12 17//14 12//18
f 12//18 17//14 18//1 11//5
