# Blender v2.79 (sub 0) OBJ File: 'cockatiel_base_mesh_BI.blend'
# www.blender.org
mtllib cockatiel_feather_tail_primary_004.mtl
o feather_tail_primary_004
v 0.004344 0.038587 -0.090846
v -0.002963 0.038587 -0.091756
v 0.026099 0.038587 -0.255321
v 0.016285 0.038587 -0.256543
v 0.000175 0.039187 -0.087160
v 0.022271 0.039187 -0.264596
v 0.007694 0.038587 -0.104363
v 0.011149 0.038587 -0.122072
v 0.024697 0.038587 -0.223423
v 0.026284 0.038587 -0.241364
v 0.012683 0.038587 -0.243058
v 0.009820 0.038587 -0.225275
v -0.001902 0.038587 -0.123697
v -0.002896 0.038587 -0.105682
v 0.002399 0.039187 -0.105022
v 0.004623 0.039187 -0.122884
v 0.017259 0.039187 -0.224349
v 0.019483 0.039187 -0.242211
v 0.022217 0.038587 -0.203124
v 0.019601 0.038587 -0.182842
v 0.016926 0.038587 -0.162568
v 0.014195 0.038587 -0.142300
v 0.000106 0.038587 -0.144055
v 0.002429 0.038587 -0.164373
v 0.004808 0.038587 -0.184684
v 0.007246 0.038587 -0.204988
v 0.014732 0.039187 -0.204056
v 0.012205 0.039187 -0.183763
v 0.009678 0.039187 -0.163470
v 0.007150 0.039187 -0.143177
vn 0.0004 1.0000 -0.0035
vn 0.0933 0.9956 0.0082
vn 0.1050 0.9944 0.0075
vn 0.0007 1.0000 -0.0055
vn -0.0924 0.9956 -0.0149
vn -0.1036 0.9944 -0.0185
vn -0.0009 1.0000 0.0070
vn 0.1331 0.9908 0.0236
vn 0.1150 0.9932 0.0195
vn -0.0006 1.0000 0.0052
vn 0.0926 0.9956 0.0138
vn -0.0003 1.0000 0.0023
vn 0.0000 1.0000 0.0000
vn 0.0790 0.9968 0.0099
vn 0.0808 0.9967 0.0093
vn 0.0001 1.0000 -0.0008
vn -0.1348 0.9908 -0.0097
vn -0.1163 0.9932 -0.0093
vn -0.0931 0.9956 -0.0093
vn -0.0790 0.9968 -0.0098
vn -0.0806 0.9967 -0.0108
vn 0.0844 0.9964 0.0113
vn -0.0001 1.0000 0.0008
vn 0.0813 0.9966 0.0105
vn -0.0000 1.0000 0.0003
vn 0.0797 0.9968 0.0101
vn 0.0000 1.0000 0.0002
vn -0.0846 0.9964 -0.0097
vn -0.0814 0.9966 -0.0098
vn -0.0797 0.9968 -0.0097
usemtl feather_005
s 1
f 18//1 10//2 3//3 6//4
f 11//5 18//1 6//4 4//6
f 5//7 1//8 7//9 15//10
f 15//10 7//9 8//11 16//12
f 27//13 19//14 9//15 17//16
f 17//16 9//15 10//2 18//1
f 2//17 5//7 15//10 14//18
f 14//18 15//10 16//12 13//19
f 26//20 27//13 17//16 12//21
f 12//21 17//16 18//1 11//5
f 16//12 8//11 22//22 30//23
f 30//23 22//22 21//24 29//25
f 29//25 21//24 20//26 28//27
f 28//27 20//26 19//14 27//13
f 13//19 16//12 30//23 23//28
f 23//28 30//23 29//25 24//29
f 24//29 29//25 28//27 25//30
f 25//30 28//27 27//13 26//20
