# Blender v2.79 (sub 0) OBJ File: 'cockatiel_base_mesh_BI.blend'
# www.blender.org
mtllib cockatiel_feather_flight_tertiary_015.mtl
o feather_flight_tertiary_015
v 0.098654 0.086411 0.019304
v 0.095504 0.086040 0.019310
v 0.100716 0.073880 0.019356
v 0.096418 0.073373 0.019364
v 0.097002 0.086868 0.019615
v 0.098733 0.072216 0.019676
v 0.099762 0.084379 0.019312
v 0.100810 0.081686 0.019322
v 0.101598 0.078963 0.019333
v 0.101798 0.076170 0.019344
v 0.094832 0.075350 0.019357
v 0.094377 0.078112 0.019346
v 0.094508 0.080943 0.019334
v 0.094900 0.083806 0.019321
v 0.097330 0.084091 0.019626
v 0.097659 0.081313 0.019638
v 0.097987 0.078536 0.019649
v 0.098315 0.075758 0.019661
vn -0.0030 0.0102 -0.9999
vn -0.0996 -0.0042 -0.9950
vn -0.1190 0.0091 -0.9928
vn -0.0045 0.0228 -0.9997
vn 0.0943 0.0187 -0.9954
vn 0.1101 0.0362 -0.9933
vn 0.0020 -0.0316 -0.9995
vn -0.1531 -0.0496 -0.9870
vn -0.1262 -0.0385 -0.9912
vn 0.0012 -0.0251 -0.9997
vn -0.0982 -0.0262 -0.9948
vn 0.0000 -0.0151 -0.9999
vn -0.0889 -0.0172 -0.9959
vn -0.0010 -0.0070 -1.0000
vn 0.1570 -0.0130 -0.9875
vn 0.1281 -0.0085 -0.9917
vn 0.0981 -0.0030 -0.9951
vn 0.0869 0.0035 -0.9962
usemtl feather_003
s 1
f 18//1 10//2 3//3 6//4
f 11//5 18//1 6//4 4//6
f 5//7 1//8 7//9 15//10
f 15//10 7//9 8//11 16//12
f 16//12 8//11 9//13 17//14
f 17//14 9//13 10//2 18//1
f 2//15 5//7 15//10 14//16
f 14//16 15//10 16//12 13//17
f 13//17 16//12 17//14 12//18
f 12//18 17//14 18//1 11//5
