# Blender v2.79 (sub 0) OBJ File: 'cockatiel_base_mesh_BI.blend'
# www.blender.org
mtllib cockatiel_feather_flight_primary_009.mtl
o feather_flight_primary_009
v 0.111649 0.084993 0.018522
v 0.106088 0.083503 0.018522
v 0.126405 0.033978 0.018522
v 0.118816 0.031944 0.018522
v 0.108166 0.086869 0.018831
v 0.124148 0.027223 0.018831
v 0.115488 0.076714 0.018522
v 0.119788 0.065748 0.018522
v 0.123629 0.054660 0.018522
v 0.126433 0.043293 0.018522
v 0.114134 0.039998 0.018522
v 0.110879 0.051243 0.018522
v 0.108662 0.062767 0.018522
v 0.106903 0.074413 0.018522
v 0.111195 0.075563 0.018831
v 0.114225 0.064257 0.018831
v 0.117254 0.052952 0.018831
v 0.120284 0.041646 0.018831
vn -0.0009 0.0034 -1.0000
vn -0.0539 -0.0111 -0.9985
vn -0.0633 -0.0102 -0.9979
vn -0.0017 0.0063 -1.0000
vn 0.0523 0.0173 -0.9985
vn 0.0599 0.0228 -0.9979
vn 0.0017 -0.0063 -1.0000
vn -0.0821 -0.0288 -0.9962
vn -0.0687 -0.0234 -0.9973
vn 0.0013 -0.0048 -1.0000
vn -0.0525 -0.0167 -0.9985
vn 0.0007 -0.0025 -1.0000
vn -0.0470 -0.0132 -0.9988
vn 0.0002 -0.0006 -1.0000
vn 0.0855 0.0161 -0.9962
vn 0.0713 0.0141 -0.9973
vn 0.0538 0.0117 -0.9985
vn 0.0474 0.0120 -0.9988
usemtl feather_005
s 1
f 18//1 10//2 3//3 6//4
f 11//5 18//1 6//4 4//6
f 5//7 1//8 7//9 15//10
f 15//10 7//9 8//11 16//12
f 16//12 8//11 9//13 17//14
f 17//14 9//13 10//2 18//1
f 2//15 5//7 15//10 14//16
f 14//16 15//10 16//12 13//17
f 13//17 16//12 17//14 12//18
f 12//18 17//14 18//1 11//5
