# Blender v2.79 (sub 0) OBJ File: 'cockatiel_base_mesh_BI.blend'
# www.blender.org
mtllib cockatiel_feather_flight_primary_003.mtl
o feather_flight_primary_003
v 0.057117 0.084742 0.018521
v 0.052605 0.084742 0.018521
v 0.057940 0.043124 0.018521
v 0.051782 0.043124 0.018521
v 0.054861 0.086869 0.018831
v 0.054861 0.038468 0.018831
v 0.058344 0.077695 0.018521
v 0.059375 0.068520 0.018521
v 0.060034 0.059346 0.018521
v 0.059851 0.050171 0.018521
v 0.049871 0.050171 0.018521
v 0.049688 0.059346 0.018521
v 0.050347 0.068520 0.018521
v 0.051378 0.077695 0.018521
v 0.054861 0.077695 0.018831
v 0.054861 0.068520 0.018831
v 0.054861 0.059346 0.018831
v 0.054861 0.050171 0.018831
vn 0.0000 0.0045 -1.0000
vn -0.0701 0.0041 -0.9975
vn -0.0813 0.0083 -0.9966
vn 0.0000 0.0083 -0.9999
vn 0.0701 0.0041 -0.9975
vn 0.0813 0.0083 -0.9966
vn 0.0000 -0.0084 -0.9999
vn -0.1104 -0.0083 -0.9938
vn -0.0923 -0.0061 -0.9957
vn 0.0000 -0.0063 -1.0000
vn -0.0701 -0.0032 -0.9975
vn 0.0000 -0.0033 -1.0000
vn -0.0623 -0.0008 -0.9980
vn 0.0000 -0.0008 -1.0000
vn 0.1104 -0.0083 -0.9938
vn 0.0923 -0.0061 -0.9957
vn 0.0701 -0.0032 -0.9975
vn 0.0623 -0.0008 -0.9980
usemtl feather_005
s 1
f 18//1 10//2 3//3 6//4
f 11//5 18//1 6//4 4//6
f 5//7 1//8 7//9 15//10
f 15//10 7//9 8//11 16//12
f 16//12 8//11 9//13 17//14
f 17//14 9//13 10//2 18//1
f 2//15 5//7 15//10 14//16
f 14//16 15//10 16//12 13//17
f 13//17 16//12 17//14 12//18
f 12//18 17//14 18//1 11//5
