# Blender v2.79 (sub 0) OBJ File: 'cockatiel_base_mesh_BI.blend'
# www.blender.org
mtllib cockatiel_feather_flight_tertiary_018.mtl
o feather_flight_tertiary_018
v 0.112306 0.086524 0.019304
v 0.108972 0.085851 0.019311
v 0.115608 0.073308 0.019360
v 0.111058 0.072390 0.019368
v 0.110501 0.086868 0.019614
v 0.113634 0.071355 0.019680
v 0.113669 0.084448 0.019312
v 0.115025 0.081662 0.019323
v 0.116105 0.078819 0.019335
v 0.116564 0.075852 0.019347
v 0.109190 0.074364 0.019361
v 0.108460 0.077277 0.019349
v 0.108353 0.080316 0.019336
v 0.108521 0.083410 0.019322
v 0.111095 0.083927 0.019627
v 0.111689 0.080987 0.019639
v 0.112283 0.078047 0.019652
v 0.112876 0.075106 0.019664
vn -0.0036 0.0089 -0.9999
vn -0.0923 -0.0118 -0.9956
vn -0.1115 -0.0009 -0.9937
vn -0.0060 0.0205 -0.9998
vn 0.0862 0.0243 -0.9960
vn 0.0996 0.0417 -0.9941
vn 0.0042 -0.0296 -0.9995
vn -0.1387 -0.0581 -0.9886
vn -0.1145 -0.0457 -0.9923
vn 0.0029 -0.0235 -0.9997
vn -0.0894 -0.0322 -0.9955
vn 0.0010 -0.0144 -0.9999
vn -0.0814 -0.0231 -0.9964
vn -0.0004 -0.0070 -1.0000
vn 0.1470 -0.0004 -0.9891
vn 0.1198 0.0015 -0.9928
vn 0.0914 0.0043 -0.9958
vn 0.0804 0.0096 -0.9967
usemtl feather_003
s 1
f 18//1 10//2 3//3 6//4
f 11//5 18//1 6//4 4//6
f 5//7 1//8 7//9 15//10
f 15//10 7//9 8//11 16//12
f 16//12 8//11 9//13 17//14
f 17//14 9//13 10//2 18//1
f 2//15 5//7 15//10 14//16
f 14//16 15//10 16//12 13//17
f 13//17 16//12 17//14 12//18
f 12//18 17//14 18//1 11//5
