# Blender v2.79 (sub 0) OBJ File: 'cow_base_mesh_BI.blend'
# www.blender.org
mtllib cow_eye.mtl
o eye
v 0.101420 1.336220 1.100262
v 0.097051 1.344201 1.097203
v 0.090513 1.349535 1.092625
v 0.082801 1.351407 1.087225
v 0.075088 1.349535 1.081824
v 0.068550 1.344201 1.077246
v 0.064181 1.336220 1.074187
v 0.103487 1.335503 1.097311
v 0.100870 1.342877 1.091750
v 0.095502 1.347804 1.085500
v 0.088201 1.349535 1.079512
v 0.080077 1.347804 1.074699
v 0.072369 1.342877 1.071793
v 0.066248 1.335503 1.071236
v 0.105239 1.333462 1.094809
v 0.104107 1.339106 1.087126
v 0.099732 1.342877 1.079459
v 0.092779 1.344201 1.072974
v 0.084307 1.342877 1.068659
v 0.075606 1.339106 1.067170
v 0.068000 1.333462 1.068734
v 0.062647 1.326805 1.073113
v 0.106409 1.330408 1.093137
v 0.106270 1.333462 1.084037
v 0.102558 1.335503 1.075423
v 0.095838 1.336220 1.068605
v 0.087133 1.335503 1.064622
v 0.077769 1.333462 1.064080
v 0.069170 1.330408 1.067062
v 0.106820 1.326805 1.092550
v 0.107030 1.326805 1.082952
v 0.103550 1.326805 1.074006
v 0.096912 1.326805 1.067071
v 0.088126 1.326805 1.063205
v 0.078528 1.326805 1.062996
v 0.069582 1.326805 1.066475
v 0.106409 1.323202 1.093137
v 0.106270 1.320147 1.084037
v 0.102558 1.318106 1.075423
v 0.095838 1.317389 1.068605
v 0.087133 1.318106 1.064622
v 0.077769 1.320147 1.064080
v 0.069170 1.323202 1.067062
v 0.102954 1.326805 1.101336
v 0.105239 1.320147 1.094809
v 0.104107 1.314503 1.087126
v 0.099732 1.310732 1.079459
v 0.092779 1.309408 1.072974
v 0.084307 1.310732 1.068659
v 0.075606 1.314503 1.067170
v 0.068000 1.320147 1.068734
v 0.103487 1.318106 1.097311
v 0.100870 1.310732 1.091750
v 0.095502 1.305805 1.085500
v 0.088201 1.304075 1.079512
v 0.080077 1.305805 1.074699
v 0.072369 1.310732 1.071793
v 0.066248 1.318106 1.071236
v 0.101420 1.317390 1.100262
v 0.097051 1.309408 1.097203
v 0.090513 1.304075 1.092625
v 0.082801 1.302202 1.087225
v 0.075088 1.304075 1.081824
v 0.068550 1.309408 1.077246
v 0.064181 1.317390 1.074187
v 0.099353 1.318106 1.103214
v 0.093233 1.310732 1.102657
v 0.085524 1.305805 1.099750
v 0.077400 1.304075 1.094937
v 0.070099 1.305805 1.088950
v 0.064731 1.310732 1.082700
v 0.062115 1.318106 1.077139
v 0.097601 1.320147 1.105716
v 0.089995 1.314503 1.107280
v 0.081294 1.310732 1.105791
v 0.072822 1.309408 1.101475
v 0.065869 1.310732 1.094990
v 0.061494 1.314503 1.087323
v 0.060363 1.320147 1.079641
v 0.096431 1.323202 1.107387
v 0.087832 1.320147 1.110369
v 0.078468 1.318106 1.109827
v 0.069763 1.317390 1.105844
v 0.063043 1.318106 1.099026
v 0.059331 1.320147 1.090412
v 0.059192 1.323202 1.081313
v 0.096020 1.326805 1.107975
v 0.087073 1.326805 1.111454
v 0.077476 1.326805 1.111244
v 0.068689 1.326805 1.107378
v 0.062051 1.326805 1.100444
v 0.058572 1.326805 1.091497
v 0.058781 1.326805 1.081900
v 0.096431 1.330408 1.107387
v 0.087832 1.333462 1.110369
v 0.078468 1.335503 1.109827
v 0.069763 1.336220 1.105844
v 0.063043 1.335503 1.099026
v 0.059331 1.333462 1.090412
v 0.059192 1.330408 1.081313
v 0.097601 1.333462 1.105716
v 0.089995 1.339106 1.107280
v 0.081294 1.342877 1.105791
v 0.072822 1.344201 1.101475
v 0.065869 1.342877 1.094990
v 0.061494 1.339106 1.087323
v 0.060363 1.333462 1.079641
v 0.099353 1.335503 1.103214
v 0.093233 1.342877 1.102657
v 0.085524 1.347804 1.099750
v 0.077400 1.349535 1.094937
v 0.070099 1.347804 1.088950
v 0.064731 1.342877 1.082700
v 0.062115 1.335503 1.077139
vn -0.8191 0.0000 -0.5736
vn -0.7496 0.4031 -0.5249
vn -0.6612 0.3724 -0.6513
vn -0.5694 0.7188 -0.3987
vn -0.3066 0.9273 -0.2147
vn -0.1031 0.8567 -0.5054
vn -0.4116 0.6641 -0.6240
vn 0.0000 1.0000 0.0000
vn 0.3066 0.9273 0.2147
vn 0.5102 0.8567 -0.0759
vn 0.2195 0.9239 -0.3135
vn 0.5694 0.7188 0.3987
vn 0.7496 0.4031 0.5249
vn 0.8381 0.3724 0.3985
vn 0.7272 0.6641 0.1733
vn 0.8191 0.0000 0.5736
vn 0.9131 0.2850 0.2914
vn 0.8610 0.5083 -0.0176
vn -0.2779 0.5083 -0.8151
vn -0.5862 0.2850 -0.7584
vn 0.4056 0.7071 -0.5792
vn 0.0694 0.6557 -0.7518
vn 0.6827 0.6557 -0.3224
vn -0.1885 0.2751 -0.9427
vn -0.5360 0.1542 -0.8300
vn 0.5299 0.3827 -0.7568
vn 0.1847 0.3548 -0.9165
vn 0.9503 0.2751 -0.1453
vn 0.7980 0.3548 -0.4870
vn 0.9633 0.1542 0.2199
vn 0.9808 0.0000 0.1947
vn -0.5184 0.0000 -0.8551
vn 0.2252 0.0000 -0.9743
vn -0.1571 0.0000 -0.9876
vn 0.8385 0.0000 -0.5448
vn 0.5736 0.0000 -0.8191
vn 0.9817 0.0000 -0.1901
vn 0.1847 -0.3548 -0.9165
vn -0.1885 -0.2751 -0.9427
vn 0.7980 -0.3548 -0.4870
vn 0.5299 -0.3827 -0.7568
vn 0.9633 -0.1542 0.2199
vn 0.9503 -0.2751 -0.1453
vn -0.5360 -0.1542 -0.8300
vn -0.2779 -0.5083 -0.8151
vn -0.5862 -0.2850 -0.7584
vn 0.4056 -0.7071 -0.5792
vn 0.0694 -0.6557 -0.7518
vn 0.8610 -0.5083 -0.0176
vn 0.6827 -0.6557 -0.3224
vn 0.9131 -0.2850 0.2914
vn 0.2195 -0.9239 -0.3135
vn -0.1031 -0.8567 -0.5054
vn 0.7272 -0.6641 0.1734
vn 0.5102 -0.8567 -0.0759
vn 0.8381 -0.3724 0.3985
vn -0.6612 -0.3724 -0.6513
vn -0.4116 -0.6641 -0.6240
vn -0.7496 -0.4031 -0.5249
vn -0.3066 -0.9273 -0.2147
vn -0.5694 -0.7188 -0.3987
vn 0.3066 -0.9273 0.2147
vn 0.0000 -1.0000 0.0000
vn 0.7497 -0.4031 0.5249
vn 0.5694 -0.7188 0.3987
vn 0.1031 -0.8567 0.5054
vn -0.2195 -0.9239 0.3135
vn 0.6612 -0.3724 0.6513
vn 0.4116 -0.6641 0.6240
vn -0.7272 -0.6641 -0.1734
vn -0.8381 -0.3724 -0.3985
vn -0.5102 -0.8567 0.0759
vn -0.8610 -0.5083 0.0176
vn -0.9131 -0.2850 -0.2914
vn -0.4056 -0.7071 0.5792
vn -0.6827 -0.6557 0.3224
vn 0.2779 -0.5083 0.8151
vn -0.0694 -0.6557 0.7518
vn 0.5861 -0.2850 0.7584
vn 0.1885 -0.2751 0.9427
vn -0.1847 -0.3548 0.9165
vn 0.5360 -0.1542 0.8300
vn -0.9633 -0.1542 -0.2198
vn -0.7980 -0.3548 0.4870
vn -0.9503 -0.2751 0.1453
vn -0.5299 -0.3827 0.7568
vn -0.9808 0.0000 -0.1947
vn -0.8385 0.0000 0.5448
vn -0.9817 0.0000 0.1901
vn -0.2252 0.0000 0.9743
vn -0.5736 0.0000 0.8191
vn 0.5184 0.0000 0.8551
vn 0.1571 0.0000 0.9876
vn 0.5360 0.1542 0.8300
vn 0.1885 0.2751 0.9427
vn -0.9503 0.2751 0.1453
vn -0.9633 0.1542 -0.2198
vn -0.5299 0.3827 0.7568
vn -0.7980 0.3548 0.4870
vn -0.1847 0.3548 0.9165
vn -0.8610 0.5083 0.0176
vn -0.9131 0.2850 -0.2914
vn -0.4056 0.7071 0.5792
vn -0.6827 0.6557 0.3224
vn 0.2779 0.5083 0.8151
vn -0.0694 0.6557 0.7518
vn 0.5862 0.2850 0.7584
vn 0.6612 0.3724 0.6513
vn -0.8381 0.3724 -0.3985
vn -0.5102 0.8567 0.0759
vn -0.7272 0.6641 -0.1734
vn 0.1031 0.8567 0.5054
vn -0.2195 0.9239 0.3135
vn 0.4116 0.6641 0.6240
usemtl eyes
s 1
f 22//1 7//2 14//3
f 6//4 5//5 12//6 13//7
f 4//8 3//9 10//10 11//11
f 2//12 1//13 8//14 9//15
f 7//2 6//4 13//7 14//3
f 5//5 4//8 11//11 12//6
f 3//9 2//12 9//15 10//10
f 1//13 44//16 8//14
f 9//15 8//14 15//17 16//18
f 14//3 13//7 20//19 21//20
f 12//6 11//11 18//21 19//22
f 10//10 9//15 16//18 17//23
f 8//14 44//16 15//17
f 22//1 14//3 21//20
f 13//7 12//6 19//22 20//19
f 11//11 10//10 17//23 18//21
f 21//20 20//19 28//24 29//25
f 19//22 18//21 26//26 27//27
f 17//23 16//18 24//28 25//29
f 15//17 44//16 23//30
f 22//1 21//20 29//25
f 20//19 19//22 27//27 28//24
f 18//21 17//23 25//29 26//26
f 16//18 15//17 23//30 24//28
f 23//30 44//16 30//31
f 22//1 29//25 36//32
f 28//24 27//27 34//33 35//34
f 26//26 25//29 32//35 33//36
f 24//28 23//30 30//31 31//37
f 29//25 28//24 35//34 36//32
f 27//27 26//26 33//36 34//33
f 25//29 24//28 31//37 32//35
f 35//34 34//33 41//38 42//39
f 33//36 32//35 39//40 40//41
f 31//37 30//31 37//42 38//43
f 36//32 35//34 42//39 43//44
f 34//33 33//36 40//41 41//38
f 32//35 31//37 38//43 39//40
f 30//31 44//16 37//42
f 22//1 36//32 43//44
f 43//44 42//39 50//45 51//46
f 41//38 40//41 48//47 49//48
f 39//40 38//43 46//49 47//50
f 37//42 44//16 45//51
f 22//1 43//44 51//46
f 42//39 41//38 49//48 50//45
f 40//41 39//40 47//50 48//47
f 38//43 37//42 45//51 46//49
f 49//48 48//47 55//52 56//53
f 47//50 46//49 53//54 54//55
f 45//51 44//16 52//56
f 22//1 51//46 58//57
f 50//45 49//48 56//53 57//58
f 48//47 47//50 54//55 55//52
f 46//49 45//51 52//56 53//54
f 51//46 50//45 57//58 58//57
f 22//1 58//57 65//59
f 57//58 56//53 63//60 64//61
f 55//52 54//55 61//62 62//63
f 53//54 52//56 59//64 60//65
f 58//57 57//58 64//61 65//59
f 56//53 55//52 62//63 63//60
f 54//55 53//54 60//65 61//62
f 52//56 44//16 59//64
f 62//63 61//62 68//66 69//67
f 60//65 59//64 66//68 67//69
f 65//59 64//61 71//70 72//71
f 63//60 62//63 69//67 70//72
f 61//62 60//65 67//69 68//66
f 59//64 44//16 66//68
f 22//1 65//59 72//71
f 64//61 63//60 70//72 71//70
f 72//71 71//70 78//73 79//74
f 70//72 69//67 76//75 77//76
f 68//66 67//69 74//77 75//78
f 66//68 44//16 73//79
f 22//1 72//71 79//74
f 71//70 70//72 77//76 78//73
f 69//67 68//66 75//78 76//75
f 67//69 66//68 73//79 74//77
f 75//78 74//77 81//80 82//81
f 73//79 44//16 80//82
f 22//1 79//74 86//83
f 78//73 77//76 84//84 85//85
f 76//75 75//78 82//81 83//86
f 74//77 73//79 80//82 81//80
f 79//74 78//73 85//85 86//83
f 77//76 76//75 83//86 84//84
f 22//1 86//83 93//87
f 85//85 84//84 91//88 92//89
f 83//86 82//81 89//90 90//91
f 81//80 80//82 87//92 88//93
f 86//83 85//85 92//89 93//87
f 84//84 83//86 90//91 91//88
f 82//81 81//80 88//93 89//90
f 80//82 44//16 87//92
f 88//93 87//92 94//94 95//95
f 93//87 92//89 99//96 100//97
f 91//88 90//91 97//98 98//99
f 89//90 88//93 95//95 96//100
f 87//92 44//16 94//94
f 22//1 93//87 100//97
f 92//89 91//88 98//99 99//96
f 90//91 89//90 96//100 97//98
f 100//97 99//96 106//101 107//102
f 98//99 97//98 104//103 105//104
f 96//100 95//95 102//105 103//106
f 94//94 44//16 101//107
f 22//1 100//97 107//102
f 99//96 98//99 105//104 106//101
f 97//98 96//100 103//106 104//103
f 95//95 94//94 101//107 102//105
f 101//107 44//16 108//108
f 22//1 107//102 114//109
f 106//101 105//104 112//110 113//111
f 104//103 103//106 110//112 111//113
f 102//105 101//107 108//108 109//114
f 107//102 106//101 113//111 114//109
f 105//104 104//103 111//113 112//110
f 103//106 102//105 109//114 110//112
f 113//111 112//110 5//5 6//4
f 111//113 110//112 3//9 4//8
f 109//114 108//108 1//13 2//12
f 114//109 113//111 6//4 7//2
f 112//110 111//113 4//8 5//5
f 110//112 109//114 2//12 3//9
f 108//108 44//16 1//13
f 22//1 114//109 7//2
