# Blender v2.79 (sub 0) OBJ File: 'degu_base_mesh_BI.blend'
# www.blender.org
mtllib degu_eye.mtl
o eye
v 0.013851 0.076152 0.088077
v 0.012765 0.077881 0.087682
v 0.011140 0.079037 0.087090
v 0.009223 0.079443 0.086392
v 0.007306 0.079037 0.085695
v 0.005681 0.077881 0.085103
v 0.004595 0.076152 0.084708
v 0.014118 0.075997 0.087343
v 0.013258 0.077594 0.086326
v 0.011784 0.078662 0.085319
v 0.009921 0.079037 0.084476
v 0.007951 0.078662 0.083924
v 0.006174 0.077594 0.083748
v 0.004862 0.075997 0.083974
v 0.014344 0.075554 0.086721
v 0.013677 0.076777 0.085177
v 0.012331 0.077594 0.083818
v 0.010512 0.077881 0.082850
v 0.008497 0.077594 0.082422
v 0.006592 0.076777 0.082599
v 0.005088 0.075554 0.083353
v 0.004214 0.074112 0.084569
v 0.014495 0.074893 0.086306
v 0.013956 0.075554 0.084409
v 0.012696 0.075997 0.082815
v 0.010907 0.076152 0.081765
v 0.008862 0.075997 0.081419
v 0.006872 0.075554 0.081831
v 0.005240 0.074893 0.082937
v 0.014549 0.074112 0.086160
v 0.014054 0.074112 0.084140
v 0.012824 0.074112 0.082462
v 0.011046 0.074112 0.081383
v 0.008990 0.074112 0.081067
v 0.006970 0.074112 0.081561
v 0.005293 0.074112 0.082791
v 0.014495 0.073331 0.086306
v 0.013956 0.072669 0.084409
v 0.012696 0.072227 0.082815
v 0.010907 0.072072 0.081765
v 0.008862 0.072227 0.081419
v 0.006872 0.072669 0.081831
v 0.005240 0.073331 0.082937
v 0.014232 0.074112 0.088216
v 0.014344 0.072669 0.086721
v 0.013677 0.071447 0.085177
v 0.012331 0.070629 0.083818
v 0.010512 0.070343 0.082850
v 0.008497 0.070629 0.082422
v 0.006592 0.071447 0.082599
v 0.005088 0.072669 0.083353
v 0.014118 0.072227 0.087343
v 0.013258 0.070629 0.086326
v 0.011784 0.069562 0.085319
v 0.009921 0.069187 0.084476
v 0.007951 0.069562 0.083924
v 0.006174 0.070629 0.083748
v 0.004862 0.072227 0.083974
v 0.013851 0.072072 0.088077
v 0.012765 0.070343 0.087682
v 0.011140 0.069187 0.087090
v 0.009223 0.068781 0.086392
v 0.007306 0.069187 0.085695
v 0.005681 0.070343 0.085103
v 0.004595 0.072072 0.084708
v 0.013584 0.072227 0.088811
v 0.012272 0.070629 0.089037
v 0.010495 0.069562 0.088861
v 0.008525 0.069187 0.088309
v 0.006661 0.069562 0.087466
v 0.005187 0.070629 0.086459
v 0.004328 0.072227 0.085442
v 0.013358 0.072669 0.089432
v 0.011853 0.071447 0.090186
v 0.009949 0.070629 0.090363
v 0.007934 0.070343 0.089935
v 0.006115 0.070629 0.088967
v 0.004769 0.071447 0.087608
v 0.004102 0.072669 0.086064
v 0.013206 0.073331 0.089848
v 0.011574 0.072669 0.090954
v 0.009584 0.072227 0.091366
v 0.007538 0.072072 0.091020
v 0.005750 0.072227 0.089970
v 0.004490 0.072669 0.088376
v 0.003950 0.073331 0.086479
v 0.013153 0.074112 0.089994
v 0.011476 0.074112 0.091224
v 0.009455 0.074112 0.091718
v 0.007400 0.074112 0.091402
v 0.005621 0.074112 0.090323
v 0.004392 0.074112 0.088645
v 0.003897 0.074112 0.086625
v 0.013206 0.074893 0.089848
v 0.011574 0.075554 0.090954
v 0.009584 0.075997 0.091366
v 0.007538 0.076152 0.091020
v 0.005750 0.075997 0.089970
v 0.004490 0.075554 0.088376
v 0.003950 0.074893 0.086479
v 0.013358 0.075554 0.089432
v 0.011853 0.076777 0.090186
v 0.009949 0.077594 0.090363
v 0.007934 0.077881 0.089935
v 0.006115 0.077594 0.088967
v 0.004769 0.076777 0.087608
v 0.004102 0.075554 0.086064
v 0.013584 0.075997 0.088811
v 0.012272 0.077594 0.089037
v 0.010495 0.078662 0.088861
v 0.008525 0.079037 0.088309
v 0.006661 0.078662 0.087466
v 0.005187 0.077594 0.086459
v 0.004328 0.075997 0.085442
vn -0.9397 0.0000 -0.3420
vn -0.8600 0.4031 -0.3130
vn -0.8072 0.3724 -0.4579
vn -0.6532 0.7188 -0.2377
vn -0.3518 0.9273 -0.1280
vn -0.2304 0.8567 -0.4615
vn -0.5591 0.6641 -0.4963
vn 0.0000 1.0000 0.0000
vn 0.3518 0.9273 0.1280
vn 0.4731 0.8567 -0.2054
vn 0.1309 0.9239 -0.3596
vn 0.6532 0.7188 0.2377
vn 0.8600 0.4031 0.3130
vn 0.9127 0.3724 0.1680
vn 0.7473 0.6641 -0.0207
vn 0.9397 0.0000 0.3420
vn 0.9574 0.2850 0.0451
vn 0.8271 0.5083 -0.2399
vn -0.4794 0.5083 -0.7154
vn -0.7625 0.2850 -0.5808
vn 0.2418 0.7071 -0.6644
vn -0.1275 0.6557 -0.7442
vn 0.5760 0.6557 -0.4881
vn -0.4261 0.2751 -0.8618
vn -0.7326 0.1542 -0.6630
vn 0.3160 0.3827 -0.8682
vn -0.0588 0.3548 -0.9330
vn 0.8804 0.2751 -0.3863
vn 0.6448 0.3548 -0.6770
vn 0.9873 0.1542 -0.0369
vn 0.9978 0.0000 -0.0658
vn -0.7221 0.0000 -0.6918
vn -0.0346 0.0000 -0.9994
vn -0.4074 0.0000 -0.9132
vn 0.6689 0.0000 -0.7433
vn 0.3420 0.0000 -0.9397
vn 0.8991 0.0000 -0.4377
vn -0.0588 -0.3548 -0.9330
vn -0.4261 -0.2751 -0.8618
vn 0.6448 -0.3548 -0.6770
vn 0.3160 -0.3827 -0.8682
vn 0.9873 -0.1542 -0.0369
vn 0.8804 -0.2751 -0.3863
vn -0.7326 -0.1542 -0.6630
vn -0.4794 -0.5083 -0.7154
vn -0.7625 -0.2850 -0.5808
vn 0.2418 -0.7071 -0.6644
vn -0.1275 -0.6557 -0.7442
vn 0.8271 -0.5083 -0.2399
vn 0.5760 -0.6557 -0.4881
vn 0.9574 -0.2850 0.0451
vn 0.1309 -0.9239 -0.3596
vn -0.2304 -0.8567 -0.4615
vn 0.7473 -0.6641 -0.0207
vn 0.4731 -0.8567 -0.2054
vn 0.9127 -0.3724 0.1680
vn -0.8072 -0.3724 -0.4579
vn -0.5591 -0.6641 -0.4962
vn -0.8600 -0.4031 -0.3130
vn -0.3518 -0.9273 -0.1280
vn -0.6532 -0.7188 -0.2377
vn 0.3518 -0.9273 0.1280
vn 0.0000 -1.0000 0.0000
vn 0.8600 -0.4031 0.3130
vn 0.6532 -0.7188 0.2377
vn 0.2304 -0.8567 0.4615
vn -0.1309 -0.9239 0.3596
vn 0.8072 -0.3724 0.4579
vn 0.5591 -0.6641 0.4962
vn -0.7473 -0.6641 0.0207
vn -0.9127 -0.3724 -0.1680
vn -0.4731 -0.8567 0.2054
vn -0.8271 -0.5083 0.2399
vn -0.9574 -0.2850 -0.0451
vn -0.2418 -0.7071 0.6644
vn -0.5760 -0.6557 0.4881
vn 0.4794 -0.5083 0.7154
vn 0.1275 -0.6557 0.7442
vn 0.7625 -0.2850 0.5808
vn 0.4261 -0.2751 0.8618
vn 0.0588 -0.3548 0.9330
vn 0.7326 -0.1542 0.6630
vn -0.9873 -0.1542 0.0369
vn -0.6448 -0.3548 0.6770
vn -0.8804 -0.2751 0.3863
vn -0.3160 -0.3827 0.8682
vn -0.9978 0.0000 0.0658
vn -0.6689 0.0000 0.7433
vn -0.8991 0.0000 0.4377
vn 0.0346 0.0000 0.9994
vn -0.3420 0.0000 0.9397
vn 0.7221 0.0000 0.6918
vn 0.4074 0.0000 0.9132
vn 0.7326 0.1542 0.6630
vn 0.4261 0.2751 0.8618
vn -0.8804 0.2751 0.3863
vn -0.9873 0.1542 0.0369
vn -0.3160 0.3827 0.8682
vn -0.6448 0.3548 0.6770
vn 0.0588 0.3548 0.9330
vn -0.8271 0.5083 0.2399
vn -0.9574 0.2850 -0.0451
vn -0.2418 0.7071 0.6644
vn -0.5760 0.6557 0.4881
vn 0.4794 0.5083 0.7154
vn 0.1275 0.6557 0.7442
vn 0.7625 0.2850 0.5808
vn 0.8072 0.3724 0.4579
vn -0.9127 0.3724 -0.1680
vn -0.4731 0.8567 0.2054
vn -0.7473 0.6641 0.0207
vn 0.2304 0.8567 0.4615
vn -0.1309 0.9239 0.3596
vn 0.5591 0.6641 0.4963
usemtl eyes
s 1
f 22//1 7//2 14//3
f 6//4 5//5 12//6 13//7
f 4//8 3//9 10//10 11//11
f 2//12 1//13 8//14 9//15
f 7//2 6//4 13//7 14//3
f 5//5 4//8 11//11 12//6
f 3//9 2//12 9//15 10//10
f 1//13 44//16 8//14
f 9//15 8//14 15//17 16//18
f 14//3 13//7 20//19 21//20
f 12//6 11//11 18//21 19//22
f 10//10 9//15 16//18 17//23
f 8//14 44//16 15//17
f 22//1 14//3 21//20
f 13//7 12//6 19//22 20//19
f 11//11 10//10 17//23 18//21
f 21//20 20//19 28//24 29//25
f 19//22 18//21 26//26 27//27
f 17//23 16//18 24//28 25//29
f 15//17 44//16 23//30
f 22//1 21//20 29//25
f 20//19 19//22 27//27 28//24
f 18//21 17//23 25//29 26//26
f 16//18 15//17 23//30 24//28
f 23//30 44//16 30//31
f 22//1 29//25 36//32
f 28//24 27//27 34//33 35//34
f 26//26 25//29 32//35 33//36
f 24//28 23//30 30//31 31//37
f 29//25 28//24 35//34 36//32
f 27//27 26//26 33//36 34//33
f 25//29 24//28 31//37 32//35
f 35//34 34//33 41//38 42//39
f 33//36 32//35 39//40 40//41
f 31//37 30//31 37//42 38//43
f 36//32 35//34 42//39 43//44
f 34//33 33//36 40//41 41//38
f 32//35 31//37 38//43 39//40
f 30//31 44//16 37//42
f 22//1 36//32 43//44
f 43//44 42//39 50//45 51//46
f 41//38 40//41 48//47 49//48
f 39//40 38//43 46//49 47//50
f 37//42 44//16 45//51
f 22//1 43//44 51//46
f 42//39 41//38 49//48 50//45
f 40//41 39//40 47//50 48//47
f 38//43 37//42 45//51 46//49
f 49//48 48//47 55//52 56//53
f 47//50 46//49 53//54 54//55
f 45//51 44//16 52//56
f 22//1 51//46 58//57
f 50//45 49//48 56//53 57//58
f 48//47 47//50 54//55 55//52
f 46//49 45//51 52//56 53//54
f 51//46 50//45 57//58 58//57
f 22//1 58//57 65//59
f 57//58 56//53 63//60 64//61
f 55//52 54//55 61//62 62//63
f 53//54 52//56 59//64 60//65
f 58//57 57//58 64//61 65//59
f 56//53 55//52 62//63 63//60
f 54//55 53//54 60//65 61//62
f 52//56 44//16 59//64
f 62//63 61//62 68//66 69//67
f 60//65 59//64 66//68 67//69
f 65//59 64//61 71//70 72//71
f 63//60 62//63 69//67 70//72
f 61//62 60//65 67//69 68//66
f 59//64 44//16 66//68
f 22//1 65//59 72//71
f 64//61 63//60 70//72 71//70
f 72//71 71//70 78//73 79//74
f 70//72 69//67 76//75 77//76
f 68//66 67//69 74//77 75//78
f 66//68 44//16 73//79
f 22//1 72//71 79//74
f 71//70 70//72 77//76 78//73
f 69//67 68//66 75//78 76//75
f 67//69 66//68 73//79 74//77
f 75//78 74//77 81//80 82//81
f 73//79 44//16 80//82
f 22//1 79//74 86//83
f 78//73 77//76 84//84 85//85
f 76//75 75//78 82//81 83//86
f 74//77 73//79 80//82 81//80
f 79//74 78//73 85//85 86//83
f 77//76 76//75 83//86 84//84
f 22//1 86//83 93//87
f 85//85 84//84 91//88 92//89
f 83//86 82//81 89//90 90//91
f 81//80 80//82 87//92 88//93
f 86//83 85//85 92//89 93//87
f 84//84 83//86 90//91 91//88
f 82//81 81//80 88//93 89//90
f 80//82 44//16 87//92
f 88//93 87//92 94//94 95//95
f 93//87 92//89 99//96 100//97
f 91//88 90//91 97//98 98//99
f 89//90 88//93 95//95 96//100
f 87//92 44//16 94//94
f 22//1 93//87 100//97
f 92//89 91//88 98//99 99//96
f 90//91 89//90 96//100 97//98
f 100//97 99//96 106//101 107//102
f 98//99 97//98 104//103 105//104
f 96//100 95//95 102//105 103//106
f 94//94 44//16 101//107
f 22//1 100//97 107//102
f 99//96 98//99 105//104 106//101
f 97//98 96//100 103//106 104//103
f 95//95 94//94 101//107 102//105
f 101//107 44//16 108//108
f 22//1 107//102 114//109
f 106//101 105//104 112//110 113//111
f 104//103 103//106 110//112 111//113
f 102//105 101//107 108//108 109//114
f 107//102 106//101 113//111 114//109
f 105//104 104//103 111//113 112//110
f 103//106 102//105 109//114 110//112
f 113//111 112//110 5//5 6//4
f 111//113 110//112 3//9 4//8
f 109//114 108//108 1//13 2//12
f 114//109 113//111 6//4 7//2
f 112//110 111//113 4//8 5//5
f 110//112 109//114 2//12 3//9
f 108//108 44//16 1//13
f 22//1 114//109 7//2
