# Blender v2.79 (sub 0) OBJ File: 'duck_base_mesh_BI.blend'
# www.blender.org
mtllib duck_feather_flight_tertiary_036.mtl
o feather_flight_tertiary_036
v 0.110888 0.181618 0.031405
v 0.104165 0.181500 0.031405
v 0.112529 0.157858 0.031405
v 0.103354 0.157698 0.031405
v 0.107505 0.182774 0.030772
v 0.107965 0.156455 0.030772
v 0.112786 0.177622 0.031405
v 0.114413 0.172407 0.031405
v 0.115486 0.167182 0.031405
v 0.115305 0.161934 0.031405
v 0.100437 0.161675 0.031405
v 0.100073 0.166913 0.031405
v 0.100963 0.172172 0.031405
v 0.102408 0.177441 0.031405
v 0.107597 0.177532 0.030772
v 0.107688 0.172290 0.030772
v 0.107780 0.167047 0.030772
v 0.107871 0.161805 0.030772
vn 0.0003 -0.0176 -0.9998
vn 0.0928 -0.0119 -0.9956
vn 0.1087 -0.0309 -0.9936
vn 0.0005 -0.0330 -0.9995
vn -0.0923 -0.0152 -0.9956
vn -0.1076 -0.0347 -0.9936
vn -0.0005 0.0300 -0.9995
vn 0.1499 0.0323 -0.9882
vn 0.1224 0.0230 -0.9922
vn -0.0004 0.0227 -0.9997
vn 0.0949 0.0129 -0.9954
vn -0.0002 0.0119 -0.9999
vn 0.0851 0.0042 -0.9963
vn -0.0000 0.0030 -1.0000
vn -0.1509 0.0270 -0.9882
vn -0.1231 0.0187 -0.9922
vn -0.0952 0.0096 -0.9954
vn -0.0852 0.0013 -0.9963
usemtl feather_001
s 1
f 18//1 10//2 3//3 6//4
f 11//5 18//1 6//4 4//6
f 5//7 1//8 7//9 15//10
f 15//10 7//9 8//11 16//12
f 16//12 8//11 9//13 17//14
f 17//14 9//13 10//2 18//1
f 2//15 5//7 15//10 14//16
f 14//16 15//10 16//12 13//17
f 13//17 16//12 17//14 12//18
f 12//18 17//14 18//1 11//5
