# Blender v2.79 (sub 0) OBJ File: 'duck_base_mesh_BI.blend'
# www.blender.org
mtllib duck_feather_flight_tertiary_008.mtl
o feather_flight_tertiary_008
v 0.145176 0.181859 0.033901
v 0.138936 0.181423 0.033901
v 0.147865 0.159762 0.033901
v 0.139349 0.159167 0.033901
v 0.141977 0.182774 0.034534
v 0.143693 0.158231 0.034534
v 0.147135 0.178222 0.033901
v 0.148903 0.173434 0.033901
v 0.150156 0.168609 0.033901
v 0.150244 0.163702 0.033901
v 0.136444 0.162737 0.033901
v 0.135849 0.167608 0.033901
v 0.136418 0.172561 0.033901
v 0.137502 0.177549 0.033901
v 0.142319 0.177886 0.034534
v 0.142661 0.172997 0.034534
v 0.143002 0.168108 0.034534
v 0.143344 0.163220 0.034534
vn -0.0013 0.0188 -0.9998
vn -0.1002 0.0075 -0.9949
vn -0.1184 0.0269 -0.9926
vn -0.0024 0.0352 -0.9994
vn 0.0982 0.0214 -0.9949
vn 0.1134 0.0431 -0.9926
vn 0.0022 -0.0320 -0.9995
vn -0.1588 -0.0428 -0.9864
vn -0.1299 -0.0315 -0.9910
vn 0.0017 -0.0243 -0.9997
vn -0.1010 -0.0191 -0.9947
vn 0.0009 -0.0127 -0.9999
vn -0.0911 -0.0093 -0.9958
vn 0.0002 -0.0032 -1.0000
vn 0.1632 -0.0203 -0.9864
vn 0.1331 -0.0131 -0.9910
vn 0.1027 -0.0049 -0.9947
vn 0.0915 0.0034 -0.9958
usemtl feather_001
s 1
f 18//1 10//2 3//3 6//4
f 11//5 18//1 6//4 4//6
f 5//7 1//8 7//9 15//10
f 15//10 7//9 8//11 16//12
f 16//12 8//11 9//13 17//14
f 17//14 9//13 10//2 18//1
f 2//15 5//7 15//10 14//16
f 14//16 15//10 16//12 13//17
f 13//17 16//12 17//14 12//18
f 12//18 17//14 18//1 11//5
