# Blender v2.79 (sub 0) OBJ File: 'duck_base_mesh_BI.blend'
# www.blender.org
mtllib duck_feather_flight_primary_015.mtl
o feather_flight_primary_015
v 0.346381 0.185825 0.032302
v 0.341228 0.174252 0.032302
v 0.465912 0.135136 0.032302
v 0.454427 0.120150 0.032302
v 0.337744 0.182737 0.032935
v 0.463657 0.126677 0.032935
v 0.367864 0.180031 0.032302
v 0.395184 0.171036 0.032302
v 0.422079 0.161086 0.032302
v 0.448012 0.148977 0.032302
v 0.436616 0.123382 0.032302
v 0.410264 0.134551 0.032302
v 0.384874 0.147880 0.032302
v 0.359909 0.162165 0.032302
v 0.363886 0.171098 0.032935
v 0.390029 0.159458 0.032935
v 0.416171 0.147819 0.032935
v 0.442314 0.136179 0.032935
vn -0.0031 0.0010 -1.0000
vn -0.0232 -0.0441 -0.9987
vn -0.0289 -0.0486 -0.9984
vn -0.0095 -0.0060 -0.9999
vn 0.0173 0.0459 -0.9988
vn 0.0170 0.0522 -0.9985
vn 0.0050 -0.0022 -1.0000
vn -0.0277 -0.0758 -0.9967
vn -0.0237 -0.0632 -0.9977
vn 0.0038 -0.0017 -1.0000
vn -0.0188 -0.0475 -0.9987
vn 0.0020 -0.0009 -1.0000
vn -0.0179 -0.0417 -0.9990
vn 0.0005 -0.0002 -1.0000
vn 0.0378 0.0713 -0.9967
vn 0.0311 0.0599 -0.9977
vn 0.0227 0.0458 -0.9987
vn 0.0189 0.0412 -0.9990
usemtl feather_gray_003
s 1
f 18//1 10//2 3//3 6//4
f 11//5 18//1 6//4 4//6
f 5//7 1//8 7//9 15//10
f 15//10 7//9 8//11 16//12
f 16//12 8//11 9//13 17//14
f 17//14 9//13 10//2 18//1
f 2//15 5//7 15//10 14//16
f 14//16 15//10 16//12 13//17
f 13//17 16//12 17//14 12//18
f 12//18 17//14 18//1 11//5
