# Blender v2.79 (sub 0) OBJ File: 'duck_base_mesh_BI.blend'
# www.blender.org
mtllib duck_feather_tail_secondary_009.mtl
o feather_tail_secondary_009
v 0.007508 0.107779 -0.203456
v 0.013793 0.107779 -0.194558
v 0.008406 0.106154 -0.197422
v 0.013532 0.107779 -0.210707
v 0.022153 0.107779 -0.219041
v 0.033378 0.107779 -0.203150
v 0.022640 0.107779 -0.197811
v 0.018086 0.106154 -0.204259
v 0.027766 0.106154 -0.211096
v 0.052513 0.107779 -0.240261
v 0.043525 0.107779 -0.235457
v 0.032704 0.107779 -0.227441
v 0.044821 0.107779 -0.210285
v 0.055994 0.107779 -0.217804
v 0.063526 0.107779 -0.224669
v 0.060756 0.106154 -0.234398
v 0.049759 0.106154 -0.226630
v 0.038763 0.106154 -0.218863
vn -0.0238 -0.9996 0.0168
vn -0.1627 -0.9698 -0.1814
vn -0.1363 -0.9780 -0.1580
vn -0.0177 -0.9998 0.0125
vn -0.1049 -0.9855 -0.1330
vn -0.0077 -0.9999 0.0054
vn 0.1165 -0.9698 0.2140
vn 0.1033 -0.9780 0.1813
vn 0.0903 -0.9855 0.1433
vn -0.0917 -0.9880 -0.1245
vn -0.0026 -1.0000 0.0018
vn -0.0866 -0.9879 -0.1283
vn 0.0028 -1.0000 -0.0020
vn -0.0848 -0.9872 -0.1348
vn 0.0070 -0.9999 -0.0049
vn 0.0866 -0.9880 0.1280
vn 0.0919 -0.9879 0.1245
vn 0.0987 -0.9872 0.1250
usemtl feather_001
s 1
f 3//1 1//2 4//3 8//4
f 8//4 4//3 5//5 9//6
f 2//7 3//1 8//4 7//8
f 7//8 8//4 9//6 6//9
f 9//6 5//5 12//10 18//11
f 18//11 12//10 11//12 17//13
f 17//13 11//12 10//14 16//15
f 6//9 9//6 18//11 13//16
f 13//16 18//11 17//13 14//17
f 14//17 17//13 16//15 15//18
