# Blender v2.79 (sub 0) OBJ File: 'duck_base_mesh_BI.blend'
# www.blender.org
mtllib duck_feather_tail_primary_002.mtl
o feather_tail_primary_002
v 0.014021 0.107841 -0.194814
v 0.007378 0.107841 -0.203555
v 0.101322 0.107841 -0.258795
v 0.092400 0.107841 -0.270536
v 0.008532 0.109465 -0.197537
v 0.101422 0.109465 -0.268132
v 0.022695 0.107841 -0.198307
v 0.033161 0.107841 -0.203940
v 0.087094 0.107841 -0.243205
v 0.095863 0.107841 -0.251073
v 0.083497 0.107841 -0.267343
v 0.073569 0.107841 -0.261002
v 0.021297 0.107841 -0.219552
v 0.013066 0.107841 -0.210976
v 0.017881 0.109465 -0.204642
v 0.027229 0.109465 -0.211746
v 0.080332 0.109465 -0.252103
v 0.089680 0.109465 -0.259208
v 0.076516 0.107841 -0.235078
v 0.065815 0.107841 -0.227112
v 0.055060 0.107841 -0.219218
v 0.044254 0.107841 -0.211391
v 0.031445 0.107841 -0.228245
v 0.041880 0.107841 -0.236560
v 0.052366 0.107841 -0.244809
v 0.062906 0.107841 -0.252986
v 0.069711 0.109465 -0.244032
v 0.059091 0.109465 -0.235961
v 0.048470 0.109465 -0.227889
v 0.037850 0.109465 -0.219818
vn 0.0116 0.9999 -0.0088
vn 0.1116 0.9859 0.1249
vn 0.1321 0.9817 0.1366
vn 0.0183 0.9997 -0.0139
vn -0.0904 0.9859 -0.1409
vn -0.0962 0.9817 -0.1639
vn -0.0234 0.9995 0.0178
vn 0.1226 0.9703 0.2086
vn 0.1085 0.9783 0.1764
vn -0.0174 0.9998 0.0132
vn 0.0944 0.9857 0.1391
vn -0.0076 0.9999 0.0057
vn -0.0001 1.0000 0.0001
vn 0.0867 0.9896 0.1144
vn 0.0913 0.9892 0.1148
vn 0.0026 1.0000 -0.0020
vn -0.1681 0.9703 -0.1740
vn -0.1409 0.9783 -0.1517
vn -0.1088 0.9857 -0.1282
vn -0.0870 0.9896 -0.1142
vn -0.0862 0.9892 -0.1187
vn 0.0903 0.9882 0.1240
vn -0.0025 1.0000 0.0019
vn 0.0883 0.9890 0.1186
vn -0.0012 1.0000 0.0009
vn 0.0869 0.9894 0.1160
vn -0.0008 1.0000 0.0006
vn -0.0953 0.9882 -0.1202
vn -0.0906 0.9890 -0.1168
vn -0.0884 0.9894 -0.1148
usemtl feather_gray_003
s 1
f 18//1 10//2 3//3 6//4
f 11//5 18//1 6//4 4//6
f 5//7 1//8 7//9 15//10
f 15//10 7//9 8//11 16//12
f 27//13 19//14 9//15 17//16
f 17//16 9//15 10//2 18//1
f 2//17 5//7 15//10 14//18
f 14//18 15//10 16//12 13//19
f 26//20 27//13 17//16 12//21
f 12//21 17//16 18//1 11//5
f 16//12 8//11 22//22 30//23
f 30//23 22//22 21//24 29//25
f 29//25 21//24 20//26 28//27
f 28//27 20//26 19//14 27//13
f 13//19 16//12 30//23 23//28
f 23//28 30//23 29//25 24//29
f 24//29 29//25 28//27 25//30
f 25//30 28//27 27//13 26//20
