# Blender v2.79 (sub 0) OBJ File: 'duck_base_mesh_BI.blend'
# www.blender.org
mtllib duck_feather_tail_secondary_008.mtl
o feather_tail_secondary_008
v 0.008137 0.107779 -0.202898
v 0.012439 0.107779 -0.193341
v 0.007807 0.106154 -0.197003
v 0.015387 0.107779 -0.208745
v 0.025360 0.107779 -0.215169
v 0.033044 0.107779 -0.198098
v 0.021623 0.107779 -0.194892
v 0.018505 0.106154 -0.201818
v 0.029202 0.106154 -0.206634
v 0.058868 0.107779 -0.230058
v 0.049241 0.107779 -0.227056
v 0.037208 0.107779 -0.221318
v 0.045503 0.107779 -0.202890
v 0.057777 0.107779 -0.208094
v 0.066407 0.107779 -0.213309
v 0.065662 0.106154 -0.223045
v 0.053509 0.106154 -0.217575
v 0.041356 0.106154 -0.212104
vn -0.0268 -0.9995 0.0121
vn -0.1290 -0.9676 -0.2171
vn -0.1071 -0.9763 -0.1882
vn -0.0199 -0.9998 0.0090
vn -0.0804 -0.9844 -0.1564
vn -0.0087 -0.9999 0.0039
vn 0.0770 -0.9676 0.2405
vn 0.0699 -0.9763 0.2050
vn 0.0638 -0.9844 0.1639
vn -0.0687 -0.9870 -0.1451
vn -0.0029 -1.0000 0.0013
vn -0.0630 -0.9870 -0.1479
vn 0.0031 -1.0000 -0.0014
vn -0.0599 -0.9862 -0.1541
vn 0.0079 -0.9999 -0.0036
vn 0.0630 -0.9870 0.1476
vn 0.0689 -0.9870 0.1452
vn 0.0756 -0.9862 0.1470
usemtl feather_001
s 1
f 3//1 1//2 4//3 8//4
f 8//4 4//3 5//5 9//6
f 2//7 3//1 8//4 7//8
f 7//8 8//4 9//6 6//9
f 9//6 5//5 12//10 18//11
f 18//11 12//10 11//12 17//13
f 17//13 11//12 10//14 16//15
f 6//9 9//6 18//11 13//16
f 13//16 18//11 17//13 14//17
f 14//17 17//13 16//15 15//18
