# Blender v2.79 (sub 0) OBJ File: 'duck_base_mesh_BI.blend'
# www.blender.org
mtllib duck_feather_flight_tertiary_062.mtl
o feather_flight_tertiary_062
v 0.345454 0.184045 0.031372
v 0.343320 0.179975 0.031442
v 0.373312 0.170191 0.031097
v 0.370399 0.164637 0.031192
v 0.342996 0.182764 0.030747
v 0.373397 0.166610 0.030456
v 0.350686 0.182680 0.031309
v 0.357229 0.180392 0.031235
v 0.363596 0.177769 0.031167
v 0.369565 0.174386 0.031112
v 0.364844 0.165386 0.031266
v 0.358702 0.168438 0.031327
v 0.352959 0.172250 0.031375
v 0.347391 0.176397 0.031417
v 0.349051 0.179547 0.030689
v 0.355106 0.176329 0.030631
v 0.361162 0.173111 0.030573
v 0.367217 0.169894 0.030515
vn -0.0015 -0.0154 -0.9999
vn 0.0652 0.1139 -0.9913
vn 0.0881 0.1267 -0.9880
vn 0.0092 -0.0221 -0.9997
vn -0.0714 -0.1431 -0.9871
vn -0.0690 -0.1684 -0.9833
vn -0.0354 0.0033 -0.9994
vn 0.0735 0.2070 -0.9756
vn 0.0612 0.1704 -0.9835
vn -0.0304 0.0002 -0.9995
vn 0.0471 0.1264 -0.9908
vn -0.0228 -0.0044 -0.9997
vn 0.0457 0.1088 -0.9930
vn -0.0165 -0.0078 -0.9998
vn -0.1423 -0.2003 -0.9693
vn -0.1194 -0.1703 -0.9781
vn -0.0917 -0.1352 -0.9865
vn -0.0782 -0.1244 -0.9891
usemtl feather_001
s 1
f 18//1 10//2 3//3 6//4
f 11//5 18//1 6//4 4//6
f 5//7 1//8 7//9 15//10
f 15//10 7//9 8//11 16//12
f 16//12 8//11 9//13 17//14
f 17//14 9//13 10//2 18//1
f 2//15 5//7 15//10 14//16
f 14//16 15//10 16//12 13//17
f 13//17 16//12 17//14 12//18
f 12//18 17//14 18//1 11//5
