# Blender v2.79 (sub 0) OBJ File: 'duck_base_mesh_BI.blend'
# www.blender.org
mtllib duck_feather_flight_tertiary_005.mtl
o feather_flight_tertiary_005
v 0.118971 0.181622 0.033900
v 0.112272 0.181505 0.033900
v 0.120606 0.157946 0.033900
v 0.111465 0.157786 0.033900
v 0.115601 0.182774 0.034533
v 0.116059 0.156548 0.034533
v 0.120862 0.177641 0.033900
v 0.122485 0.172444 0.033900
v 0.123554 0.167237 0.033900
v 0.123373 0.162008 0.033900
v 0.108558 0.161750 0.033900
v 0.108195 0.166969 0.033900
v 0.109082 0.172210 0.033900
v 0.110521 0.177460 0.033900
v 0.115692 0.177550 0.034533
v 0.115783 0.172327 0.034533
v 0.115874 0.167103 0.034533
v 0.115965 0.161879 0.034533
vn -0.0003 0.0176 -0.9998
vn -0.0931 0.0120 -0.9956
vn -0.1091 0.0310 -0.9935
vn -0.0005 0.0331 -0.9994
vn 0.0926 0.0152 -0.9956
vn 0.1080 0.0349 -0.9935
vn 0.0005 -0.0301 -0.9995
vn -0.1504 -0.0324 -0.9881
vn -0.1228 -0.0231 -0.9922
vn 0.0004 -0.0228 -0.9997
vn -0.0952 -0.0129 -0.9954
vn 0.0002 -0.0119 -0.9999
vn -0.0855 -0.0042 -0.9963
vn 0.0000 -0.0030 -1.0000
vn 0.1515 -0.0271 -0.9881
vn 0.1236 -0.0188 -0.9922
vn 0.0956 -0.0096 -0.9954
vn 0.0855 -0.0013 -0.9963
usemtl feather_001
s 1
f 18//1 10//2 3//3 6//4
f 11//5 18//1 6//4 4//6
f 5//7 1//8 7//9 15//10
f 15//10 7//9 8//11 16//12
f 16//12 8//11 9//13 17//14
f 17//14 9//13 10//2 18//1
f 2//15 5//7 15//10 14//16
f 14//16 15//10 16//12 13//17
f 13//17 16//12 17//14 12//18
f 12//18 17//14 18//1 11//5
