# Blender v2.79 (sub 0) OBJ File: 'duck_base_mesh_BI.blend'
# www.blender.org
mtllib duck_feather_tail_primary_007.mtl
o feather_tail_primary_007
v 0.004814 0.108967 -0.204515
v -0.004814 0.108967 -0.204515
v 0.006466 0.108967 -0.302319
v -0.006466 0.108967 -0.302319
v -0.000000 0.110592 -0.202055
v -0.000000 0.110592 -0.307447
v 0.006977 0.108967 -0.212667
v 0.008598 0.108967 -0.223278
v 0.009801 0.108967 -0.283556
v 0.008961 0.108967 -0.294167
v -0.008961 0.108967 -0.294167
v -0.009801 0.108967 -0.283556
v -0.008598 0.108967 -0.223278
v -0.006977 0.108967 -0.212667
v -0.000000 0.110592 -0.212667
v -0.000000 0.110592 -0.223278
v -0.000000 0.110592 -0.283556
v -0.000000 0.110592 -0.294167
v 0.009863 0.108967 -0.271500
v 0.009746 0.108967 -0.259445
v 0.009551 0.108967 -0.247389
v 0.009282 0.108967 -0.235334
v -0.009282 0.108967 -0.235334
v -0.009551 0.108967 -0.247389
v -0.009746 0.108967 -0.259445
v -0.009863 0.108967 -0.271500
v -0.000000 0.110592 -0.271500
v -0.000000 0.110592 -0.259445
v -0.000000 0.110592 -0.247389
v -0.000000 0.110592 -0.235334
vn 0.0000 0.9998 -0.0161
vn 0.1896 0.9817 -0.0147
vn 0.2140 0.9765 -0.0249
vn 0.0000 0.9997 -0.0255
vn -0.1896 0.9817 -0.0147
vn -0.2140 0.9765 -0.0249
vn 0.0000 0.9995 0.0325
vn 0.2716 0.9619 0.0313
vn 0.2336 0.9720 0.0224
vn 0.0000 0.9997 0.0241
vn 0.1906 0.9816 0.0100
vn 0.0000 0.9999 0.0105
vn 0.0000 1.0000 0.0002
vn 0.1632 0.9866 0.0002
vn 0.1667 0.9860 -0.0035
vn 0.0000 1.0000 -0.0036
vn -0.2716 0.9619 0.0313
vn -0.2336 0.9720 0.0224
vn -0.1906 0.9816 0.0100
vn -0.1632 0.9866 0.0002
vn -0.1667 0.9860 -0.0035
vn 0.1743 0.9847 0.0034
vn 0.0000 1.0000 0.0035
vn 0.1680 0.9858 0.0016
vn 0.0000 1.0000 0.0016
vn 0.1647 0.9863 0.0010
vn 0.0000 1.0000 0.0011
vn -0.1743 0.9847 0.0034
vn -0.1680 0.9858 0.0016
vn -0.1647 0.9863 0.0010
usemtl feather_gray_003
s 1
f 18//1 10//2 3//3 6//4
f 11//5 18//1 6//4 4//6
f 5//7 1//8 7//9 15//10
f 15//10 7//9 8//11 16//12
f 27//13 19//14 9//15 17//16
f 17//16 9//15 10//2 18//1
f 2//17 5//7 15//10 14//18
f 14//18 15//10 16//12 13//19
f 26//20 27//13 17//16 12//21
f 12//21 17//16 18//1 11//5
f 16//12 8//11 22//22 30//23
f 30//23 22//22 21//24 29//25
f 29//25 21//24 20//26 28//27
f 28//27 20//26 19//14 27//13
f 13//19 16//12 30//23 23//28
f 23//28 30//23 29//25 24//29
f 24//29 29//25 28//27 25//30
f 25//30 28//27 27//13 26//20
