# Blender v2.79 (sub 0) OBJ File: 'duck_base_mesh_BI.blend'
# www.blender.org
mtllib duck_feather_flight_tertiary_060.mtl
o feather_flight_tertiary_060
v 0.326730 0.184261 0.031347
v 0.323290 0.179481 0.031437
v 0.350365 0.168322 0.031070
v 0.345670 0.161800 0.031193
v 0.323848 0.182736 0.030769
v 0.349311 0.164132 0.030481
v 0.331561 0.182714 0.031278
v 0.337419 0.180100 0.031200
v 0.342993 0.177092 0.031129
v 0.347925 0.173193 0.031076
v 0.340318 0.162622 0.031276
v 0.335106 0.166134 0.031337
v 0.330536 0.170537 0.031381
v 0.326251 0.175335 0.031418
v 0.328919 0.179030 0.030712
v 0.333991 0.175325 0.030655
v 0.339063 0.171619 0.030597
v 0.344135 0.167913 0.030540
vn -0.0042 -0.0153 -0.9998
vn 0.0568 0.0725 -0.9957
vn 0.0794 0.0773 -0.9938
vn 0.0058 -0.0235 -0.9997
vn -0.0693 -0.1002 -0.9925
vn -0.0669 -0.1226 -0.9902
vn -0.0360 0.0088 -0.9993
vn 0.0655 0.1471 -0.9869
vn 0.0533 0.1188 -0.9915
vn -0.0315 0.0046 -0.9995
vn 0.0405 0.0872 -0.9954
vn -0.0243 -0.0009 -0.9997
vn 0.0394 0.0734 -0.9965
vn -0.0183 -0.0053 -0.9998
vn -0.1369 -0.1304 -0.9819
vn -0.1139 -0.1106 -0.9873
vn -0.0882 -0.0893 -0.9921
vn -0.0757 -0.0842 -0.9936
usemtl feather_001
s 1
f 18//1 10//2 3//3 6//4
f 11//5 18//1 6//4 4//6
f 5//7 1//8 7//9 15//10
f 15//10 7//9 8//11 16//12
f 16//12 8//11 9//13 17//14
f 17//14 9//13 10//2 18//1
f 2//15 5//7 15//10 14//16
f 14//16 15//10 16//12 13//17
f 13//17 16//12 17//14 12//18
f 12//18 17//14 18//1 11//5
