# Blender v2.79 (sub 0) OBJ File: 'duck_base_mesh_BI.blend'
# www.blender.org
mtllib duck_feather_flight_secondary_011.mtl
o feather_flight_secondary_011
v 0.269254 0.182497 0.033101
v 0.260003 0.177823 0.033135
v 0.296807 0.132276 0.033467
v 0.282522 0.127231 0.033504
v 0.263307 0.182764 0.033732
v 0.290769 0.128538 0.034127
v 0.276149 0.175119 0.033154
v 0.283965 0.164929 0.033229
v 0.291018 0.154352 0.033306
v 0.296344 0.142904 0.033389
v 0.275884 0.132567 0.033465
v 0.269807 0.143636 0.033384
v 0.265456 0.155577 0.033297
v 0.261868 0.167904 0.033207
v 0.269009 0.171506 0.033814
v 0.274710 0.160247 0.033896
v 0.280412 0.148988 0.033978
v 0.286114 0.137730 0.034060
vn -0.0038 -0.0008 -1.0000
vn -0.0568 -0.0284 -0.9980
vn -0.0680 -0.0248 -0.9973
vn -0.0122 0.0024 -0.9999
vn 0.0503 0.0249 -0.9984
vn 0.0537 0.0345 -0.9980
vn 0.0057 -0.0184 -0.9998
vn -0.0821 -0.0627 -0.9946
vn -0.0685 -0.0520 -0.9963
vn 0.0043 -0.0157 -0.9998
vn -0.0533 -0.0396 -0.9978
vn 0.0022 -0.0117 -0.9999
vn -0.0489 -0.0334 -0.9982
vn 0.0005 -0.0084 -0.9999
vn 0.0934 0.0261 -0.9953
vn 0.0766 0.0215 -0.9968
vn 0.0576 0.0165 -0.9982
vn 0.0500 0.0167 -0.9986
usemtl feather_gray_002
s 1
f 18//1 10//2 3//3 6//4
f 11//5 18//1 6//4 4//6
f 5//7 1//8 7//9 15//10
f 15//10 7//9 8//11 16//12
f 16//12 8//11 9//13 17//14
f 17//14 9//13 10//2 18//1
f 2//15 5//7 15//10 14//16
f 14//16 15//10 16//12 13//17
f 13//17 16//12 17//14 12//18
f 12//18 17//14 18//1 11//5
