# Blender v2.79 (sub 0) OBJ File: 'duck_base_mesh_BI.blend'
# www.blender.org
mtllib duck_feather_flight_tertiary_043.mtl
o feather_flight_tertiary_043
v 0.174418 0.181464 0.031405
v 0.167218 0.181402 0.031405
v 0.175956 0.155231 0.031405
v 0.166132 0.155147 0.031405
v 0.170806 0.182774 0.030772
v 0.171057 0.153729 0.030772
v 0.176413 0.177037 0.031405
v 0.178108 0.171266 0.031405
v 0.179209 0.165490 0.031405
v 0.178967 0.159702 0.031405
v 0.163045 0.159564 0.031405
v 0.162703 0.165347 0.031405
v 0.163704 0.171142 0.031405
v 0.165299 0.176941 0.031405
v 0.170856 0.176989 0.030772
v 0.170906 0.171204 0.030772
v 0.170956 0.165418 0.030772
v 0.171006 0.159633 0.030772
vn 0.0001 -0.0159 -0.9998
vn 0.0867 -0.0116 -0.9962
vn 0.1014 -0.0289 -0.9944
vn 0.0002 -0.0299 -0.9995
vn -0.0865 -0.0131 -0.9962
vn -0.1009 -0.0306 -0.9944
vn -0.0002 0.0272 -0.9996
vn 0.1405 0.0281 -0.9897
vn 0.1147 0.0200 -0.9932
vn -0.0002 0.0206 -0.9998
vn 0.0888 0.0110 -0.9960
vn -0.0001 0.0107 -0.9999
vn 0.0796 0.0032 -0.9968
vn 0.0000 0.0027 -1.0000
vn -0.1409 0.0257 -0.9897
vn -0.1151 0.0180 -0.9932
vn -0.0890 0.0095 -0.9960
vn -0.0796 0.0018 -0.9968
usemtl feather_001
s 1
f 18//1 10//2 3//3 6//4
f 11//5 18//1 6//4 4//6
f 5//7 1//8 7//9 15//10
f 15//10 7//9 8//11 16//12
f 16//12 8//11 9//13 17//14
f 17//14 9//13 10//2 18//1
f 2//15 5//7 15//10 14//16
f 14//16 15//10 16//12 13//17
f 13//17 16//12 17//14 12//18
f 12//18 17//14 18//1 11//5
