# Blender v2.79 (sub 0) OBJ File: 'duck_base_mesh_BI.blend'
# www.blender.org
mtllib duck_feather_flight_secondary_029.mtl
o feather_flight_secondary_029
v 0.304456 0.184321 0.032087
v 0.296167 0.176541 0.032143
v 0.349075 0.139812 0.032068
v 0.335602 0.130091 0.032149
v 0.298111 0.182781 0.031483
v 0.343881 0.134017 0.031473
v 0.314009 0.178659 0.032071
v 0.325406 0.170313 0.032056
v 0.336119 0.161324 0.032046
v 0.345285 0.150884 0.032046
v 0.326955 0.133678 0.032169
v 0.317116 0.143486 0.032173
v 0.308823 0.154747 0.032167
v 0.301214 0.166649 0.032156
v 0.307614 0.172657 0.031481
v 0.317117 0.162532 0.031479
v 0.326620 0.152408 0.031476
v 0.336123 0.142283 0.031474
vn 0.0013 -0.0078 -0.9999
vn 0.0407 0.0298 -0.9987
vn 0.0514 0.0297 -0.9982
vn 0.0095 -0.0085 -0.9999
vn -0.0394 -0.0442 -0.9982
vn -0.0399 -0.0534 -0.9977
vn -0.0114 0.0051 -0.9999
vn 0.0541 0.0665 -0.9963
vn 0.0449 0.0535 -0.9975
vn -0.0095 0.0031 -0.9999
vn 0.0348 0.0388 -0.9986
vn -0.0067 0.0001 -1.0000
vn 0.0325 0.0322 -0.9989
vn -0.0044 -0.0023 -1.0000
vn -0.0767 -0.0563 -0.9955
vn -0.0632 -0.0479 -0.9968
vn -0.0479 -0.0388 -0.9981
vn -0.0412 -0.0370 -0.9984
usemtl feather_gray_002
s 1
f 18//1 10//2 3//3 6//4
f 11//5 18//1 6//4 4//6
f 5//7 1//8 7//9 15//10
f 15//10 7//9 8//11 16//12
f 16//12 8//11 9//13 17//14
f 17//14 9//13 10//2 18//1
f 2//15 5//7 15//10 14//16
f 14//16 15//10 16//12 13//17
f 13//17 16//12 17//14 12//18
f 12//18 17//14 18//1 11//5
