# Blender v2.79 (sub 0) OBJ File: 'duck_base_mesh_BI.blend'
# www.blender.org
mtllib duck_feather_flight_tertiary_024.mtl
o feather_flight_tertiary_024
v 0.289308 0.183497 0.033900
v 0.283070 0.179785 0.033900
v 0.303639 0.162004 0.033900
v 0.295125 0.156938 0.033900
v 0.285515 0.182774 0.034533
v 0.300116 0.158237 0.034533
v 0.293238 0.180752 0.033900
v 0.297572 0.176713 0.033900
v 0.301391 0.172368 0.033900
v 0.304046 0.167330 0.033900
v 0.290250 0.159120 0.033900
v 0.287088 0.163857 0.033900
v 0.285091 0.169286 0.033900
v 0.283608 0.175022 0.033900
v 0.288423 0.177887 0.034533
v 0.291331 0.173000 0.034533
v 0.294240 0.168112 0.034533
v 0.297148 0.163225 0.034533
vn -0.0083 0.0139 -0.9998
vn -0.0801 -0.0331 -0.9962
vn -0.1017 -0.0252 -0.9945
vn -0.0156 0.0262 -0.9995
vn 0.0673 0.0546 -0.9962
vn 0.0707 0.0773 -0.9945
vn 0.0141 -0.0238 -0.9996
vn -0.1059 -0.0949 -0.9898
vn -0.0880 -0.0748 -0.9933
vn 0.0107 -0.0180 -0.9998
vn -0.0704 -0.0540 -0.9960
vn 0.0056 -0.0094 -0.9999
vn -0.0666 -0.0426 -0.9969
vn 0.0014 -0.0024 -1.0000
vn 0.1339 0.0478 -0.9898
vn 0.1077 0.0416 -0.9933
vn 0.0810 0.0361 -0.9960
vn 0.0692 0.0382 -0.9969
usemtl feather_001
s 1
f 18//1 10//2 3//3 6//4
f 11//5 18//1 6//4 4//6
f 5//7 1//8 7//9 15//10
f 15//10 7//9 8//11 16//12
f 16//12 8//11 9//13 17//14
f 17//14 9//13 10//2 18//1
f 2//15 5//7 15//10 14//16
f 14//16 15//10 16//12 13//17
f 13//17 16//12 17//14 12//18
f 12//18 17//14 18//1 11//5
