# Blender v2.79 (sub 0) OBJ File: 'duck_base_mesh_BI.blend'
# www.blender.org
mtllib duck_feather_flight_primary_005.mtl
o feather_flight_primary_005
v 0.161568 0.178173 0.032302
v 0.151430 0.177819 0.032302
v 0.166681 0.084738 0.032302
v 0.152847 0.089869 0.032302
v 0.156332 0.182774 0.032934
v 0.159946 0.084909 0.032935
v 0.164877 0.162436 0.032302
v 0.167913 0.141906 0.032302
v 0.170113 0.121346 0.032302
v 0.170421 0.100721 0.032302
v 0.148001 0.099938 0.032302
v 0.146869 0.120535 0.032302
v 0.147630 0.141198 0.032302
v 0.149227 0.161890 0.032302
v 0.157052 0.162163 0.032934
v 0.157772 0.141552 0.032934
v 0.158491 0.120941 0.032934
v 0.159211 0.100329 0.032934
vn 0.0009 0.0060 -1.0000
vn -0.0621 0.0023 -0.9980
vn -0.0704 0.0067 -0.9975
vn -0.0192 0.0100 -0.9998
vn 0.0627 0.0081 -0.9980
vn 0.0729 0.0159 -0.9972
vn 0.0002 -0.0076 -1.0000
vn -0.1000 -0.0111 -0.9949
vn -0.0837 -0.0085 -0.9964
vn 0.0002 -0.0058 -1.0000
vn -0.0636 -0.0052 -0.9980
vn 0.0001 -0.0030 -1.0000
vn -0.0566 -0.0027 -0.9984
vn 0.0000 -0.0008 -1.0000
vn 0.1006 -0.0041 -0.9949
vn 0.0840 -0.0027 -0.9964
vn 0.0638 -0.0007 -0.9980
vn 0.0566 0.0012 -0.9984
usemtl feather_gray_003
s 1
f 18//1 10//2 3//3 6//4
f 11//5 18//1 6//4 4//6
f 5//7 1//8 7//9 15//10
f 15//10 7//9 8//11 16//12
f 16//12 8//11 9//13 17//14
f 17//14 9//13 10//2 18//1
f 2//15 5//7 15//10 14//16
f 14//16 15//10 16//12 13//17
f 13//17 16//12 17//14 12//18
f 12//18 17//14 18//1 11//5
