# Blender v2.79 (sub 0) OBJ File: 'duck_base_mesh_BI.blend'
# www.blender.org
mtllib duck_feather_tail_primary_003.mtl
o feather_tail_primary_003
v 0.014824 0.107841 -0.196228
v 0.006403 0.107841 -0.203748
v 0.085824 0.107841 -0.272824
v 0.074513 0.107841 -0.282925
v 0.008864 0.109465 -0.198029
v 0.083850 0.109465 -0.281998
v 0.022514 0.107841 -0.201029
v 0.031478 0.107841 -0.208214
v 0.075398 0.107841 -0.255276
v 0.082209 0.107841 -0.264384
v 0.066534 0.107841 -0.278382
v 0.058252 0.107841 -0.270588
v 0.016437 0.107841 -0.221646
v 0.010308 0.107841 -0.211930
v 0.016411 0.109465 -0.206479
v 0.023957 0.109465 -0.214930
v 0.066825 0.109465 -0.262932
v 0.074371 0.109465 -0.271383
v 0.066878 0.107841 -0.245628
v 0.058202 0.107841 -0.236119
v 0.049458 0.107841 -0.226671
v 0.040650 0.107841 -0.217280
v 0.024412 0.107841 -0.231781
v 0.032750 0.107841 -0.241591
v 0.041153 0.107841 -0.251344
v 0.049624 0.107841 -0.261036
v 0.058251 0.109465 -0.253332
v 0.049678 0.109465 -0.243731
v 0.041104 0.109465 -0.234131
v 0.032531 0.109465 -0.224531
vn 0.0100 0.9999 -0.0113
vn 0.1302 0.9866 0.0979
vn 0.1526 0.9827 0.1049
vn 0.0159 0.9997 -0.0178
vn -0.1119 0.9866 -0.1183
vn -0.1214 0.9827 -0.1398
vn -0.0203 0.9995 0.0227
vn 0.1548 0.9718 0.1780
vn 0.1354 0.9795 0.1492
vn -0.0151 0.9997 0.0169
vn 0.1156 0.9865 0.1158
vn -0.0066 0.9999 0.0074
vn -0.0001 1.0000 0.0001
vn 0.1041 0.9902 0.0932
vn 0.1086 0.9897 0.0926
vn 0.0023 1.0000 -0.0025
vn -0.1943 0.9718 -0.1337
vn -0.1635 0.9795 -0.1177
vn -0.1281 0.9865 -0.1018
vn -0.1043 0.9902 -0.0929
vn -0.1043 0.9897 -0.0975
vn 0.1091 0.9888 0.1018
vn -0.0022 1.0000 0.0025
vn 0.1062 0.9896 0.0969
vn -0.0010 1.0000 0.0011
vn 0.1045 0.9900 0.0947
vn -0.0007 1.0000 0.0007
vn -0.1135 0.9888 -0.0970
vn -0.1083 0.9896 -0.0946
vn -0.1058 0.9900 -0.0932
usemtl feather_gray_003
s 1
f 18//1 10//2 3//3 6//4
f 11//5 18//1 6//4 4//6
f 5//7 1//8 7//9 15//10
f 15//10 7//9 8//11 16//12
f 27//13 19//14 9//15 17//16
f 17//16 9//15 10//2 18//1
f 2//17 5//7 15//10 14//18
f 14//18 15//10 16//12 13//19
f 26//20 27//13 17//16 12//21
f 12//21 17//16 18//1 11//5
f 16//12 8//11 22//22 30//23
f 30//23 22//22 21//24 29//25
f 29//25 21//24 20//26 28//27
f 28//27 20//26 19//14 27//13
f 13//19 16//12 30//23 23//28
f 23//28 30//23 29//25 24//29
f 24//29 29//25 28//27 25//30
f 25//30 28//27 27//13 26//20
