# Blender v2.79 (sub 0) OBJ File: 'duck_base_mesh_BI.blend'
# www.blender.org
mtllib duck_feather_tail_secondary_012.mtl
o feather_tail_secondary_012
v 0.005634 0.106490 -0.203831
v 0.016667 0.106490 -0.200082
v 0.010344 0.104865 -0.199582
v 0.005828 0.106490 -0.212540
v 0.007451 0.106490 -0.223413
v 0.027156 0.106490 -0.216718
v 0.021819 0.106490 -0.207107
v 0.013824 0.104865 -0.209824
v 0.017303 0.104865 -0.220066
v 0.018512 0.106490 -0.255361
v 0.014266 0.106490 -0.247055
v 0.010620 0.106490 -0.235315
v 0.031893 0.106490 -0.228087
v 0.036155 0.106490 -0.239618
v 0.037847 0.106490 -0.248792
v 0.029163 0.104865 -0.254972
v 0.025210 0.104865 -0.243337
v 0.021257 0.104865 -0.231701
vn -0.0103 -0.9995 0.0302
vn -0.2250 -0.9734 -0.0436
vn -0.1908 -0.9807 -0.0416
vn -0.0076 -0.9997 0.0225
vn -0.1531 -0.9873 -0.0417
vn -0.0033 -0.9999 0.0098
vn 0.2050 -0.9734 0.1025
vn 0.1766 -0.9807 0.0833
vn 0.1467 -0.9873 0.0602
vn -0.1381 -0.9894 -0.0433
vn -0.0011 -1.0000 0.0033
vn -0.1360 -0.9894 -0.0499
vn 0.0012 -1.0000 -0.0036
vn -0.1380 -0.9888 -0.0567
vn 0.0030 -0.9999 -0.0089
vn 0.1359 -0.9894 0.0497
vn 0.1383 -0.9894 0.0433
vn 0.1440 -0.9888 0.0391
usemtl feather_001
s 1
f 3//1 1//2 4//3 8//4
f 8//4 4//3 5//5 9//6
f 2//7 3//1 8//4 7//8
f 7//8 8//4 9//6 6//9
f 9//6 5//5 12//10 18//11
f 18//11 12//10 11//12 17//13
f 17//13 11//12 10//14 16//15
f 6//9 9//6 18//11 13//16
f 13//16 18//11 17//13 14//17
f 14//17 17//13 16//15 15//18
