# Blender v2.79 (sub 0) OBJ File: 'duck_base_mesh_BI.blend'
# www.blender.org
mtllib duck_feather_flight_tertiary_053.mtl
o feather_flight_tertiary_053
v 0.262431 0.182440 0.031422
v 0.256274 0.180361 0.031377
v 0.272658 0.155936 0.031325
v 0.264255 0.153099 0.031263
v 0.258883 0.182770 0.030772
v 0.268959 0.153017 0.030655
v 0.265647 0.178453 0.031417
v 0.269061 0.173001 0.031404
v 0.271967 0.167379 0.031388
v 0.273724 0.161368 0.031362
v 0.260106 0.156771 0.031262
v 0.257849 0.162613 0.031283
v 0.256741 0.168843 0.031313
v 0.256142 0.175244 0.031347
v 0.260890 0.176844 0.030748
v 0.262897 0.170918 0.030725
v 0.264904 0.164991 0.030702
v 0.266911 0.159065 0.030679
vn 0.0100 -0.0082 -0.9999
vn 0.1004 0.0253 -0.9946
vn 0.1201 0.0155 -0.9926
vn 0.0143 -0.0205 -0.9997
vn -0.0822 -0.0366 -0.9959
vn -0.0920 -0.0564 -0.9941
vn -0.0029 0.0295 -0.9995
vn 0.1445 0.0790 -0.9863
vn 0.1208 0.0635 -0.9906
vn -0.0009 0.0237 -0.9997
vn 0.0957 0.0464 -0.9943
vn 0.0021 0.0151 -0.9999
vn 0.0881 0.0362 -0.9954
vn 0.0045 0.0081 -0.9999
vn -0.1503 -0.0207 -0.9884
vn -0.1218 -0.0185 -0.9924
vn -0.0912 -0.0169 -0.9957
vn -0.0790 -0.0203 -0.9966
usemtl feather_001
s 1
f 18//1 10//2 3//3 6//4
f 11//5 18//1 6//4 4//6
f 5//7 1//8 7//9 15//10
f 15//10 7//9 8//11 16//12
f 16//12 8//11 9//13 17//14
f 17//14 9//13 10//2 18//1
f 2//15 5//7 15//10 14//16
f 14//16 15//10 16//12 13//17
f 13//17 16//12 17//14 12//18
f 12//18 17//14 18//1 11//5
