# Blender v2.79 (sub 0) OBJ File: 'duck_base_mesh_BI.blend'
# www.blender.org
mtllib duck_feather_tail_secondary_004.mtl
o feather_tail_secondary_004
v 0.016012 0.109602 -0.197913
v 0.006146 0.109602 -0.203787
v 0.009767 0.111226 -0.198646
v 0.022576 0.109602 -0.203895
v 0.029895 0.109602 -0.212412
v 0.012273 0.109602 -0.222903
v 0.008275 0.109602 -0.212408
v 0.015425 0.111226 -0.208152
v 0.021084 0.111226 -0.217657
v 0.047416 0.109602 -0.242219
v 0.043729 0.109602 -0.233428
v 0.037025 0.109602 -0.222793
v 0.018000 0.109602 -0.234119
v 0.024154 0.109602 -0.245082
v 0.030125 0.109602 -0.252513
v 0.040370 0.111226 -0.250054
v 0.033941 0.111226 -0.239255
v 0.027513 0.111226 -0.228456
vn -0.0160 0.9995 0.0268
vn 0.1823 0.9726 0.1439
vn 0.1582 0.9802 0.1193
vn -0.0118 0.9997 0.0199
vn 0.1331 0.9869 0.0904
vn -0.0052 0.9999 0.0087
vn -0.2134 0.9726 -0.0917
vn -0.1803 0.9802 -0.0822
vn -0.1429 0.9869 -0.0739
vn 0.1244 0.9891 0.0779
vn -0.0017 1.0000 0.0029
vn 0.1280 0.9891 0.0722
vn 0.0019 1.0000 -0.0031
vn 0.1344 0.9885 0.0694
vn 0.0047 0.9999 -0.0079
vn -0.1278 0.9891 -0.0722
vn -0.1245 0.9891 -0.0781
vn -0.1251 0.9885 -0.0851
usemtl feather_001
s 1
f 3//1 1//2 4//3 8//4
f 8//4 4//3 5//5 9//6
f 2//7 3//1 8//4 7//8
f 7//8 8//4 9//6 6//9
f 9//6 5//5 12//10 18//11
f 18//11 12//10 11//12 17//13
f 17//13 11//12 10//14 16//15
f 6//9 9//6 18//11 13//16
f 13//16 18//11 17//13 14//17
f 14//17 17//13 16//15 15//18
