# Blender v2.79 (sub 0) OBJ File: 'duck_base_mesh_BI.blend'
# www.blender.org
mtllib duck_feather_flight_secondary_021.mtl
o feather_flight_secondary_021
v 0.161042 0.180323 0.032116
v 0.151805 0.180001 0.032116
v 0.164511 0.129270 0.032116
v 0.151063 0.130533 0.032116
v 0.156332 0.182774 0.031483
v 0.158227 0.128506 0.031483
v 0.163855 0.171756 0.032116
v 0.166359 0.160562 0.032116
v 0.168101 0.149342 0.032116
v 0.168120 0.138061 0.032116
v 0.147692 0.137348 0.032116
v 0.146924 0.148602 0.032116
v 0.147879 0.159917 0.032116
v 0.149596 0.171258 0.032116
v 0.156726 0.171507 0.031483
v 0.157119 0.160240 0.031483
v 0.157512 0.148972 0.031483
v 0.157906 0.137705 0.031483
vn 0.0008 -0.0083 -0.9999
vn 0.0677 -0.0052 -0.9977
vn 0.0774 -0.0141 -0.9969
vn 0.0078 -0.0155 -0.9998
vn -0.0663 -0.0089 -0.9977
vn -0.0743 -0.0171 -0.9971
vn -0.0005 0.0139 -0.9999
vn 0.1095 0.0177 -0.9938
vn 0.0906 0.0132 -0.9958
vn -0.0004 0.0106 -0.9999
vn 0.0694 0.0078 -0.9975
vn -0.0002 0.0055 -1.0000
vn 0.0620 0.0035 -0.9980
vn -0.0000 0.0014 -1.0000
vn -0.1105 0.0100 -0.9938
vn -0.0913 0.0068 -0.9958
vn -0.0698 0.0029 -0.9975
vn -0.0621 -0.0008 -0.9980
usemtl feather_gray_002
s 1
f 18//1 10//2 3//3 6//4
f 11//5 18//1 6//4 4//6
f 5//7 1//8 7//9 15//10
f 15//10 7//9 8//11 16//12
f 16//12 8//11 9//13 17//14
f 17//14 9//13 10//2 18//1
f 2//15 5//7 15//10 14//16
f 14//16 15//10 16//12 13//17
f 13//17 16//12 17//14 12//18
f 12//18 17//14 18//1 11//5
