# Blender v2.79 (sub 0) OBJ File: 'duck_base_mesh_BI.blend'
# www.blender.org
mtllib duck_feather_flight_secondary_012.mtl
o feather_flight_secondary_012
v 0.286962 0.183376 0.033070
v 0.277665 0.176907 0.033153
v 0.324596 0.133036 0.033298
v 0.309904 0.125405 0.033410
v 0.280474 0.182769 0.033732
v 0.318632 0.128068 0.033990
v 0.295575 0.176410 0.033089
v 0.305622 0.166531 0.033123
v 0.314902 0.156119 0.033165
v 0.322447 0.144499 0.033222
v 0.301886 0.130193 0.033405
v 0.293586 0.141288 0.033354
v 0.287021 0.153589 0.033289
v 0.281223 0.166425 0.033216
v 0.288396 0.171412 0.033786
v 0.296319 0.160054 0.033839
v 0.304241 0.148697 0.033893
v 0.312164 0.137340 0.033947
vn -0.0080 -0.0020 -0.9999
vn -0.0525 -0.0338 -0.9980
vn -0.0631 -0.0320 -0.9975
vn -0.0160 -0.0002 -0.9998
vn 0.0378 0.0283 -0.9989
vn 0.0396 0.0374 -0.9985
vn 0.0028 -0.0166 -0.9998
vn -0.0710 -0.0681 -0.9951
vn -0.0601 -0.0566 -0.9966
vn 0.0012 -0.0144 -0.9999
vn -0.0479 -0.0435 -0.9979
vn -0.0012 -0.0110 -0.9999
vn -0.0447 -0.0372 -0.9983
vn -0.0031 -0.0082 -0.9999
vn 0.0767 0.0350 -0.9964
vn 0.0621 0.0286 -0.9977
vn 0.0455 0.0217 -0.9987
vn 0.0385 0.0208 -0.9990
usemtl feather_gray_002
s 1
f 18//1 10//2 3//3 6//4
f 11//5 18//1 6//4 4//6
f 5//7 1//8 7//9 15//10
f 15//10 7//9 8//11 16//12
f 16//12 8//11 9//13 17//14
f 17//14 9//13 10//2 18//1
f 2//15 5//7 15//10 14//16
f 14//16 15//10 16//12 13//17
f 13//17 16//12 17//14 12//18
f 12//18 17//14 18//1 11//5
