# Blender v2.79 (sub 0) OBJ File: 'duck_base_mesh_BI.blend'
# www.blender.org
mtllib duck_feather_flight_primary_004.mtl
o feather_flight_primary_004
v 0.143228 0.178083 0.032302
v 0.133275 0.178083 0.032302
v 0.145043 0.086286 0.032302
v 0.131460 0.091899 0.032302
v 0.138251 0.182774 0.032935
v 0.138251 0.086792 0.032935
v 0.145934 0.162538 0.032302
v 0.148209 0.142302 0.032302
v 0.149662 0.122066 0.032302
v 0.149258 0.101830 0.032302
v 0.127245 0.101830 0.032302
v 0.126841 0.122066 0.032302
v 0.128294 0.142302 0.032302
v 0.130569 0.162538 0.032302
v 0.138251 0.162538 0.032935
v 0.138251 0.142302 0.032935
v 0.138251 0.122066 0.032935
v 0.138251 0.101830 0.032935
vn 0.0009 0.0059 -1.0000
vn -0.0628 0.0047 -0.9980
vn -0.0706 0.0097 -0.9974
vn -0.0183 0.0108 -0.9998
vn 0.0640 0.0056 -0.9979
vn 0.0745 0.0126 -0.9971
vn 0.0000 -0.0078 -1.0000
vn -0.1023 -0.0077 -0.9947
vn -0.0855 -0.0057 -0.9963
vn 0.0000 -0.0059 -1.0000
vn -0.0649 -0.0030 -0.9979
vn 0.0000 -0.0031 -1.0000
vn -0.0577 -0.0007 -0.9983
vn 0.0000 -0.0008 -1.0000
vn 0.1023 -0.0077 -0.9947
vn 0.0855 -0.0057 -0.9963
vn 0.0649 -0.0030 -0.9979
vn 0.0577 -0.0007 -0.9983
usemtl feather_gray_003
s 1
f 18//1 10//2 3//3 6//4
f 11//5 18//1 6//4 4//6
f 5//7 1//8 7//9 15//10
f 15//10 7//9 8//11 16//12
f 16//12 8//11 9//13 17//14
f 17//14 9//13 10//2 18//1
f 2//15 5//7 15//10 14//16
f 14//16 15//10 16//12 13//17
f 13//17 16//12 17//14 12//18
f 12//18 17//14 18//1 11//5
