# Blender v2.79 (sub 0) OBJ File: 'duck_base_mesh_BI.blend'
# www.blender.org
mtllib duck_feather_flight_tertiary_045.mtl
o feather_flight_tertiary_045
v 0.191782 0.181682 0.031404
v 0.184980 0.181240 0.031399
v 0.194692 0.156066 0.031356
v 0.185409 0.155464 0.031349
v 0.188295 0.182773 0.030771
v 0.190143 0.154334 0.030717
v 0.193914 0.177451 0.031397
v 0.195837 0.171887 0.031387
v 0.197198 0.166287 0.031377
v 0.197290 0.160604 0.031366
v 0.182246 0.159628 0.031355
v 0.181601 0.165275 0.031366
v 0.182227 0.171004 0.031377
v 0.183413 0.176769 0.031389
v 0.188663 0.177108 0.030760
v 0.189031 0.171444 0.030749
v 0.189399 0.165779 0.030739
v 0.189767 0.160115 0.030728
vn 0.0016 -0.0143 -0.9999
vn 0.0927 -0.0048 -0.9957
vn 0.1091 -0.0214 -0.9938
vn 0.0026 -0.0285 -0.9996
vn -0.0899 -0.0167 -0.9958
vn -0.1040 -0.0352 -0.9939
vn -0.0012 0.0296 -0.9995
vn 0.1469 0.0389 -0.9884
vn 0.1205 0.0292 -0.9923
vn -0.0008 0.0229 -0.9997
vn 0.0936 0.0184 -0.9954
vn -0.0001 0.0129 -0.9999
vn 0.0843 0.0099 -0.9964
vn 0.0004 0.0047 -1.0000
vn -0.1493 0.0197 -0.9886
vn -0.1219 0.0134 -0.9924
vn -0.0938 0.0063 -0.9955
vn -0.0835 -0.0009 -0.9965
usemtl feather_001
s 1
f 18//1 10//2 3//3 6//4
f 11//5 18//1 6//4 4//6
f 5//7 1//8 7//9 15//10
f 15//10 7//9 8//11 16//12
f 16//12 8//11 9//13 17//14
f 17//14 9//13 10//2 18//1
f 2//15 5//7 15//10 14//16
f 14//16 15//10 16//12 13//17
f 13//17 16//12 17//14 12//18
f 12//18 17//14 18//1 11//5
