# Blender v2.79 (sub 0) OBJ File: 'duck_base_mesh_BI.blend'
# www.blender.org
mtllib duck_feather_tail_secondary_003.mtl
o feather_tail_secondary_003
v 0.014733 0.109699 -0.196077
v 0.006470 0.109699 -0.203719
v 0.008810 0.111324 -0.197962
v 0.022524 0.109699 -0.200777
v 0.031641 0.109699 -0.207843
v 0.016883 0.109699 -0.221493
v 0.010548 0.109699 -0.211853
v 0.016536 0.111324 -0.206315
v 0.024262 0.111324 -0.214668
v 0.055649 0.109699 -0.234080
v 0.050013 0.109699 -0.226067
v 0.041005 0.109699 -0.216790
v 0.025074 0.109699 -0.231526
v 0.033620 0.109699 -0.241229
v 0.041170 0.109699 -0.247472
v 0.050594 0.111324 -0.243138
v 0.041817 0.111324 -0.233648
v 0.033039 0.111324 -0.224158
vn -0.0206 0.9995 0.0223
vn 0.1523 0.9716 0.1810
vn 0.1333 0.9793 0.1519
vn -0.0153 0.9997 0.0165
vn 0.1139 0.9864 0.1181
vn -0.0067 0.9999 0.0072
vn -0.1923 0.9716 -0.1377
vn -0.1618 0.9793 -0.1211
vn -0.1266 0.9864 -0.1044
vn 0.1077 0.9887 0.1040
vn -0.0022 1.0000 0.0024
vn 0.1123 0.9887 0.0993
vn 0.0024 1.0000 -0.0026
vn 0.1191 0.9880 0.0981
vn 0.0061 0.9999 -0.0066
vn -0.1121 0.9887 -0.0993
vn -0.1077 0.9887 -0.1042
vn -0.1071 0.9880 -0.1111
usemtl feather_001
s 1
f 3//1 1//2 4//3 8//4
f 8//4 4//3 5//5 9//6
f 2//7 3//1 8//4 7//8
f 7//8 8//4 9//6 6//9
f 9//6 5//5 12//10 18//11
f 18//11 12//10 11//12 17//13
f 17//13 11//12 10//14 16//15
f 6//9 9//6 18//11 13//16
f 13//16 18//11 17//13 14//17
f 14//17 17//13 16//15 15//18
