# Blender v2.79 (sub 0) OBJ File: 'duck_base_mesh_BI.blend'
# www.blender.org
mtllib duck_feather_flight_secondary_024.mtl
o feather_flight_secondary_024
v 0.216332 0.180811 0.032116
v 0.206246 0.179033 0.032116
v 0.228013 0.125322 0.032116
v 0.213061 0.124635 0.032116
v 0.210786 0.182774 0.031483
v 0.221235 0.123515 0.031483
v 0.220741 0.171843 0.032116
v 0.225215 0.159946 0.032116
v 0.228857 0.147902 0.032116
v 0.230617 0.135527 0.032116
v 0.208311 0.131593 0.032116
v 0.205732 0.143825 0.032116
v 0.205035 0.156388 0.032116
v 0.205171 0.169098 0.032116
v 0.212956 0.170471 0.031483
v 0.215125 0.158167 0.031483
v 0.217295 0.145864 0.031483
v 0.219464 0.133560 0.031483
vn 0.0018 -0.0073 -1.0000
vn 0.0612 0.0038 -0.9981
vn 0.0710 -0.0029 -0.9975
vn 0.0089 -0.0129 -0.9998
vn -0.0581 -0.0163 -0.9982
vn -0.0642 -0.0246 -0.9976
vn -0.0022 0.0124 -0.9999
vn 0.0958 0.0296 -0.9949
vn 0.0794 0.0232 -0.9966
vn -0.0016 0.0094 -0.9999
vn 0.0611 0.0157 -0.9980
vn -0.0009 0.0049 -1.0000
vn 0.0550 0.0109 -0.9984
vn -0.0002 0.0012 -1.0000
vn -0.1001 -0.0049 -0.9949
vn -0.0826 -0.0053 -0.9966
vn -0.0628 -0.0062 -0.9980
vn -0.0554 -0.0085 -0.9984
usemtl feather_gray_002
s 1
f 18//1 10//2 3//3 6//4
f 11//5 18//1 6//4 4//6
f 5//7 1//8 7//9 15//10
f 15//10 7//9 8//11 16//12
f 16//12 8//11 9//13 17//14
f 17//14 9//13 10//2 18//1
f 2//15 5//7 15//10 14//16
f 14//16 15//10 16//12 13//17
f 13//17 16//12 17//14 12//18
f 12//18 17//14 18//1 11//5
