# Blender v2.79 (sub 0) OBJ File: 'duck_base_mesh_BI.blend'
# www.blender.org
mtllib duck_feather_flight_tertiary_034.mtl
o feather_flight_tertiary_034
v 0.094297 0.181739 0.031404
v 0.088569 0.181739 0.031404
v 0.095341 0.161484 0.031404
v 0.087525 0.161484 0.031404
v 0.091433 0.182774 0.030771
v 0.091433 0.160357 0.030771
v 0.095854 0.178309 0.031404
v 0.097163 0.173844 0.031404
v 0.097999 0.169379 0.031404
v 0.097767 0.164914 0.031404
v 0.085100 0.164914 0.031404
v 0.084867 0.169379 0.031404
v 0.085704 0.173844 0.031404
v 0.087012 0.178309 0.031404
v 0.091433 0.178309 0.030771
v 0.091433 0.173844 0.030771
v 0.091433 0.169379 0.030771
v 0.091433 0.164914 0.030771
vn 0.0000 -0.0206 -0.9998
vn 0.1085 -0.0159 -0.9940
vn 0.1267 -0.0385 -0.9912
vn 0.0000 -0.0388 -0.9992
vn -0.1085 -0.0159 -0.9940
vn -0.1267 -0.0385 -0.9912
vn 0.0000 0.0352 -0.9994
vn 0.1758 0.0347 -0.9838
vn 0.1437 0.0244 -0.9893
vn 0.0000 0.0267 -0.9996
vn 0.1114 0.0132 -0.9937
vn 0.0000 0.0139 -0.9999
vn 0.0999 0.0032 -0.9950
vn 0.0000 0.0035 -1.0000
vn -0.1758 0.0347 -0.9838
vn -0.1437 0.0244 -0.9893
vn -0.1114 0.0132 -0.9937
vn -0.0999 0.0032 -0.9950
usemtl feather_001
s 1
f 18//1 10//2 3//3 6//4
f 11//5 18//1 6//4 4//6
f 5//7 1//8 7//9 15//10
f 15//10 7//9 8//11 16//12
f 16//12 8//11 9//13 17//14
f 17//14 9//13 10//2 18//1
f 2//15 5//7 15//10 14//16
f 14//16 15//10 16//12 13//17
f 13//17 16//12 17//14 12//18
f 12//18 17//14 18//1 11//5
