# Blender v2.79 (sub 0) OBJ File: 'duck_base_mesh_BI.blend'
# www.blender.org
mtllib duck_feather_tail_secondary_006.mtl
o feather_tail_secondary_006
v 0.006740 0.110544 -0.203112
v -0.004695 0.110544 -0.205773
v 0.000461 0.112169 -0.202030
v 0.011170 0.110544 -0.210508
v 0.015517 0.110544 -0.220466
v -0.004909 0.110544 -0.225218
v -0.005405 0.110544 -0.214364
v 0.002883 0.112169 -0.212436
v 0.005304 0.112169 -0.222842
v 0.022892 0.110544 -0.253034
v 0.022150 0.110544 -0.243846
v 0.019080 0.110544 -0.232099
v -0.002971 0.110544 -0.237229
v -0.000539 0.110544 -0.249126
v 0.002851 0.110544 -0.257697
v 0.013556 0.112169 -0.258308
v 0.010805 0.112169 -0.246486
v 0.008055 0.112169 -0.234664
vn -0.0073 0.9995 0.0315
vn 0.2124 0.9737 0.0818
vn 0.1825 0.9810 0.0653
vn -0.0054 0.9997 0.0234
vn 0.1508 0.9875 0.0452
vn -0.0023 0.9999 0.0102
vn -0.2267 0.9737 -0.0204
vn -0.1926 0.9810 -0.0219
vn -0.1553 0.9875 -0.0259
vn 0.1391 0.9896 0.0359
vn -0.0008 1.0000 0.0034
vn 0.1408 0.9896 0.0291
vn 0.0009 1.0000 -0.0037
vn 0.1461 0.9890 0.0243
vn 0.0021 0.9999 -0.0093
vn -0.1407 0.9896 -0.0292
vn -0.1392 0.9896 -0.0360
vn -0.1418 0.9890 -0.0427
usemtl feather_001
s 1
f 3//1 1//2 4//3 8//4
f 8//4 4//3 5//5 9//6
f 2//7 3//1 8//4 7//8
f 7//8 8//4 9//6 6//9
f 9//6 5//5 12//10 18//11
f 18//11 12//10 11//12 17//13
f 17//13 11//12 10//14 16//15
f 6//9 9//6 18//11 13//16
f 13//16 18//11 17//13 14//17
f 14//17 17//13 16//15 15//18
