# Blender v2.79 (sub 0) OBJ File: 'fennec_fox_base_mesh_BI.blend'
# www.blender.org
mtllib fennec_fox_eye.mtl
o eye
v 0.010714 0.201222 0.205528
v 0.008217 0.201222 0.208376
v 0.006999 0.201222 0.211963
v 0.007247 0.201222 0.215744
v 0.008922 0.201222 0.219141
v 0.011770 0.201222 0.221639
v 0.015357 0.201222 0.222856
v 0.010987 0.199800 0.205455
v 0.008721 0.198595 0.208241
v 0.007658 0.197790 0.211787
v 0.007960 0.197507 0.215552
v 0.009582 0.197790 0.218964
v 0.012275 0.198595 0.221504
v 0.015631 0.199800 0.222783
v 0.011765 0.198595 0.205247
v 0.010159 0.196368 0.207856
v 0.009537 0.194880 0.211283
v 0.009993 0.194357 0.215008
v 0.011460 0.194880 0.218461
v 0.013712 0.196368 0.221118
v 0.016408 0.198595 0.222575
v 0.019137 0.201222 0.222609
v 0.012930 0.197790 0.204935
v 0.012310 0.194880 0.207279
v 0.012347 0.192935 0.210530
v 0.013036 0.192252 0.214192
v 0.014271 0.192935 0.217708
v 0.015864 0.194880 0.220542
v 0.017573 0.197790 0.222263
v 0.014303 0.197507 0.204567
v 0.014848 0.194357 0.206599
v 0.015663 0.192252 0.209642
v 0.016625 0.191513 0.213231
v 0.017586 0.192252 0.216819
v 0.018401 0.194357 0.219862
v 0.018946 0.197507 0.221895
v 0.015676 0.197790 0.204199
v 0.017385 0.194880 0.205920
v 0.018979 0.192935 0.208753
v 0.020213 0.192252 0.212269
v 0.020902 0.192935 0.215931
v 0.020939 0.194880 0.219182
v 0.020320 0.197790 0.221527
v 0.014112 0.201222 0.203853
v 0.016841 0.198595 0.203887
v 0.019537 0.196368 0.205343
v 0.021789 0.194880 0.208000
v 0.023256 0.194357 0.211454
v 0.023713 0.194880 0.215178
v 0.023090 0.196368 0.218606
v 0.021484 0.198595 0.221215
v 0.017619 0.199800 0.203678
v 0.020974 0.198595 0.204958
v 0.023668 0.197790 0.207497
v 0.025289 0.197507 0.210909
v 0.025591 0.197790 0.214675
v 0.024528 0.198595 0.218220
v 0.022262 0.199800 0.221006
v 0.017892 0.201222 0.203605
v 0.021479 0.201222 0.204823
v 0.024327 0.201222 0.207320
v 0.026003 0.201222 0.210718
v 0.026250 0.201222 0.214498
v 0.025033 0.201222 0.218085
v 0.022535 0.201222 0.220933
v 0.017619 0.202644 0.203678
v 0.020974 0.203849 0.204958
v 0.023668 0.204655 0.207497
v 0.025289 0.204938 0.210909
v 0.025591 0.204655 0.214675
v 0.024528 0.203849 0.218220
v 0.022262 0.202644 0.221006
v 0.016841 0.203849 0.203887
v 0.019537 0.206077 0.205343
v 0.021789 0.207565 0.208000
v 0.023256 0.208087 0.211454
v 0.023713 0.207565 0.215178
v 0.023090 0.206077 0.218606
v 0.021484 0.203849 0.221215
v 0.015676 0.204655 0.204199
v 0.017385 0.207565 0.205920
v 0.018979 0.209509 0.208753
v 0.020213 0.210192 0.212269
v 0.020902 0.209509 0.215931
v 0.020939 0.207565 0.219182
v 0.020320 0.204655 0.221527
v 0.014303 0.204938 0.204567
v 0.014848 0.208087 0.206599
v 0.015663 0.210192 0.209642
v 0.016625 0.210931 0.213231
v 0.017586 0.210192 0.216819
v 0.018401 0.208087 0.219862
v 0.018946 0.204938 0.221895
v 0.012930 0.204655 0.204935
v 0.012310 0.207565 0.207279
v 0.012347 0.209509 0.210530
v 0.013036 0.210192 0.214192
v 0.014271 0.209509 0.217708
v 0.015864 0.207565 0.220542
v 0.017573 0.204655 0.222263
v 0.011765 0.203849 0.205247
v 0.010159 0.206077 0.207856
v 0.009537 0.207565 0.211283
v 0.009993 0.208087 0.215008
v 0.011460 0.207565 0.218461
v 0.013712 0.206077 0.221118
v 0.016408 0.203849 0.222575
v 0.010987 0.202644 0.205455
v 0.008721 0.203849 0.208241
v 0.007658 0.204655 0.211787
v 0.007960 0.204938 0.215552
v 0.009582 0.204655 0.218964
v 0.012275 0.203849 0.221504
v 0.015631 0.202644 0.222783
vn -0.9926 0.0000 -0.1216
vn -0.8743 0.0000 -0.4854
vn -0.8214 -0.2751 -0.4996
vn -0.9244 -0.3548 -0.1399
vn -0.6262 0.0000 -0.7796
vn -0.2588 0.0000 -0.9659
vn -0.5966 -0.1542 -0.7876
vn 0.2588 0.0000 0.9659
vn -0.1525 0.0000 0.9883
vn -0.1228 -0.1542 0.9803
vn -0.5144 0.0000 0.8575
vn -0.7988 0.0000 0.6016
vn -0.7306 -0.3548 0.5833
vn -0.4616 -0.2751 0.8433
vn -0.9659 0.0000 0.2588
vn -0.8924 -0.3827 0.2391
vn -0.5364 -0.6557 0.5313
vn -0.3110 -0.5083 0.8030
vn -0.7302 -0.6557 -0.1919
vn -0.6830 -0.7071 0.1830
vn -0.5122 -0.2850 -0.8102
vn -0.6709 -0.5083 -0.5399
vn -0.0385 -0.2850 0.9577
vn -0.0858 -0.6641 0.7427
vn 0.0879 -0.3724 0.9239
vn -0.3696 -0.9239 0.0990
vn -0.2459 -0.8567 0.4534
vn -0.4456 -0.6641 -0.6003
vn -0.4396 -0.8567 -0.2698
vn -0.3858 -0.3724 -0.8441
vn 0.0000 -1.0000 0.0000
vn 0.0969 -0.9273 0.3616
vn -0.1799 -0.7188 -0.6715
vn -0.0969 -0.9273 -0.3616
vn -0.2369 -0.4031 -0.8840
vn 0.2369 -0.4031 0.8840
vn 0.1799 -0.7188 0.6714
vn 0.3858 -0.3724 0.8441
vn 0.4396 -0.8567 0.2698
vn 0.4456 -0.6641 0.6003
vn 0.2459 -0.8567 -0.4534
vn 0.3696 -0.9239 -0.0990
vn -0.0879 -0.3724 -0.9239
vn 0.0858 -0.6641 -0.7427
vn 0.5364 -0.6557 -0.5313
vn 0.6830 -0.7071 -0.1830
vn 0.0385 -0.2850 -0.9577
vn 0.3110 -0.5083 -0.8030
vn 0.6709 -0.5083 0.5399
vn 0.5122 -0.2850 0.8102
vn 0.7302 -0.6557 0.1919
vn 0.8214 -0.2751 0.4996
vn 0.5966 -0.1542 0.7876
vn 0.8924 -0.3827 -0.2391
vn 0.9244 -0.3548 0.1399
vn 0.4616 -0.2751 -0.8433
vn 0.7306 -0.3548 -0.5833
vn 0.1228 -0.1542 -0.9803
vn 0.5144 0.0000 -0.8575
vn 0.7988 0.0000 -0.6016
vn 0.1525 0.0000 -0.9883
vn 0.6262 0.0000 0.7796
vn 0.9926 0.0000 0.1216
vn 0.8743 0.0000 0.4854
vn 0.9659 0.0000 -0.2588
vn 0.5966 0.1542 0.7876
vn 0.9244 0.3548 0.1399
vn 0.8214 0.2751 0.4996
vn 0.7306 0.3548 -0.5833
vn 0.8924 0.3827 -0.2391
vn 0.1228 0.1542 -0.9803
vn 0.4616 0.2751 -0.8433
vn 0.0385 0.2850 -0.9577
vn 0.3110 0.5083 -0.8030
vn 0.6709 0.5083 0.5399
vn 0.5122 0.2850 0.8102
vn 0.6830 0.7071 -0.1830
vn 0.7302 0.6557 0.1919
vn 0.5364 0.6557 -0.5313
vn 0.4456 0.6641 0.6003
vn 0.3858 0.3724 0.8441
vn 0.3696 0.9239 -0.0990
vn 0.4396 0.8567 0.2698
vn 0.0858 0.6641 -0.7427
vn 0.2459 0.8567 -0.4534
vn -0.0879 0.3724 -0.9239
vn -0.2369 0.4031 -0.8840
vn 0.2369 0.4031 0.8840
vn 0.0969 0.9273 0.3616
vn 0.1799 0.7188 0.6715
vn -0.0969 0.9273 -0.3616
vn 0.0000 1.0000 0.0000
vn -0.1799 0.7188 -0.6715
vn -0.2459 0.8567 0.4534
vn -0.0858 0.6641 0.7427
vn -0.4396 0.8567 -0.2698
vn -0.3696 0.9239 0.0990
vn -0.3858 0.3724 -0.8441
vn -0.4456 0.6641 -0.6003
vn 0.0879 0.3724 0.9239
vn -0.3110 0.5083 0.8030
vn -0.0385 0.2850 0.9577
vn -0.6830 0.7071 0.1830
vn -0.5364 0.6557 0.5313
vn -0.6709 0.5083 -0.5399
vn -0.7302 0.6557 -0.1919
vn -0.5122 0.2850 -0.8102
vn -0.8924 0.3827 0.2391
vn -0.7306 0.3548 0.5833
vn -0.8214 0.2751 -0.4996
vn -0.9244 0.3548 -0.1399
vn -0.5966 0.1542 -0.7876
vn -0.1228 0.1542 0.9803
vn -0.4616 0.2751 0.8433
usemtl eyes
s 1
f 3//1 2//2 9//3 10//4
f 1//5 44//6 8//7
f 22//8 7//9 14//10
f 6//11 5//12 12//13 13//14
f 4//15 3//1 10//4 11//16
f 2//2 1//5 8//7 9//3
f 7//9 6//11 13//14 14//10
f 5//12 4//15 11//16 12//13
f 13//14 12//13 19//17 20//18
f 11//16 10//4 17//19 18//20
f 9//3 8//7 15//21 16//22
f 14//10 13//14 20//18 21//23
f 12//13 11//16 18//20 19//17
f 10//4 9//3 16//22 17//19
f 8//7 44//6 15//21
f 22//8 14//10 21//23
f 21//23 20//18 28//24 29//25
f 19//17 18//20 26//26 27//27
f 17//19 16//22 24//28 25//29
f 15//21 44//6 23//30
f 22//8 21//23 29//25
f 20//18 19//17 27//27 28//24
f 18//20 17//19 25//29 26//26
f 16//22 15//21 23//30 24//28
f 27//27 26//26 33//31 34//32
f 25//29 24//28 31//33 32//34
f 23//30 44//6 30//35
f 22//8 29//25 36//36
f 28//24 27//27 34//32 35//37
f 26//26 25//29 32//34 33//31
f 24//28 23//30 30//35 31//33
f 29//25 28//24 35//37 36//36
f 22//8 36//36 43//38
f 35//37 34//32 41//39 42//40
f 33//31 32//34 39//41 40//42
f 31//33 30//35 37//43 38//44
f 36//36 35//37 42//40 43//38
f 34//32 33//31 40//42 41//39
f 32//34 31//33 38//44 39//41
f 30//35 44//6 37//43
f 40//42 39//41 47//45 48//46
f 38//44 37//43 45//47 46//48
f 43//38 42//40 50//49 51//50
f 41//39 40//42 48//46 49//51
f 39//41 38//44 46//48 47//45
f 37//43 44//6 45//47
f 22//8 43//38 51//50
f 42//40 41//39 49//51 50//49
f 51//50 50//49 57//52 58//53
f 49//51 48//46 55//54 56//55
f 47//45 46//48 53//56 54//57
f 45//47 44//6 52//58
f 22//8 51//50 58//53
f 50//49 49//51 56//55 57//52
f 48//46 47//45 54//57 55//54
f 46//48 45//47 52//58 53//56
f 54//57 53//56 60//59 61//60
f 52//58 44//6 59//61
f 22//8 58//53 65//62
f 57//52 56//55 63//63 64//64
f 55//54 54//57 61//60 62//65
f 53//56 52//58 59//61 60//59
f 58//53 57//52 64//64 65//62
f 56//55 55//54 62//65 63//63
f 22//8 65//62 72//66
f 64//64 63//63 70//67 71//68
f 62//65 61//60 68//69 69//70
f 60//59 59//61 66//71 67//72
f 65//62 64//64 71//68 72//66
f 63//63 62//65 69//70 70//67
f 61//60 60//59 67//72 68//69
f 59//61 44//6 66//71
f 67//72 66//71 73//73 74//74
f 72//66 71//68 78//75 79//76
f 70//67 69//70 76//77 77//78
f 68//69 67//72 74//74 75//79
f 66//71 44//6 73//73
f 22//8 72//66 79//76
f 71//68 70//67 77//78 78//75
f 69//70 68//69 75//79 76//77
f 79//76 78//75 85//80 86//81
f 77//78 76//77 83//82 84//83
f 75//79 74//74 81//84 82//85
f 73//73 44//6 80//86
f 22//8 79//76 86//81
f 78//75 77//78 84//83 85//80
f 76//77 75//79 82//85 83//82
f 74//74 73//73 80//86 81//84
f 80//86 44//6 87//87
f 22//8 86//81 93//88
f 85//80 84//83 91//89 92//90
f 83//82 82//85 89//91 90//92
f 81//84 80//86 87//87 88//93
f 86//81 85//80 92//90 93//88
f 84//83 83//82 90//92 91//89
f 82//85 81//84 88//93 89//91
f 92//90 91//89 98//94 99//95
f 90//92 89//91 96//96 97//97
f 88//93 87//87 94//98 95//99
f 93//88 92//90 99//95 100//100
f 91//89 90//92 97//97 98//94
f 89//91 88//93 95//99 96//96
f 87//87 44//6 94//98
f 22//8 93//88 100//100
f 100//100 99//95 106//101 107//102
f 98//94 97//97 104//103 105//104
f 96//96 95//99 102//105 103//106
f 94//98 44//6 101//107
f 22//8 100//100 107//102
f 99//95 98//94 105//104 106//101
f 97//97 96//96 103//106 104//103
f 95//99 94//98 101//107 102//105
f 105//104 104//103 111//108 112//109
f 103//106 102//105 109//110 110//111
f 101//107 44//6 108//112
f 22//8 107//102 114//113
f 106//101 105//104 112//109 113//114
f 104//103 103//106 110//111 111//108
f 102//105 101//107 108//112 109//110
f 107//102 106//101 113//114 114//113
f 22//8 114//113 7//9
f 113//114 112//109 5//12 6//11
f 111//108 110//111 3//1 4//15
f 109//110 108//112 1//5 2//2
f 114//113 113//114 6//11 7//9
f 112//109 111//108 4//15 5//12
f 110//111 109//110 2//2 3//1
f 108//112 44//6 1//5
