# Blender v2.79 (sub 0) OBJ File: 'finch_base_mesh_BI.blend'
# www.blender.org
mtllib finch_feather_flight_tertiary_032.mtl
o feather_flight_tertiary_032
v 0.096048 0.074309 0.022247
v 0.095311 0.073033 0.022247
v 0.097705 0.073662 0.022247
v 0.096700 0.071921 0.022247
v 0.095601 0.073716 0.022399
v 0.097287 0.072743 0.022399
v 0.096506 0.074507 0.022247
v 0.097010 0.074605 0.022247
v 0.097453 0.074597 0.022247
v 0.097759 0.074352 0.022247
v 0.096130 0.071530 0.022247
v 0.095764 0.071672 0.022247
v 0.095536 0.072052 0.022247
v 0.095369 0.072538 0.022247
v 0.095937 0.073522 0.022399
v 0.096273 0.073329 0.022399
v 0.096609 0.073135 0.022399
v 0.096945 0.072941 0.022399
vn -0.0496 0.0286 -0.9984
vn -0.0728 -0.0704 -0.9948
vn -0.1516 -0.0493 -0.9872
vn -0.0930 0.0537 -0.9942
vn 0.0246 0.0983 -0.9948
vn -0.0331 0.1559 -0.9872
vn 0.0845 -0.0488 -0.9952
vn 0.0009 -0.1908 -0.9816
vn -0.0110 -0.1403 -0.9900
vn 0.0642 -0.0370 -0.9972
vn -0.0219 -0.1052 -0.9942
vn 0.0336 -0.0194 -0.9992
vn -0.0404 -0.0848 -0.9956
vn 0.0085 -0.0049 -0.9999
vn 0.1657 0.0946 -0.9816
vn 0.1160 0.0797 -0.9900
vn 0.0801 0.0715 -0.9942
vn 0.0532 0.0774 -0.9956
usemtl feather_brown_001
s 1
f 18//1 10//2 3//3 6//4
f 11//5 18//1 6//4 4//6
f 5//7 1//8 7//9 15//10
f 15//10 7//9 8//11 16//12
f 16//12 8//11 9//13 17//14
f 17//14 9//13 10//2 18//1
f 2//15 5//7 15//10 14//16
f 14//16 15//10 16//12 13//17
f 13//17 16//12 17//14 12//18
f 12//18 17//14 18//1 11//5
