# Blender v2.79 (sub 0) OBJ File: 'finch_base_mesh_BI.blend'
# www.blender.org
mtllib finch_feather_tail_primary_002.mtl
o feather_tail_primary_002
v 0.006845 0.030140 -0.054021
v 0.002982 0.030140 -0.056089
v 0.031971 0.030140 -0.099362
v 0.026783 0.030140 -0.102139
v 0.004298 0.030853 -0.053905
v 0.030672 0.030853 -0.103170
v 0.009752 0.030140 -0.057364
v 0.013057 0.030140 -0.061974
v 0.028617 0.030140 -0.089879
v 0.030934 0.030140 -0.095017
v 0.023743 0.030140 -0.098867
v 0.020752 0.030140 -0.094089
v 0.006157 0.030140 -0.065668
v 0.004153 0.030140 -0.060362
v 0.006953 0.030853 -0.058863
v 0.009607 0.030853 -0.063821
v 0.024684 0.030853 -0.091984
v 0.027338 0.030853 -0.096942
v 0.025626 0.030140 -0.084233
v 0.022563 0.030140 -0.078625
v 0.019470 0.030140 -0.073035
v 0.016346 0.030140 -0.067460
v 0.008898 0.030140 -0.071447
v 0.011806 0.030140 -0.077138
v 0.014743 0.030140 -0.082812
v 0.017711 0.030140 -0.088470
v 0.021669 0.030853 -0.086351
v 0.018653 0.030853 -0.080719
v 0.015638 0.030853 -0.075086
v 0.012622 0.030853 -0.069454
vn 0.0063 0.9999 -0.0117
vn 0.1676 0.9829 0.0758
vn 0.1921 0.9781 0.0794
vn 0.0099 0.9998 -0.0186
vn -0.1560 0.9829 -0.0975
vn -0.1726 0.9781 -0.1158
vn -0.0127 0.9996 0.0237
vn 0.2193 0.9645 0.1469
vn 0.1907 0.9738 0.1234
vn -0.0094 0.9998 0.0176
vn 0.1585 0.9828 0.0943
vn -0.0041 0.9999 0.0077
vn -0.0001 1.0000 0.0001
vn 0.1389 0.9875 0.0745
vn 0.1433 0.9869 0.0734
vn 0.0014 1.0000 -0.0027
vn -0.2439 0.9645 -0.1010
vn -0.2084 0.9738 -0.0903
vn -0.1664 0.9828 -0.0796
vn -0.1390 0.9875 -0.0743
vn -0.1406 0.9869 -0.0786
vn 0.1470 0.9857 0.0819
vn -0.0014 1.0000 0.0026
vn 0.1424 0.9867 0.0777
vn -0.0006 1.0000 0.0012
vn 0.1398 0.9872 0.0758
vn -0.0004 1.0000 0.0008
vn -0.1497 0.9857 -0.0769
vn -0.1437 0.9867 -0.0754
vn -0.1407 0.9872 -0.0743
usemtl feather_brown_002
s 1
f 18//1 10//2 3//3 6//4
f 11//5 18//1 6//4 4//6
f 5//7 1//8 7//9 15//10
f 15//10 7//9 8//11 16//12
f 27//13 19//14 9//15 17//16
f 17//16 9//15 10//2 18//1
f 2//17 5//7 15//10 14//18
f 14//18 15//10 16//12 13//19
f 26//20 27//13 17//16 12//21
f 12//21 17//16 18//1 11//5
f 16//12 8//11 22//22 30//23
f 30//23 22//22 21//24 29//25
f 29//25 21//24 20//26 28//27
f 28//27 20//26 19//14 27//13
f 13//19 16//12 30//23 23//28
f 23//28 30//23 29//25 24//29
f 24//29 29//25 28//27 25//30
f 25//30 28//27 27//13 26//20
