# Blender v2.79 (sub 0) OBJ File: 'finch_base_mesh_BI.blend'
# www.blender.org
mtllib finch_feather_flight_secondary_011.mtl
o feather_flight_secondary_011
v 0.071107 0.073662 0.021867
v 0.068989 0.072440 0.021867
v 0.080180 0.058844 0.021867
v 0.076816 0.057582 0.021867
v 0.069604 0.073820 0.022204
v 0.078827 0.057850 0.022204
v 0.073154 0.071448 0.021867
v 0.075553 0.068411 0.021867
v 0.077777 0.065274 0.021867
v 0.079606 0.061909 0.021867
v 0.074922 0.059205 0.021868
v 0.072921 0.062471 0.021868
v 0.071315 0.065965 0.021868
v 0.069884 0.069561 0.021867
v 0.071519 0.070504 0.022204
v 0.073434 0.067188 0.022204
v 0.075349 0.063873 0.022204
v 0.077264 0.060557 0.022204
vn -0.0075 0.0108 -0.9999
vn -0.1233 -0.0570 -0.9907
vn -0.1458 -0.0540 -0.9878
vn -0.0281 0.0124 -0.9995
vn 0.1102 0.0760 -0.9910
vn 0.1178 0.0941 -0.9886
vn 0.0109 -0.0189 -0.9998
vn -0.1776 -0.1272 -0.9758
vn -0.1496 -0.1045 -0.9832
vn 0.0082 -0.0144 -0.9998
vn -0.1165 -0.0770 -0.9902
vn 0.0043 -0.0075 -0.9999
vn -0.1065 -0.0639 -0.9922
vn 0.0010 -0.0019 -1.0000
vn 0.1988 0.0902 -0.9759
vn 0.1652 0.0773 -0.9832
vn 0.1248 0.0624 -0.9902
vn 0.1086 0.0603 -0.9922
usemtl feather_brown_002
s 1
f 18//1 10//2 3//3 6//4
f 11//5 18//1 6//4 4//6
f 5//7 1//8 7//9 15//10
f 15//10 7//9 8//11 16//12
f 16//12 8//11 9//13 17//14
f 17//14 9//13 10//2 18//1
f 2//15 5//7 15//10 14//16
f 14//16 15//10 16//12 13//17
f 13//17 16//12 17//14 12//18
f 12//18 17//14 18//1 11//5
