# Blender v2.79 (sub 0) OBJ File: 'finch_base_mesh_BI.blend'
# www.blender.org
mtllib finch_feather_flight_tertiary_057.mtl
o feather_flight_tertiary_057
v 0.079589 0.074124 0.021119
v 0.078461 0.073177 0.021119
v 0.082904 0.070591 0.021119
v 0.081364 0.069299 0.021119
v 0.078866 0.073840 0.020966
v 0.082307 0.069739 0.020966
v 0.080422 0.073754 0.021119
v 0.081366 0.073154 0.021119
v 0.082216 0.072475 0.021119
v 0.082856 0.071620 0.021119
v 0.080360 0.069526 0.021119
v 0.079629 0.070304 0.021119
v 0.079108 0.071259 0.021119
v 0.078680 0.072292 0.021119
v 0.079551 0.073023 0.020966
v 0.080237 0.072206 0.020966
v 0.080922 0.071390 0.020966
v 0.081608 0.070573 0.020966
vn 0.0134 -0.0160 -0.9998
vn 0.0880 0.0533 -0.9947
vn 0.1163 0.0467 -0.9921
vn 0.0252 -0.0300 -0.9992
vn -0.0678 -0.0774 -0.9947
vn -0.0662 -0.1064 -0.9921
vn -0.0229 0.0273 -0.9994
vn 0.1041 0.1332 -0.9856
vn 0.0873 0.1055 -0.9906
vn -0.0174 0.0207 -0.9996
vn 0.0715 0.0774 -0.9944
vn -0.0091 0.0108 -0.9999
vn 0.0698 0.0628 -0.9956
vn -0.0023 0.0027 -1.0000
vn -0.1493 -0.0794 -0.9856
vn -0.1190 -0.0677 -0.9906
vn -0.0887 -0.0570 -0.9944
vn -0.0740 -0.0578 -0.9956
usemtl feather_brown_001
s 1
f 18//1 10//2 3//3 6//4
f 11//5 18//1 6//4 4//6
f 5//7 1//8 7//9 15//10
f 15//10 7//9 8//11 16//12
f 16//12 8//11 9//13 17//14
f 17//14 9//13 10//2 18//1
f 2//15 5//7 15//10 14//16
f 14//16 15//10 16//12 13//17
f 13//17 16//12 17//14 12//18
f 12//18 17//14 18//1 11//5
