# Blender v2.79 (sub 0) OBJ File: 'finch_base_mesh_BI.blend'
# www.blender.org
mtllib finch_feather_flight_tertiary_063.mtl
o feather_flight_tertiary_063
v 0.094372 0.074422 0.021119
v 0.093635 0.073146 0.021119
v 0.096410 0.073555 0.021119
v 0.095405 0.071814 0.021119
v 0.093906 0.073840 0.020966
v 0.096014 0.072623 0.020966
v 0.094894 0.074583 0.021119
v 0.095482 0.074632 0.021119
v 0.096010 0.074576 0.021119
v 0.096400 0.074282 0.021119
v 0.094771 0.071460 0.021119
v 0.094321 0.071651 0.021119
v 0.094009 0.072079 0.021119
v 0.093757 0.072613 0.021119
v 0.094326 0.073598 0.020966
v 0.094746 0.073355 0.020966
v 0.095165 0.073113 0.020966
v 0.095585 0.072871 0.020966
vn 0.0397 -0.0229 -0.9989
vn 0.0710 0.0726 -0.9948
vn 0.1334 0.0601 -0.9892
vn 0.0745 -0.0430 -0.9963
vn -0.0274 -0.0978 -0.9948
vn 0.0146 -0.1456 -0.9892
vn -0.0677 0.0391 -0.9969
vn 0.0157 0.1815 -0.9832
vn 0.0212 0.1366 -0.9904
vn -0.0514 0.0297 -0.9982
vn 0.0275 0.1028 -0.9943
vn -0.0269 0.0155 -0.9995
vn 0.0414 0.0843 -0.9956
vn -0.0068 0.0039 -0.9999
vn -0.1493 -0.1044 -0.9832
vn -0.1076 -0.0867 -0.9904
vn -0.0753 -0.0752 -0.9943
vn -0.0523 -0.0780 -0.9956
usemtl feather_brown_001
s 1
f 18//1 10//2 3//3 6//4
f 11//5 18//1 6//4 4//6
f 5//7 1//8 7//9 15//10
f 15//10 7//9 8//11 16//12
f 16//12 8//11 9//13 17//14
f 17//14 9//13 10//2 18//1
f 2//15 5//7 15//10 14//16
f 14//16 15//10 16//12 13//17
f 13//17 16//12 17//14 12//18
f 12//18 17//14 18//1 11//5
