# Blender v2.79 (sub 0) OBJ File: 'finch_base_mesh_BI.blend'
# www.blender.org
mtllib finch_feather_tail_secondary_001.mtl
o feather_tail_secondary_001
v 0.006493 0.031054 -0.053954
v 0.003523 0.031054 -0.056217
v 0.004189 0.031715 -0.054011
v 0.009871 0.031054 -0.057004
v 0.013900 0.031054 -0.061255
v 0.008596 0.031054 -0.065297
v 0.005567 0.031054 -0.060283
v 0.007719 0.031715 -0.058644
v 0.011248 0.031715 -0.063276
v 0.024882 0.031054 -0.075772
v 0.022214 0.031054 -0.071557
v 0.018121 0.031054 -0.066357
v 0.012395 0.031054 -0.070720
v 0.016321 0.031054 -0.076046
v 0.019677 0.031054 -0.079737
v 0.023277 0.031715 -0.079064
v 0.019268 0.031715 -0.073801
v 0.015258 0.031715 -0.068539
vn -0.0146 0.9997 0.0192
vn 0.2118 0.9586 0.1905
vn 0.1853 0.9692 0.1623
vn -0.0108 0.9998 0.0142
vn 0.1545 0.9798 0.1271
vn -0.0047 1.0000 0.0062
vn -0.2399 0.9586 -0.1537
vn -0.2057 0.9692 -0.1356
vn -0.1635 0.9798 -0.1152
vn 0.1437 0.9832 0.1127
vn -0.0016 1.0000 0.0021
vn 0.1471 0.9831 0.1086
vn 0.0017 1.0000 -0.0023
vn 0.1536 0.9822 0.1082
vn 0.0043 1.0000 -0.0056
vn -0.1468 0.9832 -0.1086
vn -0.1438 0.9831 -0.1129
vn -0.1451 0.9822 -0.1194
usemtl feather_brown_001
s 1
f 3//1 1//2 4//3 8//4
f 8//4 4//3 5//5 9//6
f 2//7 3//1 8//4 7//8
f 7//8 8//4 9//6 6//9
f 9//6 5//5 12//10 18//11
f 18//11 12//10 11//12 17//13
f 17//13 11//12 10//14 16//15
f 6//9 9//6 18//11 13//16
f 13//16 18//11 17//13 14//17
f 14//17 17//13 16//15 15//18
