# Blender v2.79 (sub 0) OBJ File: 'finch_base_mesh_BI.blend'
# www.blender.org
mtllib finch_feather_flight_primary_005.mtl
o feather_flight_primary_005
v 0.045637 0.071325 0.021489
v 0.042625 0.071232 0.021490
v 0.048052 0.021134 0.021489
v 0.043888 0.024020 0.021490
v 0.044035 0.073845 0.021829
v 0.046046 0.021290 0.021829
v 0.046771 0.062848 0.021488
v 0.047871 0.051802 0.021488
v 0.048722 0.040747 0.021488
v 0.049011 0.029676 0.021488
v 0.042350 0.029470 0.021490
v 0.041816 0.040534 0.021490
v 0.041845 0.051616 0.021490
v 0.042122 0.062705 0.021490
v 0.044447 0.062777 0.021829
v 0.044858 0.051709 0.021829
v 0.045269 0.040641 0.021829
v 0.045680 0.029573 0.021829
vn 0.0013 0.0060 -1.0000
vn -0.1125 0.0004 -0.9936
vn -0.1265 0.0044 -0.9919
vn -0.0568 0.0082 -0.9983
vn 0.1138 0.0106 -0.9934
vn 0.1311 0.0182 -0.9912
vn 0.0005 -0.0076 -1.0000
vn -0.1793 -0.0142 -0.9837
vn -0.1514 -0.0112 -0.9884
vn -0.0002 -0.0058 -1.0000
vn -0.1150 -0.0072 -0.9933
vn -0.0002 -0.0030 -1.0000
vn -0.1022 -0.0045 -0.9948
vn -0.0002 -0.0008 -1.0000
vn 0.1793 -0.0008 -0.9838
vn 0.1515 0.0000 -0.9884
vn 0.1148 0.0013 -0.9934
vn 0.1017 0.0030 -0.9948
usemtl feather_brown_003
s 1
f 18//1 10//2 3//3 6//4
f 11//5 18//1 6//4 4//6
f 5//7 1//8 7//9 15//10
f 15//10 7//9 8//11 16//12
f 16//12 8//11 9//13 17//14
f 17//14 9//13 10//2 18//1
f 2//15 5//7 15//10 14//16
f 14//16 15//10 16//12 13//17
f 13//17 16//12 17//14 12//18
f 12//18 17//14 18//1 11//5
