# Blender v2.79 (sub 0) OBJ File: 'finch_base_mesh_BI.blend'
# www.blender.org
mtllib finch_feather_flight_tertiary_007.mtl
o feather_flight_tertiary_007
v 0.039803 0.073295 0.022247
v 0.038332 0.073218 0.022247
v 0.040670 0.061888 0.022247
v 0.038662 0.061783 0.022247
v 0.039037 0.073840 0.022399
v 0.039699 0.061200 0.022399
v 0.040304 0.071382 0.022247
v 0.040772 0.068882 0.022247
v 0.041119 0.066375 0.022247
v 0.041191 0.063855 0.022247
v 0.037938 0.063684 0.022247
v 0.037746 0.066199 0.022247
v 0.037829 0.068728 0.022247
v 0.038033 0.071263 0.022247
v 0.039169 0.071322 0.022399
v 0.039301 0.068805 0.022399
v 0.039433 0.066287 0.022399
v 0.039564 0.063769 0.022399
vn -0.0005 0.0088 -0.9999
vn -0.1041 0.0024 -0.9945
vn -0.1199 0.0102 -0.9927
vn -0.0009 0.0166 -0.9998
vn 0.1033 0.0133 -0.9945
vn 0.1182 0.0227 -0.9927
vn 0.0008 -0.0150 -0.9999
vn -0.1645 -0.0235 -0.9861
vn -0.1375 -0.0181 -0.9903
vn 0.0006 -0.0114 -0.9999
vn -0.1051 -0.0113 -0.9944
vn 0.0003 -0.0060 -1.0000
vn -0.0937 -0.0063 -0.9956
vn 0.0001 -0.0015 -1.0000
vn 0.1661 -0.0062 -0.9861
vn 0.1386 -0.0037 -0.9903
vn 0.1057 -0.0002 -0.9944
vn 0.0939 0.0034 -0.9956
usemtl feather_brown_001
s 1
f 18//1 10//2 3//3 6//4
f 11//5 18//1 6//4 4//6
f 5//7 1//8 7//9 15//10
f 15//10 7//9 8//11 16//12
f 16//12 8//11 9//13 17//14
f 17//14 9//13 10//2 18//1
f 2//15 5//7 15//10 14//16
f 14//16 15//10 16//12 13//17
f 13//17 16//12 17//14 12//18
f 12//18 17//14 18//1 11//5
