# Blender v2.79 (sub 0) OBJ File: 'finch_base_mesh_BI.blend'
# www.blender.org
mtllib finch_feather_flight_secondary_023.mtl
o feather_flight_secondary_023
v 0.054983 0.072706 0.021436
v 0.052181 0.072462 0.021436
v 0.057439 0.050575 0.021433
v 0.053313 0.050971 0.021433
v 0.053482 0.073717 0.021100
v 0.055548 0.050172 0.021096
v 0.056074 0.069018 0.021436
v 0.057143 0.064185 0.021435
v 0.057981 0.059332 0.021434
v 0.058296 0.054434 0.021434
v 0.052100 0.053893 0.021433
v 0.051557 0.058771 0.021434
v 0.051537 0.063696 0.021434
v 0.051749 0.068640 0.021435
v 0.053911 0.068829 0.021099
v 0.054340 0.063940 0.021098
v 0.054769 0.059052 0.021097
v 0.055198 0.054163 0.021097
vn 0.0019 -0.0099 -0.9999
vn 0.1186 0.0007 -0.9929
vn 0.1350 -0.0085 -0.9908
vn 0.0192 -0.0176 -0.9996
vn -0.1152 -0.0185 -0.9932
vn -0.1279 -0.0288 -0.9914
vn -0.0014 0.0171 -0.9998
vn 0.1880 0.0334 -0.9816
vn 0.1574 0.0263 -0.9872
vn -0.0010 0.0130 -0.9999
vn 0.1206 0.0173 -0.9925
vn -0.0005 0.0069 -1.0000
vn 0.1077 0.0112 -0.9941
vn -0.0000 0.0018 -1.0000
vn -0.1907 0.0002 -0.9816
vn -0.1594 -0.0014 -0.9872
vn -0.1216 -0.0039 -0.9926
vn -0.1078 -0.0077 -0.9941
usemtl feather_brown_002
s 1
f 18//1 10//2 3//3 6//4
f 11//5 18//1 6//4 4//6
f 5//7 1//8 7//9 15//10
f 15//10 7//9 8//11 16//12
f 16//12 8//11 9//13 17//14
f 17//14 9//13 10//2 18//1
f 2//15 5//7 15//10 14//16
f 14//16 15//10 16//12 13//17
f 13//17 16//12 17//14 12//18
f 12//18 17//14 18//1 11//5
