# Blender v2.79 (sub 0) OBJ File: 'finch_base_mesh_BI.blend'
# www.blender.org
mtllib finch_feather_flight_secondary_012.mtl
o feather_flight_secondary_012
v 0.075822 0.073824 0.021867
v 0.073819 0.072422 0.021867
v 0.085773 0.060393 0.021867
v 0.082545 0.058824 0.021867
v 0.074330 0.073823 0.022204
v 0.084508 0.059291 0.022204
v 0.077990 0.071888 0.021867
v 0.080561 0.069191 0.021867
v 0.082967 0.066379 0.021867
v 0.084999 0.063305 0.021867
v 0.080568 0.060203 0.021868
v 0.078373 0.063163 0.021868
v 0.076553 0.066385 0.021868
v 0.074897 0.069723 0.021867
v 0.076444 0.070806 0.022204
v 0.078557 0.067788 0.022204
v 0.080670 0.064771 0.022204
v 0.082783 0.061754 0.022204
vn -0.0087 0.0105 -0.9999
vn -0.1180 -0.0671 -0.9907
vn -0.1411 -0.0656 -0.9878
vn -0.0291 0.0111 -0.9995
vn 0.1028 0.0856 -0.9910
vn 0.1086 0.1047 -0.9885
vn 0.0130 -0.0186 -0.9997
vn -0.1653 -0.1429 -0.9758
vn -0.1394 -0.1175 -0.9832
vn 0.0098 -0.0141 -0.9998
vn -0.1092 -0.0871 -0.9902
vn 0.0051 -0.0074 -0.9999
vn -0.1005 -0.0731 -0.9922
vn 0.0013 -0.0019 -1.0000
vn 0.1907 0.1064 -0.9758
vn 0.1580 0.0908 -0.9832
vn 0.1190 0.0728 -0.9902
vn 0.1029 0.0694 -0.9922
usemtl feather_brown_002
s 1
f 18//1 10//2 3//3 6//4
f 11//5 18//1 6//4 4//6
f 5//7 1//8 7//9 15//10
f 15//10 7//9 8//11 16//12
f 16//12 8//11 9//13 17//14
f 17//14 9//13 10//2 18//1
f 2//15 5//7 15//10 14//16
f 14//16 15//10 16//12 13//17
f 13//17 16//12 17//14 12//18
f 12//18 17//14 18//1 11//5
