# Blender v2.79 (sub 0) OBJ File: 'finch_base_mesh_BI.blend'
# www.blender.org
mtllib finch_feather_tail_primary_003.mtl
o feather_tail_primary_003
v 0.007202 0.029942 -0.054180
v 0.002716 0.029942 -0.055796
v 0.024667 0.029942 -0.100241
v 0.018642 0.029942 -0.102412
v 0.004539 0.030678 -0.053822
v 0.022538 0.030678 -0.103779
v 0.009601 0.029942 -0.057678
v 0.012168 0.029942 -0.062434
v 0.023018 0.029942 -0.090791
v 0.024438 0.029942 -0.095960
v 0.016088 0.029942 -0.098969
v 0.013885 0.029942 -0.094082
v 0.004155 0.029942 -0.065321
v 0.003099 0.029942 -0.060021
v 0.006350 0.030678 -0.058850
v 0.008162 0.030678 -0.063877
v 0.018452 0.030678 -0.092437
v 0.020263 0.030678 -0.097464
v 0.020989 0.029942 -0.085069
v 0.018877 0.029942 -0.079377
v 0.016728 0.029942 -0.073698
v 0.014545 0.029942 -0.068031
v 0.005895 0.029942 -0.071148
v 0.007827 0.029942 -0.076905
v 0.009794 0.029942 -0.082649
v 0.011798 0.029942 -0.088381
v 0.016394 0.030678 -0.086725
v 0.014336 0.030678 -0.081013
v 0.012278 0.030678 -0.075301
v 0.010220 0.030678 -0.069589
vn 0.0049 0.9999 -0.0136
vn 0.1683 0.9846 0.0465
vn 0.1926 0.9802 0.0455
vn 0.0078 0.9997 -0.0215
vn -0.1593 0.9846 -0.0715
vn -0.1774 0.9802 -0.0878
vn -0.0099 0.9995 0.0276
vn 0.2257 0.9678 0.1115
vn 0.1953 0.9764 0.0919
vn -0.0074 0.9998 0.0205
vn 0.1616 0.9845 0.0678
vn -0.0032 0.9999 0.0089
vn -0.0000 1.0000 0.0002
vn 0.1408 0.9887 0.0509
vn 0.1450 0.9882 0.0489
vn 0.0011 1.0000 -0.0031
vn -0.2449 0.9678 -0.0581
vn -0.2091 0.9764 -0.0537
vn -0.1678 0.9845 -0.0508
vn -0.1409 0.9887 -0.0506
vn -0.1428 0.9882 -0.0548
vn 0.1494 0.9871 0.0571
vn -0.0011 1.0000 0.0030
vn 0.1445 0.9880 0.0536
vn -0.0005 1.0000 0.0014
vn 0.1419 0.9885 0.0521
vn -0.0003 1.0000 0.0009
vn -0.1515 0.9871 -0.0513
vn -0.1455 0.9880 -0.0509
vn -0.1425 0.9885 -0.0503
usemtl feather_brown_002
s 1
f 18//1 10//2 3//3 6//4
f 11//5 18//1 6//4 4//6
f 5//7 1//8 7//9 15//10
f 15//10 7//9 8//11 16//12
f 27//13 19//14 9//15 17//16
f 17//16 9//15 10//2 18//1
f 2//17 5//7 15//10 14//18
f 14//18 15//10 16//12 13//19
f 26//20 27//13 17//16 12//21
f 12//21 17//16 18//1 11//5
f 16//12 8//11 22//22 30//23
f 30//23 22//22 21//24 29//25
f 29//25 21//24 20//26 28//27
f 28//27 20//26 19//14 27//13
f 13//19 16//12 30//23 23//28
f 23//28 30//23 29//25 24//29
f 24//29 29//25 28//27 25//30
f 25//30 28//27 27//13 26//20
