# Blender v2.79 (sub 0) OBJ File: 'finch_base_mesh_BI.blend'
# www.blender.org
mtllib finch_feather_tail_secondary_010.mtl
o feather_tail_secondary_010
v 0.002503 0.029371 -0.055493
v 0.007447 0.029371 -0.054373
v 0.004709 0.028612 -0.053756
v 0.002274 0.029371 -0.059643
v 0.002591 0.029371 -0.064908
v 0.011423 0.029371 -0.062908
v 0.009441 0.029371 -0.058021
v 0.005858 0.028612 -0.058832
v 0.007007 0.028612 -0.063908
v 0.006266 0.029371 -0.080754
v 0.004713 0.029371 -0.076552
v 0.003546 0.029371 -0.070754
v 0.013080 0.029371 -0.068595
v 0.014524 0.029371 -0.074330
v 0.014932 0.029371 -0.078792
v 0.010924 0.028612 -0.081208
v 0.009618 0.028612 -0.075441
v 0.008313 0.028612 -0.069674
vn -0.0068 -0.9995 0.0302
vn -0.2435 -0.9696 -0.0243
vn -0.2077 -0.9778 -0.0251
vn -0.0051 -0.9997 0.0225
vn -0.1676 -0.9854 -0.0282
vn -0.0022 -0.9999 0.0098
vn 0.2302 -0.9696 0.0829
vn 0.1983 -0.9778 0.0669
vn 0.1634 -0.9854 0.0468
vn -0.1520 -0.9879 -0.0310
vn -0.0007 -1.0000 0.0033
vn -0.1507 -0.9879 -0.0376
vn 0.0008 -1.0000 -0.0036
vn -0.1536 -0.9871 -0.0440
vn 0.0020 -0.9999 -0.0089
vn 0.1505 -0.9879 0.0374
vn 0.1522 -0.9879 0.0309
vn 0.1576 -0.9871 0.0264
usemtl feather_brown_001
s 1
f 3//1 1//2 4//3 8//4
f 8//4 4//3 5//5 9//6
f 2//7 3//1 8//4 7//8
f 7//8 8//4 9//6 6//9
f 9//6 5//5 12//10 18//11
f 18//11 12//10 11//12 17//13
f 17//13 11//12 10//14 16//15
f 6//9 9//6 18//11 13//16
f 13//16 18//11 17//13 14//17
f 14//17 17//13 16//15 15//18
