# Blender v2.79 (sub 0) OBJ File: 'finch_base_mesh_BI.blend'
# www.blender.org
mtllib finch_feather_flight_primary_011.mtl
o feather_flight_primary_011
v 0.073198 0.072701 0.021489
v 0.070291 0.071152 0.021489
v 0.094838 0.033236 0.021489
v 0.089909 0.032338 0.021489
v 0.070666 0.073958 0.021738
v 0.093079 0.031757 0.021738
v 0.077563 0.066391 0.021489
v 0.082881 0.057983 0.021489
v 0.087959 0.049447 0.021489
v 0.092494 0.040622 0.021489
v 0.086065 0.037198 0.021489
v 0.081294 0.045897 0.021489
v 0.077065 0.054885 0.021489
v 0.073075 0.064001 0.021489
v 0.075319 0.065196 0.021738
v 0.079973 0.056434 0.021738
v 0.084626 0.047672 0.021738
v 0.089280 0.038910 0.021738
vn -0.0022 0.0031 -1.0000
vn -0.0683 -0.0320 -0.9971
vn -0.0785 -0.0331 -0.9963
vn -0.0193 -0.0021 -0.9998
vn 0.0641 0.0378 -0.9972
vn 0.0700 0.0445 -0.9966
vn 0.0029 -0.0055 -1.0000
vn -0.1043 -0.0624 -0.9926
vn -0.0880 -0.0520 -0.9948
vn 0.0023 -0.0041 -1.0000
vn -0.0671 -0.0384 -0.9970
vn 0.0012 -0.0021 -1.0000
vn -0.0603 -0.0327 -0.9976
vn 0.0003 -0.0005 -1.0000
vn 0.1103 0.0515 -0.9926
vn 0.0924 0.0439 -0.9947
vn 0.0696 0.0342 -0.9970
vn 0.0610 0.0317 -0.9976
usemtl feather_brown_003
s 1
f 18//1 10//2 3//3 6//4
f 11//5 18//1 6//4 4//6
f 5//7 1//8 7//9 15//10
f 15//10 7//9 8//11 16//12
f 16//12 8//11 9//13 17//14
f 17//14 9//13 10//2 18//1
f 2//15 5//7 15//10 14//16
f 14//16 15//10 16//12 13//17
f 13//17 16//12 17//14 12//18
f 12//18 17//14 18//1 11//5
