# Blender v2.79 (sub 0) OBJ File: 'finch_base_mesh_BI.blend'
# www.blender.org
mtllib finch_feather_flight_secondary_032.mtl
o feather_flight_secondary_032
v 0.094574 0.074740 0.021436
v 0.094023 0.072686 0.021436
v 0.103936 0.072633 0.021436
v 0.102825 0.069740 0.021436
v 0.093825 0.073840 0.021100
v 0.103659 0.071205 0.021100
v 0.096292 0.074879 0.021436
v 0.098459 0.074801 0.021436
v 0.100581 0.074554 0.021436
v 0.102601 0.073923 0.021436
v 0.101383 0.069380 0.021436
v 0.099319 0.069844 0.021436
v 0.097358 0.070691 0.021436
v 0.095442 0.071708 0.021436
v 0.095867 0.073293 0.021100
v 0.097909 0.072746 0.021100
v 0.099950 0.072199 0.021100
v 0.101992 0.071652 0.021100
vn 0.0232 -0.0050 -0.9997
vn 0.0596 0.1431 -0.9879
vn 0.0909 0.1572 -0.9834
vn 0.0468 0.0016 -0.9989
vn -0.0219 -0.1513 -0.9882
vn -0.0049 -0.1755 -0.9845
vn -0.0382 0.0102 -0.9992
vn 0.0271 0.2494 -0.9680
vn 0.0265 0.2055 -0.9783
vn -0.0289 0.0078 -0.9995
vn 0.0268 0.1575 -0.9871
vn -0.0151 0.0040 -0.9998
vn 0.0333 0.1385 -0.9898
vn -0.0038 0.0010 -1.0000
vn -0.1012 -0.2295 -0.9680
vn -0.0798 -0.1912 -0.9783
vn -0.0555 -0.1498 -0.9871
vn -0.0404 -0.1366 -0.9898
usemtl feather_brown_002
s 1
f 18//1 10//2 3//3 6//4
f 11//5 18//1 6//4 4//6
f 5//7 1//8 7//9 15//10
f 15//10 7//9 8//11 16//12
f 16//12 8//11 9//13 17//14
f 17//14 9//13 10//2 18//1
f 2//15 5//7 15//10 14//16
f 14//16 15//10 16//12 13//17
f 13//17 16//12 17//14 12//18
f 12//18 17//14 18//1 11//5
