# Blender v2.79 (sub 0) OBJ File: 'finch_base_mesh_BI.blend'
# www.blender.org
mtllib finch_feather_flight_secondary_018.mtl
o feather_flight_secondary_018
v 0.032281 0.072663 0.021436
v 0.029983 0.072663 0.021436
v 0.032699 0.049631 0.021436
v 0.029369 0.050411 0.021436
v 0.031132 0.073840 0.021073
v 0.031132 0.049386 0.021072
v 0.032905 0.068763 0.021436
v 0.033430 0.063686 0.021436
v 0.033766 0.058608 0.021436
v 0.033672 0.053531 0.021436
v 0.028591 0.053531 0.021436
v 0.028498 0.058608 0.021436
v 0.028833 0.063685 0.021436
v 0.029358 0.068763 0.021436
v 0.031132 0.068763 0.021073
v 0.031132 0.063685 0.021073
v 0.031132 0.058608 0.021073
v 0.031132 0.053531 0.021072
vn 0.0012 -0.0106 -0.9999
vn 0.1558 -0.0103 -0.9877
vn 0.1755 -0.0212 -0.9842
vn 0.0284 -0.0203 -0.9994
vn -0.1537 -0.0090 -0.9881
vn -0.1709 -0.0183 -0.9851
vn 0.0000 0.0178 -0.9998
vn 0.2481 0.0172 -0.9686
vn 0.2091 0.0128 -0.9778
vn 0.0000 0.0135 -0.9999
vn 0.1601 0.0068 -0.9871
vn 0.0000 0.0070 -1.0000
vn 0.1425 0.0017 -0.9898
vn 0.0000 0.0018 -1.0000
vn -0.2481 0.0173 -0.9686
vn -0.2091 0.0128 -0.9778
vn -0.1601 0.0068 -0.9871
vn -0.1425 0.0017 -0.9898
usemtl feather_brown_002
s 1
f 18//1 10//2 3//3 6//4
f 11//5 18//1 6//4 4//6
f 5//7 1//8 7//9 15//10
f 15//10 7//9 8//11 16//12
f 16//12 8//11 9//13 17//14
f 17//14 9//13 10//2 18//1
f 2//15 5//7 15//10 14//16
f 14//16 15//10 16//12 13//17
f 13//17 16//12 17//14 12//18
f 12//18 17//14 18//1 11//5
