# Blender v2.79 (sub 0) OBJ File: 'finch_base_mesh_BI.blend'
# www.blender.org
mtllib finch_feather_tail_primary_004.mtl
o feather_tail_primary_004
v 0.007424 0.029798 -0.054346
v 0.002442 0.029798 -0.055383
v 0.017986 0.029798 -0.100807
v 0.011294 0.029798 -0.102200
v 0.004689 0.030557 -0.053692
v 0.015154 0.030557 -0.103973
v 0.009352 0.029798 -0.058000
v 0.011244 0.029798 -0.062886
v 0.017849 0.029798 -0.091501
v 0.018468 0.029798 -0.096652
v 0.009194 0.029798 -0.098582
v 0.007706 0.029798 -0.093612
v 0.002346 0.029798 -0.064738
v 0.002131 0.029798 -0.059503
v 0.005742 0.030557 -0.058752
v 0.006795 0.030557 -0.063812
v 0.012778 0.030557 -0.092556
v 0.013831 0.030557 -0.097617
v 0.016685 0.029798 -0.085745
v 0.015428 0.029798 -0.080009
v 0.014130 0.029798 -0.074281
v 0.012795 0.029798 -0.068561
v 0.003189 0.029798 -0.070561
v 0.004246 0.029798 -0.076338
v 0.005342 0.029798 -0.082108
v 0.006478 0.029798 -0.087870
v 0.011581 0.030557 -0.086808
v 0.010385 0.030557 -0.081059
v 0.009188 0.030557 -0.075310
v 0.007992 0.030557 -0.069561
vn 0.0031 0.9999 -0.0151
vn 0.1674 0.9857 0.0205
vn 0.1910 0.9814 0.0153
vn 0.0049 0.9997 -0.0239
vn -0.1617 0.9857 -0.0480
vn -0.1812 0.9814 -0.0622
vn -0.0063 0.9995 0.0305
vn 0.2308 0.9698 0.0790
vn 0.1986 0.9780 0.0634
vn -0.0047 0.9997 0.0227
vn 0.1636 0.9855 0.0438
vn -0.0020 0.9999 0.0099
vn -0.0000 1.0000 0.0002
vn 0.1416 0.9895 0.0296
vn 0.1454 0.9890 0.0268
vn 0.0007 1.0000 -0.0034
vn -0.2431 0.9698 -0.0197
vn -0.2074 0.9780 -0.0211
vn -0.1675 0.9855 -0.0251
vn -0.1417 0.9895 -0.0293
vn -0.1440 0.9890 -0.0334
vn 0.1506 0.9880 0.0347
vn -0.0007 1.0000 0.0033
vn 0.1455 0.9888 0.0319
vn -0.0003 1.0000 0.0015
vn 0.1428 0.9893 0.0307
vn -0.0002 1.0000 0.0010
vn -0.1520 0.9880 -0.0282
vn -0.1461 0.9888 -0.0288
vn -0.1432 0.9893 -0.0287
usemtl feather_brown_002
s 1
f 18//1 10//2 3//3 6//4
f 11//5 18//1 6//4 4//6
f 5//7 1//8 7//9 15//10
f 15//10 7//9 8//11 16//12
f 27//13 19//14 9//15 17//16
f 17//16 9//15 10//2 18//1
f 2//17 5//7 15//10 14//18
f 14//18 15//10 16//12 13//19
f 26//20 27//13 17//16 12//21
f 12//21 17//16 18//1 11//5
f 16//12 8//11 22//22 30//23
f 30//23 22//22 21//24 29//25
f 29//25 21//24 20//26 28//27
f 28//27 20//26 19//14 27//13
f 13//19 16//12 30//23 23//28
f 23//28 30//23 29//25 24//29
f 24//29 29//25 28//27 25//30
f 25//30 28//27 27//13 26//20
