# Blender v2.79 (sub 0) OBJ File: 'finch_base_mesh_BI.blend'
# www.blender.org
mtllib finch_feather_flight_secondary_022.mtl
o feather_flight_secondary_022
v 0.050112 0.072629 0.021436
v 0.047670 0.072501 0.021436
v 0.051796 0.049042 0.021432
v 0.048214 0.049656 0.021432
v 0.048828 0.073772 0.021100
v 0.050143 0.048704 0.021095
v 0.050986 0.068666 0.021436
v 0.051817 0.063490 0.021435
v 0.052446 0.058304 0.021434
v 0.052620 0.053094 0.021433
v 0.047219 0.052812 0.021432
v 0.046847 0.058011 0.021433
v 0.046931 0.063235 0.021434
v 0.047216 0.068468 0.021435
v 0.049101 0.068567 0.021099
v 0.049374 0.063362 0.021098
v 0.049647 0.058158 0.021097
v 0.049920 0.052953 0.021096
vn 0.0016 -0.0093 -0.9999
vn 0.1362 -0.0020 -0.9907
vn 0.1541 -0.0110 -0.9880
vn 0.0250 -0.0168 -0.9995
vn -0.1333 -0.0150 -0.9909
vn -0.1480 -0.0242 -0.9887
vn -0.0008 0.0162 -0.9998
vn 0.2163 0.0272 -0.9759
vn 0.1819 0.0214 -0.9831
vn -0.0006 0.0123 -0.9999
vn 0.1392 0.0137 -0.9902
vn -0.0003 0.0065 -1.0000
vn 0.1240 0.0082 -0.9922
vn -0.0000 0.0018 -1.0000
vn -0.2178 0.0044 -0.9760
vn -0.1831 0.0022 -0.9831
vn -0.1397 -0.0009 -0.9902
vn -0.1241 -0.0048 -0.9922
usemtl feather_brown_002
s 1
f 18//1 10//2 3//3 6//4
f 11//5 18//1 6//4 4//6
f 5//7 1//8 7//9 15//10
f 15//10 7//9 8//11 16//12
f 16//12 8//11 9//13 17//14
f 17//14 9//13 10//2 18//1
f 2//15 5//7 15//10 14//16
f 14//16 15//10 16//12 13//17
f 13//17 16//12 17//14 12//18
f 12//18 17//14 18//1 11//5
