# Blender v2.79 (sub 0) OBJ File: 'finch_base_mesh_BI.blend'
# www.blender.org
mtllib finch_feather_tail_secondary_012.mtl
o feather_tail_secondary_012
v -0.002181 0.030043 -0.055175
v 0.002181 0.030043 -0.055175
v 0.000000 0.029264 -0.053995
v -0.003161 0.030043 -0.059085
v -0.003895 0.030043 -0.064176
v 0.003895 0.030043 -0.064176
v 0.003161 0.030043 -0.059085
v 0.000000 0.029264 -0.059085
v 0.000000 0.029264 -0.064176
v -0.003822 0.030043 -0.080086
v -0.004327 0.030043 -0.075742
v -0.004205 0.030043 -0.069959
v 0.004205 0.030043 -0.069959
v 0.004327 0.030043 -0.075742
v 0.003822 0.030043 -0.080086
v 0.000000 0.029264 -0.081525
v 0.000000 0.029264 -0.075742
v 0.000000 0.029264 -0.069959
vn 0.0000 -0.9995 0.0325
vn -0.2863 -0.9576 0.0312
vn -0.2468 -0.9688 0.0224
vn 0.0000 -0.9997 0.0241
vn -0.2015 -0.9794 0.0099
vn 0.0000 -0.9999 0.0105
vn 0.2863 -0.9576 0.0312
vn 0.2468 -0.9688 0.0224
vn 0.2015 -0.9794 0.0099
vn -0.1842 -0.9828 0.0034
vn 0.0000 -1.0000 0.0035
vn -0.1845 -0.9828 -0.0036
vn 0.0000 -1.0000 -0.0038
vn -0.1895 -0.9818 -0.0094
vn 0.0000 -0.9999 -0.0096
vn 0.1842 -0.9828 0.0034
vn 0.1845 -0.9828 -0.0036
vn 0.1895 -0.9818 -0.0094
usemtl feather_brown_001
s 1
f 3//1 1//2 4//3 8//4
f 8//4 4//3 5//5 9//6
f 2//7 3//1 8//4 7//8
f 7//8 8//4 9//6 6//9
f 9//6 5//5 12//10 18//11
f 18//11 12//10 11//12 17//13
f 17//13 11//12 10//14 16//15
f 6//9 9//6 18//11 13//16
f 13//16 18//11 17//13 14//17
f 14//17 17//13 16//15 15//18
