# Blender v2.79 (sub 0) OBJ File: 'finch_base_mesh_BI.blend'
# www.blender.org
mtllib finch_feather_flight_tertiary_011.mtl
o feather_flight_tertiary_011
v 0.048098 0.073384 0.022247
v 0.046631 0.073256 0.022247
v 0.049256 0.063232 0.022247
v 0.047254 0.063057 0.022247
v 0.047319 0.073840 0.022399
v 0.048304 0.062578 0.022399
v 0.048648 0.071696 0.022247
v 0.049180 0.069482 0.022247
v 0.049590 0.067258 0.022247
v 0.049727 0.065009 0.022247
v 0.046481 0.064725 0.022247
v 0.046226 0.066963 0.022247
v 0.046244 0.069225 0.022247
v 0.046383 0.071498 0.022247
v 0.047515 0.071597 0.022399
v 0.047712 0.069354 0.022399
v 0.047908 0.067111 0.022399
v 0.048104 0.064867 0.022399
vn -0.0009 0.0099 -0.9999
vn -0.1040 -0.0003 -0.9946
vn -0.1203 0.0080 -0.9927
vn -0.0016 0.0185 -0.9998
vn 0.1025 0.0177 -0.9946
vn 0.1171 0.0287 -0.9927
vn 0.0015 -0.0168 -0.9998
vn -0.1634 -0.0310 -0.9861
vn -0.1364 -0.0241 -0.9904
vn 0.0011 -0.0127 -0.9999
vn -0.1045 -0.0156 -0.9944
vn 0.0006 -0.0067 -1.0000
vn -0.0934 -0.0098 -0.9956
vn 0.0001 -0.0017 -1.0000
vn 0.1663 -0.0021 -0.9861
vn 0.1385 -0.0001 -0.9904
vn 0.1056 0.0027 -0.9944
vn 0.0937 0.0066 -0.9956
usemtl feather_brown_001
s 1
f 18//1 10//2 3//3 6//4
f 11//5 18//1 6//4 4//6
f 5//7 1//8 7//9 15//10
f 15//10 7//9 8//11 16//12
f 16//12 8//11 9//13 17//14
f 17//14 9//13 10//2 18//1
f 2//15 5//7 15//10 14//16
f 14//16 15//10 16//12 13//17
f 13//17 16//12 17//14 12//18
f 12//18 17//14 18//1 11//5
