# Blender v2.79 (sub 0) OBJ File: 'finch_base_mesh_BI.blend'
# www.blender.org
mtllib finch_feather_flight_secondary_026.mtl
o feather_flight_secondary_026
v 0.067778 0.073367 0.021437
v 0.065480 0.072530 0.021436
v 0.074440 0.056374 0.021437
v 0.070898 0.055742 0.021436
v 0.066310 0.073825 0.021100
v 0.072938 0.055621 0.021100
v 0.069460 0.070691 0.021437
v 0.071361 0.067102 0.021437
v 0.073073 0.063445 0.021437
v 0.074356 0.059631 0.021437
v 0.069273 0.057782 0.021436
v 0.067804 0.061527 0.021436
v 0.066763 0.065429 0.021436
v 0.065912 0.069400 0.021436
v 0.067686 0.070045 0.021100
v 0.069062 0.066266 0.021100
v 0.070438 0.062486 0.021100
v 0.071815 0.058706 0.021100
vn 0.0052 -0.0113 -0.9999
vn 0.1313 0.0352 -0.9907
vn 0.1525 0.0290 -0.9879
vn 0.0259 -0.0157 -0.9995
vn -0.1219 -0.0553 -0.9910
vn -0.1327 -0.0712 -0.9886
vn -0.0071 0.0196 -0.9998
vn 0.1973 0.0934 -0.9759
vn 0.1659 0.0763 -0.9832
vn -0.0053 0.0148 -0.9998
vn 0.1283 0.0552 -0.9902
vn -0.0027 0.0078 -0.9999
vn 0.1161 0.0444 -0.9922
vn -0.0006 0.0020 -1.0000
vn -0.2111 -0.0552 -0.9759
vn -0.1760 -0.0482 -0.9832
vn -0.1336 -0.0402 -0.9902
vn -0.1173 -0.0406 -0.9922
usemtl feather_brown_002
s 1
f 18//1 10//2 3//3 6//4
f 11//5 18//1 6//4 4//6
f 5//7 1//8 7//9 15//10
f 15//10 7//9 8//11 16//12
f 16//12 8//11 9//13 17//14
f 17//14 9//13 10//2 18//1
f 2//15 5//7 15//10 14//16
f 14//16 15//10 16//12 13//17
f 13//17 16//12 17//14 12//18
f 12//18 17//14 18//1 11//5
