# Blender v2.79 (sub 0) OBJ File: 'finch_base_mesh_BI.blend'
# www.blender.org
mtllib finch_feather_flight_tertiary_024.mtl
o feather_flight_tertiary_024
v 0.077133 0.074042 0.022247
v 0.075926 0.073197 0.022247
v 0.080380 0.069873 0.022247
v 0.078733 0.068720 0.022247
v 0.076375 0.073840 0.022399
v 0.079725 0.069056 0.022399
v 0.077973 0.073539 0.022247
v 0.078916 0.072780 0.022247
v 0.079760 0.071950 0.022247
v 0.080378 0.070963 0.022247
v 0.077709 0.069094 0.022247
v 0.076993 0.070013 0.022247
v 0.076502 0.071089 0.022247
v 0.076111 0.072235 0.022247
v 0.077042 0.072887 0.022399
v 0.077709 0.071934 0.022399
v 0.078376 0.070982 0.022399
v 0.079044 0.070029 0.022399
vn -0.0110 0.0157 -0.9998
vn -0.0920 -0.0464 -0.9947
vn -0.1180 -0.0391 -0.9922
vn -0.0206 0.0295 -0.9993
vn 0.0750 0.0706 -0.9947
vn 0.0771 0.0976 -0.9922
vn 0.0187 -0.0267 -0.9995
vn -0.1170 -0.1213 -0.9857
vn -0.0977 -0.0962 -0.9905
vn 0.0142 -0.0203 -0.9997
vn -0.0787 -0.0701 -0.9944
vn 0.0074 -0.0106 -0.9999
vn -0.0752 -0.0563 -0.9956
vn 0.0019 -0.0027 -1.0000
vn 0.1540 0.0685 -0.9857
vn 0.1238 0.0589 -0.9905
vn 0.0928 0.0500 -0.9944
vn 0.0786 0.0514 -0.9956
usemtl feather_brown_001
s 1
f 18//1 10//2 3//3 6//4
f 11//5 18//1 6//4 4//6
f 5//7 1//8 7//9 15//10
f 15//10 7//9 8//11 16//12
f 16//12 8//11 9//13 17//14
f 17//14 9//13 10//2 18//1
f 2//15 5//7 15//10 14//16
f 14//16 15//10 16//12 13//17
f 13//17 16//12 17//14 12//18
f 12//18 17//14 18//1 11//5
