# Blender v2.79 (sub 0) OBJ File: 'finch_base_mesh_BI.blend'
# www.blender.org
mtllib finch_feather_flight_primary_010.mtl
o feather_flight_primary_010
v 0.069231 0.072410 0.021489
v 0.065804 0.071092 0.021489
v 0.086019 0.030497 0.021489
v 0.080505 0.030015 0.021489
v 0.066691 0.073905 0.021740
v 0.083852 0.029150 0.021740
v 0.072899 0.065630 0.021489
v 0.077245 0.056639 0.021489
v 0.081309 0.047539 0.021489
v 0.084733 0.038193 0.021489
v 0.077154 0.035279 0.021489
v 0.073452 0.044518 0.021489
v 0.070389 0.054003 0.021489
v 0.067609 0.063596 0.021489
v 0.070254 0.064613 0.021740
v 0.073817 0.055321 0.021740
v 0.077380 0.046028 0.021740
v 0.080944 0.036736 0.021740
vn -0.0018 0.0033 -1.0000
vn -0.0649 -0.0208 -0.9977
vn -0.0743 -0.0204 -0.9970
vn -0.0165 0.0013 -0.9998
vn 0.0616 0.0271 -0.9977
vn 0.0674 0.0328 -0.9972
vn 0.0022 -0.0058 -1.0000
vn -0.1003 -0.0451 -0.9939
vn -0.0845 -0.0374 -0.9957
vn 0.0017 -0.0044 -1.0000
vn -0.0644 -0.0273 -0.9975
vn 0.0009 -0.0023 -1.0000
vn -0.0576 -0.0228 -0.9980
vn 0.0003 -0.0005 -1.0000
vn 0.1049 0.0335 -0.9939
vn 0.0879 0.0287 -0.9957
vn 0.0662 0.0228 -0.9975
vn 0.0582 0.0216 -0.9980
usemtl feather_brown_003
s 1
f 18//1 10//2 3//3 6//4
f 11//5 18//1 6//4 4//6
f 5//7 1//8 7//9 15//10
f 15//10 7//9 8//11 16//12
f 16//12 8//11 9//13 17//14
f 17//14 9//13 10//2 18//1
f 2//15 5//7 15//10 14//16
f 14//16 15//10 16//12 13//17
f 13//17 16//12 17//14 12//18
f 12//18 17//14 18//1 11//5
