# Blender v2.79 (sub 0) OBJ File: 'fox_base_mesh_BI.blend'
# www.blender.org
mtllib fox_eye.mtl
o eye
v 0.025941 0.575453 0.457706
v 0.023121 0.575453 0.462353
v 0.022294 0.575453 0.467726
v 0.023586 0.575453 0.473006
v 0.026800 0.575453 0.477390
v 0.031447 0.575453 0.480210
v 0.036820 0.575453 0.481037
v 0.026309 0.573413 0.457535
v 0.023800 0.571683 0.462037
v 0.023182 0.570528 0.467312
v 0.024547 0.570122 0.472558
v 0.027688 0.570528 0.476976
v 0.032127 0.571683 0.479893
v 0.037188 0.573413 0.480865
v 0.027356 0.571683 0.457046
v 0.025736 0.568487 0.461134
v 0.025710 0.566352 0.466133
v 0.027284 0.565602 0.471282
v 0.030217 0.566352 0.475797
v 0.034062 0.568487 0.478991
v 0.038235 0.571683 0.480377
v 0.042100 0.575453 0.479745
v 0.028924 0.570528 0.456315
v 0.028632 0.566352 0.459783
v 0.029495 0.563562 0.464368
v 0.031380 0.562582 0.469372
v 0.034001 0.563562 0.474032
v 0.036959 0.566352 0.477640
v 0.039803 0.570528 0.479646
v 0.030773 0.570122 0.455453
v 0.032049 0.565602 0.458190
v 0.033959 0.562582 0.462286
v 0.036212 0.561521 0.467118
v 0.038465 0.562582 0.471950
v 0.040376 0.565602 0.476047
v 0.041652 0.570122 0.478784
v 0.032622 0.570528 0.454591
v 0.035466 0.566352 0.456597
v 0.038423 0.563562 0.460205
v 0.041044 0.562582 0.464865
v 0.042930 0.563562 0.469869
v 0.043792 0.566352 0.474453
v 0.043501 0.570528 0.477921
v 0.030324 0.575453 0.454492
v 0.034189 0.571683 0.453860
v 0.038362 0.568487 0.455246
v 0.042208 0.566352 0.458440
v 0.045140 0.565602 0.462955
v 0.046714 0.566352 0.468104
v 0.046689 0.568487 0.473103
v 0.045069 0.571683 0.477190
v 0.035237 0.573413 0.453371
v 0.040298 0.571683 0.454344
v 0.044736 0.570528 0.457261
v 0.047878 0.570122 0.461679
v 0.049243 0.570528 0.466925
v 0.048624 0.571683 0.472200
v 0.046116 0.573413 0.476702
v 0.035605 0.575453 0.453200
v 0.040977 0.575453 0.454027
v 0.045624 0.575453 0.456847
v 0.048839 0.575453 0.461231
v 0.050131 0.575453 0.466511
v 0.049304 0.575453 0.471883
v 0.046484 0.575453 0.476531
v 0.035237 0.577493 0.453371
v 0.040298 0.579223 0.454344
v 0.044736 0.580379 0.457261
v 0.047878 0.580785 0.461679
v 0.049243 0.580379 0.466925
v 0.048624 0.579223 0.472200
v 0.046116 0.577493 0.476702
v 0.034189 0.579223 0.453860
v 0.038362 0.582419 0.455246
v 0.042208 0.584554 0.458440
v 0.045140 0.585304 0.462955
v 0.046714 0.584554 0.468104
v 0.046689 0.582419 0.473103
v 0.045069 0.579223 0.477190
v 0.032622 0.580379 0.454591
v 0.035466 0.584554 0.456597
v 0.038423 0.587345 0.460205
v 0.041044 0.588324 0.464865
v 0.042930 0.587345 0.469869
v 0.043792 0.584554 0.474453
v 0.043501 0.580379 0.477921
v 0.030773 0.580785 0.455453
v 0.032049 0.585304 0.458190
v 0.033959 0.588324 0.462286
v 0.036212 0.589385 0.467118
v 0.038465 0.588324 0.471950
v 0.040376 0.585304 0.476047
v 0.041652 0.580785 0.478784
v 0.028924 0.580379 0.456315
v 0.028632 0.584554 0.459783
v 0.029495 0.587345 0.464368
v 0.031380 0.588324 0.469372
v 0.034001 0.587345 0.474032
v 0.036959 0.584554 0.477640
v 0.039803 0.580379 0.479646
v 0.027356 0.579223 0.457046
v 0.025736 0.582419 0.461134
v 0.025710 0.584554 0.466133
v 0.027284 0.585304 0.471282
v 0.030217 0.584554 0.475797
v 0.034062 0.582419 0.478991
v 0.038235 0.579223 0.480377
v 0.026309 0.577493 0.457535
v 0.023800 0.579223 0.462037
v 0.023182 0.580379 0.467312
v 0.024547 0.580785 0.472558
v 0.027688 0.580379 0.476976
v 0.032127 0.579223 0.479893
v 0.037188 0.577493 0.480865
vn -0.9453 0.0000 -0.3262
vn -0.7521 0.0000 -0.6590
vn -0.7243 -0.1542 -0.6720
vn -0.8957 -0.2751 -0.3493
vn 0.0214 0.0000 0.9998
vn -0.3577 0.0000 0.9338
vn -0.3081 -0.2751 0.9107
vn 0.0492 -0.1542 0.9868
vn -0.6822 0.0000 0.7312
vn -0.9063 0.0000 0.4226
vn -0.8373 -0.3827 0.3904
vn -0.6182 -0.3548 0.7013
vn -0.9986 0.0000 0.0526
vn -0.9346 -0.3548 0.0227
vn -0.4226 0.0000 -0.9063
vn 0.4226 0.0000 0.9063
vn -0.6408 -0.7071 0.2988
vn -0.4360 -0.6557 0.6164
vn -0.7544 -0.5083 -0.4152
vn -0.7525 -0.6557 -0.0622
vn -0.6451 -0.2850 -0.7089
vn 0.1284 -0.2850 0.9499
vn -0.1669 -0.5083 0.8448
vn 0.2470 -0.3724 0.8946
vn -0.1634 -0.8567 0.4892
vn 0.0444 -0.6641 0.7463
vn -0.4798 -0.8567 -0.1893
vn -0.3468 -0.9239 0.1617
vn -0.5266 -0.3724 -0.7642
vn -0.5431 -0.6641 -0.5137
vn -0.1582 -0.9273 -0.3393
vn 0.0000 -1.0000 0.0000
vn -0.3867 -0.4031 -0.8294
vn -0.2938 -0.7188 -0.6300
vn 0.2938 -0.7188 0.6300
vn 0.3867 -0.4031 0.8294
vn 0.1582 -0.9273 0.3393
vn 0.5431 -0.6641 0.5137
vn 0.5266 -0.3724 0.7642
vn 0.3468 -0.9239 -0.1617
vn 0.4798 -0.8567 0.1893
vn -0.0444 -0.6641 -0.7463
vn 0.1634 -0.8567 -0.4892
vn -0.2469 -0.3724 -0.8946
vn 0.1669 -0.5083 -0.8448
vn 0.4360 -0.6557 -0.6164
vn -0.1284 -0.2850 -0.9499
vn 0.6451 -0.2850 0.7089
vn 0.7525 -0.6557 0.0622
vn 0.7544 -0.5083 0.4152
vn 0.6408 -0.7071 -0.2988
vn 0.7243 -0.1542 0.6720
vn 0.9346 -0.3548 -0.0227
vn 0.8957 -0.2751 0.3493
vn 0.6182 -0.3548 -0.7013
vn 0.8373 -0.3827 -0.3904
vn -0.0492 -0.1542 -0.9868
vn 0.3081 -0.2751 -0.9107
vn -0.0214 0.0000 -0.9998
vn 0.3577 0.0000 -0.9338
vn 0.9453 0.0000 0.3262
vn 0.7521 0.0000 0.6590
vn 0.9063 0.0000 -0.4226
vn 0.9986 0.0000 -0.0526
vn 0.6822 0.0000 -0.7312
vn 0.8957 0.2751 0.3493
vn 0.7243 0.1542 0.6720
vn 0.8373 0.3827 -0.3904
vn 0.9346 0.3548 -0.0227
vn 0.3081 0.2751 -0.9107
vn 0.6182 0.3548 -0.7013
vn -0.0492 0.1542 -0.9868
vn -0.1284 0.2850 -0.9499
vn 0.6451 0.2850 0.7089
vn 0.7525 0.6557 0.0622
vn 0.7544 0.5083 0.4152
vn 0.4360 0.6557 -0.6164
vn 0.6408 0.7071 -0.2988
vn 0.1669 0.5083 -0.8448
vn 0.4798 0.8567 0.1893
vn 0.5431 0.6641 0.5137
vn 0.1634 0.8567 -0.4892
vn 0.3468 0.9239 -0.1617
vn -0.2469 0.3724 -0.8946
vn -0.0445 0.6641 -0.7463
vn 0.5266 0.3724 0.7642
vn 0.2938 0.7188 0.6300
vn 0.3867 0.4031 0.8294
vn 0.0000 1.0000 0.0000
vn 0.1582 0.9273 0.3393
vn -0.2938 0.7188 -0.6300
vn -0.1582 0.9273 -0.3393
vn -0.3868 0.4031 -0.8294
vn -0.3468 0.9239 0.1617
vn -0.1634 0.8567 0.4892
vn -0.5431 0.6641 -0.5137
vn -0.4798 0.8567 -0.1893
vn -0.5266 0.3724 -0.7642
vn 0.2469 0.3724 0.8946
vn 0.0444 0.6641 0.7463
vn 0.1284 0.2850 0.9499
vn -0.4360 0.6557 0.6164
vn -0.1669 0.5083 0.8448
vn -0.7525 0.6557 -0.0622
vn -0.6408 0.7071 0.2988
vn -0.6451 0.2850 -0.7089
vn -0.7544 0.5083 -0.4152
vn -0.9346 0.3548 0.0227
vn -0.8373 0.3827 0.3904
vn -0.7243 0.1542 -0.6720
vn -0.8957 0.2751 -0.3493
vn -0.3081 0.2751 0.9107
vn 0.0492 0.1542 0.9868
vn -0.6182 0.3548 0.7013
usemtl eyes
s 1
f 2//1 1//2 8//3 9//4
f 7//5 6//6 13//7 14//8
f 5//9 4//10 11//11 12//12
f 3//13 2//1 9//4 10//14
f 1//2 44//15 8//3
f 22//16 7//5 14//8
f 6//6 5//9 12//12 13//7
f 4//10 3//13 10//14 11//11
f 12//12 11//11 18//17 19//18
f 10//14 9//4 16//19 17//20
f 8//3 44//15 15//21
f 22//16 14//8 21//22
f 13//7 12//12 19//18 20//23
f 11//11 10//14 17//20 18//17
f 9//4 8//3 15//21 16//19
f 14//8 13//7 20//23 21//22
f 22//16 21//22 29//24
f 20//23 19//18 27//25 28//26
f 18//17 17//20 25//27 26//28
f 16//19 15//21 23//29 24//30
f 21//22 20//23 28//26 29//24
f 19//18 18//17 26//28 27//25
f 17//20 16//19 24//30 25//27
f 15//21 44//15 23//29
f 26//28 25//27 32//31 33//32
f 24//30 23//29 30//33 31//34
f 29//24 28//26 35//35 36//36
f 27//25 26//28 33//32 34//37
f 25//27 24//30 31//34 32//31
f 23//29 44//15 30//33
f 22//16 29//24 36//36
f 28//26 27//25 34//37 35//35
f 36//36 35//35 42//38 43//39
f 34//37 33//32 40//40 41//41
f 32//31 31//34 38//42 39//43
f 30//33 44//15 37//44
f 22//16 36//36 43//39
f 35//35 34//37 41//41 42//38
f 33//32 32//31 39//43 40//40
f 31//34 30//33 37//44 38//42
f 39//43 38//42 46//45 47//46
f 37//44 44//15 45//47
f 22//16 43//39 51//48
f 42//38 41//41 49//49 50//50
f 40//40 39//43 47//46 48//51
f 38//42 37//44 45//47 46//45
f 43//39 42//38 50//50 51//48
f 41//41 40//40 48//51 49//49
f 22//16 51//48 58//52
f 50//50 49//49 56//53 57//54
f 48//51 47//46 54//55 55//56
f 46//45 45//47 52//57 53//58
f 51//48 50//50 57//54 58//52
f 49//49 48//51 55//56 56//53
f 47//46 46//45 53//58 54//55
f 45//47 44//15 52//57
f 53//58 52//57 59//59 60//60
f 58//52 57//54 64//61 65//62
f 56//53 55//56 62//63 63//64
f 54//55 53//58 60//60 61//65
f 52//57 44//15 59//59
f 22//16 58//52 65//62
f 57//54 56//53 63//64 64//61
f 55//56 54//55 61//65 62//63
f 65//62 64//61 71//66 72//67
f 63//64 62//63 69//68 70//69
f 61//65 60//60 67//70 68//71
f 59//59 44//15 66//72
f 22//16 65//62 72//67
f 64//61 63//64 70//69 71//66
f 62//63 61//65 68//71 69//68
f 60//60 59//59 66//72 67//70
f 66//72 44//15 73//73
f 22//16 72//67 79//74
f 71//66 70//69 77//75 78//76
f 69//68 68//71 75//77 76//78
f 67//70 66//72 73//73 74//79
f 72//67 71//66 78//76 79//74
f 70//69 69//68 76//78 77//75
f 68//71 67//70 74//79 75//77
f 78//76 77//75 84//80 85//81
f 76//78 75//77 82//82 83//83
f 74//79 73//73 80//84 81//85
f 79//74 78//76 85//81 86//86
f 77//75 76//78 83//83 84//80
f 75//77 74//79 81//85 82//82
f 73//73 44//15 80//84
f 22//16 79//74 86//86
f 86//86 85//81 92//87 93//88
f 84//80 83//83 90//89 91//90
f 82//82 81//85 88//91 89//92
f 80//84 44//15 87//93
f 22//16 86//86 93//88
f 85//81 84//80 91//90 92//87
f 83//83 82//82 89//92 90//89
f 81//85 80//84 87//93 88//91
f 91//90 90//89 97//94 98//95
f 89//92 88//91 95//96 96//97
f 87//93 44//15 94//98
f 22//16 93//88 100//99
f 92//87 91//90 98//95 99//100
f 90//89 89//92 96//97 97//94
f 88//91 87//93 94//98 95//96
f 93//88 92//87 99//100 100//99
f 22//16 100//99 107//101
f 99//100 98//95 105//102 106//103
f 97//94 96//97 103//104 104//105
f 95//96 94//98 101//106 102//107
f 100//99 99//100 106//103 107//101
f 98//95 97//94 104//105 105//102
f 96//97 95//96 102//107 103//104
f 94//98 44//15 101//106
f 104//105 103//104 110//108 111//109
f 102//107 101//106 108//110 109//111
f 107//101 106//103 113//112 114//113
f 105//102 104//105 111//109 112//114
f 103//104 102//107 109//111 110//108
f 101//106 44//15 108//110
f 22//16 107//101 114//113
f 106//103 105//102 112//114 113//112
f 114//113 113//112 6//6 7//5
f 112//114 111//109 4//10 5//9
f 110//108 109//111 2//1 3//13
f 108//110 44//15 1//2
f 22//16 114//113 7//5
f 113//112 112//114 5//9 6//6
f 111//109 110//108 3//13 4//10
f 109//111 108//110 1//2 2//1
