# Blender v2.79 (sub 0) OBJ File: 'gecko_base_mesh_BI.blend'
# www.blender.org
mtllib gecko_eye.mtl
o eye
v 0.011349 0.068110 0.083223
v 0.010291 0.069552 0.082768
v 0.008817 0.070443 0.082106
v 0.007152 0.070648 0.081338
v 0.005549 0.070136 0.080581
v 0.004252 0.068984 0.079950
v 0.003459 0.067369 0.079541
v 0.011652 0.067989 0.082597
v 0.010851 0.069327 0.081612
v 0.009549 0.070149 0.080595
v 0.007945 0.070330 0.079703
v 0.006281 0.069842 0.079070
v 0.004813 0.068760 0.078793
v 0.003763 0.067248 0.078915
v 0.011933 0.067611 0.082071
v 0.011371 0.068630 0.080639
v 0.010228 0.069238 0.079324
v 0.008679 0.069344 0.078327
v 0.006960 0.068931 0.077799
v 0.005332 0.068063 0.077821
v 0.004044 0.066870 0.078389
v 0.003291 0.065536 0.079417
v 0.012149 0.067035 0.081724
v 0.011770 0.067566 0.079998
v 0.010749 0.067848 0.078487
v 0.009244 0.067839 0.077421
v 0.007481 0.067541 0.076962
v 0.005731 0.066999 0.077180
v 0.004260 0.066294 0.078042
v 0.012267 0.066349 0.081610
v 0.011988 0.066297 0.079787
v 0.011034 0.066190 0.078211
v 0.009552 0.066045 0.077122
v 0.007766 0.065883 0.076685
v 0.005949 0.065730 0.076968
v 0.004378 0.065608 0.077928
v 0.012269 0.065656 0.081745
v 0.011991 0.065016 0.080037
v 0.011039 0.064517 0.078537
v 0.009557 0.064234 0.077475
v 0.007771 0.064210 0.077012
v 0.005953 0.064449 0.077219
v 0.004380 0.064915 0.078063
v 0.011830 0.066338 0.083402
v 0.012155 0.065062 0.082110
v 0.011780 0.063919 0.080710
v 0.010763 0.063083 0.079418
v 0.009258 0.062682 0.078428
v 0.007495 0.062777 0.077893
v 0.005741 0.063352 0.077892
v 0.004265 0.064321 0.078428
v 0.011942 0.064658 0.082648
v 0.011386 0.063172 0.081705
v 0.010248 0.062108 0.080717
v 0.008700 0.061626 0.079835
v 0.006980 0.061801 0.079192
v 0.005347 0.062605 0.078887
v 0.004052 0.063917 0.078966
v 0.011662 0.064505 0.083278
v 0.010869 0.062890 0.082869
v 0.009573 0.061738 0.082238
v 0.007970 0.061226 0.081481
v 0.006305 0.061431 0.080713
v 0.004831 0.062323 0.080051
v 0.003772 0.063764 0.079596
v 0.011358 0.064626 0.083904
v 0.010308 0.063114 0.084026
v 0.008840 0.062032 0.083749
v 0.007177 0.061544 0.083117
v 0.005572 0.061725 0.082224
v 0.004270 0.062547 0.081208
v 0.003469 0.063885 0.080222
v 0.011077 0.065004 0.084430
v 0.009789 0.063811 0.084998
v 0.008161 0.062943 0.085020
v 0.006442 0.062530 0.084492
v 0.004893 0.062636 0.083495
v 0.003750 0.063244 0.082180
v 0.003188 0.064263 0.080748
v 0.010861 0.065580 0.084777
v 0.009390 0.064876 0.085639
v 0.007640 0.064333 0.085857
v 0.005878 0.064035 0.085399
v 0.004372 0.064026 0.084332
v 0.003351 0.064308 0.082821
v 0.002972 0.064839 0.081095
v 0.010743 0.066266 0.084891
v 0.009172 0.066144 0.085851
v 0.007355 0.065991 0.086134
v 0.005570 0.065829 0.085698
v 0.004087 0.065684 0.084609
v 0.003134 0.065577 0.083033
v 0.002854 0.065525 0.081210
v 0.010742 0.066959 0.084756
v 0.009168 0.067425 0.085600
v 0.007351 0.067664 0.085807
v 0.005565 0.067640 0.085344
v 0.004083 0.067357 0.084282
v 0.003130 0.066858 0.082782
v 0.002852 0.066218 0.081074
v 0.010856 0.067553 0.084392
v 0.009380 0.068522 0.084927
v 0.007627 0.069097 0.084927
v 0.005864 0.069192 0.084391
v 0.004359 0.068791 0.083402
v 0.003341 0.067955 0.082109
v 0.002966 0.066812 0.080710
v 0.011069 0.067957 0.083853
v 0.009774 0.069269 0.083932
v 0.008142 0.070073 0.083627
v 0.006421 0.070248 0.082984
v 0.004874 0.069766 0.082102
v 0.003735 0.068702 0.081114
v 0.003180 0.067216 0.080171
vn 0.7914 0.4791 0.3795
vn 0.9029 0.0848 0.4214
vn 0.8590 0.4521 0.2401
vn 0.9217 0.3680 0.1228
vn 0.9698 0.2398 0.0456
vn 0.9960 0.0868 0.0201
vn 0.9964 -0.0675 0.0503
vn 0.9709 -0.1998 0.1315
vn 0.9235 -0.2898 0.2514
vn 0.8612 -0.3239 0.3917
vn 0.7936 -0.2969 0.5311
vn 0.7309 -0.2128 0.6484
vn 0.6829 -0.0845 0.7256
vn 0.6566 0.0684 0.7511
vn 0.6561 0.2228 0.7210
vn 0.6816 0.3550 0.6398
vn 0.7291 0.4451 0.5199
vn -0.6898 0.6571 -0.3038
vn -0.4182 0.8919 -0.1718
vn -0.2627 0.8297 -0.4925
vn -0.5693 0.6089 -0.5524
vn -0.0865 0.9961 -0.0151
vn 0.2578 0.9554 0.1437
vn 0.4133 0.8932 -0.1770
vn 0.0812 0.9290 -0.3610
vn 0.5655 0.7750 0.2820
vn 0.6860 0.7268 0.0334
vn -0.8612 0.3239 -0.3917
vn -0.7936 0.2969 -0.5311
vn -0.9029 -0.0848 -0.4214
vn -0.4576 0.4590 -0.7615
vn -0.7309 0.2128 -0.6484
vn 0.2365 0.7205 -0.6519
vn -0.1187 0.6363 -0.7622
vn 0.7977 0.5769 -0.1757
vn 0.5574 0.6998 -0.4467
vn 0.8835 0.3481 -0.3135
vn 0.6680 0.4047 -0.6244
vn -0.6829 0.0845 -0.7256
vn -0.0080 0.3412 -0.9399
vn -0.3718 0.2302 -0.8993
vn 0.3559 0.4022 -0.8435
vn -0.6566 -0.0684 -0.7511
vn 0.0524 -0.0106 -0.9986
vn -0.3250 -0.0426 -0.9447
vn 0.7284 0.0529 -0.6831
vn 0.4210 0.0228 -0.9067
vn 0.9303 0.0753 -0.3589
vn 0.9311 -0.1999 -0.3051
vn -0.3242 -0.3179 -0.8910
vn -0.6561 -0.2228 -0.7210
vn 0.4221 -0.3601 -0.8319
vn 0.0533 -0.3657 -0.9292
vn 0.7294 -0.3022 -0.6137
vn -0.3697 -0.5537 -0.7461
vn -0.6816 -0.3550 -0.6398
vn 0.3589 -0.6883 -0.6305
vn -0.0052 -0.6699 -0.7424
vn 0.8856 -0.4358 -0.1603
vn 0.6708 -0.6065 -0.4269
vn -0.7291 -0.4451 -0.5199
vn -0.1145 -0.8770 -0.4665
vn -0.4544 -0.7143 -0.5323
vn 0.5615 -0.8135 -0.1510
vn 0.2410 -0.9116 -0.3330
vn 0.8009 -0.5963 0.0535
vn -0.2578 -0.9554 -0.1437
vn -0.5655 -0.7750 -0.2820
vn 0.4182 -0.8919 0.1718
vn 0.0865 -0.9961 0.0151
vn 0.6898 -0.6571 0.3038
vn -0.7914 -0.4791 -0.3795
vn -0.6860 -0.7268 -0.0334
vn -0.8590 -0.4521 -0.2401
vn -0.0812 -0.9290 0.3610
vn -0.4133 -0.8932 0.1770
vn 0.5693 -0.6089 0.5524
vn 0.2627 -0.8297 0.4925
vn -0.2365 -0.7205 0.6519
vn -0.5574 -0.6998 0.4467
vn 0.4576 -0.4590 0.7615
vn 0.1187 -0.6363 0.7622
vn -0.9217 -0.3680 -0.1228
vn -0.7977 -0.5769 0.1757
vn -0.9698 -0.2398 -0.0456
vn -0.6680 -0.4047 0.6244
vn -0.8835 -0.3481 0.3135
vn 0.0080 -0.3412 0.9399
vn -0.3559 -0.4022 0.8435
vn 0.3718 -0.2302 0.8993
vn -0.0524 0.0106 0.9986
vn -0.4210 -0.0228 0.9067
vn 0.3250 0.0426 0.9447
vn -0.9303 -0.0753 0.3589
vn -0.9960 -0.0868 -0.0201
vn -0.7284 -0.0529 0.6831
vn -0.9311 0.1999 0.3051
vn -0.9964 0.0675 -0.0503
vn -0.4221 0.3601 0.8319
vn -0.7294 0.3022 0.6137
vn 0.3242 0.3179 0.8910
vn -0.0533 0.3657 0.9292
vn 0.3697 0.5537 0.7461
vn 0.0052 0.6699 0.7424
vn -0.9709 0.1998 -0.1315
vn -0.6708 0.6065 0.4269
vn -0.8856 0.4358 0.1603
vn -0.3589 0.6883 0.6305
vn -0.9235 0.2898 -0.2514
vn -0.5615 0.8135 0.1510
vn -0.8009 0.5963 -0.0535
vn 0.1145 0.8770 0.4665
vn -0.2410 0.9116 0.3330
vn 0.4544 0.7143 0.5323
usemtl eye_pupil
s 1
f 1//1 44//2 8//3
f 8//3 44//2 15//4
f 15//4 44//2 23//5
f 23//5 44//2 30//6
f 30//6 44//2 37//7
f 37//7 44//2 45//8
f 45//8 44//2 52//9
f 52//9 44//2 59//10
f 59//10 44//2 66//11
f 66//11 44//2 73//12
f 73//12 44//2 80//13
f 80//13 44//2 87//14
f 87//14 44//2 94//15
f 94//15 44//2 101//16
f 101//16 44//2 108//17
f 108//17 44//2 1//1
usemtl eye_iris
f 6//18 5//19 12//20 13//21
f 4//22 3//23 10//24 11//25
f 2//26 1//1 8//3 9//27
f 7//28 6//18 13//21 14//29
f 5//19 4//22 11//25 12//20
f 3//23 2//26 9//27 10//24
f 22//30 7//28 14//29
f 14//29 13//21 20//31 21//32
f 12//20 11//25 18//33 19//34
f 10//24 9//27 16//35 17//36
f 22//30 14//29 21//32
f 13//21 12//20 19//34 20//31
f 11//25 10//24 17//36 18//33
f 9//27 8//3 15//4 16//35
f 17//36 16//35 24//37 25//38
f 22//30 21//32 29//39
f 20//31 19//34 27//40 28//41
f 18//33 17//36 25//38 26//42
f 16//35 15//4 23//5 24//37
f 21//32 20//31 28//41 29//39
f 19//34 18//33 26//42 27//40
f 22//30 29//39 36//43
f 28//41 27//40 34//44 35//45
f 26//42 25//38 32//46 33//47
f 24//37 23//5 30//6 31//48
f 29//39 28//41 35//45 36//43
f 27//40 26//42 33//47 34//44
f 25//38 24//37 31//48 32//46
f 31//48 30//6 37//7 38//49
f 36//43 35//45 42//50 43//51
f 34//44 33//47 40//52 41//53
f 32//46 31//48 38//49 39//54
f 22//30 36//43 43//51
f 35//45 34//44 41//53 42//50
f 33//47 32//46 39//54 40//52
f 43//51 42//50 50//55 51//56
f 41//53 40//52 48//57 49//58
f 39//54 38//49 46//59 47//60
f 22//30 43//51 51//56
f 42//50 41//53 49//58 50//55
f 40//52 39//54 47//60 48//57
f 38//49 37//7 45//8 46//59
f 22//30 51//56 58//61
f 50//55 49//58 56//62 57//63
f 48//57 47//60 54//64 55//65
f 46//59 45//8 52//9 53//66
f 51//56 50//55 57//63 58//61
f 49//58 48//57 55//65 56//62
f 47//60 46//59 53//66 54//64
f 57//63 56//62 63//67 64//68
f 55//65 54//64 61//69 62//70
f 53//66 52//9 59//10 60//71
f 58//61 57//63 64//68 65//72
f 56//62 55//65 62//70 63//67
f 54//64 53//66 60//71 61//69
f 22//30 58//61 65//72
f 65//72 64//68 71//73 72//74
f 63//67 62//70 69//75 70//76
f 61//69 60//71 67//77 68//78
f 22//30 65//72 72//74
f 64//68 63//67 70//76 71//73
f 62//70 61//69 68//78 69//75
f 60//71 59//10 66//11 67//77
f 70//76 69//75 76//79 77//80
f 68//78 67//77 74//81 75//82
f 22//30 72//74 79//83
f 71//73 70//76 77//80 78//84
f 69//75 68//78 75//82 76//79
f 67//77 66//11 73//12 74//81
f 72//74 71//73 78//84 79//83
f 22//30 79//83 86//85
f 78//84 77//80 84//86 85//87
f 76//79 75//82 82//88 83//89
f 74//81 73//12 80//13 81//90
f 79//83 78//84 85//87 86//85
f 77//80 76//79 83//89 84//86
f 75//82 74//81 81//90 82//88
f 83//89 82//88 89//91 90//92
f 81//90 80//13 87//14 88//93
f 86//85 85//87 92//94 93//95
f 84//86 83//89 90//92 91//96
f 82//88 81//90 88//93 89//91
f 22//30 86//85 93//95
f 85//87 84//86 91//96 92//94
f 93//95 92//94 99//97 100//98
f 91//96 90//92 97//99 98//100
f 89//91 88//93 95//101 96//102
f 22//30 93//95 100//98
f 92//94 91//96 98//100 99//97
f 90//92 89//91 96//102 97//99
f 88//93 87//14 94//15 95//101
f 96//102 95//101 102//103 103//104
f 22//30 100//98 107//105
f 99//97 98//100 105//106 106//107
f 97//99 96//102 103//104 104//108
f 95//101 94//15 101//16 102//103
f 100//98 99//97 106//107 107//105
f 98//100 97//99 104//108 105//106
f 22//30 107//105 114//109
f 106//107 105//106 112//110 113//111
f 104//108 103//104 110//112 111//113
f 102//103 101//16 108//17 109//114
f 107//105 106//107 113//111 114//109
f 105//106 104//108 111//113 112//110
f 103//104 102//103 109//114 110//112
f 109//114 108//17 1//1 2//26
f 114//109 113//111 6//18 7//28
f 112//110 111//113 4//22 5//19
f 110//112 109//114 2//26 3//23
f 22//30 114//109 7//28
f 113//111 112//110 5//19 6//18
f 111//113 110//112 3//23 4//22
