# Blender v2.79 (sub 0) OBJ File: 'goose_base_mesh_BI.blend'
# www.blender.org
mtllib goose_feather_flight_tertiary_057.mtl
o feather_flight_tertiary_057
v 0.496413 0.378372 0.106800
v 0.489425 0.373995 0.106839
v 0.521298 0.341472 0.106786
v 0.511761 0.335499 0.106840
v 0.491717 0.378114 0.105827
v 0.517848 0.336391 0.105820
v 0.502311 0.373179 0.106788
v 0.509113 0.365869 0.106778
v 0.515338 0.358197 0.106770
v 0.520259 0.349709 0.106771
v 0.504804 0.340029 0.106858
v 0.499315 0.348162 0.106861
v 0.495131 0.357111 0.106856
v 0.491523 0.366422 0.106849
v 0.496922 0.369803 0.105826
v 0.502127 0.361493 0.105824
v 0.507332 0.353183 0.105823
v 0.512536 0.344872 0.105822
vn 0.0038 -0.0148 -0.9999
vn 0.1039 0.0505 -0.9933
vn 0.1275 0.0476 -0.9907
vn 0.0107 -0.0258 -0.9996
vn -0.0986 -0.0763 -0.9922
vn -0.1062 -0.0987 -0.9894
vn -0.0173 0.0190 -0.9997
vn 0.1451 0.1202 -0.9821
vn 0.1209 0.0971 -0.9879
vn -0.0140 0.0139 -0.9998
vn 0.0942 0.0705 -0.9930
vn -0.0093 0.0061 -0.9999
vn 0.0869 0.0574 -0.9945
vn -0.0053 -0.0002 -1.0000
vn -0.1788 -0.0827 -0.9804
vn -0.1477 -0.0712 -0.9864
vn -0.1123 -0.0589 -0.9919
vn -0.0974 -0.0580 -0.9935
usemtl feather_white_001
s 1
f 18//1 10//2 3//3 6//4
f 11//5 18//1 6//4 4//6
f 5//7 1//8 7//9 15//10
f 15//10 7//9 8//11 16//12
f 16//12 8//11 9//13 17//14
f 17//14 9//13 10//2 18//1
f 2//15 5//7 15//10 14//16
f 14//16 15//10 16//12 13//17
f 13//17 16//12 17//14 12//18
f 12//18 17//14 18//1 11//5
