# Blender v2.79 (sub 0) OBJ File: 'goose_base_mesh_BI.blend'
# www.blender.org
mtllib goose_feather_tail_primary_006.mtl
o feather_tail_primary_006
v 0.010548 0.322653 -0.280236
v -0.007472 0.322653 -0.284098
v 0.045954 0.322653 -0.430327
v 0.021751 0.322653 -0.435515
v 0.000725 0.325200 -0.278375
v 0.035553 0.325200 -0.440854
v 0.017290 0.322653 -0.291932
v 0.023830 0.322653 -0.307639
v 0.045998 0.322653 -0.400068
v 0.047931 0.322653 -0.416761
v 0.014388 0.322653 -0.423952
v 0.009308 0.322653 -0.407932
v -0.008356 0.322653 -0.314538
v -0.008829 0.322653 -0.297531
v 0.004231 0.325200 -0.294731
v 0.007737 0.325200 -0.311088
v 0.027653 0.325200 -0.404000
v 0.031159 0.325200 -0.420357
v 0.042130 0.322653 -0.381460
v 0.037928 0.322653 -0.362925
v 0.033580 0.322653 -0.344421
v 0.029094 0.322653 -0.325946
v -0.005653 0.322653 -0.333395
v -0.002173 0.322653 -0.352085
v 0.001445 0.322653 -0.370745
v 0.005209 0.322653 -0.389375
v 0.023670 0.325200 -0.385418
v 0.019687 0.325200 -0.366835
v 0.015703 0.325200 -0.348253
v 0.011720 0.325200 -0.329670
vn 0.0034 0.9998 -0.0157
vn 0.1553 0.9877 0.0185
vn 0.1779 0.9839 0.0126
vn 0.0053 0.9997 -0.0248
vn -0.1493 0.9877 -0.0468
vn -0.1675 0.9839 -0.0614
vn -0.0068 0.9995 0.0316
vn 0.2136 0.9738 0.0780
vn 0.1834 0.9810 0.0621
vn -0.0050 0.9997 0.0235
vn 0.1514 0.9875 0.0426
vn -0.0022 0.9999 0.0102
vn -0.0000 1.0000 0.0002
vn 0.1313 0.9909 0.0283
vn 0.1349 0.9905 0.0253
vn 0.0007 1.0000 -0.0035
vn -0.2268 0.9738 -0.0164
vn -0.1928 0.9810 -0.0185
vn -0.1556 0.9875 -0.0232
vn -0.1314 0.9909 -0.0280
vn -0.1334 0.9905 -0.0321
vn 0.1396 0.9896 0.0334
vn -0.0007 1.0000 0.0034
vn 0.1349 0.9904 0.0305
vn -0.0003 1.0000 0.0016
vn 0.1323 0.9908 0.0295
vn -0.0002 1.0000 0.0010
vn -0.1410 0.9896 -0.0267
vn -0.1355 0.9904 -0.0274
vn -0.1328 0.9908 -0.0273
usemtl feather_white_003
s 1
f 18//1 10//2 3//3 6//4
f 11//5 18//1 6//4 4//6
f 5//7 1//8 7//9 15//10
f 15//10 7//9 8//11 16//12
f 27//13 19//14 9//15 17//16
f 17//16 9//15 10//2 18//1
f 2//17 5//7 15//10 14//18
f 14//18 15//10 16//12 13//19
f 26//20 27//13 17//16 12//21
f 12//21 17//16 18//1 11//5
f 16//12 8//11 22//22 30//23
f 30//23 22//22 21//24 29//25
f 29//25 21//24 20//26 28//27
f 28//27 20//26 19//14 27//13
f 13//19 16//12 30//23 23//28
f 23//28 30//23 29//25 24//29
f 24//29 29//25 28//27 25//30
f 25//30 28//27 27//13 26//20
