# Blender v2.79 (sub 0) OBJ File: 'goose_base_mesh_BI.blend'
# www.blender.org
mtllib goose_feather_flight_primary_007.mtl
o feather_flight_primary_007
v 0.342173 0.371071 0.108226
v 0.325363 0.369304 0.108226
v 0.361533 0.216358 0.108226
v 0.338593 0.222749 0.108226
v 0.332935 0.378111 0.109218
v 0.350969 0.215330 0.109218
v 0.349502 0.345298 0.108226
v 0.356936 0.311525 0.108226
v 0.362982 0.277607 0.108226
v 0.365892 0.243359 0.108226
v 0.328715 0.239451 0.108226
v 0.324441 0.273556 0.108226
v 0.323303 0.307990 0.108226
v 0.323552 0.342571 0.108226
v 0.336527 0.343934 0.109218
v 0.340119 0.309758 0.109218
v 0.343712 0.275581 0.109218
v 0.347304 0.241405 0.109218
vn 0.0006 0.0060 -1.0000
vn -0.0591 -0.0023 -0.9982
vn -0.0680 0.0009 -0.9977
vn -0.0197 0.0082 -0.9998
vn 0.0584 0.0124 -0.9982
vn 0.0677 0.0214 -0.9975
vn 0.0007 -0.0071 -1.0000
vn -0.0933 -0.0170 -0.9955
vn -0.0780 -0.0135 -0.9969
vn 0.0005 -0.0054 -1.0000
vn -0.0594 -0.0090 -0.9982
vn 0.0003 -0.0028 -1.0000
vn -0.0529 -0.0063 -0.9986
vn 0.0001 -0.0007 -1.0000
vn 0.0948 0.0027 -0.9955
vn 0.0791 0.0030 -0.9969
vn 0.0600 0.0035 -0.9982
vn 0.0531 0.0049 -0.9986
usemtl feather_white_003
s 1
f 18//1 10//2 3//3 6//4
f 11//5 18//1 6//4 4//6
f 5//7 1//8 7//9 15//10
f 15//10 7//9 8//11 16//12
f 16//12 8//11 9//13 17//14
f 17//14 9//13 10//2 18//1
f 2//15 5//7 15//10 14//16
f 14//16 15//10 16//12 13//17
f 13//17 16//12 17//14 12//18
f 12//18 17//14 18//1 11//5
