# Blender v2.79 (sub 0) OBJ File: 'goose_base_mesh_BI.blend'
# www.blender.org
mtllib goose_feather_flight_primary_010.mtl
o feather_flight_primary_010
v 0.429432 0.373063 0.108226
v 0.411367 0.366129 0.108226
v 0.496679 0.207724 0.108226
v 0.468331 0.203316 0.108226
v 0.417131 0.378111 0.109218
v 0.485033 0.201220 0.109218
v 0.445172 0.346736 0.108226
v 0.463398 0.311594 0.108226
v 0.480134 0.275880 0.108226
v 0.493499 0.238872 0.108226
v 0.453548 0.223536 0.108226
v 0.438716 0.259981 0.108226
v 0.427256 0.297720 0.108226
v 0.417286 0.336032 0.108226
v 0.431229 0.341384 0.109218
v 0.445327 0.304657 0.109218
v 0.459425 0.267931 0.109218
v 0.473523 0.231204 0.109218
vn -0.0017 0.0034 -1.0000
vn -0.0489 -0.0148 -0.9987
vn -0.0566 -0.0136 -0.9983
vn -0.0107 0.0035 -0.9999
vn 0.0458 0.0210 -0.9987
vn 0.0500 0.0262 -0.9984
vn 0.0022 -0.0058 -1.0000
vn -0.0749 -0.0354 -0.9966
vn -0.0628 -0.0291 -0.9976
vn 0.0017 -0.0044 -1.0000
vn -0.0481 -0.0211 -0.9986
vn 0.0009 -0.0023 -1.0000
vn -0.0432 -0.0172 -0.9989
vn 0.0002 -0.0006 -1.0000
vn 0.0794 0.0238 -0.9966
vn 0.0661 0.0204 -0.9976
vn 0.0498 0.0165 -0.9986
vn 0.0437 0.0161 -0.9989
usemtl feather_white_003
s 1
f 18//1 10//2 3//3 6//4
f 11//5 18//1 6//4 4//6
f 5//7 1//8 7//9 15//10
f 15//10 7//9 8//11 16//12
f 16//12 8//11 9//13 17//14
f 17//14 9//13 10//2 18//1
f 2//15 5//7 15//10 14//16
f 14//16 15//10 16//12 13//17
f 13//17 16//12 17//14 12//18
f 12//18 17//14 18//1 11//5
