# Blender v2.79 (sub 0) OBJ File: 'goose_base_mesh_BI.blend'
# www.blender.org
mtllib goose_feather_flight_secondary_016.mtl
o feather_flight_secondary_016
v 0.607928 0.385233 0.109669
v 0.603904 0.368045 0.109384
v 0.728342 0.359663 0.110709
v 0.718456 0.335723 0.110264
v 0.599815 0.378125 0.110473
v 0.726886 0.347648 0.111523
v 0.629287 0.385045 0.109913
v 0.656590 0.382646 0.110196
v 0.683560 0.378827 0.110456
v 0.709780 0.371802 0.110662
v 0.700881 0.333788 0.110033
v 0.674334 0.339418 0.109804
v 0.648539 0.348256 0.109627
v 0.623076 0.358512 0.109474
v 0.626198 0.371798 0.110691
v 0.652581 0.365470 0.110909
v 0.678964 0.359142 0.111127
v 0.705347 0.352814 0.111345
vn 0.0061 0.0145 -0.9998
vn -0.0065 -0.0394 -0.9992
vn -0.0140 -0.0455 -0.9988
vn -0.0002 0.0091 -0.9999
vn 0.0200 0.0684 -0.9974
vn 0.0167 0.0759 -0.9969
vn 0.0204 0.0113 -0.9997
vn -0.0008 -0.0770 -0.9970
vn 0.0003 -0.0615 -0.9981
vn 0.0183 0.0121 -0.9998
vn 0.0015 -0.0432 -0.9991
vn 0.0150 0.0129 -0.9998
vn 0.0004 -0.0363 -0.9993
vn 0.0124 0.0135 -0.9998
vn 0.0415 0.0998 -0.9941
vn 0.0355 0.0855 -0.9957
vn 0.0284 0.0689 -0.9972
vn 0.0243 0.0634 -0.9977
usemtl feather_white_002
s 1
f 18//1 10//2 3//3 6//4
f 11//5 18//1 6//4 4//6
f 5//7 1//8 7//9 15//10
f 15//10 7//9 8//11 16//12
f 16//12 8//11 9//13 17//14
f 17//14 9//13 10//2 18//1
f 2//15 5//7 15//10 14//16
f 14//16 15//10 16//12 13//17
f 13//17 16//12 17//14 12//18
f 12//18 17//14 18//1 11//5
