# Blender v2.79 (sub 0) OBJ File: 'goose_base_mesh_BI.blend'
# www.blender.org
mtllib goose_feather_flight_tertiary_015.mtl
o feather_flight_tertiary_015
v 0.358626 0.376643 0.110733
v 0.348541 0.375455 0.110752
v 0.365231 0.336514 0.110897
v 0.351467 0.334892 0.110923
v 0.353338 0.378106 0.111727
v 0.358612 0.333453 0.111912
v 0.362175 0.370134 0.110756
v 0.365530 0.361512 0.110789
v 0.368053 0.352792 0.110823
v 0.368694 0.343849 0.110861
v 0.346389 0.341221 0.110902
v 0.344929 0.350067 0.110866
v 0.345351 0.359134 0.110827
v 0.346606 0.368300 0.110785
v 0.354389 0.369212 0.111764
v 0.355439 0.360318 0.111801
v 0.356490 0.351424 0.111838
v 0.357540 0.342530 0.111874
vn -0.0032 0.0117 -0.9999
vn -0.0986 -0.0028 -0.9951
vn -0.1164 0.0125 -0.9931
vn -0.0049 0.0258 -0.9996
vn 0.0930 0.0198 -0.9955
vn 0.1068 0.0389 -0.9935
vn 0.0020 -0.0316 -0.9995
vn -0.1531 -0.0496 -0.9870
vn -0.1262 -0.0385 -0.9912
vn 0.0012 -0.0251 -0.9997
vn -0.0982 -0.0262 -0.9948
vn 0.0000 -0.0151 -0.9999
vn -0.0889 -0.0172 -0.9959
vn -0.0010 -0.0070 -1.0000
vn 0.1570 -0.0130 -0.9875
vn 0.1281 -0.0085 -0.9917
vn 0.0981 -0.0030 -0.9951
vn 0.0869 0.0035 -0.9962
usemtl feather_white_001
s 1
f 18//1 10//2 3//3 6//4
f 11//5 18//1 6//4 4//6
f 5//7 1//8 7//9 15//10
f 15//10 7//9 8//11 16//12
f 16//12 8//11 9//13 17//14
f 17//14 9//13 10//2 18//1
f 2//15 5//7 15//10 14//16
f 14//16 15//10 16//12 13//17
f 13//17 16//12 17//14 12//18
f 12//18 17//14 18//1 11//5
