# Blender v2.79 (sub 0) OBJ File: 'goose_base_mesh_BI.blend'
# www.blender.org
mtllib goose_feather_flight_secondary_025.mtl
o feather_flight_secondary_025
v 0.398392 0.375698 0.107931
v 0.382224 0.371381 0.107918
v 0.425227 0.287041 0.107752
v 0.400984 0.283814 0.107740
v 0.389087 0.378108 0.106941
v 0.414448 0.283141 0.106749
v 0.406832 0.361725 0.107904
v 0.415793 0.342994 0.107867
v 0.423419 0.323907 0.107829
v 0.428028 0.304015 0.107788
v 0.392271 0.294468 0.107761
v 0.386349 0.314010 0.107800
v 0.383444 0.334358 0.107842
v 0.381874 0.355062 0.107884
v 0.394353 0.358391 0.106902
v 0.399618 0.338674 0.106862
v 0.404884 0.318956 0.106822
v 0.410149 0.299239 0.106782
vn 0.0025 -0.0048 -1.0000
vn 0.0584 0.0108 -0.9982
vn 0.0684 0.0052 -0.9976
vn 0.0098 -0.0095 -0.9999
vn -0.0540 -0.0184 -0.9984
vn -0.0592 -0.0268 -0.9979
vn -0.0029 0.0137 -0.9999
vn 0.0894 0.0383 -0.9952
vn 0.0742 0.0308 -0.9967
vn -0.0021 0.0109 -0.9999
vn 0.0573 0.0221 -0.9981
vn -0.0010 0.0067 -1.0000
vn 0.0519 0.0171 -0.9985
vn -0.0001 0.0032 -1.0000
vn -0.0952 -0.0109 -0.9954
vn -0.0783 -0.0099 -0.9969
vn -0.0593 -0.0090 -0.9982
vn -0.0521 -0.0107 -0.9986
usemtl feather_white_002
s 1
f 18//1 10//2 3//3 6//4
f 11//5 18//1 6//4 4//6
f 5//7 1//8 7//9 15//10
f 15//10 7//9 8//11 16//12
f 16//12 8//11 9//13 17//14
f 17//14 9//13 10//2 18//1
f 2//15 5//7 15//10 14//16
f 14//16 15//10 16//12 13//17
f 13//17 16//12 17//14 12//18
f 12//18 17//14 18//1 11//5
