# Blender v2.79 (sub 0) OBJ File: 'goose_base_mesh_BI.blend'
# www.blender.org
mtllib goose_feather_flight_secondary_003.mtl
o feather_flight_secondary_003
v 0.225247 0.374231 0.109476
v 0.211529 0.374231 0.109476
v 0.227748 0.298321 0.109476
v 0.207866 0.300892 0.109476
v 0.218388 0.378111 0.110468
v 0.218388 0.297514 0.110468
v 0.228976 0.361377 0.109476
v 0.232111 0.344643 0.109476
v 0.234114 0.327909 0.109476
v 0.233557 0.311175 0.109476
v 0.203219 0.311175 0.109476
v 0.202662 0.327909 0.109476
v 0.204665 0.344643 0.109476
v 0.207800 0.361377 0.109476
v 0.218388 0.361377 0.110468
v 0.218388 0.344643 0.110468
v 0.218388 0.327909 0.110468
v 0.218388 0.311175 0.110468
vn -0.0005 0.0088 -0.9999
vn -0.0712 0.0080 -0.9974
vn -0.0812 0.0178 -0.9965
vn -0.0076 0.0167 -0.9998
vn 0.0703 0.0070 -0.9975
vn 0.0790 0.0153 -0.9967
vn 0.0000 -0.0147 -0.9999
vn -0.1162 -0.0146 -0.9931
vn -0.0961 -0.0106 -0.9953
vn 0.0000 -0.0112 -0.9999
vn -0.0736 -0.0056 -0.9973
vn 0.0000 -0.0058 -1.0000
vn -0.0656 -0.0014 -0.9978
vn 0.0000 -0.0015 -1.0000
vn 0.1162 -0.0146 -0.9931
vn 0.0961 -0.0106 -0.9953
vn 0.0736 -0.0056 -0.9973
vn 0.0656 -0.0014 -0.9978
usemtl feather_white_002
s 1
f 18//1 10//2 3//3 6//4
f 11//5 18//1 6//4 4//6
f 5//7 1//8 7//9 15//10
f 15//10 7//9 8//11 16//12
f 16//12 8//11 9//13 17//14
f 17//14 9//13 10//2 18//1
f 2//15 5//7 15//10 14//16
f 14//16 15//10 16//12 13//17
f 13//17 16//12 17//14 12//18
f 12//18 17//14 18//1 11//5
