# Blender v2.79 (sub 0) OBJ File: 'goose_base_mesh_BI.blend'
# www.blender.org
mtllib goose_feather_flight_tertiary_004.mtl
o feather_flight_tertiary_004
v 0.204478 0.376297 0.110733
v 0.193936 0.376113 0.110733
v 0.207052 0.339038 0.110733
v 0.192665 0.338786 0.110733
v 0.199174 0.378111 0.111725
v 0.199894 0.336837 0.111725
v 0.207455 0.370032 0.110733
v 0.210007 0.361853 0.110733
v 0.211690 0.353659 0.110733
v 0.211405 0.345430 0.110733
v 0.188090 0.345023 0.110733
v 0.187519 0.353237 0.110733
v 0.188915 0.361485 0.110733
v 0.191180 0.369748 0.110733
v 0.199317 0.369890 0.111725
v 0.199461 0.361669 0.111725
v 0.199604 0.353448 0.111725
v 0.199748 0.345227 0.111725
vn -0.0003 0.0176 -0.9998
vn -0.0928 0.0119 -0.9956
vn -0.1087 0.0309 -0.9936
vn -0.0005 0.0330 -0.9995
vn 0.0923 0.0152 -0.9956
vn 0.1076 0.0347 -0.9936
vn 0.0005 -0.0300 -0.9995
vn -0.1499 -0.0323 -0.9882
vn -0.1224 -0.0230 -0.9922
vn 0.0004 -0.0227 -0.9997
vn -0.0949 -0.0129 -0.9954
vn 0.0002 -0.0119 -0.9999
vn -0.0851 -0.0042 -0.9963
vn 0.0000 -0.0030 -1.0000
vn 0.1509 -0.0270 -0.9882
vn 0.1231 -0.0187 -0.9922
vn 0.0952 -0.0096 -0.9954
vn 0.0852 -0.0013 -0.9963
usemtl feather_white_001
s 1
f 18//1 10//2 3//3 6//4
f 11//5 18//1 6//4 4//6
f 5//7 1//8 7//9 15//10
f 15//10 7//9 8//11 16//12
f 16//12 8//11 9//13 17//14
f 17//14 9//13 10//2 18//1
f 2//15 5//7 15//10 14//16
f 14//16 15//10 16//12 13//17
f 13//17 16//12 17//14 12//18
f 12//18 17//14 18//1 11//5
