# Blender v2.79 (sub 0) OBJ File: 'goose_base_mesh_BI.blend'
# www.blender.org
mtllib goose_feather_flight_secondary_032.mtl
o feather_flight_secondary_032
v 0.607928 0.385250 0.107741
v 0.603904 0.368061 0.108026
v 0.728342 0.359679 0.106700
v 0.718456 0.335739 0.107146
v 0.599815 0.378142 0.106937
v 0.726886 0.347665 0.105887
v 0.629287 0.385062 0.107496
v 0.656590 0.382662 0.107213
v 0.683560 0.378844 0.106954
v 0.709780 0.371818 0.106747
v 0.700881 0.333805 0.107377
v 0.674334 0.339435 0.107606
v 0.648539 0.348272 0.107783
v 0.623076 0.358528 0.107936
v 0.626198 0.371814 0.106719
v 0.652581 0.365486 0.106501
v 0.678964 0.359158 0.106283
v 0.705347 0.352831 0.106065
vn -0.0061 -0.0145 -0.9998
vn 0.0065 0.0394 -0.9992
vn 0.0140 0.0455 -0.9988
vn 0.0002 -0.0091 -0.9999
vn -0.0200 -0.0684 -0.9974
vn -0.0167 -0.0759 -0.9969
vn -0.0204 -0.0113 -0.9997
vn 0.0008 0.0770 -0.9970
vn -0.0003 0.0615 -0.9981
vn -0.0183 -0.0121 -0.9998
vn -0.0015 0.0432 -0.9991
vn -0.0150 -0.0129 -0.9998
vn -0.0004 0.0363 -0.9993
vn -0.0124 -0.0135 -0.9998
vn -0.0415 -0.0998 -0.9941
vn -0.0355 -0.0855 -0.9957
vn -0.0284 -0.0689 -0.9972
vn -0.0243 -0.0634 -0.9977
usemtl feather_white_002
s 1
f 18//1 10//2 3//3 6//4
f 11//5 18//1 6//4 4//6
f 5//7 1//8 7//9 15//10
f 15//10 7//9 8//11 16//12
f 16//12 8//11 9//13 17//14
f 17//14 9//13 10//2 18//1
f 2//15 5//7 15//10 14//16
f 14//16 15//10 16//12 13//17
f 13//17 16//12 17//14 12//18
f 12//18 17//14 18//1 11//5
