# Blender v2.79 (sub 0) OBJ File: 'goose_base_mesh_BI.blend'
# www.blender.org
mtllib goose_feather_tail_secondary_003.mtl
o feather_tail_secondary_003
v 0.023103 0.324692 -0.269035
v 0.010147 0.324692 -0.281019
v 0.013816 0.327239 -0.271990
v 0.035322 0.324692 -0.276405
v 0.049618 0.324692 -0.287487
v 0.026476 0.324692 -0.308891
v 0.016541 0.324692 -0.293774
v 0.025931 0.327239 -0.285089
v 0.038047 0.327239 -0.298189
v 0.087268 0.324692 -0.328630
v 0.078429 0.324692 -0.316064
v 0.064303 0.324692 -0.301517
v 0.039320 0.324692 -0.324624
v 0.052722 0.324692 -0.339841
v 0.064561 0.324692 -0.349632
v 0.079340 0.327239 -0.342834
v 0.065576 0.327239 -0.327953
v 0.051811 0.327239 -0.313071
vn -0.0206 0.9995 0.0223
vn 0.1523 0.9716 0.1810
vn 0.1333 0.9793 0.1519
vn -0.0153 0.9997 0.0165
vn 0.1139 0.9864 0.1181
vn -0.0067 0.9999 0.0072
vn -0.1923 0.9716 -0.1377
vn -0.1618 0.9793 -0.1211
vn -0.1266 0.9864 -0.1044
vn 0.1077 0.9887 0.1040
vn -0.0022 1.0000 0.0024
vn 0.1123 0.9887 0.0993
vn 0.0024 1.0000 -0.0026
vn 0.1191 0.9880 0.0981
vn 0.0061 0.9999 -0.0066
vn -0.1121 0.9887 -0.0993
vn -0.1077 0.9887 -0.1042
vn -0.1071 0.9880 -0.1111
usemtl feather_white_001
s 1
f 3//1 1//2 4//3 8//4
f 8//4 4//3 5//5 9//6
f 2//7 3//1 8//4 7//8
f 7//8 8//4 9//6 6//9
f 9//6 5//5 12//10 18//11
f 18//11 12//10 11//12 17//13
f 17//13 11//12 10//14 16//15
f 6//9 9//6 18//11 13//16
f 13//16 18//11 17//13 14//17
f 14//17 17//13 16//15 15//18
