# Blender v2.79 (sub 0) OBJ File: 'goose_base_mesh_BI.blend'
# www.blender.org
mtllib goose_feather_flight_tertiary_009.mtl
o feather_flight_tertiary_009
v 0.272527 0.376582 0.110733
v 0.262104 0.375853 0.110733
v 0.277018 0.339672 0.110733
v 0.262794 0.338677 0.110733
v 0.267183 0.378111 0.111725
v 0.270050 0.337114 0.111725
v 0.275799 0.370507 0.110733
v 0.278752 0.362508 0.110733
v 0.280845 0.354449 0.110733
v 0.280993 0.346253 0.110733
v 0.257941 0.344641 0.110733
v 0.256947 0.352777 0.110733
v 0.257898 0.361050 0.110733
v 0.259709 0.369382 0.110733
v 0.267754 0.369945 0.111725
v 0.268325 0.361779 0.111725
v 0.268896 0.353613 0.111725
v 0.269467 0.345447 0.111725
vn -0.0012 0.0176 -0.9998
vn -0.0941 0.0071 -0.9955
vn -0.1112 0.0253 -0.9935
vn -0.0023 0.0331 -0.9994
vn 0.0922 0.0201 -0.9955
vn 0.1066 0.0405 -0.9935
vn 0.0021 -0.0301 -0.9995
vn -0.1493 -0.0403 -0.9879
vn -0.1221 -0.0296 -0.9921
vn 0.0016 -0.0228 -0.9997
vn -0.0949 -0.0180 -0.9953
vn 0.0008 -0.0119 -0.9999
vn -0.0856 -0.0088 -0.9963
vn 0.0002 -0.0030 -1.0000
vn 0.1535 -0.0191 -0.9879
vn 0.1251 -0.0123 -0.9921
vn 0.0965 -0.0046 -0.9953
vn 0.0860 0.0032 -0.9963
usemtl feather_white_001
s 1
f 18//1 10//2 3//3 6//4
f 11//5 18//1 6//4 4//6
f 5//7 1//8 7//9 15//10
f 15//10 7//9 8//11 16//12
f 16//12 8//11 9//13 17//14
f 17//14 9//13 10//2 18//1
f 2//15 5//7 15//10 14//16
f 14//16 15//10 16//12 13//17
f 13//17 16//12 17//14 12//18
f 12//18 17//14 18//1 11//5
