# Blender v2.79 (sub 0) OBJ File: 'goose_base_mesh_BI.blend'
# www.blender.org
mtllib goose_feather_flight_tertiary_032.mtl
o feather_flight_tertiary_032
v 0.607349 0.381462 0.110857
v 0.605806 0.373813 0.110739
v 0.650426 0.373952 0.111230
v 0.648321 0.363513 0.111069
v 0.604404 0.378109 0.111730
v 0.651768 0.368253 0.112118
v 0.615015 0.382034 0.110949
v 0.624802 0.381819 0.111053
v 0.634461 0.380972 0.111147
v 0.643833 0.378699 0.111220
v 0.640421 0.361782 0.110960
v 0.630924 0.363435 0.110878
v 0.621715 0.366514 0.110817
v 0.612634 0.370225 0.110767
v 0.613838 0.376146 0.111807
v 0.623272 0.374183 0.111885
v 0.632706 0.372220 0.111962
v 0.642140 0.370257 0.112039
vn -0.0032 0.0154 -0.9998
vn -0.0258 -0.1031 -0.9943
vn -0.0439 -0.1187 -0.9919
vn -0.0154 0.0187 -0.9997
vn 0.0234 0.1332 -0.9908
vn 0.0130 0.1541 -0.9879
vn 0.0346 0.0068 -0.9994
vn -0.0051 -0.1819 -0.9833
vn -0.0048 -0.1483 -0.9889
vn 0.0289 0.0086 -0.9995
vn -0.0051 -0.1099 -0.9939
vn 0.0203 0.0107 -0.9997
vn -0.0092 -0.0953 -0.9954
vn 0.0132 0.0123 -0.9998
vn 0.0731 0.1958 -0.9779
vn 0.0602 0.1654 -0.9844
vn 0.0449 0.1312 -0.9903
vn 0.0354 0.1198 -0.9922
usemtl feather_white_001
s 1
f 18//1 10//2 3//3 6//4
f 11//5 18//1 6//4 4//6
f 5//7 1//8 7//9 15//10
f 15//10 7//9 8//11 16//12
f 16//12 8//11 9//13 17//14
f 17//14 9//13 10//2 18//1
f 2//15 5//7 15//10 14//16
f 14//16 15//10 16//12 13//17
f 13//17 16//12 17//14 12//18
f 12//18 17//14 18//1 11//5
