# Blender v2.79 (sub 0) OBJ File: 'goose_base_mesh_BI.blend'
# www.blender.org
mtllib goose_feather_flight_tertiary_031.mtl
o feather_flight_tertiary_031
v 0.591684 0.380496 0.110817
v 0.588174 0.373379 0.110691
v 0.637042 0.359416 0.111269
v 0.632252 0.349704 0.111097
v 0.587663 0.378095 0.111729
v 0.637153 0.353329 0.112204
v 0.600211 0.378641 0.110924
v 0.610870 0.375335 0.111047
v 0.621241 0.371441 0.111160
v 0.630956 0.366219 0.111250
v 0.623193 0.350479 0.110971
v 0.613193 0.355124 0.110871
v 0.603848 0.361096 0.110795
v 0.594792 0.367655 0.110729
v 0.597521 0.373162 0.111824
v 0.607378 0.368229 0.111918
v 0.617236 0.363296 0.112013
v 0.627094 0.358363 0.112107
vn 0.0027 0.0157 -0.9998
vn -0.0516 -0.0968 -0.9940
vn -0.0721 -0.1081 -0.9915
vn -0.0073 0.0215 -0.9997
vn 0.0601 0.1266 -0.9901
vn 0.0568 0.1490 -0.9872
vn 0.0343 -0.0008 -0.9994
vn -0.0552 -0.1788 -0.9823
vn -0.0455 -0.1462 -0.9882
vn 0.0296 0.0020 -0.9995
vn -0.0347 -0.1078 -0.9936
vn 0.0225 0.0060 -0.9997
vn -0.0343 -0.0925 -0.9951
vn 0.0166 0.0090 -0.9998
vn 0.1225 0.1772 -0.9765
vn 0.1026 0.1505 -0.9832
vn 0.0790 0.1197 -0.9897
vn 0.0671 0.1104 -0.9916
usemtl feather_white_001
s 1
f 18//1 10//2 3//3 6//4
f 11//5 18//1 6//4 4//6
f 5//7 1//8 7//9 15//10
f 15//10 7//9 8//11 16//12
f 16//12 8//11 9//13 17//14
f 17//14 9//13 10//2 18//1
f 2//15 5//7 15//10 14//16
f 14//16 15//10 16//12 13//17
f 13//17 16//12 17//14 12//18
f 12//18 17//14 18//1 11//5
