# Blender v2.79 (sub 0) OBJ File: 'goose_base_mesh_BI.blend'
# www.blender.org
mtllib goose_feather_flight_secondary_015.mtl
o feather_flight_secondary_015
v 0.569423 0.383914 0.109673
v 0.562280 0.367296 0.109340
v 0.680823 0.339120 0.110329
v 0.666742 0.316655 0.109826
v 0.560241 0.378070 0.110474
v 0.677138 0.327294 0.111106
v 0.590008 0.380333 0.109864
v 0.615911 0.373589 0.110071
v 0.641224 0.365472 0.110251
v 0.665205 0.354255 0.110369
v 0.649407 0.317504 0.109633
v 0.624847 0.327372 0.109488
v 0.601619 0.340340 0.109406
v 0.578981 0.354680 0.109350
v 0.584512 0.367528 0.110605
v 0.608782 0.356985 0.110736
v 0.633053 0.346443 0.110867
v 0.657323 0.335900 0.110999
vn 0.0065 0.0166 -0.9998
vn -0.0147 -0.0331 -0.9993
vn -0.0233 -0.0376 -0.9990
vn -0.0006 0.0128 -0.9999
vn 0.0290 0.0659 -0.9974
vn 0.0269 0.0739 -0.9969
vn 0.0203 0.0108 -0.9997
vn -0.0150 -0.0706 -0.9974
vn -0.0113 -0.0557 -0.9984
vn 0.0183 0.0119 -0.9998
vn -0.0073 -0.0382 -0.9992
vn 0.0152 0.0133 -0.9998
vn -0.0073 -0.0315 -0.9995
vn 0.0127 0.0144 -0.9998
vn 0.0556 0.0923 -0.9942
vn 0.0473 0.0795 -0.9957
vn 0.0375 0.0649 -0.9972
vn 0.0326 0.0603 -0.9976
usemtl feather_white_002
s 1
f 18//1 10//2 3//3 6//4
f 11//5 18//1 6//4 4//6
f 5//7 1//8 7//9 15//10
f 15//10 7//9 8//11 16//12
f 16//12 8//11 9//13 17//14
f 17//14 9//13 10//2 18//1
f 2//15 5//7 15//10 14//16
f 14//16 15//10 16//12 13//17
f 13//17 16//12 17//14 12//18
f 12//18 17//14 18//1 11//5
