# Blender v2.79 (sub 0) OBJ File: 'goose_base_mesh_BI.blend'
# www.blender.org
mtllib goose_feather_tail_secondary_009.mtl
o feather_tail_secondary_009
v 0.011774 0.321680 -0.280605
v 0.021629 0.321680 -0.266653
v 0.013182 0.319132 -0.271144
v 0.021220 0.321680 -0.291977
v 0.034740 0.321680 -0.305047
v 0.052342 0.321680 -0.280126
v 0.035504 0.321680 -0.271754
v 0.028362 0.319132 -0.281865
v 0.043541 0.319132 -0.292587
v 0.082349 0.321680 -0.338322
v 0.068255 0.321680 -0.330789
v 0.051285 0.321680 -0.318219
v 0.070287 0.321680 -0.291316
v 0.087807 0.321680 -0.303107
v 0.099620 0.321680 -0.313871
v 0.095276 0.319132 -0.329128
v 0.078031 0.319132 -0.316948
v 0.060786 0.319132 -0.304767
vn -0.0238 -0.9996 0.0168
vn -0.1627 -0.9698 -0.1814
vn -0.1363 -0.9780 -0.1580
vn -0.0177 -0.9998 0.0125
vn -0.1049 -0.9855 -0.1330
vn -0.0077 -0.9999 0.0054
vn 0.1165 -0.9698 0.2140
vn 0.1033 -0.9780 0.1813
vn 0.0903 -0.9855 0.1433
vn -0.0917 -0.9880 -0.1245
vn -0.0026 -1.0000 0.0018
vn -0.0866 -0.9879 -0.1282
vn 0.0028 -1.0000 -0.0020
vn -0.0848 -0.9872 -0.1348
vn 0.0070 -0.9999 -0.0049
vn 0.0866 -0.9880 0.1280
vn 0.0919 -0.9879 0.1245
vn 0.0987 -0.9872 0.1250
usemtl feather_white_001
s 1
f 3//1 1//2 4//3 8//4
f 8//4 4//3 5//5 9//6
f 2//7 3//1 8//4 7//8
f 7//8 8//4 9//6 6//9
f 9//6 5//5 12//10 18//11
f 18//11 12//10 11//12 17//13
f 17//13 11//12 10//14 16//15
f 6//9 9//6 18//11 13//16
f 13//16 18//11 17//13 14//17
f 14//17 17//13 16//15 15//18
