# Blender v2.79 (sub 0) OBJ File: 'goose_base_mesh_BI.blend'
# www.blender.org
mtllib goose_feather_flight_tertiary_045.mtl
o feather_flight_tertiary_045
v 0.331335 0.376398 0.106818
v 0.320667 0.375705 0.106810
v 0.335897 0.336228 0.106742
v 0.321340 0.335283 0.106731
v 0.325866 0.378109 0.105826
v 0.328763 0.333511 0.105740
v 0.334678 0.369762 0.106807
v 0.337693 0.361037 0.106792
v 0.339827 0.352256 0.106776
v 0.339971 0.343344 0.106759
v 0.316379 0.341813 0.106741
v 0.315369 0.350668 0.106758
v 0.316350 0.359652 0.106776
v 0.318210 0.368693 0.106795
v 0.326443 0.369226 0.105809
v 0.327020 0.360343 0.105792
v 0.327597 0.351460 0.105775
v 0.328174 0.342576 0.105757
vn 0.0016 -0.0143 -0.9999
vn 0.0927 -0.0048 -0.9957
vn 0.1091 -0.0214 -0.9938
vn 0.0026 -0.0285 -0.9996
vn -0.0899 -0.0167 -0.9958
vn -0.1040 -0.0352 -0.9939
vn -0.0012 0.0296 -0.9995
vn 0.1469 0.0389 -0.9884
vn 0.1205 0.0292 -0.9923
vn -0.0008 0.0229 -0.9997
vn 0.0936 0.0184 -0.9954
vn -0.0001 0.0129 -0.9999
vn 0.0843 0.0099 -0.9964
vn 0.0004 0.0047 -1.0000
vn -0.1493 0.0197 -0.9886
vn -0.1219 0.0134 -0.9924
vn -0.0938 0.0063 -0.9955
vn -0.0835 -0.0009 -0.9965
usemtl feather_white_001
s 1
f 18//1 10//2 3//3 6//4
f 11//5 18//1 6//4 4//6
f 5//7 1//8 7//9 15//10
f 15//10 7//9 8//11 16//12
f 16//12 8//11 9//13 17//14
f 17//14 9//13 10//2 18//1
f 2//15 5//7 15//10 14//16
f 14//16 15//10 16//12 13//17
f 13//17 16//12 17//14 12//18
f 12//18 17//14 18//1 11//5
