# Blender v2.79 (sub 0) OBJ File: 'goose_base_mesh_BI.blend'
# www.blender.org
mtllib goose_feather_tail_secondary_007.mtl
o feather_tail_secondary_007
v 0.007549 0.326907 -0.282267
v -0.007549 0.326907 -0.282267
v -0.000000 0.329455 -0.278409
v 0.010942 0.326907 -0.295050
v 0.013483 0.326907 -0.311691
v -0.013483 0.326907 -0.311691
v -0.010942 0.326907 -0.295050
v -0.000000 0.329455 -0.295050
v -0.000000 0.329455 -0.311691
v 0.013229 0.326907 -0.363701
v 0.014977 0.326907 -0.349501
v 0.014556 0.326907 -0.330596
v -0.014556 0.326907 -0.330596
v -0.014977 0.326907 -0.349501
v -0.013229 0.326907 -0.363701
v -0.000000 0.329455 -0.368406
v -0.000000 0.329455 -0.349501
v -0.000000 0.329455 -0.330596
vn 0.0000 0.9995 0.0325
vn 0.2716 0.9619 0.0313
vn 0.2336 0.9720 0.0224
vn 0.0000 0.9997 0.0241
vn 0.1906 0.9816 0.0100
vn 0.0000 0.9999 0.0105
vn -0.2716 0.9619 0.0313
vn -0.2336 0.9720 0.0224
vn -0.1906 0.9816 0.0100
vn 0.1743 0.9847 0.0034
vn 0.0000 1.0000 0.0035
vn 0.1745 0.9846 -0.0036
vn 0.0000 1.0000 -0.0038
vn 0.1793 0.9837 -0.0095
vn 0.0000 0.9999 -0.0096
vn -0.1743 0.9847 0.0034
vn -0.1745 0.9846 -0.0036
vn -0.1793 0.9837 -0.0095
usemtl feather_white_001
s 1
f 3//1 1//2 4//3 8//4
f 8//4 4//3 5//5 9//6
f 2//7 3//1 8//4 7//8
f 7//8 8//4 9//6 6//9
f 9//6 5//5 12//10 18//11
f 18//11 12//10 11//12 17//13
f 17//13 11//12 10//14 16//15
f 6//9 9//6 18//11 13//16
f 13//16 18//11 17//13 14//17
f 14//17 17//13 16//15 15//18
