# Blender v2.79 (sub 0) OBJ File: 'goose_base_mesh_BI.blend'
# www.blender.org
mtllib goose_feather_flight_primary_004.mtl
o feather_flight_primary_004
v 0.255194 0.370753 0.108226
v 0.239585 0.370753 0.108226
v 0.258039 0.226800 0.108226
v 0.236739 0.235603 0.108226
v 0.247389 0.378111 0.109218
v 0.247389 0.227595 0.109218
v 0.259437 0.346377 0.108226
v 0.263004 0.314644 0.108226
v 0.265282 0.282910 0.108226
v 0.264649 0.251177 0.108226
v 0.230129 0.251177 0.108226
v 0.229496 0.282910 0.108226
v 0.231775 0.314644 0.108226
v 0.235342 0.346377 0.108226
v 0.247389 0.346377 0.109218
v 0.247389 0.314644 0.109218
v 0.247389 0.282910 0.109218
v 0.247389 0.251177 0.109218
vn 0.0009 0.0059 -1.0000
vn -0.0628 0.0047 -0.9980
vn -0.0706 0.0097 -0.9974
vn -0.0183 0.0108 -0.9998
vn 0.0640 0.0056 -0.9979
vn 0.0745 0.0126 -0.9971
vn 0.0000 -0.0078 -1.0000
vn -0.1023 -0.0077 -0.9947
vn -0.0855 -0.0057 -0.9963
vn 0.0000 -0.0059 -1.0000
vn -0.0649 -0.0030 -0.9979
vn 0.0000 -0.0031 -1.0000
vn -0.0577 -0.0007 -0.9983
vn 0.0000 -0.0008 -1.0000
vn 0.1023 -0.0077 -0.9947
vn 0.0855 -0.0057 -0.9963
vn 0.0649 -0.0030 -0.9979
vn 0.0577 -0.0007 -0.9983
usemtl feather_white_003
s 1
f 18//1 10//2 3//3 6//4
f 11//5 18//1 6//4 4//6
f 5//7 1//8 7//9 15//10
f 15//10 7//9 8//11 16//12
f 16//12 8//11 9//13 17//14
f 17//14 9//13 10//2 18//1
f 2//15 5//7 15//10 14//16
f 14//16 15//10 16//12 13//17
f 13//17 16//12 17//14 12//18
f 12//18 17//14 18//1 11//5
