# Blender v2.79 (sub 0) OBJ File: 'goose_base_mesh_BI.blend'
# www.blender.org
mtllib goose_feather_flight_tertiary_040.mtl
o feather_flight_tertiary_040
v 0.258248 0.376676 0.106818
v 0.248463 0.375991 0.106818
v 0.262464 0.342024 0.106818
v 0.249110 0.341090 0.106818
v 0.253231 0.378111 0.105826
v 0.255923 0.339622 0.105826
v 0.261320 0.370973 0.106818
v 0.264093 0.363463 0.106818
v 0.266057 0.355897 0.106818
v 0.266196 0.348203 0.106818
v 0.244555 0.346689 0.106818
v 0.243622 0.354328 0.106818
v 0.244514 0.362094 0.106818
v 0.246214 0.369916 0.106818
v 0.253767 0.370445 0.105826
v 0.254303 0.362778 0.105826
v 0.254840 0.355112 0.105826
v 0.255376 0.347446 0.105826
vn 0.0013 -0.0188 -0.9998
vn 0.1002 -0.0075 -0.9949
vn 0.1184 -0.0269 -0.9926
vn 0.0024 -0.0352 -0.9994
vn -0.0982 -0.0214 -0.9949
vn -0.1134 -0.0431 -0.9926
vn -0.0022 0.0320 -0.9995
vn 0.1588 0.0428 -0.9864
vn 0.1299 0.0315 -0.9910
vn -0.0017 0.0243 -0.9997
vn 0.1010 0.0191 -0.9947
vn -0.0009 0.0127 -0.9999
vn 0.0911 0.0093 -0.9958
vn -0.0002 0.0032 -1.0000
vn -0.1632 0.0203 -0.9864
vn -0.1331 0.0131 -0.9910
vn -0.1027 0.0049 -0.9947
vn -0.0915 -0.0034 -0.9958
usemtl feather_white_001
s 1
f 18//1 10//2 3//3 6//4
f 11//5 18//1 6//4 4//6
f 5//7 1//8 7//9 15//10
f 15//10 7//9 8//11 16//12
f 16//12 8//11 9//13 17//14
f 17//14 9//13 10//2 18//1
f 2//15 5//7 15//10 14//16
f 14//16 15//10 16//12 13//17
f 13//17 16//12 17//14 12//18
f 12//18 17//14 18//1 11//5
