# Blender v2.79 (sub 0) OBJ File: 'goose_base_mesh_BI.blend'
# www.blender.org
mtllib goose_feather_flight_tertiary_005.mtl
o feather_flight_tertiary_005
v 0.217155 0.376303 0.110733
v 0.206650 0.376120 0.110733
v 0.219719 0.339176 0.110733
v 0.205383 0.338926 0.110733
v 0.211869 0.378111 0.111725
v 0.212587 0.336983 0.111725
v 0.220120 0.370061 0.110733
v 0.222664 0.361911 0.110733
v 0.224341 0.353745 0.110733
v 0.224057 0.345546 0.110733
v 0.200825 0.345141 0.110733
v 0.200255 0.353325 0.110733
v 0.201646 0.361544 0.110733
v 0.203904 0.369777 0.110733
v 0.212012 0.369919 0.111725
v 0.212155 0.361727 0.111725
v 0.212298 0.353535 0.111725
v 0.212441 0.345343 0.111725
vn -0.0003 0.0176 -0.9998
vn -0.0931 0.0120 -0.9956
vn -0.1091 0.0310 -0.9935
vn -0.0005 0.0331 -0.9994
vn 0.0926 0.0152 -0.9956
vn 0.1080 0.0349 -0.9935
vn 0.0005 -0.0301 -0.9995
vn -0.1504 -0.0324 -0.9881
vn -0.1228 -0.0231 -0.9922
vn 0.0004 -0.0228 -0.9997
vn -0.0952 -0.0129 -0.9954
vn 0.0002 -0.0119 -0.9999
vn -0.0855 -0.0042 -0.9963
vn 0.0000 -0.0030 -1.0000
vn 0.1515 -0.0271 -0.9881
vn 0.1236 -0.0188 -0.9922
vn 0.0956 -0.0096 -0.9954
vn 0.0855 -0.0013 -0.9963
usemtl feather_white_001
s 1
f 18//1 10//2 3//3 6//4
f 11//5 18//1 6//4 4//6
f 5//7 1//8 7//9 15//10
f 15//10 7//9 8//11 16//12
f 16//12 8//11 9//13 17//14
f 17//14 9//13 10//2 18//1
f 2//15 5//7 15//10 14//16
f 14//16 15//10 16//12 13//17
f 13//17 16//12 17//14 12//18
f 12//18 17//14 18//1 11//5
