# Blender v2.79 (sub 0) OBJ File: 'goose_base_mesh_BI.blend'
# www.blender.org
mtllib goose_feather_flight_tertiary_046.mtl
o feather_flight_tertiary_046
v 0.346265 0.376908 0.106819
v 0.335126 0.375013 0.106810
v 0.355458 0.335180 0.106738
v 0.340258 0.332593 0.106726
v 0.340329 0.378108 0.105826
v 0.348256 0.331543 0.105735
v 0.350505 0.370299 0.106807
v 0.354630 0.361457 0.106791
v 0.357835 0.352459 0.106774
v 0.358961 0.343107 0.106755
v 0.334329 0.338915 0.106737
v 0.332298 0.348113 0.106755
v 0.332345 0.357665 0.106774
v 0.333311 0.367373 0.106794
v 0.341908 0.368833 0.105808
v 0.343487 0.359558 0.105790
v 0.345066 0.350283 0.105772
v 0.346645 0.341009 0.105754
vn 0.0030 -0.0131 -0.9999
vn 0.0878 0.0046 -0.9961
vn 0.1049 -0.0093 -0.9944
vn 0.0052 -0.0264 -0.9996
vn -0.0829 -0.0244 -0.9962
vn -0.0944 -0.0433 -0.9946
vn -0.0040 0.0279 -0.9996
vn 0.1346 0.0512 -0.9896
vn 0.1107 0.0394 -0.9931
vn -0.0029 0.0216 -0.9998
vn 0.0863 0.0266 -0.9959
vn -0.0013 0.0122 -0.9999
vn 0.0784 0.0178 -0.9967
vn -0.0000 0.0046 -1.0000
vn -0.1426 0.0040 -0.9897
vn -0.1161 0.0008 -0.9932
vn -0.0888 -0.0031 -0.9960
vn -0.0785 -0.0089 -0.9969
usemtl feather_white_001
s 1
f 18//1 10//2 3//3 6//4
f 11//5 18//1 6//4 4//6
f 5//7 1//8 7//9 15//10
f 15//10 7//9 8//11 16//12
f 16//12 8//11 9//13 17//14
f 17//14 9//13 10//2 18//1
f 2//15 5//7 15//10 14//16
f 14//16 15//10 16//12 13//17
f 13//17 16//12 17//14 12//18
f 12//18 17//14 18//1 11//5
