# Blender v2.79 (sub 0) OBJ File: 'guinea_fowl_base_mesh_BI.blend'
# www.blender.org
mtllib guinea_fowl_feather_flight_tertiary_019.mtl
o feather_flight_tertiary_019
v 0.289659 0.352700 0.072492
v 0.284155 0.352700 0.072492
v 0.290662 0.319117 0.072492
v 0.283151 0.319117 0.072492
v 0.286907 0.354417 0.073394
v 0.286907 0.315360 0.073394
v 0.291155 0.347013 0.072492
v 0.292413 0.339610 0.072492
v 0.293217 0.332207 0.072492
v 0.292993 0.324804 0.072492
v 0.280820 0.324804 0.072492
v 0.280597 0.332207 0.072492
v 0.281401 0.339610 0.072492
v 0.282658 0.347013 0.072492
v 0.286907 0.347013 0.073394
v 0.286907 0.339610 0.073394
v 0.286907 0.332207 0.073394
v 0.286907 0.324804 0.073394
vn 0.0000 0.0160 -0.9998
vn -0.1640 0.0138 -0.9864
vn -0.1909 0.0294 -0.9811
vn 0.0000 0.0299 -0.9995
vn 0.1640 0.0138 -0.9864
vn 0.1909 0.0294 -0.9811
vn 0.0000 -0.0302 -0.9995
vn -0.2560 -0.0292 -0.9662
vn -0.2139 -0.0214 -0.9766
vn 0.0000 -0.0229 -0.9997
vn -0.1649 -0.0115 -0.9862
vn 0.0000 -0.0120 -0.9999
vn -0.1473 -0.0029 -0.9891
vn 0.0000 -0.0030 -1.0000
vn 0.2560 -0.0292 -0.9662
vn 0.2139 -0.0214 -0.9766
vn 0.1649 -0.0115 -0.9862
vn 0.1473 -0.0029 -0.9891
usemtl feather_002
s 1
f 18//1 10//2 3//3 6//4
f 11//5 18//1 6//4 4//6
f 5//7 1//8 7//9 15//10
f 15//10 7//9 8//11 16//12
f 16//12 8//11 9//13 17//14
f 17//14 9//13 10//2 18//1
f 2//15 5//7 15//10 14//16
f 14//16 15//10 16//12 13//17
f 13//17 16//12 17//14 12//18
f 12//18 17//14 18//1 11//5
