# Blender v2.79 (sub 0) OBJ File: 'guinea_fowl_base_mesh_BI.blend'
# www.blender.org
mtllib guinea_fowl_feather_flight_tertiary_062.mtl
o feather_flight_tertiary_062
v 0.299146 0.352762 0.068488
v 0.293644 0.352603 0.068488
v 0.301128 0.318860 0.068488
v 0.293620 0.318644 0.068488
v 0.296345 0.354417 0.067587
v 0.297483 0.314956 0.067587
v 0.300807 0.347059 0.068488
v 0.302280 0.339616 0.068488
v 0.303299 0.332159 0.068488
v 0.303292 0.324673 0.068488
v 0.291124 0.324322 0.068488
v 0.290685 0.331795 0.068488
v 0.291272 0.339298 0.068488
v 0.292314 0.346814 0.068488
v 0.296560 0.346937 0.067587
v 0.296776 0.339457 0.067587
v 0.296992 0.331977 0.067587
v 0.297208 0.324498 0.067587
vn 0.0004 -0.0158 -0.9998
vn 0.1643 -0.0089 -0.9864
vn 0.1917 -0.0236 -0.9811
vn 0.0009 -0.0296 -0.9995
vn -0.1635 -0.0184 -0.9864
vn -0.1900 -0.0346 -0.9811
vn -0.0009 0.0299 -0.9995
vn 0.2550 0.0363 -0.9662
vn 0.2133 0.0273 -0.9766
vn -0.0006 0.0226 -0.9997
vn 0.1645 0.0161 -0.9862
vn -0.0003 0.0118 -0.9999
vn 0.1471 0.0071 -0.9891
vn -0.0001 0.0030 -1.0000
vn -0.2567 0.0215 -0.9662
vn -0.2145 0.0150 -0.9766
vn -0.1652 0.0066 -0.9862
vn -0.1473 -0.0014 -0.9891
usemtl feather_002
s 1
f 18//1 10//2 3//3 6//4
f 11//5 18//1 6//4 4//6
f 5//7 1//8 7//9 15//10
f 15//10 7//9 8//11 16//12
f 16//12 8//11 9//13 17//14
f 17//14 9//13 10//2 18//1
f 2//15 5//7 15//10 14//16
f 14//16 15//10 16//12 13//17
f 13//17 16//12 17//14 12//18
f 12//18 17//14 18//1 11//5
