# Blender v2.79 (sub 0) OBJ File: 'guinea_fowl_base_mesh_BI.blend'
# www.blender.org
mtllib guinea_fowl_feather_flight_primary_006.mtl
o feather_flight_primary_006
v 0.214762 0.346266 0.070217
v 0.205651 0.346266 0.070217
v 0.216638 0.175455 0.069791
v 0.203776 0.175455 0.069791
v 0.210207 0.354416 0.071117
v 0.210207 0.168947 0.071144
v 0.217238 0.319261 0.070221
v 0.219320 0.284105 0.070226
v 0.220650 0.248949 0.070231
v 0.220280 0.213793 0.070236
v 0.200133 0.213793 0.070236
v 0.199763 0.248949 0.070231
v 0.201093 0.284105 0.070226
v 0.203175 0.319261 0.070221
v 0.210207 0.319261 0.071122
v 0.210207 0.284105 0.071127
v 0.210207 0.248949 0.071133
v 0.210207 0.213793 0.071138
vn 0.0000 0.0059 -1.0000
vn -0.1128 0.0056 -0.9936
vn -0.1397 0.0113 -0.9901
vn 0.0000 0.0114 -0.9999
vn 0.1128 0.0056 -0.9936
vn 0.1397 0.0113 -0.9901
vn 0.0000 -0.0065 -1.0000
vn -0.1581 -0.0064 -0.9874
vn -0.1334 -0.0049 -0.9910
vn 0.0000 -0.0050 -1.0000
vn -0.1011 -0.0026 -0.9949
vn 0.0000 -0.0027 -1.0000
vn -0.0896 -0.0008 -0.9960
vn 0.0000 -0.0008 -1.0000
vn 0.1581 -0.0064 -0.9874
vn 0.1334 -0.0049 -0.9910
vn 0.1011 -0.0026 -0.9949
vn 0.0896 -0.0008 -0.9960
usemtl feather_004
s 1
f 18//1 10//2 3//3 6//4
f 11//5 18//1 6//4 4//6
f 5//7 1//8 7//9 15//10
f 15//10 7//9 8//11 16//12
f 16//12 8//11 9//13 17//14
f 17//14 9//13 10//2 18//1
f 2//15 5//7 15//10 14//16
f 14//16 15//10 16//12 13//17
f 13//17 16//12 17//14 12//18
f 12//18 17//14 18//1 11//5
