# Blender v2.79 (sub 0) OBJ File: 'guinea_fowl_base_mesh_BI.blend'
# www.blender.org
mtllib guinea_fowl_feather_flight_secondary_040.mtl
o feather_flight_secondary_040
v 0.444062 0.355748 0.069559
v 0.438302 0.347991 0.069728
v 0.511072 0.308452 0.069801
v 0.503212 0.297866 0.070032
v 0.437813 0.354367 0.068724
v 0.514524 0.297718 0.069042
v 0.456797 0.349608 0.069559
v 0.472653 0.340643 0.069581
v 0.488035 0.331037 0.069616
v 0.502341 0.319985 0.069683
v 0.489604 0.302830 0.070057
v 0.474830 0.313253 0.070004
v 0.461130 0.325123 0.069919
v 0.447906 0.337634 0.069820
v 0.452354 0.343629 0.068785
v 0.466894 0.332891 0.068845
v 0.481435 0.322153 0.068905
v 0.495975 0.311415 0.068965
vn -0.0023 -0.0198 -0.9998
vn 0.0539 0.0573 -0.9969
vn 0.0681 0.0659 -0.9955
vn 0.0023 -0.0233 -0.9997
vn -0.0593 -0.0959 -0.9936
vn -0.0634 -0.1119 -0.9917
vn -0.0178 -0.0087 -0.9998
vn 0.0717 0.1124 -0.9911
vn 0.0596 0.0905 -0.9941
vn -0.0150 -0.0100 -0.9998
vn 0.0452 0.0638 -0.9969
vn -0.0115 -0.0129 -0.9998
vn 0.0418 0.0531 -0.9977
vn -0.0086 -0.0151 -0.9998
vn -0.1061 -0.1286 -0.9860
vn -0.0891 -0.1109 -0.9898
vn -0.0681 -0.0897 -0.9936
vn -0.0590 -0.0834 -0.9948
usemtl feather_003
s 1
f 18//1 10//2 3//3 6//4
f 11//5 18//1 6//4 4//6
f 5//7 1//8 7//9 15//10
f 15//10 7//9 8//11 16//12
f 16//12 8//11 9//13 17//14
f 17//14 9//13 10//2 18//1
f 2//15 5//7 15//10 14//16
f 14//16 15//10 16//12 13//17
f 13//17 16//12 17//14 12//18
f 12//18 17//14 18//1 11//5
