# Blender v2.79 (sub 0) OBJ File: 'guinea_fowl_base_mesh_BI.blend'
# www.blender.org
mtllib guinea_fowl_feather_tail_secondary_005.mtl
o feather_tail_secondary_005
v 0.015246 0.338708 -0.228253
v -0.011146 0.338708 -0.232329
v 0.001074 0.342646 -0.223970
v 0.024412 0.338708 -0.248281
v 0.033066 0.338708 -0.274861
v -0.014074 0.338708 -0.282141
v -0.013842 0.338708 -0.254189
v 0.005285 0.342646 -0.251235
v 0.009496 0.342646 -0.278501
v 0.045783 0.338708 -0.360147
v 0.045245 0.338708 -0.336408
v 0.039725 0.338708 -0.305547
v -0.011165 0.338708 -0.313406
v -0.007118 0.338708 -0.344496
v -0.000469 0.338708 -0.367290
v 0.023847 0.342646 -0.371428
v 0.019064 0.342646 -0.340452
v 0.014280 0.342646 -0.309476
vn -0.0046 0.9995 0.0300
vn 0.2322 0.9704 0.0656
vn 0.1997 0.9785 0.0521
vn -0.0034 0.9997 0.0223
vn 0.1639 0.9858 0.0347
vn -0.0015 0.9999 0.0097
vn -0.2412 0.9704 -0.0074
vn -0.2061 0.9785 -0.0106
vn -0.1668 0.9858 -0.0163
vn 0.1506 0.9882 0.0265
vn -0.0005 1.0000 0.0032
vn 0.1518 0.9882 0.0200
vn 0.0005 1.0000 -0.0035
vn 0.1568 0.9875 0.0152
vn 0.0013 0.9999 -0.0089
vn -0.1516 0.9882 -0.0201
vn -0.1507 0.9882 -0.0267
vn -0.1541 0.9875 -0.0327
usemtl feather_002
s 1
f 3//1 1//2 4//3 8//4
f 8//4 4//3 5//5 9//6
f 2//7 3//1 8//4 7//8
f 7//8 8//4 9//6 6//9
f 9//6 5//5 12//10 18//11
f 18//11 12//10 11//12 17//13
f 17//13 11//12 10//14 16//15
f 6//9 9//6 18//11 13//16
f 13//16 18//11 17//13 14//17
f 14//17 17//13 16//15 15//18
