# Blender v2.79 (sub 0) OBJ File: 'guinea_fowl_base_mesh_BI.blend'
# www.blender.org
mtllib guinea_fowl_feather_flight_secondary_042.mtl
o feather_flight_secondary_042
v 0.473381 0.358466 0.069516
v 0.471047 0.348472 0.069682
v 0.550580 0.341875 0.068895
v 0.547395 0.328237 0.069122
v 0.468297 0.354417 0.068724
v 0.557583 0.333003 0.068036
v 0.487016 0.358065 0.069371
v 0.504473 0.356289 0.069202
v 0.521738 0.353689 0.069048
v 0.538568 0.349225 0.068924
v 0.533406 0.327124 0.069292
v 0.516387 0.330777 0.069429
v 0.499804 0.336295 0.069535
v 0.483413 0.342638 0.069627
v 0.485221 0.350358 0.068593
v 0.502145 0.346299 0.068463
v 0.519069 0.342240 0.068333
v 0.535994 0.338181 0.068203
vn -0.0043 -0.0154 -0.9998
vn 0.0159 0.0719 -0.9973
vn 0.0258 0.0847 -0.9961
vn 0.0013 -0.0173 -0.9998
vn -0.0259 -0.1024 -0.9944
vn -0.0229 -0.1180 -0.9927
vn -0.0235 -0.0104 -0.9997
vn 0.0096 0.1268 -0.9919
vn 0.0074 0.1032 -0.9946
vn -0.0205 -0.0115 -0.9997
vn 0.0051 0.0747 -0.9972
vn -0.0160 -0.0127 -0.9998
vn 0.0064 0.0642 -0.9979
vn -0.0123 -0.0136 -0.9998
vn -0.0562 -0.1479 -0.9874
vn -0.0475 -0.1260 -0.9909
vn -0.0367 -0.1000 -0.9943
vn -0.0308 -0.0913 -0.9953
usemtl feather_003
s 1
f 18//1 10//2 3//3 6//4
f 11//5 18//1 6//4 4//6
f 5//7 1//8 7//9 15//10
f 15//10 7//9 8//11 16//12
f 16//12 8//11 9//13 17//14
f 17//14 9//13 10//2 18//1
f 2//15 5//7 15//10 14//16
f 14//16 15//10 16//12 13//17
f 13//17 16//12 17//14 12//18
f 12//18 17//14 18//1 11//5
