# Blender v2.79 (sub 0) OBJ File: 'guinea_fowl_base_mesh_BI.blend'
# www.blender.org
mtllib guinea_fowl_feather_flight_tertiary_033.mtl
o feather_flight_tertiary_033
v 0.407980 0.354362 0.072492
v 0.403094 0.351828 0.072492
v 0.422284 0.328964 0.072492
v 0.415616 0.325506 0.072492
v 0.404852 0.354417 0.073394
v 0.420450 0.324342 0.073394
v 0.411580 0.350672 0.072492
v 0.415653 0.345550 0.072492
v 0.419323 0.340220 0.072492
v 0.422082 0.334416 0.072492
v 0.411276 0.328812 0.072492
v 0.408121 0.334409 0.072492
v 0.405877 0.340480 0.072492
v 0.404037 0.346760 0.072492
v 0.407809 0.348716 0.073394
v 0.410765 0.343015 0.073394
v 0.413722 0.337315 0.073394
v 0.416679 0.331614 0.073394
vn -0.0085 0.0164 -0.9998
vn -0.1522 -0.0615 -0.9864
vn -0.1851 -0.0578 -0.9810
vn -0.0159 0.0306 -0.9994
vn 0.1379 0.0890 -0.9864
vn 0.1538 0.1180 -0.9810
vn 0.0161 -0.0309 -0.9994
vn -0.2117 -0.1478 -0.9661
vn -0.1779 -0.1199 -0.9767
vn 0.0121 -0.0234 -0.9996
vn -0.1401 -0.0875 -0.9862
vn 0.0063 -0.0122 -0.9999
vn -0.1292 -0.0707 -0.9891
vn 0.0016 -0.0031 -1.0000
vn 0.2427 0.0879 -0.9661
vn 0.2005 0.0764 -0.9767
vn 0.1523 0.0641 -0.9862
vn 0.1322 0.0649 -0.9891
usemtl feather_002
s 1
f 18//1 10//2 3//3 6//4
f 11//5 18//1 6//4 4//6
f 5//7 1//8 7//9 15//10
f 15//10 7//9 8//11 16//12
f 16//12 8//11 9//13 17//14
f 17//14 9//13 10//2 18//1
f 2//15 5//7 15//10 14//16
f 14//16 15//10 16//12 13//17
f 13//17 16//12 17//14 12//18
f 12//18 17//14 18//1 11//5
