# Blender v2.79 (sub 0) OBJ File: 'guinea_fowl_base_mesh_BI.blend'
# www.blender.org
mtllib guinea_fowl_feather_flight_primary_011.mtl
o feather_flight_primary_011
v 0.319843 0.346415 0.070218
v 0.307943 0.345792 0.070218
v 0.331423 0.172328 0.069796
v 0.314624 0.171448 0.069796
v 0.313457 0.354416 0.071117
v 0.323371 0.165250 0.071149
v 0.324521 0.319041 0.070222
v 0.329119 0.283327 0.070228
v 0.332736 0.247562 0.070234
v 0.334132 0.211680 0.070240
v 0.307816 0.210301 0.070240
v 0.305454 0.246132 0.070234
v 0.305312 0.282080 0.070228
v 0.306152 0.318079 0.070222
v 0.315337 0.318560 0.071123
v 0.317216 0.282703 0.071129
v 0.319095 0.246847 0.071135
v 0.320974 0.210990 0.071142
vn -0.0003 0.0057 -1.0000
vn -0.0864 0.0009 -0.9962
vn -0.1076 0.0055 -0.9942
vn -0.0006 0.0111 -0.9999
vn 0.0858 0.0099 -0.9962
vn 0.1065 0.0167 -0.9942
vn 0.0003 -0.0064 -1.0000
vn -0.1209 -0.0127 -0.9926
vn -0.1017 -0.0101 -0.9948
vn 0.0002 -0.0049 -1.0000
vn -0.0771 -0.0066 -0.9970
vn 0.0001 -0.0026 -1.0000
vn -0.0685 -0.0044 -0.9976
vn 0.0000 -0.0008 -1.0000
vn 0.1216 0.0000 -0.9926
vn 0.1022 0.0005 -0.9948
vn 0.0774 0.0014 -0.9970
vn 0.0686 0.0028 -0.9976
usemtl feather_004
s 1
f 18//1 10//2 3//3 6//4
f 11//5 18//1 6//4 4//6
f 5//7 1//8 7//9 15//10
f 15//10 7//9 8//11 16//12
f 16//12 8//11 9//13 17//14
f 17//14 9//13 10//2 18//1
f 2//15 5//7 15//10 14//16
f 14//16 15//10 16//12 13//17
f 13//17 16//12 17//14 12//18
f 12//18 17//14 18//1 11//5
