# Blender v2.79 (sub 0) OBJ File: 'guinea_fowl_base_mesh_BI.blend'
# www.blender.org
mtllib guinea_fowl_feather_flight_tertiary_045.mtl
o feather_flight_tertiary_045
v 0.133058 0.352453 0.068488
v 0.127554 0.352453 0.068488
v 0.134062 0.314023 0.068488
v 0.126550 0.314023 0.068488
v 0.130306 0.354417 0.067587
v 0.130306 0.309724 0.067587
v 0.134554 0.345945 0.068488
v 0.135812 0.337474 0.068488
v 0.136616 0.329002 0.068488
v 0.136392 0.320531 0.068488
v 0.124219 0.320531 0.068488
v 0.123996 0.329002 0.068488
v 0.124800 0.337474 0.068488
v 0.126057 0.345945 0.068488
v 0.130306 0.345945 0.067587
v 0.130306 0.337474 0.067587
v 0.130306 0.329002 0.067587
v 0.130306 0.320531 0.067587
vn 0.0000 -0.0140 -0.9999
vn 0.1644 -0.0122 -0.9863
vn 0.1910 -0.0257 -0.9812
vn 0.0000 -0.0262 -0.9996
vn -0.1644 -0.0122 -0.9863
vn -0.1910 -0.0257 -0.9812
vn 0.0000 0.0264 -0.9996
vn 0.2560 0.0256 -0.9663
vn 0.2146 0.0188 -0.9765
vn 0.0000 0.0200 -0.9998
vn 0.1651 0.0101 -0.9862
vn 0.0000 0.0105 -0.9999
vn 0.1473 0.0025 -0.9891
vn 0.0000 0.0027 -1.0000
vn -0.2560 0.0256 -0.9663
vn -0.2146 0.0188 -0.9765
vn -0.1651 0.0101 -0.9862
vn -0.1473 0.0025 -0.9891
usemtl feather_002
s 1
f 18//1 10//2 3//3 6//4
f 11//5 18//1 6//4 4//6
f 5//7 1//8 7//9 15//10
f 15//10 7//9 8//11 16//12
f 16//12 8//11 9//13 17//14
f 17//14 9//13 10//2 18//1
f 2//15 5//7 15//10 14//16
f 14//16 15//10 16//12 13//17
f 13//17 16//12 17//14 12//18
f 12//18 17//14 18//1 11//5
