# Blender v2.79 (sub 0) OBJ File: 'guinea_fowl_base_mesh_BI.blend'
# www.blender.org
mtllib guinea_fowl_feather_flight_secondary_030.mtl
o feather_flight_secondary_030
v 0.276020 0.350827 0.069630
v 0.265994 0.350683 0.069630
v 0.279361 0.279209 0.069630
v 0.265679 0.279012 0.069630
v 0.270930 0.354417 0.068728
v 0.272689 0.271095 0.068728
v 0.279002 0.338735 0.069630
v 0.281627 0.322974 0.069630
v 0.283424 0.307202 0.069630
v 0.283351 0.291402 0.069630
v 0.261177 0.291082 0.069630
v 0.260436 0.306870 0.069630
v 0.261567 0.322685 0.069630
v 0.263524 0.338511 0.069630
v 0.271263 0.338623 0.068728
v 0.271597 0.322829 0.068728
v 0.271930 0.307036 0.068728
v 0.272264 0.291242 0.068728
vn 0.0000 -0.0075 -1.0000
vn 0.0913 -0.0048 -0.9958
vn 0.1064 -0.0117 -0.9942
vn 0.0006 -0.0140 -0.9999
vn -0.0910 -0.0085 -0.9958
vn -0.1060 -0.0162 -0.9942
vn -0.0009 0.0142 -0.9999
vn 0.1437 0.0171 -0.9895
vn 0.1196 0.0128 -0.9927
vn -0.0001 0.0107 -0.9999
vn 0.0914 0.0074 -0.9958
vn -0.0000 0.0056 -1.0000
vn 0.0814 0.0031 -0.9967
vn 0.0000 0.0014 -1.0000
vn -0.1441 0.0110 -0.9895
vn -0.1201 0.0078 -0.9927
vn -0.0916 0.0035 -0.9958
vn -0.0815 -0.0003 -0.9967
usemtl feather_003
s 1
f 18//1 10//2 3//3 6//4
f 11//5 18//1 6//4 4//6
f 5//7 1//8 7//9 15//10
f 15//10 7//9 8//11 16//12
f 16//12 8//11 9//13 17//14
f 17//14 9//13 10//2 18//1
f 2//15 5//7 15//10 14//16
f 14//16 15//10 16//12 13//17
f 13//17 16//12 17//14 12//18
f 12//18 17//14 18//1 11//5
