# Blender v2.79 (sub 0) OBJ File: 'guinea_fowl_base_mesh_BI.blend'
# www.blender.org
mtllib guinea_fowl_feather_flight_primary_015.mtl
o feather_flight_primary_015
v 0.389292 0.348644 0.070217
v 0.376165 0.343605 0.070217
v 0.456454 0.172526 0.070228
v 0.432021 0.186787 0.070227
v 0.379545 0.354417 0.071117
v 0.451971 0.165741 0.071130
v 0.403406 0.322542 0.070219
v 0.420134 0.287930 0.070221
v 0.435779 0.252903 0.070223
v 0.448974 0.216934 0.070226
v 0.419943 0.205791 0.070226
v 0.405682 0.241350 0.070223
v 0.393870 0.277849 0.070221
v 0.383142 0.314764 0.070219
v 0.393274 0.318653 0.071120
v 0.407002 0.282889 0.071122
v 0.420730 0.247126 0.071124
v 0.434459 0.211362 0.071127
vn -0.0037 0.0021 -1.0000
vn -0.0656 -0.0211 -0.9976
vn -0.0801 -0.0223 -0.9965
vn -0.0376 -0.0070 -0.9992
vn 0.0588 0.0250 -0.9979
vn 0.0657 0.0300 -0.9974
vn 0.0021 -0.0055 -1.0000
vn -0.0941 -0.0424 -0.9946
vn -0.0793 -0.0351 -0.9962
vn 0.0016 -0.0042 -1.0000
vn -0.0604 -0.0257 -0.9978
vn 0.0008 -0.0022 -1.0000
vn -0.0541 -0.0214 -0.9983
vn 0.0002 -0.0006 -1.0000
vn 0.0984 0.0315 -0.9946
vn 0.0824 0.0269 -0.9962
vn 0.0621 0.0213 -0.9978
vn 0.0545 0.0202 -0.9983
usemtl feather_004
s 1
f 18//1 10//2 3//3 6//4
f 11//5 18//1 6//4 4//6
f 5//7 1//8 7//9 15//10
f 15//10 7//9 8//11 16//12
f 16//12 8//11 9//13 17//14
f 17//14 9//13 10//2 18//1
f 2//15 5//7 15//10 14//16
f 14//16 15//10 16//12 13//17
f 13//17 16//12 17//14 12//18
f 12//18 17//14 18//1 11//5
