# Blender v2.79 (sub 0) OBJ File: 'guinea_fowl_base_mesh_BI.blend'
# www.blender.org
mtllib guinea_fowl_eye.mtl
o eye
v 0.019396 0.568569 0.267950
v 0.017202 0.571468 0.267246
v 0.014140 0.573266 0.266193
v 0.010676 0.573688 0.264950
v 0.007339 0.572671 0.263708
v 0.004635 0.570369 0.262655
v 0.002978 0.567133 0.261951
v 0.019894 0.568335 0.266643
v 0.018121 0.571036 0.264832
v 0.015341 0.572701 0.263039
v 0.011977 0.573076 0.261537
v 0.008540 0.572106 0.260554
v 0.005555 0.569936 0.260241
v 0.003475 0.566899 0.260645
v 0.020364 0.567586 0.265536
v 0.018990 0.569651 0.262786
v 0.016476 0.570892 0.260366
v 0.013205 0.571119 0.258643
v 0.009675 0.570297 0.257881
v 0.006424 0.568552 0.258195
v 0.003946 0.566149 0.259537
v 0.002618 0.563455 0.261704
v 0.020735 0.566435 0.264796
v 0.019675 0.567525 0.261419
v 0.017372 0.568114 0.258579
v 0.014175 0.568112 0.256710
v 0.010571 0.567519 0.256095
v 0.007109 0.566426 0.256828
v 0.004316 0.564999 0.258797
v 0.020950 0.565059 0.264536
v 0.020073 0.564982 0.260939
v 0.017892 0.564791 0.257952
v 0.014738 0.564515 0.256031
v 0.011091 0.564196 0.255467
v 0.007507 0.563883 0.256348
v 0.004532 0.563622 0.258538
v 0.020977 0.563666 0.264796
v 0.020123 0.562408 0.261419
v 0.017957 0.561428 0.258579
v 0.014808 0.560875 0.256710
v 0.011156 0.560833 0.256095
v 0.007557 0.561309 0.256828
v 0.004559 0.562229 0.258797
v 0.020389 0.565010 0.268197
v 0.020812 0.562468 0.265536
v 0.019817 0.560195 0.262786
v 0.017557 0.558537 0.260366
v 0.014375 0.557746 0.258643
v 0.010756 0.557942 0.257881
v 0.007251 0.559096 0.258195
v 0.004393 0.561032 0.259537
v 0.020479 0.561649 0.266643
v 0.019202 0.558681 0.264832
v 0.016753 0.556559 0.263039
v 0.013505 0.555604 0.261537
v 0.009953 0.555964 0.260554
v 0.006636 0.557582 0.260241
v 0.004060 0.560212 0.260645
v 0.020029 0.561332 0.267950
v 0.018371 0.558096 0.267246
v 0.015668 0.555794 0.266193
v 0.012331 0.554776 0.264950
v 0.008867 0.555199 0.263708
v 0.005805 0.556996 0.262655
v 0.003611 0.559895 0.261951
v 0.019532 0.561566 0.269256
v 0.017452 0.558528 0.269659
v 0.014467 0.556359 0.269346
v 0.011030 0.555388 0.268364
v 0.007666 0.555764 0.266861
v 0.004886 0.557429 0.265068
v 0.003113 0.560129 0.263257
v 0.019061 0.562315 0.270363
v 0.016583 0.559913 0.271706
v 0.013331 0.558168 0.272020
v 0.009802 0.557346 0.271257
v 0.006531 0.557572 0.269535
v 0.004017 0.558813 0.267114
v 0.002643 0.560879 0.264365
v 0.018690 0.563466 0.271103
v 0.015898 0.562038 0.273073
v 0.012436 0.560945 0.273806
v 0.008832 0.560352 0.273191
v 0.005635 0.560350 0.271321
v 0.003331 0.560939 0.268482
v 0.002272 0.562029 0.265105
v 0.018475 0.564842 0.271363
v 0.015500 0.564582 0.273553
v 0.011916 0.564268 0.274433
v 0.008269 0.563949 0.273870
v 0.005115 0.563673 0.271949
v 0.002934 0.563482 0.268962
v 0.002057 0.563406 0.265364
v 0.018448 0.566235 0.271103
v 0.015450 0.567156 0.273073
v 0.011851 0.567631 0.273806
v 0.008199 0.567589 0.273191
v 0.005050 0.567036 0.271321
v 0.002884 0.566056 0.268482
v 0.002030 0.564799 0.265105
v 0.018614 0.567433 0.270363
v 0.015756 0.569368 0.271706
v 0.012251 0.570522 0.272020
v 0.008632 0.570718 0.271257
v 0.005450 0.569927 0.269535
v 0.003190 0.568269 0.267114
v 0.002195 0.565996 0.264365
v 0.018947 0.568252 0.269256
v 0.016371 0.570883 0.269659
v 0.013054 0.572501 0.269346
v 0.009502 0.572860 0.268364
v 0.006254 0.571906 0.266861
v 0.003805 0.569783 0.265068
v 0.002528 0.566816 0.263257
vn -0.8918 0.3266 -0.3130
vn -0.7134 0.6592 -0.2377
vn -0.6149 0.6129 -0.4963
vn -0.8366 0.3006 -0.4579
vn -0.4313 0.8931 -0.1280
vn -0.0871 0.9962 0.0000
vn 0.0498 0.9318 -0.3596
vn -0.3042 0.8333 -0.4615
vn 0.2696 0.9544 0.1280
vn 0.5881 0.7730 0.2377
vn 0.6866 0.7267 -0.0208
vn 0.3967 0.8947 -0.2054
vn 0.8216 0.4765 0.3130
vn 0.9361 0.0819 0.3420
vn 0.8768 0.4505 0.1680
vn -0.9361 -0.0819 -0.3420
vn 0.7796 0.5784 -0.2399
vn 0.5167 0.7034 -0.4881
vn 0.9290 0.3674 0.0451
vn -0.7844 0.2175 -0.5808
vn -0.1842 0.6420 -0.7442
vn -0.5218 0.4646 -0.7154
vn 0.1793 0.7255 -0.6644
vn -0.7432 0.0898 -0.6629
vn -0.0895 0.3484 -0.9330
vn -0.4484 0.2369 -0.8618
vn 0.6114 0.4097 -0.6770
vn 0.2814 0.4087 -0.8682
vn 0.9701 0.2397 -0.0369
vn 0.8531 0.3507 -0.3863
vn 0.9940 0.0869 -0.0658
vn 0.8957 0.0783 -0.4377
vn -0.4058 -0.0355 -0.9132
vn -0.7194 -0.0629 -0.6918
vn 0.3407 0.0298 -0.9397
vn -0.0345 -0.0030 -0.9994
vn 0.6664 0.0583 -0.7433
vn -0.4005 -0.3112 -0.8618
vn -0.7164 -0.2175 -0.6630
vn 0.3481 -0.3537 -0.8682
vn -0.0276 -0.3586 -0.9330
vn 0.9010 -0.1973 -0.3863
vn 0.6733 -0.2973 -0.6770
vn 0.9970 -0.0676 -0.0369
vn 0.9786 -0.2005 0.0451
vn -0.7347 -0.3504 -0.5808
vn -0.0699 -0.6643 -0.7442
vn -0.4332 -0.5481 -0.7154
vn 0.6310 -0.6030 -0.4881
vn 0.3025 -0.6833 -0.6644
vn 0.8682 -0.4343 -0.2399
vn -0.1549 -0.8735 -0.4615
vn -0.4991 -0.7103 -0.4963
vn 0.5460 -0.8122 -0.2054
vn 0.2109 -0.9089 -0.3596
vn 0.9417 -0.2914 0.1680
vn 0.8024 -0.5965 -0.0207
vn -0.7717 -0.4413 -0.4579
vn -0.5881 -0.7730 -0.2377
vn -0.8216 -0.4765 -0.3130
vn 0.0871 -0.9962 0.0000
vn -0.2696 -0.9544 -0.1280
vn 0.7134 -0.6592 0.2377
vn 0.4313 -0.8931 0.1280
vn 0.8918 -0.3266 0.3130
vn -0.0498 -0.9318 0.3596
vn -0.3967 -0.8947 0.2054
vn 0.6149 -0.6129 0.4963
vn 0.3042 -0.8333 0.4615
vn 0.8366 -0.3006 0.4579
vn -0.8768 -0.4505 -0.1680
vn -0.6866 -0.7267 0.0207
vn -0.9290 -0.3674 -0.0451
vn -0.5167 -0.7034 0.4881
vn -0.7796 -0.5784 0.2399
vn 0.1842 -0.6420 0.7442
vn -0.1793 -0.7255 0.6644
vn 0.7844 -0.2175 0.5808
vn 0.5218 -0.4646 0.7154
vn 0.0895 -0.3484 0.9330
vn -0.2814 -0.4087 0.8682
vn 0.7432 -0.0898 0.6629
vn 0.4484 -0.2369 0.8618
vn -0.8531 -0.3507 0.3863
vn -0.9701 -0.2397 0.0369
vn -0.6114 -0.4097 0.6770
vn -0.8957 -0.0783 0.4377
vn -0.9940 -0.0869 0.0658
vn -0.3407 -0.0298 0.9397
vn -0.6664 -0.0583 0.7433
vn 0.4058 0.0355 0.9132
vn 0.0345 0.0030 0.9994
vn 0.7194 0.0629 0.6918
vn 0.4005 0.3112 0.8618
vn 0.0276 0.3586 0.9330
vn 0.7164 0.2175 0.6629
vn -0.9970 0.0676 0.0369
vn -0.6733 0.2973 0.6770
vn -0.9010 0.1973 0.3863
vn -0.3481 0.3537 0.8682
vn -0.9786 0.2005 -0.0451
vn -0.6310 0.6030 0.4881
vn -0.8682 0.4343 0.2399
vn 0.0699 0.6643 0.7442
vn -0.3025 0.6833 0.6644
vn 0.7347 0.3504 0.5808
vn 0.4332 0.5481 0.7154
vn 0.7717 0.4413 0.4580
vn 0.4991 0.7103 0.4963
vn -0.8024 0.5965 0.0207
vn -0.9417 0.2914 -0.1680
vn -0.2109 0.9089 0.3596
vn -0.5460 0.8122 0.2054
vn 0.1549 0.8735 0.4615
usemtl eyes
s 1
f 7//1 6//2 13//3 14//4
f 5//5 4//6 11//7 12//8
f 3//9 2//10 9//11 10//12
f 1//13 44//14 8//15
f 22//16 7//1 14//4
f 6//2 5//5 12//8 13//3
f 4//6 3//9 10//12 11//7
f 2//10 1//13 8//15 9//11
f 10//12 9//11 16//17 17//18
f 8//15 44//14 15//19
f 22//16 14//4 21//20
f 13//3 12//8 19//21 20//22
f 11//7 10//12 17//18 18//23
f 9//11 8//15 15//19 16//17
f 14//4 13//3 20//22 21//20
f 12//8 11//7 18//23 19//21
f 22//16 21//20 29//24
f 20//22 19//21 27//25 28//26
f 18//23 17//18 25//27 26//28
f 16//17 15//19 23//29 24//30
f 21//20 20//22 28//26 29//24
f 19//21 18//23 26//28 27//25
f 17//18 16//17 24//30 25//27
f 15//19 44//14 23//29
f 24//30 23//29 30//31 31//32
f 29//24 28//26 35//33 36//34
f 27//25 26//28 33//35 34//36
f 25//27 24//30 31//32 32//37
f 23//29 44//14 30//31
f 22//16 29//24 36//34
f 28//26 27//25 34//36 35//33
f 26//28 25//27 32//37 33//35
f 36//34 35//33 42//38 43//39
f 34//36 33//35 40//40 41//41
f 32//37 31//32 38//42 39//43
f 30//31 44//14 37//44
f 22//16 36//34 43//39
f 35//33 34//36 41//41 42//38
f 33//35 32//37 39//43 40//40
f 31//32 30//31 37//44 38//42
f 37//44 44//14 45//45
f 22//16 43//39 51//46
f 42//38 41//41 49//47 50//48
f 40//40 39//43 47//49 48//50
f 38//42 37//44 45//45 46//51
f 43//39 42//38 50//48 51//46
f 41//41 40//40 48//50 49//47
f 39//43 38//42 46//51 47//49
f 50//48 49//47 56//52 57//53
f 48//50 47//49 54//54 55//55
f 46//51 45//45 52//56 53//57
f 51//46 50//48 57//53 58//58
f 49//47 48//50 55//55 56//52
f 47//49 46//51 53//57 54//54
f 45//45 44//14 52//56
f 22//16 51//46 58//58
f 58//58 57//53 64//59 65//60
f 56//52 55//55 62//61 63//62
f 54//54 53//57 60//63 61//64
f 52//56 44//14 59//65
f 22//16 58//58 65//60
f 57//53 56//52 63//62 64//59
f 55//55 54//54 61//64 62//61
f 53//57 52//56 59//65 60//63
f 63//62 62//61 69//66 70//67
f 61//64 60//63 67//68 68//69
f 59//65 44//14 66//70
f 22//16 65//60 72//71
f 64//59 63//62 70//67 71//72
f 62//61 61//64 68//69 69//66
f 60//63 59//65 66//70 67//68
f 65//60 64//59 71//72 72//71
f 22//16 72//71 79//73
f 71//72 70//67 77//74 78//75
f 69//66 68//69 75//76 76//77
f 67//68 66//70 73//78 74//79
f 72//71 71//72 78//75 79//73
f 70//67 69//66 76//77 77//74
f 68//69 67//68 74//79 75//76
f 66//70 44//14 73//78
f 76//77 75//76 82//80 83//81
f 74//79 73//78 80//82 81//83
f 79//73 78//75 85//84 86//85
f 77//74 76//77 83//81 84//86
f 75//76 74//79 81//83 82//80
f 73//78 44//14 80//82
f 22//16 79//73 86//85
f 78//75 77//74 84//86 85//84
f 86//85 85//84 92//87 93//88
f 84//86 83//81 90//89 91//90
f 82//80 81//83 88//91 89//92
f 80//82 44//14 87//93
f 22//16 86//85 93//88
f 85//84 84//86 91//90 92//87
f 83//81 82//80 89//92 90//89
f 81//83 80//82 87//93 88//91
f 89//92 88//91 95//94 96//95
f 87//93 44//14 94//96
f 22//16 93//88 100//97
f 92//87 91//90 98//98 99//99
f 90//89 89//92 96//95 97//100
f 88//91 87//93 94//96 95//94
f 93//88 92//87 99//99 100//97
f 91//90 90//89 97//100 98//98
f 22//16 100//97 107//101
f 99//99 98//98 105//102 106//103
f 97//100 96//95 103//104 104//105
f 95//94 94//96 101//106 102//107
f 100//97 99//99 106//103 107//101
f 98//98 97//100 104//105 105//102
f 96//95 95//94 102//107 103//104
f 94//96 44//14 101//106
f 102//107 101//106 108//108 109//109
f 107//101 106//103 113//110 114//111
f 105//102 104//105 111//112 112//113
f 103//104 102//107 109//109 110//114
f 101//106 44//14 108//108
f 22//16 107//101 114//111
f 106//103 105//102 112//113 113//110
f 104//105 103//104 110//114 111//112
f 114//111 113//110 6//2 7//1
f 112//113 111//112 4//6 5//5
f 110//114 109//109 2//10 3//9
f 108//108 44//14 1//13
f 22//16 114//111 7//1
f 113//110 112//113 5//5 6//2
f 111//112 110//114 3//9 4//6
f 109//109 108//108 1//13 2//10
