# Blender v2.79 (sub 0) OBJ File: 'guinea_fowl_base_mesh_BI.blend'
# www.blender.org
mtllib guinea_fowl_feather_flight_tertiary_038.mtl
o feather_flight_tertiary_038
v 0.446808 0.355864 0.072492
v 0.443487 0.351475 0.072492
v 0.466729 0.342046 0.072492
v 0.462196 0.336056 0.072492
v 0.444160 0.354417 0.073394
v 0.466623 0.337416 0.073394
v 0.450982 0.354582 0.072492
v 0.455999 0.352362 0.072492
v 0.460742 0.349780 0.072492
v 0.464865 0.346380 0.072492
v 0.457518 0.336673 0.072492
v 0.453126 0.339718 0.072492
v 0.449353 0.343581 0.072492
v 0.445854 0.347807 0.072492
v 0.448418 0.351194 0.073394
v 0.452676 0.347972 0.073394
v 0.456934 0.344749 0.073394
v 0.461191 0.341526 0.073394
vn -0.0177 0.0134 -0.9997
vn -0.1125 -0.1188 -0.9865
vn -0.1477 -0.1276 -0.9807
vn -0.0331 0.0251 -0.9991
vn 0.0838 0.1405 -0.9865
vn 0.0827 0.1768 -0.9807
vn 0.0334 -0.0253 -0.9991
vn -0.1221 -0.2285 -0.9658
vn -0.1046 -0.1867 -0.9768
vn 0.0253 -0.0192 -0.9995
vn -0.0866 -0.1406 -0.9863
vn 0.0132 -0.0100 -0.9998
vn -0.0857 -0.1198 -0.9891
vn 0.0034 -0.0025 -1.0000
vn 0.1867 0.1795 -0.9658
vn 0.1512 0.1514 -0.9768
vn 0.1118 0.1216 -0.9863
vn 0.0920 0.1150 -0.9891
usemtl feather_002
s 1
f 18//1 10//2 3//3 6//4
f 11//5 18//1 6//4 4//6
f 5//7 1//8 7//9 15//10
f 15//10 7//9 8//11 16//12
f 16//12 8//11 9//13 17//14
f 17//14 9//13 10//2 18//1
f 2//15 5//7 15//10 14//16
f 14//16 15//10 16//12 13//17
f 13//17 16//12 17//14 12//18
f 12//18 17//14 18//1 11//5
