# Blender v2.79 (sub 0) OBJ File: 'guinea_fowl_base_mesh_BI.blend'
# www.blender.org
mtllib guinea_fowl_feather_flight_tertiary_064.mtl
o feather_flight_tertiary_064
v 0.319050 0.352775 0.068488
v 0.313554 0.352476 0.068488
v 0.321957 0.317792 0.068488
v 0.314457 0.317384 0.068488
v 0.316204 0.354417 0.067587
v 0.318420 0.313668 0.067587
v 0.320867 0.346923 0.068488
v 0.322543 0.339268 0.068488
v 0.323765 0.331588 0.068488
v 0.323962 0.323851 0.068488
v 0.311807 0.323191 0.068488
v 0.311164 0.330902 0.068488
v 0.311546 0.338670 0.068488
v 0.312382 0.346462 0.068488
v 0.316624 0.346693 0.067587
v 0.317045 0.338969 0.067587
v 0.317465 0.331245 0.067587
v 0.317885 0.323521 0.067587
vn 0.0008 -0.0153 -0.9999
vn 0.1646 -0.0043 -0.9863
vn 0.1922 -0.0177 -0.9812
vn 0.0016 -0.0286 -0.9996
vn -0.1632 -0.0222 -0.9863
vn -0.1891 -0.0385 -0.9812
vn -0.0016 0.0289 -0.9996
vn 0.2541 0.0418 -0.9662
vn 0.2127 0.0321 -0.9766
vn -0.0012 0.0219 -0.9998
vn 0.1641 0.0199 -0.9862
vn -0.0006 0.0114 -0.9999
vn 0.1469 0.0107 -0.9891
vn -0.0002 0.0029 -1.0000
vn -0.2571 0.0140 -0.9662
vn -0.2149 0.0089 -0.9766
vn -0.1653 0.0020 -0.9862
vn -0.1472 -0.0052 -0.9891
usemtl feather_002
s 1
f 18//1 10//2 3//3 6//4
f 11//5 18//1 6//4 4//6
f 5//7 1//8 7//9 15//10
f 15//10 7//9 8//11 16//12
f 16//12 8//11 9//13 17//14
f 17//14 9//13 10//2 18//1
f 2//15 5//7 15//10 14//16
f 14//16 15//10 16//12 13//17
f 13//17 16//12 17//14 12//18
f 12//18 17//14 18//1 11//5
