# Blender v2.79 (sub 0) OBJ File: 'guinea_fowl_base_mesh_BI.blend'
# www.blender.org
mtllib guinea_fowl_feather_flight_primary_020.mtl
o feather_flight_primary_020
v 0.459619 0.356508 0.070217
v 0.453748 0.343320 0.070217
v 0.674061 0.260568 0.070245
v 0.641541 0.255155 0.070242
v 0.446571 0.354417 0.071117
v 0.676681 0.251965 0.071147
v 0.494720 0.345176 0.070222
v 0.539680 0.328770 0.070227
v 0.584155 0.311276 0.070233
v 0.627534 0.291321 0.070238
v 0.614548 0.262154 0.070238
v 0.570692 0.281039 0.070233
v 0.527932 0.302384 0.070227
v 0.485656 0.324817 0.070222
v 0.490188 0.334997 0.071123
v 0.533806 0.315577 0.071128
v 0.577423 0.296157 0.071134
v 0.621041 0.276738 0.071140
vn -0.0034 -0.0013 -1.0000
vn -0.0301 -0.0602 -0.9977
vn -0.0385 -0.0710 -0.9967
vn -0.0209 -0.0333 -0.9992
vn 0.0237 0.0576 -0.9980
vn 0.0253 0.0656 -0.9975
vn 0.0044 -0.0020 -1.0000
vn -0.0365 -0.0937 -0.9949
vn -0.0311 -0.0787 -0.9964
vn 0.0034 -0.0015 -1.0000
vn -0.0242 -0.0592 -0.9979
vn 0.0018 -0.0008 -1.0000
vn -0.0225 -0.0520 -0.9984
vn 0.0005 -0.0002 -1.0000
vn 0.0452 0.0898 -0.9949
vn 0.0377 0.0757 -0.9964
vn 0.0278 0.0576 -0.9979
vn 0.0236 0.0515 -0.9984
usemtl feather_004
s 1
f 18//1 10//2 3//3 6//4
f 11//5 18//1 6//4 4//6
f 5//7 1//8 7//9 15//10
f 15//10 7//9 8//11 16//12
f 16//12 8//11 9//13 17//14
f 17//14 9//13 10//2 18//1
f 2//15 5//7 15//10 14//16
f 14//16 15//10 16//12 13//17
f 13//17 16//12 17//14 12//18
f 12//18 17//14 18//1 11//5
