# Blender v2.79 (sub 0) OBJ File: 'guinea_fowl_base_mesh_BI.blend'
# www.blender.org
mtllib guinea_fowl_feather_flight_primary_001.mtl
o feather_flight_primary_001
v 0.121496 0.348062 0.070216
v 0.112385 0.348062 0.070216
v 0.123371 0.214894 0.069765
v 0.110509 0.214894 0.069765
v 0.116940 0.354417 0.071117
v 0.116940 0.209820 0.071117
v 0.123972 0.327008 0.070216
v 0.126054 0.299600 0.070216
v 0.127384 0.272192 0.070216
v 0.127014 0.244784 0.070216
v 0.106866 0.244784 0.070216
v 0.106497 0.272192 0.070216
v 0.107827 0.299600 0.070216
v 0.109909 0.327008 0.070216
v 0.116940 0.327008 0.071117
v 0.116940 0.299600 0.071117
v 0.116940 0.272192 0.071117
v 0.116940 0.244784 0.071117
vn 0.0000 0.0077 -1.0000
vn -0.1125 0.0073 -0.9936
vn -0.1397 0.0147 -0.9901
vn 0.0000 0.0149 -0.9999
vn 0.1125 0.0073 -0.9936
vn 0.1397 0.0147 -0.9901
vn 0.0000 -0.0082 -0.9999
vn -0.1581 -0.0081 -0.9874
vn -0.1331 -0.0060 -0.9911
vn 0.0000 -0.0062 -1.0000
vn -0.1010 -0.0032 -0.9949
vn 0.0000 -0.0032 -1.0000
vn -0.0896 -0.0008 -0.9960
vn 0.0000 -0.0008 -1.0000
vn 0.1581 -0.0081 -0.9874
vn 0.1331 -0.0060 -0.9911
vn 0.1010 -0.0032 -0.9949
vn 0.0896 -0.0008 -0.9960
usemtl feather_004
s 1
f 18//1 10//2 3//3 6//4
f 11//5 18//1 6//4 4//6
f 5//7 1//8 7//9 15//10
f 15//10 7//9 8//11 16//12
f 16//12 8//11 9//13 17//14
f 17//14 9//13 10//2 18//1
f 2//15 5//7 15//10 14//16
f 14//16 15//10 16//12 13//17
f 13//17 16//12 17//14 12//18
f 12//18 17//14 18//1 11//5
