# Blender v2.79 (sub 0) OBJ File: 'guinea_fowl_base_mesh_BI.blend'
# www.blender.org
mtllib guinea_fowl_feather_flight_tertiary_031.mtl
o feather_flight_tertiary_031
v 0.393619 0.353801 0.072492
v 0.388443 0.351929 0.072492
v 0.405545 0.323782 0.072492
v 0.398482 0.321227 0.072492
v 0.390470 0.354417 0.073394
v 0.403242 0.319108 0.073394
v 0.396886 0.349169 0.072492
v 0.400490 0.342904 0.072492
v 0.403666 0.336485 0.072492
v 0.405877 0.329716 0.072492
v 0.394430 0.325575 0.072492
v 0.391799 0.332192 0.072492
v 0.390134 0.339158 0.072492
v 0.388896 0.346279 0.072492
v 0.392891 0.347724 0.073394
v 0.395312 0.341031 0.073394
v 0.397733 0.334338 0.073394
v 0.400154 0.327646 0.073394
vn -0.0056 0.0157 -0.9998
vn -0.1589 -0.0423 -0.9864
vn -0.1899 -0.0362 -0.9811
vn -0.0106 0.0293 -0.9995
vn 0.1492 0.0691 -0.9864
vn 0.1691 0.0937 -0.9811
vn 0.0107 -0.0296 -0.9995
vn -0.2304 -0.1157 -0.9662
vn -0.1934 -0.0936 -0.9766
vn 0.0081 -0.0224 -0.9997
vn -0.1509 -0.0673 -0.9862
vn 0.0042 -0.0117 -0.9999
vn -0.1375 -0.0529 -0.9891
vn 0.0011 -0.0030 -1.0000
vn 0.2510 0.0584 -0.9662
vn 0.2086 0.0518 -0.9766
vn 0.1591 0.0448 -0.9862
vn 0.1395 0.0473 -0.9891
usemtl feather_002
s 1
f 18//1 10//2 3//3 6//4
f 11//5 18//1 6//4 4//6
f 5//7 1//8 7//9 15//10
f 15//10 7//9 8//11 16//12
f 16//12 8//11 9//13 17//14
f 17//14 9//13 10//2 18//1
f 2//15 5//7 15//10 14//16
f 14//16 15//10 16//12 13//17
f 13//17 16//12 17//14 12//18
f 12//18 17//14 18//1 11//5
