# Blender v2.79 (sub 0) OBJ File: 'guinea_fowl_base_mesh_BI.blend'
# www.blender.org
mtllib guinea_fowl_feather_flight_primary_018.mtl
o feather_flight_primary_018
v 0.429672 0.353025 0.070217
v 0.418773 0.342126 0.070217
v 0.574250 0.207806 0.070227
v 0.543565 0.211052 0.070225
v 0.417395 0.354403 0.071117
v 0.572755 0.199043 0.071128
v 0.455256 0.333367 0.070218
v 0.487195 0.306409 0.070220
v 0.518235 0.278551 0.070222
v 0.547241 0.248660 0.070224
v 0.523138 0.224557 0.070224
v 0.493246 0.253563 0.070222
v 0.465389 0.284603 0.070220
v 0.438431 0.316542 0.070218
v 0.446843 0.324954 0.071119
v 0.476292 0.295506 0.071121
v 0.505741 0.266057 0.071123
v 0.535189 0.236608 0.071125
vn -0.0038 0.0004 -1.0000
vn -0.0469 -0.0419 -0.9980
vn -0.0585 -0.0482 -0.9971
vn -0.0287 -0.0197 -0.9994
vn 0.0397 0.0427 -0.9983
vn 0.0436 0.0494 -0.9978
vn 0.0038 -0.0038 -1.0000
vn -0.0627 -0.0704 -0.9955
vn -0.0530 -0.0587 -0.9969
vn 0.0029 -0.0029 -1.0000
vn -0.0408 -0.0438 -0.9982
vn 0.0015 -0.0015 -1.0000
vn -0.0371 -0.0379 -0.9986
vn 0.0004 -0.0004 -1.0000
vn 0.0704 0.0627 -0.9955
vn 0.0587 0.0530 -0.9969
vn 0.0438 0.0408 -0.9982
vn 0.0379 0.0371 -0.9986
usemtl feather_004
s 1
f 18//1 10//2 3//3 6//4
f 11//5 18//1 6//4 4//6
f 5//7 1//8 7//9 15//10
f 15//10 7//9 8//11 16//12
f 16//12 8//11 9//13 17//14
f 17//14 9//13 10//2 18//1
f 2//15 5//7 15//10 14//16
f 14//16 15//10 16//12 13//17
f 13//17 16//12 17//14 12//18
f 12//18 17//14 18//1 11//5
