# Blender v2.79 (sub 0) OBJ File: 'guinea_fowl_base_mesh_BI.blend'
# www.blender.org
mtllib guinea_fowl_feather_flight_primary_002.mtl
o feather_flight_primary_002
v 0.140206 0.347523 0.070216
v 0.131096 0.347523 0.070216
v 0.142082 0.203054 0.069765
v 0.129220 0.203054 0.069765
v 0.135651 0.354417 0.071117
v 0.135651 0.197550 0.071117
v 0.142683 0.324682 0.070216
v 0.144765 0.294948 0.070216
v 0.146095 0.265214 0.070216
v 0.145725 0.235480 0.070216
v 0.125577 0.235480 0.070216
v 0.125207 0.265214 0.070216
v 0.126538 0.294948 0.070216
v 0.128619 0.324682 0.070216
v 0.135651 0.324682 0.071117
v 0.135651 0.294948 0.071117
v 0.135651 0.265214 0.071117
v 0.135651 0.235480 0.071117
vn 0.0000 0.0071 -1.0000
vn -0.1126 0.0068 -0.9936
vn -0.1397 0.0136 -0.9901
vn 0.0000 0.0137 -0.9999
vn 0.1126 0.0068 -0.9936
vn 0.1397 0.0136 -0.9901
vn 0.0000 -0.0075 -1.0000
vn -0.1581 -0.0074 -0.9874
vn -0.1332 -0.0056 -0.9911
vn 0.0000 -0.0057 -1.0000
vn -0.1010 -0.0029 -0.9949
vn 0.0000 -0.0030 -1.0000
vn -0.0896 -0.0007 -0.9960
vn 0.0000 -0.0007 -1.0000
vn 0.1581 -0.0074 -0.9874
vn 0.1332 -0.0056 -0.9911
vn 0.1010 -0.0029 -0.9949
vn 0.0896 -0.0007 -0.9960
usemtl feather_004
s 1
f 18//1 10//2 3//3 6//4
f 11//5 18//1 6//4 4//6
f 5//7 1//8 7//9 15//10
f 15//10 7//9 8//11 16//12
f 16//12 8//11 9//13 17//14
f 17//14 9//13 10//2 18//1
f 2//15 5//7 15//10 14//16
f 14//16 15//10 16//12 13//17
f 13//17 16//12 17//14 12//18
f 12//18 17//14 18//1 11//5
