# Blender v2.79 (sub 0) OBJ File: 'guinea_fowl_base_mesh_BI.blend'
# www.blender.org
mtllib guinea_fowl_feather_flight_tertiary_007.mtl
o feather_flight_tertiary_007
v 0.171077 0.352605 0.072492
v 0.165572 0.352605 0.072492
v 0.172080 0.317157 0.072492
v 0.164569 0.317157 0.072492
v 0.168324 0.354417 0.073394
v 0.168324 0.313191 0.073394
v 0.172573 0.346602 0.072492
v 0.173831 0.338788 0.072492
v 0.174634 0.330974 0.072492
v 0.174411 0.323159 0.072492
v 0.162238 0.323159 0.072492
v 0.162015 0.330974 0.072492
v 0.162818 0.338788 0.072492
v 0.164076 0.346602 0.072492
v 0.168324 0.346602 0.073394
v 0.168324 0.338788 0.073394
v 0.168324 0.330974 0.073394
v 0.168324 0.323159 0.073394
vn 0.0000 0.0152 -0.9999
vn -0.1642 0.0131 -0.9863
vn -0.1909 0.0279 -0.9812
vn 0.0000 0.0284 -0.9996
vn 0.1642 0.0131 -0.9863
vn 0.1909 0.0279 -0.9812
vn 0.0000 -0.0287 -0.9996
vn -0.2560 -0.0277 -0.9663
vn -0.2142 -0.0203 -0.9766
vn 0.0000 -0.0217 -0.9998
vn -0.1650 -0.0109 -0.9862
vn 0.0000 -0.0113 -0.9999
vn -0.1473 -0.0027 -0.9891
vn 0.0000 -0.0029 -1.0000
vn 0.2560 -0.0277 -0.9663
vn 0.2142 -0.0203 -0.9766
vn 0.1650 -0.0109 -0.9862
vn 0.1473 -0.0027 -0.9891
usemtl feather_002
s 1
f 18//1 10//2 3//3 6//4
f 11//5 18//1 6//4 4//6
f 5//7 1//8 7//9 15//10
f 15//10 7//9 8//11 16//12
f 16//12 8//11 9//13 17//14
f 17//14 9//13 10//2 18//1
f 2//15 5//7 15//10 14//16
f 14//16 15//10 16//12 13//17
f 13//17 16//12 17//14 12//18
f 12//18 17//14 18//1 11//5
