# Blender v2.79 (sub 0) OBJ File: 'hen_base_mesh_BI.blend'
# www.blender.org
mtllib hen_feather_flight_tertiary_049.mtl
o feather_flight_tertiary_049
v 0.192947 0.245487 0.044095
v 0.187928 0.244906 0.044079
v 0.194830 0.223890 0.043968
v 0.191058 0.223456 0.043937
v 0.190308 0.246293 0.043569
v 0.193223 0.221261 0.043413
v 0.194736 0.242001 0.044077
v 0.196237 0.237365 0.044051
v 0.196733 0.232613 0.044026
v 0.196209 0.227744 0.043999
v 0.188829 0.226892 0.043952
v 0.187201 0.231512 0.043984
v 0.186591 0.236249 0.044018
v 0.186987 0.241104 0.044052
v 0.190860 0.241548 0.043539
v 0.191413 0.236803 0.043510
v 0.191965 0.232058 0.043480
v 0.192518 0.227314 0.043451
vn 0.0081 -0.0188 -0.9998
vn 0.1585 0.0010 -0.9873
vn 0.2080 -0.0074 -0.9781
vn 0.0109 -0.0305 -0.9995
vn -0.1434 -0.0328 -0.9891
vn -0.1878 -0.0526 -0.9808
vn -0.0009 0.0336 -0.9994
vn 0.1635 0.0522 -0.9851
vn 0.1374 0.0402 -0.9897
vn 0.0001 0.0260 -0.9996
vn 0.1147 0.0245 -0.9931
vn 0.0021 0.0121 -0.9999
vn 0.1184 0.0125 -0.9929
vn 0.0045 -0.0006 -1.0000
vn -0.1653 0.0140 -0.9861
vn -0.1368 0.0085 -0.9905
vn -0.1103 -0.0010 -0.9939
vn -0.1095 -0.0127 -0.9939
usemtl feather_002
s 1
f 18//1 10//2 3//3 6//4
f 11//5 18//1 6//4 4//6
f 5//7 1//8 7//9 15//10
f 15//10 7//9 8//11 16//12
f 16//12 8//11 9//13 17//14
f 17//14 9//13 10//2 18//1
f 2//15 5//7 15//10 14//16
f 14//16 15//10 16//12 13//17
f 13//17 16//12 17//14 12//18
f 12//18 17//14 18//1 11//5
