# Blender v2.79 (sub 0) OBJ File: 'hen_base_mesh_BI.blend'
# www.blender.org
mtllib hen_feather_flight_tertiary_061.mtl
o feather_flight_tertiary_061
v 0.283991 0.247468 0.044050
v 0.281722 0.243689 0.044117
v 0.305343 0.233850 0.043789
v 0.303627 0.230962 0.043919
v 0.281762 0.246257 0.043568
v 0.306915 0.230938 0.043301
v 0.288271 0.246265 0.043993
v 0.293557 0.244224 0.043927
v 0.298416 0.241477 0.043859
v 0.302589 0.237594 0.043798
v 0.299059 0.231683 0.043988
v 0.293696 0.233607 0.044027
v 0.289017 0.236664 0.044061
v 0.284767 0.240431 0.044096
v 0.286530 0.243354 0.043518
v 0.291298 0.240450 0.043467
v 0.296065 0.237545 0.043416
v 0.300833 0.234641 0.043366
vn -0.0005 -0.0296 -0.9995
vn 0.0817 0.1152 -0.9900
vn 0.1184 0.1501 -0.9815
vn 0.0042 -0.0424 -0.9991
vn -0.0859 -0.1708 -0.9815
vn -0.1060 -0.2261 -0.9683
vn -0.0350 0.0050 -0.9994
vn 0.0640 0.1667 -0.9839
vn 0.0525 0.1359 -0.9893
vn -0.0305 0.0015 -0.9995
vn 0.0427 0.1014 -0.9939
vn -0.0218 -0.0049 -0.9997
vn 0.0490 0.0918 -0.9945
vn -0.0126 -0.0145 -0.9998
vn -0.1329 -0.1572 -0.9785
vn -0.1111 -0.1334 -0.9848
vn -0.0854 -0.1116 -0.9901
vn -0.0748 -0.1200 -0.9899
usemtl feather_002
s 1
f 18//1 10//2 3//3 6//4
f 11//5 18//1 6//4 4//6
f 5//7 1//8 7//9 15//10
f 15//10 7//9 8//11 16//12
f 16//12 8//11 9//13 17//14
f 17//14 9//13 10//2 18//1
f 2//15 5//7 15//10 14//16
f 14//16 15//10 16//12 13//17
f 13//17 16//12 17//14 12//18
f 12//18 17//14 18//1 11//5
