# Blender v2.79 (sub 0) OBJ File: 'hen_base_mesh_BI.blend'
# www.blender.org
mtllib hen_feather_flight_secondary_015.mtl
o feather_flight_secondary_015
v 0.288370 0.249376 0.045602
v 0.284596 0.240595 0.045427
v 0.346320 0.223869 0.045918
v 0.343128 0.215802 0.045744
v 0.283519 0.246288 0.046026
v 0.351180 0.216898 0.046392
v 0.299248 0.247484 0.045704
v 0.312936 0.243920 0.045813
v 0.326275 0.239555 0.045907
v 0.338240 0.232214 0.045945
v 0.331539 0.216086 0.045612
v 0.317712 0.219605 0.045507
v 0.305384 0.226350 0.045461
v 0.293421 0.233928 0.045432
v 0.296344 0.240717 0.046095
v 0.309169 0.235146 0.046164
v 0.322018 0.229621 0.046235
v 0.334915 0.224194 0.046306
vn 0.0037 0.0182 -0.9998
vn -0.0218 -0.0435 -0.9988
vn -0.0356 -0.0591 -0.9976
vn 0.0004 0.0224 -0.9997
vn 0.0314 0.0805 -0.9962
vn 0.0353 0.1011 -0.9942
vn 0.0203 0.0108 -0.9997
vn -0.0150 -0.0706 -0.9974
vn -0.0113 -0.0557 -0.9984
vn 0.0183 0.0119 -0.9998
vn -0.0074 -0.0384 -0.9992
vn 0.0151 0.0134 -0.9998
vn -0.0094 -0.0333 -0.9994
vn 0.0111 0.0153 -0.9998
vn 0.0556 0.0923 -0.9942
vn 0.0473 0.0795 -0.9957
vn 0.0374 0.0651 -0.9972
vn 0.0316 0.0635 -0.9975
usemtl feather_003
s 1
f 18//1 10//2 3//3 6//4
f 11//5 18//1 6//4 4//6
f 5//7 1//8 7//9 15//10
f 15//10 7//9 8//11 16//12
f 16//12 8//11 9//13 17//14
f 17//14 9//13 10//2 18//1
f 2//15 5//7 15//10 14//16
f 14//16 15//10 16//12 13//17
f 13//17 16//12 17//14 12//18
f 12//18 17//14 18//1 11//5
