# Blender v2.79 (sub 0) OBJ File: 'hen_base_mesh_BI.blend'
# www.blender.org
mtllib hen_feather_tail_primary_005.mtl
o feather_tail_primary_005
v 0.037883 0.234752 -0.097192
v 0.031755 0.240802 -0.086255
v 0.028626 0.354603 -0.171707
v 0.020396 0.362728 -0.157016
v 0.037176 0.235405 -0.089091
v 0.026069 0.365673 -0.167364
v 0.038401 0.243468 -0.105704
v 0.038314 0.255566 -0.115426
v 0.032727 0.329316 -0.161561
v 0.031073 0.342960 -0.168487
v 0.019667 0.354221 -0.148128
v 0.020251 0.341633 -0.139292
v 0.027369 0.266371 -0.095891
v 0.029519 0.252237 -0.089851
v 0.036058 0.248521 -0.096972
v 0.034940 0.261637 -0.104853
v 0.028587 0.336143 -0.149621
v 0.027469 0.349259 -0.157502
v 0.034037 0.314376 -0.152678
v 0.035233 0.299548 -0.143591
v 0.036379 0.284770 -0.134416
v 0.037479 0.270037 -0.125157
v 0.025663 0.281702 -0.104067
v 0.024222 0.296772 -0.112715
v 0.022827 0.311796 -0.121447
v 0.021482 0.326770 -0.130268
v 0.029858 0.321242 -0.140667
v 0.031128 0.306341 -0.131714
v 0.032399 0.291440 -0.122760
v 0.033669 0.276539 -0.113807
vn 0.8936 0.2971 0.3363
vn 0.9609 0.2085 0.1821
vn 0.9662 0.2052 0.1559
vn 0.8928 0.3050 0.3314
vn 0.7942 0.3730 0.4796
vn 0.7781 0.3909 0.4916
vn 0.8968 0.2554 0.3611
vn 0.9826 0.1280 0.1345
vn 0.9743 0.1550 0.1633
vn 0.8964 0.2627 0.3569
vn 0.9630 0.1869 0.1939
vn 0.8956 0.2744 0.3500
vn 0.8949 0.2832 0.3447
vn 0.9547 0.2086 0.2120
vn 0.9554 0.2101 0.2072
vn 0.8947 0.2865 0.3428
vn 0.7439 0.3637 0.5607
vn 0.7690 0.3577 0.5298
vn 0.7955 0.3524 0.4930
vn 0.8112 0.3503 0.4682
vn 0.8089 0.3547 0.4688
vn 0.9581 0.2005 0.2044
vn 0.8952 0.2803 0.3464
vn 0.9562 0.2051 0.2088
vn 0.8950 0.2820 0.3455
vn 0.9552 0.2071 0.2112
vn 0.8950 0.2824 0.3452
vn 0.8049 0.3517 0.4779
vn 0.8085 0.3509 0.4724
vn 0.8104 0.3501 0.4697
usemtl feather_004
s 1
f 18//1 10//2 3//3 6//4
f 11//5 18//1 6//4 4//6
f 5//7 1//8 7//9 15//10
f 15//10 7//9 8//11 16//12
f 27//13 19//14 9//15 17//16
f 17//16 9//15 10//2 18//1
f 2//17 5//7 15//10 14//18
f 14//18 15//10 16//12 13//19
f 26//20 27//13 17//16 12//21
f 12//21 17//16 18//1 11//5
f 16//12 8//11 22//22 30//23
f 30//23 22//22 21//24 29//25
f 29//25 21//24 20//26 28//27
f 28//27 20//26 19//14 27//13
f 13//19 16//12 30//23 23//28
f 23//28 30//23 29//25 24//29
f 24//29 29//25 28//27 25//30
f 25//30 28//27 27//13 26//20
