# Blender v2.79 (sub 0) OBJ File: 'hen_base_mesh_BI.blend'
# www.blender.org
mtllib hen_feather_flight_primary_001.mtl
o feather_flight_primary_001
v 0.079406 0.243165 0.044838
v 0.072781 0.243165 0.044838
v 0.080614 0.182196 0.044838
v 0.071573 0.182196 0.044838
v 0.076093 0.246288 0.045362
v 0.076093 0.179699 0.045362
v 0.081207 0.232819 0.044838
v 0.082721 0.219350 0.044838
v 0.083688 0.205880 0.044838
v 0.083419 0.192411 0.044838
v 0.068767 0.192411 0.044838
v 0.068498 0.205880 0.044838
v 0.069466 0.219350 0.044838
v 0.070980 0.232819 0.044838
v 0.076093 0.232819 0.045362
v 0.076093 0.219350 0.045362
v 0.076093 0.205880 0.045362
v 0.076093 0.192411 0.045362
vn 0.0000 0.0059 -1.0000
vn -0.0793 0.0054 -0.9968
vn -0.0905 0.0110 -0.9958
vn 0.0000 0.0111 -0.9999
vn 0.0793 0.0054 -0.9968
vn 0.0905 0.0110 -0.9958
vn 0.0000 -0.0097 -0.9999
vn -0.1270 -0.0096 -0.9919
vn -0.1063 -0.0071 -0.9943
vn 0.0000 -0.0073 -1.0000
vn -0.0808 -0.0037 -0.9967
vn 0.0000 -0.0038 -1.0000
vn -0.0718 -0.0009 -0.9974
vn 0.0000 -0.0009 -1.0000
vn 0.1270 -0.0096 -0.9919
vn 0.1063 -0.0071 -0.9943
vn 0.0808 -0.0037 -0.9967
vn 0.0718 -0.0009 -0.9974
usemtl feather_004
s 1
f 18//1 10//2 3//3 6//4
f 11//5 18//1 6//4 4//6
f 5//7 1//8 7//9 15//10
f 15//10 7//9 8//11 16//12
f 16//12 8//11 9//13 17//14
f 17//14 9//13 10//2 18//1
f 2//15 5//7 15//10 14//16
f 14//16 15//10 16//12 13//17
f 13//17 16//12 17//14 12//18
f 12//18 17//14 18//1 11//5
