# Blender v2.79 (sub 0) OBJ File: 'hen_base_mesh_BI.blend'
# www.blender.org
mtllib hen_feather_flight_primary_014.mtl
o feather_flight_primary_014
v 0.273671 0.247068 0.044838
v 0.268441 0.239279 0.044838
v 0.364422 0.188193 0.044838
v 0.357284 0.177563 0.044838
v 0.266467 0.246255 0.045362
v 0.370899 0.176132 0.045362
v 0.290299 0.238976 0.044838
v 0.311289 0.227464 0.044838
v 0.331848 0.215309 0.044838
v 0.351431 0.201701 0.044838
v 0.339864 0.184475 0.044838
v 0.319856 0.197451 0.044838
v 0.300825 0.211880 0.044838
v 0.282225 0.226951 0.044838
v 0.286262 0.232964 0.045362
v 0.306057 0.219672 0.045362
v 0.325852 0.206380 0.045362
v 0.345647 0.193088 0.045362
vn -0.0024 0.0016 -1.0000
vn -0.0342 -0.0460 -0.9984
vn -0.0414 -0.0520 -0.9978
vn -0.0045 0.0030 -1.0000
vn 0.0297 0.0490 -0.9984
vn 0.0324 0.0580 -0.9978
vn 0.0045 -0.0030 -1.0000
vn -0.0457 -0.0778 -0.9959
vn -0.0387 -0.0649 -0.9971
vn 0.0034 -0.0023 -1.0000
vn -0.0301 -0.0486 -0.9984
vn 0.0018 -0.0012 -1.0000
vn -0.0278 -0.0424 -0.9987
vn 0.0004 -0.0003 -1.0000
vn 0.0547 0.0717 -0.9959
vn 0.0454 0.0604 -0.9971
vn 0.0336 0.0463 -0.9984
vn 0.0287 0.0418 -0.9987
usemtl feather_004
s 1
f 18//1 10//2 3//3 6//4
f 11//5 18//1 6//4 4//6
f 5//7 1//8 7//9 15//10
f 15//10 7//9 8//11 16//12
f 16//12 8//11 9//13 17//14
f 17//14 9//13 10//2 18//1
f 2//15 5//7 15//10 14//16
f 14//16 15//10 16//12 13//17
f 13//17 16//12 17//14 12//18
f 12//18 17//14 18//1 11//5
