# Blender v2.79 (sub 0) OBJ File: 'hen_base_mesh_BI.blend'
# www.blender.org
mtllib hen_feather_flight_tertiary_007.mtl
o feather_flight_tertiary_007
v 0.117625 0.245377 0.046163
v 0.112049 0.245182 0.046163
v 0.117062 0.225668 0.046163
v 0.114085 0.225402 0.046163
v 0.114802 0.246288 0.046687
v 0.115604 0.223326 0.046687
v 0.119258 0.242086 0.046163
v 0.120512 0.237778 0.046163
v 0.120437 0.233454 0.046163
v 0.119013 0.229094 0.046163
v 0.111972 0.228663 0.046163
v 0.110217 0.233008 0.046163
v 0.109733 0.237389 0.046163
v 0.110650 0.241786 0.046163
v 0.114957 0.241936 0.046687
v 0.115169 0.237583 0.046687
v 0.115377 0.233231 0.046687
v 0.115519 0.228879 0.046687
vn -0.0055 0.0374 -0.9993
vn -0.1595 0.0282 -0.9868
vn -0.2306 0.0479 -0.9719
vn 0.0040 0.0531 -0.9986
vn 0.1558 0.0365 -0.9871
vn 0.2219 0.0553 -0.9735
vn 0.0010 -0.0299 -0.9995
vn -0.1492 -0.0349 -0.9882
vn -0.1236 -0.0247 -0.9920
vn 0.0009 -0.0217 -0.9998
vn -0.1036 -0.0093 -0.9946
vn -0.0006 -0.0052 -1.0000
vn -0.1098 0.0068 -0.9939
vn -0.0021 0.0126 -0.9999
vn 0.1511 -0.0242 -0.9882
vn 0.1243 -0.0147 -0.9921
vn 0.1025 0.0000 -0.9947
vn 0.1068 0.0155 -0.9941
usemtl feather_002
s 1
f 18//1 10//2 3//3 6//4
f 11//5 18//1 6//4 4//6
f 5//7 1//8 7//9 15//10
f 15//10 7//9 8//11 16//12
f 16//12 8//11 9//13 17//14
f 17//14 9//13 10//2 18//1
f 2//15 5//7 15//10 14//16
f 14//16 15//10 16//12 13//17
f 13//17 16//12 17//14 12//18
f 12//18 17//14 18//1 11//5
