# Blender v2.79 (sub 0) OBJ File: 'hen_base_mesh_BI.blend'
# www.blender.org
mtllib hen_feather_flight_tertiary_025.mtl
o feather_flight_tertiary_025
v 0.249797 0.246385 0.046173
v 0.246104 0.244072 0.046152
v 0.261825 0.226183 0.046174
v 0.259033 0.224435 0.046158
v 0.247316 0.246249 0.046687
v 0.261826 0.223081 0.046691
v 0.252914 0.243641 0.046179
v 0.256493 0.239769 0.046185
v 0.259292 0.235408 0.046186
v 0.261129 0.230444 0.046182
v 0.255502 0.226920 0.046149
v 0.251836 0.230738 0.046143
v 0.249134 0.235159 0.046143
v 0.247213 0.240070 0.046147
v 0.250066 0.241857 0.046688
v 0.252816 0.237466 0.046688
v 0.255567 0.233074 0.046689
v 0.258317 0.228683 0.046690
vn -0.0094 0.0237 -0.9997
vn -0.1527 -0.0691 -0.9858
vn -0.2052 -0.0868 -0.9748
vn -0.0151 0.0333 -0.9993
vn 0.1366 0.1120 -0.9843
vn 0.1752 0.1514 -0.9728
vn 0.0173 -0.0190 -0.9997
vn -0.1451 -0.1202 -0.9821
vn -0.1212 -0.0971 -0.9879
vn 0.0139 -0.0138 -0.9998
vn -0.0999 -0.0702 -0.9925
vn 0.0076 -0.0034 -0.9999
vn -0.1064 -0.0595 -0.9925
vn 0.0004 0.0081 -0.9999
vn 0.1787 0.0827 -0.9804
vn 0.1478 0.0714 -0.9864
vn 0.1145 0.0641 -0.9913
vn 0.1078 0.0747 -0.9913
usemtl feather_002
s 1
f 18//1 10//2 3//3 6//4
f 11//5 18//1 6//4 4//6
f 5//7 1//8 7//9 15//10
f 15//10 7//9 8//11 16//12
f 16//12 8//11 9//13 17//14
f 17//14 9//13 10//2 18//1
f 2//15 5//7 15//10 14//16
f 14//16 15//10 16//12 13//17
f 13//17 16//12 17//14 12//18
f 12//18 17//14 18//1 11//5
