# Blender v2.79 (sub 0) OBJ File: 'hen_base_mesh_BI.blend'
# www.blender.org
mtllib hen_feather_tail_secondary_005.mtl
o feather_tail_secondary_005
v 0.040720 0.235656 -0.096103
v 0.034592 0.241706 -0.085166
v 0.040016 0.236310 -0.088000
v 0.041237 0.244372 -0.104615
v 0.041151 0.256470 -0.114337
v 0.030206 0.267275 -0.094801
v 0.032356 0.253141 -0.088762
v 0.038898 0.249426 -0.095881
v 0.037780 0.262542 -0.103763
v 0.037552 0.297567 -0.138786
v 0.039216 0.285674 -0.133327
v 0.040315 0.270942 -0.124068
v 0.028500 0.282606 -0.102978
v 0.027059 0.297676 -0.111626
v 0.026814 0.308169 -0.119618
v 0.033968 0.307246 -0.130623
v 0.035238 0.292345 -0.121670
v 0.036509 0.277444 -0.112716
vn 0.8968 0.2554 0.3612
vn 0.9826 0.1278 0.1343
vn 0.9744 0.1548 0.1630
vn 0.8964 0.2626 0.3569
vn 0.9631 0.1868 0.1936
vn 0.8956 0.2744 0.3500
vn 0.7436 0.3638 0.5609
vn 0.7688 0.3578 0.5300
vn 0.7953 0.3525 0.4932
vn 0.9582 0.2004 0.2042
vn 0.8952 0.2803 0.3464
vn 0.9577 0.2063 0.2004
vn 0.8947 0.2867 0.3426
vn 0.9586 0.2090 0.1933
vn 0.8942 0.2916 0.3397
vn 0.8048 0.3518 0.4780
vn 0.8041 0.3579 0.4746
vn 0.8008 0.3648 0.4750
usemtl feather_002
s 1
f 3//1 1//2 4//3 8//4
f 8//4 4//3 5//5 9//6
f 2//7 3//1 8//4 7//8
f 7//8 8//4 9//6 6//9
f 9//6 5//5 12//10 18//11
f 18//11 12//10 11//12 17//13
f 17//13 11//12 10//14 16//15
f 6//9 9//6 18//11 13//16
f 13//16 18//11 17//13 14//17
f 14//17 17//13 16//15 15//18
