# Blender v2.79 (sub 0) OBJ File: 'hen_base_mesh_BI.blend'
# www.blender.org
mtllib hen_feather_flight_secondary_017.mtl
o feather_flight_secondary_017
v 0.079406 0.244415 0.044684
v 0.072781 0.244415 0.044684
v 0.078740 0.208749 0.044684
v 0.073446 0.208749 0.044684
v 0.076093 0.246288 0.044159
v 0.076093 0.205887 0.044159
v 0.081189 0.238207 0.044684
v 0.082337 0.230125 0.044684
v 0.082320 0.222044 0.044684
v 0.081058 0.213962 0.044684
v 0.071128 0.213962 0.044684
v 0.069867 0.222044 0.044684
v 0.069849 0.230125 0.044684
v 0.070997 0.238207 0.044684
v 0.076093 0.238207 0.044159
v 0.076093 0.230125 0.044159
v 0.076093 0.222044 0.044159
v 0.076093 0.213962 0.044159
vn 0.0000 -0.0165 -0.9998
vn 0.1144 -0.0146 -0.9933
vn 0.1458 -0.0254 -0.9890
vn 0.0000 -0.0257 -0.9997
vn -0.1144 -0.0146 -0.9933
vn -0.1458 -0.0254 -0.9890
vn 0.0000 0.0160 -0.9998
vn 0.1272 0.0159 -0.9917
vn 0.1072 0.0106 -0.9942
vn 0.0000 0.0113 -0.9999
vn 0.0877 0.0031 -0.9961
vn 0.0000 0.0032 -1.0000
vn 0.0883 -0.0035 -0.9961
vn 0.0000 -0.0037 -1.0000
vn -0.1272 0.0159 -0.9917
vn -0.1072 0.0106 -0.9942
vn -0.0877 0.0031 -0.9961
vn -0.0883 -0.0035 -0.9961
usemtl feather_003
s 1
f 18//1 10//2 3//3 6//4
f 11//5 18//1 6//4 4//6
f 5//7 1//8 7//9 15//10
f 15//10 7//9 8//11 16//12
f 16//12 8//11 9//13 17//14
f 17//14 9//13 10//2 18//1
f 2//15 5//7 15//10 14//16
f 14//16 15//10 16//12 13//17
f 13//17 16//12 17//14 12//18
f 12//18 17//14 18//1 11//5
