# Blender v2.79 (sub 0) OBJ File: 'hen_base_mesh_BI.blend'
# www.blender.org
mtllib hen_feather_flight_primary_011.mtl
o feather_flight_primary_011
v 0.228638 0.244426 0.044838
v 0.219574 0.239606 0.044838
v 0.274738 0.161710 0.044838
v 0.262369 0.155133 0.044838
v 0.221834 0.246288 0.045362
v 0.273526 0.149070 0.045362
v 0.238629 0.231580 0.044838
v 0.250498 0.214254 0.044838
v 0.261620 0.196530 0.044838
v 0.271050 0.177906 0.044838
v 0.251005 0.167248 0.044838
v 0.240838 0.185480 0.044838
v 0.232363 0.204612 0.044838
v 0.224637 0.224141 0.044838
v 0.231633 0.227860 0.045362
v 0.241431 0.209433 0.045362
v 0.251229 0.191005 0.045362
v 0.261027 0.172577 0.045362
vn -0.0016 0.0029 -1.0000
vn -0.0475 -0.0218 -0.9986
vn -0.0564 -0.0230 -0.9981
vn -0.0029 0.0054 -1.0000
vn 0.0446 0.0272 -0.9986
vn 0.0506 0.0339 -0.9981
vn 0.0029 -0.0055 -1.0000
vn -0.0698 -0.0441 -0.9966
vn -0.0586 -0.0363 -0.9976
vn 0.0022 -0.0042 -1.0000
vn -0.0450 -0.0266 -0.9986
vn 0.0012 -0.0022 -1.0000
vn -0.0407 -0.0223 -0.9989
vn 0.0003 -0.0005 -1.0000
vn 0.0756 0.0331 -0.9966
vn 0.0629 0.0282 -0.9976
vn 0.0472 0.0224 -0.9986
vn 0.0412 0.0212 -0.9989
usemtl feather_004
s 1
f 18//1 10//2 3//3 6//4
f 11//5 18//1 6//4 4//6
f 5//7 1//8 7//9 15//10
f 15//10 7//9 8//11 16//12
f 16//12 8//11 9//13 17//14
f 17//14 9//13 10//2 18//1
f 2//15 5//7 15//10 14//16
f 14//16 15//10 16//12 13//17
f 13//17 16//12 17//14 12//18
f 12//18 17//14 18//1 11//5
