# Blender v2.79 (sub 0) OBJ File: 'hen_base_mesh_BI.blend'
# www.blender.org
mtllib hen_feather_flight_tertiary_019.mtl
o feather_flight_tertiary_019
v 0.207006 0.245664 0.046162
v 0.201985 0.244729 0.046178
v 0.210406 0.224020 0.046301
v 0.206626 0.223318 0.046313
v 0.204288 0.246293 0.046688
v 0.208966 0.221257 0.046847
v 0.209052 0.242273 0.046181
v 0.210905 0.237707 0.046208
v 0.211742 0.232952 0.046238
v 0.211542 0.228003 0.046272
v 0.204129 0.226626 0.046296
v 0.202156 0.231168 0.046269
v 0.201220 0.235904 0.046239
v 0.201301 0.240830 0.046206
v 0.205175 0.241547 0.046718
v 0.206062 0.236801 0.046748
v 0.206949 0.232056 0.046778
v 0.207835 0.227310 0.046809
vn -0.0066 0.0185 -0.9998
vn -0.1532 -0.0119 -0.9881
vn -0.2018 -0.0065 -0.9794
vn -0.0090 0.0302 -0.9995
vn 0.1411 0.0431 -0.9890
vn 0.1846 0.0657 -0.9806
vn 0.0031 -0.0332 -0.9994
vn -0.1580 -0.0628 -0.9854
vn -0.1327 -0.0493 -0.9899
vn 0.0017 -0.0258 -0.9996
vn -0.1107 -0.0323 -0.9933
vn -0.0009 -0.0123 -0.9999
vn -0.1141 -0.0208 -0.9932
vn -0.0032 0.0004 -1.0000
vn 0.1642 -0.0027 -0.9864
vn 0.1356 0.0007 -0.9908
vn 0.1088 0.0086 -0.9940
vn 0.1079 0.0206 -0.9939
usemtl feather_002
s 1
f 18//1 10//2 3//3 6//4
f 11//5 18//1 6//4 4//6
f 5//7 1//8 7//9 15//10
f 15//10 7//9 8//11 16//12
f 16//12 8//11 9//13 17//14
f 17//14 9//13 10//2 18//1
f 2//15 5//7 15//10 14//16
f 14//16 15//10 16//12 13//17
f 13//17 16//12 17//14 12//18
f 12//18 17//14 18//1 11//5
