# Blender v2.79 (sub 0) OBJ File: 'hen_base_mesh_BI.blend'
# www.blender.org
mtllib hen_feather_flight_tertiary_050.mtl
o feather_flight_tertiary_050
v 0.200088 0.245704 0.044095
v 0.194446 0.244566 0.044084
v 0.203665 0.222964 0.044007
v 0.200027 0.222170 0.043980
v 0.197033 0.246285 0.043570
v 0.202336 0.220035 0.043458
v 0.202394 0.242191 0.044081
v 0.204584 0.237456 0.044063
v 0.205487 0.232473 0.044046
v 0.205014 0.227218 0.044029
v 0.197164 0.225565 0.043991
v 0.194666 0.230259 0.044015
v 0.193514 0.235220 0.044041
v 0.193684 0.240434 0.044065
v 0.198039 0.241310 0.043549
v 0.199063 0.236338 0.043527
v 0.200093 0.231366 0.043506
v 0.201097 0.226391 0.043485
vn 0.0103 -0.0227 -0.9997
vn 0.1458 0.0070 -0.9893
vn 0.2022 0.0023 -0.9793
vn 0.0114 -0.0350 -0.9993
vn -0.1290 -0.0461 -0.9906
vn -0.1763 -0.0704 -0.9818
vn -0.0042 0.0296 -0.9995
vn 0.1387 0.0581 -0.9886
vn 0.1155 0.0455 -0.9922
vn -0.0028 0.0230 -0.9997
vn 0.0966 0.0290 -0.9949
vn 0.0003 0.0100 -0.9999
vn 0.1025 0.0165 -0.9946
vn 0.0042 -0.0038 -1.0000
vn -0.1470 0.0004 -0.9891
vn -0.1203 -0.0023 -0.9927
vn -0.0957 -0.0100 -0.9953
vn -0.0948 -0.0226 -0.9952
usemtl feather_002
s 1
f 18//1 10//2 3//3 6//4
f 11//5 18//1 6//4 4//6
f 5//7 1//8 7//9 15//10
f 15//10 7//9 8//11 16//12
f 16//12 8//11 9//13 17//14
f 17//14 9//13 10//2 18//1
f 2//15 5//7 15//10 14//16
f 14//16 15//10 16//12 13//17
f 13//17 16//12 17//14 12//18
f 12//18 17//14 18//1 11//5
