# Blender v2.79 (sub 0) OBJ File: 'hen_base_mesh_BI.blend'
# www.blender.org
mtllib hen_feather_flight_tertiary_030.mtl
o feather_flight_tertiary_030
v 0.291103 0.247531 0.046207
v 0.289248 0.243770 0.046141
v 0.314621 0.235492 0.046431
v 0.312996 0.232170 0.046370
v 0.288978 0.246262 0.046689
v 0.316459 0.232509 0.046953
v 0.295608 0.246551 0.046264
v 0.301241 0.244803 0.046329
v 0.306583 0.242469 0.046384
v 0.311378 0.239033 0.046420
v 0.308235 0.232633 0.046305
v 0.302609 0.234404 0.046240
v 0.297530 0.237279 0.046196
v 0.292745 0.240745 0.046161
v 0.294187 0.243655 0.046739
v 0.299396 0.241048 0.046789
v 0.304605 0.238441 0.046839
v 0.309814 0.235834 0.046889
vn -0.0038 0.0188 -0.9998
vn -0.0741 -0.1262 -0.9892
vn -0.1050 -0.1620 -0.9812
vn -0.0119 0.0250 -0.9996
vn 0.0701 0.1624 -0.9842
vn 0.0799 0.2074 -0.9750
vn 0.0343 -0.0008 -0.9994
vn -0.0552 -0.1788 -0.9823
vn -0.0455 -0.1462 -0.9882
vn 0.0296 0.0020 -0.9995
vn -0.0372 -0.1092 -0.9933
vn 0.0211 0.0067 -0.9997
vn -0.0442 -0.1001 -0.9940
vn 0.0113 0.0117 -0.9998
vn 0.1225 0.1772 -0.9765
vn 0.1026 0.1505 -0.9832
vn 0.0786 0.1226 -0.9893
vn 0.0672 0.1231 -0.9901
usemtl feather_002
s 1
f 18//1 10//2 3//3 6//4
f 11//5 18//1 6//4 4//6
f 5//7 1//8 7//9 15//10
f 15//10 7//9 8//11 16//12
f 16//12 8//11 9//13 17//14
f 17//14 9//13 10//2 18//1
f 2//15 5//7 15//10 14//16
f 14//16 15//10 16//12 13//17
f 13//17 16//12 17//14 12//18
f 12//18 17//14 18//1 11//5
