# Blender v2.79 (sub 0) OBJ File: 'hen_base_mesh_BI.blend'
# www.blender.org
mtllib hen_feather_tail_secondary_013.mtl
o feather_tail_secondary_013
v 0.015153 0.246922 -0.076666
v 0.026228 0.243529 -0.084871
v 0.019392 0.241072 -0.080803
v 0.012018 0.258441 -0.080142
v 0.009312 0.273016 -0.085687
v 0.029094 0.266956 -0.100343
v 0.028071 0.253523 -0.092035
v 0.018551 0.255076 -0.087729
v 0.017710 0.269080 -0.094656
v 0.006868 0.316729 -0.107474
v 0.006304 0.305171 -0.100613
v 0.007569 0.289167 -0.092973
v 0.028925 0.282625 -0.108795
v 0.028278 0.298440 -0.116893
v 0.026278 0.310783 -0.121854
v 0.014842 0.316808 -0.118263
v 0.015798 0.300899 -0.110394
v 0.016754 0.284989 -0.102525
vn -0.6211 -0.4054 -0.6707
vn -0.8097 -0.3252 -0.4884
vn -0.7869 -0.3302 -0.5213
vn -0.6217 -0.3980 -0.6746
vn -0.7600 -0.3329 -0.5582
vn -0.6226 -0.3859 -0.6808
vn -0.3857 -0.4551 -0.8025
vn -0.4222 -0.4419 -0.7915
vn -0.4624 -0.4241 -0.7787
vn -0.7495 -0.3321 -0.5726
vn -0.6230 -0.3797 -0.6839
vn -0.7500 -0.3258 -0.5756
vn -0.6234 -0.3730 -0.6872
vn -0.7535 -0.3190 -0.5748
vn -0.6237 -0.3678 -0.6897
vn -0.4774 -0.4154 -0.7742
vn -0.4776 -0.4092 -0.7775
vn -0.4736 -0.4047 -0.7822
usemtl feather_002
s 1
f 3//1 1//2 4//3 8//4
f 8//4 4//3 5//5 9//6
f 2//7 3//1 8//4 7//8
f 7//8 8//4 9//6 6//9
f 9//6 5//5 12//10 18//11
f 18//11 12//10 11//12 17//13
f 17//13 11//12 10//14 16//15
f 6//9 9//6 18//11 13//16
f 13//16 18//11 17//13 14//17
f 14//17 17//13 16//15 15//18
