# Blender v2.79 (sub 0) OBJ File: 'hen_base_mesh_BI.blend'
# www.blender.org
mtllib hen_feather_flight_secondary_008.mtl
o feather_flight_secondary_008
v 0.182908 0.244661 0.045499
v 0.174550 0.243188 0.045499
v 0.190879 0.198679 0.045499
v 0.183539 0.196668 0.045499
v 0.178312 0.246288 0.046023
v 0.187796 0.192499 0.046023
v 0.186561 0.237230 0.045499
v 0.190266 0.227371 0.045499
v 0.192799 0.217391 0.045499
v 0.193041 0.207135 0.045499
v 0.179089 0.203876 0.045499
v 0.175339 0.214012 0.045499
v 0.173565 0.224423 0.045499
v 0.173659 0.234955 0.045499
v 0.180110 0.236093 0.046023
v 0.181991 0.225897 0.046023
v 0.184243 0.215701 0.046023
v 0.186168 0.205505 0.046023
vn -0.0057 0.0104 -0.9999
vn -0.0817 -0.0033 -0.9966
vn -0.1068 0.0026 -0.9943
vn 0.0028 0.0172 -0.9998
vn 0.0775 0.0225 -0.9967
vn 0.0987 0.0297 -0.9947
vn 0.0022 -0.0124 -0.9999
vn -0.0958 -0.0296 -0.9949
vn -0.0796 -0.0234 -0.9966
vn 0.0016 -0.0094 -0.9999
vn -0.0633 -0.0163 -0.9978
vn 0.0007 -0.0038 -1.0000
vn -0.0628 -0.0107 -0.9980
vn -0.0020 0.0017 -1.0000
vn 0.1001 0.0049 -0.9949
vn 0.0823 0.0055 -0.9966
vn 0.0634 0.0089 -0.9979
vn 0.0600 0.0142 -0.9981
usemtl feather_003
s 1
f 18//1 10//2 3//3 6//4
f 11//5 18//1 6//4 4//6
f 5//7 1//8 7//9 15//10
f 15//10 7//9 8//11 16//12
f 16//12 8//11 9//13 17//14
f 17//14 9//13 10//2 18//1
f 2//15 5//7 15//10 14//16
f 14//16 15//10 16//12 13//17
f 13//17 16//12 17//14 12//18
f 12//18 17//14 18//1 11//5
