# Blender v2.79 (sub 0) OBJ File: 'hen_base_mesh_BI.blend'
# www.blender.org
mtllib hen_feather_tail_primary_003.mtl
o feather_tail_primary_003
v 0.035281 0.220751 -0.124821
v 0.038048 0.229444 -0.115666
v 0.032457 0.314814 -0.216419
v 0.036175 0.326492 -0.204122
v 0.038850 0.222405 -0.118347
v 0.036319 0.325374 -0.215360
v 0.034463 0.226761 -0.134382
v 0.033742 0.235665 -0.145691
v 0.031949 0.293470 -0.202321
v 0.031936 0.304597 -0.211289
v 0.037088 0.320781 -0.194246
v 0.037584 0.311172 -0.183679
v 0.038686 0.251193 -0.129338
v 0.038474 0.239362 -0.121111
v 0.038595 0.232773 -0.128115
v 0.038341 0.243140 -0.137883
v 0.036893 0.302033 -0.193368
v 0.036638 0.312400 -0.203136
v 0.032221 0.281636 -0.191282
v 0.032544 0.269964 -0.180074
v 0.032890 0.258361 -0.168791
v 0.033256 0.246826 -0.157439
v 0.038593 0.263590 -0.139784
v 0.038380 0.275611 -0.150626
v 0.038147 0.287565 -0.161537
v 0.037891 0.299449 -0.172523
v 0.037183 0.290254 -0.182271
v 0.037472 0.278476 -0.171174
v 0.037762 0.266697 -0.160077
v 0.038051 0.254919 -0.148980
vn 0.9762 -0.1224 -0.1789
vn 0.9181 -0.2483 -0.3089
vn 0.9076 -0.2566 -0.3323
vn 0.9759 -0.1155 -0.1852
vn 0.9991 0.0063 -0.0407
vn 0.9991 0.0308 -0.0296
vn 0.9767 -0.1577 -0.1455
vn 0.8820 -0.3342 -0.3321
vn 0.8999 -0.3036 -0.3130
vn 0.9768 -0.1516 -0.1512
vn 0.9181 -0.2669 -0.2928
vn 0.9768 -0.1418 -0.1606
vn 0.9766 -0.1343 -0.1677
vn 0.9287 -0.2421 -0.2809
vn 0.9273 -0.2417 -0.2858
vn 0.9766 -0.1315 -0.1703
vn 0.9982 0.0306 0.0520
vn 0.9998 0.0102 0.0174
vn 0.9997 -0.0109 -0.0231
vn 0.9985 -0.0228 -0.0500
vn 0.9986 -0.0177 -0.0500
vn 0.9245 -0.2516 -0.2862
vn 0.9767 -0.1367 -0.1654
vn 0.9269 -0.2462 -0.2832
vn 0.9767 -0.1353 -0.1667
vn 0.9281 -0.2437 -0.2813
vn 0.9767 -0.1349 -0.1671
vn 0.9991 -0.0175 -0.0396
vn 0.9987 -0.0206 -0.0455
vn 0.9986 -0.0224 -0.0483
usemtl feather_004
s 1
f 18//1 10//2 3//3 6//4
f 11//5 18//1 6//4 4//6
f 5//7 1//8 7//9 15//10
f 15//10 7//9 8//11 16//12
f 27//13 19//14 9//15 17//16
f 17//16 9//15 10//2 18//1
f 2//17 5//7 15//10 14//18
f 14//18 15//10 16//12 13//19
f 26//20 27//13 17//16 12//21
f 12//21 17//16 18//1 11//5
f 16//12 8//11 22//22 30//23
f 30//23 22//22 21//24 29//25
f 29//25 21//24 20//26 28//27
f 28//27 20//26 19//14 27//13
f 13//19 16//12 30//23 23//28
f 23//28 30//23 29//25 24//29
f 24//29 29//25 28//27 25//30
f 25//30 28//27 27//13 26//20
