# Blender v2.79 (sub 0) OBJ File: 'hen_base_mesh_BI.blend'
# www.blender.org
mtllib hen_feather_flight_primary_008.mtl
o feather_flight_primary_008
v 0.183669 0.242768 0.044838
v 0.174482 0.241148 0.044838
v 0.200283 0.158337 0.044838
v 0.187747 0.156126 0.044838
v 0.178312 0.246288 0.045362
v 0.195686 0.149461 0.045362
v 0.188696 0.228861 0.044838
v 0.194089 0.210554 0.044838
v 0.198723 0.192113 0.044838
v 0.201644 0.173370 0.044838
v 0.181327 0.169787 0.044838
v 0.177661 0.188399 0.044838
v 0.175708 0.207313 0.044838
v 0.174515 0.226361 0.044838
v 0.181605 0.227611 0.045362
v 0.184899 0.208933 0.045362
v 0.188192 0.190256 0.045362
v 0.191485 0.171579 0.045362
vn -0.0009 0.0037 -1.0000
vn -0.0573 -0.0068 -0.9983
vn -0.0672 -0.0051 -0.9977
vn -0.0013 0.0069 -1.0000
vn 0.0552 0.0134 -0.9984
vn 0.0628 0.0186 -0.9978
vn 0.0012 -0.0067 -1.0000
vn -0.0880 -0.0225 -0.9958
vn -0.0736 -0.0181 -0.9971
vn 0.0009 -0.0051 -1.0000
vn -0.0561 -0.0126 -0.9983
vn 0.0005 -0.0027 -1.0000
vn -0.0501 -0.0095 -0.9987
vn 0.0001 -0.0007 -1.0000
vn 0.0903 0.0090 -0.9958
vn 0.0754 0.0081 -0.9971
vn 0.0570 0.0073 -0.9983
vn 0.0504 0.0082 -0.9987
usemtl feather_004
s 1
f 18//1 10//2 3//3 6//4
f 11//5 18//1 6//4 4//6
f 5//7 1//8 7//9 15//10
f 15//10 7//9 8//11 16//12
f 16//12 8//11 9//13 17//14
f 17//14 9//13 10//2 18//1
f 2//15 5//7 15//10 14//16
f 14//16 15//10 16//12 13//17
f 13//17 16//12 17//14 12//18
f 12//18 17//14 18//1 11//5
