# Blender v2.79 (sub 0) OBJ File: 'hen_base_mesh_BI.blend'
# www.blender.org
mtllib hen_feather_flight_tertiary_062.mtl
o feather_flight_tertiary_062
v 0.291103 0.247531 0.044050
v 0.289248 0.243770 0.044117
v 0.314619 0.235487 0.043796
v 0.312993 0.232164 0.043917
v 0.288978 0.246262 0.043568
v 0.316459 0.232509 0.043305
v 0.295608 0.246551 0.043994
v 0.301241 0.244803 0.043928
v 0.306583 0.242468 0.043864
v 0.311377 0.239029 0.043805
v 0.308233 0.232629 0.043985
v 0.302609 0.234403 0.044026
v 0.297530 0.237279 0.044062
v 0.292745 0.240745 0.044096
v 0.294187 0.243655 0.043518
v 0.299396 0.241048 0.043468
v 0.304605 0.238441 0.043418
v 0.309814 0.235834 0.043368
vn 0.0001 -0.0262 -0.9996
vn 0.0689 0.1202 -0.9904
vn 0.0986 0.1524 -0.9834
vn 0.0063 -0.0363 -0.9993
vn -0.0717 -0.1700 -0.9828
vn -0.0836 -0.2179 -0.9724
vn -0.0343 0.0008 -0.9994
vn 0.0552 0.1788 -0.9823
vn 0.0455 0.1462 -0.9882
vn -0.0296 -0.0020 -0.9995
vn 0.0366 0.1089 -0.9933
vn -0.0214 -0.0071 -0.9997
vn 0.0415 0.0981 -0.9943
vn -0.0127 -0.0143 -0.9998
vn -0.1225 -0.1772 -0.9765
vn -0.1026 -0.1505 -0.9832
vn -0.0785 -0.1233 -0.9893
vn -0.0672 -0.1263 -0.9897
usemtl feather_002
s 1
f 18//1 10//2 3//3 6//4
f 11//5 18//1 6//4 4//6
f 5//7 1//8 7//9 15//10
f 15//10 7//9 8//11 16//12
f 16//12 8//11 9//13 17//14
f 17//14 9//13 10//2 18//1
f 2//15 5//7 15//10 14//16
f 14//16 15//10 16//12 13//17
f 13//17 16//12 17//14 12//18
f 12//18 17//14 18//1 11//5
