# Blender v2.79 (sub 0) OBJ File: 'hen_base_mesh_BI.blend'
# www.blender.org
mtllib hen_feather_flight_secondary_029.mtl
o feather_flight_secondary_029
v 0.255934 0.247567 0.044660
v 0.249065 0.241119 0.044706
v 0.291283 0.209232 0.044645
v 0.285240 0.203405 0.044707
v 0.250676 0.246290 0.044159
v 0.292221 0.202028 0.044150
v 0.263850 0.242874 0.044647
v 0.273294 0.235958 0.044635
v 0.281773 0.228153 0.044626
v 0.288140 0.218405 0.044626
v 0.276328 0.207160 0.044728
v 0.266876 0.214130 0.044731
v 0.259553 0.223059 0.044726
v 0.253247 0.232922 0.044717
v 0.258551 0.237900 0.044157
v 0.266426 0.229511 0.044156
v 0.274347 0.221162 0.044154
v 0.282250 0.212797 0.044152
vn 0.0028 -0.0113 -0.9999
vn 0.0533 0.0380 -0.9978
vn 0.0728 0.0471 -0.9962
vn 0.0051 -0.0163 -0.9998
vn -0.0495 -0.0594 -0.9970
vn -0.0614 -0.0783 -0.9950
vn -0.0114 0.0051 -0.9999
vn 0.0541 0.0665 -0.9963
vn 0.0449 0.0535 -0.9975
vn -0.0095 0.0031 -0.9999
vn 0.0357 0.0390 -0.9986
vn -0.0063 -0.0005 -1.0000
vn 0.0370 0.0335 -0.9987
vn -0.0027 -0.0046 -1.0000
vn -0.0767 -0.0563 -0.9955
vn -0.0632 -0.0479 -0.9968
vn -0.0480 -0.0401 -0.9980
vn -0.0426 -0.0425 -0.9982
usemtl feather_003
s 1
f 18//1 10//2 3//3 6//4
f 11//5 18//1 6//4 4//6
f 5//7 1//8 7//9 15//10
f 15//10 7//9 8//11 16//12
f 16//12 8//11 9//13 17//14
f 17//14 9//13 10//2 18//1
f 2//15 5//7 15//10 14//16
f 14//16 15//10 16//12 13//17
f 13//17 16//12 17//14 12//18
f 12//18 17//14 18//1 11//5
