# Blender v2.79 (sub 0) OBJ File: 'hen_base_mesh_BI.blend'
# www.blender.org
mtllib hen_feather_tail_secondary_012.mtl
o feather_tail_secondary_012
v 0.030636 0.240445 -0.086684
v 0.036764 0.234396 -0.097622
v 0.031857 0.233709 -0.091133
v 0.028400 0.251880 -0.090280
v 0.026250 0.266014 -0.096320
v 0.037195 0.255209 -0.115856
v 0.037282 0.243111 -0.106134
v 0.030738 0.246826 -0.099014
v 0.029620 0.259942 -0.106896
v 0.022858 0.306908 -0.121137
v 0.023103 0.296415 -0.113145
v 0.024544 0.281345 -0.104497
v 0.036360 0.269681 -0.125587
v 0.035260 0.284413 -0.134846
v 0.033596 0.296306 -0.140305
v 0.025808 0.304645 -0.133756
v 0.027079 0.289744 -0.124803
v 0.028349 0.274843 -0.115849
vn -0.8921 -0.3110 -0.3277
vn -0.9781 -0.1813 -0.1019
vn -0.9712 -0.1931 -0.1398
vn -0.8929 -0.3040 -0.3321
vn -0.9617 -0.2038 -0.1833
vn -0.8941 -0.2924 -0.3392
vn -0.7389 -0.4174 -0.5289
vn -0.7654 -0.3962 -0.5071
vn -0.7938 -0.3696 -0.4830
vn -0.9577 -0.2062 -0.2006
vn -0.8947 -0.2864 -0.3428
vn -0.9583 -0.2001 -0.2040
vn -0.8952 -0.2801 -0.3466
vn -0.9600 -0.1927 -0.2029
vn -0.8956 -0.2751 -0.3496
vn -0.8042 -0.3577 -0.4746
vn -0.8046 -0.3518 -0.4783
vn -0.8021 -0.3486 -0.4848
usemtl feather_002
s 1
f 3//1 1//2 4//3 8//4
f 8//4 4//3 5//5 9//6
f 2//7 3//1 8//4 7//8
f 7//8 8//4 9//6 6//9
f 9//6 5//5 12//10 18//11
f 18//11 12//10 11//12 17//13
f 17//13 11//12 10//14 16//15
f 6//9 9//6 18//11 13//16
f 13//16 18//11 17//13 14//17
f 14//17 17//13 16//15 15//18
