# Blender v2.79 (sub 0) OBJ File: 'hen_base_mesh_BI.blend'
# www.blender.org
mtllib hen_feather_flight_secondary_012.mtl
o feather_flight_secondary_012
v 0.241437 0.246791 0.045475
v 0.233733 0.241431 0.045543
v 0.270794 0.203443 0.045663
v 0.263578 0.199070 0.045757
v 0.236060 0.246288 0.046023
v 0.270696 0.196637 0.046258
v 0.248574 0.241019 0.045490
v 0.256900 0.232833 0.045519
v 0.264037 0.223710 0.045553
v 0.268881 0.212825 0.045600
v 0.255197 0.203962 0.045752
v 0.247230 0.212184 0.045710
v 0.241486 0.222108 0.045656
v 0.236682 0.232744 0.045596
v 0.242626 0.236877 0.046068
v 0.249190 0.227464 0.046112
v 0.255536 0.217858 0.046157
v 0.261972 0.208331 0.046201
vn -0.0094 0.0013 -0.9999
vn -0.0685 -0.0411 -0.9968
vn -0.0885 -0.0503 -0.9948
vn -0.0176 0.0015 -0.9998
vn 0.0480 0.0396 -0.9980
vn 0.0600 0.0582 -0.9965
vn 0.0028 -0.0166 -0.9998
vn -0.0710 -0.0681 -0.9951
vn -0.0601 -0.0566 -0.9966
vn 0.0012 -0.0144 -0.9999
vn -0.0494 -0.0428 -0.9978
vn -0.0019 -0.0106 -0.9999
vn -0.0508 -0.0365 -0.9980
vn -0.0047 -0.0059 -1.0000
vn 0.0767 0.0350 -0.9964
vn 0.0621 0.0286 -0.9977
vn 0.0462 0.0222 -0.9987
vn 0.0413 0.0244 -0.9988
usemtl feather_003
s 1
f 18//1 10//2 3//3 6//4
f 11//5 18//1 6//4 4//6
f 5//7 1//8 7//9 15//10
f 15//10 7//9 8//11 16//12
f 16//12 8//11 9//13 17//14
f 17//14 9//13 10//2 18//1
f 2//15 5//7 15//10 14//16
f 14//16 15//10 16//12 13//17
f 13//17 16//12 17//14 12//18
f 12//18 17//14 18//1 11//5
