# Blender v2.79 (sub 0) OBJ File: 'horse_base_mesh_BI.blend'
# www.blender.org
mtllib horse_eye.mtl
o eye
v 0.106264 1.789580 1.201001
v 0.100480 1.799131 1.198304
v 0.091825 1.805512 1.194268
v 0.081615 1.807753 1.189507
v 0.071405 1.805512 1.184747
v 0.062750 1.799131 1.180710
v 0.056967 1.789580 1.178014
v 0.108086 1.788723 1.197094
v 0.103847 1.797546 1.191085
v 0.096223 1.803442 1.184836
v 0.086376 1.805512 1.179298
v 0.075804 1.803442 1.175314
v 0.066116 1.797546 1.173491
v 0.058789 1.788723 1.174106
v 0.109630 1.786281 1.193782
v 0.106701 1.793034 1.184965
v 0.099952 1.797546 1.176839
v 0.090412 1.799131 1.170642
v 0.079533 1.797546 1.167317
v 0.068970 1.793034 1.167371
v 0.060333 1.786281 1.170794
v 0.054936 1.778315 1.177067
v 0.110662 1.782626 1.191568
v 0.108608 1.786281 1.180875
v 0.102444 1.788723 1.171496
v 0.093109 1.789580 1.164859
v 0.082024 1.788723 1.161974
v 0.070877 1.786281 1.163281
v 0.061365 1.782626 1.168581
v 0.111025 1.778315 1.190791
v 0.109277 1.778315 1.179439
v 0.103319 1.778315 1.169620
v 0.094056 1.778315 1.162828
v 0.082899 1.778315 1.160098
v 0.071547 1.778315 1.161845
v 0.061728 1.778315 1.167804
v 0.110662 1.774004 1.191568
v 0.108608 1.770349 1.180875
v 0.102444 1.767907 1.171496
v 0.093109 1.767050 1.164859
v 0.082024 1.767907 1.161974
v 0.070877 1.770349 1.163281
v 0.061365 1.774004 1.168581
v 0.108295 1.778315 1.201948
v 0.109630 1.770349 1.193782
v 0.106701 1.763596 1.184965
v 0.099952 1.759084 1.176839
v 0.090412 1.757500 1.170642
v 0.079533 1.759084 1.167317
v 0.068970 1.763596 1.167371
v 0.060333 1.770349 1.170794
v 0.108086 1.767907 1.197094
v 0.103847 1.759084 1.191085
v 0.096224 1.753189 1.184836
v 0.086376 1.751119 1.179298
v 0.075804 1.753189 1.175314
v 0.066116 1.759084 1.173491
v 0.058789 1.767907 1.174106
v 0.106264 1.767050 1.201001
v 0.100480 1.757500 1.198304
v 0.091825 1.751119 1.194268
v 0.081615 1.748878 1.189507
v 0.071405 1.751119 1.184747
v 0.062750 1.757500 1.180710
v 0.056967 1.767050 1.178014
v 0.104442 1.767907 1.204908
v 0.097114 1.759084 1.205524
v 0.087427 1.753189 1.203701
v 0.076854 1.751119 1.199717
v 0.067007 1.753189 1.194179
v 0.059384 1.759084 1.187930
v 0.055145 1.767907 1.181921
v 0.102897 1.770349 1.208221
v 0.094260 1.763596 1.211644
v 0.083698 1.759084 1.211697
v 0.072818 1.757500 1.208373
v 0.063278 1.759084 1.202176
v 0.056530 1.763596 1.194050
v 0.053600 1.770349 1.185233
v 0.101865 1.774004 1.210434
v 0.092353 1.770349 1.215734
v 0.081206 1.767907 1.217041
v 0.070121 1.767050 1.214156
v 0.060787 1.767907 1.207519
v 0.054623 1.770349 1.198140
v 0.052568 1.774004 1.187446
v 0.101503 1.778315 1.211211
v 0.091683 1.778315 1.217170
v 0.080331 1.778315 1.218917
v 0.069174 1.778315 1.216187
v 0.059912 1.778315 1.209395
v 0.053953 1.778315 1.199576
v 0.052206 1.778315 1.188223
v 0.101865 1.782626 1.210434
v 0.092353 1.786281 1.215734
v 0.081206 1.788723 1.217041
v 0.070121 1.789580 1.214156
v 0.060787 1.788723 1.207519
v 0.054623 1.786281 1.198140
v 0.052568 1.782626 1.187446
v 0.102897 1.786281 1.208221
v 0.094260 1.793034 1.211644
v 0.083698 1.797546 1.211697
v 0.072818 1.799131 1.208373
v 0.063278 1.797546 1.202176
v 0.056530 1.793034 1.194050
v 0.053600 1.786281 1.185233
v 0.104442 1.788723 1.204908
v 0.097114 1.797546 1.205524
v 0.087426 1.803442 1.203701
v 0.076854 1.805512 1.199717
v 0.067007 1.803442 1.194179
v 0.059383 1.797546 1.187930
v 0.055145 1.788723 1.181921
vn -0.9063 0.0000 -0.4226
vn -0.8294 0.4031 -0.3867
vn -0.7642 0.3724 -0.5265
vn -0.6300 0.7188 -0.2938
vn -0.3393 0.9273 -0.1582
vn -0.1893 0.8567 -0.4798
vn -0.5137 0.6641 -0.5431
vn 0.0000 1.0000 0.0000
vn 0.3393 0.9273 0.1582
vn 0.4892 0.8567 -0.1634
vn 0.1617 0.9239 -0.3468
vn 0.6300 0.7188 0.2938
vn 0.8294 0.4031 0.3867
vn 0.8946 0.3724 0.2470
vn 0.7463 0.6641 0.0444
vn 0.9063 0.0000 0.4226
vn 0.9499 0.2850 0.1284
vn 0.8448 0.5083 -0.1669
vn -0.4152 0.5083 -0.7544
vn -0.7089 0.2850 -0.6451
vn 0.2988 0.7071 -0.6408
vn -0.0622 0.6557 -0.7525
vn 0.6164 0.6557 -0.4360
vn -0.3493 0.2751 -0.8957
vn -0.6720 0.1542 -0.7243
vn 0.3904 0.3827 -0.8373
vn 0.0228 0.3548 -0.9346
vn 0.9107 0.2751 -0.3081
vn 0.7013 0.3548 -0.6182
vn 0.9868 0.1542 0.0492
vn 0.9998 0.0000 0.0214
vn -0.6590 0.0000 -0.7521
vn 0.0526 0.0000 -0.9986
vn -0.3262 0.0000 -0.9453
vn 0.7312 0.0000 -0.6822
vn 0.4226 0.0000 -0.9063
vn 0.9338 0.0000 -0.3577
vn 0.0228 -0.3548 -0.9346
vn -0.3493 -0.2751 -0.8957
vn 0.7013 -0.3548 -0.6182
vn 0.3904 -0.3827 -0.8373
vn 0.9868 -0.1542 0.0492
vn 0.9107 -0.2751 -0.3081
vn -0.6720 -0.1542 -0.7243
vn -0.4152 -0.5083 -0.7544
vn -0.7089 -0.2850 -0.6451
vn 0.2988 -0.7071 -0.6408
vn -0.0622 -0.6557 -0.7525
vn 0.8448 -0.5083 -0.1669
vn 0.6164 -0.6557 -0.4360
vn 0.9499 -0.2850 0.1284
vn 0.1617 -0.9239 -0.3468
vn -0.1893 -0.8567 -0.4798
vn 0.7463 -0.6641 0.0445
vn 0.4892 -0.8567 -0.1634
vn 0.8946 -0.3724 0.2470
vn -0.7642 -0.3724 -0.5265
vn -0.5137 -0.6641 -0.5431
vn -0.8294 -0.4031 -0.3867
vn -0.3393 -0.9273 -0.1582
vn -0.6300 -0.7188 -0.2938
vn 0.3393 -0.9273 0.1582
vn 0.0000 -1.0000 0.0000
vn 0.8294 -0.4031 0.3867
vn 0.6300 -0.7188 0.2938
vn 0.1893 -0.8567 0.4798
vn -0.1617 -0.9239 0.3468
vn 0.7642 -0.3724 0.5266
vn 0.5137 -0.6641 0.5431
vn -0.7463 -0.6641 -0.0444
vn -0.8946 -0.3724 -0.2470
vn -0.4892 -0.8567 0.1634
vn -0.8448 -0.5083 0.1669
vn -0.9499 -0.2850 -0.1284
vn -0.2988 -0.7071 0.6408
vn -0.6164 -0.6557 0.4360
vn 0.4152 -0.5083 0.7544
vn 0.0622 -0.6557 0.7525
vn 0.7089 -0.2850 0.6451
vn 0.3493 -0.2751 0.8957
vn -0.0228 -0.3548 0.9346
vn 0.6720 -0.1542 0.7243
vn -0.9868 -0.1542 -0.0492
vn -0.7013 -0.3548 0.6182
vn -0.9107 -0.2751 0.3081
vn -0.3904 -0.3827 0.8373
vn -0.9998 0.0000 -0.0214
vn -0.7312 0.0000 0.6822
vn -0.9338 0.0000 0.3577
vn -0.0526 0.0000 0.9986
vn -0.4226 0.0000 0.9063
vn 0.6590 0.0000 0.7521
vn 0.3262 0.0000 0.9453
vn 0.6720 0.1542 0.7243
vn 0.3493 0.2751 0.8957
vn -0.9107 0.2751 0.3081
vn -0.9868 0.1542 -0.0492
vn -0.3904 0.3827 0.8373
vn -0.7013 0.3548 0.6182
vn -0.0227 0.3548 0.9346
vn -0.8448 0.5083 0.1669
vn -0.9499 0.2850 -0.1284
vn -0.2988 0.7071 0.6408
vn -0.6164 0.6557 0.4360
vn 0.4152 0.5083 0.7544
vn 0.0622 0.6557 0.7525
vn 0.7089 0.2850 0.6451
vn 0.7642 0.3724 0.5266
vn -0.8946 0.3724 -0.2470
vn -0.4892 0.8567 0.1634
vn -0.7463 0.6641 -0.0444
vn 0.1893 0.8567 0.4798
vn -0.1617 0.9239 0.3468
vn 0.5137 0.6641 0.5431
usemtl eyes
s 1
f 22//1 7//2 14//3
f 6//4 5//5 12//6 13//7
f 4//8 3//9 10//10 11//11
f 2//12 1//13 8//14 9//15
f 7//2 6//4 13//7 14//3
f 5//5 4//8 11//11 12//6
f 3//9 2//12 9//15 10//10
f 1//13 44//16 8//14
f 9//15 8//14 15//17 16//18
f 14//3 13//7 20//19 21//20
f 12//6 11//11 18//21 19//22
f 10//10 9//15 16//18 17//23
f 8//14 44//16 15//17
f 22//1 14//3 21//20
f 13//7 12//6 19//22 20//19
f 11//11 10//10 17//23 18//21
f 21//20 20//19 28//24 29//25
f 19//22 18//21 26//26 27//27
f 17//23 16//18 24//28 25//29
f 15//17 44//16 23//30
f 22//1 21//20 29//25
f 20//19 19//22 27//27 28//24
f 18//21 17//23 25//29 26//26
f 16//18 15//17 23//30 24//28
f 23//30 44//16 30//31
f 22//1 29//25 36//32
f 28//24 27//27 34//33 35//34
f 26//26 25//29 32//35 33//36
f 24//28 23//30 30//31 31//37
f 29//25 28//24 35//34 36//32
f 27//27 26//26 33//36 34//33
f 25//29 24//28 31//37 32//35
f 35//34 34//33 41//38 42//39
f 33//36 32//35 39//40 40//41
f 31//37 30//31 37//42 38//43
f 36//32 35//34 42//39 43//44
f 34//33 33//36 40//41 41//38
f 32//35 31//37 38//43 39//40
f 30//31 44//16 37//42
f 22//1 36//32 43//44
f 43//44 42//39 50//45 51//46
f 41//38 40//41 48//47 49//48
f 39//40 38//43 46//49 47//50
f 37//42 44//16 45//51
f 22//1 43//44 51//46
f 42//39 41//38 49//48 50//45
f 40//41 39//40 47//50 48//47
f 38//43 37//42 45//51 46//49
f 49//48 48//47 55//52 56//53
f 47//50 46//49 53//54 54//55
f 45//51 44//16 52//56
f 22//1 51//46 58//57
f 50//45 49//48 56//53 57//58
f 48//47 47//50 54//55 55//52
f 46//49 45//51 52//56 53//54
f 51//46 50//45 57//58 58//57
f 22//1 58//57 65//59
f 57//58 56//53 63//60 64//61
f 55//52 54//55 61//62 62//63
f 53//54 52//56 59//64 60//65
f 58//57 57//58 64//61 65//59
f 56//53 55//52 62//63 63//60
f 54//55 53//54 60//65 61//62
f 52//56 44//16 59//64
f 62//63 61//62 68//66 69//67
f 60//65 59//64 66//68 67//69
f 65//59 64//61 71//70 72//71
f 63//60 62//63 69//67 70//72
f 61//62 60//65 67//69 68//66
f 59//64 44//16 66//68
f 22//1 65//59 72//71
f 64//61 63//60 70//72 71//70
f 72//71 71//70 78//73 79//74
f 70//72 69//67 76//75 77//76
f 68//66 67//69 74//77 75//78
f 66//68 44//16 73//79
f 22//1 72//71 79//74
f 71//70 70//72 77//76 78//73
f 69//67 68//66 75//78 76//75
f 67//69 66//68 73//79 74//77
f 75//78 74//77 81//80 82//81
f 73//79 44//16 80//82
f 22//1 79//74 86//83
f 78//73 77//76 84//84 85//85
f 76//75 75//78 82//81 83//86
f 74//77 73//79 80//82 81//80
f 79//74 78//73 85//85 86//83
f 77//76 76//75 83//86 84//84
f 22//1 86//83 93//87
f 85//85 84//84 91//88 92//89
f 83//86 82//81 89//90 90//91
f 81//80 80//82 87//92 88//93
f 86//83 85//85 92//89 93//87
f 84//84 83//86 90//91 91//88
f 82//81 81//80 88//93 89//90
f 80//82 44//16 87//92
f 88//93 87//92 94//94 95//95
f 93//87 92//89 99//96 100//97
f 91//88 90//91 97//98 98//99
f 89//90 88//93 95//95 96//100
f 87//92 44//16 94//94
f 22//1 93//87 100//97
f 92//89 91//88 98//99 99//96
f 90//91 89//90 96//100 97//98
f 100//97 99//96 106//101 107//102
f 98//99 97//98 104//103 105//104
f 96//100 95//95 102//105 103//106
f 94//94 44//16 101//107
f 22//1 100//97 107//102
f 99//96 98//99 105//104 106//101
f 97//98 96//100 103//106 104//103
f 95//95 94//94 101//107 102//105
f 101//107 44//16 108//108
f 22//1 107//102 114//109
f 106//101 105//104 112//110 113//111
f 104//103 103//106 110//112 111//113
f 102//105 101//107 108//108 109//114
f 107//102 106//101 113//111 114//109
f 105//104 104//103 111//113 112//110
f 103//106 102//105 109//114 110//112
f 113//111 112//110 5//5 6//4
f 111//113 110//112 3//9 4//8
f 109//114 108//108 1//13 2//12
f 114//109 113//111 6//4 7//2
f 112//110 111//113 4//8 5//5
f 110//112 109//114 2//12 3//9
f 108//108 44//16 1//13
f 22//1 114//109 7//2
