# Blender v2.79 (sub 0) OBJ File: 'iguana_base_mesh_BI.blend'
# www.blender.org
mtllib iguana_eye.mtl
o eye
v 0.025166 0.145461 0.188484
v 0.023367 0.147838 0.187907
v 0.020856 0.149313 0.187043
v 0.018015 0.149659 0.186025
v 0.015278 0.148825 0.185006
v 0.013061 0.146937 0.184142
v 0.011702 0.144283 0.183565
v 0.025575 0.145269 0.187413
v 0.024121 0.147484 0.185928
v 0.021841 0.148849 0.184457
v 0.019082 0.149157 0.183225
v 0.016264 0.148361 0.182419
v 0.013815 0.146582 0.182163
v 0.012110 0.144091 0.182494
v 0.025960 0.144654 0.186505
v 0.024833 0.146348 0.184250
v 0.022772 0.147366 0.182265
v 0.020089 0.147552 0.180852
v 0.017195 0.146878 0.180227
v 0.014528 0.145447 0.180484
v 0.012495 0.143476 0.181585
v 0.011407 0.141267 0.183362
v 0.026264 0.143711 0.185898
v 0.025396 0.144605 0.183128
v 0.023506 0.145088 0.180800
v 0.020884 0.145086 0.179266
v 0.017929 0.144600 0.178762
v 0.015090 0.143703 0.179363
v 0.012800 0.142533 0.180979
v 0.026441 0.142582 0.185685
v 0.025722 0.142519 0.182735
v 0.023933 0.142362 0.180285
v 0.021346 0.142136 0.178710
v 0.018355 0.141875 0.178248
v 0.015416 0.141617 0.178970
v 0.012976 0.141404 0.180766
v 0.026463 0.141440 0.185898
v 0.025763 0.140408 0.183128
v 0.023986 0.139604 0.180800
v 0.021404 0.139151 0.179266
v 0.018409 0.139116 0.178762
v 0.015457 0.139506 0.179363
v 0.012998 0.140262 0.180979
v 0.025981 0.142542 0.188687
v 0.026327 0.140458 0.186505
v 0.025512 0.138594 0.184250
v 0.023658 0.137234 0.182265
v 0.021049 0.136585 0.180852
v 0.018081 0.136746 0.180227
v 0.015206 0.137692 0.180484
v 0.012863 0.139279 0.181585
v 0.026054 0.139785 0.187413
v 0.025007 0.137352 0.185928
v 0.022999 0.135611 0.184457
v 0.020335 0.134828 0.183225
v 0.017422 0.135123 0.182419
v 0.014702 0.136450 0.182163
v 0.012590 0.138607 0.182494
v 0.025686 0.139526 0.188484
v 0.024326 0.136872 0.187907
v 0.022109 0.134984 0.187043
v 0.019372 0.134149 0.186025
v 0.016532 0.134496 0.185006
v 0.014021 0.135970 0.184142
v 0.012221 0.138348 0.183565
v 0.025278 0.139717 0.189556
v 0.023572 0.137226 0.189887
v 0.021124 0.135447 0.189630
v 0.018306 0.134651 0.188824
v 0.015546 0.134959 0.187592
v 0.013266 0.136324 0.186121
v 0.011813 0.138539 0.184636
v 0.024892 0.140332 0.190464
v 0.022860 0.138362 0.191565
v 0.020193 0.136930 0.191822
v 0.017298 0.136257 0.191197
v 0.014616 0.136443 0.189784
v 0.012554 0.137460 0.187799
v 0.011427 0.139154 0.185544
v 0.024588 0.141275 0.191071
v 0.022297 0.140105 0.192686
v 0.019458 0.139208 0.193287
v 0.016503 0.138722 0.192783
v 0.013881 0.138720 0.191249
v 0.011992 0.139203 0.188921
v 0.011123 0.140097 0.186151
v 0.024411 0.142404 0.191284
v 0.021971 0.142191 0.193080
v 0.019032 0.141934 0.193802
v 0.016041 0.141672 0.193339
v 0.013455 0.141446 0.191764
v 0.011666 0.141289 0.189314
v 0.010946 0.141226 0.186364
v 0.024389 0.143547 0.191071
v 0.021930 0.144302 0.192686
v 0.018979 0.144692 0.193287
v 0.015984 0.144657 0.192783
v 0.013401 0.144204 0.191249
v 0.011625 0.143400 0.188921
v 0.010924 0.142369 0.186151
v 0.024525 0.144529 0.190464
v 0.022181 0.146116 0.191565
v 0.019306 0.147063 0.191822
v 0.016339 0.147223 0.191197
v 0.013729 0.146575 0.189784
v 0.011876 0.145215 0.187799
v 0.011060 0.143351 0.185544
v 0.024798 0.145201 0.189556
v 0.022686 0.147358 0.189887
v 0.019966 0.148685 0.189630
v 0.017052 0.148980 0.188824
v 0.014388 0.148197 0.187592
v 0.012380 0.146457 0.186121
v 0.011333 0.144023 0.184636
vn -0.0871 0.9962 0.0000
vn 0.2696 0.9544 0.1280
vn 0.3967 0.8947 -0.2054
vn 0.0498 0.9318 -0.3596
vn 0.5881 0.7730 0.2377
vn 0.8216 0.4765 0.3130
vn 0.8768 0.4505 0.1680
vn 0.6866 0.7267 -0.0207
vn -0.8918 0.3266 -0.3130
vn -0.7134 0.6592 -0.2377
vn -0.6149 0.6129 -0.4963
vn -0.8366 0.3006 -0.4579
vn -0.4313 0.8931 -0.1280
vn -0.3042 0.8333 -0.4615
vn -0.9361 -0.0819 -0.3420
vn -0.5218 0.4646 -0.7154
vn -0.7844 0.2175 -0.5808
vn 0.1793 0.7255 -0.6644
vn -0.1842 0.6420 -0.7442
vn 0.7796 0.5784 -0.2399
vn 0.5167 0.7034 -0.4881
vn 0.9290 0.3674 0.0451
vn -0.7432 0.0898 -0.6630
vn -0.0895 0.3484 -0.9330
vn -0.4484 0.2369 -0.8618
vn 0.6114 0.4097 -0.6770
vn 0.2814 0.4088 -0.8682
vn 0.9701 0.2397 -0.0369
vn 0.8531 0.3507 -0.3863
vn -0.0345 -0.0030 -0.9994
vn -0.4058 -0.0355 -0.9132
vn 0.6664 0.0583 -0.7433
vn 0.3407 0.0298 -0.9397
vn 0.9940 0.0869 -0.0658
vn 0.8957 0.0783 -0.4377
vn -0.7194 -0.0629 -0.6918
vn -0.4005 -0.3112 -0.8618
vn -0.7164 -0.2175 -0.6629
vn 0.3481 -0.3537 -0.8682
vn -0.0276 -0.3586 -0.9330
vn 0.9010 -0.1973 -0.3863
vn 0.6733 -0.2973 -0.6770
vn 0.9970 -0.0676 -0.0369
vn 0.3025 -0.6833 -0.6644
vn -0.0699 -0.6643 -0.7442
vn 0.8682 -0.4343 -0.2399
vn 0.6310 -0.6030 -0.4881
vn -0.7347 -0.3504 -0.5808
vn -0.4332 -0.5481 -0.7154
vn 0.9786 -0.2005 0.0451
vn -0.7717 -0.4413 -0.4579
vn -0.1549 -0.8735 -0.4615
vn -0.4991 -0.7103 -0.4962
vn 0.5460 -0.8122 -0.2054
vn 0.2109 -0.9089 -0.3596
vn 0.9417 -0.2914 0.1680
vn 0.8023 -0.5965 -0.0207
vn 0.4313 -0.8931 0.1280
vn 0.0871 -0.9962 0.0000
vn 0.8918 -0.3266 0.3130
vn 0.7134 -0.6592 0.2377
vn -0.5881 -0.7730 -0.2377
vn -0.8216 -0.4765 -0.3130
vn -0.2696 -0.9544 -0.1280
vn -0.6866 -0.7267 0.0207
vn -0.8768 -0.4505 -0.1680
vn -0.0498 -0.9318 0.3596
vn -0.3967 -0.8947 0.2054
vn 0.6149 -0.6129 0.4963
vn 0.3042 -0.8333 0.4615
vn 0.8366 -0.3006 0.4579
vn 0.5218 -0.4646 0.7154
vn 0.1842 -0.6420 0.7442
vn -0.9290 -0.3674 -0.0451
vn -0.5167 -0.7034 0.4881
vn -0.7796 -0.5784 0.2399
vn -0.1793 -0.7255 0.6644
vn 0.7844 -0.2175 0.5808
vn -0.9701 -0.2397 0.0369
vn -0.6114 -0.4097 0.6770
vn -0.8531 -0.3507 0.3863
vn 0.0895 -0.3484 0.9330
vn -0.2814 -0.4088 0.8682
vn 0.7432 -0.0898 0.6630
vn 0.4484 -0.2369 0.8618
vn 0.7194 0.0629 0.6918
vn 0.4058 0.0355 0.9132
vn -0.8957 -0.0783 0.4377
vn -0.9940 -0.0869 0.0658
vn -0.3407 -0.0298 0.9397
vn -0.6664 -0.0583 0.7433
vn 0.0345 0.0030 0.9994
vn -0.9010 0.1973 0.3863
vn -0.9970 0.0676 0.0369
vn -0.3481 0.3537 0.8682
vn -0.6733 0.2973 0.6770
vn 0.4005 0.3112 0.8618
vn 0.0276 0.3586 0.9330
vn 0.7164 0.2175 0.6629
vn -0.9786 0.2005 -0.0451
vn -0.6310 0.6030 0.4881
vn -0.8682 0.4343 0.2399
vn 0.0699 0.6643 0.7442
vn -0.3025 0.6833 0.6644
vn 0.7347 0.3504 0.5808
vn 0.4332 0.5481 0.7154
vn -0.5460 0.8122 0.2054
vn -0.8023 0.5965 0.0207
vn 0.1549 0.8735 0.4615
vn -0.2109 0.9089 0.3596
vn 0.7717 0.4413 0.4579
vn 0.4991 0.7103 0.4963
vn -0.9417 0.2914 -0.1680
vn 0.9361 0.0819 0.3420
usemtl iris
s 1
f 4//1 3//2 10//3 11//4
f 2//5 1//6 8//7 9//8
f 7//9 6//10 13//11 14//12
f 5//13 4//1 11//4 12//14
f 3//2 2//5 9//8 10//3
f 22//15 7//9 14//12
f 6//10 5//13 12//14 13//11
f 14//12 13//11 20//16 21//17
f 12//14 11//4 18//18 19//19
f 10//3 9//8 16//20 17//21
f 22//15 14//12 21//17
f 13//11 12//14 19//19 20//16
f 11//4 10//3 17//21 18//18
f 9//8 8//7 15//22 16//20
f 22//15 21//17 29//23
f 20//16 19//19 27//24 28//25
f 18//18 17//21 25//26 26//27
f 16//20 15//22 23//28 24//29
f 21//17 20//16 28//25 29//23
f 19//19 18//18 26//27 27//24
f 17//21 16//20 24//29 25//26
f 28//25 27//24 34//30 35//31
f 26//27 25//26 32//32 33//33
f 24//29 23//28 30//34 31//35
f 29//23 28//25 35//31 36//36
f 27//24 26//27 33//33 34//30
f 25//26 24//29 31//35 32//32
f 22//15 29//23 36//36
f 36//36 35//31 42//37 43//38
f 34//30 33//33 40//39 41//40
f 32//32 31//35 38//41 39//42
f 22//15 36//36 43//38
f 35//31 34//30 41//40 42//37
f 33//33 32//32 39//42 40//39
f 31//35 30//34 37//43 38//41
f 41//40 40//39 48//44 49//45
f 39//42 38//41 46//46 47//47
f 22//15 43//38 51//48
f 42//37 41//40 49//45 50//49
f 40//39 39//42 47//47 48//44
f 38//41 37//43 45//50 46//46
f 43//38 42//37 50//49 51//48
f 22//15 51//48 58//51
f 50//49 49//45 56//52 57//53
f 48//44 47//47 54//54 55//55
f 46//46 45//50 52//56 53//57
f 51//48 50//49 57//53 58//51
f 49//45 48//44 55//55 56//52
f 47//47 46//46 53//57 54//54
f 55//55 54//54 61//58 62//59
f 53//57 52//56 59//60 60//61
f 58//51 57//53 64//62 65//63
f 56//52 55//55 62//59 63//64
f 54//54 53//57 60//61 61//58
f 22//15 58//51 65//63
f 57//53 56//52 63//64 64//62
f 65//63 64//62 71//65 72//66
f 63//64 62//59 69//67 70//68
f 61//58 60//61 67//69 68//70
f 22//15 65//63 72//66
f 64//62 63//64 70//68 71//65
f 62//59 61//58 68//70 69//67
f 60//61 59//60 66//71 67//69
f 68//70 67//69 74//72 75//73
f 22//15 72//66 79//74
f 71//65 70//68 77//75 78//76
f 69//67 68//70 75//73 76//77
f 67//69 66//71 73//78 74//72
f 72//66 71//65 78//76 79//74
f 70//68 69//67 76//77 77//75
f 22//15 79//74 86//79
f 78//76 77//75 84//80 85//81
f 76//77 75//73 82//82 83//83
f 74//72 73//78 80//84 81//85
f 79//74 78//76 85//81 86//79
f 77//75 76//77 83//83 84//80
f 75//73 74//72 81//85 82//82
f 81//85 80//84 87//86 88//87
f 86//79 85//81 92//88 93//89
f 84//80 83//83 90//90 91//91
f 82//82 81//85 88//87 89//92
f 22//15 86//79 93//89
f 85//81 84//80 91//91 92//88
f 83//83 82//82 89//92 90//90
f 93//89 92//88 99//93 100//94
f 91//91 90//90 97//95 98//96
f 89//92 88//87 95//97 96//98
f 22//15 93//89 100//94
f 92//88 91//91 98//96 99//93
f 90//90 89//92 96//98 97//95
f 88//87 87//86 94//99 95//97
f 22//15 100//94 107//100
f 99//93 98//96 105//101 106//102
f 97//95 96//98 103//103 104//104
f 95//97 94//99 101//105 102//106
f 100//94 99//93 106//102 107//100
f 98//96 97//95 104//104 105//101
f 96//98 95//97 102//106 103//103
f 106//102 105//101 112//107 113//108
f 104//104 103//103 110//109 111//110
f 102//106 101//105 108//111 109//112
f 107//100 106//102 113//108 114//113
f 105//101 104//104 111//110 112//107
f 103//103 102//106 109//112 110//109
f 22//15 107//100 114//113
f 114//113 113//108 6//10 7//9
f 112//107 111//110 4//1 5//13
f 110//109 109//112 2//5 3//2
f 22//15 114//113 7//9
f 113//108 112//107 5//13 6//10
f 111//110 110//109 3//2 4//1
f 109//112 108//111 1//6 2//5
usemtl pupil
f 1//6 44//114 8//7
f 8//7 44//114 15//22
f 15//22 44//114 23//28
f 23//28 44//114 30//34
f 30//34 44//114 37//43
f 37//43 44//114 45//50
f 45//50 44//114 52//56
f 52//56 44//114 59//60
f 59//60 44//114 66//71
f 66//71 44//114 73//78
f 73//78 44//114 80//84
f 80//84 44//114 87//86
f 87//86 44//114 94//99
f 94//99 44//114 101//105
f 101//105 44//114 108//111
f 108//111 44//114 1//6
