# Blender v2.79 (sub 0) OBJ File: 'lovebird_base_mesh_BI.blend'
# www.blender.org
mtllib lovebird_feather_flight_secondary_029.001.mtl
o feather_flight_secondary_029.001
v -0.221525 0.057261 0.020422
v -0.223620 0.055294 0.020436
v -0.210243 0.046007 0.020417
v -0.213103 0.043323 0.020436
v -0.223129 0.056872 0.020269
v -0.210452 0.043366 0.020266
v -0.219109 0.055830 0.020418
v -0.216228 0.053719 0.020414
v -0.213519 0.051446 0.020412
v -0.211201 0.048807 0.020412
v -0.215836 0.044456 0.020443
v -0.218324 0.046936 0.020444
v -0.220420 0.049783 0.020442
v -0.222344 0.052793 0.020439
v -0.220726 0.054312 0.020269
v -0.218323 0.051752 0.020268
v -0.215920 0.049192 0.020268
v -0.213518 0.046632 0.020267
vn 0.0005 -0.0076 -1.0000
vn 0.0410 0.0316 -0.9987
vn 0.0522 0.0338 -0.9980
vn 0.0040 -0.0114 -0.9999
vn -0.0411 -0.0455 -0.9981
vn -0.0441 -0.0565 -0.9974
vn -0.0114 0.0051 -0.9999
vn 0.0541 0.0665 -0.9963
vn 0.0449 0.0535 -0.9975
vn -0.0095 0.0031 -0.9999
vn 0.0348 0.0388 -0.9986
vn -0.0067 0.0001 -1.0000
vn 0.0325 0.0322 -0.9989
vn -0.0044 -0.0023 -1.0000
vn -0.0767 -0.0563 -0.9955
vn -0.0632 -0.0479 -0.9968
vn -0.0479 -0.0388 -0.9981
vn -0.0412 -0.0370 -0.9984
usemtl feather_004.001
s 1
f 18//1 10//2 3//3 6//4
f 11//5 18//1 6//4 4//6
f 5//7 1//8 7//9 15//10
f 15//10 7//9 8//11 16//12
f 16//12 8//11 9//13 17//14
f 17//14 9//13 10//2 18//1
f 2//15 5//7 15//10 14//16
f 14//16 15//10 16//12 13//17
f 13//17 16//12 17//14 12//18
f 12//18 17//14 18//1 11//5
