# Blender v2.79 (sub 0) OBJ File: 'lovebird_base_mesh_BI.blend'
# www.blender.org
mtllib lovebird_feather_flight_tertiary_025.mtl
o feather_flight_tertiary_025
v 0.076603 0.057083 0.020884
v 0.075476 0.056377 0.020877
v 0.080615 0.051133 0.020886
v 0.079078 0.050170 0.020877
v 0.075846 0.057041 0.021040
v 0.080273 0.049972 0.021042
v 0.077554 0.056246 0.020885
v 0.078651 0.055067 0.020887
v 0.079654 0.053830 0.020888
v 0.080448 0.052461 0.020888
v 0.077956 0.050901 0.020874
v 0.077071 0.052212 0.020874
v 0.076396 0.053655 0.020874
v 0.075814 0.055156 0.020876
v 0.076685 0.055701 0.021041
v 0.077524 0.054361 0.021041
v 0.078363 0.053021 0.021041
v 0.079203 0.051681 0.021041
vn -0.0031 0.0136 -0.9999
vn -0.1046 -0.0523 -0.9931
vn -0.1292 -0.0519 -0.9902
vn -0.0091 0.0235 -0.9997
vn 0.1005 0.0761 -0.9920
vn 0.1108 0.0983 -0.9890
vn 0.0173 -0.0190 -0.9997
vn -0.1451 -0.1202 -0.9821
vn -0.1209 -0.0971 -0.9879
vn 0.0140 -0.0139 -0.9998
vn -0.0942 -0.0705 -0.9930
vn 0.0093 -0.0061 -0.9999
vn -0.0869 -0.0574 -0.9945
vn 0.0053 0.0002 -1.0000
vn 0.1787 0.0827 -0.9804
vn 0.1477 0.0712 -0.9864
vn 0.1123 0.0589 -0.9919
vn 0.0974 0.0580 -0.9935
usemtl feather_003
s 1
f 18//1 10//2 3//3 6//4
f 11//5 18//1 6//4 4//6
f 5//7 1//8 7//9 15//10
f 15//10 7//9 8//11 16//12
f 16//12 8//11 9//13 17//14
f 17//14 9//13 10//2 18//1
f 2//15 5//7 15//10 14//16
f 14//16 15//10 16//12 13//17
f 13//17 16//12 17//14 12//18
f 12//18 17//14 18//1 11//5
