# Blender v2.79 (sub 0) OBJ File: 'lovebird_base_mesh_BI.blend'
# www.blender.org
mtllib lovebird_feather_flight_tertiary_017.mtl
o feather_flight_tertiary_017
v 0.059257 0.056799 0.020880
v 0.057725 0.056622 0.020885
v 0.060301 0.050264 0.020920
v 0.058210 0.050022 0.020927
v 0.058451 0.057045 0.021041
v 0.059341 0.049407 0.021088
v 0.059803 0.055735 0.020886
v 0.060321 0.054328 0.020894
v 0.060713 0.052906 0.020902
v 0.060820 0.051451 0.020911
v 0.057432 0.051059 0.020922
v 0.057202 0.052500 0.020913
v 0.057257 0.053973 0.020904
v 0.057438 0.055462 0.020893
v 0.058620 0.055597 0.021050
v 0.058788 0.054149 0.021059
v 0.058957 0.052702 0.021068
v 0.059126 0.051254 0.021077
vn -0.0040 0.0079 -0.9999
vn -0.1068 -0.0068 -0.9942
vn -0.1270 0.0060 -0.9919
vn -0.0055 0.0203 -0.9998
vn 0.0995 0.0172 -0.9949
vn 0.1162 0.0344 -0.9926
vn 0.0009 -0.0336 -0.9994
vn -0.1635 -0.0522 -0.9851
vn -0.1353 -0.0413 -0.9899
vn 0.0001 -0.0270 -0.9996
vn -0.1055 -0.0289 -0.9940
vn -0.0011 -0.0172 -0.9998
vn -0.0954 -0.0199 -0.9952
vn -0.0020 -0.0092 -0.9999
vn 0.1653 -0.0140 -0.9861
vn 0.1353 -0.0098 -0.9908
vn 0.1032 -0.0046 -0.9946
vn 0.0913 0.0018 -0.9958
usemtl feather_003
s 1
f 18//1 10//2 3//3 6//4
f 11//5 18//1 6//4 4//6
f 5//7 1//8 7//9 15//10
f 15//10 7//9 8//11 16//12
f 16//12 8//11 9//13 17//14
f 17//14 9//13 10//2 18//1
f 2//15 5//7 15//10 14//16
f 14//16 15//10 16//12 13//17
f 13//17 16//12 17//14 12//18
f 12//18 17//14 18//1 11//5
