# Blender v2.79 (sub 0) OBJ File: 'lovebird_base_mesh_BI.blend'
# www.blender.org
mtllib lovebird_feather_flight_tertiary_019.mtl
o feather_flight_tertiary_019
v 0.063546 0.056853 0.020880
v 0.062014 0.056568 0.020885
v 0.065053 0.050337 0.020921
v 0.062962 0.049947 0.020928
v 0.062717 0.057045 0.021041
v 0.064144 0.049406 0.021089
v 0.064170 0.055818 0.020886
v 0.064791 0.054435 0.020894
v 0.065285 0.053029 0.020903
v 0.065494 0.051570 0.020912
v 0.062106 0.050939 0.020923
v 0.061773 0.052375 0.020914
v 0.061726 0.053865 0.020904
v 0.061805 0.055378 0.020894
v 0.062988 0.055597 0.021050
v 0.063258 0.054149 0.021059
v 0.063529 0.052701 0.021068
v 0.063799 0.051253 0.021078
vn -0.0045 0.0074 -0.9999
vn -0.1051 -0.0141 -0.9944
vn -0.1259 -0.0028 -0.9920
vn -0.0069 0.0196 -0.9998
vn 0.0970 0.0236 -0.9950
vn 0.1124 0.0417 -0.9928
vn 0.0031 -0.0332 -0.9994
vn -0.1580 -0.0628 -0.9854
vn -0.1309 -0.0501 -0.9901
vn 0.0019 -0.0268 -0.9996
vn -0.1022 -0.0358 -0.9941
vn 0.0000 -0.0172 -0.9998
vn -0.0928 -0.0262 -0.9953
vn -0.0014 -0.0094 -0.9999
vn 0.1642 -0.0027 -0.9864
vn 0.1342 -0.0006 -0.9909
vn 0.1022 0.0023 -0.9948
vn 0.0899 0.0079 -0.9959
usemtl feather_003
s 1
f 18//1 10//2 3//3 6//4
f 11//5 18//1 6//4 4//6
f 5//7 1//8 7//9 15//10
f 15//10 7//9 8//11 16//12
f 16//12 8//11 9//13 17//14
f 17//14 9//13 10//2 18//1
f 2//15 5//7 15//10 14//16
f 14//16 15//10 16//12 13//17
f 13//17 16//12 17//14 12//18
f 12//18 17//14 18//1 11//5
