# Blender v2.79 (sub 0) OBJ File: 'lovebird_base_mesh_BI.blend'
# www.blender.org
mtllib lovebird_feather_flight_secondary_012.mtl
o feather_flight_secondary_012
v 0.074052 0.057194 0.020670
v 0.071701 0.055559 0.020691
v 0.083568 0.044466 0.020728
v 0.080360 0.042234 0.020757
v 0.072411 0.057041 0.020838
v 0.082980 0.041891 0.020909
v 0.076230 0.055433 0.020675
v 0.078770 0.052935 0.020684
v 0.081117 0.050302 0.020694
v 0.083025 0.047364 0.020709
v 0.077826 0.043747 0.020755
v 0.075727 0.046552 0.020742
v 0.074067 0.049663 0.020726
v 0.072601 0.052908 0.020707
v 0.074415 0.054169 0.020851
v 0.076418 0.051297 0.020865
v 0.078421 0.048426 0.020879
v 0.080424 0.045554 0.020892
vn -0.0072 -0.0023 -1.0000
vn -0.0531 -0.0354 -0.9980
vn -0.0645 -0.0360 -0.9973
vn -0.0102 0.0019 -0.9999
vn 0.0397 0.0293 -0.9988
vn 0.0442 0.0399 -0.9982
vn 0.0028 -0.0166 -0.9998
vn -0.0710 -0.0681 -0.9951
vn -0.0601 -0.0566 -0.9966
vn 0.0012 -0.0144 -0.9999
vn -0.0479 -0.0435 -0.9979
vn -0.0012 -0.0110 -0.9999
vn -0.0447 -0.0372 -0.9983
vn -0.0031 -0.0082 -0.9999
vn 0.0767 0.0350 -0.9964
vn 0.0621 0.0286 -0.9977
vn 0.0455 0.0217 -0.9987
vn 0.0385 0.0208 -0.9990
usemtl feather_004
s 1
f 18//1 10//2 3//3 6//4
f 11//5 18//1 6//4 4//6
f 5//7 1//8 7//9 15//10
f 15//10 7//9 8//11 16//12
f 16//12 8//11 9//13 17//14
f 17//14 9//13 10//2 18//1
f 2//15 5//7 15//10 14//16
f 14//16 15//10 16//12 13//17
f 13//17 16//12 17//14 12//18
f 12//18 17//14 18//1 11//5
