# Blender v2.79 (sub 0) OBJ File: 'lovebird_base_mesh_BI.blend'
# www.blender.org
mtllib lovebird_feather_flight_primary_011.mtl
o feather_flight_primary_011
v 0.070147 0.056475 0.020476
v 0.067381 0.055005 0.020476
v 0.084213 0.031237 0.020476
v 0.080439 0.029230 0.020476
v 0.068071 0.057044 0.020636
v 0.083843 0.027380 0.020636
v 0.073195 0.052556 0.020476
v 0.076817 0.047269 0.020476
v 0.080210 0.041861 0.020476
v 0.083088 0.036179 0.020476
v 0.076971 0.032926 0.020476
v 0.073869 0.038490 0.020476
v 0.071283 0.044327 0.020476
v 0.068926 0.050286 0.020476
v 0.071060 0.051421 0.020636
v 0.074050 0.045798 0.020636
v 0.077040 0.040175 0.020636
v 0.080030 0.034553 0.020636
vn -0.0016 0.0029 -1.0000
vn -0.0475 -0.0218 -0.9986
vn -0.0564 -0.0230 -0.9981
vn -0.0029 0.0054 -1.0000
vn 0.0446 0.0272 -0.9986
vn 0.0506 0.0339 -0.9981
vn 0.0029 -0.0055 -1.0000
vn -0.0698 -0.0441 -0.9966
vn -0.0586 -0.0363 -0.9976
vn 0.0022 -0.0042 -1.0000
vn -0.0450 -0.0266 -0.9986
vn 0.0012 -0.0022 -1.0000
vn -0.0407 -0.0223 -0.9989
vn 0.0003 -0.0005 -1.0000
vn 0.0756 0.0331 -0.9966
vn 0.0629 0.0282 -0.9976
vn 0.0472 0.0224 -0.9986
vn 0.0412 0.0212 -0.9989
usemtl feather_005
s 1
f 18//1 10//2 3//3 6//4
f 11//5 18//1 6//4 4//6
f 5//7 1//8 7//9 15//10
f 15//10 7//9 8//11 16//12
f 16//12 8//11 9//13 17//14
f 17//14 9//13 10//2 18//1
f 2//15 5//7 15//10 14//16
f 14//16 15//10 16//12 13//17
f 13//17 16//12 17//14 12//18
f 12//18 17//14 18//1 11//5
