# Blender v2.79 (sub 0) OBJ File: 'lovebird_base_mesh_BI.blend'
# www.blender.org
mtllib lovebird_feather_flight_secondary_014.mtl
o feather_flight_secondary_014
v 0.083220 0.057568 0.020698
v 0.081623 0.055416 0.020652
v 0.097846 0.047375 0.020653
v 0.095667 0.044437 0.020590
v 0.081691 0.057037 0.020839
v 0.098362 0.044725 0.020776
v 0.086081 0.056361 0.020702
v 0.089606 0.054519 0.020701
v 0.092999 0.052500 0.020696
v 0.096094 0.050079 0.020682
v 0.092564 0.045319 0.020579
v 0.089339 0.047565 0.020589
v 0.086412 0.050213 0.020608
v 0.083617 0.053038 0.020630
v 0.084851 0.054703 0.020827
v 0.088011 0.052369 0.020815
v 0.091171 0.050036 0.020803
v 0.094331 0.047702 0.020791
vn 0.0035 0.0189 -0.9998
vn -0.0322 -0.0305 -0.9990
vn -0.0425 -0.0356 -0.9984
vn -0.0002 0.0216 -0.9998
vn 0.0402 0.0674 -0.9969
vn 0.0419 0.0786 -0.9960
vn 0.0161 0.0097 -0.9998
vn -0.0415 -0.0683 -0.9968
vn -0.0339 -0.0533 -0.9980
vn 0.0139 0.0109 -0.9998
vn -0.0253 -0.0359 -0.9990
vn 0.0110 0.0132 -0.9998
vn -0.0237 -0.0287 -0.9993
vn 0.0087 0.0150 -0.9998
vn 0.0731 0.0870 -0.9935
vn 0.0613 0.0756 -0.9952
vn 0.0473 0.0624 -0.9969
vn 0.0409 0.0588 -0.9974
usemtl feather_004
s 1
f 18//1 10//2 3//3 6//4
f 11//5 18//1 6//4 4//6
f 5//7 1//8 7//9 15//10
f 15//10 7//9 8//11 16//12
f 16//12 8//11 9//13 17//14
f 17//14 9//13 10//2 18//1
f 2//15 5//7 15//10 14//16
f 14//16 15//10 16//12 13//17
f 13//17 16//12 17//14 12//18
f 12//18 17//14 18//1 11//5
