# Blender v2.79 (sub 0) OBJ File: 'lovebird_base_mesh_BI.blend'
# www.blender.org
mtllib lovebird_feather_flight_secondary_019.001.mtl
o feather_flight_secondary_019.001
v -0.267120 0.056418 0.020429
v -0.269331 0.056418 0.020429
v -0.266716 0.044178 0.020429
v -0.269735 0.044178 0.020429
v -0.268225 0.057044 0.020269
v -0.268225 0.042809 0.020269
v -0.266518 0.054345 0.020429
v -0.266013 0.051647 0.020429
v -0.265690 0.048949 0.020429
v -0.265780 0.046251 0.020429
v -0.270671 0.046251 0.020429
v -0.270761 0.048949 0.020429
v -0.270438 0.051647 0.020429
v -0.269933 0.054345 0.020429
v -0.268225 0.054345 0.020269
v -0.268225 0.051647 0.020269
v -0.268225 0.048949 0.020269
v -0.268225 0.046251 0.020269
vn 0.0000 -0.0078 -0.9999
vn 0.0731 -0.0067 -0.9973
vn 0.0856 -0.0145 -0.9962
vn 0.0000 -0.0146 -0.9999
vn -0.0731 -0.0067 -0.9973
vn -0.0856 -0.0145 -0.9962
vn 0.0000 0.0147 -0.9999
vn 0.1162 0.0146 -0.9931
vn 0.0961 0.0106 -0.9953
vn 0.0000 0.0112 -0.9999
vn 0.0736 0.0056 -0.9973
vn 0.0000 0.0058 -1.0000
vn 0.0656 0.0014 -0.9978
vn 0.0000 0.0015 -1.0000
vn -0.1162 0.0146 -0.9931
vn -0.0961 0.0106 -0.9953
vn -0.0736 0.0056 -0.9973
vn -0.0656 0.0014 -0.9978
usemtl feather_004.001
s 1
f 18//1 10//2 3//3 6//4
f 11//5 18//1 6//4 4//6
f 5//7 1//8 7//9 15//10
f 15//10 7//9 8//11 16//12
f 16//12 8//11 9//13 17//14
f 17//14 9//13 10//2 18//1
f 2//15 5//7 15//10 14//16
f 14//16 15//10 16//12 13//17
f 13//17 16//12 17//14 12//18
f 12//18 17//14 18//1 11//5
