# Blender v2.79 (sub 0) OBJ File: 'lovebird_base_mesh_BI.blend'
# www.blender.org
mtllib lovebird_feather_flight_secondary_031.001.mtl
o feather_flight_secondary_031.001
v -0.211625 0.057982 0.020397
v -0.212777 0.055303 0.020451
v -0.193663 0.050760 0.020292
v -0.195235 0.047103 0.020365
v -0.213106 0.057044 0.020268
v -0.192460 0.048072 0.020157
v -0.208306 0.057405 0.020367
v -0.204129 0.056317 0.020333
v -0.200048 0.055009 0.020304
v -0.196181 0.053200 0.020285
v -0.198729 0.047274 0.020404
v -0.202689 0.048865 0.020427
v -0.206434 0.050956 0.020441
v -0.210084 0.053269 0.020449
v -0.209192 0.055340 0.020247
v -0.205279 0.053640 0.020226
v -0.201366 0.051940 0.020205
v -0.197452 0.050241 0.020184
vn -0.0072 -0.0167 -0.9998
vn 0.0145 0.0348 -0.9993
vn 0.0228 0.0416 -0.9989
vn -0.0034 -0.0186 -0.9998
vn -0.0301 -0.0678 -0.9972
vn -0.0293 -0.0783 -0.9965
vn -0.0203 -0.0108 -0.9997
vn 0.0151 0.0707 -0.9974
vn 0.0114 0.0557 -0.9984
vn -0.0183 -0.0119 -0.9998
vn 0.0073 0.0382 -0.9992
vn -0.0152 -0.0133 -0.9998
vn 0.0073 0.0315 -0.9995
vn -0.0127 -0.0144 -0.9998
vn -0.0556 -0.0922 -0.9942
vn -0.0473 -0.0795 -0.9957
vn -0.0375 -0.0649 -0.9972
vn -0.0326 -0.0603 -0.9976
usemtl feather_004.001
s 1
f 18//1 10//2 3//3 6//4
f 11//5 18//1 6//4 4//6
f 5//7 1//8 7//9 15//10
f 15//10 7//9 8//11 16//12
f 16//12 8//11 9//13 17//14
f 17//14 9//13 10//2 18//1
f 2//15 5//7 15//10 14//16
f 14//16 15//10 16//12 13//17
f 13//17 16//12 17//14 12//18
f 12//18 17//14 18//1 11//5
