# Blender v2.79 (sub 0) OBJ File: 'lovebird_base_mesh_BI.blend'
# www.blender.org
mtllib lovebird_feather_flight_primary_001.001.mtl
o feather_flight_primary_001.001
v -0.275388 0.056091 0.020476
v -0.277409 0.056091 0.020476
v -0.275019 0.037447 0.020476
v -0.277778 0.037447 0.020476
v -0.276399 0.057044 0.020636
v -0.276399 0.035362 0.020636
v -0.274838 0.052934 0.020476
v -0.274376 0.048824 0.020476
v -0.274081 0.044714 0.020476
v -0.274163 0.040604 0.020476
v -0.278634 0.040604 0.020476
v -0.278716 0.044714 0.020476
v -0.278421 0.048824 0.020476
v -0.277959 0.052934 0.020476
v -0.276399 0.052934 0.020636
v -0.276399 0.048824 0.020636
v -0.276399 0.044714 0.020636
v -0.276399 0.040604 0.020636
vn 0.0000 0.0051 -1.0000
vn -0.0807 0.0047 -0.9967
vn -0.0936 0.0095 -0.9955
vn 0.0000 0.0096 -0.9999
vn 0.0807 0.0047 -0.9967
vn 0.0936 0.0095 -0.9955
vn 0.0000 -0.0097 -0.9999
vn -0.1270 -0.0096 -0.9919
vn -0.1063 -0.0071 -0.9943
vn 0.0000 -0.0073 -1.0000
vn -0.0808 -0.0037 -0.9967
vn 0.0000 -0.0038 -1.0000
vn -0.0718 -0.0009 -0.9974
vn 0.0000 -0.0009 -1.0000
vn 0.1270 -0.0096 -0.9919
vn 0.1063 -0.0071 -0.9943
vn 0.0808 -0.0037 -0.9967
vn 0.0718 -0.0009 -0.9974
usemtl feather_005
s 1
f 18//1 10//2 3//3 6//4
f 11//5 18//1 6//4 4//6
f 5//7 1//8 7//9 15//10
f 15//10 7//9 8//11 16//12
f 16//12 8//11 9//13 17//14
f 17//14 9//13 10//2 18//1
f 2//15 5//7 15//10 14//16
f 14//16 15//10 16//12 13//17
f 13//17 16//12 17//14 12//18
f 12//18 17//14 18//1 11//5
