# Blender v2.79 (sub 0) OBJ File: 'lovebird_base_mesh_BI.blend'
# www.blender.org
mtllib lovebird_eye.001.mtl
o eye.001
v -0.289957 0.094077 0.042608
v -0.290626 0.094948 0.042427
v -0.291562 0.095486 0.042156
v -0.292620 0.095612 0.041837
v -0.293641 0.095304 0.041518
v -0.294468 0.094611 0.041248
v -0.294977 0.093638 0.041067
v -0.289828 0.094005 0.042208
v -0.290388 0.094814 0.041689
v -0.291251 0.095312 0.041192
v -0.292284 0.095423 0.040794
v -0.293330 0.095130 0.040554
v -0.294230 0.094478 0.040510
v -0.294848 0.093566 0.040668
v -0.289704 0.093779 0.041870
v -0.290160 0.094395 0.041063
v -0.290952 0.094765 0.040375
v -0.291960 0.094831 0.039909
v -0.293031 0.094583 0.039737
v -0.294002 0.094059 0.039884
v -0.294724 0.093339 0.040329
v -0.295088 0.092533 0.041004
v -0.289605 0.093432 0.041644
v -0.289975 0.093755 0.040645
v -0.290711 0.093928 0.039829
v -0.291699 0.093925 0.039318
v -0.292790 0.093746 0.039191
v -0.293817 0.093419 0.039466
v -0.294624 0.092993 0.040103
v -0.289544 0.093018 0.041564
v -0.289863 0.092990 0.040499
v -0.290565 0.092929 0.039637
v -0.291541 0.092843 0.039110
v -0.292644 0.092747 0.038999
v -0.293705 0.092654 0.039320
v -0.294564 0.092579 0.040024
v -0.289532 0.092600 0.041644
v -0.289841 0.092217 0.040645
v -0.290535 0.091919 0.039829
v -0.291509 0.091751 0.039318
v -0.292615 0.091737 0.039191
v -0.293683 0.091881 0.039466
v -0.294552 0.092161 0.040103
v -0.289655 0.093008 0.042671
v -0.289570 0.092241 0.041870
v -0.289911 0.091555 0.041063
v -0.290627 0.091053 0.040375
v -0.291609 0.090813 0.039909
v -0.292706 0.090871 0.039737
v -0.293753 0.091219 0.039884
v -0.294590 0.091802 0.040329
v -0.289652 0.091997 0.042208
v -0.290064 0.091103 0.041689
v -0.290826 0.090462 0.041192
v -0.291824 0.090174 0.040794
v -0.292906 0.090281 0.040554
v -0.293906 0.090766 0.040510
v -0.294672 0.091557 0.040668
v -0.289767 0.091903 0.042608
v -0.290275 0.090930 0.042427
v -0.291102 0.090237 0.042156
v -0.292123 0.089930 0.041837
v -0.293182 0.090055 0.041518
v -0.294117 0.090594 0.041248
v -0.294787 0.091464 0.041067
v -0.289896 0.091975 0.043007
v -0.290513 0.091063 0.043165
v -0.291414 0.090411 0.043121
v -0.292460 0.090118 0.042881
v -0.293493 0.090229 0.042483
v -0.294355 0.090727 0.041986
v -0.294915 0.091536 0.041467
v -0.290019 0.092202 0.043346
v -0.290742 0.091482 0.043791
v -0.291712 0.090958 0.043938
v -0.292783 0.090710 0.043766
v -0.293792 0.090776 0.043300
v -0.294584 0.091146 0.042611
v -0.295039 0.091763 0.041805
v -0.290119 0.092549 0.043572
v -0.290926 0.092123 0.044209
v -0.291953 0.091795 0.044484
v -0.293044 0.091616 0.044357
v -0.294032 0.091613 0.043846
v -0.294768 0.091786 0.043029
v -0.295139 0.092109 0.042031
v -0.290180 0.092962 0.043651
v -0.291038 0.092887 0.044355
v -0.292099 0.092794 0.044676
v -0.293202 0.092698 0.044565
v -0.294179 0.092613 0.044038
v -0.294880 0.092551 0.043176
v -0.295200 0.092523 0.042111
v -0.290192 0.093381 0.043572
v -0.291061 0.093660 0.044209
v -0.292129 0.093804 0.044484
v -0.293234 0.093791 0.044357
v -0.294208 0.093622 0.043846
v -0.294903 0.093324 0.043029
v -0.295212 0.092941 0.042031
v -0.290154 0.093739 0.043346
v -0.290990 0.094323 0.043791
v -0.292037 0.094670 0.043938
v -0.293135 0.094728 0.043766
v -0.294116 0.094488 0.043300
v -0.294832 0.093987 0.042611
v -0.295174 0.093300 0.041805
v -0.290071 0.093984 0.043007
v -0.290838 0.094775 0.043165
v -0.291838 0.095261 0.043121
v -0.292919 0.095367 0.042881
v -0.293917 0.095079 0.042483
v -0.294680 0.094439 0.041986
v -0.295091 0.093545 0.041467
vn -0.7249 0.6582 -0.2032
vn -0.4375 0.8925 -0.1094
vn -0.3280 0.8313 -0.4488
vn -0.6400 0.6107 -0.4663
vn -0.0871 0.9962 0.0000
vn 0.2758 0.9549 0.1094
vn 0.3853 0.8937 -0.2299
vn 0.0309 0.9301 -0.3659
vn 0.5996 0.7740 0.2032
vn 0.8367 0.4778 0.2676
vn 0.8843 0.4512 0.1200
vn 0.6845 0.7266 -0.0598
vn -0.9069 0.3253 -0.2676
vn -0.8594 0.2986 -0.4151
vn 0.9527 0.0833 0.2924
vn -0.9527 -0.0833 -0.2924
vn -0.5585 0.4614 -0.6893
vn -0.8137 0.2149 -0.5401
vn 0.1443 0.7224 -0.6762
vn -0.2228 0.6387 -0.7365
vn 0.7660 0.5773 -0.2828
vn 0.4905 0.7011 -0.5176
vn 0.9300 0.3674 -0.0050
vn 0.8317 0.3489 -0.4319
vn 0.5752 0.4065 -0.7098
vn 0.9669 0.2394 -0.0886
vn -0.7768 0.0869 -0.6237
vn -0.1380 0.3441 -0.9287
vn -0.4928 0.2330 -0.8383
vn 0.2357 0.4048 -0.8835
vn -0.7544 -0.0660 -0.6530
vn -0.0866 -0.0076 -0.9962
vn -0.4529 -0.0396 -0.8907
vn 0.6267 0.0548 -0.7773
vn 0.2912 0.0255 -0.9563
vn 0.9892 0.0866 -0.1179
vn 0.8716 0.0762 -0.4842
vn 0.9937 -0.0679 -0.0886
vn 0.8797 -0.1992 -0.4319
vn -0.4448 -0.3150 -0.8383
vn -0.7499 -0.2204 -0.6237
vn 0.3024 -0.3577 -0.8835
vn -0.0762 -0.3629 -0.9287
vn 0.6371 -0.3005 -0.7098
vn -0.4699 -0.5513 -0.6893
vn -0.7640 -0.3529 -0.5401
vn 0.2676 -0.6864 -0.6762
vn -0.1085 -0.6677 -0.7365
vn 0.8546 -0.4355 -0.2828
vn 0.6048 -0.6053 -0.5176
vn 0.9797 -0.2004 -0.0050
vn 0.9492 -0.2908 0.1200
vn -0.7944 -0.4433 -0.4151
vn -0.1786 -0.8756 -0.4488
vn -0.5242 -0.7125 -0.4663
vn 0.5347 -0.8132 -0.2299
vn 0.1920 -0.9106 -0.3659
vn 0.8002 -0.5967 -0.0598
vn -0.2758 -0.9549 -0.1094
vn -0.5996 -0.7740 -0.2032
vn 0.4375 -0.8925 0.1094
vn 0.0871 -0.9962 0.0000
vn 0.9069 -0.3253 0.2676
vn 0.7249 -0.6582 0.2032
vn -0.8367 -0.4778 -0.2676
vn -0.6845 -0.7266 0.0598
vn -0.8843 -0.4512 -0.1200
vn -0.0309 -0.9301 0.3659
vn -0.3853 -0.8937 0.2299
vn 0.6400 -0.6107 0.4663
vn 0.3280 -0.8313 0.4488
vn 0.8594 -0.2986 0.4151
vn -0.1443 -0.7224 0.6762
vn -0.4905 -0.7011 0.5176
vn 0.5585 -0.4614 0.6893
vn 0.2228 -0.6387 0.7365
vn 0.8137 -0.2149 0.5401
vn -0.9300 -0.3674 0.0050
vn -0.7660 -0.5772 0.2828
vn -0.9669 -0.2394 0.0886
vn -0.5752 -0.4065 0.7098
vn -0.8317 -0.3489 0.4319
vn 0.1380 -0.3441 0.9287
vn -0.2357 -0.4048 0.8835
vn 0.7768 -0.0869 0.6237
vn 0.4928 -0.2330 0.8383
vn 0.0866 0.0076 0.9962
vn -0.2912 -0.0255 0.9563
vn 0.7544 0.0660 0.6530
vn 0.4529 0.0396 0.8907
vn -0.8716 -0.0763 0.4842
vn -0.9892 -0.0866 0.1179
vn -0.6267 -0.0548 0.7773
vn -0.8797 0.1991 0.4319
vn -0.9937 0.0678 0.0886
vn -0.3024 0.3577 0.8835
vn -0.6371 0.3005 0.7098
vn 0.4448 0.3150 0.8383
vn 0.0762 0.3629 0.9287
vn 0.7499 0.2204 0.6237
vn 0.4699 0.5513 0.6893
vn 0.1085 0.6677 0.7365
vn 0.7640 0.3529 0.5401
vn -0.9797 0.2004 0.0050
vn -0.6048 0.6053 0.5176
vn -0.8546 0.4355 0.2828
vn -0.2676 0.6864 0.6762
vn -0.9492 0.2908 -0.1200
vn -0.5347 0.8132 0.2299
vn -0.8002 0.5967 0.0598
vn 0.1786 0.8756 0.4488
vn -0.1920 0.9106 0.3659
vn 0.7944 0.4433 0.4151
vn 0.5242 0.7125 0.4663
usemtl eyes
s 1
f 6//1 5//2 12//3 13//4
f 4//5 3//6 10//7 11//8
f 2//9 1//10 8//11 9//12
f 7//13 6//1 13//4 14//14
f 5//2 4//5 11//8 12//3
f 3//6 2//9 9//12 10//7
f 1//10 44//15 8//11
f 22//16 7//13 14//14
f 14//14 13//4 20//17 21//18
f 12//3 11//8 18//19 19//20
f 10//7 9//12 16//21 17//22
f 8//11 44//15 15//23
f 22//16 14//14 21//18
f 13//4 12//3 19//20 20//17
f 11//8 10//7 17//22 18//19
f 9//12 8//11 15//23 16//21
f 17//22 16//21 24//24 25//25
f 15//23 44//15 23//26
f 22//16 21//18 29//27
f 20//17 19//20 27//28 28//29
f 18//19 17//22 25//25 26//30
f 16//21 15//23 23//26 24//24
f 21//18 20//17 28//29 29//27
f 19//20 18//19 26//30 27//28
f 22//16 29//27 36//31
f 28//29 27//28 34//32 35//33
f 26//30 25//25 32//34 33//35
f 24//24 23//26 30//36 31//37
f 29//27 28//29 35//33 36//31
f 27//28 26//30 33//35 34//32
f 25//25 24//24 31//37 32//34
f 23//26 44//15 30//36
f 31//37 30//36 37//38 38//39
f 36//31 35//33 42//40 43//41
f 34//32 33//35 40//42 41//43
f 32//34 31//37 38//39 39//44
f 30//36 44//15 37//38
f 22//16 36//31 43//41
f 35//33 34//32 41//43 42//40
f 33//35 32//34 39//44 40//42
f 43//41 42//40 50//45 51//46
f 41//43 40//42 48//47 49//48
f 39//44 38//39 46//49 47//50
f 37//38 44//15 45//51
f 22//16 43//41 51//46
f 42//40 41//43 49//48 50//45
f 40//42 39//44 47//50 48//47
f 38//39 37//38 45//51 46//49
f 45//51 44//15 52//52
f 22//16 51//46 58//53
f 50//45 49//48 56//54 57//55
f 48//47 47//50 54//56 55//57
f 46//49 45//51 52//52 53//58
f 51//46 50//45 57//55 58//53
f 49//48 48//47 55//57 56//54
f 47//50 46//49 53//58 54//56
f 57//55 56//54 63//59 64//60
f 55//57 54//56 61//61 62//62
f 53//58 52//52 59//63 60//64
f 58//53 57//55 64//60 65//65
f 56//54 55//57 62//62 63//59
f 54//56 53//58 60//64 61//61
f 52//52 44//15 59//63
f 22//16 58//53 65//65
f 65//65 64//60 71//66 72//67
f 63//59 62//62 69//68 70//69
f 61//61 60//64 67//70 68//71
f 59//63 44//15 66//72
f 22//16 65//65 72//67
f 64//60 63//59 70//69 71//66
f 62//62 61//61 68//71 69//68
f 60//64 59//63 66//72 67//70
f 70//69 69//68 76//73 77//74
f 68//71 67//70 74//75 75//76
f 66//72 44//15 73//77
f 22//16 72//67 79//78
f 71//66 70//69 77//74 78//79
f 69//68 68//71 75//76 76//73
f 67//70 66//72 73//77 74//75
f 72//67 71//66 78//79 79//78
f 22//16 79//78 86//80
f 78//79 77//74 84//81 85//82
f 76//73 75//76 82//83 83//84
f 74//75 73//77 80//85 81//86
f 79//78 78//79 85//82 86//80
f 77//74 76//73 83//84 84//81
f 75//76 74//75 81//86 82//83
f 73//77 44//15 80//85
f 83//84 82//83 89//87 90//88
f 81//86 80//85 87//89 88//90
f 86//80 85//82 92//91 93//92
f 84//81 83//84 90//88 91//93
f 82//83 81//86 88//90 89//87
f 80//85 44//15 87//89
f 22//16 86//80 93//92
f 85//82 84//81 91//93 92//91
f 93//92 92//91 99//94 100//95
f 91//93 90//88 97//96 98//97
f 89//87 88//90 95//98 96//99
f 87//89 44//15 94//100
f 22//16 93//92 100//95
f 92//91 91//93 98//97 99//94
f 90//88 89//87 96//99 97//96
f 88//90 87//89 94//100 95//98
f 96//99 95//98 102//101 103//102
f 94//100 44//15 101//103
f 22//16 100//95 107//104
f 99//94 98//97 105//105 106//106
f 97//96 96//99 103//102 104//107
f 95//98 94//100 101//103 102//101
f 100//95 99//94 106//106 107//104
f 98//97 97//96 104//107 105//105
f 22//16 107//104 114//108
f 106//106 105//105 112//109 113//110
f 104//107 103//102 110//111 111//112
f 102//101 101//103 108//113 109//114
f 107//104 106//106 113//110 114//108
f 105//105 104//107 111//112 112//109
f 103//102 102//101 109//114 110//111
f 101//103 44//15 108//113
f 109//114 108//113 1//10 2//9
f 114//108 113//110 6//1 7//13
f 112//109 111//112 4//5 5//2
f 110//111 109//114 2//9 3//6
f 108//113 44//15 1//10
f 22//16 114//108 7//13
f 113//110 112//109 5//2 6//1
f 111//112 110//111 3//6 4//5
