# Blender v2.79 (sub 0) OBJ File: 'lovebird_base_mesh_BI.blend'
# www.blender.org
mtllib lovebird_feather_tail_secondary_007.001.mtl
o feather_tail_secondary_007.001
v -0.298993 0.021683 -0.043628
v -0.295821 0.021683 -0.042425
v -0.297987 0.021364 -0.041497
v -0.297785 0.021683 -0.048964
v -0.295818 0.021683 -0.055762
v -0.290153 0.021683 -0.053614
v -0.293188 0.021683 -0.047221
v -0.295486 0.021364 -0.048093
v -0.292985 0.021364 -0.054688
v -0.287948 0.021683 -0.076356
v -0.290449 0.021683 -0.070867
v -0.293202 0.021683 -0.063341
v -0.287086 0.021683 -0.061022
v -0.284157 0.021683 -0.068481
v -0.282390 0.021683 -0.074249
v -0.284462 0.021364 -0.077167
v -0.287303 0.021364 -0.069674
v -0.290144 0.021364 -0.062181
vn -0.0034 -0.9999 0.0090
vn -0.1486 -0.9878 -0.0462
vn -0.1277 -0.9909 -0.0410
vn -0.0025 -1.0000 0.0067
vn -0.1018 -0.9941 -0.0354
vn -0.0011 -1.0000 0.0029
vn 0.1419 -0.9878 0.0639
vn 0.1228 -0.9909 0.0540
vn 0.0997 -0.9941 0.0410
vn -0.0921 -0.9951 -0.0338
vn -0.0004 -1.0000 0.0010
vn -0.0915 -0.9951 -0.0359
vn 0.0004 -1.0000 -0.0010
vn -0.0934 -0.9949 -0.0384
vn 0.0010 -1.0000 -0.0027
vn 0.0914 -0.9951 0.0357
vn 0.0923 -0.9951 0.0338
vn 0.0954 -0.9949 0.0331
usemtl feather_003.001
s 1
f 3//1 1//2 4//3 8//4
f 8//4 4//3 5//5 9//6
f 2//7 3//1 8//4 7//8
f 7//8 8//4 9//6 6//9
f 9//6 5//5 12//10 18//11
f 18//11 12//10 11//12 17//13
f 17//13 11//12 10//14 16//15
f 6//9 9//6 18//11 13//16
f 13//16 18//11 17//13 14//17
f 14//17 17//13 16//15 15//18
