# Blender v2.79 (sub 0) OBJ File: 'lovebird_base_mesh_BI.blend'
# www.blender.org
mtllib lovebird_feather_flight_tertiary_004.001.mtl
o feather_flight_tertiary_004.001
v -0.270468 0.056751 0.020880
v -0.272168 0.056721 0.020880
v -0.270053 0.050743 0.020880
v -0.272373 0.050703 0.020880
v -0.271324 0.057044 0.021040
v -0.271201 0.050051 0.021040
v -0.269988 0.055741 0.020880
v -0.269577 0.054422 0.020880
v -0.269305 0.053101 0.020880
v -0.269351 0.051774 0.020880
v -0.273111 0.051709 0.020880
v -0.273203 0.053033 0.020880
v -0.272978 0.054363 0.020880
v -0.272612 0.055695 0.020880
v -0.271300 0.055718 0.021040
v -0.271277 0.054393 0.021040
v -0.271254 0.053067 0.021040
v -0.271231 0.051741 0.021040
vn -0.0003 0.0159 -0.9998
vn -0.0938 0.0107 -0.9955
vn -0.1116 0.0276 -0.9933
vn -0.0005 0.0297 -0.9995
vn 0.0934 0.0139 -0.9955
vn 0.1106 0.0314 -0.9933
vn 0.0005 -0.0300 -0.9995
vn -0.1499 -0.0323 -0.9882
vn -0.1224 -0.0230 -0.9922
vn 0.0004 -0.0227 -0.9997
vn -0.0949 -0.0129 -0.9954
vn 0.0002 -0.0119 -0.9999
vn -0.0851 -0.0042 -0.9963
vn 0.0000 -0.0030 -1.0000
vn 0.1509 -0.0270 -0.9882
vn 0.1231 -0.0187 -0.9922
vn 0.0952 -0.0096 -0.9954
vn 0.0852 -0.0013 -0.9963
usemtl feather_003.001
s 1
f 18//1 10//2 3//3 6//4
f 11//5 18//1 6//4 4//6
f 5//7 1//8 7//9 15//10
f 15//10 7//9 8//11 16//12
f 16//12 8//11 9//13 17//14
f 17//14 9//13 10//2 18//1
f 2//15 5//7 15//10 14//16
f 14//16 15//10 16//12 13//17
f 13//17 16//12 17//14 12//18
f 12//18 17//14 18//1 11//5
