# Blender v2.79 (sub 0) OBJ File: 'lovebird_base_mesh_BI.blend'
# www.blender.org
mtllib lovebird_feather_flight_primary_010.mtl
o feather_flight_primary_010
v 0.065803 0.056230 0.020476
v 0.062890 0.055112 0.020476
v 0.076646 0.029571 0.020476
v 0.072671 0.028045 0.020476
v 0.063820 0.057044 0.020636
v 0.075812 0.025802 0.020636
v 0.068341 0.051985 0.020476
v 0.071280 0.046319 0.020476
v 0.073978 0.040560 0.020476
v 0.076133 0.034593 0.020476
v 0.069691 0.032120 0.020476
v 0.067300 0.037997 0.020476
v 0.065452 0.044082 0.020476
v 0.063845 0.050259 0.020476
v 0.066093 0.051122 0.020636
v 0.068366 0.045200 0.020636
v 0.070639 0.039278 0.020636
v 0.072912 0.033357 0.020636
vn -0.0012 0.0031 -1.0000
vn -0.0500 -0.0159 -0.9986
vn -0.0590 -0.0160 -0.9981
vn -0.0022 0.0058 -1.0000
vn 0.0478 0.0216 -0.9986
vn 0.0545 0.0276 -0.9981
vn 0.0022 -0.0058 -1.0000
vn -0.0749 -0.0354 -0.9966
vn -0.0628 -0.0291 -0.9976
vn 0.0017 -0.0044 -1.0000
vn -0.0481 -0.0211 -0.9986
vn 0.0009 -0.0023 -1.0000
vn -0.0432 -0.0172 -0.9989
vn 0.0002 -0.0006 -1.0000
vn 0.0794 0.0238 -0.9966
vn 0.0661 0.0204 -0.9976
vn 0.0498 0.0165 -0.9986
vn 0.0437 0.0161 -0.9989
usemtl feather_005
s 1
f 18//1 10//2 3//3 6//4
f 11//5 18//1 6//4 4//6
f 5//7 1//8 7//9 15//10
f 15//10 7//9 8//11 16//12
f 16//12 8//11 9//13 17//14
f 17//14 9//13 10//2 18//1
f 2//15 5//7 15//10 14//16
f 14//16 15//10 16//12 13//17
f 13//17 16//12 17//14 12//18
f 12//18 17//14 18//1 11//5
