# Blender v2.79 (sub 0) OBJ File: 'lovebird_base_mesh_BI.blend'
# www.blender.org
mtllib lovebird_feather_flight_tertiary_013.001.mtl
o feather_flight_tertiary_013.001
v -0.250014 0.056767 0.020881
v -0.251734 0.056656 0.020882
v -0.249278 0.050290 0.020893
v -0.251626 0.050138 0.020895
v -0.250896 0.057043 0.021041
v -0.250405 0.049487 0.021055
v -0.249475 0.055697 0.020882
v -0.248989 0.054291 0.020885
v -0.248645 0.052875 0.020887
v -0.248622 0.051438 0.020890
v -0.252425 0.051191 0.020893
v -0.252588 0.052619 0.020890
v -0.252430 0.054067 0.020887
v -0.252130 0.055525 0.020884
v -0.250803 0.055611 0.021043
v -0.250710 0.054179 0.021046
v -0.250617 0.052746 0.021049
v -0.250524 0.051314 0.021052
vn -0.0015 0.0127 -0.9999
vn -0.0937 0.0036 -0.9956
vn -0.1117 0.0182 -0.9936
vn -0.0024 0.0254 -0.9997
vn 0.0910 0.0156 -0.9957
vn 0.1070 0.0324 -0.9937
vn 0.0012 -0.0296 -0.9995
vn -0.1469 -0.0389 -0.9884
vn -0.1205 -0.0292 -0.9923
vn 0.0008 -0.0229 -0.9997
vn -0.0936 -0.0184 -0.9954
vn 0.0001 -0.0129 -0.9999
vn -0.0843 -0.0099 -0.9964
vn -0.0004 -0.0047 -1.0000
vn 0.1493 -0.0197 -0.9886
vn 0.1219 -0.0134 -0.9924
vn 0.0938 -0.0063 -0.9955
vn 0.0835 0.0009 -0.9965
usemtl feather_003.001
s 1
f 18//1 10//2 3//3 6//4
f 11//5 18//1 6//4 4//6
f 5//7 1//8 7//9 15//10
f 15//10 7//9 8//11 16//12
f 16//12 8//11 9//13 17//14
f 17//14 9//13 10//2 18//1
f 2//15 5//7 15//10 14//16
f 14//16 15//10 16//12 13//17
f 13//17 16//12 17//14 12//18
f 12//18 17//14 18//1 11//5
