# Blender v2.79 (sub 0) OBJ File: 'lovebird_base_mesh_BI.blend'
# www.blender.org
mtllib lovebird_feather_tail_secondary_004.001.mtl
o feather_tail_secondary_004.001
v -0.298013 0.022273 -0.043962
v -0.301326 0.022273 -0.044434
v -0.299902 0.022628 -0.042568
v -0.296500 0.022273 -0.049256
v -0.294943 0.022273 -0.056207
v -0.300859 0.022273 -0.057049
v -0.301302 0.022273 -0.049940
v -0.298901 0.022628 -0.049598
v -0.297901 0.022628 -0.056628
v -0.291872 0.022273 -0.078186
v -0.292342 0.022273 -0.072133
v -0.293571 0.022273 -0.064160
v -0.299958 0.022273 -0.065069
v -0.298914 0.022273 -0.073068
v -0.297677 0.022273 -0.079012
v -0.294492 0.022628 -0.080587
v -0.295628 0.022628 -0.072601
v -0.296764 0.022628 -0.064614
vn -0.0015 0.9999 0.0105
vn 0.1712 0.9846 0.0349
vn 0.1480 0.9886 0.0287
vn -0.0011 0.9999 0.0078
vn 0.1195 0.9926 0.0204
vn -0.0005 1.0000 0.0034
vn -0.1741 0.9846 -0.0142
vn -0.1501 0.9886 -0.0137
vn -0.1205 0.9926 -0.0137
vn 0.1091 0.9939 0.0167
vn -0.0002 1.0000 0.0011
vn 0.1096 0.9939 0.0143
vn 0.0002 1.0000 -0.0012
vn 0.1129 0.9935 0.0129
vn 0.0004 1.0000 -0.0031
vn -0.1094 0.9939 -0.0144
vn -0.1093 0.9939 -0.0168
vn -0.1120 0.9935 -0.0191
usemtl feather_003.001
s 1
f 3//1 1//2 4//3 8//4
f 8//4 4//3 5//5 9//6
f 2//7 3//1 8//4 7//8
f 7//8 8//4 9//6 6//9
f 9//6 5//5 12//10 18//11
f 18//11 12//10 11//12 17//13
f 17//13 11//12 10//14 16//15
f 6//9 9//6 18//11 13//16
f 13//16 18//11 17//13 14//17
f 14//17 17//13 16//15 15//18
