# Blender v2.79 (sub 0) OBJ File: 'lovebird_base_mesh_BI.blend'
# www.blender.org
mtllib lovebird_feather_flight_tertiary_045.mtl
o feather_flight_tertiary_045
v 0.049986 0.056767 0.020249
v 0.048266 0.056656 0.020248
v 0.050722 0.050290 0.020237
v 0.048374 0.050138 0.020235
v 0.049104 0.057043 0.020089
v 0.049595 0.049487 0.020075
v 0.050525 0.055697 0.020247
v 0.051011 0.054291 0.020245
v 0.051355 0.052875 0.020242
v 0.051378 0.051438 0.020240
v 0.047575 0.051191 0.020237
v 0.047412 0.052619 0.020240
v 0.047570 0.054067 0.020242
v 0.047870 0.055525 0.020246
v 0.049197 0.055611 0.020086
v 0.049290 0.054179 0.020084
v 0.049383 0.052746 0.020081
v 0.049476 0.051314 0.020078
vn 0.0015 -0.0127 -0.9999
vn 0.0937 -0.0036 -0.9956
vn 0.1117 -0.0182 -0.9936
vn 0.0024 -0.0254 -0.9997
vn -0.0910 -0.0156 -0.9957
vn -0.1070 -0.0324 -0.9937
vn -0.0012 0.0296 -0.9995
vn 0.1469 0.0389 -0.9884
vn 0.1205 0.0292 -0.9923
vn -0.0008 0.0229 -0.9997
vn 0.0936 0.0184 -0.9954
vn -0.0001 0.0129 -0.9999
vn 0.0843 0.0099 -0.9964
vn 0.0004 0.0047 -1.0000
vn -0.1493 0.0197 -0.9886
vn -0.1219 0.0134 -0.9924
vn -0.0938 0.0063 -0.9955
vn -0.0835 -0.0009 -0.9965
usemtl feather_003
s 1
f 18//1 10//2 3//3 6//4
f 11//5 18//1 6//4 4//6
f 5//7 1//8 7//9 15//10
f 15//10 7//9 8//11 16//12
f 16//12 8//11 9//13 17//14
f 17//14 9//13 10//2 18//1
f 2//15 5//7 15//10 14//16
f 14//16 15//10 16//12 13//17
f 13//17 16//12 17//14 12//18
f 12//18 17//14 18//1 11//5
