# Blender v2.79 (sub 0) OBJ File: 'lovebird_base_mesh_BI.blend'
# www.blender.org
mtllib lovebird_feather_flight_primary_016.001.mtl
o feather_flight_primary_016.001
v -0.204701 0.058158 0.020476
v -0.205333 0.055184 0.020476
v -0.170347 0.051423 0.020476
v -0.171210 0.047365 0.020476
v -0.206767 0.057043 0.020636
v -0.166948 0.048579 0.020636
v -0.198731 0.057734 0.020476
v -0.191039 0.056809 0.020476
v -0.183399 0.055639 0.020476
v -0.175877 0.053914 0.020476
v -0.177275 0.047338 0.020476
v -0.184848 0.048821 0.020476
v -0.192304 0.050860 0.020476
v -0.199707 0.053144 0.020476
v -0.199219 0.055439 0.020636
v -0.191671 0.053835 0.020636
v -0.184124 0.052230 0.020636
v -0.176576 0.050626 0.020636
vn -0.0027 0.0005 -1.0000
vn -0.0137 -0.0522 -0.9985
vn -0.0179 -0.0600 -0.9980
vn -0.0050 0.0010 -1.0000
vn 0.0087 0.0533 -0.9985
vn 0.0080 0.0621 -0.9980
vn 0.0050 -0.0011 -1.0000
vn -0.0126 -0.0840 -0.9964
vn -0.0110 -0.0703 -0.9974
vn 0.0038 -0.0008 -1.0000
vn -0.0092 -0.0531 -0.9985
vn 0.0020 -0.0004 -1.0000
vn -0.0094 -0.0468 -0.9988
vn 0.0005 -0.0001 -1.0000
vn 0.0226 0.0819 -0.9964
vn 0.0185 0.0688 -0.9974
vn 0.0132 0.0522 -0.9985
vn 0.0104 0.0466 -0.9988
usemtl feather_005
s 1
f 18//1 10//2 3//3 6//4
f 11//5 18//1 6//4 4//6
f 5//7 1//8 7//9 15//10
f 15//10 7//9 8//11 16//12
f 16//12 8//11 9//13 17//14
f 17//14 9//13 10//2 18//1
f 2//15 5//7 15//10 14//16
f 14//16 15//10 16//12 13//17
f 13//17 16//12 17//14 12//18
f 12//18 17//14 18//1 11//5
