# Blender v2.79 (sub 0) OBJ File: 'lovebird_base_mesh_BI.blend'
# www.blender.org
mtllib lovebird_feather_flight_tertiary_001.mtl
o feather_flight_tertiary_001
v 0.023454 0.056765 0.020880
v 0.021912 0.056765 0.020880
v 0.023735 0.051312 0.020880
v 0.021631 0.051312 0.020880
v 0.022683 0.057044 0.021040
v 0.022683 0.050702 0.021040
v 0.023873 0.055841 0.020880
v 0.024226 0.054639 0.020880
v 0.024451 0.053437 0.020880
v 0.024388 0.052235 0.020880
v 0.020978 0.052235 0.020880
v 0.020915 0.053437 0.020880
v 0.021141 0.054639 0.020880
v 0.021493 0.055841 0.020880
v 0.022683 0.055841 0.021040
v 0.022683 0.054639 0.021040
v 0.022683 0.053437 0.021040
v 0.022683 0.052235 0.021040
vn 0.0000 0.0175 -0.9998
vn -0.1031 0.0136 -0.9946
vn -0.1223 0.0325 -0.9919
vn 0.0000 0.0327 -0.9995
vn 0.1031 0.0136 -0.9946
vn 0.1223 0.0325 -0.9919
vn 0.0000 -0.0331 -0.9995
vn -0.1654 -0.0326 -0.9857
vn -0.1351 -0.0230 -0.9905
vn 0.0000 -0.0251 -0.9997
vn -0.1047 -0.0124 -0.9944
vn 0.0000 -0.0131 -0.9999
vn -0.0939 -0.0030 -0.9956
vn 0.0000 -0.0033 -1.0000
vn 0.1654 -0.0326 -0.9857
vn 0.1351 -0.0230 -0.9905
vn 0.1047 -0.0124 -0.9944
vn 0.0939 -0.0030 -0.9956
usemtl feather_003
s 1
f 18//1 10//2 3//3 6//4
f 11//5 18//1 6//4 4//6
f 5//7 1//8 7//9 15//10
f 15//10 7//9 8//11 16//12
f 16//12 8//11 9//13 17//14
f 17//14 9//13 10//2 18//1
f 2//15 5//7 15//10 14//16
f 14//16 15//10 16//12 13//17
f 13//17 16//12 17//14 12//18
f 12//18 17//14 18//1 11//5
