# Blender v2.79 (sub 0) OBJ File: 'lovebird_base_mesh_BI.blend'
# www.blender.org
mtllib lovebird_feather_flight_primary_003.001.mtl
o feather_flight_primary_003.001
v -0.267060 0.055945 0.020476
v -0.269390 0.055945 0.020476
v -0.266636 0.034456 0.020476
v -0.269815 0.034456 0.020476
v -0.268225 0.057044 0.020636
v -0.268225 0.032052 0.020636
v -0.266427 0.052306 0.020476
v -0.265895 0.047569 0.020476
v -0.265554 0.042832 0.020476
v -0.265649 0.038095 0.020476
v -0.270802 0.038095 0.020476
v -0.270897 0.042832 0.020476
v -0.270556 0.047569 0.020476
v -0.270024 0.052306 0.020476
v -0.268225 0.052306 0.020636
v -0.268225 0.047569 0.020636
v -0.268225 0.042832 0.020636
v -0.268225 0.038095 0.020636
vn 0.0000 0.0045 -1.0000
vn -0.0701 0.0041 -0.9975
vn -0.0813 0.0083 -0.9966
vn 0.0000 0.0083 -0.9999
vn 0.0701 0.0041 -0.9975
vn 0.0813 0.0083 -0.9966
vn 0.0000 -0.0084 -0.9999
vn -0.1104 -0.0083 -0.9938
vn -0.0923 -0.0061 -0.9957
vn 0.0000 -0.0063 -1.0000
vn -0.0701 -0.0032 -0.9975
vn 0.0000 -0.0033 -1.0000
vn -0.0623 -0.0008 -0.9980
vn 0.0000 -0.0008 -1.0000
vn 0.1104 -0.0083 -0.9938
vn 0.0923 -0.0061 -0.9957
vn 0.0701 -0.0032 -0.9975
vn 0.0623 -0.0008 -0.9980
usemtl feather_005
s 1
f 18//1 10//2 3//3 6//4
f 11//5 18//1 6//4 4//6
f 5//7 1//8 7//9 15//10
f 15//10 7//9 8//11 16//12
f 16//12 8//11 9//13 17//14
f 17//14 9//13 10//2 18//1
f 2//15 5//7 15//10 14//16
f 14//16 15//10 16//12 13//17
f 13//17 16//12 17//14 12//18
f 12//18 17//14 18//1 11//5
