# Blender v2.79 (sub 0) OBJ File: 'lovebird_base_mesh_BI.blend'
# www.blender.org
mtllib lovebird_feather_tail_primary_001.001.mtl
o feather_tail_primary_001.001
v -0.295997 0.021964 -0.041778
v -0.299137 0.021964 -0.043361
v -0.270667 0.021964 -0.090658
v -0.274884 0.021964 -0.092785
v -0.298191 0.022193 -0.041333
v -0.271463 0.022193 -0.094323
v -0.293225 0.021964 -0.045518
v -0.290007 0.021964 -0.050585
v -0.274335 0.021964 -0.080680
v -0.271919 0.021964 -0.086151
v -0.277764 0.021964 -0.089099
v -0.280728 0.021964 -0.083904
v -0.295615 0.021964 -0.053413
v -0.297776 0.021964 -0.047814
v -0.295501 0.022193 -0.046666
v -0.292811 0.022193 -0.051999
v -0.277531 0.022193 -0.082292
v -0.274842 0.022193 -0.087625
v -0.277371 0.021964 -0.074611
v -0.280465 0.021964 -0.068572
v -0.283584 0.021964 -0.062545
v -0.286728 0.021964 -0.056531
v -0.292782 0.021964 -0.059584
v -0.289814 0.021964 -0.065687
v -0.286822 0.021964 -0.071778
v -0.283804 0.021964 -0.077856
v -0.280587 0.022193 -0.076233
v -0.283643 0.022193 -0.070175
v -0.286699 0.022193 -0.064116
v -0.289755 0.022193 -0.058057
vn 0.0018 1.0000 -0.0036
vn 0.0686 0.9972 0.0303
vn 0.0783 0.9964 0.0323
vn 0.0029 1.0000 -0.0057
vn -0.0652 0.9972 -0.0372
vn -0.0725 0.9964 -0.0437
vn -0.0037 0.9999 0.0073
vn 0.0933 0.9940 0.0561
vn 0.0806 0.9956 0.0472
vn -0.0027 1.0000 0.0054
vn 0.0658 0.9972 0.0361
vn -0.0012 1.0000 0.0023
vn 0.0000 1.0000 0.0000
vn 0.0570 0.9980 0.0288
vn 0.0587 0.9979 0.0286
vn 0.0004 1.0000 -0.0008
vn -0.1006 0.9940 -0.0416
vn -0.0859 0.9956 -0.0367
vn -0.0681 0.9972 -0.0315
vn -0.0570 0.9980 -0.0287
vn -0.0579 0.9979 -0.0302
vn 0.0606 0.9977 0.0315
vn -0.0004 1.0000 0.0008
vn 0.0585 0.9978 0.0300
vn -0.0002 1.0000 0.0004
vn 0.0574 0.9979 0.0293
vn -0.0001 1.0000 0.0002
vn -0.0614 0.9977 -0.0300
vn -0.0589 0.9978 -0.0292
vn -0.0577 0.9979 -0.0288
usemtl feather_004.001
s 1
f 18//1 10//2 3//3 6//4
f 11//5 18//1 6//4 4//6
f 5//7 1//8 7//9 15//10
f 15//10 7//9 8//11 16//12
f 27//13 19//14 9//15 17//16
f 17//16 9//15 10//2 18//1
f 2//17 5//7 15//10 14//18
f 14//18 15//10 16//12 13//19
f 26//20 27//13 17//16 12//21
f 12//21 17//16 18//1 11//5
f 16//12 8//11 22//22 30//23
f 30//23 22//22 21//24 29//25
f 29//25 21//24 20//26 28//27
f 28//27 20//26 19//14 27//13
f 13//19 16//12 30//23 23//28
f 23//28 30//23 29//25 24//29
f 24//29 29//25 28//27 25//30
f 25//30 28//27 27//13 26//20
