# Blender v2.79 (sub 0) OBJ File: 'lovebird_base_mesh_BI.blend'
# www.blender.org
mtllib lovebird_feather_flight_primary_009.001.mtl
o feather_flight_primary_009.001
v -0.238904 0.056075 0.020476
v -0.241775 0.055305 0.020476
v -0.231285 0.029734 0.020476
v -0.235203 0.028684 0.020476
v -0.240702 0.057044 0.020636
v -0.232450 0.026246 0.020636
v -0.236922 0.051800 0.020476
v -0.234701 0.046138 0.020476
v -0.232718 0.040413 0.020476
v -0.231270 0.034544 0.020476
v -0.237620 0.032842 0.020476
v -0.239301 0.038649 0.020476
v -0.240446 0.044599 0.020476
v -0.241354 0.050612 0.020476
v -0.239138 0.051206 0.020636
v -0.237574 0.045368 0.020636
v -0.236010 0.039531 0.020636
v -0.234445 0.033693 0.020636
vn -0.0009 0.0034 -1.0000
vn -0.0539 -0.0111 -0.9985
vn -0.0633 -0.0102 -0.9979
vn -0.0017 0.0063 -1.0000
vn 0.0523 0.0173 -0.9985
vn 0.0599 0.0228 -0.9979
vn 0.0017 -0.0063 -1.0000
vn -0.0821 -0.0288 -0.9962
vn -0.0687 -0.0234 -0.9973
vn 0.0013 -0.0048 -1.0000
vn -0.0525 -0.0167 -0.9985
vn 0.0007 -0.0025 -1.0000
vn -0.0470 -0.0132 -0.9988
vn 0.0002 -0.0006 -1.0000
vn 0.0855 0.0161 -0.9962
vn 0.0713 0.0141 -0.9973
vn 0.0538 0.0117 -0.9985
vn 0.0474 0.0120 -0.9988
usemtl feather_005
s 1
f 18//1 10//2 3//3 6//4
f 11//5 18//1 6//4 4//6
f 5//7 1//8 7//9 15//10
f 15//10 7//9 8//11 16//12
f 16//12 8//11 9//13 17//14
f 17//14 9//13 10//2 18//1
f 2//15 5//7 15//10 14//16
f 14//16 15//10 16//12 13//17
f 13//17 16//12 17//14 12//18
f 12//18 17//14 18//1 11//5
