# Blender v2.79 (sub 0) OBJ File: 'monkey_base_mesh_BI.blend'
# www.blender.org
mtllib monkey_eye.mtl
o eye
v 0.027685 0.766182 0.402684
v 0.024298 0.766182 0.405926
v 0.022409 0.766182 0.410218
v 0.022307 0.766182 0.414906
v 0.024006 0.766182 0.419276
v 0.027249 0.766182 0.422663
v 0.031540 0.766182 0.424551
v 0.028029 0.764423 0.402623
v 0.024935 0.762931 0.405814
v 0.023241 0.761934 0.410071
v 0.023208 0.761584 0.414747
v 0.024839 0.761934 0.419129
v 0.027886 0.762931 0.422550
v 0.031885 0.764423 0.424490
v 0.029011 0.762931 0.402450
v 0.026749 0.760174 0.405494
v 0.025612 0.758332 0.409653
v 0.025773 0.757685 0.414294
v 0.027209 0.758332 0.418711
v 0.029700 0.760174 0.422231
v 0.032867 0.762931 0.424317
v 0.036228 0.766182 0.424653
v 0.030480 0.761934 0.402191
v 0.029463 0.758332 0.405015
v 0.029159 0.755925 0.409028
v 0.029613 0.755080 0.413617
v 0.030756 0.755925 0.418086
v 0.032415 0.758332 0.421752
v 0.034336 0.761934 0.424058
v 0.032213 0.761584 0.401885
v 0.032666 0.757685 0.404451
v 0.033343 0.755080 0.408290
v 0.034141 0.754165 0.412819
v 0.034940 0.755080 0.417348
v 0.035617 0.757685 0.421187
v 0.036069 0.761584 0.423753
v 0.033947 0.761934 0.401580
v 0.035868 0.758332 0.403886
v 0.037527 0.755925 0.407552
v 0.038670 0.755080 0.412020
v 0.039124 0.755925 0.416610
v 0.038819 0.758332 0.420623
v 0.037802 0.761934 0.423447
v 0.032055 0.766182 0.400984
v 0.035416 0.762931 0.401321
v 0.038583 0.760174 0.403407
v 0.041074 0.758332 0.406927
v 0.042510 0.757685 0.411343
v 0.042671 0.758332 0.415985
v 0.041534 0.760174 0.420144
v 0.039272 0.762931 0.423188
v 0.036398 0.764423 0.401147
v 0.040397 0.762931 0.403087
v 0.043444 0.761934 0.406509
v 0.045075 0.761584 0.410891
v 0.045041 0.761934 0.415567
v 0.043348 0.762931 0.419824
v 0.040253 0.764423 0.423015
v 0.036742 0.766182 0.401087
v 0.041034 0.766182 0.402975
v 0.044277 0.766182 0.406362
v 0.045976 0.766182 0.410732
v 0.045874 0.766182 0.415420
v 0.043985 0.766182 0.419712
v 0.040598 0.766182 0.422954
v 0.036398 0.767942 0.401147
v 0.040397 0.769434 0.403087
v 0.043444 0.770431 0.406509
v 0.045075 0.770781 0.410891
v 0.045041 0.770431 0.415567
v 0.043348 0.769434 0.419824
v 0.040253 0.767942 0.423015
v 0.035416 0.769434 0.401321
v 0.038583 0.772191 0.403407
v 0.041074 0.774033 0.406927
v 0.042510 0.774680 0.411343
v 0.042671 0.774033 0.415985
v 0.041534 0.772191 0.420144
v 0.039272 0.769434 0.423188
v 0.033947 0.770431 0.401580
v 0.035868 0.774033 0.403886
v 0.037527 0.776440 0.407552
v 0.038670 0.777285 0.412020
v 0.039124 0.776440 0.416610
v 0.038819 0.774033 0.420623
v 0.037802 0.770431 0.423447
v 0.032213 0.770781 0.401885
v 0.032666 0.774680 0.404451
v 0.033343 0.777285 0.408290
v 0.034141 0.778200 0.412819
v 0.034940 0.777285 0.417348
v 0.035617 0.774680 0.421187
v 0.036069 0.770781 0.423753
v 0.030480 0.770431 0.402191
v 0.029463 0.774033 0.405015
v 0.029159 0.776440 0.409028
v 0.029613 0.777285 0.413617
v 0.030756 0.776440 0.418086
v 0.032415 0.774033 0.421752
v 0.034336 0.770431 0.424058
v 0.029011 0.769434 0.402450
v 0.026749 0.772191 0.405494
v 0.025612 0.774033 0.409653
v 0.025773 0.774680 0.414294
v 0.027209 0.774033 0.418711
v 0.029700 0.772191 0.422231
v 0.032867 0.769434 0.424317
v 0.028029 0.767942 0.402623
v 0.024935 0.769434 0.405814
v 0.023241 0.770431 0.410071
v 0.023208 0.770781 0.414747
v 0.024839 0.770431 0.419129
v 0.027886 0.769434 0.422550
v 0.031885 0.767942 0.424490
vn -0.2380 0.0000 0.9712
vn -0.5872 0.0000 0.8094
vn -0.5333 -0.2751 0.7999
vn -0.2078 -0.1542 0.9659
vn -0.8482 0.0000 0.5297
vn -0.9848 0.0000 0.1737
vn -0.9098 -0.3827 0.1604
vn -0.7786 -0.3548 0.5174
vn -0.9782 0.0000 -0.2076
vn -0.8286 0.0000 -0.5597
vn -0.7747 -0.2751 -0.5693
vn -0.9087 -0.3548 -0.2199
vn -0.5559 0.0000 -0.8312
vn -0.1736 0.0000 -0.9848
vn -0.5257 -0.1542 -0.8366
vn 0.1736 0.0000 0.9848
vn -0.1218 -0.2850 0.9507
vn -0.5807 -0.6557 0.4825
vn -0.3799 -0.5083 0.7729
vn -0.7107 -0.6557 -0.2548
vn -0.6963 -0.7071 0.1228
vn -0.4396 -0.2850 -0.8517
vn -0.6213 -0.5083 -0.5963
vn -0.4145 -0.8567 -0.3070
vn -0.3769 -0.9239 0.0664
vn -0.3108 -0.3724 -0.8744
vn -0.3916 -0.6641 -0.6368
vn -0.1502 -0.6641 0.7324
vn 0.0070 -0.3724 0.9280
vn -0.2844 -0.8567 0.4303
vn 0.1207 -0.7188 0.6846
vn 0.1589 -0.4031 0.9012
vn 0.0000 -1.0000 0.0000
vn 0.0650 -0.9273 0.3687
vn -0.1207 -0.7188 -0.6846
vn -0.0650 -0.9273 -0.3687
vn -0.1589 -0.4031 -0.9012
vn 0.1502 -0.6641 -0.7324
vn 0.2844 -0.8567 -0.4303
vn -0.0070 -0.3724 -0.9280
vn 0.3108 -0.3724 0.8744
vn 0.4145 -0.8567 0.3070
vn 0.3916 -0.6641 0.6368
vn 0.3769 -0.9239 -0.0664
vn 0.4396 -0.2850 0.8517
vn 0.7107 -0.6557 0.2548
vn 0.6213 -0.5083 0.5963
vn 0.5807 -0.6557 -0.4825
vn 0.6963 -0.7071 -0.1228
vn 0.1217 -0.2850 -0.9507
vn 0.3799 -0.5083 -0.7729
vn 0.2078 -0.1542 -0.9659
vn 0.5333 -0.2751 -0.7999
vn 0.7747 -0.2751 0.5693
vn 0.5257 -0.1542 0.8366
vn 0.9098 -0.3827 -0.1604
vn 0.9087 -0.3548 0.2199
vn 0.7786 -0.3548 -0.5174
vn 0.8286 0.0000 0.5597
vn 0.5559 0.0000 0.8312
vn 0.9848 0.0000 -0.1736
vn 0.9782 0.0000 0.2076
vn 0.5872 0.0000 -0.8094
vn 0.8482 0.0000 -0.5297
vn 0.2380 0.0000 -0.9713
vn 0.2078 0.1542 -0.9659
vn 0.5257 0.1542 0.8366
vn 0.9087 0.3548 0.2199
vn 0.7747 0.2751 0.5693
vn 0.7786 0.3548 -0.5174
vn 0.9098 0.3827 -0.1604
vn 0.5333 0.2751 -0.7999
vn 0.7107 0.6557 0.2548
vn 0.6213 0.5083 0.5963
vn 0.5807 0.6557 -0.4825
vn 0.6963 0.7071 -0.1228
vn 0.1218 0.2850 -0.9507
vn 0.3799 0.5083 -0.7729
vn 0.4396 0.2850 0.8517
vn 0.3916 0.6641 0.6368
vn 0.3108 0.3724 0.8744
vn 0.3768 0.9239 -0.0664
vn 0.4145 0.8567 0.3070
vn 0.1502 0.6641 -0.7324
vn 0.2844 0.8567 -0.4303
vn -0.0070 0.3724 -0.9280
vn 0.0000 1.0000 0.0000
vn 0.0650 0.9273 0.3687
vn -0.1207 0.7188 -0.6846
vn -0.0650 0.9273 -0.3687
vn -0.1589 0.4031 -0.9012
vn 0.1589 0.4031 0.9012
vn 0.1207 0.7188 0.6846
vn 0.0070 0.3724 0.9280
vn -0.2844 0.8567 0.4303
vn -0.1502 0.6641 0.7324
vn -0.4145 0.8567 -0.3070
vn -0.3769 0.9239 0.0664
vn -0.3108 0.3724 -0.8744
vn -0.3916 0.6641 -0.6368
vn -0.7107 0.6557 -0.2548
vn -0.6963 0.7071 0.1228
vn -0.4396 0.2850 -0.8517
vn -0.6213 0.5083 -0.5963
vn -0.3799 0.5083 0.7729
vn -0.1218 0.2850 0.9507
vn -0.5807 0.6557 0.4825
vn -0.5333 0.2751 0.7999
vn -0.2078 0.1542 0.9659
vn -0.9098 0.3827 0.1604
vn -0.7786 0.3548 0.5174
vn -0.7747 0.2751 -0.5693
vn -0.9087 0.3548 -0.2199
vn -0.5257 0.1542 -0.8366
usemtl eyes
s 1
f 7//1 6//2 13//3 14//4
f 5//5 4//6 11//7 12//8
f 3//9 2//10 9//11 10//12
f 1//13 44//14 8//15
f 22//16 7//1 14//4
f 6//2 5//5 12//8 13//3
f 4//6 3//9 10//12 11//7
f 2//10 1//13 8//15 9//11
f 22//16 14//4 21//17
f 13//3 12//8 19//18 20//19
f 11//7 10//12 17//20 18//21
f 9//11 8//15 15//22 16//23
f 14//4 13//3 20//19 21//17
f 12//8 11//7 18//21 19//18
f 10//12 9//11 16//23 17//20
f 8//15 44//14 15//22
f 18//21 17//20 25//24 26//25
f 16//23 15//22 23//26 24//27
f 21//17 20//19 28//28 29//29
f 19//18 18//21 26//25 27//30
f 17//20 16//23 24//27 25//24
f 15//22 44//14 23//26
f 22//16 21//17 29//29
f 20//19 19//18 27//30 28//28
f 29//29 28//28 35//31 36//32
f 27//30 26//25 33//33 34//34
f 25//24 24//27 31//35 32//36
f 23//26 44//14 30//37
f 22//16 29//29 36//32
f 28//28 27//30 34//34 35//31
f 26//25 25//24 32//36 33//33
f 24//27 23//26 30//37 31//35
f 32//36 31//35 38//38 39//39
f 30//37 44//14 37//40
f 22//16 36//32 43//41
f 35//31 34//34 41//42 42//43
f 33//33 32//36 39//39 40//44
f 31//35 30//37 37//40 38//38
f 36//32 35//31 42//43 43//41
f 34//34 33//33 40//44 41//42
f 22//16 43//41 51//45
f 42//43 41//42 49//46 50//47
f 40//44 39//39 47//48 48//49
f 38//38 37//40 45//50 46//51
f 43//41 42//43 50//47 51//45
f 41//42 40//44 48//49 49//46
f 39//39 38//38 46//51 47//48
f 37//40 44//14 45//50
f 46//51 45//50 52//52 53//53
f 51//45 50//47 57//54 58//55
f 49//46 48//49 55//56 56//57
f 47//48 46//51 53//53 54//58
f 45//50 44//14 52//52
f 22//16 51//45 58//55
f 50//47 49//46 56//57 57//54
f 48//49 47//48 54//58 55//56
f 58//55 57//54 64//59 65//60
f 56//57 55//56 62//61 63//62
f 54//58 53//53 60//63 61//64
f 52//52 44//14 59//65
f 22//16 58//55 65//60
f 57//54 56//57 63//62 64//59
f 55//56 54//58 61//64 62//61
f 53//53 52//52 59//65 60//63
f 59//65 44//14 66//66
f 22//16 65//60 72//67
f 64//59 63//62 70//68 71//69
f 62//61 61//64 68//70 69//71
f 60//63 59//65 66//66 67//72
f 65//60 64//59 71//69 72//67
f 63//62 62//61 69//71 70//68
f 61//64 60//63 67//72 68//70
f 71//69 70//68 77//73 78//74
f 69//71 68//70 75//75 76//76
f 67//72 66//66 73//77 74//78
f 72//67 71//69 78//74 79//79
f 70//68 69//71 76//76 77//73
f 68//70 67//72 74//78 75//75
f 66//66 44//14 73//77
f 22//16 72//67 79//79
f 79//79 78//74 85//80 86//81
f 77//73 76//76 83//82 84//83
f 75//75 74//78 81//84 82//85
f 73//77 44//14 80//86
f 22//16 79//79 86//81
f 78//74 77//73 84//83 85//80
f 76//76 75//75 82//85 83//82
f 74//78 73//77 80//86 81//84
f 84//83 83//82 90//87 91//88
f 82//85 81//84 88//89 89//90
f 80//86 44//14 87//91
f 22//16 86//81 93//92
f 85//80 84//83 91//88 92//93
f 83//82 82//85 89//90 90//87
f 81//84 80//86 87//91 88//89
f 86//81 85//80 92//93 93//92
f 22//16 93//92 100//94
f 92//93 91//88 98//95 99//96
f 90//87 89//90 96//97 97//98
f 88//89 87//91 94//99 95//100
f 93//92 92//93 99//96 100//94
f 91//88 90//87 97//98 98//95
f 89//90 88//89 95//100 96//97
f 87//91 44//14 94//99
f 97//98 96//97 103//101 104//102
f 95//100 94//99 101//103 102//104
f 100//94 99//96 106//105 107//106
f 98//95 97//98 104//102 105//107
f 96//97 95//100 102//104 103//101
f 94//99 44//14 101//103
f 22//16 100//94 107//106
f 99//96 98//95 105//107 106//105
f 107//106 106//105 113//108 114//109
f 105//107 104//102 111//110 112//111
f 103//101 102//104 109//112 110//113
f 101//103 44//14 108//114
f 22//16 107//106 114//109
f 106//105 105//107 112//111 113//108
f 104//102 103//101 110//113 111//110
f 102//104 101//103 108//114 109//112
f 110//113 109//112 2//10 3//9
f 108//114 44//14 1//13
f 22//16 114//109 7//1
f 113//108 112//111 5//5 6//2
f 111//110 110//113 3//9 4//6
f 109//112 108//114 1//13 2//10
f 114//109 113//108 6//2 7//1
f 112//111 111//110 4//6 5//5
