# Blender v2.79 (sub 0) OBJ File: 'opossum_base_mesh_BI.blend'
# www.blender.org
mtllib opossum_eye.mtl
o eye
v 0.020624 0.258133 0.404417
v 0.018423 0.258133 0.410076
v 0.018556 0.258133 0.416147
v 0.021001 0.258133 0.421705
v 0.025387 0.258133 0.425904
v 0.031047 0.258133 0.428104
v 0.037117 0.258133 0.427972
v 0.020995 0.255854 0.404157
v 0.019109 0.253922 0.409596
v 0.019452 0.252631 0.415519
v 0.021972 0.252178 0.421025
v 0.026284 0.252631 0.425276
v 0.031733 0.253922 0.427624
v 0.037489 0.255854 0.427712
v 0.022053 0.253922 0.403416
v 0.021063 0.250352 0.408227
v 0.022005 0.247967 0.413731
v 0.024735 0.247129 0.419090
v 0.028837 0.247967 0.423488
v 0.033687 0.250352 0.426256
v 0.038546 0.253922 0.426971
v 0.042675 0.258133 0.425526
v 0.023635 0.252631 0.402308
v 0.023988 0.247967 0.406180
v 0.025826 0.244850 0.411056
v 0.028871 0.243756 0.416194
v 0.032658 0.244850 0.420813
v 0.036611 0.247967 0.424208
v 0.040129 0.252631 0.425863
v 0.025502 0.252178 0.401001
v 0.027437 0.247129 0.403764
v 0.030333 0.243756 0.407900
v 0.033749 0.242571 0.412778
v 0.037165 0.243756 0.417657
v 0.040061 0.247129 0.421793
v 0.041996 0.252178 0.424556
v 0.027369 0.252631 0.399694
v 0.030887 0.247967 0.401349
v 0.034840 0.244850 0.404744
v 0.038627 0.243756 0.409363
v 0.041672 0.244850 0.414501
v 0.043510 0.247967 0.419377
v 0.043863 0.252631 0.423249
v 0.024823 0.258133 0.400031
v 0.028952 0.253922 0.398586
v 0.033811 0.250352 0.399301
v 0.038661 0.247967 0.402069
v 0.042763 0.247129 0.406467
v 0.045493 0.247967 0.411826
v 0.046435 0.250352 0.417330
v 0.045445 0.253922 0.422141
v 0.030009 0.255854 0.397845
v 0.035765 0.253922 0.397933
v 0.041214 0.252631 0.400281
v 0.045527 0.252178 0.404532
v 0.048046 0.252631 0.410038
v 0.048389 0.253922 0.415961
v 0.046503 0.255854 0.421400
v 0.030381 0.258133 0.397585
v 0.036451 0.258133 0.397453
v 0.042111 0.258133 0.399653
v 0.046497 0.258133 0.403852
v 0.048942 0.258133 0.409410
v 0.049075 0.258133 0.415481
v 0.046874 0.258133 0.421140
v 0.030009 0.260412 0.397845
v 0.035765 0.262344 0.397933
v 0.041214 0.263635 0.400281
v 0.045527 0.264089 0.404532
v 0.048046 0.263635 0.410038
v 0.048389 0.262344 0.415961
v 0.046503 0.260412 0.421400
v 0.028952 0.262344 0.398586
v 0.033811 0.265914 0.399301
v 0.038661 0.268300 0.402069
v 0.042763 0.269138 0.406467
v 0.045493 0.268300 0.411826
v 0.046435 0.265914 0.417330
v 0.045445 0.262344 0.422141
v 0.027369 0.263635 0.399694
v 0.030887 0.268300 0.401349
v 0.034840 0.271417 0.404744
v 0.038627 0.272511 0.409363
v 0.041672 0.271417 0.414501
v 0.043510 0.268300 0.419377
v 0.043863 0.263635 0.423249
v 0.025502 0.264089 0.401001
v 0.027437 0.269138 0.403764
v 0.030333 0.272511 0.407900
v 0.033749 0.273696 0.412778
v 0.037165 0.272511 0.417657
v 0.040061 0.269138 0.421793
v 0.041996 0.264089 0.424556
v 0.023635 0.263635 0.402308
v 0.023988 0.268300 0.406180
v 0.025826 0.271417 0.411056
v 0.028871 0.272511 0.416194
v 0.032658 0.271417 0.420813
v 0.036611 0.268300 0.424208
v 0.040129 0.263635 0.425863
v 0.022053 0.262344 0.403416
v 0.021063 0.265914 0.408227
v 0.022005 0.268300 0.413731
v 0.024735 0.269138 0.419090
v 0.028837 0.268300 0.423488
v 0.033687 0.265914 0.426256
v 0.038546 0.262344 0.426971
v 0.020995 0.260412 0.404157
v 0.019109 0.262344 0.409596
v 0.019452 0.263635 0.415519
v 0.021972 0.264089 0.421025
v 0.026284 0.263635 0.425276
v 0.031733 0.262344 0.427624
v 0.037489 0.260412 0.427712
vn -0.5448 0.0000 0.8385
vn -0.8191 0.0000 0.5736
vn -0.7568 -0.3827 0.5299
vn -0.4870 -0.3548 0.7980
vn -0.9743 0.0000 0.2252
vn -0.9876 0.0000 -0.1571
vn -0.9427 -0.2751 -0.1885
vn -0.9165 -0.3548 0.1847
vn -0.8551 0.0000 -0.5184
vn -0.5736 0.0000 -0.8191
vn -0.8300 -0.1542 -0.5360
vn 0.5736 0.0000 0.8191
vn 0.1947 0.0000 0.9808
vn 0.2198 -0.1542 0.9633
vn -0.1901 0.0000 0.9817
vn -0.1453 -0.2751 0.9503
vn 0.2914 -0.2850 0.9131
vn -0.3224 -0.6557 0.6827
vn -0.0176 -0.5083 0.8610
vn -0.7518 -0.6557 0.0694
vn -0.5792 -0.7071 0.4056
vn -0.7584 -0.2850 -0.5862
vn -0.8151 -0.5083 -0.2779
vn -0.6513 -0.3724 -0.6612
vn -0.6240 -0.6641 -0.4116
vn 0.1734 -0.6641 0.7272
vn 0.3985 -0.3724 0.8381
vn -0.3135 -0.9239 0.2195
vn -0.0759 -0.8567 0.5102
vn -0.5054 -0.8567 -0.1031
vn 0.3987 -0.7188 0.5694
vn 0.5249 -0.4031 0.7496
vn 0.0000 -1.0000 0.0000
vn 0.2147 -0.9273 0.3066
vn -0.3987 -0.7188 -0.5694
vn -0.2147 -0.9273 -0.3066
vn -0.5249 -0.4031 -0.7497
vn -0.3985 -0.3724 -0.8381
vn 0.6513 -0.3724 0.6612
vn 0.5054 -0.8567 0.1031
vn 0.6240 -0.6641 0.4116
vn 0.0759 -0.8567 -0.5102
vn 0.3135 -0.9239 -0.2195
vn -0.1734 -0.6641 -0.7272
vn 0.7518 -0.6557 -0.0694
vn 0.8151 -0.5083 0.2779
vn 0.3224 -0.6557 -0.6827
vn 0.5792 -0.7071 -0.4056
vn -0.2914 -0.2850 -0.9131
vn 0.0176 -0.5083 -0.8610
vn 0.7584 -0.2850 0.5861
vn 0.9427 -0.2751 0.1885
vn 0.8300 -0.1542 0.5360
vn 0.7568 -0.3827 -0.5299
vn 0.9165 -0.3548 -0.1847
vn 0.1453 -0.2751 -0.9503
vn 0.4870 -0.3548 -0.7980
vn -0.2198 -0.1542 -0.9633
vn 0.8191 0.0000 -0.5736
vn 0.9743 0.0000 -0.2252
vn 0.1901 0.0000 -0.9817
vn 0.5448 0.0000 -0.8385
vn -0.1947 0.0000 -0.9808
vn 0.8551 0.0000 0.5184
vn 0.9876 0.0000 0.1571
vn 0.8300 0.1542 0.5360
vn 0.9165 0.3548 -0.1847
vn 0.9427 0.2751 0.1885
vn 0.4870 0.3548 -0.7980
vn 0.7568 0.3827 -0.5299
vn -0.2198 0.1542 -0.9633
vn 0.1453 0.2751 -0.9503
vn 0.3224 0.6557 -0.6827
vn 0.5792 0.7071 -0.4056
vn -0.2914 0.2850 -0.9131
vn 0.0176 0.5083 -0.8610
vn 0.8151 0.5083 0.2779
vn 0.7584 0.2850 0.5861
vn 0.7518 0.6557 -0.0694
vn 0.6240 0.6641 0.4116
vn 0.6513 0.3724 0.6612
vn 0.3135 0.9239 -0.2195
vn 0.5054 0.8567 0.1031
vn -0.1734 0.6641 -0.7272
vn 0.0759 0.8567 -0.5102
vn -0.3985 0.3724 -0.8381
vn -0.3987 0.7188 -0.5694
vn -0.2147 0.9273 -0.3066
vn -0.5249 0.4031 -0.7496
vn 0.5249 0.4031 0.7496
vn 0.2147 0.9273 0.3066
vn 0.3987 0.7188 0.5694
vn 0.0000 1.0000 0.0000
vn 0.3985 0.3724 0.8381
vn -0.0759 0.8567 0.5102
vn 0.1734 0.6641 0.7272
vn -0.5054 0.8567 -0.1031
vn -0.3135 0.9239 0.2195
vn -0.6513 0.3724 -0.6612
vn -0.6240 0.6641 -0.4116
vn -0.7584 0.2850 -0.5862
vn -0.8151 0.5083 -0.2779
vn -0.0176 0.5083 0.8610
vn 0.2914 0.2850 0.9131
vn -0.5792 0.7071 0.4056
vn -0.3224 0.6557 0.6827
vn -0.7518 0.6557 0.0694
vn -0.1453 0.2751 0.9503
vn 0.2198 0.1542 0.9633
vn -0.7568 0.3827 0.5299
vn -0.4870 0.3548 0.7980
vn -0.9427 0.2751 -0.1885
vn -0.9165 0.3548 0.1847
vn -0.8300 0.1542 -0.5360
usemtl eyes
s 1
f 5//1 4//2 11//3 12//4
f 3//5 2//6 9//7 10//8
f 1//9 44//10 8//11
f 22//12 7//13 14//14
f 6//15 5//1 12//4 13//16
f 4//2 3//5 10//8 11//3
f 2//6 1//9 8//11 9//7
f 7//13 6//15 13//16 14//14
f 22//12 14//14 21//17
f 13//16 12//4 19//18 20//19
f 11//3 10//8 17//20 18//21
f 9//7 8//11 15//22 16//23
f 14//14 13//16 20//19 21//17
f 12//4 11//3 18//21 19//18
f 10//8 9//7 16//23 17//20
f 8//11 44//10 15//22
f 16//23 15//22 23//24 24//25
f 21//17 20//19 28//26 29//27
f 19//18 18//21 26//28 27//29
f 17//20 16//23 24//25 25//30
f 15//22 44//10 23//24
f 22//12 21//17 29//27
f 20//19 19//18 27//29 28//26
f 18//21 17//20 25//30 26//28
f 29//27 28//26 35//31 36//32
f 27//29 26//28 33//33 34//34
f 25//30 24//25 31//35 32//36
f 23//24 44//10 30//37
f 22//12 29//27 36//32
f 28//26 27//29 34//34 35//31
f 26//28 25//30 32//36 33//33
f 24//25 23//24 30//37 31//35
f 30//37 44//10 37//38
f 22//12 36//32 43//39
f 35//31 34//34 41//40 42//41
f 33//33 32//36 39//42 40//43
f 31//35 30//37 37//38 38//44
f 36//32 35//31 42//41 43//39
f 34//34 33//33 40//43 41//40
f 32//36 31//35 38//44 39//42
f 42//41 41//40 49//45 50//46
f 40//43 39//42 47//47 48//48
f 38//44 37//38 45//49 46//50
f 43//39 42//41 50//46 51//51
f 41//40 40//43 48//48 49//45
f 39//42 38//44 46//50 47//47
f 37//38 44//10 45//49
f 22//12 43//39 51//51
f 51//51 50//46 57//52 58//53
f 49//45 48//48 55//54 56//55
f 47//47 46//50 53//56 54//57
f 45//49 44//10 52//58
f 22//12 51//51 58//53
f 50//46 49//45 56//55 57//52
f 48//48 47//47 54//57 55//54
f 46//50 45//49 52//58 53//56
f 56//55 55//54 62//59 63//60
f 54//57 53//56 60//61 61//62
f 52//58 44//10 59//63
f 22//12 58//53 65//64
f 57//52 56//55 63//60 64//65
f 55//54 54//57 61//62 62//59
f 53//56 52//58 59//63 60//61
f 58//53 57//52 64//65 65//64
f 22//12 65//64 72//66
f 64//65 63//60 70//67 71//68
f 62//59 61//62 68//69 69//70
f 60//61 59//63 66//71 67//72
f 65//64 64//65 71//68 72//66
f 63//60 62//59 69//70 70//67
f 61//62 60//61 67//72 68//69
f 59//63 44//10 66//71
f 69//70 68//69 75//73 76//74
f 67//72 66//71 73//75 74//76
f 72//66 71//68 78//77 79//78
f 70//67 69//70 76//74 77//79
f 68//69 67//72 74//76 75//73
f 66//71 44//10 73//75
f 22//12 72//66 79//78
f 71//68 70//67 77//79 78//77
f 79//78 78//77 85//80 86//81
f 77//79 76//74 83//82 84//83
f 75//73 74//76 81//84 82//85
f 73//75 44//10 80//86
f 22//12 79//78 86//81
f 78//77 77//79 84//83 85//80
f 76//74 75//73 82//85 83//82
f 74//76 73//75 80//86 81//84
f 82//85 81//84 88//87 89//88
f 80//86 44//10 87//89
f 22//12 86//81 93//90
f 85//80 84//83 91//91 92//92
f 83//82 82//85 89//88 90//93
f 81//84 80//86 87//89 88//87
f 86//81 85//80 92//92 93//90
f 84//83 83//82 90//93 91//91
f 22//12 93//90 100//94
f 92//92 91//91 98//95 99//96
f 90//93 89//88 96//97 97//98
f 88//87 87//89 94//99 95//100
f 93//90 92//92 99//96 100//94
f 91//91 90//93 97//98 98//95
f 89//88 88//87 95//100 96//97
f 87//89 44//10 94//99
f 95//100 94//99 101//101 102//102
f 100//94 99//96 106//103 107//104
f 98//95 97//98 104//105 105//106
f 96//97 95//100 102//102 103//107
f 94//99 44//10 101//101
f 22//12 100//94 107//104
f 99//96 98//95 105//106 106//103
f 97//98 96//97 103//107 104//105
f 107//104 106//103 113//108 114//109
f 105//106 104//105 111//110 112//111
f 103//107 102//102 109//112 110//113
f 101//101 44//10 108//114
f 22//12 107//104 114//109
f 106//103 105//106 112//111 113//108
f 104//105 103//107 110//113 111//110
f 102//102 101//101 108//114 109//112
f 108//114 44//10 1//9
f 22//12 114//109 7//13
f 113//108 112//111 5//1 6//15
f 111//110 110//113 3//5 4//2
f 109//112 108//114 1//9 2//6
f 114//109 113//108 6//15 7//13
f 112//111 111//110 4//2 5//1
f 110//113 109//112 2//6 3//5
