# Blender v2.79 (sub 0) OBJ File: 'ostrich_base_mesh_BI.blend'
# www.blender.org
mtllib ostrich_feather_tail_primary_013.mtl
o feather_tail_primary_013
v 0.045070 1.331027 -0.636879
v 0.015135 1.335258 -0.650182
v 0.133767 1.196198 -0.865293
v 0.093559 1.201881 -0.883161
v 0.029389 1.340548 -0.639568
v 0.119432 1.196041 -0.888164
v 0.058762 1.318900 -0.653117
v 0.072868 1.303637 -0.675908
v 0.128109 1.220459 -0.816427
v 0.134561 1.206278 -0.842619
v 0.078837 1.214154 -0.867381
v 0.067157 1.229074 -0.843512
v 0.019399 1.311195 -0.699668
v 0.015372 1.325033 -0.672398
v 0.038455 1.325998 -0.664599
v 0.047521 1.311448 -0.689629
v 0.099021 1.228799 -0.831811
v 0.108087 1.214249 -0.856841
v 0.118000 1.236962 -0.787906
v 0.107337 1.253543 -0.759631
v 0.096430 1.270159 -0.731464
v 0.085294 1.286807 -0.703399
v 0.027572 1.294966 -0.729049
v 0.037036 1.278554 -0.757857
v 0.046729 1.262110 -0.786563
v 0.056665 1.245631 -0.815161
v 0.088721 1.245329 -0.803374
v 0.078421 1.261859 -0.774938
v 0.068121 1.278389 -0.746502
v 0.057821 1.294918 -0.718065
vn 0.3036 0.8602 -0.4096
vn 0.4429 0.8297 -0.3395
vn 0.4641 0.8187 -0.3382
vn 0.3063 0.8556 -0.4173
vn 0.1558 0.8703 -0.4671
vn 0.1386 0.8647 -0.4828
vn 0.2889 0.8832 -0.3693
vn 0.4888 0.8304 -0.2673
vn 0.4635 0.8368 -0.2913
vn 0.2915 0.8794 -0.3763
vn 0.4367 0.8412 -0.3187
vn 0.2957 0.8731 -0.3876
vn 0.2988 0.8682 -0.3962
vn 0.4198 0.8425 -0.3375
vn 0.4234 0.8400 -0.3392
vn 0.2999 0.8663 -0.3994
vn 0.0738 0.8891 -0.4517
vn 0.1090 0.8869 -0.4489
vn 0.1473 0.8821 -0.4473
vn 0.1722 0.8775 -0.4475
vn 0.1705 0.8758 -0.4516
vn 0.4268 0.8417 -0.3305
vn 0.2978 0.8698 -0.3934
vn 0.4228 0.8422 -0.3345
vn 0.2983 0.8689 -0.3950
vn 0.4206 0.8426 -0.3362
vn 0.2985 0.8686 -0.3955
vn 0.1624 0.8791 -0.4480
vn 0.1679 0.8782 -0.4477
vn 0.1707 0.8780 -0.4472
usemtl feather_003
s 1
f 18//1 10//2 3//3 6//4
f 11//5 18//1 6//4 4//6
f 5//7 1//8 7//9 15//10
f 15//10 7//9 8//11 16//12
f 27//13 19//14 9//15 17//16
f 17//16 9//15 10//2 18//1
f 2//17 5//7 15//10 14//18
f 14//18 15//10 16//12 13//19
f 26//20 27//13 17//16 12//21
f 12//21 17//16 18//1 11//5
f 16//12 8//11 22//22 30//23
f 30//23 22//22 21//24 29//25
f 29//25 21//24 20//26 28//27
f 28//27 20//26 19//14 27//13
f 13//19 16//12 30//23 23//28
f 23//28 30//23 29//25 24//29
f 24//29 29//25 28//27 25//30
f 25//30 28//27 27//13 26//20
