# Blender v2.79 (sub 0) OBJ File: 'ostrich_base_mesh_BI.blend'
# www.blender.org
mtllib ostrich_feather_tail_primary_024.mtl
o feather_tail_primary_024
v 0.040197 1.334977 -0.638689
v 0.018018 1.334834 -0.642597
v 0.067413 1.195438 -0.765782
v 0.037623 1.195247 -0.771031
v 0.028908 1.340574 -0.639715
v 0.054134 1.190182 -0.777391
v 0.047133 1.323377 -0.648459
v 0.053406 1.308259 -0.661663
v 0.070606 1.222262 -0.739917
v 0.071210 1.207107 -0.754121
v 0.029924 1.206841 -0.761396
v 0.025447 1.221971 -0.747875
v 0.013792 1.308004 -0.668644
v 0.014985 1.323171 -0.654124
v 0.031448 1.325431 -0.653577
v 0.033988 1.310289 -0.667439
v 0.048416 1.224274 -0.746182
v 0.050956 1.209132 -0.760044
v 0.067863 1.239466 -0.724144
v 0.064708 1.256667 -0.708443
v 0.061373 1.273867 -0.692773
v 0.057868 1.291066 -0.677134
v 0.015101 1.290791 -0.684670
v 0.017368 1.273584 -0.700527
v 0.019804 1.256378 -0.716355
v 0.022420 1.239174 -0.732151
v 0.045530 1.241477 -0.730433
v 0.042645 1.258680 -0.714685
v 0.039759 1.275883 -0.698936
v 0.036873 1.293086 -0.683188
vn 0.1247 0.6693 -0.7324
vn 0.2790 0.6629 -0.6947
vn 0.3007 0.6527 -0.6953
vn 0.1259 0.6623 -0.7385
vn -0.0330 0.6609 -0.7497
vn -0.0530 0.6504 -0.7577
vn 0.1187 0.7047 -0.6995
vn 0.3410 0.6874 -0.6412
vn 0.3103 0.6856 -0.6586
vn 0.1198 0.6988 -0.7053
vn 0.2772 0.6808 -0.6780
vn 0.1215 0.6889 -0.7146
vn 0.1227 0.6814 -0.7215
vn 0.2561 0.6759 -0.6911
vn 0.2594 0.6729 -0.6927
vn 0.1232 0.6786 -0.7241
vn -0.1099 0.6845 -0.7206
vn -0.0750 0.6831 -0.7265
vn -0.0372 0.6788 -0.7334
vn -0.0129 0.6741 -0.7385
vn -0.0154 0.6711 -0.7411
vn 0.2647 0.6774 -0.6863
vn 0.1223 0.6838 -0.7193
vn 0.2598 0.6766 -0.6890
vn 0.1226 0.6825 -0.7205
vn 0.2572 0.6764 -0.6901
vn 0.1226 0.6820 -0.7209
vn -0.0226 0.6756 -0.7369
vn -0.0171 0.6748 -0.7378
vn -0.0143 0.6746 -0.7380
usemtl feather_003
s 1
f 18//1 10//2 3//3 6//4
f 11//5 18//1 6//4 4//6
f 5//7 1//8 7//9 15//10
f 15//10 7//9 8//11 16//12
f 27//13 19//14 9//15 17//16
f 17//16 9//15 10//2 18//1
f 2//17 5//7 15//10 14//18
f 14//18 15//10 16//12 13//19
f 26//20 27//13 17//16 12//21
f 12//21 17//16 18//1 11//5
f 16//12 8//11 22//22 30//23
f 30//23 22//22 21//24 29//25
f 29//25 21//24 20//26 28//27
f 28//27 20//26 19//14 27//13
f 13//19 16//12 30//23 23//28
f 23//28 30//23 29//25 24//29
f 24//29 29//25 28//27 25//30
f 25//30 28//27 27//13 26//20
