# Blender v2.79 (sub 0) OBJ File: 'ostrich_base_mesh_BI.blend'
# www.blender.org
mtllib ostrich_feather_flight_tertiary_019.mtl
o feather_flight_tertiary_019
v 0.726954 1.252508 0.262009
v 0.716101 1.241054 0.261770
v 0.786748 1.204188 0.262738
v 0.771936 1.188557 0.262413
v 0.718611 1.249369 0.263463
v 0.782596 1.193579 0.264222
v 0.739695 1.247086 0.262190
v 0.754920 1.238591 0.262396
v 0.769249 1.229151 0.262582
v 0.781554 1.217574 0.262723
v 0.757550 1.192243 0.262195
v 0.744365 1.202890 0.262034
v 0.733205 1.215675 0.261918
v 0.722940 1.229404 0.261821
v 0.731356 1.238257 0.263614
v 0.744101 1.227144 0.263765
v 0.756845 1.216032 0.263916
v 0.769590 1.204920 0.264068
vn 0.0063 0.0148 -0.9998
vn -0.0592 -0.0634 -0.9962
vn -0.0798 -0.0656 -0.9946
vn -0.0050 0.0203 -0.9998
vn 0.0742 0.0885 -0.9933
vn 0.0743 0.1109 -0.9910
vn 0.0364 -0.0077 -0.9993
vn -0.0742 -0.1342 -0.9882
vn -0.0598 -0.1076 -0.9924
vn 0.0286 -0.0081 -0.9995
vn -0.0451 -0.0789 -0.9958
vn 0.0228 -0.0016 -0.9997
vn -0.0428 -0.0660 -0.9969
vn 0.0179 0.0033 -0.9998
vn 0.1393 0.1111 -0.9840
vn 0.1168 0.0948 -0.9886
vn 0.0907 0.0768 -0.9929
vn 0.0785 0.0730 -0.9942
usemtl feather_001
s 1
f 18//1 10//2 3//3 6//4
f 11//5 18//1 6//4 4//6
f 5//7 1//8 7//9 15//10
f 15//10 7//9 8//11 16//12
f 16//12 8//11 9//13 17//14
f 17//14 9//13 10//2 18//1
f 2//15 5//7 15//10 14//16
f 14//16 15//10 16//12 13//17
f 13//17 16//12 17//14 12//18
f 12//18 17//14 18//1 11//5
