# Blender v2.79 (sub 0) OBJ File: 'ostrich_base_mesh_BI.blend'
# www.blender.org
mtllib ostrich_feather_flight_secondary_028.mtl
o feather_flight_secondary_028
v 0.648884 1.250991 0.257413
v 0.624188 1.234626 0.257204
v 0.748853 1.123640 0.256837
v 0.709827 1.104335 0.256554
v 0.631649 1.249455 0.255738
v 0.733010 1.111072 0.255085
v 0.671763 1.233370 0.257366
v 0.698452 1.208378 0.257279
v 0.723102 1.182035 0.257174
v 0.743144 1.152639 0.257030
v 0.688528 1.116448 0.256567
v 0.666481 1.144515 0.256694
v 0.649042 1.175636 0.256860
v 0.633640 1.208107 0.257043
v 0.652694 1.220724 0.255602
v 0.673739 1.191992 0.255467
v 0.694783 1.163260 0.255331
v 0.715828 1.134529 0.255196
vn 0.0074 0.0019 -1.0000
vn 0.0502 0.0337 -0.9981
vn 0.0601 0.0320 -0.9977
vn 0.0167 0.0012 -0.9998
vn -0.0360 -0.0280 -0.9989
vn -0.0378 -0.0374 -0.9986
vn -0.0050 0.0149 -0.9998
vn 0.0677 0.0681 -0.9954
vn 0.0569 0.0563 -0.9968
vn -0.0009 0.0146 -0.9999
vn 0.0456 0.0433 -0.9980
vn 0.0012 0.0111 -0.9999
vn 0.0426 0.0372 -0.9984
vn 0.0030 0.0083 -0.9999
vn -0.0731 -0.0350 -0.9967
vn -0.0594 -0.0287 -0.9978
vn -0.0435 -0.0217 -0.9988
vn -0.0367 -0.0208 -0.9991
usemtl feather_002
s 1
f 18//1 10//2 3//3 6//4
f 11//5 18//1 6//4 4//6
f 5//7 1//8 7//9 15//10
f 15//10 7//9 8//11 16//12
f 16//12 8//11 9//13 17//14
f 17//14 9//13 10//2 18//1
f 2//15 5//7 15//10 14//16
f 14//16 15//10 16//12 13//17
f 13//17 16//12 17//14 12//18
f 12//18 17//14 18//1 11//5
