# Blender v2.79 (sub 0) OBJ File: 'ostrich_base_mesh_BI.blend'
# www.blender.org
mtllib ostrich_feather_flight_primary_010.mtl
o feather_flight_primary_010
v 0.754413 1.254384 0.257812
v 0.732850 1.225055 0.257812
v 1.042355 1.070335 0.257812
v 1.001485 1.034242 0.257812
v 0.729116 1.249400 0.259412
v 1.030664 1.048308 0.259412
v 0.808368 1.230286 0.257812
v 0.875904 1.195236 0.257812
v 0.941660 1.157767 0.257812
v 1.003393 1.114825 0.257812
v 0.955706 1.049964 0.257812
v 0.892222 1.090524 0.257812
v 0.832762 1.136558 0.257812
v 0.775081 1.185011 0.257812
v 0.791724 1.207648 0.259412
v 0.854333 1.165897 0.259412
v 0.916941 1.124146 0.259412
v 0.979550 1.082394 0.259412
vn -0.0027 0.0017 -1.0000
vn -0.0269 -0.0346 -0.9990
vn -0.0326 -0.0374 -0.9987
vn -0.0099 -0.0040 -0.9999
vn 0.0218 0.0374 -0.9991
vn 0.0223 0.0433 -0.9988
vn 0.0054 -0.0014 -1.0000
vn -0.0351 -0.0622 -0.9974
vn -0.0296 -0.0514 -0.9982
vn 0.0031 -0.0026 -1.0000
vn -0.0233 -0.0385 -0.9990
vn 0.0016 -0.0013 -1.0000
vn -0.0218 -0.0335 -0.9992
vn 0.0004 -0.0003 -1.0000
vn 0.0436 0.0559 -0.9975
vn 0.0363 0.0473 -0.9982
vn 0.0267 0.0363 -0.9990
vn 0.0226 0.0330 -0.9992
usemtl feather_003
s 1
f 18//1 10//2 3//3 6//4
f 11//5 18//1 6//4 4//6
f 5//7 1//8 7//9 15//10
f 15//10 7//9 8//11 16//12
f 16//12 8//11 9//13 17//14
f 17//14 9//13 10//2 18//1
f 2//15 5//7 15//10 14//16
f 14//16 15//10 16//12 13//17
f 13//17 16//12 17//14 12//18
f 12//18 17//14 18//1 11//5
