# Blender v2.79 (sub 0) OBJ File: 'ostrich_base_mesh_BI.blend'
# www.blender.org
mtllib ostrich_feather_flight_tertiary_049.mtl
o feather_flight_tertiary_049
v 0.493451 1.247024 0.255543
v 0.477360 1.245251 0.255494
v 0.504418 1.181638 0.255142
v 0.482460 1.179218 0.255075
v 0.484990 1.249483 0.253938
v 0.493881 1.176760 0.253484
v 0.499185 1.236380 0.255487
v 0.504634 1.222300 0.255408
v 0.508754 1.208073 0.255324
v 0.509872 1.193516 0.255232
v 0.474286 1.189594 0.255124
v 0.471861 1.204007 0.255213
v 0.472440 1.218751 0.255310
v 0.474346 1.233642 0.255412
v 0.486761 1.234998 0.253847
v 0.488532 1.220513 0.253757
v 0.490303 1.206028 0.253666
v 0.492074 1.191542 0.253576
vn 0.0039 -0.0094 -0.9999
vn 0.1007 0.0055 -0.9949
vn 0.1184 -0.0094 -0.9929
vn 0.0065 -0.0233 -0.9997
vn -0.0933 -0.0180 -0.9955
vn -0.1074 -0.0370 -0.9935
vn -0.0021 0.0334 -0.9994
vn 0.1559 0.0523 -0.9864
vn 0.1287 0.0412 -0.9908
vn 0.0001 0.0271 -0.9996
vn 0.1004 0.0288 -0.9945
vn 0.0011 0.0172 -0.9998
vn 0.0909 0.0198 -0.9956
vn 0.0020 0.0092 -0.9999
vn -0.1577 0.0140 -0.9874
vn -0.1289 0.0098 -0.9916
vn -0.0983 0.0046 -0.9951
vn -0.0870 -0.0018 -0.9962
usemtl feather_001
s 1
f 18//1 10//2 3//3 6//4
f 11//5 18//1 6//4 4//6
f 5//7 1//8 7//9 15//10
f 15//10 7//9 8//11 16//12
f 16//12 8//11 9//13 17//14
f 17//14 9//13 10//2 18//1
f 2//15 5//7 15//10 14//16
f 14//16 15//10 16//12 13//17
f 13//17 16//12 17//14 12//18
f 12//18 17//14 18//1 11//5
