# Blender v2.79 (sub 0) OBJ File: 'ostrich_base_mesh_BI.blend'
# www.blender.org
mtllib ostrich_feather_flight_primary_005.mtl
o feather_flight_primary_005
v 0.512776 1.239776 0.257812
v 0.482611 1.232079 0.257812
v 0.592820 0.976226 0.257812
v 0.546576 0.974042 0.257812
v 0.493884 1.249469 0.259412
v 0.573031 0.968155 0.259412
v 0.533600 1.197003 0.257812
v 0.556926 1.140355 0.257812
v 0.577763 1.083071 0.257812
v 0.592971 1.024351 0.257812
v 0.526259 1.007327 0.257812
v 0.508602 1.065422 0.257812
v 0.496573 1.124954 0.257812
v 0.487034 1.185120 0.257812
v 0.510317 1.191062 0.259412
v 0.526749 1.132654 0.259412
v 0.543182 1.074247 0.259412
v 0.559615 1.015839 0.259412
vn -0.0013 0.0037 -1.0000
vn -0.0502 -0.0101 -0.9987
vn -0.0576 -0.0080 -0.9983
vn -0.0108 0.0047 -0.9999
vn 0.0476 0.0168 -0.9987
vn 0.0525 0.0219 -0.9984
vn 0.0029 -0.0060 -1.0000
vn -0.0782 -0.0288 -0.9965
vn -0.0652 -0.0233 -0.9976
vn 0.0010 -0.0049 -1.0000
vn -0.0499 -0.0167 -0.9986
vn 0.0005 -0.0025 -1.0000
vn -0.0448 -0.0132 -0.9989
vn 0.0001 -0.0006 -1.0000
vn 0.0814 0.0161 -0.9965
vn 0.0680 0.0141 -0.9976
vn 0.0513 0.0118 -0.9986
vn 0.0451 0.0120 -0.9989
usemtl feather_003
s 1
f 18//1 10//2 3//3 6//4
f 11//5 18//1 6//4 4//6
f 5//7 1//8 7//9 15//10
f 15//10 7//9 8//11 16//12
f 16//12 8//11 9//13 17//14
f 17//14 9//13 10//2 18//1
f 2//15 5//7 15//10 14//16
f 14//16 15//10 16//12 13//17
f 13//17 16//12 17//14 12//18
f 12//18 17//14 18//1 11//5
