# Blender v2.79 (sub 0) OBJ File: 'ostrich_base_mesh_BI.blend'
# www.blender.org
mtllib ostrich_feather_flight_secondary_029.mtl
o feather_flight_secondary_029
v 0.695353 1.253383 0.257269
v 0.673336 1.233701 0.257409
v 0.813877 1.140782 0.257221
v 0.778089 1.116191 0.257424
v 0.678500 1.249486 0.255739
v 0.800080 1.126122 0.255714
v 0.720728 1.239058 0.257227
v 0.751003 1.217943 0.257190
v 0.779460 1.195203 0.257165
v 0.803809 1.168791 0.257166
v 0.755118 1.125263 0.257474
v 0.728981 1.150077 0.257485
v 0.706953 1.178564 0.257470
v 0.686742 1.208675 0.257443
v 0.703743 1.223873 0.255734
v 0.728985 1.198260 0.255729
v 0.754228 1.172647 0.255724
v 0.779471 1.147033 0.255719
vn 0.0011 -0.0080 -0.9999
vn 0.0390 0.0298 -0.9988
vn 0.0490 0.0297 -0.9984
vn 0.0105 -0.0071 -0.9999
vn -0.0375 -0.0439 -0.9983
vn -0.0380 -0.0534 -0.9978
vn -0.0130 0.0029 -0.9999
vn 0.0515 0.0665 -0.9964
vn 0.0425 0.0532 -0.9977
vn -0.0087 0.0034 -0.9999
vn 0.0330 0.0386 -0.9987
vn -0.0062 0.0002 -1.0000
vn 0.0310 0.0321 -0.9990
vn -0.0042 -0.0023 -1.0000
vn -0.0731 -0.0563 -0.9957
vn -0.0605 -0.0482 -0.9970
vn -0.0458 -0.0389 -0.9982
vn -0.0393 -0.0370 -0.9985
usemtl feather_002
s 1
f 18//1 10//2 3//3 6//4
f 11//5 18//1 6//4 4//6
f 5//7 1//8 7//9 15//10
f 15//10 7//9 8//11 16//12
f 16//12 8//11 9//13 17//14
f 17//14 9//13 10//2 18//1
f 2//15 5//7 15//10 14//16
f 14//16 15//10 16//12 13//17
f 13//17 16//12 17//14 12//18
f 12//18 17//14 18//1 11//5
