# Blender v2.79 (sub 0) OBJ File: 'ostrich_base_mesh_BI.blend'
# www.blender.org
mtllib ostrich_feather_flight_primary_002.mtl
o feather_flight_primary_002
v 0.367427 1.237710 0.257812
v 0.339689 1.236325 0.257812
v 0.385891 0.994328 0.257812
v 0.348038 1.006640 0.257812
v 0.352873 1.249469 0.259412
v 0.367710 0.994031 0.259412
v 0.377237 1.196830 0.257812
v 0.386531 1.143439 0.257812
v 0.393537 1.089934 0.257812
v 0.395366 1.036170 0.257812
v 0.334023 1.033108 0.257812
v 0.329941 1.086760 0.257812
v 0.331036 1.140669 0.257812
v 0.334419 1.194693 0.257812
v 0.355828 1.195762 0.259412
v 0.358784 1.142054 0.259412
v 0.361739 1.088347 0.259412
v 0.364694 1.034639 0.259412
vn 0.0008 0.0059 -1.0000
vn -0.0576 0.0010 -0.9983
vn -0.0656 0.0051 -0.9978
vn -0.0174 0.0095 -0.9998
vn 0.0577 0.0090 -0.9983
vn 0.0672 0.0170 -0.9976
vn 0.0007 -0.0074 -1.0000
vn -0.0923 -0.0125 -0.9956
vn -0.0771 -0.0096 -0.9969
vn 0.0002 -0.0056 -1.0000
vn -0.0587 -0.0061 -0.9982
vn 0.0001 -0.0029 -1.0000
vn -0.0522 -0.0036 -0.9986
vn 0.0000 -0.0007 -1.0000
vn 0.0931 -0.0023 -0.9956
vn 0.0777 -0.0012 -0.9969
vn 0.0590 0.0004 -0.9982
vn 0.0523 0.0021 -0.9986
usemtl feather_003
s 1
f 18//1 10//2 3//3 6//4
f 11//5 18//1 6//4 4//6
f 5//7 1//8 7//9 15//10
f 15//10 7//9 8//11 16//12
f 16//12 8//11 9//13 17//14
f 17//14 9//13 10//2 18//1
f 2//15 5//7 15//10 14//16
f 14//16 15//10 16//12 13//17
f 13//17 16//12 17//14 12//18
f 12//18 17//14 18//1 11//5
