# Blender v2.79 (sub 0) OBJ File: 'ostrich_base_mesh_BI.blend'
# www.blender.org
mtllib ostrich_feather_tail_primary_022.mtl
o feather_tail_primary_022
v 0.037629 1.337085 -0.632177
v 0.021787 1.333302 -0.644920
v 0.119921 1.192071 -0.685671
v 0.098642 1.186990 -0.702788
v 0.029028 1.340381 -0.639243
v 0.114775 1.183416 -0.699245
v 0.047821 1.325795 -0.633953
v 0.059121 1.310627 -0.637850
v 0.110144 1.221326 -0.670574
v 0.117394 1.205191 -0.677728
v 0.087904 1.198149 -0.701450
v 0.077887 1.213623 -0.696521
v 0.030825 1.303870 -0.660611
v 0.024858 1.320312 -0.652425
v 0.037661 1.324576 -0.645284
v 0.046295 1.308772 -0.651326
v 0.095337 1.218998 -0.685643
v 0.103971 1.203193 -0.691684
v 0.100437 1.239305 -0.663629
v 0.090436 1.257214 -0.656920
v 0.080306 1.275092 -0.650315
v 0.070055 1.292941 -0.643808
v 0.039508 1.285647 -0.668380
v 0.048874 1.267586 -0.675599
v 0.058362 1.249555 -0.682721
v 0.067978 1.231554 -0.689739
v 0.085529 1.236952 -0.678780
v 0.075721 1.254907 -0.671916
v 0.065912 1.272862 -0.665053
v 0.056104 1.290817 -0.658189
vn 0.4618 0.5102 -0.7255
vn 0.5767 0.5339 -0.6183
vn 0.5959 0.5270 -0.6059
vn 0.4660 0.5023 -0.7284
vn 0.3340 0.4760 -0.8136
vn 0.3208 0.4613 -0.8272
vn 0.4395 0.5505 -0.7098
vn 0.6032 0.5778 -0.5498
vn 0.5853 0.5679 -0.5787
vn 0.4434 0.5437 -0.7126
vn 0.5664 0.5545 -0.6097
vn 0.4497 0.5324 -0.7171
vn 0.4544 0.5239 -0.7204
vn 0.5548 0.5439 -0.6295
vn 0.5585 0.5412 -0.6286
vn 0.4562 0.5207 -0.7216
vn 0.2524 0.4940 -0.8320
vn 0.2856 0.4963 -0.8198
vn 0.3218 0.4960 -0.8064
vn 0.3455 0.4940 -0.7978
vn 0.3448 0.4902 -0.8005
vn 0.5598 0.5477 -0.6218
vn 0.4529 0.5267 -0.7194
vn 0.5570 0.5456 -0.6262
vn 0.4537 0.5251 -0.7200
vn 0.5553 0.5448 -0.6283
vn 0.4540 0.5246 -0.7201
vn 0.3363 0.4943 -0.8016
vn 0.3415 0.4941 -0.7995
vn 0.3441 0.4944 -0.7982
usemtl feather_003
s 1
f 18//1 10//2 3//3 6//4
f 11//5 18//1 6//4 4//6
f 5//7 1//8 7//9 15//10
f 15//10 7//9 8//11 16//12
f 27//13 19//14 9//15 17//16
f 17//16 9//15 10//2 18//1
f 2//17 5//7 15//10 14//18
f 14//18 15//10 16//12 13//19
f 26//20 27//13 17//16 12//21
f 12//21 17//16 18//1 11//5
f 16//12 8//11 22//22 30//23
f 30//23 22//22 21//24 29//25
f 29//25 21//24 20//26 28//27
f 28//27 20//26 19//14 27//13
f 13//19 16//12 30//23 23//28
f 23//28 30//23 29//25 24//29
f 24//29 29//25 28//27 25//30
f 25//30 28//27 27//13 26//20
