# Blender v2.79 (sub 0) OBJ File: 'ostrich_base_mesh_BI.blend'
# www.blender.org
mtllib ostrich_feather_flight_tertiary_021.mtl
o feather_flight_tertiary_021
v 0.785292 1.253070 0.261993
v 0.778018 1.241534 0.261788
v 0.855947 1.214960 0.262731
v 0.846019 1.199216 0.262451
v 0.778146 1.249375 0.263462
v 0.854874 1.204869 0.264238
v 0.799010 1.249397 0.262167
v 0.815955 1.243168 0.262368
v 0.832300 1.235988 0.262553
v 0.847288 1.226655 0.262699
v 0.831199 1.201141 0.262246
v 0.815621 1.209537 0.262083
v 0.801400 1.220087 0.261958
v 0.787780 1.231588 0.261851
v 0.793429 1.240510 0.263617
v 0.808712 1.231645 0.263771
v 0.823995 1.222780 0.263926
v 0.839278 1.213915 0.264080
vn 0.0036 0.0153 -0.9998
vn -0.0543 -0.0876 -0.9947
vn -0.0743 -0.0960 -0.9926
vn -0.0081 0.0182 -0.9998
vn 0.0639 0.1148 -0.9913
vn 0.0615 0.1378 -0.9885
vn 0.0362 0.0000 -0.9993
vn -0.0609 -0.1667 -0.9841
vn -0.0498 -0.1353 -0.9895
vn 0.0287 -0.0021 -0.9996
vn -0.0379 -0.0999 -0.9943
vn 0.0221 0.0029 -0.9997
vn -0.0370 -0.0853 -0.9956
vn 0.0166 0.0067 -0.9998
vn 0.1267 0.1574 -0.9794
vn 0.1065 0.1341 -0.9852
vn 0.0820 0.1068 -0.9909
vn 0.0700 0.0990 -0.9926
usemtl feather_001
s 1
f 18//1 10//2 3//3 6//4
f 11//5 18//1 6//4 4//6
f 5//7 1//8 7//9 15//10
f 15//10 7//9 8//11 16//12
f 16//12 8//11 9//13 17//14
f 17//14 9//13 10//2 18//1
f 2//15 5//7 15//10 14//16
f 14//16 15//10 16//12 13//17
f 13//17 16//12 17//14 12//18
f 12//18 17//14 18//1 11//5
