# Blender v2.79 (sub 0) OBJ File: 'ostrich_base_mesh_BI.blend'
# www.blender.org
mtllib ostrich_feather_flight_primary_011.mtl
o feather_flight_primary_011
v 0.806721 1.257188 0.257812
v 0.793033 1.227908 0.257812
v 1.124231 1.128951 0.257812
v 1.093724 1.091040 0.257812
v 0.783776 1.249375 0.259412
v 1.118243 1.107552 0.259412
v 0.863784 1.242528 0.257812
v 0.936355 1.219773 0.257812
v 1.007797 1.194602 0.257812
v 1.076684 1.163968 0.257812
v 1.046413 1.099216 0.257812
v 0.976414 1.127473 0.257812
v 0.908970 1.161194 0.257812
v 0.842655 1.197330 0.257812
v 0.853219 1.219929 0.259412
v 0.922662 1.190484 0.259412
v 0.992105 1.161038 0.259412
v 1.061548 1.131592 0.259412
vn -0.0030 0.0011 -1.0000
vn -0.0222 -0.0442 -0.9987
vn -0.0275 -0.0486 -0.9984
vn -0.0097 -0.0074 -0.9999
vn 0.0165 0.0458 -0.9988
vn 0.0162 0.0522 -0.9985
vn 0.0055 -0.0006 -1.0000
vn -0.0264 -0.0758 -0.9968
vn -0.0225 -0.0630 -0.9977
vn 0.0035 -0.0019 -1.0000
vn -0.0179 -0.0475 -0.9987
vn 0.0018 -0.0010 -1.0000
vn -0.0171 -0.0416 -0.9990
vn 0.0005 -0.0002 -1.0000
vn 0.0360 0.0713 -0.9968
vn 0.0298 0.0602 -0.9977
vn 0.0217 0.0459 -0.9987
vn 0.0181 0.0412 -0.9990
usemtl feather_003
s 1
f 18//1 10//2 3//3 6//4
f 11//5 18//1 6//4 4//6
f 5//7 1//8 7//9 15//10
f 15//10 7//9 8//11 16//12
f 16//12 8//11 9//13 17//14
f 17//14 9//13 10//2 18//1
f 2//15 5//7 15//10 14//16
f 14//16 15//10 16//12 13//17
f 13//17 16//12 17//14 12//18
f 12//18 17//14 18//1 11//5
