# Blender v2.79 (sub 0) OBJ File: 'ostrich_base_mesh_BI.blend'
# www.blender.org
mtllib ostrich_feather_flight_secondary_012.mtl
o feather_flight_secondary_012
v 0.864576 1.260959 0.260139
v 0.857760 1.233230 0.259680
v 1.068545 1.219708 0.261818
v 1.051801 1.181087 0.261099
v 0.850835 1.249492 0.261437
v 1.066079 1.200326 0.263131
v 0.900758 1.260656 0.260534
v 0.947005 1.256784 0.260990
v 0.992690 1.250625 0.261409
v 1.037103 1.239291 0.261742
v 1.022029 1.177967 0.260727
v 0.977062 1.187049 0.260357
v 0.933368 1.201306 0.260072
v 0.890236 1.217851 0.259825
v 0.895525 1.239284 0.261788
v 0.940214 1.229076 0.262140
v 0.984904 1.218868 0.262492
v 1.029594 1.208660 0.262843
vn 0.0058 0.0146 -0.9998
vn -0.0063 -0.0396 -0.9992
vn -0.0134 -0.0455 -0.9989
vn -0.0005 0.0079 -0.9999
vn 0.0191 0.0683 -0.9975
vn 0.0159 0.0759 -0.9970
vn 0.0197 0.0126 -0.9997
vn -0.0008 -0.0770 -0.9970
vn 0.0003 -0.0614 -0.9981
vn 0.0174 0.0119 -0.9998
vn 0.0015 -0.0431 -0.9991
vn 0.0143 0.0128 -0.9998
vn 0.0004 -0.0363 -0.9993
vn 0.0118 0.0135 -0.9998
vn 0.0395 0.0998 -0.9942
vn 0.0339 0.0858 -0.9957
vn 0.0270 0.0690 -0.9972
vn 0.0232 0.0634 -0.9977
usemtl feather_002
s 1
f 18//1 10//2 3//3 6//4
f 11//5 18//1 6//4 4//6
f 5//7 1//8 7//9 15//10
f 15//10 7//9 8//11 16//12
f 16//12 8//11 9//13 17//14
f 17//14 9//13 10//2 18//1
f 2//15 5//7 15//10 14//16
f 14//16 15//10 16//12 13//17
f 13//17 16//12 17//14 12//18
f 12//18 17//14 18//1 11//5
