# Blender v2.79 (sub 0) OBJ File: 'ostrich_base_mesh_BI.blend'
# www.blender.org
mtllib ostrich_feather_flight_primary_004.mtl
o feather_flight_primary_004
v 0.463709 1.238722 0.257812
v 0.434261 1.233777 0.257812
v 0.516967 0.980967 0.257812
v 0.472664 0.982559 0.257812
v 0.446537 1.249469 0.259412
v 0.497383 0.974841 0.259412
v 0.479823 1.196267 0.257812
v 0.497110 1.140378 0.257812
v 0.511966 1.084080 0.257812
v 0.521327 1.026860 0.257812
v 0.456201 1.015924 0.257812
v 0.444449 1.072742 0.257812
v 0.438192 1.130484 0.257812
v 0.434364 1.188633 0.257812
v 0.457094 1.192450 0.259412
v 0.467651 1.135431 0.259412
v 0.478207 1.078411 0.259412
v 0.488764 1.021392 0.259412
vn -0.0010 0.0040 -1.0000
vn -0.0531 -0.0057 -0.9986
vn -0.0606 -0.0028 -0.9981
vn -0.0105 0.0060 -0.9999
vn 0.0510 0.0129 -0.9986
vn 0.0565 0.0177 -0.9982
vn 0.0020 -0.0066 -1.0000
vn -0.0838 -0.0225 -0.9962
vn -0.0699 -0.0180 -0.9974
vn 0.0007 -0.0052 -1.0000
vn -0.0534 -0.0126 -0.9985
vn 0.0004 -0.0027 -1.0000
vn -0.0477 -0.0095 -0.9988
vn 0.0001 -0.0007 -1.0000
vn 0.0861 0.0090 -0.9962
vn 0.0719 0.0081 -0.9974
vn 0.0544 0.0073 -0.9985
vn 0.0480 0.0082 -0.9988
usemtl feather_003
s 1
f 18//1 10//2 3//3 6//4
f 11//5 18//1 6//4 4//6
f 5//7 1//8 7//9 15//10
f 15//10 7//9 8//11 16//12
f 16//12 8//11 9//13 17//14
f 17//14 9//13 10//2 18//1
f 2//15 5//7 15//10 14//16
f 14//16 15//10 16//12 13//17
f 13//17 16//12 17//14 12//18
f 12//18 17//14 18//1 11//5
