# Blender v2.79 (sub 0) OBJ File: 'ostrich_base_mesh_BI.blend'
# www.blender.org
mtllib ostrich_feather_flight_tertiary_022.mtl
o feather_flight_tertiary_022
v 0.804225 1.252628 0.262394
v 0.798627 1.242349 0.262217
v 0.878328 1.217092 0.263090
v 0.870688 1.203065 0.262848
v 0.797724 1.249421 0.263976
v 0.878607 1.208018 0.264710
v 0.818122 1.249088 0.262554
v 0.835512 1.243190 0.262741
v 0.852440 1.236444 0.262913
v 0.868323 1.227780 0.263052
v 0.855942 1.205047 0.262661
v 0.839605 1.212877 0.262507
v 0.824311 1.222624 0.262387
v 0.809480 1.233220 0.262281
v 0.813835 1.241175 0.264122
v 0.829945 1.232928 0.264268
v 0.846056 1.224681 0.264415
v 0.862166 1.216434 0.264561
vn 0.0017 0.0157 -0.9998
vn -0.0633 -0.1144 -0.9914
vn -0.0848 -0.1270 -0.9883
vn -0.0103 0.0188 -0.9998
vn 0.0690 0.1430 -0.9873
vn 0.0668 0.1686 -0.9834
vn 0.0360 0.0013 -0.9993
vn -0.0714 -0.2071 -0.9757
vn -0.0592 -0.1700 -0.9836
vn 0.0287 -0.0005 -0.9996
vn -0.0456 -0.1263 -0.9909
vn 0.0217 0.0043 -0.9998
vn -0.0442 -0.1088 -0.9931
vn 0.0157 0.0079 -0.9998
vn 0.1370 0.2009 -0.9700
vn 0.1154 0.1715 -0.9784
vn 0.0885 0.1357 -0.9868
vn 0.0754 0.1247 -0.9893
usemtl feather_001
s 1
f 18//1 10//2 3//3 6//4
f 11//5 18//1 6//4 4//6
f 5//7 1//8 7//9 15//10
f 15//10 7//9 8//11 16//12
f 16//12 8//11 9//13 17//14
f 17//14 9//13 10//2 18//1
f 2//15 5//7 15//10 14//16
f 14//16 15//10 16//12 13//17
f 13//17 16//12 17//14 12//18
f 12//18 17//14 18//1 11//5
