# Blender v2.79 (sub 0) OBJ File: 'ostrich_base_mesh_BI.blend'
# www.blender.org
mtllib ostrich_feather_flight_secondary_006.mtl
o feather_flight_secondary_006
v 0.557288 1.247182 0.259835
v 0.531130 1.237679 0.259885
v 0.617277 1.111203 0.260454
v 0.577495 1.102094 0.260506
v 0.541386 1.249460 0.261429
v 0.604367 1.100553 0.261852
v 0.573749 1.226447 0.259927
v 0.591900 1.198261 0.260054
v 0.607892 1.169290 0.260185
v 0.619003 1.138547 0.260326
v 0.561153 1.117530 0.260438
v 0.547919 1.147502 0.260301
v 0.539565 1.179247 0.260156
v 0.533370 1.211777 0.260005
v 0.553559 1.219103 0.261568
v 0.565732 1.188745 0.261706
v 0.577905 1.158387 0.261845
v 0.590077 1.128029 0.261983
vn -0.0032 0.0038 -1.0000
vn -0.0553 -0.0194 -0.9983
vn -0.0653 -0.0149 -0.9977
vn -0.0172 0.0064 -0.9998
vn 0.0466 0.0229 -0.9986
vn 0.0462 0.0345 -0.9983
vn 0.0060 -0.0153 -0.9998
vn -0.0821 -0.0505 -0.9953
vn -0.0681 -0.0412 -0.9968
vn 0.0027 -0.0134 -0.9999
vn -0.0529 -0.0308 -0.9981
vn 0.0013 -0.0092 -0.9999
vn -0.0483 -0.0251 -0.9985
vn 0.0002 -0.0058 -1.0000
vn 0.0900 0.0185 -0.9958
vn 0.0741 0.0157 -0.9971
vn 0.0559 0.0128 -0.9984
vn 0.0487 0.0137 -0.9987
usemtl feather_002
s 1
f 18//1 10//2 3//3 6//4
f 11//5 18//1 6//4 4//6
f 5//7 1//8 7//9 15//10
f 15//10 7//9 8//11 16//12
f 16//12 8//11 9//13 17//14
f 17//14 9//13 10//2 18//1
f 2//15 5//7 15//10 14//16
f 14//16 15//10 16//12 13//17
f 13//17 16//12 17//14 12//18
f 12//18 17//14 18//1 11//5
