# Blender v2.79 (sub 0) OBJ File: 'ostrich_base_mesh_BI.blend'
# www.blender.org
mtllib ostrich_feather_tail_primary_019.mtl
o feather_tail_primary_019
v 0.043203 1.333369 -0.639790
v 0.015119 1.334135 -0.644682
v 0.077665 1.190578 -0.831438
v 0.039943 1.191607 -0.838010
v 0.028908 1.340574 -0.639715
v 0.060851 1.186846 -0.847137
v 0.051985 1.321307 -0.654733
v 0.059929 1.305700 -0.674794
v 0.081709 1.217681 -0.792816
v 0.082472 1.202269 -0.814128
v 0.030195 1.203695 -0.823235
v 0.024526 1.219240 -0.802777
v 0.009767 1.307068 -0.683533
v 0.011278 1.322417 -0.661824
v 0.032124 1.325096 -0.660599
v 0.035340 1.309617 -0.681484
v 0.053610 1.221694 -0.800117
v 0.056826 1.206216 -0.821002
v 0.078235 1.235261 -0.769058
v 0.074239 1.252855 -0.745391
v 0.070016 1.270455 -0.721763
v 0.065578 1.288061 -0.698173
v 0.011425 1.289537 -0.707607
v 0.014295 1.271974 -0.731470
v 0.017380 1.254405 -0.755296
v 0.020692 1.236830 -0.779082
v 0.049956 1.239279 -0.776391
v 0.046302 1.256863 -0.752664
v 0.042648 1.274448 -0.728937
v 0.038994 1.292032 -0.705211
vn 0.1247 0.7966 -0.5914
vn 0.2790 0.7831 -0.5557
vn 0.3007 0.7732 -0.5582
vn 0.1259 0.7909 -0.5988
vn -0.0330 0.7917 -0.6100
vn -0.0530 0.7829 -0.6199
vn 0.1187 0.8251 -0.5524
vn 0.3410 0.7970 -0.4984
vn 0.3103 0.7985 -0.5159
vn 0.1198 0.8203 -0.5592
vn 0.2772 0.7975 -0.5358
vn 0.1215 0.8124 -0.5702
vn 0.1227 0.8064 -0.5785
vn 0.2561 0.7952 -0.5496
vn 0.2594 0.7926 -0.5518
vn 0.1232 0.8041 -0.5815
vn -0.1099 0.8093 -0.5770
vn -0.0750 0.8090 -0.5830
vn -0.0372 0.8061 -0.5906
vn -0.0129 0.8025 -0.5965
vn -0.0154 0.8000 -0.5997
vn 0.2647 0.7957 -0.5447
vn 0.1223 0.8083 -0.5758
vn 0.2598 0.7954 -0.5475
vn 0.1226 0.8072 -0.5773
vn 0.2572 0.7955 -0.5486
vn 0.1227 0.8069 -0.5778
vn -0.0226 0.8036 -0.5947
vn -0.0171 0.8030 -0.5957
vn -0.0143 0.8029 -0.5959
usemtl feather_003
s 1
f 18//1 10//2 3//3 6//4
f 11//5 18//1 6//4 4//6
f 5//7 1//8 7//9 15//10
f 15//10 7//9 8//11 16//12
f 27//13 19//14 9//15 17//16
f 17//16 9//15 10//2 18//1
f 2//17 5//7 15//10 14//18
f 14//18 15//10 16//12 13//19
f 26//20 27//13 17//16 12//21
f 12//21 17//16 18//1 11//5
f 16//12 8//11 22//22 30//23
f 30//23 22//22 21//24 29//25
f 29//25 21//24 20//26 28//27
f 28//27 20//26 19//14 27//13
f 13//19 16//12 30//23 23//28
f 23//28 30//23 29//25 24//29
f 24//29 29//25 28//27 25//30
f 25//30 28//27 27//13 26//20
