# Blender v2.79 (sub 0) OBJ File: 'ostrich_base_mesh_BI.blend'
# www.blender.org
mtllib ostrich_feather_flight_primary_001.mtl
o feather_flight_primary_001
v 0.315798 1.237828 0.257812
v 0.288868 1.236932 0.257812
v 0.329381 1.001455 0.257812
v 0.292631 1.014434 0.257812
v 0.301890 1.249469 0.259412
v 0.311489 1.001886 0.259412
v 0.324587 1.198018 0.257812
v 0.332653 1.146080 0.257812
v 0.338497 1.094067 0.257812
v 0.339316 1.041888 0.257812
v 0.279759 1.039907 0.257812
v 0.276754 1.092014 0.257812
v 0.278774 1.144288 0.257812
v 0.283016 1.196635 0.257812
v 0.303802 1.197326 0.259412
v 0.305714 1.145184 0.259412
v 0.307626 1.093041 0.259412
v 0.309537 1.040898 0.259412
vn 0.0009 0.0060 -1.0000
vn -0.0591 0.0023 -0.9982
vn -0.0670 0.0067 -0.9977
vn -0.0176 0.0101 -0.9998
vn 0.0596 0.0081 -0.9982
vn 0.0694 0.0160 -0.9974
vn 0.0005 -0.0076 -1.0000
vn -0.0953 -0.0111 -0.9954
vn -0.0796 -0.0085 -0.9968
vn 0.0002 -0.0058 -1.0000
vn -0.0605 -0.0052 -0.9981
vn 0.0001 -0.0030 -1.0000
vn -0.0539 -0.0027 -0.9985
vn 0.0000 -0.0008 -1.0000
vn 0.0958 -0.0041 -0.9954
vn 0.0801 -0.0027 -0.9968
vn 0.0608 -0.0007 -0.9981
vn 0.0539 0.0012 -0.9985
usemtl feather_003
s 1
f 18//1 10//2 3//3 6//4
f 11//5 18//1 6//4 4//6
f 5//7 1//8 7//9 15//10
f 15//10 7//9 8//11 16//12
f 16//12 8//11 9//13 17//14
f 17//14 9//13 10//2 18//1
f 2//15 5//7 15//10 14//16
f 14//16 15//10 16//12 13//17
f 13//17 16//12 17//14 12//18
f 12//18 17//14 18//1 11//5
