# Blender v2.79 (sub 0) OBJ File: 'ostrich_base_mesh_BI.blend'
# www.blender.org
mtllib ostrich_feather_tail_primary_002.mtl
o feather_tail_primary_002
v 0.045522 1.326159 -0.638524
v 0.016633 1.343299 -0.655665
v 0.195584 1.285872 -0.917487
v 0.156781 1.308895 -0.940510
v 0.029838 1.340351 -0.639383
v 0.186201 1.300109 -0.943159
v 0.064107 1.319194 -0.658167
v 0.084714 1.312257 -0.685868
v 0.177755 1.287098 -0.857468
v 0.190977 1.284543 -0.889551
v 0.137201 1.316450 -0.921457
v 0.118935 1.321998 -0.892368
v 0.033115 1.342872 -0.716484
v 0.022235 1.344039 -0.683012
v 0.045582 1.336299 -0.669969
v 0.061325 1.332247 -0.700556
v 0.150756 1.309231 -0.874297
v 0.166499 1.305179 -0.904884
v 0.160054 1.291592 -0.822610
v 0.141817 1.296403 -0.788069
v 0.123346 1.301354 -0.753669
v 0.104653 1.306436 -0.719399
v 0.048949 1.339487 -0.752450
v 0.066028 1.335362 -0.787677
v 0.083329 1.331106 -0.822773
v 0.100864 1.326711 -0.857729
v 0.132870 1.313834 -0.839549
v 0.114984 1.318438 -0.804801
v 0.097097 1.323041 -0.770052
v 0.079211 1.327644 -0.735304
vn 0.4618 0.8810 0.1027
vn 0.5767 0.7981 0.1746
vn 0.5959 0.7838 0.1745
vn 0.4660 0.8797 0.0944
vn 0.3340 0.9421 0.0306
vn 0.3208 0.9471 0.0113
vn 0.4395 0.8863 0.1456
vn 0.6032 0.7588 0.2458
vn 0.5853 0.7794 0.2234
vn 0.4434 0.8856 0.1383
vn 0.5664 0.8003 0.1968
vn 0.4497 0.8842 0.1263
vn 0.4544 0.8830 0.1171
vn 0.5548 0.8127 0.1781
vn 0.5585 0.8105 0.1762
vn 0.4562 0.8826 0.1137
vn 0.2524 0.9669 0.0377
vn 0.2856 0.9572 0.0456
vn 0.3218 0.9454 0.0517
vn 0.3455 0.9368 0.0540
vn 0.3448 0.9374 0.0493
vn 0.5598 0.8076 0.1851
vn 0.4529 0.8834 0.1201
vn 0.5570 0.8105 0.1812
vn 0.4537 0.8832 0.1184
vn 0.5553 0.8120 0.1794
vn 0.4540 0.8831 0.1179
vn 0.3363 0.9403 0.0524
vn 0.3415 0.9383 0.0533
vn 0.3441 0.9374 0.0541
usemtl feather_003
s 1
f 18//1 10//2 3//3 6//4
f 11//5 18//1 6//4 4//6
f 5//7 1//8 7//9 15//10
f 15//10 7//9 8//11 16//12
f 27//13 19//14 9//15 17//16
f 17//16 9//15 10//2 18//1
f 2//17 5//7 15//10 14//18
f 14//18 15//10 16//12 13//19
f 26//20 27//13 17//16 12//21
f 12//21 17//16 18//1 11//5
f 16//12 8//11 22//22 30//23
f 30//23 22//22 21//24 29//25
f 29//25 21//24 20//26 28//27
f 28//27 20//26 19//14 27//13
f 13//19 16//12 30//23 23//28
f 23//28 30//23 29//25 24//29
f 24//29 29//25 28//27 25//30
f 25//30 28//27 27//13 26//20
