# Blender v2.79 (sub 0) OBJ File: 'ostrich_base_mesh_BI.blend'
# www.blender.org
mtllib ostrich_feather_flight_secondary_022.mtl
o feather_flight_secondary_022
v 0.365784 1.243606 0.257340
v 0.340944 1.241952 0.257340
v 0.379924 1.113001 0.257340
v 0.343598 1.115036 0.257340
v 0.352873 1.249469 0.255739
v 0.363078 1.110479 0.255739
v 0.374164 1.221889 0.257340
v 0.381959 1.193409 0.257340
v 0.387704 1.164793 0.257340
v 0.388815 1.135868 0.257340
v 0.333881 1.132210 0.257340
v 0.330754 1.161000 0.257340
v 0.332262 1.190099 0.257340
v 0.335819 1.219335 0.257340
v 0.354991 1.220612 0.255739
v 0.357110 1.191754 0.255739
v 0.359229 1.162897 0.255739
v 0.361348 1.134039 0.255739
vn 0.0010 -0.0082 -0.9999
vn 0.0637 -0.0028 -0.9980
vn 0.0732 -0.0113 -0.9973
vn 0.0078 -0.0150 -0.9998
vn -0.0619 -0.0110 -0.9980
vn -0.0691 -0.0194 -0.9974
vn -0.0014 0.0137 -0.9999
vn 0.1023 0.0212 -0.9945
vn 0.0845 0.0161 -0.9963
vn -0.0006 0.0104 -0.9999
vn 0.0649 0.0100 -0.9978
vn -0.0003 0.0054 -1.0000
vn 0.0581 0.0056 -0.9983
vn -0.0001 0.0014 -1.0000
vn -0.1041 0.0061 -0.9945
vn -0.0859 0.0036 -0.9963
vn -0.0656 0.0005 -0.9978
vn -0.0583 -0.0029 -0.9983
usemtl feather_002
s 1
f 18//1 10//2 3//3 6//4
f 11//5 18//1 6//4 4//6
f 5//7 1//8 7//9 15//10
f 15//10 7//9 8//11 16//12
f 16//12 8//11 9//13 17//14
f 17//14 9//13 10//2 18//1
f 2//15 5//7 15//10 14//16
f 14//16 15//10 16//12 13//17
f 13//17 16//12 17//14 12//18
f 12//18 17//14 18//1 11//5
