# Blender v2.79 (sub 0) OBJ File: 'ostrich_base_mesh_BI.blend'
# www.blender.org
mtllib ostrich_feather_tail_primary_012.mtl
o feather_tail_primary_012
v 0.043312 1.329966 -0.633058
v 0.018494 1.336319 -0.652889
v 0.172228 1.189514 -0.830302
v 0.138894 1.198048 -0.856940
v 0.029838 1.340469 -0.639293
v 0.164168 1.190295 -0.855509
v 0.059278 1.316923 -0.645324
v 0.076982 1.300733 -0.663755
v 0.156912 1.214049 -0.784938
v 0.168270 1.199483 -0.808440
v 0.122073 1.211310 -0.845356
v 0.106380 1.226985 -0.825318
v 0.032653 1.312081 -0.699177
v 0.023306 1.326132 -0.674069
v 0.043363 1.325349 -0.661063
v 0.056888 1.310228 -0.682833
v 0.133717 1.224338 -0.806495
v 0.147242 1.209217 -0.828265
v 0.141705 1.231186 -0.760079
v 0.126038 1.248441 -0.735587
v 0.110169 1.265748 -0.711257
v 0.094111 1.283104 -0.687078
v 0.046256 1.295355 -0.725319
v 0.060929 1.278354 -0.750605
v 0.075791 1.261305 -0.775739
v 0.090856 1.244204 -0.800713
v 0.118351 1.241516 -0.781763
v 0.102986 1.258694 -0.757031
v 0.087620 1.275872 -0.732298
v 0.072254 1.293050 -0.707566
vn 0.4618 0.8303 -0.3119
vn 0.5767 0.7895 -0.2099
vn 0.5959 0.7768 -0.2036
vn 0.4660 0.8254 -0.3186
vn 0.3340 0.8516 -0.4039
vn 0.3208 0.8472 -0.4234
vn 0.4395 0.8547 -0.2761
vn 0.6032 0.7871 -0.1286
vn 0.5853 0.7953 -0.1581
vn 0.4434 0.8507 -0.2823
vn 0.5664 0.8016 -0.1912
vn 0.4497 0.8440 -0.2924
vn 0.4544 0.8387 -0.3000
vn 0.5548 0.8041 -0.2135
vn 0.5585 0.8013 -0.2143
vn 0.4562 0.8368 -0.3027
vn 0.2524 0.8769 -0.4089
vn 0.2856 0.8720 -0.3975
vn 0.3218 0.8642 -0.3867
vn 0.3455 0.8577 -0.3808
vn 0.3448 0.8560 -0.3851
vn 0.5598 0.8028 -0.2050
vn 0.4529 0.8404 -0.2975
vn 0.5570 0.8036 -0.2098
vn 0.4537 0.8395 -0.2989
vn 0.5553 0.8041 -0.2120
vn 0.4540 0.8392 -0.2993
vn 0.3363 0.8600 -0.3837
vn 0.3415 0.8587 -0.3820
vn 0.3441 0.8582 -0.3808
usemtl feather_003
s 1
f 18//1 10//2 3//3 6//4
f 11//5 18//1 6//4 4//6
f 5//7 1//8 7//9 15//10
f 15//10 7//9 8//11 16//12
f 27//13 19//14 9//15 17//16
f 17//16 9//15 10//2 18//1
f 2//17 5//7 15//10 14//18
f 14//18 15//10 16//12 13//19
f 26//20 27//13 17//16 12//21
f 12//21 17//16 18//1 11//5
f 16//12 8//11 22//22 30//23
f 30//23 22//22 21//24 29//25
f 29//25 21//24 20//26 28//27
f 28//27 20//26 19//14 27//13
f 13//19 16//12 30//23 23//28
f 23//28 30//23 29//25 24//29
f 24//29 29//25 28//27 25//30
f 25//30 28//27 27//13 26//20
