# Blender v2.79 (sub 0) OBJ File: 'ostrich_base_mesh_BI.blend'
# www.blender.org
mtllib ostrich_feather_flight_tertiary_002.mtl
o feather_flight_tertiary_002
v 0.321541 1.247086 0.261857
v 0.304807 1.246028 0.261857
v 0.328564 1.190290 0.261857
v 0.305728 1.188846 0.261857
v 0.312971 1.249469 0.263458
v 0.317367 1.186397 0.263458
v 0.326763 1.237723 0.261857
v 0.331463 1.225402 0.261857
v 0.334781 1.212994 0.261857
v 0.334978 1.200388 0.261857
v 0.297969 1.198048 0.261857
v 0.296414 1.210568 0.261857
v 0.297981 1.223285 0.261857
v 0.300930 1.236090 0.261857
v 0.313846 1.236906 0.263458
v 0.314722 1.224344 0.263458
v 0.315598 1.211781 0.263458
v 0.316473 1.199218 0.263458
vn -0.0011 0.0185 -0.9998
vn -0.0945 0.0076 -0.9955
vn -0.1117 0.0269 -0.9934
vn -0.0027 0.0347 -0.9994
vn 0.0926 0.0205 -0.9955
vn 0.1073 0.0421 -0.9933
vn 0.0027 -0.0315 -0.9995
vn -0.1502 -0.0418 -0.9878
vn -0.1226 -0.0305 -0.9920
vn 0.0014 -0.0239 -0.9997
vn -0.0953 -0.0185 -0.9953
vn 0.0007 -0.0125 -0.9999
vn -0.0860 -0.0089 -0.9962
vn 0.0002 -0.0031 -1.0000
vn 0.1542 -0.0205 -0.9878
vn 0.1255 -0.0133 -0.9920
vn 0.0969 -0.0051 -0.9953
vn 0.0864 0.0031 -0.9962
usemtl feather_001
s 1
f 18//1 10//2 3//3 6//4
f 11//5 18//1 6//4 4//6
f 5//7 1//8 7//9 15//10
f 15//10 7//9 8//11 16//12
f 16//12 8//11 9//13 17//14
f 17//14 9//13 10//2 18//1
f 2//15 5//7 15//10 14//16
f 14//16 15//10 16//12 13//17
f 13//17 16//12 17//14 12//18
f 12//18 17//14 18//1 11//5
