# Blender v2.79 (sub 0) OBJ File: 'ostrich_base_mesh_BI.blend'
# www.blender.org
mtllib ostrich_feather_flight_tertiary_006.mtl
o feather_flight_tertiary_006
v 0.421346 1.247529 0.261856
v 0.402479 1.244471 0.261870
v 0.436919 1.180211 0.261987
v 0.411172 1.176038 0.262005
v 0.411292 1.249465 0.263457
v 0.424719 1.174345 0.263604
v 0.428530 1.236867 0.261875
v 0.435516 1.222603 0.261901
v 0.440945 1.208087 0.261929
v 0.442854 1.193000 0.261958
v 0.401128 1.186237 0.261988
v 0.397688 1.201076 0.261960
v 0.397768 1.216485 0.261928
v 0.399405 1.232146 0.261896
v 0.413967 1.234503 0.263486
v 0.416641 1.219540 0.263516
v 0.419316 1.204577 0.263545
v 0.421990 1.189615 0.263574
vn -0.0027 0.0132 -0.9999
vn -0.0836 -0.0047 -0.9965
vn -0.0999 0.0093 -0.9949
vn -0.0061 0.0262 -0.9996
vn 0.0788 0.0241 -0.9966
vn 0.0900 0.0433 -0.9950
vn 0.0053 -0.0276 -0.9996
vn -0.1283 -0.0512 -0.9904
vn -0.1051 -0.0392 -0.9937
vn 0.0026 -0.0217 -0.9998
vn -0.0821 -0.0266 -0.9962
vn 0.0012 -0.0123 -0.9999
vn -0.0747 -0.0177 -0.9970
vn 0.0000 -0.0046 -1.0000
vn 0.1359 -0.0040 -0.9907
vn 0.1106 -0.0008 -0.9938
vn 0.0847 0.0031 -0.9964
vn 0.0748 0.0089 -0.9971
usemtl feather_001
s 1
f 18//1 10//2 3//3 6//4
f 11//5 18//1 6//4 4//6
f 5//7 1//8 7//9 15//10
f 15//10 7//9 8//11 16//12
f 16//12 8//11 9//13 17//14
f 17//14 9//13 10//2 18//1
f 2//15 5//7 15//10 14//16
f 14//16 15//10 16//12 13//17
f 13//17 16//12 17//14 12//18
f 12//18 17//14 18//1 11//5
