# Blender v2.79 (sub 0) OBJ File: 'parrot_base_mesh_BI.blend'
# www.blender.org
mtllib parrot_feather_flight_secondary_029.mtl
o feather_flight_secondary_029
v 0.155947 0.119186 0.040145
v 0.151507 0.115018 0.040175
v 0.179849 0.095343 0.040135
v 0.173790 0.089655 0.040176
v 0.152548 0.118361 0.039821
v 0.179405 0.089748 0.039816
v 0.161064 0.116152 0.040137
v 0.167170 0.111681 0.040129
v 0.172908 0.106866 0.040123
v 0.177819 0.101273 0.040124
v 0.168000 0.092056 0.040189
v 0.162729 0.097311 0.040191
v 0.158286 0.103343 0.040188
v 0.154210 0.109719 0.040182
v 0.157639 0.112937 0.039820
v 0.162729 0.107513 0.039819
v 0.167820 0.102090 0.039818
v 0.172911 0.096666 0.039817
vn 0.0005 -0.0076 -1.0000
vn 0.0410 0.0316 -0.9987
vn 0.0522 0.0338 -0.9980
vn 0.0040 -0.0114 -0.9999
vn -0.0411 -0.0455 -0.9981
vn -0.0441 -0.0565 -0.9974
vn -0.0114 0.0051 -0.9999
vn 0.0541 0.0665 -0.9963
vn 0.0449 0.0535 -0.9975
vn -0.0095 0.0031 -0.9999
vn 0.0348 0.0388 -0.9986
vn -0.0067 0.0001 -1.0000
vn 0.0325 0.0322 -0.9989
vn -0.0044 -0.0023 -1.0000
vn -0.0767 -0.0563 -0.9955
vn -0.0632 -0.0479 -0.9968
vn -0.0479 -0.0388 -0.9981
vn -0.0412 -0.0370 -0.9984
usemtl feather_gray_003
s 1
f 18//1 10//2 3//3 6//4
f 11//5 18//1 6//4 4//6
f 5//7 1//8 7//9 15//10
f 15//10 7//9 8//11 16//12
f 16//12 8//11 9//13 17//14
f 17//14 9//13 10//2 18//1
f 2//15 5//7 15//10 14//16
f 14//16 15//10 16//12 13//17
f 13//17 16//12 17//14 12//18
f 12//18 17//14 18//1 11//5
