# Blender v2.79 (sub 0) OBJ File: 'parrot_base_mesh_BI.blend'
# www.blender.org
mtllib parrot_feather_flight_tertiary_017.mtl
o feather_flight_tertiary_017
v 0.115230 0.118207 0.041116
v 0.111985 0.117831 0.041127
v 0.117442 0.104361 0.041201
v 0.113014 0.103849 0.041215
v 0.113524 0.118727 0.041456
v 0.115408 0.102546 0.041557
v 0.116387 0.115953 0.041128
v 0.117485 0.112971 0.041145
v 0.118316 0.109959 0.041163
v 0.118542 0.106876 0.041182
v 0.111365 0.106046 0.041205
v 0.110876 0.109098 0.041186
v 0.110993 0.112220 0.041166
v 0.111377 0.115373 0.041144
v 0.113881 0.115660 0.041475
v 0.114238 0.112593 0.041495
v 0.114595 0.109526 0.041514
v 0.114952 0.106458 0.041533
vn -0.0040 0.0079 -0.9999
vn -0.1068 -0.0068 -0.9942
vn -0.1270 0.0060 -0.9919
vn -0.0055 0.0203 -0.9998
vn 0.0995 0.0172 -0.9949
vn 0.1162 0.0344 -0.9926
vn 0.0009 -0.0336 -0.9994
vn -0.1635 -0.0522 -0.9851
vn -0.1353 -0.0413 -0.9899
vn 0.0001 -0.0270 -0.9996
vn -0.1055 -0.0289 -0.9940
vn -0.0011 -0.0172 -0.9998
vn -0.0954 -0.0199 -0.9952
vn -0.0020 -0.0092 -0.9999
vn 0.1653 -0.0140 -0.9861
vn 0.1353 -0.0098 -0.9908
vn 0.1032 -0.0046 -0.9946
vn 0.0913 0.0018 -0.9958
usemtl feather_gray_002
s 1
f 18//1 10//2 3//3 6//4
f 11//5 18//1 6//4 4//6
f 5//7 1//8 7//9 15//10
f 15//10 7//9 8//11 16//12
f 16//12 8//11 9//13 17//14
f 17//14 9//13 10//2 18//1
f 2//15 5//7 15//10 14//16
f 14//16 15//10 16//12 13//17
f 13//17 16//12 17//14 12//18
f 12//18 17//14 18//1 11//5
