# Blender v2.79 (sub 0) OBJ File: 'parrot_base_mesh_BI.blend'
# www.blender.org
mtllib parrot_feather_flight_primary_013.mtl
o feather_flight_primary_013
v 0.157523 0.118866 0.040260
v 0.152400 0.113742 0.040260
v 0.205710 0.072548 0.040260
v 0.198718 0.065556 0.040260
v 0.152547 0.118719 0.040599
v 0.207500 0.063766 0.040599
v 0.166918 0.112257 0.040260
v 0.178505 0.103012 0.040260
v 0.189670 0.093343 0.040260
v 0.199878 0.082719 0.040260
v 0.188547 0.071388 0.040260
v 0.177923 0.081596 0.040260
v 0.168254 0.092761 0.040260
v 0.159009 0.104348 0.040260
v 0.162963 0.108303 0.040599
v 0.173380 0.097886 0.040599
v 0.183796 0.087470 0.040599
v 0.194213 0.077053 0.040599
vn -0.0021 0.0021 -1.0000
vn -0.0358 -0.0318 -0.9988
vn -0.0432 -0.0352 -0.9984
vn -0.0040 0.0040 -1.0000
vn 0.0318 0.0358 -0.9988
vn 0.0352 0.0432 -0.9984
vn 0.0040 -0.0040 -1.0000
vn -0.0493 -0.0574 -0.9971
vn -0.0416 -0.0475 -0.9980
vn 0.0031 -0.0031 -1.0000
vn -0.0323 -0.0354 -0.9988
vn 0.0016 -0.0016 -1.0000
vn -0.0296 -0.0304 -0.9991
vn 0.0004 -0.0004 -1.0000
vn 0.0574 0.0493 -0.9971
vn 0.0475 0.0416 -0.9980
vn 0.0354 0.0323 -0.9988
vn 0.0304 0.0296 -0.9991
usemtl feather_gray_004
s 1
f 18//1 10//2 3//3 6//4
f 11//5 18//1 6//4 4//6
f 5//7 1//8 7//9 15//10
f 15//10 7//9 8//11 16//12
f 16//12 8//11 9//13 17//14
f 17//14 9//13 10//2 18//1
f 2//15 5//7 15//10 14//16
f 14//16 15//10 16//12 13//17
f 13//17 16//12 17//14 12//18
f 12//18 17//14 18//1 11//5
