# Blender v2.79 (sub 0) OBJ File: 'parrot_base_mesh_BI.blend'
# www.blender.org
mtllib parrot_feather_flight_tertiary_047.mtl
o feather_flight_tertiary_047
v 0.104912 0.118223 0.039780
v 0.101467 0.117817 0.039773
v 0.107168 0.104515 0.039723
v 0.102466 0.103961 0.039715
v 0.103106 0.118722 0.039440
v 0.104999 0.102694 0.039374
v 0.106124 0.115999 0.039772
v 0.107270 0.113054 0.039760
v 0.108132 0.110075 0.039749
v 0.108351 0.107020 0.039736
v 0.100732 0.106123 0.039722
v 0.100233 0.109144 0.039734
v 0.100377 0.112242 0.039748
v 0.100806 0.115373 0.039762
v 0.103464 0.115684 0.039428
v 0.103823 0.112646 0.039415
v 0.104182 0.109608 0.039402
v 0.104541 0.106570 0.039390
vn 0.0030 -0.0102 -0.9999
vn 0.0996 0.0042 -0.9950
vn 0.1190 -0.0091 -0.9928
vn 0.0045 -0.0228 -0.9997
vn -0.0943 -0.0187 -0.9954
vn -0.1101 -0.0362 -0.9933
vn -0.0020 0.0316 -0.9995
vn 0.1531 0.0496 -0.9870
vn 0.1262 0.0385 -0.9912
vn -0.0012 0.0251 -0.9997
vn 0.0982 0.0262 -0.9948
vn 0.0000 0.0151 -0.9999
vn 0.0889 0.0172 -0.9959
vn 0.0010 0.0070 -1.0000
vn -0.1570 0.0130 -0.9875
vn -0.1281 0.0085 -0.9917
vn -0.0981 0.0030 -0.9951
vn -0.0869 -0.0035 -0.9962
usemtl feather_gray_002
s 1
f 18//1 10//2 3//3 6//4
f 11//5 18//1 6//4 4//6
f 5//7 1//8 7//9 15//10
f 15//10 7//9 8//11 16//12
f 16//12 8//11 9//13 17//14
f 17//14 9//13 10//2 18//1
f 2//15 5//7 15//10 14//16
f 14//16 15//10 16//12 13//17
f 13//17 16//12 17//14 12//18
f 12//18 17//14 18//1 11//5
