# Blender v2.79 (sub 0) OBJ File: 'parrot_base_mesh_BI.blend'
# www.blender.org
mtllib parrot_feather_flight_tertiary_029.mtl
o feather_flight_tertiary_029
v 0.174085 0.119487 0.041146
v 0.172617 0.117044 0.041102
v 0.188333 0.111417 0.041302
v 0.186331 0.108083 0.041243
v 0.172643 0.118704 0.041457
v 0.188903 0.108801 0.041629
v 0.176851 0.118709 0.041183
v 0.180268 0.117390 0.041225
v 0.183564 0.115870 0.041264
v 0.186587 0.113893 0.041295
v 0.183342 0.108491 0.041199
v 0.180201 0.110269 0.041165
v 0.177333 0.112503 0.041138
v 0.174586 0.114938 0.041116
v 0.175725 0.116827 0.041490
v 0.178807 0.114950 0.041522
v 0.181890 0.113073 0.041555
v 0.184972 0.111196 0.041588
vn 0.0047 0.0142 -0.9999
vn -0.0563 -0.0893 -0.9944
vn -0.0777 -0.1004 -0.9919
vn -0.0040 0.0206 -0.9998
vn 0.0687 0.1160 -0.9908
vn 0.0686 0.1395 -0.9878
vn 0.0350 -0.0050 -0.9994
vn -0.0640 -0.1667 -0.9839
vn -0.0525 -0.1359 -0.9893
vn 0.0305 -0.0015 -0.9995
vn -0.0399 -0.1001 -0.9941
vn 0.0234 0.0031 -0.9997
vn -0.0388 -0.0854 -0.9956
vn 0.0175 0.0068 -0.9998
vn 0.1329 0.1572 -0.9785
vn 0.1111 0.1334 -0.9848
vn 0.0858 0.1065 -0.9906
vn 0.0734 0.0990 -0.9924
usemtl feather_gray_002
s 1
f 18//1 10//2 3//3 6//4
f 11//5 18//1 6//4 4//6
f 5//7 1//8 7//9 15//10
f 15//10 7//9 8//11 16//12
f 16//12 8//11 9//13 17//14
f 17//14 9//13 10//2 18//1
f 2//15 5//7 15//10 14//16
f 14//16 15//10 16//12 13//17
f 13//17 16//12 17//14 12//18
f 12//18 17//14 18//1 11//5
