# Blender v2.79 (sub 0) OBJ File: 'parrot_base_mesh_BI.blend'
# www.blender.org
mtllib parrot_feather_flight_primary_016.mtl
o feather_flight_primary_016
v 0.191590 0.121086 0.040260
v 0.190251 0.114785 0.040260
v 0.264372 0.106816 0.040260
v 0.262545 0.098218 0.040260
v 0.187213 0.118724 0.040599
v 0.271574 0.100792 0.040599
v 0.204237 0.120187 0.040260
v 0.220534 0.118228 0.040260
v 0.236720 0.115749 0.040260
v 0.252656 0.112094 0.040260
v 0.249695 0.098161 0.040260
v 0.233650 0.101305 0.040260
v 0.217854 0.105623 0.040260
v 0.202170 0.110462 0.040260
v 0.203204 0.115325 0.040599
v 0.219194 0.111926 0.040599
v 0.235185 0.108527 0.040599
v 0.251175 0.105128 0.040599
vn -0.0027 0.0005 -1.0000
vn -0.0137 -0.0522 -0.9985
vn -0.0179 -0.0600 -0.9980
vn -0.0050 0.0010 -1.0000
vn 0.0087 0.0533 -0.9985
vn 0.0080 0.0621 -0.9980
vn 0.0050 -0.0011 -1.0000
vn -0.0126 -0.0840 -0.9964
vn -0.0110 -0.0703 -0.9974
vn 0.0038 -0.0008 -1.0000
vn -0.0092 -0.0531 -0.9985
vn 0.0020 -0.0004 -1.0000
vn -0.0094 -0.0468 -0.9988
vn 0.0005 -0.0001 -1.0000
vn 0.0226 0.0819 -0.9964
vn 0.0185 0.0688 -0.9974
vn 0.0132 0.0522 -0.9985
vn 0.0104 0.0466 -0.9988
usemtl feather_gray_004
s 1
f 18//1 10//2 3//3 6//4
f 11//5 18//1 6//4 4//6
f 5//7 1//8 7//9 15//10
f 15//10 7//9 8//11 16//12
f 16//12 8//11 9//13 17//14
f 17//14 9//13 10//2 18//1
f 2//15 5//7 15//10 14//16
f 14//16 15//10 16//12 13//17
f 13//17 16//12 17//14 12//18
f 12//18 17//14 18//1 11//5
