# Blender v2.79 (sub 0) OBJ File: 'parrot_base_mesh_BI.blend'
# www.blender.org
mtllib parrot_feather_flight_secondary_012.mtl
o feather_flight_secondary_012
v 0.146576 0.119043 0.040672
v 0.141595 0.115578 0.040716
v 0.166736 0.092077 0.040794
v 0.159940 0.087348 0.040854
v 0.143100 0.118718 0.041027
v 0.165490 0.086622 0.041178
v 0.151190 0.115312 0.040682
v 0.156572 0.110020 0.040700
v 0.161543 0.104442 0.040723
v 0.165585 0.098218 0.040753
v 0.154571 0.090554 0.040851
v 0.150124 0.096497 0.040824
v 0.146607 0.103087 0.040789
v 0.143502 0.109963 0.040750
v 0.147344 0.112634 0.041055
v 0.151588 0.106550 0.041084
v 0.155832 0.100467 0.041113
v 0.160076 0.094383 0.041141
vn -0.0072 -0.0023 -1.0000
vn -0.0531 -0.0354 -0.9980
vn -0.0645 -0.0360 -0.9973
vn -0.0102 0.0019 -0.9999
vn 0.0397 0.0293 -0.9988
vn 0.0442 0.0399 -0.9982
vn 0.0028 -0.0166 -0.9998
vn -0.0710 -0.0681 -0.9951
vn -0.0601 -0.0566 -0.9966
vn 0.0012 -0.0144 -0.9999
vn -0.0479 -0.0435 -0.9979
vn -0.0012 -0.0110 -0.9999
vn -0.0447 -0.0372 -0.9983
vn -0.0031 -0.0082 -0.9999
vn 0.0767 0.0350 -0.9964
vn 0.0621 0.0286 -0.9977
vn 0.0455 0.0217 -0.9987
vn 0.0385 0.0208 -0.9990
usemtl feather_gray_003
s 1
f 18//1 10//2 3//3 6//4
f 11//5 18//1 6//4 4//6
f 5//7 1//8 7//9 15//10
f 15//10 7//9 8//11 16//12
f 16//12 8//11 9//13 17//14
f 17//14 9//13 10//2 18//1
f 2//15 5//7 15//10 14//16
f 14//16 15//10 16//12 13//17
f 13//17 16//12 17//14 12//18
f 12//18 17//14 18//1 11//5
