# Blender v2.79 (sub 0) OBJ File: 'parrot_base_mesh_BI.blend'
# www.blender.org
mtllib parrot_feather_flight_tertiary_025.mtl
o feather_flight_tertiary_025
v 0.151980 0.118808 0.041123
v 0.149593 0.117312 0.041110
v 0.160481 0.106203 0.041128
v 0.157223 0.104162 0.041109
v 0.150376 0.118719 0.041455
v 0.159756 0.103743 0.041458
v 0.153995 0.117033 0.041127
v 0.156318 0.114536 0.041131
v 0.158445 0.111916 0.041133
v 0.160126 0.109016 0.041133
v 0.154846 0.105710 0.041103
v 0.152971 0.108488 0.041102
v 0.151542 0.111545 0.041104
v 0.150310 0.114725 0.041106
v 0.152154 0.115880 0.041456
v 0.153932 0.113042 0.041456
v 0.155710 0.110203 0.041457
v 0.157488 0.107364 0.041457
vn -0.0031 0.0136 -0.9999
vn -0.1046 -0.0523 -0.9931
vn -0.1292 -0.0519 -0.9902
vn -0.0091 0.0235 -0.9997
vn 0.1005 0.0761 -0.9920
vn 0.1108 0.0983 -0.9890
vn 0.0173 -0.0190 -0.9997
vn -0.1451 -0.1202 -0.9821
vn -0.1209 -0.0971 -0.9879
vn 0.0140 -0.0139 -0.9998
vn -0.0942 -0.0705 -0.9930
vn 0.0093 -0.0061 -0.9999
vn -0.0869 -0.0574 -0.9945
vn 0.0053 0.0002 -1.0000
vn 0.1787 0.0827 -0.9804
vn 0.1477 0.0712 -0.9864
vn 0.1123 0.0589 -0.9919
vn 0.0974 0.0580 -0.9935
usemtl feather_gray_002
s 1
f 18//1 10//2 3//3 6//4
f 11//5 18//1 6//4 4//6
f 5//7 1//8 7//9 15//10
f 15//10 7//9 8//11 16//12
f 16//12 8//11 9//13 17//14
f 17//14 9//13 10//2 18//1
f 2//15 5//7 15//10 14//16
f 14//16 15//10 16//12 13//17
f 13//17 16//12 17//14 12//18
f 12//18 17//14 18//1 11//5
