# Blender v2.79 (sub 0) OBJ File: 'parrot_base_mesh_BI.blend'
# www.blender.org
mtllib parrot_feather_flight_tertiary_048.mtl
o feather_flight_tertiary_048
v 0.110318 0.118355 0.039780
v 0.107084 0.117688 0.039769
v 0.113779 0.104615 0.039693
v 0.109367 0.103704 0.039679
v 0.108553 0.118727 0.039440
v 0.111894 0.102606 0.039337
v 0.111683 0.116189 0.039768
v 0.113055 0.113286 0.039751
v 0.114160 0.110328 0.039733
v 0.114662 0.107245 0.039713
v 0.107512 0.105769 0.039690
v 0.106747 0.108798 0.039709
v 0.106586 0.111951 0.039730
v 0.106692 0.115159 0.039752
v 0.109187 0.115671 0.039421
v 0.109820 0.112616 0.039401
v 0.110453 0.109560 0.039381
v 0.111086 0.106504 0.039362
vn 0.0046 -0.0073 -0.9999
vn 0.1048 0.0162 -0.9944
vn 0.1258 0.0053 -0.9920
vn 0.0073 -0.0194 -0.9998
vn -0.0965 -0.0255 -0.9950
vn -0.1116 -0.0439 -0.9928
vn -0.0038 0.0332 -0.9994
vn 0.1567 0.0660 -0.9854
vn 0.1299 0.0526 -0.9901
vn -0.0024 0.0268 -0.9996
vn 0.1015 0.0378 -0.9941
vn -0.0004 0.0172 -0.9998
vn 0.0923 0.0280 -0.9953
vn 0.0012 0.0094 -0.9999
vn -0.1642 -0.0005 -0.9864
vn -0.1342 -0.0020 -0.9909
vn -0.1021 -0.0043 -0.9948
vn -0.0898 -0.0096 -0.9959
usemtl feather_gray_002
s 1
f 18//1 10//2 3//3 6//4
f 11//5 18//1 6//4 4//6
f 5//7 1//8 7//9 15//10
f 15//10 7//9 8//11 16//12
f 16//12 8//11 9//13 17//14
f 17//14 9//13 10//2 18//1
f 2//15 5//7 15//10 14//16
f 14//16 15//10 16//12 13//17
f 13//17 16//12 17//14 12//18
f 12//18 17//14 18//1 11//5
