# Blender v2.79 (sub 0) OBJ File: 'parrot_base_mesh_BI.blend'
# www.blender.org
mtllib parrot_feather_flight_primary_010.mtl
o feather_flight_primary_010
v 0.129099 0.117000 0.040260
v 0.122928 0.114631 0.040260
v 0.152071 0.060520 0.040260
v 0.143650 0.057287 0.040260
v 0.124897 0.118724 0.040599
v 0.150304 0.052537 0.040599
v 0.134476 0.108007 0.040260
v 0.140702 0.096002 0.040260
v 0.146419 0.083802 0.040260
v 0.150984 0.071160 0.040260
v 0.137337 0.065921 0.040260
v 0.132271 0.078371 0.040260
v 0.128356 0.091263 0.040260
v 0.124950 0.104350 0.040260
v 0.129713 0.106178 0.040599
v 0.134529 0.093632 0.040599
v 0.139345 0.081087 0.040599
v 0.144161 0.068541 0.040599
vn -0.0012 0.0031 -1.0000
vn -0.0500 -0.0159 -0.9986
vn -0.0590 -0.0160 -0.9981
vn -0.0022 0.0058 -1.0000
vn 0.0478 0.0216 -0.9986
vn 0.0545 0.0276 -0.9981
vn 0.0022 -0.0058 -1.0000
vn -0.0749 -0.0354 -0.9966
vn -0.0628 -0.0291 -0.9976
vn 0.0017 -0.0044 -1.0000
vn -0.0481 -0.0211 -0.9986
vn 0.0009 -0.0023 -1.0000
vn -0.0432 -0.0172 -0.9989
vn 0.0002 -0.0006 -1.0000
vn 0.0794 0.0238 -0.9966
vn 0.0661 0.0204 -0.9976
vn 0.0498 0.0165 -0.9986
vn 0.0437 0.0161 -0.9989
usemtl feather_gray_004
s 1
f 18//1 10//2 3//3 6//4
f 11//5 18//1 6//4 4//6
f 5//7 1//8 7//9 15//10
f 15//10 7//9 8//11 16//12
f 16//12 8//11 9//13 17//14
f 17//14 9//13 10//2 18//1
f 2//15 5//7 15//10 14//16
f 14//16 15//10 16//12 13//17
f 13//17 16//12 17//14 12//18
f 12//18 17//14 18//1 11//5
