# Blender v2.79 (sub 0) OBJ File: 'parrot_base_mesh_BI.blend'
# www.blender.org
mtllib parrot_feather_flight_secondary_010.mtl
o feather_flight_secondary_010
v 0.128104 0.118242 0.040689
v 0.122829 0.116230 0.040699
v 0.140202 0.089448 0.040820
v 0.133003 0.086702 0.040834
v 0.124897 0.118724 0.041026
v 0.137848 0.084811 0.041181
v 0.131424 0.113851 0.040708
v 0.135084 0.107883 0.040735
v 0.138309 0.101748 0.040763
v 0.140550 0.095238 0.040793
v 0.128883 0.090788 0.040816
v 0.126214 0.097135 0.040788
v 0.124530 0.103857 0.040757
v 0.123280 0.110745 0.040725
v 0.127352 0.112296 0.041056
v 0.129807 0.105868 0.041085
v 0.132262 0.099440 0.041114
v 0.134716 0.093011 0.041144
vn -0.0025 0.0014 -1.0000
vn -0.0589 -0.0211 -0.9980
vn -0.0710 -0.0187 -0.9973
vn -0.0046 0.0067 -0.9999
vn 0.0545 0.0222 -0.9983
vn 0.0620 0.0320 -0.9976
vn 0.0042 -0.0161 -0.9998
vn -0.0862 -0.0505 -0.9950
vn -0.0717 -0.0414 -0.9966
vn 0.0031 -0.0133 -0.9999
vn -0.0557 -0.0308 -0.9980
vn 0.0015 -0.0092 -0.9999
vn -0.0508 -0.0252 -0.9984
vn 0.0002 -0.0058 -1.0000
vn 0.0945 0.0185 -0.9953
vn 0.0776 0.0156 -0.9969
vn 0.0586 0.0128 -0.9982
vn 0.0511 0.0137 -0.9986
usemtl feather_gray_003
s 1
f 18//1 10//2 3//3 6//4
f 11//5 18//1 6//4 4//6
f 5//7 1//8 7//9 15//10
f 15//10 7//9 8//11 16//12
f 16//12 8//11 9//13 17//14
f 17//14 9//13 10//2 18//1
f 2//15 5//7 15//10 14//16
f 14//16 15//10 16//12 13//17
f 13//17 16//12 17//14 12//18
f 12//18 17//14 18//1 11//5
