# Blender v2.79 (sub 0) OBJ File: 'parrot_base_mesh_BI.blend'
# www.blender.org
mtllib parrot_feather_flight_tertiary_045.mtl
o feather_flight_tertiary_045
v 0.095589 0.118139 0.039779
v 0.091945 0.117902 0.039777
v 0.097148 0.104417 0.039753
v 0.092175 0.104094 0.039750
v 0.093721 0.118723 0.039440
v 0.094761 0.102715 0.039410
v 0.096731 0.115872 0.039776
v 0.097761 0.112892 0.039770
v 0.098490 0.109892 0.039765
v 0.098539 0.106848 0.039759
v 0.090480 0.106325 0.039753
v 0.090135 0.109350 0.039759
v 0.090470 0.112419 0.039765
v 0.091106 0.115507 0.039771
v 0.093918 0.115689 0.039435
v 0.094115 0.112655 0.039429
v 0.094312 0.109620 0.039423
v 0.094510 0.106586 0.039417
vn 0.0015 -0.0127 -0.9999
vn 0.0937 -0.0036 -0.9956
vn 0.1117 -0.0182 -0.9936
vn 0.0024 -0.0254 -0.9997
vn -0.0910 -0.0156 -0.9957
vn -0.1070 -0.0324 -0.9937
vn -0.0012 0.0296 -0.9995
vn 0.1469 0.0389 -0.9884
vn 0.1205 0.0292 -0.9923
vn -0.0008 0.0229 -0.9997
vn 0.0936 0.0184 -0.9954
vn -0.0001 0.0129 -0.9999
vn 0.0843 0.0099 -0.9964
vn 0.0004 0.0047 -1.0000
vn -0.1493 0.0197 -0.9886
vn -0.1219 0.0134 -0.9924
vn -0.0938 0.0063 -0.9955
vn -0.0835 -0.0009 -0.9965
usemtl feather_gray_002
s 1
f 18//1 10//2 3//3 6//4
f 11//5 18//1 6//4 4//6
f 5//7 1//8 7//9 15//10
f 15//10 7//9 8//11 16//12
f 16//12 8//11 9//13 17//14
f 17//14 9//13 10//2 18//1
f 2//15 5//7 15//10 14//16
f 14//16 15//10 16//12 13//17
f 13//17 16//12 17//14 12//18
f 12//18 17//14 18//1 11//5
