# Blender v2.79 (sub 0) OBJ File: 'parrot_base_mesh_BI.blend'
# www.blender.org
mtllib parrot_feather_flight_secondary_024.mtl
o feather_flight_secondary_024
v 0.108740 0.117672 0.040160
v 0.103337 0.116720 0.040160
v 0.114997 0.087948 0.040160
v 0.107624 0.086648 0.040160
v 0.105769 0.118724 0.039821
v 0.111900 0.083953 0.039821
v 0.111102 0.112869 0.040160
v 0.113499 0.106495 0.040160
v 0.115450 0.100044 0.040160
v 0.116392 0.093414 0.040160
v 0.104443 0.091307 0.040160
v 0.103062 0.097859 0.040160
v 0.102689 0.104589 0.040160
v 0.102761 0.111398 0.040160
v 0.106931 0.112133 0.039821
v 0.108094 0.105542 0.039821
v 0.109256 0.098952 0.039821
v 0.110418 0.092361 0.039821
vn 0.0012 -0.0066 -1.0000
vn 0.0625 0.0052 -0.9980
vn 0.0743 0.0005 -0.9972
vn 0.0021 -0.0123 -0.9999
vn -0.0605 -0.0164 -0.9980
vn -0.0699 -0.0249 -0.9972
vn -0.0022 0.0124 -0.9999
vn 0.0958 0.0296 -0.9949
vn 0.0794 0.0232 -0.9966
vn -0.0016 0.0094 -0.9999
vn 0.0611 0.0157 -0.9980
vn -0.0009 0.0049 -1.0000
vn 0.0550 0.0109 -0.9984
vn -0.0002 0.0012 -1.0000
vn -0.1001 -0.0049 -0.9949
vn -0.0826 -0.0053 -0.9966
vn -0.0628 -0.0062 -0.9980
vn -0.0554 -0.0085 -0.9984
usemtl feather_gray_003
s 1
f 18//1 10//2 3//3 6//4
f 11//5 18//1 6//4 4//6
f 5//7 1//8 7//9 15//10
f 15//10 7//9 8//11 16//12
f 16//12 8//11 9//13 17//14
f 17//14 9//13 10//2 18//1
f 2//15 5//7 15//10 14//16
f 14//16 15//10 16//12 13//17
f 13//17 16//12 17//14 12//18
f 12//18 17//14 18//1 11//5
