# Blender v2.79 (sub 0) OBJ File: 'parrot_base_mesh_BI.blend'
# www.blender.org
mtllib parrot_feather_flight_primary_007.mtl
o feather_flight_primary_007
v 0.099292 0.116319 0.040260
v 0.093549 0.115716 0.040260
v 0.105905 0.063469 0.040260
v 0.098068 0.062646 0.040260
v 0.096136 0.118724 0.040599
v 0.102609 0.057133 0.040599
v 0.101795 0.107515 0.040260
v 0.104335 0.095979 0.040260
v 0.106400 0.084392 0.040260
v 0.107394 0.072693 0.040260
v 0.094694 0.071358 0.040260
v 0.093234 0.083008 0.040260
v 0.092846 0.094771 0.040260
v 0.092931 0.106584 0.040260
v 0.097363 0.107050 0.040599
v 0.098590 0.095375 0.040599
v 0.099817 0.083700 0.040599
v 0.101044 0.072025 0.040599
vn -0.0004 0.0038 -1.0000
vn -0.0600 -0.0028 -0.9982
vn -0.0699 -0.0002 -0.9975
vn -0.0007 0.0070 -1.0000
vn 0.0593 0.0097 -0.9982
vn 0.0685 0.0143 -0.9975
vn 0.0007 -0.0071 -1.0000
vn -0.0933 -0.0170 -0.9955
vn -0.0780 -0.0135 -0.9969
vn 0.0005 -0.0054 -1.0000
vn -0.0594 -0.0090 -0.9982
vn 0.0003 -0.0028 -1.0000
vn -0.0529 -0.0063 -0.9986
vn 0.0001 -0.0007 -1.0000
vn 0.0948 0.0027 -0.9955
vn 0.0791 0.0030 -0.9969
vn 0.0600 0.0035 -0.9982
vn 0.0531 0.0049 -0.9986
usemtl feather_gray_004
s 1
f 18//1 10//2 3//3 6//4
f 11//5 18//1 6//4 4//6
f 5//7 1//8 7//9 15//10
f 15//10 7//9 8//11 16//12
f 16//12 8//11 9//13 17//14
f 17//14 9//13 10//2 18//1
f 2//15 5//7 15//10 14//16
f 14//16 15//10 16//12 13//17
f 13//17 16//12 17//14 12//18
f 12//18 17//14 18//1 11//5
