# Blender v2.79 (sub 0) OBJ File: 'parrot_base_mesh_BI.blend'
# www.blender.org
mtllib parrot_feather_flight_tertiary_028.mtl
o feather_flight_tertiary_028
v 0.167879 0.119520 0.041148
v 0.166036 0.116960 0.041099
v 0.180540 0.110982 0.041296
v 0.178025 0.107488 0.041230
v 0.166335 0.118704 0.041457
v 0.180669 0.108231 0.041619
v 0.170467 0.118692 0.041184
v 0.173605 0.117292 0.041226
v 0.176591 0.115680 0.041264
v 0.179233 0.113591 0.041293
v 0.175158 0.107929 0.041186
v 0.172366 0.109810 0.041153
v 0.169918 0.112169 0.041129
v 0.167622 0.114739 0.041110
v 0.169052 0.116719 0.041488
v 0.171769 0.114734 0.041518
v 0.174486 0.112749 0.041549
v 0.177203 0.110763 0.041580
vn 0.0053 0.0144 -0.9999
vn -0.0566 -0.0742 -0.9956
vn -0.0791 -0.0816 -0.9935
vn -0.0035 0.0219 -0.9997
vn 0.0710 0.1006 -0.9924
vn 0.0710 0.1236 -0.9898
vn 0.0360 -0.0088 -0.9993
vn -0.0655 -0.1471 -0.9869
vn -0.0533 -0.1188 -0.9915
vn 0.0315 -0.0046 -0.9995
vn -0.0405 -0.0872 -0.9954
vn 0.0243 0.0009 -0.9997
vn -0.0394 -0.0734 -0.9965
vn 0.0183 0.0053 -0.9998
vn 0.1369 0.1304 -0.9819
vn 0.1139 0.1106 -0.9873
vn 0.0882 0.0893 -0.9921
vn 0.0757 0.0842 -0.9936
usemtl feather_gray_002
s 1
f 18//1 10//2 3//3 6//4
f 11//5 18//1 6//4 4//6
f 5//7 1//8 7//9 15//10
f 15//10 7//9 8//11 16//12
f 16//12 8//11 9//13 17//14
f 17//14 9//13 10//2 18//1
f 2//15 5//7 15//10 14//16
f 14//16 15//10 16//12 13//17
f 13//17 16//12 17//14 12//18
f 12//18 17//14 18//1 11//5
