# Blender v2.79 (sub 0) OBJ File: 'parrot_base_mesh_BI.blend'
# www.blender.org
mtllib parrot_feather_flight_primary_008.mtl
o feather_flight_primary_008
v 0.109232 0.116449 0.040260
v 0.103294 0.115401 0.040260
v 0.119972 0.061869 0.040260
v 0.111868 0.060440 0.040260
v 0.105769 0.118724 0.040599
v 0.117001 0.055027 0.040599
v 0.112482 0.107459 0.040260
v 0.115968 0.095624 0.040260
v 0.118964 0.083703 0.040260
v 0.120852 0.071587 0.040260
v 0.107718 0.069271 0.040260
v 0.105348 0.081302 0.040260
v 0.104086 0.093529 0.040260
v 0.103314 0.105842 0.040260
v 0.107898 0.106650 0.040599
v 0.110027 0.094577 0.040599
v 0.112156 0.082503 0.040599
v 0.114285 0.070429 0.040599
vn -0.0006 0.0036 -1.0000
vn -0.0571 -0.0067 -0.9983
vn -0.0668 -0.0049 -0.9977
vn -0.0012 0.0067 -1.0000
vn 0.0559 0.0132 -0.9983
vn 0.0644 0.0183 -0.9977
vn 0.0012 -0.0067 -1.0000
vn -0.0880 -0.0225 -0.9958
vn -0.0736 -0.0181 -0.9971
vn 0.0009 -0.0051 -1.0000
vn -0.0561 -0.0126 -0.9983
vn 0.0005 -0.0027 -1.0000
vn -0.0501 -0.0095 -0.9987
vn 0.0001 -0.0007 -1.0000
vn 0.0903 0.0090 -0.9958
vn 0.0754 0.0081 -0.9971
vn 0.0570 0.0073 -0.9983
vn 0.0504 0.0082 -0.9987
usemtl feather_gray_004
s 1
f 18//1 10//2 3//3 6//4
f 11//5 18//1 6//4 4//6
f 5//7 1//8 7//9 15//10
f 15//10 7//9 8//11 16//12
f 16//12 8//11 9//13 17//14
f 17//14 9//13 10//2 18//1
f 2//15 5//7 15//10 14//16
f 14//16 15//10 16//12 13//17
f 13//17 16//12 17//14 12//18
f 12//18 17//14 18//1 11//5
