# Blender v2.79 (sub 0) OBJ File: 'parrot_base_mesh_BI.blend'
# www.blender.org
mtllib parrot_feather_flight_secondary_003.mtl
o feather_flight_secondary_003
v 0.059350 0.117399 0.040687
v 0.054663 0.117399 0.040687
v 0.060204 0.091468 0.040687
v 0.053809 0.091468 0.040687
v 0.057007 0.118724 0.041026
v 0.057007 0.088567 0.041026
v 0.060623 0.113008 0.040687
v 0.061694 0.107292 0.040687
v 0.062379 0.101575 0.040687
v 0.062188 0.095859 0.040687
v 0.051825 0.095859 0.040687
v 0.051635 0.101575 0.040687
v 0.052319 0.107292 0.040687
v 0.053390 0.113008 0.040687
v 0.057007 0.113008 0.041026
v 0.057007 0.107292 0.041026
v 0.057007 0.101575 0.041026
v 0.057007 0.095859 0.041026
vn 0.0000 0.0078 -0.9999
vn -0.0731 0.0067 -0.9973
vn -0.0856 0.0145 -0.9962
vn 0.0000 0.0146 -0.9999
vn 0.0731 0.0067 -0.9973
vn 0.0856 0.0145 -0.9962
vn 0.0000 -0.0147 -0.9999
vn -0.1162 -0.0146 -0.9931
vn -0.0961 -0.0106 -0.9953
vn 0.0000 -0.0112 -0.9999
vn -0.0736 -0.0056 -0.9973
vn 0.0000 -0.0058 -1.0000
vn -0.0656 -0.0014 -0.9978
vn 0.0000 -0.0015 -1.0000
vn 0.1162 -0.0146 -0.9931
vn 0.0961 -0.0106 -0.9953
vn 0.0736 -0.0056 -0.9973
vn 0.0656 -0.0014 -0.9978
usemtl feather_gray_003
s 1
f 18//1 10//2 3//3 6//4
f 11//5 18//1 6//4 4//6
f 5//7 1//8 7//9 15//10
f 15//10 7//9 8//11 16//12
f 16//12 8//11 9//13 17//14
f 17//14 9//13 10//2 18//1
f 2//15 5//7 15//10 14//16
f 14//16 15//10 16//12 13//17
f 13//17 16//12 17//14 12//18
f 12//18 17//14 18//1 11//5
