# Blender v2.79 (sub 0) OBJ File: 'parrot_base_mesh_BI.blend'
# www.blender.org
mtllib parrot_feather_flight_tertiary_011.mtl
o feather_flight_tertiary_011
v 0.086287 0.118022 0.041117
v 0.082430 0.117989 0.041117
v 0.087111 0.103970 0.041117
v 0.081848 0.103924 0.041117
v 0.084352 0.118724 0.041456
v 0.084494 0.102374 0.041456
v 0.087356 0.115651 0.041117
v 0.088264 0.112559 0.041117
v 0.088854 0.109465 0.041117
v 0.088724 0.106365 0.041117
v 0.080195 0.106291 0.041117
v 0.080012 0.109389 0.041117
v 0.080548 0.112493 0.041117
v 0.081403 0.115599 0.041117
v 0.084379 0.115625 0.041456
v 0.084406 0.112526 0.041456
v 0.084433 0.109427 0.041456
v 0.084459 0.106328 0.041456
vn -0.0001 0.0144 -0.9999
vn -0.0877 0.0105 -0.9961
vn -0.1041 0.0258 -0.9942
vn -0.0002 0.0269 -0.9996
vn 0.0875 0.0120 -0.9961
vn 0.1036 0.0276 -0.9942
vn 0.0002 -0.0272 -0.9996
vn -0.1405 -0.0281 -0.9897
vn -0.1147 -0.0200 -0.9932
vn 0.0002 -0.0206 -0.9998
vn -0.0888 -0.0110 -0.9960
vn 0.0001 -0.0107 -0.9999
vn -0.0796 -0.0032 -0.9968
vn 0.0000 -0.0027 -1.0000
vn 0.1409 -0.0257 -0.9897
vn 0.1151 -0.0180 -0.9932
vn 0.0890 -0.0095 -0.9960
vn 0.0796 -0.0018 -0.9968
usemtl feather_gray_002
s 1
f 18//1 10//2 3//3 6//4
f 11//5 18//1 6//4 4//6
f 5//7 1//8 7//9 15//10
f 15//10 7//9 8//11 16//12
f 16//12 8//11 9//13 17//14
f 17//14 9//13 10//2 18//1
f 2//15 5//7 15//10 14//16
f 14//16 15//10 16//12 13//17
f 13//17 16//12 17//14 12//18
f 12//18 17//14 18//1 11//5
