# Blender v2.79 (sub 0) OBJ File: 'parrot_base_mesh_BI.blend'
# www.blender.org
mtllib parrot_feather_flight_tertiary_024.mtl
o feather_flight_tertiary_024
v 0.147832 0.119112 0.041116
v 0.144491 0.117123 0.041116
v 0.155509 0.107598 0.041116
v 0.150949 0.104884 0.041116
v 0.145800 0.118724 0.041455
v 0.154020 0.104912 0.041455
v 0.149938 0.117641 0.041116
v 0.152259 0.115477 0.041116
v 0.154305 0.113150 0.041116
v 0.155727 0.110451 0.041116
v 0.148337 0.106053 0.041116
v 0.146643 0.108590 0.041116
v 0.145573 0.111499 0.041116
v 0.144779 0.114571 0.041116
v 0.147358 0.116106 0.041455
v 0.148916 0.113488 0.041455
v 0.150474 0.110870 0.041455
v 0.152032 0.108252 0.041455
vn -0.0075 0.0126 -0.9999
vn -0.0804 -0.0346 -0.9962
vn -0.1024 -0.0292 -0.9943
vn -0.0140 0.0235 -0.9996
vn 0.0688 0.0541 -0.9962
vn 0.0746 0.0761 -0.9943
vn 0.0141 -0.0238 -0.9996
vn -0.1059 -0.0949 -0.9898
vn -0.0880 -0.0748 -0.9933
vn 0.0107 -0.0180 -0.9998
vn -0.0704 -0.0540 -0.9960
vn 0.0056 -0.0094 -0.9999
vn -0.0666 -0.0426 -0.9969
vn 0.0014 -0.0024 -1.0000
vn 0.1339 0.0478 -0.9898
vn 0.1077 0.0416 -0.9933
vn 0.0810 0.0361 -0.9960
vn 0.0692 0.0382 -0.9969
usemtl feather_gray_002
s 1
f 18//1 10//2 3//3 6//4
f 11//5 18//1 6//4 4//6
f 5//7 1//8 7//9 15//10
f 15//10 7//9 8//11 16//12
f 16//12 8//11 9//13 17//14
f 17//14 9//13 10//2 18//1
f 2//15 5//7 15//10 14//16
f 14//16 15//10 16//12 13//17
f 13//17 16//12 17//14 12//18
f 12//18 17//14 18//1 11//5
