# Blender v2.79 (sub 0) OBJ File: 'parrot_base_mesh_BI.blend'
# www.blender.org
mtllib parrot_feather_flight_primary_011.mtl
o feather_flight_primary_011
v 0.138302 0.117520 0.040260
v 0.132443 0.114405 0.040260
v 0.168103 0.064050 0.040260
v 0.160107 0.059798 0.040260
v 0.133904 0.118724 0.040599
v 0.167319 0.055879 0.040599
v 0.144760 0.109216 0.040260
v 0.152433 0.098016 0.040260
v 0.159623 0.086558 0.040260
v 0.165719 0.074520 0.040260
v 0.152761 0.067630 0.040260
v 0.146189 0.079416 0.040260
v 0.140710 0.091783 0.040260
v 0.135715 0.104407 0.040260
v 0.140238 0.106812 0.040599
v 0.146572 0.094899 0.040599
v 0.152906 0.082987 0.040599
v 0.159240 0.071075 0.040599
vn -0.0016 0.0029 -1.0000
vn -0.0475 -0.0218 -0.9986
vn -0.0564 -0.0230 -0.9981
vn -0.0029 0.0054 -1.0000
vn 0.0446 0.0272 -0.9986
vn 0.0506 0.0339 -0.9981
vn 0.0029 -0.0055 -1.0000
vn -0.0698 -0.0441 -0.9966
vn -0.0586 -0.0363 -0.9976
vn 0.0022 -0.0042 -1.0000
vn -0.0450 -0.0266 -0.9986
vn 0.0012 -0.0022 -1.0000
vn -0.0407 -0.0223 -0.9989
vn 0.0003 -0.0005 -1.0000
vn 0.0756 0.0331 -0.9966
vn 0.0629 0.0282 -0.9976
vn 0.0472 0.0224 -0.9986
vn 0.0412 0.0212 -0.9989
usemtl feather_gray_004
s 1
f 18//1 10//2 3//3 6//4
f 11//5 18//1 6//4 4//6
f 5//7 1//8 7//9 15//10
f 15//10 7//9 8//11 16//12
f 16//12 8//11 9//13 17//14
f 17//14 9//13 10//2 18//1
f 2//15 5//7 15//10 14//16
f 14//16 15//10 16//12 13//17
f 13//17 16//12 17//14 12//18
f 12//18 17//14 18//1 11//5
