# Blender v2.79 (sub 0) OBJ File: 'pheasant_base_mesh_BI.blend'
# www.blender.org
mtllib pheasant_feather_flight_tertiary_022.mtl
o feather_flight_tertiary_022
v 0.214353 0.238652 0.091998
v 0.210490 0.238442 0.091998
v 0.216396 0.214066 0.091998
v 0.211125 0.213780 0.091998
v 0.212353 0.239805 0.092632
v 0.213910 0.211168 0.092632
v 0.215629 0.234539 0.091998
v 0.216807 0.229159 0.091998
v 0.217666 0.223762 0.091998
v 0.217805 0.218325 0.091998
v 0.209263 0.217860 0.091998
v 0.208811 0.223280 0.091998
v 0.209079 0.228739 0.091998
v 0.209667 0.234215 0.091998
v 0.212648 0.234377 0.092632
v 0.212943 0.228949 0.092632
v 0.213238 0.223521 0.092632
v 0.213534 0.218093 0.092632
vn -0.0008 0.0153 -0.9999
vn -0.1646 0.0043 -0.9863
vn -0.1922 0.0177 -0.9812
vn -0.0015 0.0286 -0.9996
vn 0.1632 0.0222 -0.9863
vn 0.1891 0.0385 -0.9812
vn 0.0016 -0.0289 -0.9996
vn -0.2541 -0.0418 -0.9662
vn -0.2127 -0.0321 -0.9766
vn 0.0012 -0.0219 -0.9998
vn -0.1641 -0.0199 -0.9862
vn 0.0006 -0.0114 -0.9999
vn -0.1469 -0.0107 -0.9891
vn 0.0002 -0.0029 -1.0000
vn 0.2571 -0.0140 -0.9662
vn 0.2150 -0.0089 -0.9766
vn 0.1653 -0.0020 -0.9862
vn 0.1472 0.0052 -0.9891
usemtl feather_004
s 1
f 18//1 10//2 3//3 6//4
f 11//5 18//1 6//4 4//6
f 5//7 1//8 7//9 15//10
f 15//10 7//9 8//11 16//12
f 16//12 8//11 9//13 17//14
f 17//14 9//13 10//2 18//1
f 2//15 5//7 15//10 14//16
f 14//16 15//10 16//12 13//17
f 13//17 16//12 17//14 12//18
f 12//18 17//14 18//1 11//5
