# Blender v2.79 (sub 0) OBJ File: 'pheasant_base_mesh_BI.blend'
# www.blender.org
mtllib pheasant_feather_flight_secondary_020.mtl
o feather_flight_secondary_020
v 0.306116 0.241921 0.091280
v 0.303204 0.235129 0.091143
v 0.364093 0.218208 0.091596
v 0.360120 0.208938 0.091410
v 0.301729 0.239805 0.091833
v 0.368538 0.210786 0.092173
v 0.316635 0.239543 0.091366
v 0.329964 0.235594 0.091462
v 0.343052 0.231085 0.091546
v 0.355598 0.225309 0.091605
v 0.349159 0.210288 0.091303
v 0.336377 0.215512 0.091233
v 0.324139 0.222005 0.091189
v 0.312140 0.229057 0.091155
v 0.314393 0.234305 0.091898
v 0.327057 0.228804 0.091962
v 0.339720 0.223304 0.092026
v 0.352384 0.217803 0.092091
vn 0.0059 0.0172 -0.9998
vn -0.0284 -0.0633 -0.9976
vn -0.0395 -0.0741 -0.9965
vn 0.0013 0.0198 -0.9998
vn 0.0414 0.0974 -0.9944
vn 0.0417 0.1126 -0.9928
vn 0.0219 0.0100 -0.9997
vn -0.0331 -0.1165 -0.9926
vn -0.0268 -0.0945 -0.9951
vn 0.0195 0.0114 -0.9997
vn -0.0194 -0.0674 -0.9975
vn 0.0157 0.0131 -0.9998
vn -0.0185 -0.0571 -0.9982
vn 0.0126 0.0145 -0.9998
vn 0.0766 0.1365 -0.9876
vn 0.0649 0.1171 -0.9910
vn 0.0505 0.0936 -0.9943
vn 0.0436 0.0861 -0.9953
usemtl feather_005
s 1
f 18//1 10//2 3//3 6//4
f 11//5 18//1 6//4 4//6
f 5//7 1//8 7//9 15//10
f 15//10 7//9 8//11 16//12
f 16//12 8//11 9//13 17//14
f 17//14 9//13 10//2 18//1
f 2//15 5//7 15//10 14//16
f 14//16 15//10 16//12 13//17
f 13//17 16//12 17//14 12//18
f 12//18 17//14 18//1 11//5
