# Blender v2.79 (sub 0) OBJ File: 'pheasant_base_mesh_BI.blend'
# www.blender.org
mtllib pheasant_feather_flight_primary_018.mtl
o feather_flight_primary_018
v 0.290973 0.238653 0.090399
v 0.284610 0.232286 0.090399
v 0.382558 0.146646 0.090413
v 0.363803 0.149383 0.090411
v 0.283467 0.239796 0.090925
v 0.381865 0.141347 0.090939
v 0.307029 0.226049 0.090401
v 0.327135 0.208843 0.090404
v 0.346715 0.191111 0.090407
v 0.365108 0.172192 0.090410
v 0.351036 0.158112 0.090410
v 0.332127 0.176514 0.090407
v 0.314404 0.196105 0.090404
v 0.297207 0.216221 0.090401
v 0.302118 0.221135 0.090928
v 0.320770 0.202474 0.090930
v 0.339421 0.183813 0.090933
v 0.358072 0.165152 0.090936
vn -0.0036 0.0002 -1.0000
vn -0.0468 -0.0421 -0.9980
vn -0.0581 -0.0487 -0.9971
vn -0.0290 -0.0208 -0.9994
vn 0.0399 0.0426 -0.9983
vn 0.0439 0.0491 -0.9978
vn 0.0035 -0.0036 -1.0000
vn -0.0630 -0.0701 -0.9955
vn -0.0533 -0.0586 -0.9969
vn 0.0027 -0.0027 -1.0000
vn -0.0409 -0.0438 -0.9982
vn 0.0014 -0.0014 -1.0000
vn -0.0371 -0.0379 -0.9986
vn 0.0004 -0.0004 -1.0000
vn 0.0702 0.0630 -0.9955
vn 0.0586 0.0532 -0.9969
vn 0.0438 0.0409 -0.9982
vn 0.0380 0.0371 -0.9986
usemtl feather_006
s 1
f 18//1 10//2 3//3 6//4
f 11//5 18//1 6//4 4//6
f 5//7 1//8 7//9 15//10
f 15//10 7//9 8//11 16//12
f 16//12 8//11 9//13 17//14
f 17//14 9//13 10//2 18//1
f 2//15 5//7 15//10 14//16
f 14//16 15//10 16//12 13//17
f 13//17 16//12 17//14 12//18
f 12//18 17//14 18//1 11//5
