# Blender v2.79 (sub 0) OBJ File: 'pheasant_base_mesh_BI.blend'
# www.blender.org
mtllib pheasant_feather_flight_tertiary_068.mtl
o feather_flight_tertiary_068
v 0.239490 0.238903 0.089440
v 0.235674 0.238267 0.089440
v 0.244162 0.215144 0.089440
v 0.238955 0.214277 0.089440
v 0.237379 0.239805 0.088806
v 0.242003 0.212040 0.088806
v 0.241200 0.235033 0.089440
v 0.242949 0.229915 0.089440
v 0.244382 0.224745 0.089440
v 0.245104 0.219456 0.089440
v 0.236666 0.218051 0.089440
v 0.235634 0.223288 0.089440
v 0.235315 0.228644 0.089440
v 0.235310 0.234052 0.089440
v 0.238255 0.234542 0.088806
v 0.239132 0.229279 0.088806
v 0.240008 0.224016 0.088806
v 0.240885 0.218753 0.088806
vn 0.0026 -0.0154 -0.9999
vn 0.1641 0.0136 -0.9863
vn 0.1931 0.0031 -0.9812
vn 0.0048 -0.0288 -0.9996
vn -0.1596 -0.0402 -0.9863
vn -0.1836 -0.0596 -0.9812
vn -0.0048 0.0291 -0.9995
vn 0.2478 0.0702 -0.9662
vn 0.2077 0.0558 -0.9766
vn -0.0037 0.0220 -0.9997
vn 0.1609 0.0381 -0.9862
vn -0.0019 0.0115 -0.9999
vn 0.1448 0.0269 -0.9891
vn -0.0005 0.0029 -1.0000
vn -0.2572 -0.0139 -0.9662
vn -0.2146 -0.0145 -0.9766
vn -0.1645 -0.0160 -0.9862
vn -0.1457 -0.0214 -0.9891
usemtl feather_004
s 1
f 18//1 10//2 3//3 6//4
f 11//5 18//1 6//4 4//6
f 5//7 1//8 7//9 15//10
f 15//10 7//9 8//11 16//12
f 16//12 8//11 9//13 17//14
f 17//14 9//13 10//2 18//1
f 2//15 5//7 15//10 14//16
f 14//16 15//10 16//12 13//17
f 13//17 16//12 17//14 12//18
f 12//18 17//14 18//1 11//5
