# Blender v2.79 (sub 0) OBJ File: 'pheasant_base_mesh_BI.blend'
# www.blender.org
mtllib pheasant_feather_flight_tertiary_029.mtl
o feather_flight_tertiary_029
v 0.256669 0.239194 0.091998
v 0.252953 0.238120 0.091998
v 0.263843 0.216916 0.091998
v 0.258772 0.215450 0.091998
v 0.254479 0.239805 0.092632
v 0.262035 0.213669 0.092632
v 0.258779 0.235680 0.091998
v 0.261061 0.230972 0.091998
v 0.263035 0.226174 0.091998
v 0.264317 0.221176 0.091998
v 0.256098 0.218801 0.091998
v 0.254515 0.223711 0.091998
v 0.253626 0.228822 0.091998
v 0.253043 0.234022 0.091998
v 0.255911 0.234851 0.092632
v 0.257343 0.229897 0.092632
v 0.258775 0.224943 0.092632
v 0.260208 0.219988 0.092632
vn -0.0045 0.0155 -0.9998
vn -0.1614 -0.0322 -0.9864
vn -0.1917 -0.0245 -0.9811
vn -0.0084 0.0290 -0.9995
vn 0.1536 0.0588 -0.9864
vn 0.1752 0.0815 -0.9811
vn 0.0085 -0.0293 -0.9995
vn -0.2377 -0.0994 -0.9662
vn -0.1995 -0.0801 -0.9766
vn 0.0064 -0.0222 -0.9997
vn -0.1552 -0.0569 -0.9862
vn 0.0033 -0.0116 -0.9999
vn -0.1407 -0.0437 -0.9891
vn 0.0008 -0.0029 -1.0000
vn 0.2541 0.0427 -0.9662
vn 0.2115 0.0386 -0.9766
vn 0.1616 0.0346 -0.9862
vn 0.1423 0.0381 -0.9891
usemtl feather_004
s 1
f 18//1 10//2 3//3 6//4
f 11//5 18//1 6//4 4//6
f 5//7 1//8 7//9 15//10
f 15//10 7//9 8//11 16//12
f 16//12 8//11 9//13 17//14
f 17//14 9//13 10//2 18//1
f 2//15 5//7 15//10 14//16
f 14//16 15//10 16//12 13//17
f 13//17 16//12 17//14 12//18
f 12//18 17//14 18//1 11//5
