# Blender v2.79 (sub 0) OBJ File: 'pheasant_base_mesh_BI.blend'
# www.blender.org
mtllib pheasant_feather_flight_secondary_028.mtl
o feather_flight_secondary_028
v 0.155891 0.236954 0.090241
v 0.149258 0.236954 0.090241
v 0.157100 0.181164 0.090223
v 0.148049 0.181164 0.090223
v 0.152575 0.239805 0.089608
v 0.152575 0.174923 0.089588
v 0.157694 0.227507 0.090238
v 0.159210 0.215208 0.090234
v 0.160178 0.202910 0.090230
v 0.159909 0.190611 0.090226
v 0.145240 0.190611 0.090226
v 0.144971 0.202910 0.090230
v 0.145940 0.215208 0.090234
v 0.147455 0.227507 0.090238
v 0.152575 0.227507 0.089604
v 0.152575 0.215208 0.089600
v 0.152575 0.202910 0.089596
v 0.152575 0.190611 0.089593
vn 0.0000 -0.0065 -1.0000
vn 0.0971 -0.0058 -0.9952
vn 0.1127 -0.0123 -0.9935
vn 0.0000 -0.0124 -0.9999
vn -0.0971 -0.0058 -0.9952
vn -0.1128 -0.0123 -0.9935
vn 0.0000 0.0131 -0.9999
vn 0.1527 0.0129 -0.9882
vn 0.1277 0.0096 -0.9918
vn 0.0000 0.0100 -0.9999
vn 0.0973 0.0052 -0.9952
vn 0.0000 0.0054 -1.0000
vn 0.0865 0.0015 -0.9962
vn 0.0000 0.0016 -1.0000
vn -0.1527 0.0129 -0.9882
vn -0.1277 0.0096 -0.9918
vn -0.0973 0.0052 -0.9952
vn -0.0865 0.0015 -0.9962
usemtl feather_005
s 1
f 18//1 10//2 3//3 6//4
f 11//5 18//1 6//4 4//6
f 5//7 1//8 7//9 15//10
f 15//10 7//9 8//11 16//12
f 16//12 8//11 9//13 17//14
f 17//14 9//13 10//2 18//1
f 2//15 5//7 15//10 14//16
f 14//16 15//10 16//12 13//17
f 13//17 16//12 17//14 12//18
f 12//18 17//14 18//1 11//5
