# Blender v2.79 (sub 0) OBJ File: 'pheasant_base_mesh_BI.blend'
# www.blender.org
mtllib pheasant_feather_tail_primary_003.mtl
o feather_tail_primary_003
v 0.010440 0.208180 -0.136918
v -0.005483 0.208180 -0.146111
v 0.105572 0.208517 -0.309729
v 0.096610 0.208517 -0.314903
v 0.000000 0.212121 -0.137221
v 0.106264 0.212484 -0.321275
v 0.022189 0.208208 -0.149114
v 0.035304 0.208245 -0.166252
v 0.091076 0.208452 -0.274409
v 0.100074 0.208489 -0.293923
v 0.085671 0.208489 -0.302239
v 0.073270 0.208452 -0.284689
v 0.007489 0.208245 -0.182311
v -0.000795 0.208208 -0.162384
v 0.010699 0.212157 -0.155753
v 0.021399 0.212194 -0.174285
v 0.082175 0.212401 -0.279553
v 0.092874 0.212438 -0.298085
v 0.080735 0.208411 -0.252308
v 0.070415 0.208369 -0.230195
v 0.059562 0.208328 -0.208389
v 0.048208 0.208286 -0.186873
v 0.018895 0.208286 -0.203797
v 0.031852 0.208328 -0.224387
v 0.045310 0.208369 -0.244689
v 0.059300 0.208411 -0.264683
v 0.070020 0.212360 -0.258499
v 0.057865 0.212318 -0.237446
v 0.045709 0.212277 -0.216392
v 0.033554 0.212235 -0.195339
vn 0.0150 0.9995 -0.0260
vn 0.4064 0.8904 0.2048
vn 0.4745 0.8493 0.2314
vn 0.0216 0.9991 -0.0375
vn -0.3806 0.8904 -0.2495
vn -0.4376 0.8493 -0.2952
vn -0.0202 0.9992 0.0350
vn 0.2742 0.9402 0.2023
vn 0.2418 0.9551 0.1710
vn -0.0149 0.9995 0.0257
vn 0.2069 0.9692 0.1331
vn -0.0063 0.9999 0.0109
vn 0.0061 0.9999 -0.0106
vn 0.2694 0.9525 0.1422
vn 0.3177 0.9334 0.1668
vn 0.0078 0.9999 -0.0134
vn -0.3123 0.9402 -0.1363
vn -0.2690 0.9551 -0.1239
vn -0.2187 0.9692 -0.1126
vn -0.2579 0.9525 -0.1622
vn -0.3033 0.9334 -0.1917
vn 0.2011 0.9724 0.1178
vn -0.0008 1.0000 0.0013
vn 0.2115 0.9703 0.1171
vn 0.0023 1.0000 -0.0039
vn 0.2342 0.9640 0.1256
vn 0.0043 0.9999 -0.0075
vn -0.2026 0.9724 -0.1152
vn -0.2072 0.9703 -0.1247
vn -0.2259 0.9640 -0.1400
usemtl feather_006
s 1
f 18//1 10//2 3//3 6//4
f 11//5 18//1 6//4 4//6
f 5//7 1//8 7//9 15//10
f 15//10 7//9 8//11 16//12
f 27//13 19//14 9//15 17//16
f 17//16 9//15 10//2 18//1
f 2//17 5//7 15//10 14//18
f 14//18 15//10 16//12 13//19
f 26//20 27//13 17//16 12//21
f 12//21 17//16 18//1 11//5
f 16//12 8//11 22//22 30//23
f 30//23 22//22 21//24 29//25
f 29//25 21//24 20//26 28//27
f 28//27 20//26 19//14 27//13
f 13//19 16//12 30//23 23//28
f 23//28 30//23 29//25 24//29
f 24//29 29//25 28//27 25//30
f 25//30 28//27 27//13 26//20
