# Blender v2.79 (sub 0) OBJ File: 'pheasant_base_mesh_BI.blend'
# www.blender.org
mtllib pheasant_feather_tail_secondary_011.mtl
o feather_tail_secondary_011
v -0.006290 0.205952 -0.144470
v 0.009525 0.205952 -0.138399
v 0.000000 0.202003 -0.137221
v -0.004486 0.205952 -0.159794
v -0.000172 0.205952 -0.178989
v 0.028076 0.205952 -0.168146
v 0.018438 0.205952 -0.150995
v 0.006976 0.202003 -0.155394
v 0.013952 0.202003 -0.173567
v 0.021897 0.205952 -0.235687
v 0.014113 0.205952 -0.220882
v 0.006629 0.205952 -0.200066
v 0.037125 0.205952 -0.188360
v 0.045492 0.205952 -0.208837
v 0.049613 0.205952 -0.225047
v 0.037728 0.202003 -0.235505
v 0.029802 0.202003 -0.214859
v 0.021877 0.202003 -0.194213
vn -0.0154 -0.9991 0.0402
vn -0.3534 -0.9309 -0.0926
vn -0.3045 -0.9486 -0.0858
vn -0.0114 -0.9995 0.0298
vn -0.2466 -0.9657 -0.0807
vn -0.0050 -0.9999 0.0130
vn 0.3246 -0.9309 0.1676
vn 0.2837 -0.9486 0.1400
vn 0.2373 -0.9657 0.1050
vn -0.2234 -0.9713 -0.0809
vn -0.0017 -1.0000 0.0044
vn -0.2203 -0.9713 -0.0896
vn 0.0018 -1.0000 -0.0047
vn -0.2235 -0.9696 -0.0990
vn 0.0045 -0.9999 -0.0119
vn 0.2201 -0.9713 0.0893
vn 0.2237 -0.9713 0.0808
vn 0.2323 -0.9696 0.0759
usemtl feather_004
s 1
f 3//1 1//2 4//3 8//4
f 8//4 4//3 5//5 9//6
f 2//7 3//1 8//4 7//8
f 7//8 8//4 9//6 6//9
f 9//6 5//5 12//10 18//11
f 18//11 12//10 11//12 17//13
f 17//13 11//12 10//14 16//15
f 6//9 9//6 18//11 13//16
f 13//16 18//11 17//13 14//17
f 14//17 17//13 16//15 15//18
