# Blender v2.79 (sub 0) OBJ File: 'pheasant_base_mesh_BI.blend'
# www.blender.org
mtllib pheasant_feather_flight_tertiary_082.mtl
o feather_flight_tertiary_082
v 0.318791 0.241198 0.089440
v 0.317064 0.237737 0.089440
v 0.332357 0.235217 0.089440
v 0.330000 0.230494 0.089440
v 0.317250 0.239805 0.088806
v 0.332661 0.232116 0.088806
v 0.321505 0.241019 0.089440
v 0.324820 0.240353 0.089440
v 0.327994 0.239400 0.089440
v 0.330845 0.237802 0.089440
v 0.327025 0.230148 0.089440
v 0.324034 0.231465 0.089440
v 0.321365 0.233428 0.089440
v 0.318838 0.235676 0.089440
v 0.320172 0.238348 0.088806
v 0.323093 0.236890 0.088806
v 0.326014 0.235433 0.088806
v 0.328935 0.233975 0.088806
vn 0.0228 -0.0114 -0.9997
vn 0.0902 0.1359 -0.9866
vn 0.1271 0.1498 -0.9805
vn 0.0427 -0.0213 -0.9988
vn -0.0544 -0.1538 -0.9866
vn -0.0433 -0.1917 -0.9805
vn -0.0431 0.0215 -0.9988
vn 0.0725 0.2497 -0.9656
vn 0.0644 0.2036 -0.9769
vn -0.0327 0.0163 -0.9993
vn 0.0571 0.1549 -0.9863
vn -0.0171 0.0085 -0.9998
vn 0.0617 0.1337 -0.9891
vn -0.0043 0.0021 -1.0000
vn -0.1559 -0.2081 -0.9656
vn -0.1239 -0.1739 -0.9769
vn -0.0894 -0.1388 -0.9863
vn -0.0697 -0.1297 -0.9891
usemtl feather_004
s 1
f 18//1 10//2 3//3 6//4
f 11//5 18//1 6//4 4//6
f 5//7 1//8 7//9 15//10
f 15//10 7//9 8//11 16//12
f 16//12 8//11 9//13 17//14
f 17//14 9//13 10//2 18//1
f 2//15 5//7 15//10 14//16
f 14//16 15//10 16//12 13//17
f 13//17 16//12 17//14 12//18
f 12//18 17//14 18//1 11//5
