# Blender v2.79 (sub 0) OBJ File: 'pheasant_base_mesh_BI.blend'
# www.blender.org
mtllib pheasant_feather_flight_primary_010.mtl
o feather_flight_primary_010
v 0.199586 0.233805 0.090400
v 0.190886 0.233502 0.090400
v 0.205879 0.104949 0.090085
v 0.193597 0.104520 0.090085
v 0.195021 0.239805 0.091077
v 0.199910 0.099823 0.091104
v 0.202663 0.213506 0.090404
v 0.205577 0.187042 0.090409
v 0.207774 0.160552 0.090414
v 0.208348 0.134006 0.090419
v 0.189108 0.133334 0.090419
v 0.187828 0.159856 0.090414
v 0.188172 0.186434 0.090409
v 0.189233 0.213037 0.090404
v 0.195948 0.213271 0.091082
v 0.196875 0.186738 0.091088
v 0.197801 0.160204 0.091093
v 0.198728 0.133670 0.091098
vn -0.0002 0.0058 -1.0000
vn -0.0890 0.0024 -0.9960
vn -0.1108 0.0074 -0.9938
vn -0.0004 0.0114 -0.9999
vn 0.0886 0.0086 -0.9960
vn 0.1100 0.0151 -0.9938
vn 0.0002 -0.0065 -1.0000
vn -0.1248 -0.0108 -0.9921
vn -0.1050 -0.0085 -0.9944
vn 0.0002 -0.0050 -1.0000
vn -0.0796 -0.0054 -0.9968
vn 0.0001 -0.0027 -1.0000
vn -0.0707 -0.0033 -0.9975
vn 0.0000 -0.0008 -1.0000
vn 0.1253 -0.0021 -0.9921
vn 0.1053 -0.0012 -0.9944
vn 0.0798 0.0001 -0.9968
vn 0.0707 0.0016 -0.9975
usemtl feather_006
s 1
f 18//1 10//2 3//3 6//4
f 11//5 18//1 6//4 4//6
f 5//7 1//8 7//9 15//10
f 15//10 7//9 8//11 16//12
f 16//12 8//11 9//13 17//14
f 17//14 9//13 10//2 18//1
f 2//15 5//7 15//10 14//16
f 14//16 15//10 16//12 13//17
f 13//17 16//12 17//14 12//18
f 12//18 17//14 18//1 11//5
