# Blender v2.79 (sub 0) OBJ File: 'pheasant_base_mesh_BI.blend'
# www.blender.org
mtllib pheasant_feather_flight_tertiary_063.mtl
o feather_flight_tertiary_063
v 0.207285 0.238581 0.089440
v 0.203417 0.238492 0.089440
v 0.208565 0.213772 0.089440
v 0.203288 0.213650 0.089440
v 0.205322 0.239805 0.088806
v 0.205991 0.210934 0.088806
v 0.208433 0.234402 0.089440
v 0.209444 0.228950 0.089440
v 0.210135 0.223490 0.089440
v 0.210105 0.218014 0.089440
v 0.201553 0.217816 0.089440
v 0.201269 0.223285 0.089440
v 0.201707 0.228771 0.089440
v 0.202464 0.234264 0.089440
v 0.205448 0.234333 0.088806
v 0.205575 0.228860 0.088806
v 0.205702 0.223388 0.088806
v 0.205829 0.217915 0.088806
vn 0.0003 -0.0152 -0.9999
vn 0.1644 -0.0094 -0.9863
vn 0.1915 -0.0235 -0.9812
vn 0.0006 -0.0284 -0.9996
vn -0.1638 -0.0170 -0.9863
vn -0.1903 -0.0323 -0.9812
vn -0.0006 0.0287 -0.9996
vn 0.2553 0.0337 -0.9662
vn 0.2137 0.0254 -0.9766
vn -0.0005 0.0218 -0.9998
vn 0.1647 0.0147 -0.9862
vn -0.0002 0.0114 -0.9999
vn 0.1472 0.0061 -0.9891
vn -0.0001 0.0029 -1.0000
vn -0.2566 0.0219 -0.9662
vn -0.2146 0.0154 -0.9766
vn -0.1652 0.0071 -0.9862
vn -0.1473 -0.0007 -0.9891
usemtl feather_004
s 1
f 18//1 10//2 3//3 6//4
f 11//5 18//1 6//4 4//6
f 5//7 1//8 7//9 15//10
f 15//10 7//9 8//11 16//12
f 16//12 8//11 9//13 17//14
f 17//14 9//13 10//2 18//1
f 2//15 5//7 15//10 14//16
f 14//16 15//10 16//12 13//17
f 13//17 16//12 17//14 12//18
f 12//18 17//14 18//1 11//5
