# Blender v2.79 (sub 0) OBJ File: 'pheasant_base_mesh_BI.blend'
# www.blender.org
mtllib pheasant_feather_flight_secondary_013.mtl
o feather_flight_secondary_013
v 0.237401 0.237519 0.091196
v 0.230939 0.236380 0.091196
v 0.248431 0.181856 0.091196
v 0.239612 0.180301 0.091196
v 0.233666 0.239805 0.091830
v 0.245124 0.174828 0.091830
v 0.240826 0.228368 0.091196
v 0.244474 0.216312 0.091196
v 0.247589 0.204162 0.091196
v 0.249499 0.191799 0.091196
v 0.235208 0.189279 0.091196
v 0.232774 0.201550 0.091196
v 0.231546 0.214033 0.091196
v 0.230851 0.226609 0.091196
v 0.235838 0.227489 0.091830
v 0.238010 0.215172 0.091830
v 0.240182 0.202856 0.091830
v 0.242353 0.190539 0.091830
vn -0.0012 0.0066 -1.0000
vn -0.0978 -0.0111 -0.9951
vn -0.1144 -0.0076 -0.9934
vn -0.0021 0.0123 -0.9999
vn 0.0956 0.0230 -0.9951
vn 0.1101 0.0320 -0.9934
vn 0.0022 -0.0124 -0.9999
vn -0.1498 -0.0390 -0.9879
vn -0.1255 -0.0314 -0.9916
vn 0.0016 -0.0094 -0.9999
vn -0.0960 -0.0219 -0.9951
vn 0.0009 -0.0049 -1.0000
vn -0.0859 -0.0164 -0.9962
vn 0.0002 -0.0012 -1.0000
vn 0.1541 0.0145 -0.9879
vn 0.1287 0.0134 -0.9916
vn 0.0977 0.0123 -0.9951
vn 0.0863 0.0140 -0.9962
usemtl feather_005
s 1
f 18//1 10//2 3//3 6//4
f 11//5 18//1 6//4 4//6
f 5//7 1//8 7//9 15//10
f 15//10 7//9 8//11 16//12
f 16//12 8//11 9//13 17//14
f 17//14 9//13 10//2 18//1
f 2//15 5//7 15//10 14//16
f 14//16 15//10 16//12 13//17
f 13//17 16//12 17//14 12//18
f 12//18 17//14 18//1 11//5
