# Blender v2.79 (sub 0) OBJ File: 'pheasant_base_mesh_BI.blend'
# www.blender.org
mtllib pheasant_feather_flight_secondary_004.mtl
o feather_flight_secondary_004
v 0.115638 0.236425 0.091199
v 0.109491 0.236425 0.091199
v 0.116758 0.170293 0.091250
v 0.108371 0.170293 0.091250
v 0.112565 0.239805 0.091830
v 0.112565 0.162894 0.091889
v 0.117309 0.225227 0.091208
v 0.118713 0.210648 0.091219
v 0.119611 0.196070 0.091230
v 0.119361 0.181492 0.091242
v 0.105768 0.181492 0.091242
v 0.105518 0.196070 0.091230
v 0.106416 0.210648 0.091219
v 0.107820 0.225227 0.091208
v 0.112565 0.225226 0.091841
v 0.112565 0.210648 0.091852
v 0.112565 0.196069 0.091864
v 0.112565 0.181491 0.091875
vn 0.0000 0.0049 -1.0000
vn -0.1051 0.0045 -0.9944
vn -0.1216 0.0098 -0.9925
vn 0.0000 0.0099 -0.9999
vn 0.1051 0.0045 -0.9944
vn 0.1216 0.0098 -0.9925
vn 0.0000 -0.0116 -0.9999
vn -0.1644 -0.0114 -0.9863
vn -0.1381 -0.0087 -0.9904
vn 0.0000 -0.0089 -0.9999
vn -0.1050 -0.0049 -0.9944
vn 0.0000 -0.0050 -1.0000
vn -0.0933 -0.0018 -0.9956
vn 0.0000 -0.0018 -1.0000
vn 0.1644 -0.0114 -0.9863
vn 0.1381 -0.0087 -0.9904
vn 0.1050 -0.0049 -0.9944
vn 0.0933 -0.0018 -0.9956
usemtl feather_005
s 1
f 18//1 10//2 3//3 6//4
f 11//5 18//1 6//4 4//6
f 5//7 1//8 7//9 15//10
f 15//10 7//9 8//11 16//12
f 16//12 8//11 9//13 17//14
f 17//14 9//13 10//2 18//1
f 2//15 5//7 15//10 14//16
f 14//16 15//10 16//12 13//17
f 13//17 16//12 17//14 12//18
f 12//18 17//14 18//1 11//5
