# Blender v2.79 (sub 0) OBJ File: 'pheasant_base_mesh_BI.blend'
# www.blender.org
mtllib pheasant_feather_flight_tertiary_047.mtl
o feather_flight_tertiary_047
v 0.097174 0.238451 0.089440
v 0.093306 0.238451 0.089440
v 0.097879 0.211956 0.089440
v 0.092600 0.211956 0.089440
v 0.095240 0.239805 0.088806
v 0.095240 0.208992 0.088806
v 0.098226 0.233965 0.089440
v 0.099109 0.228124 0.089440
v 0.099674 0.222283 0.089440
v 0.099517 0.216442 0.089440
v 0.090962 0.216442 0.089440
v 0.090805 0.222283 0.089440
v 0.091370 0.228124 0.089440
v 0.092254 0.233965 0.089440
v 0.095240 0.233965 0.088806
v 0.095240 0.228124 0.088806
v 0.095240 0.222283 0.088806
v 0.095240 0.216442 0.088806
vn 0.0000 -0.0143 -0.9999
vn 0.1644 -0.0125 -0.9863
vn 0.1910 -0.0262 -0.9812
vn 0.0000 -0.0267 -0.9996
vn -0.1644 -0.0125 -0.9863
vn -0.1910 -0.0262 -0.9812
vn 0.0000 0.0269 -0.9996
vn 0.2560 0.0261 -0.9663
vn 0.2145 0.0192 -0.9765
vn 0.0000 0.0204 -0.9998
vn 0.1650 0.0103 -0.9862
vn 0.0000 0.0107 -0.9999
vn 0.1473 0.0026 -0.9891
vn 0.0000 0.0027 -1.0000
vn -0.2560 0.0261 -0.9663
vn -0.2145 0.0192 -0.9765
vn -0.1650 0.0103 -0.9862
vn -0.1473 0.0026 -0.9891
usemtl feather_004
s 1
f 18//1 10//2 3//3 6//4
f 11//5 18//1 6//4 4//6
f 5//7 1//8 7//9 15//10
f 15//10 7//9 8//11 16//12
f 16//12 8//11 9//13 17//14
f 17//14 9//13 10//2 18//1
f 2//15 5//7 15//10 14//16
f 14//16 15//10 16//12 13//17
f 13//17 16//12 17//14 12//18
f 12//18 17//14 18//1 11//5
