# Blender v2.79 (sub 0) OBJ File: 'pheasant_base_mesh_BI.blend'
# www.blender.org
mtllib pheasant_feather_flight_secondary_022.mtl
o feather_flight_secondary_022
v 0.075872 0.236406 0.090238
v 0.069726 0.236406 0.090238
v 0.076993 0.169895 0.090181
v 0.068605 0.169895 0.090181
v 0.072799 0.239805 0.089608
v 0.072799 0.162454 0.089541
v 0.077543 0.225143 0.090229
v 0.078947 0.210482 0.090216
v 0.079845 0.195820 0.090203
v 0.079595 0.181158 0.090191
v 0.066002 0.181158 0.090191
v 0.065753 0.195820 0.090203
v 0.066650 0.210482 0.090216
v 0.068055 0.225143 0.090229
v 0.072799 0.225143 0.089595
v 0.072799 0.210481 0.089583
v 0.072799 0.195819 0.089570
v 0.072799 0.181157 0.089557
vn 0.0000 -0.0048 -1.0000
vn 0.1051 -0.0044 -0.9944
vn 0.1216 -0.0097 -0.9925
vn 0.0000 -0.0098 -0.9999
vn -0.1051 -0.0044 -0.9944
vn -0.1216 -0.0097 -0.9925
vn 0.0000 0.0116 -0.9999
vn 0.1644 0.0114 -0.9863
vn 0.1381 0.0087 -0.9904
vn 0.0000 0.0090 -0.9999
vn 0.1050 0.0050 -0.9944
vn 0.0000 0.0051 -1.0000
vn 0.0933 0.0019 -0.9956
vn 0.0000 0.0019 -1.0000
vn -0.1644 0.0114 -0.9863
vn -0.1381 0.0087 -0.9904
vn -0.1050 0.0050 -0.9944
vn -0.0933 0.0019 -0.9956
usemtl feather_005
s 1
f 18//1 10//2 3//3 6//4
f 11//5 18//1 6//4 4//6
f 5//7 1//8 7//9 15//10
f 15//10 7//9 8//11 16//12
f 16//12 8//11 9//13 17//14
f 17//14 9//13 10//2 18//1
f 2//15 5//7 15//10 14//16
f 14//16 15//10 16//12 13//17
f 13//17 16//12 17//14 12//18
f 12//18 17//14 18//1 11//5
