# Blender v2.79 (sub 0) OBJ File: 'pheasant_base_mesh_BI.blend'
# www.blender.org
mtllib pheasant_feather_flight_primary_005.mtl
o feather_flight_primary_005
v 0.128244 0.233741 0.090399
v 0.121920 0.233741 0.090399
v 0.129546 0.106660 0.090104
v 0.120618 0.106660 0.090104
v 0.125082 0.239805 0.091024
v 0.125082 0.101818 0.091044
v 0.129963 0.213650 0.090402
v 0.131408 0.187494 0.090406
v 0.132331 0.161339 0.090410
v 0.132075 0.135183 0.090413
v 0.118089 0.135183 0.090413
v 0.117832 0.161339 0.090410
v 0.118756 0.187494 0.090406
v 0.120201 0.213650 0.090402
v 0.125082 0.213650 0.091028
v 0.125082 0.187494 0.091032
v 0.125082 0.161339 0.091035
v 0.125082 0.135183 0.091039
vn 0.0000 0.0055 -1.0000
vn -0.1128 0.0052 -0.9936
vn -0.1397 0.0106 -0.9901
vn 0.0000 0.0107 -0.9999
vn 0.1128 0.0052 -0.9936
vn 0.1397 0.0106 -0.9901
vn 0.0000 -0.0061 -1.0000
vn -0.1581 -0.0060 -0.9874
vn -0.1335 -0.0045 -0.9910
vn 0.0000 -0.0046 -1.0000
vn -0.1011 -0.0024 -0.9948
vn 0.0000 -0.0025 -1.0000
vn -0.0896 -0.0007 -0.9960
vn 0.0000 -0.0007 -1.0000
vn 0.1581 -0.0060 -0.9874
vn 0.1335 -0.0045 -0.9910
vn 0.1011 -0.0024 -0.9948
vn 0.0896 -0.0007 -0.9960
usemtl feather_006
s 1
f 18//1 10//2 3//3 6//4
f 11//5 18//1 6//4 4//6
f 5//7 1//8 7//9 15//10
f 15//10 7//9 8//11 16//12
f 16//12 8//11 9//13 17//14
f 17//14 9//13 10//2 18//1
f 2//15 5//7 15//10 14//16
f 14//16 15//10 16//12 13//17
f 13//17 16//12 17//14 12//18
f 12//18 17//14 18//1 11//5
