# Blender v2.79 (sub 0) OBJ File: 'pheasant_base_mesh_BI.blend'
# www.blender.org
mtllib pheasant_feather_tail_primary_007.mtl
o feather_tail_primary_007
v 0.009193 0.208171 -0.144958
v -0.009193 0.208171 -0.144958
v 0.005174 0.208171 -0.452520
v -0.005174 0.208171 -0.452520
v -0.000000 0.212121 -0.137221
v -0.000000 0.212121 -0.468646
v 0.013270 0.208171 -0.170592
v 0.016059 0.208171 -0.203962
v 0.010281 0.208171 -0.393517
v 0.008316 0.208171 -0.426887
v -0.008316 0.208171 -0.426887
v -0.010281 0.208171 -0.393517
v -0.016059 0.208171 -0.203962
v -0.013270 0.208171 -0.170592
v -0.000000 0.212121 -0.170592
v -0.000000 0.212121 -0.203962
v -0.000000 0.212121 -0.393517
v -0.000000 0.212121 -0.426887
v 0.012375 0.208171 -0.355606
v 0.014495 0.208171 -0.317695
v 0.015998 0.208171 -0.279784
v 0.016924 0.208171 -0.241873
v -0.016924 0.208171 -0.241873
v -0.015998 0.208171 -0.279784
v -0.014495 0.208171 -0.317695
v -0.012375 0.208171 -0.355606
v -0.000000 0.212121 -0.355606
v -0.000000 0.212121 -0.317695
v -0.000000 0.212121 -0.279784
v -0.000000 0.212121 -0.241873
vn 0.0000 0.9998 -0.0204
vn 0.4566 0.8895 -0.0177
vn 0.5268 0.8496 -0.0245
vn 0.0000 0.9996 -0.0289
vn -0.4566 0.8895 -0.0177
vn -0.5268 0.8496 -0.0245
vn 0.0000 0.9997 0.0249
vn 0.3388 0.9405 0.0234
vn 0.2967 0.9548 0.0167
vn 0.0000 0.9998 0.0180
vn 0.2460 0.9692 0.0066
vn 0.0000 1.0000 0.0070
vn 0.0000 0.9999 -0.0089
vn 0.3049 0.9523 -0.0085
vn 0.3592 0.9332 -0.0103
vn 0.0000 0.9999 -0.0110
vn -0.3388 0.9405 0.0234
vn -0.2967 0.9548 0.0167
vn -0.2460 0.9692 0.0066
vn -0.3049 0.9523 -0.0085
vn -0.3592 0.9332 -0.0103
vn 0.2331 0.9724 -0.0001
vn 0.0000 1.0000 -0.0001
vn 0.2418 0.9703 -0.0039
vn 0.0000 1.0000 -0.0040
vn 0.2659 0.9640 -0.0064
vn 0.0000 1.0000 -0.0067
vn -0.2331 0.9724 -0.0001
vn -0.2418 0.9703 -0.0039
vn -0.2659 0.9640 -0.0064
usemtl feather_006
s 1
f 18//1 10//2 3//3 6//4
f 11//5 18//1 6//4 4//6
f 5//7 1//8 7//9 15//10
f 15//10 7//9 8//11 16//12
f 27//13 19//14 9//15 17//16
f 17//16 9//15 10//2 18//1
f 2//17 5//7 15//10 14//18
f 14//18 15//10 16//12 13//19
f 26//20 27//13 17//16 12//21
f 12//21 17//16 18//1 11//5
f 16//12 8//11 22//22 30//23
f 30//23 22//22 21//24 29//25
f 29//25 21//24 20//26 28//27
f 28//27 20//26 19//14 27//13
f 13//19 16//12 30//23 23//28
f 23//28 30//23 29//25 24//29
f 24//29 29//25 28//27 25//30
f 25//30 28//27 27//13 26//20
