# Blender v2.79 (sub 0) OBJ File: 'pigeon_base_mesh_BI.blend'
# www.blender.org
mtllib pigeon_feather_flight_tertiary_017.mtl
o feather_flight_tertiary_017
v 0.127738 0.139869 0.029457
v 0.125109 0.139869 0.029457
v 0.128218 0.124325 0.029457
v 0.124630 0.124325 0.029457
v 0.126424 0.140664 0.029888
v 0.126424 0.122586 0.029888
v 0.128453 0.137237 0.029457
v 0.129054 0.133811 0.029457
v 0.129438 0.130384 0.029457
v 0.129331 0.126957 0.029457
v 0.123516 0.126957 0.029457
v 0.123410 0.130384 0.029457
v 0.123793 0.133811 0.029457
v 0.124394 0.137237 0.029457
v 0.126424 0.137237 0.029888
v 0.126424 0.133811 0.029888
v 0.126424 0.130384 0.029888
v 0.126424 0.126957 0.029888
vn 0.0000 0.0165 -0.9998
vn -0.1639 0.0141 -0.9864
vn -0.1909 0.0303 -0.9811
vn 0.0000 0.0309 -0.9995
vn 0.1639 0.0141 -0.9864
vn 0.1909 0.0303 -0.9811
vn 0.0000 -0.0312 -0.9995
vn -0.2560 -0.0302 -0.9662
vn -0.2138 -0.0221 -0.9766
vn 0.0000 -0.0237 -0.9997
vn -0.1649 -0.0118 -0.9862
vn 0.0000 -0.0124 -0.9999
vn -0.1473 -0.0030 -0.9891
vn 0.0000 -0.0031 -1.0000
vn 0.2560 -0.0302 -0.9662
vn 0.2138 -0.0221 -0.9766
vn 0.1649 -0.0118 -0.9862
vn 0.1473 -0.0030 -0.9891
usemtl feather_001
s 1
f 18//1 10//2 3//3 6//4
f 11//5 18//1 6//4 4//6
f 5//7 1//8 7//9 15//10
f 15//10 7//9 8//11 16//12
f 16//12 8//11 9//13 17//14
f 17//14 9//13 10//2 18//1
f 2//15 5//7 15//10 14//16
f 14//16 15//10 16//12 13//17
f 13//17 16//12 17//14 12//18
f 12//18 17//14 18//1 11//5
