# Blender v2.79 (sub 0) OBJ File: 'pigeon_base_mesh_BI.blend'
# www.blender.org
mtllib pigeon_feather_flight_secondary_006.mtl
o feather_flight_secondary_006
v 0.102530 0.138567 0.028914
v 0.098352 0.138567 0.028914
v 0.103291 0.097539 0.028939
v 0.097590 0.097539 0.028939
v 0.100441 0.140664 0.029343
v 0.100441 0.092949 0.029372
v 0.103665 0.131620 0.028918
v 0.104620 0.122575 0.028923
v 0.105230 0.113531 0.028929
v 0.105060 0.104487 0.028935
v 0.095821 0.104487 0.028935
v 0.095651 0.113531 0.028929
v 0.096261 0.122575 0.028923
v 0.097216 0.131620 0.028918
v 0.100441 0.131619 0.029348
v 0.100441 0.122575 0.029354
v 0.100441 0.113531 0.029360
v 0.100441 0.104486 0.029365
vn 0.0000 0.0056 -1.0000
vn -0.1050 0.0051 -0.9944
vn -0.1216 0.0110 -0.9925
vn 0.0000 0.0111 -0.9999
vn 0.1050 0.0051 -0.9944
vn 0.1216 0.0110 -0.9925
vn 0.0000 -0.0125 -0.9999
vn -0.1644 -0.0123 -0.9863
vn -0.1379 -0.0092 -0.9904
vn 0.0000 -0.0096 -0.9999
vn -0.1050 -0.0052 -0.9944
vn 0.0000 -0.0053 -1.0000
vn -0.0933 -0.0018 -0.9956
vn 0.0000 -0.0018 -1.0000
vn 0.1644 -0.0123 -0.9863
vn 0.1379 -0.0092 -0.9904
vn 0.1050 -0.0052 -0.9944
vn 0.0933 -0.0018 -0.9956
usemtl feather_002
s 1
f 18//1 10//2 3//3 6//4
f 11//5 18//1 6//4 4//6
f 5//7 1//8 7//9 15//10
f 15//10 7//9 8//11 16//12
f 16//12 8//11 9//13 17//14
f 17//14 9//13 10//2 18//1
f 2//15 5//7 15//10 14//16
f 14//16 15//10 16//12 13//17
f 13//17 16//12 17//14 12//18
f 12//18 17//14 18//1 11//5
