# Blender v2.79 (sub 0) OBJ File: 'pigeon_base_mesh_BI.blend'
# www.blender.org
mtllib pigeon_feather_flight_secondary_029.mtl
o feather_flight_secondary_029
v 0.121744 0.138834 0.027728
v 0.117236 0.138834 0.027728
v 0.122566 0.103020 0.027716
v 0.116414 0.103020 0.027716
v 0.119490 0.140664 0.027298
v 0.119490 0.099013 0.027284
v 0.122969 0.132769 0.027726
v 0.124000 0.124874 0.027723
v 0.124658 0.116979 0.027721
v 0.124475 0.109085 0.027718
v 0.114505 0.109085 0.027718
v 0.114322 0.116979 0.027721
v 0.114980 0.124874 0.027723
v 0.116010 0.132769 0.027726
v 0.119490 0.132769 0.027295
v 0.119490 0.124874 0.027293
v 0.119490 0.116979 0.027290
v 0.119490 0.109084 0.027288
vn 0.0000 -0.0069 -1.0000
vn 0.0970 -0.0061 -0.9952
vn 0.1128 -0.0130 -0.9935
vn 0.0000 -0.0131 -0.9999
vn -0.0970 -0.0061 -0.9952
vn -0.1128 -0.0130 -0.9935
vn 0.0000 0.0139 -0.9999
vn 0.1527 0.0137 -0.9882
vn 0.1275 0.0102 -0.9918
vn 0.0000 0.0106 -0.9999
vn 0.0973 0.0056 -0.9952
vn 0.0000 0.0057 -1.0000
vn 0.0865 0.0016 -0.9962
vn 0.0000 0.0017 -1.0000
vn -0.1527 0.0137 -0.9882
vn -0.1275 0.0102 -0.9918
vn -0.0973 0.0056 -0.9952
vn -0.0865 0.0016 -0.9962
usemtl feather_002
s 1
f 18//1 10//2 3//3 6//4
f 11//5 18//1 6//4 4//6
f 5//7 1//8 7//9 15//10
f 15//10 7//9 8//11 16//12
f 16//12 8//11 9//13 17//14
f 17//14 9//13 10//2 18//1
f 2//15 5//7 15//10 14//16
f 14//16 15//10 16//12 13//17
f 13//17 16//12 17//14 12//18
f 12//18 17//14 18//1 11//5
