# Blender v2.79 (sub 0) OBJ File: 'pigeon_base_mesh_BI.blend'
# www.blender.org
mtllib pigeon_feather_tail_primary_002.mtl
o feather_tail_primary_002
v 0.016267 0.104316 -0.096823
v 0.007332 0.104316 -0.101606
v 0.074383 0.104316 -0.201695
v 0.062382 0.104316 -0.208120
v 0.010376 0.105966 -0.096556
v 0.071378 0.105966 -0.210503
v 0.022990 0.104316 -0.104557
v 0.030634 0.104316 -0.115220
v 0.066623 0.104316 -0.179762
v 0.071982 0.104316 -0.191647
v 0.055351 0.104316 -0.200550
v 0.048432 0.104316 -0.189501
v 0.014676 0.104316 -0.123763
v 0.010040 0.104316 -0.111490
v 0.016515 0.105966 -0.108024
v 0.022655 0.105966 -0.119491
v 0.057528 0.105966 -0.184631
v 0.063667 0.105966 -0.196099
v 0.059706 0.104316 -0.166703
v 0.052623 0.104316 -0.153733
v 0.045467 0.104316 -0.140802
v 0.038243 0.104316 -0.127908
v 0.021015 0.104316 -0.137131
v 0.027741 0.104316 -0.150292
v 0.034534 0.104316 -0.163417
v 0.041400 0.104316 -0.176503
v 0.050553 0.105966 -0.171603
v 0.043578 0.105966 -0.158575
v 0.036604 0.105966 -0.145547
v 0.029629 0.105966 -0.132519
vn 0.0063 0.9999 -0.0117
vn 0.1676 0.9829 0.0758
vn 0.1921 0.9781 0.0794
vn 0.0099 0.9998 -0.0186
vn -0.1560 0.9829 -0.0975
vn -0.1726 0.9781 -0.1158
vn -0.0127 0.9996 0.0237
vn 0.2193 0.9645 0.1469
vn 0.1907 0.9738 0.1234
vn -0.0094 0.9998 0.0176
vn 0.1585 0.9828 0.0943
vn -0.0041 0.9999 0.0077
vn -0.0001 1.0000 0.0001
vn 0.1389 0.9875 0.0745
vn 0.1433 0.9869 0.0734
vn 0.0014 1.0000 -0.0027
vn -0.2439 0.9645 -0.1010
vn -0.2084 0.9738 -0.0903
vn -0.1664 0.9828 -0.0796
vn -0.1390 0.9875 -0.0743
vn -0.1406 0.9869 -0.0786
vn 0.1470 0.9857 0.0819
vn -0.0014 1.0000 0.0026
vn 0.1424 0.9867 0.0777
vn -0.0006 1.0000 0.0012
vn 0.1398 0.9872 0.0758
vn -0.0004 1.0000 0.0008
vn -0.1497 0.9857 -0.0769
vn -0.1437 0.9867 -0.0754
vn -0.1407 0.9872 -0.0743
usemtl feather_003
s 1
f 18//1 10//2 3//3 6//4
f 11//5 18//1 6//4 4//6
f 5//7 1//8 7//9 15//10
f 15//10 7//9 8//11 16//12
f 27//13 19//14 9//15 17//16
f 17//16 9//15 10//2 18//1
f 2//17 5//7 15//10 14//18
f 14//18 15//10 16//12 13//19
f 26//20 27//13 17//16 12//21
f 12//21 17//16 18//1 11//5
f 16//12 8//11 22//22 30//23
f 30//23 22//22 21//24 29//25
f 29//25 21//24 20//26 28//27
f 28//27 20//26 19//14 27//13
f 13//19 16//12 30//23 23//28
f 23//28 30//23 29//25 24//29
f 24//29 29//25 28//27 25//30
f 25//30 28//27 27//13 26//20
