# Blender v2.79 (sub 0) OBJ File: 'pigeon_base_mesh_BI.blend'
# www.blender.org
mtllib pigeon_feather_flight_secondary_016.mtl
o feather_flight_secondary_016
v 0.190159 0.139905 0.028918
v 0.186129 0.137871 0.028933
v 0.208493 0.105525 0.029168
v 0.202994 0.102750 0.029189
v 0.187246 0.140661 0.029343
v 0.207713 0.100246 0.029638
v 0.194235 0.134573 0.028956
v 0.199035 0.127377 0.029009
v 0.203503 0.120013 0.029062
v 0.207219 0.112270 0.029119
v 0.198307 0.107773 0.029152
v 0.194264 0.115351 0.029097
v 0.190973 0.123309 0.029039
v 0.188014 0.131434 0.028980
v 0.191125 0.133000 0.029399
v 0.195005 0.125340 0.029455
v 0.198884 0.117679 0.029511
v 0.202764 0.110018 0.029566
vn -0.0030 -0.0013 -1.0000
vn -0.0893 -0.0458 -0.9949
vn -0.1061 -0.0472 -0.9932
vn -0.0057 0.0037 -1.0000
vn 0.0839 0.0419 -0.9956
vn 0.0950 0.0547 -0.9940
vn 0.0057 -0.0183 -0.9998
vn -0.1305 -0.0871 -0.9876
vn -0.1097 -0.0730 -0.9913
vn 0.0043 -0.0157 -0.9998
vn -0.0846 -0.0555 -0.9948
vn 0.0022 -0.0117 -0.9999
vn -0.0766 -0.0474 -0.9959
vn 0.0005 -0.0084 -0.9999
vn 0.1417 0.0507 -0.9886
vn 0.1180 0.0423 -0.9921
vn 0.0889 0.0324 -0.9955
vn 0.0777 0.0307 -0.9965
usemtl feather_002
s 1
f 18//1 10//2 3//3 6//4
f 11//5 18//1 6//4 4//6
f 5//7 1//8 7//9 15//10
f 15//10 7//9 8//11 16//12
f 16//12 8//11 9//13 17//14
f 17//14 9//13 10//2 18//1
f 2//15 5//7 15//10 14//16
f 14//16 15//10 16//12 13//17
f 13//17 16//12 17//14 12//18
f 12//18 17//14 18//1 11//5
