# Blender v2.79 (sub 0) OBJ File: 'pigeon_base_mesh_BI.blend'
# www.blender.org
mtllib pigeon_feather_flight_primary_016.mtl
o feather_flight_primary_016
v 0.192108 0.138451 0.028370
v 0.186154 0.135285 0.028370
v 0.234769 0.057796 0.028377
v 0.222259 0.063244 0.028376
v 0.187113 0.140664 0.028800
v 0.233041 0.054286 0.028807
v 0.200414 0.126734 0.028371
v 0.210480 0.111085 0.028372
v 0.220055 0.095174 0.028374
v 0.228519 0.078672 0.028375
v 0.215352 0.071671 0.028375
v 0.206405 0.087916 0.028374
v 0.198568 0.104751 0.028372
v 0.191223 0.121847 0.028371
v 0.195819 0.124291 0.028802
v 0.204524 0.107918 0.028803
v 0.213230 0.091545 0.028804
v 0.221936 0.075172 0.028805
vn -0.0038 0.0016 -1.0000
vn -0.0623 -0.0288 -0.9976
vn -0.0764 -0.0318 -0.9966
vn -0.0364 -0.0116 -0.9993
vn 0.0551 0.0318 -0.9980
vn 0.0613 0.0376 -0.9974
vn 0.0027 -0.0052 -1.0000
vn -0.0880 -0.0533 -0.9947
vn -0.0741 -0.0443 -0.9962
vn 0.0021 -0.0039 -1.0000
vn -0.0566 -0.0327 -0.9978
vn 0.0011 -0.0021 -1.0000
vn -0.0509 -0.0278 -0.9983
vn 0.0003 -0.0005 -1.0000
vn 0.0934 0.0431 -0.9947
vn 0.0782 0.0367 -0.9962
vn 0.0588 0.0286 -0.9978
vn 0.0515 0.0266 -0.9983
usemtl feather_003
s 1
f 18//1 10//2 3//3 6//4
f 11//5 18//1 6//4 4//6
f 5//7 1//8 7//9 15//10
f 15//10 7//9 8//11 16//12
f 16//12 8//11 9//13 17//14
f 17//14 9//13 10//2 18//1
f 2//15 5//7 15//10 14//16
f 14//16 15//10 16//12 13//17
f 13//17 16//12 17//14 12//18
f 12//18 17//14 18//1 11//5
