# Blender v2.79 (sub 0) OBJ File: 'pigeon_base_mesh_BI.blend'
# www.blender.org
mtllib pigeon_feather_flight_primary_013.mtl
o feather_flight_primary_013
v 0.169148 0.137113 0.028371
v 0.163114 0.136049 0.028371
v 0.184251 0.050424 0.028382
v 0.174865 0.059231 0.028381
v 0.165411 0.140664 0.028800
v 0.181794 0.047749 0.028813
v 0.173174 0.123873 0.028372
v 0.177658 0.106504 0.028375
v 0.181645 0.089048 0.028377
v 0.184505 0.071393 0.028379
v 0.171160 0.069039 0.028379
v 0.167809 0.086608 0.028377
v 0.165585 0.104376 0.028375
v 0.163859 0.122231 0.028372
v 0.168516 0.123052 0.028803
v 0.171622 0.105440 0.028805
v 0.174727 0.087828 0.028807
v 0.177833 0.070216 0.028810
vn -0.0034 0.0027 -1.0000
vn -0.0750 -0.0093 -0.9971
vn -0.0906 -0.0078 -0.9958
vn -0.0428 -0.0004 -0.9991
vn 0.0686 0.0144 -0.9975
vn 0.0770 0.0181 -0.9969
vn 0.0010 -0.0060 -1.0000
vn -0.1101 -0.0256 -0.9936
vn -0.0927 -0.0210 -0.9955
vn 0.0008 -0.0046 -1.0000
vn -0.0703 -0.0149 -0.9974
vn 0.0004 -0.0024 -1.0000
vn -0.0627 -0.0117 -0.9980
vn 0.0001 -0.0007 -1.0000
vn 0.1122 0.0136 -0.9936
vn 0.0942 0.0120 -0.9955
vn 0.0712 0.0100 -0.9974
vn 0.0629 0.0103 -0.9980
usemtl feather_003
s 1
f 18//1 10//2 3//3 6//4
f 11//5 18//1 6//4 4//6
f 5//7 1//8 7//9 15//10
f 15//10 7//9 8//11 16//12
f 16//12 8//11 9//13 17//14
f 17//14 9//13 10//2 18//1
f 2//15 5//7 15//10 14//16
f 14//16 15//10 16//12 13//17
f 13//17 16//12 17//14 12//18
f 12//18 17//14 18//1 11//5
