# Blender v2.79 (sub 0) OBJ File: 'pigeon_base_mesh_BI.blend'
# www.blender.org
mtllib pigeon_feather_flight_secondary_021.mtl
o feather_flight_secondary_021
v 0.225508 0.142598 0.028966
v 0.224393 0.137825 0.028887
v 0.262384 0.134673 0.029263
v 0.260863 0.128159 0.029155
v 0.223079 0.140664 0.029345
v 0.265730 0.130435 0.029673
v 0.232021 0.142407 0.029036
v 0.240360 0.141559 0.029116
v 0.248607 0.140317 0.029190
v 0.256646 0.138184 0.029249
v 0.254181 0.127627 0.029073
v 0.246051 0.129372 0.029008
v 0.238130 0.132008 0.028957
v 0.230300 0.135037 0.028913
v 0.231164 0.138725 0.029407
v 0.239248 0.136786 0.029469
v 0.247333 0.134847 0.029532
v 0.255417 0.132908 0.029594
vn 0.0043 0.0154 -0.9998
vn -0.0159 -0.0719 -0.9973
vn -0.0258 -0.0847 -0.9961
vn -0.0013 0.0173 -0.9998
vn 0.0259 0.1024 -0.9944
vn 0.0229 0.1180 -0.9927
vn 0.0235 0.0104 -0.9997
vn -0.0096 -0.1268 -0.9919
vn -0.0074 -0.1032 -0.9946
vn 0.0205 0.0115 -0.9997
vn -0.0051 -0.0747 -0.9972
vn 0.0160 0.0127 -0.9998
vn -0.0064 -0.0642 -0.9979
vn 0.0123 0.0136 -0.9998
vn 0.0562 0.1479 -0.9874
vn 0.0475 0.1260 -0.9909
vn 0.0367 0.1000 -0.9943
vn 0.0308 0.0913 -0.9953
usemtl feather_002
s 1
f 18//1 10//2 3//3 6//4
f 11//5 18//1 6//4 4//6
f 5//7 1//8 7//9 15//10
f 15//10 7//9 8//11 16//12
f 16//12 8//11 9//13 17//14
f 17//14 9//13 10//2 18//1
f 2//15 5//7 15//10 14//16
f 14//16 15//10 16//12 13//17
f 13//17 16//12 17//14 12//18
f 12//18 17//14 18//1 11//5
