# Blender v2.79 (sub 0) OBJ File: 'pigeon_base_mesh_BI.blend'
# www.blender.org
mtllib pigeon_feather_flight_tertiary_030.mtl
o feather_flight_tertiary_030
v 0.183969 0.140356 0.029457
v 0.181488 0.139485 0.029457
v 0.189528 0.125962 0.029457
v 0.186142 0.124774 0.029457
v 0.182467 0.140664 0.029888
v 0.188406 0.123740 0.029888
v 0.185508 0.138128 0.029457
v 0.187201 0.135119 0.029457
v 0.188689 0.132038 0.029457
v 0.189714 0.128795 0.029457
v 0.184227 0.126870 0.029457
v 0.183001 0.130042 0.029457
v 0.182237 0.133377 0.029457
v 0.181678 0.136784 0.029457
v 0.183593 0.137456 0.029888
v 0.184719 0.134248 0.029888
v 0.185845 0.131040 0.029888
v 0.186970 0.127832 0.029888
vn -0.0055 0.0157 -0.9998
vn -0.1593 -0.0408 -0.9864
vn -0.1903 -0.0343 -0.9811
vn -0.0103 0.0294 -0.9995
vn 0.1499 0.0677 -0.9864
vn 0.1700 0.0921 -0.9811
vn 0.0104 -0.0297 -0.9995
vn -0.2315 -0.1135 -0.9662
vn -0.1943 -0.0917 -0.9766
vn 0.0079 -0.0225 -0.9997
vn -0.1516 -0.0658 -0.9862
vn 0.0041 -0.0117 -0.9999
vn -0.1380 -0.0516 -0.9891
vn 0.0010 -0.0030 -1.0000
vn 0.2516 0.0560 -0.9662
vn 0.2091 0.0498 -0.9766
vn 0.1595 0.0433 -0.9862
vn 0.1399 0.0459 -0.9891
usemtl feather_001
s 1
f 18//1 10//2 3//3 6//4
f 11//5 18//1 6//4 4//6
f 5//7 1//8 7//9 15//10
f 15//10 7//9 8//11 16//12
f 16//12 8//11 9//13 17//14
f 17//14 9//13 10//2 18//1
f 2//15 5//7 15//10 14//16
f 14//16 15//10 16//12 13//17
f 13//17 16//12 17//14 12//18
f 12//18 17//14 18//1 11//5
