# Blender v2.79 (sub 0) OBJ File: 'pigeon_base_mesh_BI.blend'
# www.blender.org
mtllib pigeon_feather_flight_tertiary_068.mtl
o feather_flight_tertiary_068
v 0.168873 0.140051 0.027184
v 0.166280 0.139619 0.027184
v 0.172049 0.123902 0.027184
v 0.168509 0.123312 0.027184
v 0.167438 0.140664 0.026753
v 0.170581 0.121792 0.026753
v 0.170036 0.137420 0.027184
v 0.171224 0.133942 0.027184
v 0.172199 0.130427 0.027184
v 0.172689 0.126833 0.027184
v 0.166954 0.125877 0.027184
v 0.166253 0.129437 0.027184
v 0.166035 0.133077 0.027184
v 0.166032 0.136753 0.027184
v 0.168034 0.137087 0.026753
v 0.168630 0.133509 0.026753
v 0.169226 0.129932 0.026753
v 0.169821 0.126355 0.026753
vn 0.0026 -0.0154 -0.9998
vn 0.1641 0.0136 -0.9863
vn 0.1931 0.0031 -0.9812
vn 0.0048 -0.0288 -0.9996
vn -0.1596 -0.0403 -0.9863
vn -0.1836 -0.0597 -0.9812
vn -0.0048 0.0291 -0.9995
vn 0.2478 0.0702 -0.9662
vn 0.2077 0.0558 -0.9766
vn -0.0037 0.0220 -0.9997
vn 0.1609 0.0381 -0.9862
vn -0.0019 0.0115 -0.9999
vn 0.1448 0.0269 -0.9891
vn -0.0005 0.0029 -1.0000
vn -0.2572 -0.0139 -0.9662
vn -0.2146 -0.0145 -0.9766
vn -0.1645 -0.0160 -0.9862
vn -0.1457 -0.0214 -0.9891
usemtl feather_001
s 1
f 18//1 10//2 3//3 6//4
f 11//5 18//1 6//4 4//6
f 5//7 1//8 7//9 15//10
f 15//10 7//9 8//11 16//12
f 16//12 8//11 9//13 17//14
f 17//14 9//13 10//2 18//1
f 2//15 5//7 15//10 14//16
f 14//16 15//10 16//12 13//17
f 13//17 16//12 17//14 12//18
f 12//18 17//14 18//1 11//5
