# Blender v2.79 (sub 0) OBJ File: 'pigeon_base_mesh_BI.blend'
# www.blender.org
mtllib pigeon_feather_flight_tertiary_042.mtl
o feather_flight_tertiary_042
v 0.234872 0.141616 0.029458
v 0.234256 0.139504 0.029458
v 0.241955 0.139969 0.029458
v 0.241115 0.137086 0.029458
v 0.234207 0.140664 0.029818
v 0.242315 0.138300 0.029818
v 0.236220 0.141847 0.029458
v 0.237897 0.141881 0.029458
v 0.239524 0.141742 0.029458
v 0.241036 0.141208 0.029458
v 0.239673 0.136535 0.029458
v 0.238112 0.136898 0.029458
v 0.236665 0.137654 0.029458
v 0.235269 0.138585 0.029458
v 0.235744 0.140216 0.029818
v 0.237281 0.139768 0.029818
v 0.238818 0.139320 0.029818
v 0.240355 0.138872 0.029818
vn -0.0284 0.0083 -0.9995
vn -0.0665 -0.1484 -0.9867
vn -0.1055 -0.1679 -0.9801
vn -0.0531 0.0155 -0.9984
vn 0.0236 0.1609 -0.9867
vn 0.0012 0.1983 -0.9801
vn 0.0537 -0.0156 -0.9984
vn -0.0197 -0.2606 -0.9652
vn -0.0220 -0.2120 -0.9770
vn 0.0407 -0.0118 -0.9991
vn -0.0259 -0.1630 -0.9863
vn 0.0212 -0.0062 -0.9997
vn -0.0363 -0.1427 -0.9891
vn 0.0054 -0.0016 -1.0000
vn 0.1234 0.2304 -0.9652
vn 0.0953 0.1906 -0.9770
vn 0.0657 0.1514 -0.9863
vn 0.0461 0.1399 -0.9891
usemtl feather_001
s 1
f 18//1 10//2 3//3 6//4
f 11//5 18//1 6//4 4//6
f 5//7 1//8 7//9 15//10
f 15//10 7//9 8//11 16//12
f 16//12 8//11 9//13 17//14
f 17//14 9//13 10//2 18//1
f 2//15 5//7 15//10 14//16
f 14//16 15//10 16//12 13//17
f 13//17 16//12 17//14 12//18
f 12//18 17//14 18//1 11//5
