# Blender v2.79 (sub 0) OBJ File: 'pigeon_base_mesh_BI.blend'
# www.blender.org
mtllib pigeon_feather_flight_primary_004.mtl
o feather_flight_primary_004
v 0.084670 0.137014 0.028370
v 0.080319 0.137014 0.028370
v 0.085566 0.060524 0.028154
v 0.079422 0.060524 0.028154
v 0.082494 0.140664 0.028800
v 0.082494 0.057610 0.028800
v 0.085853 0.124921 0.028370
v 0.086848 0.109178 0.028370
v 0.087483 0.093435 0.028370
v 0.087307 0.077692 0.028370
v 0.077682 0.077692 0.028370
v 0.077506 0.093435 0.028370
v 0.078141 0.109178 0.028370
v 0.079136 0.124921 0.028370
v 0.082494 0.124921 0.028800
v 0.082494 0.109178 0.028800
v 0.082494 0.093435 0.028800
v 0.082494 0.077692 0.028800
vn 0.0000 0.0064 -1.0000
vn -0.1127 0.0061 -0.9936
vn -0.1397 0.0122 -0.9901
vn 0.0000 0.0124 -0.9999
vn 0.1127 0.0061 -0.9936
vn 0.1397 0.0122 -0.9901
vn 0.0000 -0.0068 -1.0000
vn -0.1581 -0.0067 -0.9874
vn -0.1333 -0.0050 -0.9910
vn 0.0000 -0.0051 -1.0000
vn -0.1010 -0.0026 -0.9949
vn 0.0000 -0.0027 -1.0000
vn -0.0896 -0.0006 -0.9960
vn 0.0000 -0.0007 -1.0000
vn 0.1581 -0.0067 -0.9874
vn 0.1333 -0.0050 -0.9910
vn 0.1010 -0.0026 -0.9949
vn 0.0896 -0.0006 -0.9960
usemtl feather_003
s 1
f 18//1 10//2 3//3 6//4
f 11//5 18//1 6//4 4//6
f 5//7 1//8 7//9 15//10
f 15//10 7//9 8//11 16//12
f 16//12 8//11 9//13 17//14
f 17//14 9//13 10//2 18//1
f 2//15 5//7 15//10 14//16
f 14//16 15//10 16//12 13//17
f 13//17 16//12 17//14 12//18
f 12//18 17//14 18//1 11//5
