# Blender v2.79 (sub 0) OBJ File: 'pigeon_base_mesh_BI.blend'
# www.blender.org
mtllib pigeon_feather_flight_tertiary_080.mtl
o feather_flight_tertiary_080
v 0.212815 0.141355 0.027184
v 0.211228 0.139259 0.027184
v 0.222330 0.134755 0.027184
v 0.220165 0.131894 0.027184
v 0.211550 0.140664 0.026753
v 0.222280 0.132543 0.026753
v 0.214809 0.140743 0.027184
v 0.217205 0.139683 0.027184
v 0.219471 0.138449 0.027184
v 0.221440 0.136825 0.027184
v 0.217931 0.132188 0.027184
v 0.215833 0.133643 0.027184
v 0.214030 0.135488 0.027184
v 0.212359 0.137506 0.027184
v 0.213584 0.139125 0.026753
v 0.215618 0.137585 0.026753
v 0.217652 0.136046 0.026753
v 0.219685 0.134507 0.026753
vn 0.0177 -0.0134 -0.9997
vn 0.1125 0.1188 -0.9865
vn 0.1477 0.1276 -0.9807
vn 0.0331 -0.0251 -0.9991
vn -0.0838 -0.1405 -0.9865
vn -0.0827 -0.1768 -0.9807
vn -0.0334 0.0253 -0.9991
vn 0.1221 0.2285 -0.9658
vn 0.1046 0.1867 -0.9768
vn -0.0253 0.0192 -0.9995
vn 0.0866 0.1406 -0.9863
vn -0.0132 0.0100 -0.9998
vn 0.0857 0.1198 -0.9891
vn -0.0034 0.0025 -1.0000
vn -0.1867 -0.1795 -0.9658
vn -0.1512 -0.1514 -0.9768
vn -0.1118 -0.1216 -0.9863
vn -0.0920 -0.1150 -0.9891
usemtl feather_001
s 1
f 18//1 10//2 3//3 6//4
f 11//5 18//1 6//4 4//6
f 5//7 1//8 7//9 15//10
f 15//10 7//9 8//11 16//12
f 16//12 8//11 9//13 17//14
f 17//14 9//13 10//2 18//1
f 2//15 5//7 15//10 14//16
f 14//16 15//10 16//12 13//17
f 13//17 16//12 17//14 12//18
f 12//18 17//14 18//1 11//5
