# Blender v2.79 (sub 0) OBJ File: 'pigeon_base_mesh_BI.blend'
# www.blender.org
mtllib pigeon_feather_flight_primary_017.mtl
o feather_flight_primary_017
v 0.196708 0.139090 0.028370
v 0.191094 0.135012 0.028370
v 0.252194 0.062374 0.028377
v 0.238611 0.066208 0.028376
v 0.191278 0.140660 0.028800
v 0.250947 0.058533 0.028808
v 0.206922 0.128241 0.028371
v 0.219515 0.113606 0.028373
v 0.231645 0.098634 0.028374
v 0.242727 0.082901 0.028376
v 0.230312 0.073881 0.028376
v 0.218773 0.089282 0.028374
v 0.208283 0.105445 0.028373
v 0.198255 0.121945 0.028371
v 0.202589 0.125093 0.028802
v 0.213899 0.109526 0.028803
v 0.225209 0.093958 0.028805
v 0.236520 0.078391 0.028806
vn -0.0039 0.0010 -1.0000
vn -0.0561 -0.0362 -0.9977
vn -0.0692 -0.0410 -0.9967
vn -0.0335 -0.0162 -0.9993
vn 0.0488 0.0381 -0.9981
vn 0.0539 0.0444 -0.9975
vn 0.0033 -0.0045 -1.0000
vn -0.0775 -0.0632 -0.9950
vn -0.0653 -0.0526 -0.9965
vn 0.0025 -0.0034 -1.0000
vn -0.0501 -0.0391 -0.9980
vn 0.0013 -0.0018 -1.0000
vn -0.0452 -0.0336 -0.9984
vn 0.0004 -0.0005 -1.0000
vn 0.0841 0.0541 -0.9950
vn 0.0703 0.0459 -0.9965
vn 0.0527 0.0355 -0.9980
vn 0.0459 0.0326 -0.9984
usemtl feather_003
s 1
f 18//1 10//2 3//3 6//4
f 11//5 18//1 6//4 4//6
f 5//7 1//8 7//9 15//10
f 15//10 7//9 8//11 16//12
f 16//12 8//11 9//13 17//14
f 17//14 9//13 10//2 18//1
f 2//15 5//7 15//10 14//16
f 14//16 15//10 16//12 13//17
f 13//17 16//12 17//14 12//18
f 12//18 17//14 18//1 11//5
