# Blender v2.79 (sub 0) OBJ File: 'pigeon_base_mesh_BI.blend'
# www.blender.org
mtllib pigeon_feather_flight_primary_009.mtl
o feather_flight_primary_009
v 0.132597 0.136812 0.028370
v 0.127179 0.136812 0.028370
v 0.133713 0.056079 0.028163
v 0.126063 0.056079 0.028163
v 0.129888 0.140664 0.028800
v 0.129888 0.053003 0.028809
v 0.134070 0.124048 0.028372
v 0.135308 0.107432 0.028373
v 0.136099 0.090816 0.028375
v 0.135879 0.074200 0.028376
v 0.123897 0.074200 0.028376
v 0.123677 0.090816 0.028375
v 0.124468 0.107432 0.028373
v 0.125706 0.124048 0.028372
v 0.129888 0.124048 0.028802
v 0.129888 0.107432 0.028804
v 0.129888 0.090816 0.028805
v 0.129888 0.074200 0.028807
vn 0.0000 0.0060 -1.0000
vn -0.0906 0.0057 -0.9958
vn -0.1126 0.0115 -0.9936
vn 0.0000 0.0116 -0.9999
vn 0.0906 0.0057 -0.9958
vn 0.1126 0.0115 -0.9936
vn 0.0000 -0.0065 -1.0000
vn -0.1275 -0.0065 -0.9918
vn -0.1072 -0.0049 -0.9942
vn 0.0000 -0.0050 -1.0000
vn -0.0812 -0.0026 -0.9967
vn 0.0000 -0.0026 -1.0000
vn -0.0721 -0.0007 -0.9974
vn 0.0000 -0.0007 -1.0000
vn 0.1275 -0.0065 -0.9918
vn 0.1072 -0.0049 -0.9942
vn 0.0812 -0.0026 -0.9967
vn 0.0721 -0.0007 -0.9974
usemtl feather_003
s 1
f 18//1 10//2 3//3 6//4
f 11//5 18//1 6//4 4//6
f 5//7 1//8 7//9 15//10
f 15//10 7//9 8//11 16//12
f 16//12 8//11 9//13 17//14
f 17//14 9//13 10//2 18//1
f 2//15 5//7 15//10 14//16
f 14//16 15//10 16//12 13//17
f 13//17 16//12 17//14 12//18
f 12//18 17//14 18//1 11//5
