# Blender v2.79 (sub 0) OBJ File: 'pigeon_base_mesh_BI.blend'
# www.blender.org
mtllib pigeon_feather_flight_secondary_028.mtl
o feather_flight_secondary_028
v 0.112051 0.138726 0.027728
v 0.107543 0.138726 0.027728
v 0.112873 0.100806 0.027716
v 0.106721 0.100806 0.027716
v 0.109797 0.140664 0.027298
v 0.109797 0.096563 0.027284
v 0.113277 0.132305 0.027726
v 0.114307 0.123945 0.027723
v 0.114965 0.115586 0.027721
v 0.114782 0.107227 0.027718
v 0.104812 0.107227 0.027718
v 0.104629 0.115586 0.027721
v 0.105287 0.123945 0.027723
v 0.106317 0.132305 0.027726
v 0.109797 0.132305 0.027295
v 0.109797 0.123945 0.027293
v 0.109797 0.115586 0.027290
v 0.109797 0.107227 0.027288
vn 0.0000 -0.0065 -1.0000
vn 0.0971 -0.0058 -0.9952
vn 0.1128 -0.0123 -0.9935
vn 0.0000 -0.0124 -0.9999
vn -0.0971 -0.0058 -0.9952
vn -0.1128 -0.0123 -0.9935
vn 0.0000 0.0131 -0.9999
vn 0.1527 0.0129 -0.9882
vn 0.1277 0.0096 -0.9918
vn 0.0000 0.0100 -0.9999
vn 0.0973 0.0052 -0.9952
vn 0.0000 0.0054 -1.0000
vn 0.0865 0.0015 -0.9962
vn 0.0000 0.0016 -1.0000
vn -0.1527 0.0129 -0.9882
vn -0.1277 0.0096 -0.9918
vn -0.0973 0.0052 -0.9952
vn -0.0865 0.0015 -0.9962
usemtl feather_002
s 1
f 18//1 10//2 3//3 6//4
f 11//5 18//1 6//4 4//6
f 5//7 1//8 7//9 15//10
f 15//10 7//9 8//11 16//12
f 16//12 8//11 9//13 17//14
f 17//14 9//13 10//2 18//1
f 2//15 5//7 15//10 14//16
f 14//16 15//10 16//12 13//17
f 13//17 16//12 17//14 12//18
f 12//18 17//14 18//1 11//5
