# Blender v2.79 (sub 0) OBJ File: 'pigeon_base_mesh_BI.blend'
# www.blender.org
mtllib pigeon_feather_flight_secondary_005.mtl
o feather_flight_secondary_005
v 0.093660 0.138478 0.028914
v 0.089482 0.138478 0.028914
v 0.094422 0.095713 0.028943
v 0.088721 0.095713 0.028943
v 0.091571 0.140664 0.029343
v 0.091571 0.090928 0.029377
v 0.094796 0.131237 0.028919
v 0.095751 0.121809 0.028925
v 0.096361 0.112382 0.028932
v 0.096191 0.102955 0.028938
v 0.086952 0.102955 0.028938
v 0.086782 0.112382 0.028932
v 0.087392 0.121809 0.028925
v 0.088347 0.131237 0.028919
v 0.091571 0.131236 0.029349
v 0.091571 0.121809 0.029356
v 0.091571 0.112382 0.029362
v 0.091571 0.102954 0.029369
vn 0.0000 0.0053 -1.0000
vn -0.1050 0.0048 -0.9944
vn -0.1216 0.0105 -0.9925
vn 0.0000 0.0105 -0.9999
vn 0.1050 0.0048 -0.9944
vn 0.1216 0.0105 -0.9925
vn 0.0000 -0.0120 -0.9999
vn -0.1644 -0.0119 -0.9863
vn -0.1380 -0.0090 -0.9904
vn 0.0000 -0.0093 -0.9999
vn -0.1050 -0.0051 -0.9944
vn 0.0000 -0.0052 -1.0000
vn -0.0933 -0.0018 -0.9956
vn 0.0000 -0.0018 -1.0000
vn 0.1644 -0.0119 -0.9863
vn 0.1380 -0.0090 -0.9904
vn 0.1050 -0.0051 -0.9944
vn 0.0933 -0.0018 -0.9956
usemtl feather_002
s 1
f 18//1 10//2 3//3 6//4
f 11//5 18//1 6//4 4//6
f 5//7 1//8 7//9 15//10
f 15//10 7//9 8//11 16//12
f 16//12 8//11 9//13 17//14
f 17//14 9//13 10//2 18//1
f 2//15 5//7 15//10 14//16
f 14//16 15//10 16//12 13//17
f 13//17 16//12 17//14 12//18
f 12//18 17//14 18//1 11//5
