# Blender v2.79 (sub 0) OBJ File: 'pigeon_base_mesh_BI.blend'
# www.blender.org
mtllib pigeon_feather_flight_primary_011.mtl
o feather_flight_primary_011
v 0.152166 0.136842 0.028371
v 0.146482 0.136544 0.028371
v 0.157698 0.053684 0.028169
v 0.149673 0.053264 0.028169
v 0.149116 0.140664 0.028800
v 0.153852 0.050303 0.028816
v 0.154401 0.123766 0.028373
v 0.156597 0.106706 0.028376
v 0.158325 0.089622 0.028379
v 0.158992 0.072482 0.028382
v 0.146421 0.071823 0.028382
v 0.145293 0.088939 0.028379
v 0.145225 0.106110 0.028376
v 0.145627 0.123306 0.028373
v 0.150014 0.123536 0.028803
v 0.150911 0.106408 0.028806
v 0.151809 0.089280 0.028809
v 0.152707 0.072152 0.028812
vn -0.0003 0.0057 -1.0000
vn -0.0864 0.0009 -0.9962
vn -0.1076 0.0055 -0.9942
vn -0.0006 0.0111 -0.9999
vn 0.0858 0.0099 -0.9962
vn 0.1065 0.0167 -0.9942
vn 0.0003 -0.0064 -1.0000
vn -0.1209 -0.0127 -0.9926
vn -0.1017 -0.0101 -0.9948
vn 0.0002 -0.0049 -1.0000
vn -0.0771 -0.0066 -0.9970
vn 0.0001 -0.0026 -1.0000
vn -0.0685 -0.0044 -0.9976
vn 0.0000 -0.0008 -1.0000
vn 0.1216 0.0000 -0.9926
vn 0.1022 0.0005 -0.9948
vn 0.0774 0.0014 -0.9970
vn 0.0686 0.0028 -0.9976
usemtl feather_003
s 1
f 18//1 10//2 3//3 6//4
f 11//5 18//1 6//4 4//6
f 5//7 1//8 7//9 15//10
f 15//10 7//9 8//11 16//12
f 16//12 8//11 9//13 17//14
f 17//14 9//13 10//2 18//1
f 2//15 5//7 15//10 14//16
f 14//16 15//10 16//12 13//17
f 13//17 16//12 17//14 12//18
f 12//18 17//14 18//1 11//5
