# Blender v2.79 (sub 0) OBJ File: 'pigeon_base_mesh_BI.blend'
# www.blender.org
mtllib pigeon_feather_flight_tertiary_079.mtl
o feather_flight_tertiary_079
v 0.209324 0.141229 0.027184
v 0.207564 0.139277 0.027184
v 0.218562 0.133544 0.027184
v 0.216159 0.130880 0.027184
v 0.207988 0.140664 0.026753
v 0.218358 0.131312 0.026753
v 0.211313 0.140398 0.027184
v 0.213681 0.139072 0.027184
v 0.215904 0.137584 0.027184
v 0.217798 0.135732 0.027184
v 0.213903 0.131414 0.027184
v 0.211866 0.133108 0.027184
v 0.210158 0.135165 0.027184
v 0.208595 0.137384 0.027184
v 0.209954 0.138891 0.026753
v 0.211919 0.137119 0.026753
v 0.213885 0.135346 0.026753
v 0.215850 0.133573 0.026753
vn 0.0159 -0.0143 -0.9998
vn 0.1220 0.1092 -0.9865
vn 0.1570 0.1154 -0.9808
vn 0.0297 -0.0268 -0.9992
vn -0.0960 -0.1326 -0.9865
vn -0.0986 -0.1680 -0.9808
vn -0.0300 0.0271 -0.9992
vn 0.1423 0.2162 -0.9659
vn 0.1212 0.1765 -0.9768
vn -0.0227 0.0205 -0.9995
vn 0.0988 0.1323 -0.9863
vn -0.0119 0.0107 -0.9998
vn 0.0958 0.1119 -0.9891
vn -0.0030 0.0027 -1.0000
vn -0.2004 -0.1639 -0.9659
vn -0.1631 -0.1387 -0.9768
vn -0.1214 -0.1119 -0.9863
vn -0.1014 -0.1068 -0.9891
usemtl feather_001
s 1
f 18//1 10//2 3//3 6//4
f 11//5 18//1 6//4 4//6
f 5//7 1//8 7//9 15//10
f 15//10 7//9 8//11 16//12
f 16//12 8//11 9//13 17//14
f 17//14 9//13 10//2 18//1
f 2//15 5//7 15//10 14//16
f 14//16 15//10 16//12 13//17
f 13//17 16//12 17//14 12//18
f 12//18 17//14 18//1 11//5
