# Blender v2.79 (sub 0) OBJ File: 'python_base_mesh_BI.blend'
# www.blender.org
mtllib python_eye.mtl
o eye
v 0.059424 0.080326 1.366347
v 0.053412 0.087459 1.364542
v 0.045325 0.091654 1.361839
v 0.036395 0.092271 1.358652
v 0.027980 0.089216 1.355464
v 0.021363 0.082955 1.352762
v 0.017550 0.074441 1.350956
v 0.060731 0.079793 1.362996
v 0.055827 0.086475 1.358349
v 0.048480 0.090368 1.353748
v 0.039809 0.090879 1.349894
v 0.031135 0.087930 1.347373
v 0.023777 0.081971 1.346569
v 0.018856 0.073908 1.347605
v 0.062036 0.077936 1.360155
v 0.058238 0.083044 1.353099
v 0.051631 0.085885 1.346889
v 0.043220 0.086027 1.342470
v 0.034286 0.083448 1.340514
v 0.026189 0.078540 1.341320
v 0.020162 0.072051 1.344764
v 0.017122 0.064969 1.350322
v 0.063141 0.075038 1.358256
v 0.060280 0.077690 1.349591
v 0.054299 0.078889 1.342306
v 0.046108 0.078454 1.337509
v 0.036954 0.076451 1.335931
v 0.028231 0.073185 1.337812
v 0.021267 0.069153 1.342865
v 0.063878 0.071540 1.357590
v 0.061641 0.071226 1.348360
v 0.056077 0.070444 1.340696
v 0.048032 0.069313 1.335767
v 0.038732 0.068006 1.334321
v 0.029592 0.066722 1.336580
v 0.022003 0.065655 1.342199
v 0.064134 0.067975 1.358256
v 0.062114 0.064638 1.349591
v 0.056695 0.061836 1.342306
v 0.048702 0.059996 1.337509
v 0.039350 0.059398 1.335931
v 0.030065 0.060133 1.337812
v 0.022259 0.062090 1.342865
v 0.062446 0.071339 1.366981
v 0.063870 0.064884 1.360155
v 0.061628 0.058928 1.353099
v 0.056059 0.054375 1.346889
v 0.048013 0.051921 1.342470
v 0.038714 0.051938 1.340514
v 0.029578 0.054423 1.341320
v 0.021996 0.058999 1.344764
v 0.063128 0.062740 1.362996
v 0.060255 0.054965 1.358349
v 0.054266 0.049198 1.353748
v 0.046072 0.046317 1.349894
v 0.036921 0.046760 1.347373
v 0.028206 0.050461 1.346569
v 0.021253 0.056855 1.347605
v 0.062018 0.061868 1.366347
v 0.058205 0.053353 1.364542
v 0.051588 0.047092 1.361839
v 0.043173 0.044038 1.358652
v 0.034243 0.044654 1.355464
v 0.026156 0.048849 1.352762
v 0.020144 0.055983 1.350956
v 0.060712 0.062400 1.369699
v 0.055791 0.054338 1.370734
v 0.048433 0.048378 1.369931
v 0.039759 0.045430 1.367410
v 0.031088 0.045941 1.363555
v 0.023742 0.049833 1.358955
v 0.018837 0.056515 1.354308
v 0.059406 0.064257 1.372540
v 0.053379 0.057768 1.375984
v 0.045282 0.052861 1.376790
v 0.036348 0.050281 1.374834
v 0.027937 0.050423 1.370415
v 0.021330 0.053264 1.364205
v 0.017532 0.058372 1.357149
v 0.058301 0.067155 1.374438
v 0.051337 0.063123 1.379492
v 0.042614 0.059857 1.381373
v 0.033461 0.057854 1.379795
v 0.025269 0.057419 1.374998
v 0.019288 0.058619 1.367712
v 0.016427 0.061270 1.359048
v 0.057565 0.070653 1.375105
v 0.049976 0.069587 1.380724
v 0.040836 0.068302 1.382982
v 0.031536 0.066995 1.381537
v 0.023491 0.065864 1.376607
v 0.017927 0.065082 1.368944
v 0.015690 0.064768 1.359714
v 0.057309 0.074219 1.374438
v 0.049503 0.076175 1.379492
v 0.040218 0.076910 1.381373
v 0.030867 0.076312 1.379795
v 0.022873 0.074472 1.374998
v 0.017454 0.071671 1.367712
v 0.015434 0.068334 1.359048
v 0.057572 0.077309 1.372540
v 0.049990 0.081885 1.375984
v 0.040854 0.084371 1.376790
v 0.031555 0.084388 1.374834
v 0.023509 0.081933 1.370415
v 0.017941 0.077381 1.364205
v 0.015698 0.071424 1.357149
v 0.058315 0.079454 1.369699
v 0.051363 0.085848 1.370734
v 0.042647 0.089548 1.369931
v 0.033496 0.089992 1.367410
v 0.025302 0.087110 1.363555
v 0.019313 0.081343 1.358955
v 0.016441 0.073568 1.354308
vn 0.2193 0.9672 0.1280
vn 0.5468 0.8028 0.2377
vn 0.6476 0.7617 -0.0207
vn 0.3493 0.9142 -0.2054
vn -0.9305 -0.1308 -0.3420
vn -0.9077 0.2795 -0.3130
vn -0.8512 0.2564 -0.4580
vn -0.7469 0.6209 -0.2377
vn -0.4774 0.8693 -0.1280
vn -0.3474 0.8163 -0.4615
vn -0.6461 0.5799 -0.4962
vn -0.1392 0.9903 0.0000
vn 0.0010 0.9331 -0.3596
vn 0.7955 0.5188 0.3130
vn 0.8520 0.4958 0.1680
vn -0.2175 0.6316 -0.7442
vn -0.5455 0.4366 -0.7154
vn 0.4792 0.7295 -0.4881
vn 0.1411 0.7339 -0.6644
vn 0.9084 0.4155 0.0451
vn 0.7483 0.6185 -0.2399
vn -0.7947 0.1761 -0.5808
vn -0.4602 0.2131 -0.8618
vn -0.7469 0.0508 -0.6629
vn 0.2597 0.4229 -0.8682
vn -0.1076 0.3432 -0.9330
vn 0.8335 0.3949 -0.3863
vn 0.5891 0.4411 -0.6770
vn 0.9562 0.2901 -0.0369
vn 0.3387 0.0476 -0.9397
vn -0.0343 -0.0048 -0.9994
vn 0.8903 0.1251 -0.4377
vn 0.6624 0.0931 -0.7433
vn -0.7150 -0.1005 -0.6918
vn -0.4034 -0.0567 -0.9132
vn 0.9881 0.1389 -0.0658
vn -0.7040 -0.2547 -0.6630
vn -0.0088 -0.3596 -0.9330
vn -0.3836 -0.3317 -0.8618
vn 0.6879 -0.2616 -0.6770
vn 0.3662 -0.3350 -0.8682
vn 0.9992 -0.0153 -0.0369
vn 0.9101 -0.1499 -0.3863
vn 0.6617 -0.5691 -0.4881
vn 0.3379 -0.6666 -0.6644
vn 0.9878 -0.1490 0.0451
vn 0.8898 -0.3882 -0.2399
vn -0.4039 -0.5701 -0.7154
vn -0.7154 -0.3883 -0.5808
vn -0.0350 -0.6670 -0.7442
vn -0.4613 -0.7355 -0.4962
vn -0.7475 -0.4811 -0.4579
vn 0.2582 -0.8967 -0.3596
vn -0.1090 -0.8804 -0.4615
vn 0.8325 -0.5537 -0.0207
vn 0.5878 -0.7825 -0.2054
vn 0.9557 -0.2417 0.1680
vn 0.7469 -0.6209 0.2377
vn 0.4774 -0.8693 0.1280
vn -0.7955 -0.5188 -0.3130
vn -0.2193 -0.9672 -0.1280
vn -0.5468 -0.8028 -0.2377
vn 0.1392 -0.9903 0.0000
vn 0.9077 -0.2795 0.3130
vn -0.8520 -0.4958 -0.1680
vn -0.3493 -0.9142 0.2054
vn -0.6476 -0.7617 0.0207
vn 0.3474 -0.8163 0.4615
vn -0.0010 -0.9331 0.3596
vn 0.8512 -0.2564 0.4580
vn 0.6461 -0.5799 0.4962
vn 0.7947 -0.1761 0.5808
vn 0.5455 -0.4366 0.7154
vn -0.7483 -0.6185 0.2399
vn -0.9084 -0.4155 -0.0451
vn -0.1411 -0.7339 0.6644
vn -0.4792 -0.7295 0.4881
vn 0.2175 -0.6316 0.7442
vn -0.8335 -0.3949 0.3863
vn -0.9562 -0.2901 0.0369
vn -0.2596 -0.4229 0.8682
vn -0.5891 -0.4411 0.6770
vn 0.4602 -0.2131 0.8618
vn 0.1076 -0.3432 0.9330
vn 0.7469 -0.0508 0.6630
vn -0.9881 -0.1389 0.0658
vn -0.6624 -0.0931 0.7433
vn -0.8903 -0.1251 0.4377
vn 0.0343 0.0048 0.9994
vn -0.3387 -0.0476 0.9397
vn 0.7150 0.1005 0.6918
vn 0.4034 0.0567 0.9133
vn -0.6879 0.2617 0.6770
vn -0.9101 0.1499 0.3863
vn 0.0088 0.3596 0.9330
vn -0.3662 0.3350 0.8682
vn 0.7040 0.2547 0.6630
vn 0.3836 0.3317 0.8618
vn -0.9992 0.0153 0.0369
vn -0.8898 0.3882 0.2399
vn -0.9878 0.1490 -0.0451
vn -0.3379 0.6666 0.6644
vn -0.6617 0.5691 0.4881
vn 0.4039 0.5701 0.7154
vn 0.0350 0.6670 0.7442
vn 0.7154 0.3883 0.5808
vn -0.2582 0.8967 0.3596
vn -0.5878 0.7825 0.2054
vn 0.4613 0.7355 0.4962
vn 0.1089 0.8804 0.4615
vn -0.9557 0.2417 -0.1680
vn -0.8325 0.5537 0.0207
vn 0.7475 0.4811 0.4579
vn 0.9305 0.1308 0.3420
usemtl eyes_iris
s 1
f 3//1 2//2 9//3 10//4
f 22//5 7//6 14//7
f 6//8 5//9 12//10 13//11
f 4//12 3//1 10//4 11//13
f 2//2 1//14 8//15 9//3
f 7//6 6//8 13//11 14//7
f 5//9 4//12 11//13 12//10
f 13//11 12//10 19//16 20//17
f 11//13 10//4 17//18 18//19
f 9//3 8//15 15//20 16//21
f 14//7 13//11 20//17 21//22
f 12//10 11//13 18//19 19//16
f 10//4 9//3 16//21 17//18
f 22//5 14//7 21//22
f 21//22 20//17 28//23 29//24
f 19//16 18//19 26//25 27//26
f 17//18 16//21 24//27 25//28
f 22//5 21//22 29//24
f 20//17 19//16 27//26 28//23
f 18//19 17//18 25//28 26//25
f 16//21 15//20 23//29 24//27
f 27//26 26//25 33//30 34//31
f 25//28 24//27 31//32 32//33
f 22//5 29//24 36//34
f 28//23 27//26 34//31 35//35
f 26//25 25//28 32//33 33//30
f 24//27 23//29 30//36 31//32
f 29//24 28//23 35//35 36//34
f 22//5 36//34 43//37
f 35//35 34//31 41//38 42//39
f 33//30 32//33 39//40 40//41
f 31//32 30//36 37//42 38//43
f 36//34 35//35 42//39 43//37
f 34//31 33//30 40//41 41//38
f 32//33 31//32 38//43 39//40
f 40//41 39//40 47//44 48//45
f 38//43 37//42 45//46 46//47
f 43//37 42//39 50//48 51//49
f 41//38 40//41 48//45 49//50
f 39//40 38//43 46//47 47//44
f 22//5 43//37 51//49
f 42//39 41//38 49//50 50//48
f 51//49 50//48 57//51 58//52
f 49//50 48//45 55//53 56//54
f 47//44 46//47 53//55 54//56
f 22//5 51//49 58//52
f 50//48 49//50 56//54 57//51
f 48//45 47//44 54//56 55//53
f 46//47 45//46 52//57 53//55
f 54//56 53//55 60//58 61//59
f 22//5 58//52 65//60
f 57//51 56//54 63//61 64//62
f 55//53 54//56 61//59 62//63
f 53//55 52//57 59//64 60//58
f 58//52 57//51 64//62 65//60
f 56//54 55//53 62//63 63//61
f 22//5 65//60 72//65
f 64//62 63//61 70//66 71//67
f 62//63 61//59 68//68 69//69
f 60//58 59//64 66//70 67//71
f 65//60 64//62 71//67 72//65
f 63//61 62//63 69//69 70//66
f 61//59 60//58 67//71 68//68
f 67//71 66//70 73//72 74//73
f 72//65 71//67 78//74 79//75
f 70//66 69//69 76//76 77//77
f 68//68 67//71 74//73 75//78
f 22//5 72//65 79//75
f 71//67 70//66 77//77 78//74
f 69//69 68//68 75//78 76//76
f 79//75 78//74 85//79 86//80
f 77//77 76//76 83//81 84//82
f 75//78 74//73 81//83 82//84
f 22//5 79//75 86//80
f 78//74 77//77 84//82 85//79
f 76//76 75//78 82//84 83//81
f 74//73 73//72 80//85 81//83
f 22//5 86//80 93//86
f 85//79 84//82 91//87 92//88
f 83//81 82//84 89//89 90//90
f 81//83 80//85 87//91 88//92
f 86//80 85//79 92//88 93//86
f 84//82 83//81 90//90 91//87
f 82//84 81//83 88//92 89//89
f 92//88 91//87 98//93 99//94
f 90//90 89//89 96//95 97//96
f 88//92 87//91 94//97 95//98
f 93//86 92//88 99//94 100//99
f 91//87 90//90 97//96 98//93
f 89//89 88//92 95//98 96//95
f 22//5 93//86 100//99
f 100//99 99//94 106//100 107//101
f 98//93 97//96 104//102 105//103
f 96//95 95//98 102//104 103//105
f 22//5 100//99 107//101
f 99//94 98//93 105//103 106//100
f 97//96 96//95 103//105 104//102
f 95//98 94//97 101//106 102//104
f 105//103 104//102 111//107 112//108
f 103//105 102//104 109//109 110//110
f 22//5 107//101 114//111
f 106//100 105//103 112//108 113//112
f 104//102 103//105 110//110 111//107
f 102//104 101//106 108//113 109//109
f 107//101 106//100 113//112 114//111
f 22//5 114//111 7//6
f 113//112 112//108 5//9 6//8
f 111//107 110//110 3//1 4//12
f 109//109 108//113 1//14 2//2
f 114//111 113//112 6//8 7//6
f 112//108 111//107 4//12 5//9
f 110//110 109//109 2//2 3//1
usemtl eyes_pupil
f 1//14 44//114 8//15
f 8//15 44//114 15//20
f 15//20 44//114 23//29
f 23//29 44//114 30//36
f 30//36 44//114 37//42
f 37//42 44//114 45//46
f 45//46 44//114 52//57
f 52//57 44//114 59//64
f 59//64 44//114 66//70
f 66//70 44//114 73//72
f 73//72 44//114 80//85
f 80//85 44//114 87//91
f 87//91 44//114 94//97
f 94//97 44//114 101//106
f 101//106 44//114 108//113
f 108//113 44//114 1//14
