# Blender v2.79 (sub 0) OBJ File: 'quail_base_mesh_BI.blend'
# www.blender.org
mtllib quail_feather_flight_tertiary_035.mtl
o feather_flight_tertiary_035
v 0.118628 0.105150 0.023168
v 0.117491 0.104281 0.023168
v 0.123045 0.099800 0.023168
v 0.121493 0.098614 0.023168
v 0.117845 0.104997 0.023403
v 0.122740 0.098591 0.023403
v 0.119650 0.104453 0.023168
v 0.120838 0.103438 0.023168
v 0.121932 0.102350 0.023168
v 0.122814 0.101101 0.023168
v 0.120298 0.099179 0.023168
v 0.119324 0.100358 0.023168
v 0.118562 0.101699 0.023168
v 0.117895 0.103112 0.023168
v 0.118772 0.103782 0.023403
v 0.119700 0.102568 0.023403
v 0.120628 0.101354 0.023403
v 0.121556 0.100140 0.023403
vn -0.0122 0.0160 -0.9998
vn -0.1397 -0.0857 -0.9864
vn -0.1742 -0.0865 -0.9809
vn -0.0229 0.0300 -0.9993
vn 0.1194 0.1122 -0.9864
vn 0.1292 0.1453 -0.9809
vn 0.0231 -0.0303 -0.9993
vn -0.1810 -0.1847 -0.9660
vn -0.1527 -0.1503 -0.9767
vn 0.0175 -0.0229 -0.9996
vn -0.1220 -0.1113 -0.9862
vn 0.0092 -0.0120 -0.9999
vn -0.1148 -0.0922 -0.9891
vn 0.0023 -0.0030 -1.0000
vn 0.2257 0.1261 -0.9660
vn 0.1851 0.1079 -0.9767
vn 0.1395 0.0885 -0.9862
vn 0.1192 0.0866 -0.9891
usemtl feather_004
s 1
f 18//1 10//2 3//3 6//4
f 11//5 18//1 6//4 4//6
f 5//7 1//8 7//9 15//10
f 15//10 7//9 8//11 16//12
f 16//12 8//11 9//13 17//14
f 17//14 9//13 10//2 18//1
f 2//15 5//7 15//10 14//16
f 14//16 15//10 16//12 13//17
f 13//17 16//12 17//14 12//18
f 12//18 17//14 18//1 11//5
