# Blender v2.79 (sub 0) OBJ File: 'quail_base_mesh_BI.blend'
# www.blender.org
mtllib quail_feather_flight_primary_017.mtl
o feather_flight_primary_017
v 0.116032 0.103912 0.022577
v 0.112976 0.101690 0.022577
v 0.149746 0.057286 0.022585
v 0.141941 0.059941 0.022584
v 0.112911 0.104995 0.022811
v 0.149156 0.055072 0.022820
v 0.122140 0.097247 0.022578
v 0.129708 0.088292 0.022580
v 0.137025 0.079153 0.022582
v 0.143771 0.069600 0.022583
v 0.137013 0.064686 0.022583
v 0.130018 0.074059 0.022582
v 0.123594 0.083846 0.022580
v 0.117422 0.093817 0.022578
v 0.119781 0.095532 0.022812
v 0.126651 0.086069 0.022814
v 0.133522 0.076606 0.022816
v 0.140392 0.067143 0.022818
vn -0.0037 0.0006 -1.0000
vn -0.0559 -0.0366 -0.9977
vn -0.0687 -0.0417 -0.9968
vn -0.0341 -0.0176 -0.9992
vn 0.0490 0.0379 -0.9981
vn 0.0543 0.0440 -0.9975
vn 0.0030 -0.0042 -1.0000
vn -0.0778 -0.0628 -0.9950
vn -0.0657 -0.0524 -0.9965
vn 0.0023 -0.0032 -1.0000
vn -0.0502 -0.0390 -0.9980
vn 0.0012 -0.0017 -1.0000
vn -0.0452 -0.0336 -0.9984
vn 0.0004 -0.0005 -1.0000
vn 0.0838 0.0545 -0.9950
vn 0.0702 0.0462 -0.9965
vn 0.0526 0.0356 -0.9980
vn 0.0460 0.0326 -0.9984
usemtl feather_006
s 1
f 18//1 10//2 3//3 6//4
f 11//5 18//1 6//4 4//6
f 5//7 1//8 7//9 15//10
f 15//10 7//9 8//11 16//12
f 16//12 8//11 9//13 17//14
f 17//14 9//13 10//2 18//1
f 2//15 5//7 15//10 14//16
f 14//16 15//10 16//12 13//17
f 13//17 16//12 17//14 12//18
f 12//18 17//14 18//1 11//5
