# Blender v2.79 (sub 0) OBJ File: 'quail_base_mesh_BI.blend'
# www.blender.org
mtllib quail_feather_flight_secondary_010.mtl
o feather_flight_secondary_010
v 0.085468 0.104067 0.022872
v 0.083059 0.103991 0.022872
v 0.086634 0.085146 0.022872
v 0.083347 0.085041 0.022872
v 0.084226 0.104997 0.023106
v 0.085072 0.082975 0.023106
v 0.086246 0.100882 0.022872
v 0.086957 0.096725 0.022872
v 0.087469 0.092562 0.022872
v 0.087531 0.088385 0.022872
v 0.082204 0.088215 0.022872
v 0.081945 0.092386 0.022872
v 0.082137 0.096572 0.022872
v 0.082527 0.100763 0.022872
v 0.084386 0.100823 0.023106
v 0.084547 0.096648 0.023106
v 0.084707 0.092474 0.023106
v 0.084867 0.088300 0.023106
vn -0.0002 0.0074 -1.0000
vn -0.0990 0.0028 -0.9951
vn -0.1151 0.0093 -0.9933
vn -0.0009 0.0138 -0.9999
vn 0.0984 0.0104 -0.9951
vn 0.1143 0.0181 -0.9933
vn 0.0011 -0.0139 -0.9999
vn -0.1549 -0.0197 -0.9877
vn -0.1293 -0.0151 -0.9915
vn 0.0002 -0.0106 -0.9999
vn -0.0987 -0.0092 -0.9951
vn 0.0001 -0.0055 -1.0000
vn -0.0880 -0.0047 -0.9961
vn 0.0000 -0.0014 -1.0000
vn 0.1557 -0.0078 -0.9878
vn 0.1301 -0.0052 -0.9915
vn 0.0992 -0.0016 -0.9951
vn 0.0881 0.0020 -0.9961
usemtl feather_005
s 1
f 18//1 10//2 3//3 6//4
f 11//5 18//1 6//4 4//6
f 5//7 1//8 7//9 15//10
f 15//10 7//9 8//11 16//12
f 16//12 8//11 9//13 17//14
f 17//14 9//13 10//2 18//1
f 2//15 5//7 15//10 14//16
f 14//16 15//10 16//12 13//17
f 13//17 16//12 17//14 12//18
f 12//18 17//14 18//1 11//5
