# Blender v2.79 (sub 0) OBJ File: 'quail_base_mesh_BI.blend'
# www.blender.org
mtllib quail_feather_flight_tertiary_036.mtl
o feather_flight_tertiary_036
v 0.120773 0.105270 0.023168
v 0.119733 0.104286 0.023168
v 0.125561 0.100592 0.023168
v 0.124143 0.099249 0.023168
v 0.120018 0.105026 0.023403
v 0.125366 0.099377 0.023403
v 0.121834 0.104715 0.023168
v 0.123085 0.103869 0.023168
v 0.124251 0.102942 0.023168
v 0.125223 0.101831 0.023168
v 0.122924 0.099655 0.023168
v 0.121868 0.100686 0.023168
v 0.121006 0.101900 0.023168
v 0.120229 0.103196 0.023168
v 0.121032 0.103955 0.023403
v 0.122046 0.102885 0.023403
v 0.123059 0.101814 0.023403
v 0.124073 0.100743 0.023403
vn -0.0144 0.0152 -0.9998
vn -0.1301 -0.0995 -0.9865
vn -0.1650 -0.1033 -0.9808
vn -0.0269 0.0284 -0.9992
vn 0.1065 0.1245 -0.9865
vn 0.1122 0.1591 -0.9808
vn 0.0272 -0.0287 -0.9992
vn -0.1596 -0.2037 -0.9659
vn -0.1352 -0.1661 -0.9768
vn 0.0206 -0.0217 -0.9995
vn -0.1092 -0.1239 -0.9862
vn 0.0107 -0.0114 -0.9998
vn -0.1044 -0.1039 -0.9891
vn 0.0027 -0.0029 -1.0000
vn 0.2121 0.1482 -0.9659
vn 0.1732 0.1260 -0.9768
vn 0.1297 0.1023 -0.9862
vn 0.1094 0.0985 -0.9891
usemtl feather_004
s 1
f 18//1 10//2 3//3 6//4
f 11//5 18//1 6//4 4//6
f 5//7 1//8 7//9 15//10
f 15//10 7//9 8//11 16//12
f 16//12 8//11 9//13 17//14
f 17//14 9//13 10//2 18//1
f 2//15 5//7 15//10 14//16
f 14//16 15//10 16//12 13//17
f 13//17 16//12 17//14 12//18
f 12//18 17//14 18//1 11//5
