# Blender v2.79 (sub 0) OBJ File: 'quail_base_mesh_BI.blend'
# www.blender.org
mtllib quail_feather_flight_secondary_012.mtl
o feather_flight_secondary_012
v 0.095445 0.104109 0.022872
v 0.093165 0.103869 0.022872
v 0.097932 0.084442 0.022872
v 0.094821 0.084115 0.022872
v 0.094199 0.104997 0.023106
v 0.096608 0.082073 0.023106
v 0.096415 0.100836 0.022872
v 0.097393 0.096546 0.022872
v 0.098182 0.092236 0.022872
v 0.098546 0.087881 0.022872
v 0.093505 0.087351 0.022872
v 0.092956 0.091687 0.022872
v 0.092832 0.096067 0.022872
v 0.092896 0.100467 0.022872
v 0.094656 0.100652 0.023106
v 0.095112 0.096306 0.023106
v 0.095569 0.091961 0.023106
v 0.096026 0.087616 0.023106
vn -0.0007 0.0070 -1.0000
vn -0.1041 -0.0045 -0.9945
vn -0.1213 0.0004 -0.9926
vn -0.0014 0.0131 -0.9999
vn 0.1027 0.0172 -0.9945
vn 0.1186 0.0256 -0.9926
vn 0.0014 -0.0132 -0.9999
vn -0.1610 -0.0302 -0.9865
vn -0.1348 -0.0239 -0.9906
vn 0.0010 -0.0100 -0.9999
vn -0.1030 -0.0160 -0.9945
vn 0.0005 -0.0052 -1.0000
vn -0.0920 -0.0110 -0.9957
vn 0.0001 -0.0013 -1.0000
vn 0.1637 0.0040 -0.9865
vn 0.1369 0.0046 -0.9906
vn 0.1041 0.0057 -0.9945
vn 0.0922 0.0084 -0.9957
usemtl feather_005
s 1
f 18//1 10//2 3//3 6//4
f 11//5 18//1 6//4 4//6
f 5//7 1//8 7//9 15//10
f 15//10 7//9 8//11 16//12
f 16//12 8//11 9//13 17//14
f 17//14 9//13 10//2 18//1
f 2//15 5//7 15//10 14//16
f 14//16 15//10 16//12 13//17
f 13//17 16//12 17//14 12//18
f 12//18 17//14 18//1 11//5
