# Blender v2.79 (sub 0) OBJ File: 'quail_base_mesh_BI.blend'
# www.blender.org
mtllib quail_feather_flight_tertiary_073.mtl
o feather_flight_tertiary_073
v 0.110803 0.104837 0.022231
v 0.109457 0.104350 0.022231
v 0.113905 0.097029 0.022231
v 0.112068 0.096365 0.022231
v 0.109984 0.104997 0.021996
v 0.113306 0.095814 0.021996
v 0.111653 0.103632 0.022231
v 0.112590 0.102003 0.022231
v 0.113416 0.100333 0.022231
v 0.113991 0.098573 0.022231
v 0.111014 0.097496 0.022231
v 0.110330 0.099216 0.022231
v 0.109897 0.101028 0.022231
v 0.109575 0.102880 0.022231
v 0.110614 0.103256 0.021996
v 0.111244 0.101515 0.021996
v 0.111873 0.099775 0.021996
v 0.112503 0.098034 0.021996
vn 0.0056 -0.0157 -0.9998
vn 0.1589 0.0423 -0.9864
vn 0.1899 0.0362 -0.9811
vn 0.0106 -0.0293 -0.9995
vn -0.1492 -0.0691 -0.9864
vn -0.1691 -0.0937 -0.9811
vn -0.0107 0.0296 -0.9995
vn 0.2304 0.1157 -0.9662
vn 0.1934 0.0936 -0.9766
vn -0.0081 0.0224 -0.9997
vn 0.1509 0.0673 -0.9862
vn -0.0042 0.0117 -0.9999
vn 0.1375 0.0529 -0.9891
vn -0.0011 0.0030 -1.0000
vn -0.2510 -0.0584 -0.9662
vn -0.2086 -0.0518 -0.9766
vn -0.1591 -0.0448 -0.9862
vn -0.1395 -0.0473 -0.9891
usemtl feather_004
s 1
f 18//1 10//2 3//3 6//4
f 11//5 18//1 6//4 4//6
f 5//7 1//8 7//9 15//10
f 15//10 7//9 8//11 16//12
f 16//12 8//11 9//13 17//14
f 17//14 9//13 10//2 18//1
f 2//15 5//7 15//10 14//16
f 14//16 15//10 16//12 13//17
f 13//17 16//12 17//14 12//18
f 12//18 17//14 18//1 11//5
