# Blender v2.79 (sub 0) OBJ File: 'quail_base_mesh_BI.blend'
# www.blender.org
mtllib quail_feather_flight_secondary_030.mtl
o feather_flight_secondary_030
v 0.080218 0.104063 0.022527
v 0.077610 0.104026 0.022527
v 0.081087 0.085437 0.022527
v 0.077528 0.085385 0.022527
v 0.078894 0.104997 0.022293
v 0.079352 0.083326 0.022293
v 0.080993 0.100918 0.022527
v 0.081676 0.096819 0.022527
v 0.082144 0.092717 0.022527
v 0.082125 0.088608 0.022527
v 0.076358 0.088525 0.022527
v 0.076165 0.092631 0.022527
v 0.076459 0.096744 0.022527
v 0.076968 0.100860 0.022527
v 0.078981 0.100889 0.022293
v 0.079067 0.096781 0.022293
v 0.079154 0.092674 0.022293
v 0.079241 0.088566 0.022293
vn 0.0000 -0.0075 -1.0000
vn 0.0913 -0.0048 -0.9958
vn 0.1064 -0.0117 -0.9942
vn 0.0006 -0.0140 -0.9999
vn -0.0910 -0.0085 -0.9958
vn -0.1060 -0.0162 -0.9942
vn -0.0009 0.0142 -0.9999
vn 0.1437 0.0171 -0.9895
vn 0.1196 0.0128 -0.9927
vn -0.0001 0.0107 -0.9999
vn 0.0914 0.0074 -0.9958
vn -0.0000 0.0056 -1.0000
vn 0.0814 0.0031 -0.9967
vn 0.0000 0.0014 -1.0000
vn -0.1441 0.0110 -0.9895
vn -0.1201 0.0078 -0.9927
vn -0.0916 0.0035 -0.9958
vn -0.0815 -0.0003 -0.9967
usemtl feather_005
s 1
f 18//1 10//2 3//3 6//4
f 11//5 18//1 6//4 4//6
f 5//7 1//8 7//9 15//10
f 15//10 7//9 8//11 16//12
f 16//12 8//11 9//13 17//14
f 17//14 9//13 10//2 18//1
f 2//15 5//7 15//10 14//16
f 14//16 15//10 16//12 13//17
f 13//17 16//12 17//14 12//18
f 12//18 17//14 18//1 11//5
