# Blender v2.79 (sub 0) OBJ File: 'quail_base_mesh_BI.blend'
# www.blender.org
mtllib quail_feather_tail_secondary_003.mtl
o feather_tail_secondary_003
v 0.008115 0.056097 -0.069575
v 0.003132 0.056097 -0.071469
v 0.005123 0.056926 -0.069207
v 0.010891 0.056097 -0.073506
v 0.013887 0.056097 -0.078860
v 0.004986 0.056097 -0.082244
v 0.003668 0.056097 -0.076252
v 0.007280 0.056926 -0.074879
v 0.009436 0.056926 -0.080552
v 0.020543 0.056097 -0.096622
v 0.019280 0.056097 -0.091562
v 0.016691 0.056097 -0.085170
v 0.007082 0.056097 -0.088823
v 0.009393 0.056097 -0.095320
v 0.011810 0.056097 -0.099942
v 0.016786 0.056926 -0.099886
v 0.014336 0.056926 -0.093441
v 0.011886 0.056926 -0.086997
vn -0.0103 0.9996 0.0271
vn 0.2251 0.9674 0.1156
vn 0.1949 0.9761 0.0956
vn -0.0076 0.9998 0.0201
vn 0.1614 0.9843 0.0709
vn -0.0033 0.9999 0.0088
vn -0.2451 0.9674 -0.0631
vn -0.2092 0.9761 -0.0580
vn -0.1677 0.9843 -0.0542
vn 0.1493 0.9870 0.0600
vn -0.0011 1.0000 0.0029
vn 0.1517 0.9869 0.0542
vn 0.0012 1.0000 -0.0032
vn 0.1577 0.9862 0.0509
vn 0.0030 0.9999 -0.0080
vn -0.1514 0.9870 -0.0543
vn -0.1494 0.9869 -0.0602
vn -0.1517 0.9862 -0.0667
usemtl feather_001.001
s 1
f 3//1 1//2 4//3 8//4
f 8//4 4//3 5//5 9//6
f 2//7 3//1 8//4 7//8
f 7//8 8//4 9//6 6//9
f 9//6 5//5 12//10 18//11
f 18//11 12//10 11//12 17//13
f 17//13 11//12 10//14 16//15
f 6//9 9//6 18//11 13//16
f 13//16 18//11 17//13 14//17
f 14//17 17//13 16//15 15//18
