# Blender v2.79 (sub 0) OBJ File: 'quail_base_mesh_BI.blend'
# www.blender.org
mtllib quail_feather_flight_tertiary_071.mtl
o feather_flight_tertiary_071
v 0.107070 0.104770 0.022231
v 0.105694 0.104373 0.022231
v 0.109725 0.096526 0.022231
v 0.107848 0.095983 0.022231
v 0.106259 0.104997 0.021996
v 0.109055 0.095324 0.021996
v 0.107851 0.103470 0.022231
v 0.108695 0.101727 0.022231
v 0.109426 0.099952 0.022231
v 0.109900 0.098103 0.022231
v 0.106858 0.097223 0.022231
v 0.106273 0.099041 0.022231
v 0.105943 0.100932 0.022231
v 0.105728 0.102856 0.022231
v 0.106789 0.103163 0.021996
v 0.107319 0.101330 0.021996
v 0.107849 0.099496 0.021996
v 0.108379 0.097663 0.021996
vn 0.0045 -0.0155 -0.9998
vn 0.1614 0.0322 -0.9864
vn 0.1917 0.0245 -0.9811
vn 0.0084 -0.0290 -0.9995
vn -0.1536 -0.0588 -0.9864
vn -0.1752 -0.0815 -0.9811
vn -0.0085 0.0293 -0.9995
vn 0.2377 0.0994 -0.9662
vn 0.1995 0.0801 -0.9766
vn -0.0064 0.0222 -0.9997
vn 0.1552 0.0569 -0.9862
vn -0.0033 0.0116 -0.9999
vn 0.1407 0.0437 -0.9891
vn -0.0008 0.0029 -1.0000
vn -0.2541 -0.0427 -0.9662
vn -0.2115 -0.0386 -0.9766
vn -0.1616 -0.0346 -0.9862
vn -0.1423 -0.0381 -0.9891
usemtl feather_004
s 1
f 18//1 10//2 3//3 6//4
f 11//5 18//1 6//4 4//6
f 5//7 1//8 7//9 15//10
f 15//10 7//9 8//11 16//12
f 16//12 8//11 9//13 17//14
f 17//14 9//13 10//2 18//1
f 2//15 5//7 15//10 14//16
f 14//16 15//10 16//12 13//17
f 13//17 16//12 17//14 12//18
f 12//18 17//14 18//1 11//5
