# Blender v2.79 (sub 0) OBJ File: 'quail_base_mesh_BI.blend'
# www.blender.org
mtllib quail_feather_flight_primary_018.mtl
o feather_flight_primary_018
v 0.120330 0.104484 0.022577
v 0.117496 0.101649 0.022577
v 0.161118 0.063508 0.022583
v 0.152765 0.064727 0.022582
v 0.116987 0.104993 0.022811
v 0.160810 0.061148 0.022817
v 0.127481 0.098871 0.022578
v 0.136435 0.091208 0.022579
v 0.145155 0.083311 0.022580
v 0.153347 0.074885 0.022581
v 0.147080 0.068614 0.022581
v 0.138658 0.076810 0.022580
v 0.130765 0.085535 0.022579
v 0.123106 0.094494 0.022578
v 0.125294 0.096682 0.022812
v 0.133600 0.088371 0.022813
v 0.141907 0.080060 0.022814
v 0.150213 0.071749 0.022816
vn -0.0036 0.0002 -1.0000
vn -0.0468 -0.0421 -0.9980
vn -0.0581 -0.0487 -0.9971
vn -0.0290 -0.0208 -0.9994
vn 0.0399 0.0426 -0.9983
vn 0.0439 0.0491 -0.9978
vn 0.0035 -0.0036 -1.0000
vn -0.0630 -0.0701 -0.9955
vn -0.0533 -0.0586 -0.9969
vn 0.0027 -0.0027 -1.0000
vn -0.0409 -0.0438 -0.9982
vn 0.0014 -0.0014 -1.0000
vn -0.0371 -0.0379 -0.9986
vn 0.0004 -0.0004 -1.0000
vn 0.0702 0.0630 -0.9955
vn 0.0586 0.0532 -0.9969
vn 0.0438 0.0409 -0.9982
vn 0.0380 0.0371 -0.9986
usemtl feather_006
s 1
f 18//1 10//2 3//3 6//4
f 11//5 18//1 6//4 4//6
f 5//7 1//8 7//9 15//10
f 15//10 7//9 8//11 16//12
f 16//12 8//11 9//13 17//14
f 17//14 9//13 10//2 18//1
f 2//15 5//7 15//10 14//16
f 14//16 15//10 16//12 13//17
f 13//17 16//12 17//14 12//18
f 12//18 17//14 18//1 11//5
