# Blender v2.79 (sub 0) OBJ File: 'quail_base_mesh_BI.blend'
# www.blender.org
mtllib quail_feather_tail_primary_002.mtl
o feather_tail_primary_002
v 0.007578 0.055297 -0.069401
v 0.003416 0.055297 -0.071629
v 0.034652 0.055297 -0.118256
v 0.029061 0.055297 -0.121249
v 0.004834 0.056066 -0.069277
v 0.033252 0.056066 -0.122359
v 0.010710 0.055297 -0.073004
v 0.014271 0.055297 -0.077971
v 0.031037 0.055297 -0.108039
v 0.033533 0.055297 -0.113575
v 0.025786 0.055297 -0.117723
v 0.022562 0.055297 -0.112575
v 0.006837 0.055297 -0.081951
v 0.004677 0.055297 -0.076234
v 0.007694 0.056066 -0.074619
v 0.010554 0.056066 -0.079961
v 0.026800 0.056066 -0.110307
v 0.029660 0.056066 -0.115649
v 0.027814 0.055297 -0.101955
v 0.024515 0.055297 -0.095913
v 0.021181 0.055297 -0.089889
v 0.017816 0.055297 -0.083882
v 0.009790 0.055297 -0.088179
v 0.012923 0.055297 -0.094310
v 0.016088 0.055297 -0.100424
v 0.019287 0.055297 -0.106521
v 0.023550 0.056066 -0.104238
v 0.020301 0.056066 -0.098169
v 0.017052 0.056066 -0.092099
v 0.013803 0.056066 -0.086030
vn 0.0063 0.9999 -0.0117
vn 0.1676 0.9829 0.0758
vn 0.1921 0.9781 0.0794
vn 0.0099 0.9998 -0.0186
vn -0.1560 0.9829 -0.0975
vn -0.1726 0.9781 -0.1158
vn -0.0127 0.9996 0.0237
vn 0.2193 0.9645 0.1469
vn 0.1907 0.9738 0.1234
vn -0.0094 0.9998 0.0176
vn 0.1585 0.9828 0.0943
vn -0.0041 0.9999 0.0077
vn -0.0001 1.0000 0.0001
vn 0.1389 0.9875 0.0745
vn 0.1433 0.9869 0.0734
vn 0.0014 1.0000 -0.0027
vn -0.2439 0.9645 -0.1010
vn -0.2084 0.9738 -0.0903
vn -0.1664 0.9828 -0.0796
vn -0.1390 0.9875 -0.0743
vn -0.1406 0.9869 -0.0786
vn 0.1470 0.9857 0.0819
vn -0.0014 1.0000 0.0026
vn 0.1424 0.9867 0.0777
vn -0.0006 1.0000 0.0012
vn 0.1398 0.9872 0.0758
vn -0.0004 1.0000 0.0008
vn -0.1497 0.9857 -0.0769
vn -0.1437 0.9867 -0.0754
vn -0.1407 0.9872 -0.0743
usemtl feather_006
s 1
f 18//1 10//2 3//3 6//4
f 11//5 18//1 6//4 4//6
f 5//7 1//8 7//9 15//10
f 15//10 7//9 8//11 16//12
f 27//13 19//14 9//15 17//16
f 17//16 9//15 10//2 18//1
f 2//17 5//7 15//10 14//18
f 14//18 15//10 16//12 13//19
f 26//20 27//13 17//16 12//21
f 12//21 17//16 18//1 11//5
f 16//12 8//11 22//22 30//23
f 30//23 22//22 21//24 29//25
f 29//25 21//24 20//26 28//27
f 28//27 20//26 19//14 27//13
f 13//19 16//12 30//23 23//28
f 23//28 30//23 29//25 24//29
f 24//29 29//25 28//27 25//30
f 25//30 28//27 27//13 26//20
