# Blender v2.79 (sub 0) OBJ File: 'quail_base_mesh_BI.blend'
# www.blender.org
mtllib quail_feather_flight_secondary_024.mtl
o feather_flight_secondary_024
v 0.049985 0.103731 0.022526
v 0.047710 0.103731 0.022526
v 0.050399 0.078959 0.022507
v 0.047295 0.078959 0.022507
v 0.048847 0.104996 0.022293
v 0.048847 0.076188 0.022270
v 0.050603 0.099536 0.022523
v 0.051123 0.094075 0.022519
v 0.051455 0.088614 0.022515
v 0.051362 0.083154 0.022510
v 0.046332 0.083154 0.022510
v 0.046240 0.088614 0.022515
v 0.046572 0.094075 0.022519
v 0.047092 0.099536 0.022523
v 0.048847 0.099536 0.022289
v 0.048847 0.094075 0.022284
v 0.048847 0.088614 0.022280
v 0.048847 0.083153 0.022276
vn 0.0000 -0.0049 -1.0000
vn 0.1051 -0.0044 -0.9944
vn 0.1216 -0.0097 -0.9925
vn 0.0000 -0.0098 -0.9999
vn -0.1051 -0.0044 -0.9944
vn -0.1216 -0.0097 -0.9925
vn 0.0000 0.0114 -0.9999
vn 0.1644 0.0113 -0.9863
vn 0.1381 0.0086 -0.9904
vn 0.0000 0.0089 -0.9999
vn 0.1050 0.0049 -0.9944
vn 0.0000 0.0050 -1.0000
vn 0.0933 0.0018 -0.9956
vn 0.0000 0.0019 -1.0000
vn -0.1644 0.0113 -0.9863
vn -0.1381 0.0086 -0.9904
vn -0.1050 0.0049 -0.9944
vn -0.0933 0.0018 -0.9956
usemtl feather_005
s 1
f 18//1 10//2 3//3 6//4
f 11//5 18//1 6//4 4//6
f 5//7 1//8 7//9 15//10
f 15//10 7//9 8//11 16//12
f 16//12 8//11 9//13 17//14
f 17//14 9//13 10//2 18//1
f 2//15 5//7 15//10 14//16
f 14//16 15//10 16//12 13//17
f 13//17 16//12 17//14 12//18
f 12//18 17//14 18//1 11//5
