# Blender v2.79 (sub 0) OBJ File: 'quail_base_mesh_BI.blend'
# www.blender.org
mtllib quail_feather_flight_primary_010.mtl
o feather_flight_primary_010
v 0.085832 0.102924 0.022577
v 0.082827 0.102820 0.022577
v 0.088005 0.058421 0.022468
v 0.083763 0.058273 0.022468
v 0.084255 0.104997 0.022811
v 0.085943 0.056651 0.022820
v 0.086894 0.095914 0.022578
v 0.087901 0.086774 0.022580
v 0.088660 0.077625 0.022582
v 0.088858 0.068457 0.022583
v 0.082213 0.068225 0.022583
v 0.081771 0.077384 0.022582
v 0.081890 0.086564 0.022580
v 0.082256 0.095752 0.022578
v 0.084575 0.095833 0.022812
v 0.084895 0.086669 0.022814
v 0.085215 0.077505 0.022816
v 0.085535 0.068341 0.022818
vn -0.0002 0.0058 -1.0000
vn -0.0890 0.0024 -0.9960
vn -0.1108 0.0074 -0.9938
vn -0.0004 0.0114 -0.9999
vn 0.0886 0.0086 -0.9960
vn 0.1100 0.0151 -0.9938
vn 0.0002 -0.0065 -1.0000
vn -0.1248 -0.0108 -0.9921
vn -0.1050 -0.0085 -0.9944
vn 0.0002 -0.0050 -1.0000
vn -0.0796 -0.0054 -0.9968
vn 0.0001 -0.0027 -1.0000
vn -0.0707 -0.0033 -0.9975
vn 0.0000 -0.0008 -1.0000
vn 0.1253 -0.0021 -0.9921
vn 0.1053 -0.0012 -0.9944
vn 0.0798 0.0001 -0.9968
vn 0.0707 0.0016 -0.9975
usemtl feather_006
s 1
f 18//1 10//2 3//3 6//4
f 11//5 18//1 6//4 4//6
f 5//7 1//8 7//9 15//10
f 15//10 7//9 8//11 16//12
f 16//12 8//11 9//13 17//14
f 17//14 9//13 10//2 18//1
f 2//15 5//7 15//10 14//16
f 14//16 15//10 16//12 13//17
f 13//17 16//12 17//14 12//18
f 12//18 17//14 18//1 11//5
