# Blender v2.79 (sub 0) OBJ File: 'quail_base_mesh_BI.blend'
# www.blender.org
mtllib quail_feather_tail_primary_003.mtl
o feather_tail_primary_003
v 0.008099 0.055056 -0.069586
v 0.003054 0.055056 -0.071403
v 0.027739 0.055056 -0.121384
v 0.020964 0.055056 -0.123825
v 0.005104 0.055884 -0.069184
v 0.025345 0.055884 -0.125363
v 0.010797 0.055056 -0.073520
v 0.013684 0.055056 -0.078868
v 0.025885 0.055056 -0.110757
v 0.027482 0.055056 -0.116570
v 0.018091 0.055056 -0.119953
v 0.015614 0.055056 -0.114458
v 0.004673 0.055056 -0.082115
v 0.003485 0.055056 -0.076155
v 0.007141 0.055884 -0.074838
v 0.009178 0.055884 -0.080491
v 0.020750 0.055884 -0.112608
v 0.022787 0.055884 -0.118261
v 0.023603 0.055056 -0.104322
v 0.021228 0.055056 -0.097921
v 0.018811 0.055056 -0.091535
v 0.016356 0.055056 -0.085162
v 0.006629 0.055056 -0.088667
v 0.008802 0.055056 -0.095141
v 0.011014 0.055056 -0.101601
v 0.013267 0.055056 -0.108046
v 0.018435 0.055884 -0.106184
v 0.016121 0.055884 -0.099761
v 0.013807 0.055884 -0.093338
v 0.011493 0.055884 -0.086915
vn 0.0049 0.9999 -0.0136
vn 0.1683 0.9846 0.0465
vn 0.1926 0.9802 0.0455
vn 0.0078 0.9997 -0.0215
vn -0.1593 0.9846 -0.0715
vn -0.1774 0.9802 -0.0878
vn -0.0099 0.9995 0.0276
vn 0.2257 0.9678 0.1115
vn 0.1953 0.9764 0.0919
vn -0.0074 0.9998 0.0205
vn 0.1616 0.9845 0.0678
vn -0.0032 0.9999 0.0089
vn -0.0000 1.0000 0.0002
vn 0.1408 0.9887 0.0509
vn 0.1450 0.9882 0.0489
vn 0.0011 1.0000 -0.0031
vn -0.2449 0.9678 -0.0581
vn -0.2091 0.9764 -0.0537
vn -0.1678 0.9845 -0.0508
vn -0.1409 0.9887 -0.0506
vn -0.1428 0.9882 -0.0548
vn 0.1494 0.9871 0.0571
vn -0.0011 1.0000 0.0030
vn 0.1445 0.9880 0.0536
vn -0.0005 1.0000 0.0014
vn 0.1419 0.9885 0.0521
vn -0.0003 1.0000 0.0009
vn -0.1515 0.9871 -0.0513
vn -0.1455 0.9880 -0.0509
vn -0.1425 0.9885 -0.0503
usemtl feather_006
s 1
f 18//1 10//2 3//3 6//4
f 11//5 18//1 6//4 4//6
f 5//7 1//8 7//9 15//10
f 15//10 7//9 8//11 16//12
f 27//13 19//14 9//15 17//16
f 17//16 9//15 10//2 18//1
f 2//17 5//7 15//10 14//18
f 14//18 15//10 16//12 13//19
f 26//20 27//13 17//16 12//21
f 12//21 17//16 18//1 11//5
f 16//12 8//11 22//22 30//23
f 30//23 22//22 21//24 29//25
f 29//25 21//24 20//26 28//27
f 28//27 20//26 19//14 27//13
f 13//19 16//12 30//23 23//28
f 23//28 30//23 29//25 24//29
f 24//29 29//25 28//27 25//30
f 25//30 28//27 27//13 26//20
