# Blender v2.79 (sub 0) OBJ File: 'quail_base_mesh_BI.blend'
# www.blender.org
mtllib quail_feather_flight_secondary_004.mtl
o feather_flight_secondary_004
v 0.054877 0.103746 0.022873
v 0.052602 0.103746 0.022873
v 0.055292 0.079272 0.022891
v 0.052188 0.079272 0.022891
v 0.053740 0.104996 0.023106
v 0.053740 0.076534 0.023128
v 0.055495 0.099602 0.022876
v 0.056015 0.094206 0.022880
v 0.056347 0.088811 0.022884
v 0.056255 0.083416 0.022888
v 0.051225 0.083416 0.022888
v 0.051132 0.088811 0.022884
v 0.051464 0.094206 0.022880
v 0.051984 0.099602 0.022876
v 0.053740 0.099601 0.023110
v 0.053740 0.094206 0.023114
v 0.053740 0.088811 0.023119
v 0.053740 0.083416 0.023123
vn 0.0000 0.0049 -1.0000
vn -0.1051 0.0045 -0.9944
vn -0.1216 0.0098 -0.9925
vn 0.0000 0.0099 -0.9999
vn 0.1051 0.0045 -0.9944
vn 0.1216 0.0098 -0.9925
vn 0.0000 -0.0116 -0.9999
vn -0.1644 -0.0114 -0.9863
vn -0.1381 -0.0087 -0.9904
vn 0.0000 -0.0089 -0.9999
vn -0.1050 -0.0049 -0.9944
vn 0.0000 -0.0050 -1.0000
vn -0.0933 -0.0018 -0.9956
vn 0.0000 -0.0018 -1.0000
vn 0.1644 -0.0114 -0.9863
vn 0.1381 -0.0087 -0.9904
vn 0.1050 -0.0049 -0.9944
vn 0.0933 -0.0018 -0.9956
usemtl feather_005
s 1
f 18//1 10//2 3//3 6//4
f 11//5 18//1 6//4 4//6
f 5//7 1//8 7//9 15//10
f 15//10 7//9 8//11 16//12
f 16//12 8//11 9//13 17//14
f 17//14 9//13 10//2 18//1
f 2//15 5//7 15//10 14//16
f 14//16 15//10 16//12 13//17
f 13//17 16//12 17//14 12//18
f 12//18 17//14 18//1 11//5
