# Blender v2.79 (sub 0) OBJ File: 'quail_base_mesh_BI.blend'
# www.blender.org
mtllib quail_feather_flight_tertiary_057.mtl
o feather_flight_tertiary_057
v 0.072853 0.104578 0.022231
v 0.071421 0.104578 0.022231
v 0.073114 0.096378 0.022231
v 0.071160 0.096378 0.022231
v 0.072137 0.104997 0.021996
v 0.072137 0.095461 0.021996
v 0.073242 0.103189 0.022231
v 0.073569 0.101382 0.022231
v 0.073778 0.099574 0.022231
v 0.073720 0.097767 0.022231
v 0.070554 0.097767 0.022231
v 0.070496 0.099574 0.022231
v 0.070705 0.101382 0.022231
v 0.071032 0.103189 0.022231
v 0.072137 0.103189 0.021996
v 0.072137 0.101382 0.021996
v 0.072137 0.099574 0.021996
v 0.072137 0.097767 0.021996
vn 0.0000 -0.0171 -0.9998
vn 0.1637 -0.0145 -0.9864
vn 0.1909 -0.0313 -0.9811
vn 0.0000 -0.0319 -0.9995
vn -0.1637 -0.0145 -0.9864
vn -0.1909 -0.0313 -0.9811
vn 0.0000 0.0322 -0.9995
vn 0.2560 0.0312 -0.9662
vn 0.2136 0.0227 -0.9766
vn 0.0000 0.0244 -0.9997
vn 0.1648 0.0122 -0.9862
vn 0.0000 0.0128 -0.9999
vn 0.1473 0.0030 -0.9891
vn 0.0000 0.0032 -1.0000
vn -0.2560 0.0312 -0.9662
vn -0.2136 0.0227 -0.9766
vn -0.1648 0.0122 -0.9862
vn -0.1473 0.0030 -0.9891
usemtl feather_004
s 1
f 18//1 10//2 3//3 6//4
f 11//5 18//1 6//4 4//6
f 5//7 1//8 7//9 15//10
f 15//10 7//9 8//11 16//12
f 16//12 8//11 9//13 17//14
f 17//14 9//13 10//2 18//1
f 2//15 5//7 15//10 14//16
f 14//16 15//10 16//12 13//17
f 13//17 16//12 17//14 12//18
f 12//18 17//14 18//1 11//5
