# Blender v2.79 (sub 0) OBJ File: 'quail_base_mesh_BI.blend'
# www.blender.org
mtllib quail_feather_flight_tertiary_039.mtl
o feather_flight_tertiary_039
v 0.127277 0.105411 0.023168
v 0.126464 0.104233 0.023168
v 0.132376 0.102210 0.023168
v 0.131267 0.100602 0.023168
v 0.126617 0.104997 0.023403
v 0.132375 0.101024 0.023403
v 0.128336 0.105153 0.023168
v 0.129613 0.104669 0.023168
v 0.130823 0.104088 0.023168
v 0.131882 0.103287 0.023168
v 0.130084 0.100681 0.023168
v 0.128960 0.101387 0.023168
v 0.127987 0.102312 0.023168
v 0.127081 0.103334 0.023168
v 0.127709 0.104244 0.023403
v 0.128800 0.103491 0.023403
v 0.129891 0.102737 0.023403
v 0.130983 0.101984 0.023403
vn -0.0191 0.0132 -0.9997
vn -0.1075 -0.1231 -0.9865
vn -0.1435 -0.1328 -0.9807
vn -0.0358 0.0247 -0.9991
vn 0.0768 0.1442 -0.9865
vn 0.0732 0.1813 -0.9807
vn 0.0361 -0.0249 -0.9990
vn -0.1103 -0.2347 -0.9658
vn -0.0951 -0.1915 -0.9769
vn 0.0274 -0.0189 -0.9994
vn -0.0797 -0.1446 -0.9863
vn 0.0143 -0.0099 -0.9998
vn -0.0802 -0.1235 -0.9891
vn 0.0036 -0.0025 -1.0000
vn 0.1802 0.1865 -0.9658
vn 0.1453 0.1569 -0.9769
vn 0.1068 0.1259 -0.9863
vn 0.0869 0.1189 -0.9891
usemtl feather_004
s 1
f 18//1 10//2 3//3 6//4
f 11//5 18//1 6//4 4//6
f 5//7 1//8 7//9 15//10
f 15//10 7//9 8//11 16//12
f 16//12 8//11 9//13 17//14
f 17//14 9//13 10//2 18//1
f 2//15 5//7 15//10 14//16
f 14//16 15//10 16//12 13//17
f 13//17 16//12 17//14 12//18
f 12//18 17//14 18//1 11//5
