# Blender v2.79 (sub 0) OBJ File: 'quail_base_mesh_BI.blend'
# www.blender.org
mtllib quail_feather_flight_secondary_026.mtl
o feather_flight_secondary_026
v 0.059761 0.103807 0.022527
v 0.057486 0.103807 0.022527
v 0.060175 0.080522 0.022511
v 0.057071 0.080522 0.022511
v 0.058623 0.104996 0.022293
v 0.058623 0.077917 0.022274
v 0.060379 0.099864 0.022524
v 0.060899 0.094731 0.022520
v 0.061231 0.089598 0.022517
v 0.061139 0.084465 0.022513
v 0.056108 0.084465 0.022513
v 0.056016 0.089598 0.022517
v 0.056348 0.094731 0.022520
v 0.056868 0.099864 0.022524
v 0.058623 0.099864 0.022289
v 0.058623 0.094731 0.022286
v 0.058623 0.089598 0.022282
v 0.058623 0.084465 0.022279
vn 0.0000 -0.0053 -1.0000
vn 0.1050 -0.0048 -0.9944
vn 0.1216 -0.0105 -0.9925
vn 0.0000 -0.0105 -0.9999
vn -0.1050 -0.0048 -0.9944
vn -0.1216 -0.0105 -0.9925
vn 0.0000 0.0120 -0.9999
vn 0.1644 0.0119 -0.9863
vn 0.1380 0.0090 -0.9904
vn 0.0000 0.0093 -0.9999
vn 0.1050 0.0051 -0.9944
vn 0.0000 0.0052 -1.0000
vn 0.0933 0.0018 -0.9956
vn 0.0000 0.0018 -1.0000
vn -0.1644 0.0119 -0.9863
vn -0.1380 0.0090 -0.9904
vn -0.1050 0.0051 -0.9944
vn -0.0933 0.0018 -0.9956
usemtl feather_005
s 1
f 18//1 10//2 3//3 6//4
f 11//5 18//1 6//4 4//6
f 5//7 1//8 7//9 15//10
f 15//10 7//9 8//11 16//12
f 16//12 8//11 9//13 17//14
f 17//14 9//13 10//2 18//1
f 2//15 5//7 15//10 14//16
f 14//16 15//10 16//12 13//17
f 13//17 16//12 17//14 12//18
f 12//18 17//14 18//1 11//5
