# Blender v2.79 (sub 0) OBJ File: 'quail_base_mesh_BI.blend'
# www.blender.org
mtllib quail_feather_flight_tertiary_044.mtl
o feather_flight_tertiary_044
v 0.040719 0.104492 0.022231
v 0.039288 0.104492 0.022231
v 0.040980 0.094617 0.022231
v 0.039027 0.094617 0.022231
v 0.040003 0.104997 0.021996
v 0.040003 0.093512 0.021996
v 0.041108 0.102820 0.022231
v 0.041436 0.100643 0.022231
v 0.041645 0.098466 0.022231
v 0.041586 0.096289 0.022231
v 0.038421 0.096289 0.022231
v 0.038362 0.098466 0.022231
v 0.038571 0.100643 0.022231
v 0.038899 0.102820 0.022231
v 0.040003 0.102820 0.021996
v 0.040003 0.100643 0.021996
v 0.040003 0.098466 0.021996
v 0.040003 0.096289 0.021996
vn 0.0000 -0.0142 -0.9999
vn 0.1644 -0.0124 -0.9863
vn 0.1910 -0.0260 -0.9812
vn 0.0000 -0.0265 -0.9996
vn -0.1644 -0.0124 -0.9863
vn -0.1910 -0.0260 -0.9812
vn 0.0000 0.0268 -0.9996
vn 0.2560 0.0259 -0.9663
vn 0.2145 0.0190 -0.9765
vn 0.0000 0.0203 -0.9998
vn 0.1651 0.0102 -0.9862
vn 0.0000 0.0106 -0.9999
vn 0.1473 0.0025 -0.9891
vn 0.0000 0.0027 -1.0000
vn -0.2560 0.0259 -0.9663
vn -0.2145 0.0190 -0.9765
vn -0.1651 0.0102 -0.9862
vn -0.1473 0.0025 -0.9891
usemtl feather_004
s 1
f 18//1 10//2 3//3 6//4
f 11//5 18//1 6//4 4//6
f 5//7 1//8 7//9 15//10
f 15//10 7//9 8//11 16//12
f 16//12 8//11 9//13 17//14
f 17//14 9//13 10//2 18//1
f 2//15 5//7 15//10 14//16
f 14//16 15//10 16//12 13//17
f 13//17 16//12 17//14 12//18
f 12//18 17//14 18//1 11//5
