# Blender v2.79 (sub 0) OBJ File: 'quail_base_mesh_BI.blend'
# www.blender.org
mtllib quail_feather_flight_tertiary_083.mtl
o feather_flight_tertiary_083
v 0.133394 0.105587 0.022231
v 0.132919 0.104236 0.022231
v 0.138214 0.104166 0.022231
v 0.137565 0.102323 0.022231
v 0.132915 0.104997 0.021996
v 0.138419 0.103058 0.021996
v 0.134325 0.105671 0.022231
v 0.135477 0.105612 0.022231
v 0.136590 0.105442 0.022231
v 0.137614 0.105020 0.022231
v 0.136562 0.102034 0.022231
v 0.135500 0.102346 0.022231
v 0.134526 0.102911 0.022231
v 0.133591 0.103587 0.022231
v 0.133958 0.104629 0.021996
v 0.135001 0.104262 0.021996
v 0.136045 0.103894 0.021996
v 0.137088 0.103527 0.021996
vn 0.0263 -0.0092 -0.9996
vn 0.0738 0.1451 -0.9866
vn 0.1116 0.1629 -0.9803
vn 0.0491 -0.0173 -0.9986
vn -0.0334 -0.1593 -0.9866
vn -0.0151 -0.1969 -0.9803
vn -0.0496 0.0175 -0.9986
vn 0.0370 0.2581 -0.9654
vn 0.0358 0.2103 -0.9770
vn -0.0376 0.0132 -0.9992
vn 0.0360 0.1611 -0.9863
vn -0.0197 0.0069 -0.9998
vn 0.0443 0.1404 -0.9891
vn -0.0050 0.0017 -1.0000
vn -0.1330 -0.2243 -0.9654
vn -0.1039 -0.1863 -0.9770
vn -0.0729 -0.1480 -0.9863
vn -0.0534 -0.1372 -0.9891
usemtl feather_004
s 1
f 18//1 10//2 3//3 6//4
f 11//5 18//1 6//4 4//6
f 5//7 1//8 7//9 15//10
f 15//10 7//9 8//11 16//12
f 16//12 8//11 9//13 17//14
f 17//14 9//13 10//2 18//1
f 2//15 5//7 15//10 14//16
f 14//16 15//10 16//12 13//17
f 13//17 16//12 17//14 12//18
f 12//18 17//14 18//1 11//5
