# Blender v2.79 (sub 0) OBJ File: 'quail_base_mesh_BI.blend'
# www.blender.org
mtllib quail_feather_flight_secondary_011.mtl
o feather_flight_secondary_011
v 0.090451 0.104094 0.022872
v 0.088012 0.103939 0.022872
v 0.092370 0.084953 0.022872
v 0.089042 0.084741 0.022872
v 0.089156 0.104997 0.023106
v 0.090871 0.082703 0.023106
v 0.091364 0.100890 0.022872
v 0.092246 0.096700 0.022872
v 0.092927 0.092497 0.022872
v 0.093153 0.088265 0.022872
v 0.087759 0.087922 0.022872
v 0.087335 0.092141 0.022872
v 0.087366 0.096390 0.022872
v 0.087599 0.100651 0.022872
v 0.089481 0.100771 0.023106
v 0.089806 0.096545 0.023106
v 0.090131 0.092319 0.023106
v 0.090456 0.088093 0.023106
vn -0.0003 0.0073 -1.0000
vn -0.0977 -0.0009 -0.9952
vn -0.1138 0.0048 -0.9935
vn -0.0017 0.0135 -0.9999
vn 0.0966 0.0139 -0.9952
vn 0.1121 0.0222 -0.9934
vn 0.0022 -0.0136 -0.9999
vn -0.1520 -0.0253 -0.9880
vn -0.1269 -0.0197 -0.9917
vn 0.0005 -0.0104 -0.9999
vn -0.0970 -0.0128 -0.9952
vn 0.0002 -0.0054 -1.0000
vn -0.0866 -0.0080 -0.9962
vn 0.0001 -0.0014 -1.0000
vn 0.1538 -0.0018 -0.9881
vn 0.1285 -0.0002 -0.9917
vn 0.0978 0.0022 -0.9952
vn 0.0868 0.0053 -0.9962
usemtl feather_005
s 1
f 18//1 10//2 3//3 6//4
f 11//5 18//1 6//4 4//6
f 5//7 1//8 7//9 15//10
f 15//10 7//9 8//11 16//12
f 16//12 8//11 9//13 17//14
f 17//14 9//13 10//2 18//1
f 2//15 5//7 15//10 14//16
f 14//16 15//10 16//12 13//17
f 13//17 16//12 17//14 12//18
f 12//18 17//14 18//1 11//5
