# Blender v2.79 (sub 0) OBJ File: 'quail_base_mesh_BI.blend'
# www.blender.org
mtllib quail_feather_flight_tertiary_084.mtl
o feather_flight_tertiary_084
v 0.136646 0.105515 0.022230
v 0.136311 0.104365 0.022230
v 0.140503 0.104618 0.022230
v 0.140045 0.103048 0.022230
v 0.136284 0.104997 0.022034
v 0.140699 0.103710 0.022034
v 0.137380 0.105641 0.022230
v 0.138293 0.105659 0.022230
v 0.139179 0.105583 0.022230
v 0.140002 0.105293 0.022230
v 0.139260 0.102749 0.022230
v 0.138410 0.102946 0.022230
v 0.137622 0.103358 0.022230
v 0.136862 0.103865 0.022230
v 0.137121 0.104753 0.022034
v 0.137958 0.104509 0.022034
v 0.138795 0.104265 0.022034
v 0.139631 0.104021 0.022034
vn 0.0284 -0.0083 -0.9995
vn 0.0665 0.1484 -0.9867
vn 0.1055 0.1679 -0.9801
vn 0.0531 -0.0155 -0.9984
vn -0.0236 -0.1609 -0.9867
vn -0.0012 -0.1983 -0.9801
vn -0.0537 0.0156 -0.9984
vn 0.0197 0.2606 -0.9652
vn 0.0220 0.2120 -0.9770
vn -0.0407 0.0118 -0.9991
vn 0.0259 0.1630 -0.9863
vn -0.0212 0.0062 -0.9997
vn 0.0363 0.1427 -0.9891
vn -0.0054 0.0016 -1.0000
vn -0.1234 -0.2304 -0.9652
vn -0.0953 -0.1906 -0.9770
vn -0.0657 -0.1514 -0.9863
vn -0.0461 -0.1399 -0.9891
usemtl feather_004
s 1
f 18//1 10//2 3//3 6//4
f 11//5 18//1 6//4 4//6
f 5//7 1//8 7//9 15//10
f 15//10 7//9 8//11 16//12
f 16//12 8//11 9//13 17//14
f 17//14 9//13 10//2 18//1
f 2//15 5//7 15//10 14//16
f 14//16 15//10 16//12 13//17
f 13//17 16//12 17//14 12//18
f 12//18 17//14 18//1 11//5
