# Blender v2.79 (sub 0) OBJ File: 'quail_base_mesh_BI.blend'
# www.blender.org
mtllib quail_feather_tail_secondary_010.mtl
o feather_tail_secondary_010
v 0.002830 0.054414 -0.071130
v 0.008390 0.054414 -0.069871
v 0.005295 0.053561 -0.069111
v 0.002623 0.054414 -0.076017
v 0.003044 0.054414 -0.082223
v 0.012975 0.054414 -0.079974
v 0.010682 0.054414 -0.074192
v 0.006652 0.053561 -0.075105
v 0.008009 0.053561 -0.081098
v 0.007378 0.054414 -0.100934
v 0.005577 0.054414 -0.095965
v 0.004190 0.054414 -0.089121
v 0.014912 0.054414 -0.086693
v 0.016609 0.054414 -0.093467
v 0.017123 0.054414 -0.098728
v 0.012634 0.053561 -0.101525
v 0.011093 0.053561 -0.094716
v 0.009551 0.053561 -0.087907
vn -0.0065 -0.9995 0.0288
vn -0.2432 -0.9696 -0.0257
vn -0.2077 -0.9778 -0.0261
vn -0.0048 -0.9998 0.0214
vn -0.1676 -0.9854 -0.0286
vn -0.0021 -0.9999 0.0093
vn 0.2305 -0.9696 0.0815
vn 0.1987 -0.9778 0.0660
vn 0.1636 -0.9854 0.0463
vn -0.1520 -0.9879 -0.0312
vn -0.0007 -1.0000 0.0031
vn -0.1507 -0.9879 -0.0375
vn 0.0008 -1.0000 -0.0034
vn -0.1537 -0.9871 -0.0436
vn 0.0019 -0.9999 -0.0085
vn 0.1506 -0.9879 0.0373
vn 0.1522 -0.9879 0.0311
vn 0.1575 -0.9871 0.0268
usemtl feather_001.001
s 1
f 3//1 1//2 4//3 8//4
f 8//4 4//3 5//5 9//6
f 2//7 3//1 8//4 7//8
f 7//8 8//4 9//6 6//9
f 9//6 5//5 12//10 18//11
f 18//11 12//10 11//12 17//13
f 17//13 11//12 10//14 16//15
f 6//9 9//6 18//11 13//16
f 13//16 18//11 17//13 14//17
f 14//17 17//13 16//15 15//18
