# Blender v2.79 (sub 0) OBJ File: 'quail_base_mesh_BI.blend'
# www.blender.org
mtllib quail_eye.mtl
o eye
v 0.011431 0.162055 0.064522
v 0.010817 0.163359 0.064174
v 0.009792 0.164295 0.063652
v 0.008512 0.164720 0.063038
v 0.007170 0.164570 0.062423
v 0.005973 0.163868 0.061902
v 0.005102 0.162720 0.061554
v 0.011653 0.161920 0.064017
v 0.011228 0.163110 0.063242
v 0.010329 0.163970 0.062435
v 0.009093 0.164368 0.061720
v 0.007707 0.164245 0.061205
v 0.006384 0.163619 0.060970
v 0.005324 0.162585 0.061050
v 0.011819 0.161585 0.063590
v 0.011534 0.162492 0.062451
v 0.010728 0.163162 0.061402
v 0.009525 0.163495 0.060602
v 0.008106 0.163438 0.060173
v 0.006689 0.163001 0.060180
v 0.005489 0.162251 0.060622
v 0.004689 0.161301 0.061432
v 0.011902 0.161102 0.063304
v 0.011687 0.161599 0.061923
v 0.010929 0.161996 0.060713
v 0.009742 0.162232 0.059856
v 0.008307 0.162272 0.059483
v 0.006843 0.162108 0.059652
v 0.005572 0.161768 0.060336
v 0.011890 0.160544 0.063204
v 0.011666 0.160567 0.061738
v 0.010901 0.160648 0.060470
v 0.009712 0.160773 0.059594
v 0.008279 0.160923 0.059241
v 0.006822 0.161077 0.059467
v 0.005561 0.161209 0.060236
v 0.011786 0.159995 0.063304
v 0.011472 0.159554 0.061923
v 0.010648 0.159323 0.060713
v 0.009438 0.159339 0.059856
v 0.008026 0.159599 0.059483
v 0.006628 0.160063 0.059652
v 0.005456 0.160661 0.060336
v 0.011540 0.160581 0.064644
v 0.011604 0.159540 0.063590
v 0.011136 0.158712 0.062451
v 0.010209 0.158224 0.061402
v 0.008963 0.158149 0.060602
v 0.007587 0.158500 0.060173
v 0.006292 0.159222 0.060180
v 0.005274 0.160205 0.060622
v 0.011372 0.159247 0.064017
v 0.010709 0.158172 0.063242
v 0.009651 0.157518 0.062435
v 0.008359 0.157385 0.061720
v 0.007029 0.157793 0.061205
v 0.005865 0.158681 0.060970
v 0.005043 0.159913 0.061050
v 0.011127 0.159162 0.064522
v 0.010256 0.158014 0.064174
v 0.009058 0.157311 0.063652
v 0.007717 0.157161 0.063038
v 0.006436 0.157587 0.062423
v 0.005411 0.158523 0.061902
v 0.004798 0.159827 0.061554
v 0.010905 0.159296 0.065026
v 0.009845 0.158262 0.065106
v 0.008521 0.157636 0.064870
v 0.007136 0.157513 0.064356
v 0.005900 0.157912 0.063641
v 0.005000 0.158772 0.062834
v 0.004575 0.159962 0.062058
v 0.010739 0.159631 0.065454
v 0.009539 0.158880 0.065896
v 0.008122 0.158444 0.065903
v 0.006704 0.158387 0.065473
v 0.005500 0.158719 0.064673
v 0.004695 0.159389 0.063624
v 0.004410 0.160296 0.062486
v 0.010656 0.160114 0.065739
v 0.009385 0.159773 0.066424
v 0.007921 0.159610 0.066592
v 0.006487 0.159649 0.066220
v 0.005300 0.159886 0.065363
v 0.004541 0.160282 0.064152
v 0.004327 0.160779 0.062772
v 0.010668 0.160672 0.065840
v 0.009407 0.160805 0.066609
v 0.007949 0.160958 0.066835
v 0.006517 0.161109 0.066482
v 0.005328 0.161234 0.065605
v 0.004563 0.161314 0.064338
v 0.004338 0.161338 0.062872
v 0.010772 0.161221 0.065739
v 0.009600 0.161819 0.066424
v 0.008202 0.162283 0.066592
v 0.006791 0.162542 0.066220
v 0.005580 0.162558 0.065363
v 0.004756 0.162328 0.064152
v 0.004443 0.161886 0.062772
v 0.010954 0.161676 0.065454
v 0.009936 0.162660 0.065896
v 0.008641 0.163382 0.065903
v 0.007266 0.163732 0.065473
v 0.006019 0.163657 0.064673
v 0.005092 0.163169 0.063624
v 0.004625 0.162342 0.062486
v 0.011186 0.161969 0.065026
v 0.010364 0.163201 0.065106
v 0.009199 0.164088 0.064870
v 0.007870 0.164497 0.064356
v 0.006578 0.164364 0.063641
v 0.005519 0.163710 0.062834
v 0.004856 0.162634 0.062058
vn 0.4343 0.8867 0.1582
vn 0.7017 0.6490 0.2938
vn 0.8116 0.5825 0.0445
vn 0.5761 0.8008 -0.1634
vn 0.8670 0.3142 0.3868
vn 0.9013 -0.0947 0.4226
vn 0.9286 0.2768 0.2470
vn -0.9013 0.0947 -0.4226
vn -0.7827 0.4876 -0.3868
vn -0.7211 0.4502 -0.5266
vn -0.5514 0.7808 -0.2938
vn -0.2405 0.9576 -0.1582
vn -0.0987 0.8718 -0.4798
vn -0.4415 0.7142 -0.5431
vn 0.1045 0.9945 0.0000
vn 0.2574 0.9019 -0.3468
vn 0.0067 0.6586 -0.7525
vn -0.3598 0.5489 -0.7544
vn 0.6815 0.5877 -0.4360
vn 0.3711 0.6720 -0.6408
vn 0.9745 0.1842 0.1284
vn 0.8933 0.4172 -0.1669
vn -0.6753 0.3576 -0.6451
vn -0.3187 0.3101 -0.8957
vn -0.6522 0.2236 -0.7243
vn 0.4283 0.3398 -0.8373
vn 0.0597 0.3505 -0.9346
vn 0.9344 0.1784 -0.3081
vn 0.7346 0.2796 -0.6182
vn 0.9975 0.0503 0.0492
vn 0.4203 -0.0442 -0.9063
vn 0.0523 -0.0055 -0.9986
vn 0.9287 -0.0976 -0.3577
vn 0.7272 -0.0764 -0.6822
vn 0.9943 -0.1045 0.0214
vn -0.6554 0.0689 -0.7521
vn -0.3244 0.0341 -0.9453
vn -0.6845 -0.0832 -0.7243
vn -0.0144 -0.3553 -0.9346
vn -0.3762 -0.2371 -0.8957
vn 0.6604 -0.4262 -0.6182
vn 0.3483 -0.4214 -0.8373
vn 0.9653 -0.2565 0.0492
vn 0.8769 -0.3688 -0.3081
vn 0.5445 -0.7165 -0.4360
vn 0.2233 -0.7345 -0.6409
vn 0.9149 -0.3827 0.1284
vn 0.7871 -0.5938 -0.1669
vn -0.4660 -0.4621 -0.7544
vn -0.7349 -0.2094 -0.6451
vn -0.1304 -0.6456 -0.7525
vn -0.5804 -0.6068 -0.5431
vn -0.7989 -0.2905 -0.5266
vn 0.0642 -0.9357 -0.3468
vn -0.2778 -0.8322 -0.4798
vn 0.6727 -0.7385 0.0444
vn 0.3970 -0.9031 -0.1634
vn 0.8508 -0.4639 0.2469
vn 0.5514 -0.7808 0.2938
vn 0.2405 -0.9576 0.1582
vn 0.7827 -0.4876 0.3868
vn -0.8670 -0.3142 -0.3868
vn -0.4343 -0.8867 -0.1582
vn -0.7017 -0.6490 -0.2938
vn -0.1045 -0.9945 0.0000
vn -0.9286 -0.2768 -0.2470
vn -0.5761 -0.8008 0.1634
vn -0.8116 -0.5825 -0.0444
vn 0.0987 -0.8718 0.4798
vn -0.2574 -0.9019 0.3468
vn 0.7211 -0.4502 0.5266
vn 0.4415 -0.7142 0.5431
vn 0.6753 -0.3576 0.6451
vn 0.3598 -0.5489 0.7544
vn -0.8933 -0.4172 0.1669
vn -0.9745 -0.1841 -0.1284
vn -0.3711 -0.6720 0.6408
vn -0.6815 -0.5876 0.4360
vn -0.0067 -0.6586 0.7525
vn -0.9344 -0.1784 0.3081
vn -0.9975 -0.0502 -0.0492
vn -0.4283 -0.3398 0.8373
vn -0.7346 -0.2796 0.6182
vn 0.3187 -0.3101 0.8957
vn -0.0597 -0.3505 0.9346
vn 0.6522 -0.2236 0.7243
vn 0.6554 -0.0689 0.7521
vn -0.9943 0.1045 -0.0214
vn -0.7272 0.0764 0.6822
vn -0.9287 0.0976 0.3577
vn -0.0523 0.0055 0.9986
vn -0.4203 0.0442 0.9063
vn 0.3244 -0.0341 0.9453
vn -0.6604 0.4262 0.6182
vn -0.8769 0.3688 0.3081
vn 0.0144 0.3553 0.9346
vn -0.3483 0.4214 0.8373
vn 0.6845 0.0832 0.7243
vn 0.3762 0.2371 0.8957
vn -0.9653 0.2565 -0.0492
vn -0.7871 0.5938 0.1669
vn -0.9149 0.3827 -0.1284
vn -0.2233 0.7345 0.6408
vn -0.5445 0.7165 0.4360
vn 0.4660 0.4621 0.7544
vn 0.1304 0.6456 0.7525
vn 0.7349 0.2094 0.6451
vn -0.0642 0.9357 0.3468
vn -0.3970 0.9031 0.1634
vn 0.5804 0.6068 0.5431
vn 0.2778 0.8322 0.4798
vn 0.7989 0.2905 0.5266
vn -0.8508 0.4639 -0.2470
vn -0.6727 0.7385 -0.0444
usemtl eyes
s 1
f 3//1 2//2 9//3 10//4
f 1//5 44//6 8//7
f 22//8 7//9 14//10
f 6//11 5//12 12//13 13//14
f 4//15 3//1 10//4 11//16
f 2//2 1//5 8//7 9//3
f 7//9 6//11 13//14 14//10
f 5//12 4//15 11//16 12//13
f 13//14 12//13 19//17 20//18
f 11//16 10//4 17//19 18//20
f 9//3 8//7 15//21 16//22
f 14//10 13//14 20//18 21//23
f 12//13 11//16 18//20 19//17
f 10//4 9//3 16//22 17//19
f 8//7 44//6 15//21
f 22//8 14//10 21//23
f 21//23 20//18 28//24 29//25
f 19//17 18//20 26//26 27//27
f 17//19 16//22 24//28 25//29
f 15//21 44//6 23//30
f 22//8 21//23 29//25
f 20//18 19//17 27//27 28//24
f 18//20 17//19 25//29 26//26
f 16//22 15//21 23//30 24//28
f 27//27 26//26 33//31 34//32
f 25//29 24//28 31//33 32//34
f 23//30 44//6 30//35
f 22//8 29//25 36//36
f 28//24 27//27 34//32 35//37
f 26//26 25//29 32//34 33//31
f 24//28 23//30 30//35 31//33
f 29//25 28//24 35//37 36//36
f 22//8 36//36 43//38
f 35//37 34//32 41//39 42//40
f 33//31 32//34 39//41 40//42
f 31//33 30//35 37//43 38//44
f 36//36 35//37 42//40 43//38
f 34//32 33//31 40//42 41//39
f 32//34 31//33 38//44 39//41
f 30//35 44//6 37//43
f 40//42 39//41 47//45 48//46
f 38//44 37//43 45//47 46//48
f 43//38 42//40 50//49 51//50
f 41//39 40//42 48//46 49//51
f 39//41 38//44 46//48 47//45
f 37//43 44//6 45//47
f 22//8 43//38 51//50
f 42//40 41//39 49//51 50//49
f 51//50 50//49 57//52 58//53
f 49//51 48//46 55//54 56//55
f 47//45 46//48 53//56 54//57
f 45//47 44//6 52//58
f 22//8 51//50 58//53
f 50//49 49//51 56//55 57//52
f 48//46 47//45 54//57 55//54
f 46//48 45//47 52//58 53//56
f 54//57 53//56 60//59 61//60
f 52//58 44//6 59//61
f 22//8 58//53 65//62
f 57//52 56//55 63//63 64//64
f 55//54 54//57 61//60 62//65
f 53//56 52//58 59//61 60//59
f 58//53 57//52 64//64 65//62
f 56//55 55//54 62//65 63//63
f 22//8 65//62 72//66
f 64//64 63//63 70//67 71//68
f 62//65 61//60 68//69 69//70
f 60//59 59//61 66//71 67//72
f 65//62 64//64 71//68 72//66
f 63//63 62//65 69//70 70//67
f 61//60 60//59 67//72 68//69
f 59//61 44//6 66//71
f 67//72 66//71 73//73 74//74
f 72//66 71//68 78//75 79//76
f 70//67 69//70 76//77 77//78
f 68//69 67//72 74//74 75//79
f 66//71 44//6 73//73
f 22//8 72//66 79//76
f 71//68 70//67 77//78 78//75
f 69//70 68//69 75//79 76//77
f 79//76 78//75 85//80 86//81
f 77//78 76//77 83//82 84//83
f 75//79 74//74 81//84 82//85
f 73//73 44//6 80//86
f 22//8 79//76 86//81
f 78//75 77//78 84//83 85//80
f 76//77 75//79 82//85 83//82
f 74//74 73//73 80//86 81//84
f 80//86 44//6 87//87
f 22//8 86//81 93//88
f 85//80 84//83 91//89 92//90
f 83//82 82//85 89//91 90//92
f 81//84 80//86 87//87 88//93
f 86//81 85//80 92//90 93//88
f 84//83 83//82 90//92 91//89
f 82//85 81//84 88//93 89//91
f 92//90 91//89 98//94 99//95
f 90//92 89//91 96//96 97//97
f 88//93 87//87 94//98 95//99
f 93//88 92//90 99//95 100//100
f 91//89 90//92 97//97 98//94
f 89//91 88//93 95//99 96//96
f 87//87 44//6 94//98
f 22//8 93//88 100//100
f 100//100 99//95 106//101 107//102
f 98//94 97//97 104//103 105//104
f 96//96 95//99 102//105 103//106
f 94//98 44//6 101//107
f 22//8 100//100 107//102
f 99//95 98//94 105//104 106//101
f 97//97 96//96 103//106 104//103
f 95//99 94//98 101//107 102//105
f 105//104 104//103 111//108 112//109
f 103//106 102//105 109//110 110//111
f 101//107 44//6 108//112
f 22//8 107//102 114//113
f 106//101 105//104 112//109 113//114
f 104//103 103//106 110//111 111//108
f 102//105 101//107 108//112 109//110
f 107//102 106//101 113//114 114//113
f 22//8 114//113 7//9
f 113//114 112//109 5//12 6//11
f 111//108 110//111 3//1 4//15
f 109//110 108//112 1//5 2//2
f 114//113 113//114 6//11 7//9
f 112//109 111//108 4//15 5//12
f 110//111 109//110 2//2 3//1
f 108//112 44//6 1//5
