# Blender v2.79 (sub 0) OBJ File: 'quail_base_mesh_BI.blend'
# www.blender.org
mtllib quail_feather_tail_primary_005.mtl
o feather_tail_primary_005
v 0.003381 0.055356 -0.070398
v -0.002520 0.055356 -0.071204
v 0.012018 0.055356 -0.126066
v 0.004091 0.055356 -0.127149
v 0.000239 0.056232 -0.069397
v 0.008456 0.056232 -0.129544
v 0.005343 0.055356 -0.074867
v 0.007164 0.055356 -0.080787
v 0.012600 0.055356 -0.115080
v 0.012912 0.055356 -0.121206
v 0.001926 0.055356 -0.122707
v 0.000584 0.055356 -0.116722
v -0.003378 0.055356 -0.082227
v -0.003211 0.055356 -0.076036
v 0.001066 0.056232 -0.075452
v 0.001893 0.056232 -0.081507
v 0.006592 0.056232 -0.115901
v 0.007419 0.056232 -0.121956
v 0.011698 0.055356 -0.108196
v 0.010687 0.055356 -0.101327
v 0.009627 0.055356 -0.094465
v 0.008523 0.055356 -0.087608
v -0.002857 0.055356 -0.089163
v -0.002082 0.055356 -0.096064
v -0.001262 0.055356 -0.102960
v -0.000394 0.055356 -0.109848
v 0.005652 0.056232 -0.109022
v 0.004712 0.056232 -0.102143
v 0.003773 0.056232 -0.095265
v 0.002833 0.056232 -0.088386
vn 0.0020 0.9999 -0.0150
vn 0.1662 0.9860 0.0088
vn 0.1891 0.9819 0.0021
vn 0.0032 0.9997 -0.0236
vn -0.1625 0.9860 -0.0360
vn -0.1827 0.9819 -0.0486
vn -0.0041 0.9995 0.0302
vn 0.2327 0.9705 0.0616
vn 0.2000 0.9786 0.0486
vn -0.0031 0.9997 0.0224
vn 0.1641 0.9859 0.0319
vn -0.0013 0.9999 0.0098
vn 0.0000 1.0000 0.0002
vn 0.1415 0.9897 0.0195
vn 0.1450 0.9893 0.0165
vn 0.0005 1.0000 -0.0034
vn -0.2408 0.9705 -0.0030
vn -0.2057 0.9786 -0.0068
vn -0.1666 0.9859 -0.0133
vn -0.1415 0.9897 -0.0191
vn -0.1440 0.9893 -0.0230
vn 0.1507 0.9883 0.0238
vn -0.0004 1.0000 0.0033
vn 0.1454 0.9891 0.0214
vn -0.0002 1.0000 0.0015
vn 0.1426 0.9895 0.0205
vn -0.0001 1.0000 0.0010
vn -0.1516 0.9883 -0.0174
vn -0.1458 0.9891 -0.0184
vn -0.1429 0.9895 -0.0185
usemtl feather_006
s 1
f 18//1 10//2 3//3 6//4
f 11//5 18//1 6//4 4//6
f 5//7 1//8 7//9 15//10
f 15//10 7//9 8//11 16//12
f 27//13 19//14 9//15 17//16
f 17//16 9//15 10//2 18//1
f 2//17 5//7 15//10 14//18
f 14//18 15//10 16//12 13//19
f 26//20 27//13 17//16 12//21
f 12//21 17//16 18//1 11//5
f 16//12 8//11 22//22 30//23
f 30//23 22//22 21//24 29//25
f 29//25 21//24 20//26 28//27
f 28//27 20//26 19//14 27//13
f 13//19 16//12 30//23 23//28
f 23//28 30//23 29//25 24//29
f 24//29 29//25 28//27 25//30
f 25//30 28//27 27//13 26//20
