# Blender v2.79 (sub 0) OBJ File: 'quail_base_mesh_BI.blend'
# www.blender.org
mtllib quail_feather_flight_tertiary_070.mtl
o feather_flight_tertiary_070
v 0.105079 0.104754 0.022231
v 0.103698 0.104375 0.022231
v 0.107647 0.096367 0.022231
v 0.105763 0.095851 0.022231
v 0.104270 0.104997 0.021996
v 0.106964 0.095163 0.021996
v 0.105846 0.103425 0.022231
v 0.106673 0.101647 0.022231
v 0.107385 0.099838 0.022231
v 0.107840 0.097959 0.022231
v 0.104786 0.097122 0.022231
v 0.104219 0.098971 0.022231
v 0.103910 0.100890 0.022231
v 0.103715 0.102841 0.022231
v 0.104781 0.103133 0.021996
v 0.105291 0.101269 0.021996
v 0.105802 0.099405 0.021996
v 0.106313 0.097541 0.021996
vn 0.0042 -0.0154 -0.9998
vn 0.1618 0.0301 -0.9864
vn 0.1919 0.0222 -0.9811
vn 0.0079 -0.0288 -0.9995
vn -0.1545 -0.0566 -0.9864
vn -0.1764 -0.0787 -0.9811
vn -0.0080 0.0291 -0.9995
vn 0.2392 0.0957 -0.9662
vn 0.2007 0.0771 -0.9766
vn -0.0060 0.0220 -0.9997
vn 0.1560 0.0546 -0.9862
vn -0.0031 0.0115 -0.9999
vn 0.1413 0.0417 -0.9891
vn -0.0008 0.0029 -1.0000
vn -0.2546 -0.0395 -0.9662
vn -0.2120 -0.0360 -0.9766
vn -0.1621 -0.0325 -0.9862
vn -0.1428 -0.0361 -0.9891
usemtl feather_004
s 1
f 18//1 10//2 3//3 6//4
f 11//5 18//1 6//4 4//6
f 5//7 1//8 7//9 15//10
f 15//10 7//9 8//11 16//12
f 16//12 8//11 9//13 17//14
f 17//14 9//13 10//2 18//1
f 2//15 5//7 15//10 14//16
f 14//16 15//10 16//12 13//17
f 13//17 16//12 17//14 12//18
f 12//18 17//14 18//1 11//5
