# Blender v2.79 (sub 0) OBJ File: 'quail_base_mesh_BI.blend'
# www.blender.org
mtllib quail_feather_flight_secondary_040.mtl
o feather_flight_secondary_040
v 0.123923 0.105343 0.022509
v 0.122425 0.103325 0.022553
v 0.141351 0.093042 0.022572
v 0.139307 0.090289 0.022632
v 0.122297 0.104984 0.022292
v 0.142248 0.090250 0.022375
v 0.127235 0.103746 0.022509
v 0.131359 0.101414 0.022515
v 0.135359 0.098916 0.022524
v 0.139080 0.096042 0.022541
v 0.135767 0.091580 0.022639
v 0.131925 0.094291 0.022625
v 0.128362 0.097378 0.022603
v 0.124922 0.100632 0.022577
v 0.126079 0.102191 0.022308
v 0.129861 0.099398 0.022323
v 0.133643 0.096606 0.022339
v 0.137424 0.093813 0.022355
vn -0.0023 -0.0198 -0.9998
vn 0.0539 0.0573 -0.9969
vn 0.0681 0.0659 -0.9955
vn 0.0023 -0.0233 -0.9997
vn -0.0593 -0.0959 -0.9936
vn -0.0634 -0.1119 -0.9917
vn -0.0178 -0.0087 -0.9998
vn 0.0717 0.1124 -0.9911
vn 0.0596 0.0905 -0.9941
vn -0.0150 -0.0100 -0.9998
vn 0.0452 0.0638 -0.9969
vn -0.0115 -0.0129 -0.9998
vn 0.0418 0.0531 -0.9977
vn -0.0086 -0.0151 -0.9998
vn -0.1061 -0.1286 -0.9860
vn -0.0891 -0.1109 -0.9898
vn -0.0681 -0.0897 -0.9936
vn -0.0590 -0.0834 -0.9948
usemtl feather_005
s 1
f 18//1 10//2 3//3 6//4
f 11//5 18//1 6//4 4//6
f 5//7 1//8 7//9 15//10
f 15//10 7//9 8//11 16//12
f 16//12 8//11 9//13 17//14
f 17//14 9//13 10//2 18//1
f 2//15 5//7 15//10 14//16
f 14//16 15//10 16//12 13//17
f 13//17 16//12 17//14 12//18
f 12//18 17//14 18//1 11//5
