# Blender v2.79 (sub 0) OBJ File: 'quail_base_mesh_BI.blend'
# www.blender.org
mtllib quail_feather_flight_tertiary_030.mtl
o feather_flight_tertiary_030
v 0.108931 0.104829 0.023168
v 0.107580 0.104355 0.023168
v 0.111958 0.096992 0.023168
v 0.110114 0.096345 0.023168
v 0.108114 0.104997 0.023403
v 0.111347 0.095782 0.023403
v 0.109769 0.103616 0.023168
v 0.110691 0.101978 0.023168
v 0.111501 0.100300 0.023168
v 0.112059 0.098534 0.023168
v 0.109072 0.097486 0.023168
v 0.108404 0.099213 0.023168
v 0.107988 0.101029 0.023168
v 0.107684 0.102884 0.023168
v 0.108726 0.103250 0.023403
v 0.109339 0.101503 0.023403
v 0.109952 0.099757 0.023403
v 0.110565 0.098010 0.023403
vn -0.0055 0.0157 -0.9998
vn -0.1593 -0.0408 -0.9864
vn -0.1903 -0.0343 -0.9811
vn -0.0103 0.0294 -0.9995
vn 0.1499 0.0677 -0.9864
vn 0.1700 0.0921 -0.9811
vn 0.0104 -0.0297 -0.9995
vn -0.2315 -0.1135 -0.9662
vn -0.1943 -0.0917 -0.9766
vn 0.0079 -0.0225 -0.9997
vn -0.1516 -0.0658 -0.9862
vn 0.0041 -0.0117 -0.9999
vn -0.1380 -0.0516 -0.9891
vn 0.0010 -0.0030 -1.0000
vn 0.2516 0.0560 -0.9662
vn 0.2090 0.0498 -0.9766
vn 0.1595 0.0433 -0.9862
vn 0.1399 0.0459 -0.9891
usemtl feather_004
s 1
f 18//1 10//2 3//3 6//4
f 11//5 18//1 6//4 4//6
f 5//7 1//8 7//9 15//10
f 15//10 7//9 8//11 16//12
f 16//12 8//11 9//13 17//14
f 17//14 9//13 10//2 18//1
f 2//15 5//7 15//10 14//16
f 14//16 15//10 16//12 13//17
f 13//17 16//12 17//14 12//18
f 12//18 17//14 18//1 11//5
