# Blender v2.79 (sub 0) OBJ File: 'quail_base_mesh_BI.blend'
# www.blender.org
mtllib quail_feather_flight_tertiary_011.mtl
o feather_flight_tertiary_011
v 0.062659 0.104582 0.023168
v 0.061228 0.104582 0.023168
v 0.062920 0.096474 0.023168
v 0.060967 0.096474 0.023168
v 0.061943 0.104997 0.023403
v 0.061943 0.095567 0.023403
v 0.063048 0.103209 0.023168
v 0.063375 0.101422 0.023168
v 0.063584 0.099635 0.023168
v 0.063526 0.097847 0.023168
v 0.060360 0.097847 0.023168
v 0.060302 0.099635 0.023168
v 0.060511 0.101422 0.023168
v 0.060838 0.103209 0.023168
v 0.061943 0.103209 0.023403
v 0.061943 0.101422 0.023403
v 0.061943 0.099635 0.023403
v 0.061943 0.097847 0.023403
vn 0.0000 0.0172 -0.9998
vn -0.1637 0.0146 -0.9864
vn -0.1909 0.0317 -0.9811
vn 0.0000 0.0323 -0.9995
vn 0.1637 0.0146 -0.9864
vn 0.1909 0.0317 -0.9811
vn 0.0000 -0.0326 -0.9995
vn -0.2560 -0.0315 -0.9662
vn -0.2135 -0.0230 -0.9767
vn 0.0000 -0.0247 -0.9997
vn -0.1648 -0.0123 -0.9862
vn 0.0000 -0.0129 -0.9999
vn -0.1473 -0.0031 -0.9891
vn 0.0000 -0.0033 -1.0000
vn 0.2560 -0.0315 -0.9662
vn 0.2135 -0.0230 -0.9767
vn 0.1648 -0.0123 -0.9862
vn 0.1473 -0.0031 -0.9891
usemtl feather_004
s 1
f 18//1 10//2 3//3 6//4
f 11//5 18//1 6//4 4//6
f 5//7 1//8 7//9 15//10
f 15//10 7//9 8//11 16//12
f 16//12 8//11 9//13 17//14
f 17//14 9//13 10//2 18//1
f 2//15 5//7 15//10 14//16
f 14//16 15//10 16//12 13//17
f 13//17 16//12 17//14 12//18
f 12//18 17//14 18//1 11//5
