# Blender v2.79 (sub 0) OBJ File: 'quail_base_mesh_BI.blend'
# www.blender.org
mtllib quail_feather_flight_primary_019.mtl
o feather_flight_primary_019
v 0.124834 0.105080 0.022577
v 0.122429 0.101643 0.022577
v 0.173860 0.070585 0.022582
v 0.165084 0.070286 0.022582
v 0.121318 0.104982 0.022811
v 0.173960 0.068105 0.022817
v 0.133153 0.100644 0.022578
v 0.143681 0.094440 0.022579
v 0.154010 0.087951 0.022580
v 0.163891 0.080822 0.022581
v 0.158572 0.073222 0.022581
v 0.148496 0.080072 0.022580
v 0.138869 0.087564 0.022579
v 0.129440 0.095340 0.022578
v 0.131296 0.097992 0.022812
v 0.141275 0.091002 0.022813
v 0.151253 0.084012 0.022814
v 0.161231 0.077022 0.022815
vn -0.0035 -0.0004 -1.0000
vn -0.0370 -0.0474 -0.9982
vn -0.0467 -0.0554 -0.9973
vn -0.0238 -0.0242 -0.9994
vn 0.0305 0.0467 -0.9984
vn 0.0331 0.0536 -0.9980
vn 0.0040 -0.0028 -1.0000
vn -0.0477 -0.0765 -0.9959
vn -0.0404 -0.0640 -0.9971
vn 0.0031 -0.0021 -1.0000
vn -0.0312 -0.0480 -0.9984
vn 0.0016 -0.0011 -1.0000
vn -0.0287 -0.0419 -0.9987
vn 0.0005 -0.0003 -1.0000
vn 0.0556 0.0709 -0.9959
vn 0.0464 0.0598 -0.9971
vn 0.0344 0.0457 -0.9984
vn 0.0296 0.0412 -0.9987
usemtl feather_006
s 1
f 18//1 10//2 3//3 6//4
f 11//5 18//1 6//4 4//6
f 5//7 1//8 7//9 15//10
f 15//10 7//9 8//11 16//12
f 16//12 8//11 9//13 17//14
f 17//14 9//13 10//2 18//1
f 2//15 5//7 15//10 14//16
f 14//16 15//10 16//12 13//17
f 13//17 16//12 17//14 12//18
f 12//18 17//14 18//1 11//5
