# Blender v2.79 (sub 0) OBJ File: 'quail_base_mesh_BI.blend'
# www.blender.org
mtllib quail_feather_flight_secondary_001.mtl
o feather_flight_secondary_001
v 0.040161 0.103739 0.022873
v 0.037886 0.103739 0.022873
v 0.040575 0.079125 0.022894
v 0.037471 0.079125 0.022894
v 0.039023 0.104996 0.023106
v 0.039023 0.076371 0.023131
v 0.040779 0.099571 0.022876
v 0.041299 0.094145 0.022881
v 0.041631 0.088719 0.022886
v 0.041539 0.083293 0.022890
v 0.036508 0.083293 0.022890
v 0.036416 0.088719 0.022886
v 0.036748 0.094145 0.022881
v 0.037268 0.099571 0.022876
v 0.039023 0.099570 0.023111
v 0.039023 0.094144 0.023115
v 0.039023 0.088718 0.023120
v 0.039023 0.083292 0.023125
vn 0.0000 0.0048 -1.0000
vn -0.1051 0.0044 -0.9944
vn -0.1216 0.0097 -0.9925
vn 0.0000 0.0098 -0.9999
vn 0.1051 0.0044 -0.9944
vn 0.1216 0.0097 -0.9925
vn 0.0000 -0.0116 -0.9999
vn -0.1644 -0.0114 -0.9863
vn -0.1381 -0.0087 -0.9904
vn 0.0000 -0.0090 -0.9999
vn -0.1050 -0.0050 -0.9944
vn 0.0000 -0.0051 -1.0000
vn -0.0933 -0.0019 -0.9956
vn 0.0000 -0.0019 -1.0000
vn 0.1644 -0.0114 -0.9863
vn 0.1381 -0.0087 -0.9904
vn 0.1050 -0.0050 -0.9944
vn 0.0933 -0.0019 -0.9956
usemtl feather_005
s 1
f 18//1 10//2 3//3 6//4
f 11//5 18//1 6//4 4//6
f 5//7 1//8 7//9 15//10
f 15//10 7//9 8//11 16//12
f 16//12 8//11 9//13 17//14
f 17//14 9//13 10//2 18//1
f 2//15 5//7 15//10 14//16
f 14//16 15//10 16//12 13//17
f 13//17 16//12 17//14 12//18
f 12//18 17//14 18//1 11//5
