# Blender v2.79 (sub 0) OBJ File: 'quail_base_mesh_BI.blend'
# www.blender.org
mtllib quail_feather_flight_primary_002.mtl
o feather_flight_primary_002
v 0.044895 0.102820 0.022576
v 0.042526 0.102820 0.022576
v 0.045383 0.057205 0.022459
v 0.042038 0.057205 0.022459
v 0.043710 0.104997 0.022811
v 0.043710 0.055467 0.022811
v 0.045539 0.095608 0.022576
v 0.046081 0.086220 0.022576
v 0.046427 0.076831 0.022576
v 0.046331 0.067443 0.022576
v 0.041090 0.067443 0.022576
v 0.040994 0.076831 0.022576
v 0.041340 0.086220 0.022576
v 0.041882 0.095608 0.022576
v 0.043710 0.095608 0.022811
v 0.043710 0.086220 0.022811
v 0.043710 0.076831 0.022811
v 0.043710 0.067443 0.022811
vn 0.0000 0.0058 -1.0000
vn -0.1128 0.0056 -0.9936
vn -0.1397 0.0112 -0.9901
vn 0.0000 0.0113 -0.9999
vn 0.1128 0.0056 -0.9936
vn 0.1397 0.0112 -0.9901
vn 0.0000 -0.0062 -1.0000
vn -0.1581 -0.0061 -0.9874
vn -0.1334 -0.0046 -0.9910
vn 0.0000 -0.0047 -1.0000
vn -0.1011 -0.0024 -0.9949
vn 0.0000 -0.0024 -1.0000
vn -0.0896 -0.0006 -0.9960
vn 0.0000 -0.0006 -1.0000
vn 0.1581 -0.0061 -0.9874
vn 0.1334 -0.0046 -0.9910
vn 0.1011 -0.0024 -0.9949
vn 0.0896 -0.0006 -0.9960
usemtl feather_006
s 1
f 18//1 10//2 3//3 6//4
f 11//5 18//1 6//4 4//6
f 5//7 1//8 7//9 15//10
f 15//10 7//9 8//11 16//12
f 16//12 8//11 9//13 17//14
f 17//14 9//13 10//2 18//1
f 2//15 5//7 15//10 14//16
f 14//16 15//10 16//12 13//17
f 13//17 16//12 17//14 12//18
f 12//18 17//14 18//1 11//5
