# Blender v2.79 (sub 0) OBJ File: 'rat_base_mesh_BI.blend'
# www.blender.org
mtllib rat_eye.mtl
o eye
v 0.016399 0.091712 0.097082
v 0.014747 0.093966 0.096388
v 0.012446 0.095364 0.095364
v 0.009848 0.095693 0.094167
v 0.007346 0.094902 0.092979
v 0.005324 0.093112 0.091979
v 0.004087 0.090595 0.091322
v 0.016873 0.091530 0.096103
v 0.015623 0.093630 0.094580
v 0.013591 0.094925 0.093003
v 0.011086 0.095217 0.091611
v 0.008491 0.094462 0.090617
v 0.006200 0.092775 0.090172
v 0.004561 0.090413 0.090344
v 0.017313 0.090947 0.095277
v 0.016435 0.092554 0.093054
v 0.014651 0.093518 0.091009
v 0.012234 0.093695 0.089453
v 0.009551 0.093056 0.088623
v 0.007011 0.091699 0.088646
v 0.005000 0.089830 0.089518
v 0.003825 0.087735 0.091106
v 0.017650 0.090053 0.094729
v 0.017058 0.090901 0.092041
v 0.015466 0.091358 0.089686
v 0.013116 0.091357 0.088021
v 0.010366 0.090896 0.087300
v 0.007635 0.090046 0.087633
v 0.005338 0.088936 0.088970
v 0.017835 0.088982 0.094543
v 0.017399 0.088923 0.091696
v 0.015911 0.088774 0.089235
v 0.013598 0.088560 0.087533
v 0.010812 0.088312 0.086849
v 0.007976 0.088068 0.087288
v 0.005522 0.087865 0.088783
v 0.017838 0.087899 0.094746
v 0.017405 0.086921 0.092072
v 0.015919 0.086159 0.089725
v 0.013607 0.085729 0.088064
v 0.010819 0.085696 0.087340
v 0.007982 0.086066 0.087664
v 0.005526 0.086782 0.088986
v 0.017152 0.088944 0.097340
v 0.017659 0.086968 0.095308
v 0.017075 0.085201 0.093110
v 0.015489 0.083911 0.091082
v 0.013141 0.083296 0.089532
v 0.010389 0.083448 0.088696
v 0.007652 0.084346 0.088702
v 0.005347 0.085851 0.089548
v 0.017326 0.086331 0.096143
v 0.016460 0.084023 0.094654
v 0.014685 0.082373 0.093098
v 0.012271 0.081631 0.091715
v 0.009585 0.081910 0.090713
v 0.007037 0.083168 0.090245
v 0.005014 0.085214 0.090383
v 0.016890 0.086084 0.097124
v 0.015653 0.083568 0.096467
v 0.013630 0.081778 0.095468
v 0.011129 0.080987 0.094279
v 0.008531 0.081315 0.093082
v 0.006230 0.082713 0.092059
v 0.004578 0.084967 0.091365
v 0.016416 0.086266 0.098103
v 0.014777 0.083904 0.098274
v 0.012486 0.082217 0.097829
v 0.009890 0.081462 0.096835
v 0.007386 0.081754 0.095444
v 0.005354 0.083049 0.093866
v 0.004103 0.085149 0.092343
v 0.015976 0.086849 0.098929
v 0.013966 0.084981 0.099801
v 0.011425 0.083624 0.099823
v 0.008743 0.082985 0.098994
v 0.006326 0.083161 0.097438
v 0.004542 0.084126 0.095392
v 0.003664 0.085732 0.093169
v 0.015639 0.087744 0.099477
v 0.013342 0.086634 0.100813
v 0.010610 0.085784 0.101147
v 0.007861 0.085322 0.100426
v 0.005511 0.085321 0.098761
v 0.003919 0.085779 0.096405
v 0.003327 0.086627 0.093717
v 0.015454 0.088814 0.099663
v 0.013001 0.088612 0.101158
v 0.010165 0.088368 0.101597
v 0.007379 0.088120 0.100914
v 0.005065 0.087905 0.099211
v 0.003578 0.087757 0.096750
v 0.003142 0.087697 0.093904
v 0.015451 0.089897 0.099460
v 0.012995 0.090613 0.100783
v 0.010157 0.090983 0.101107
v 0.007370 0.090950 0.100383
v 0.005057 0.090520 0.098721
v 0.003572 0.089758 0.096375
v 0.003139 0.088780 0.093701
v 0.015630 0.090828 0.098898
v 0.013325 0.092334 0.099744
v 0.010588 0.093231 0.099750
v 0.007836 0.093383 0.098914
v 0.005488 0.092768 0.097364
v 0.003901 0.091479 0.095336
v 0.003317 0.089711 0.093139
v 0.015962 0.091466 0.098063
v 0.013940 0.093511 0.098201
v 0.011392 0.094769 0.097734
v 0.008706 0.095049 0.096732
v 0.006292 0.094307 0.095348
v 0.004517 0.092656 0.093793
v 0.003650 0.090349 0.092303
vn -0.8611 0.3266 -0.3895
vn -0.6900 0.6592 -0.2990
vn -0.5693 0.6129 -0.5480
vn -0.7935 0.3006 -0.5291
vn -0.4184 0.8931 -0.1651
vn -0.0868 0.9962 -0.0076
vn 0.0810 0.9318 -0.3539
vn -0.2628 0.8333 -0.4863
vn 0.2574 0.9544 0.1510
vn 0.5651 0.7730 0.2881
vn 0.6858 0.7267 0.0392
vn 0.4131 0.8947 -0.1700
vn 0.7911 0.4765 0.3834
vn 0.9027 0.0819 0.4223
vn 0.8588 0.4505 0.2438
vn -0.9027 -0.0819 -0.4223
vn -0.7308 0.2175 -0.6470
vn -0.1186 0.6420 -0.7574
vn -0.4575 0.4646 -0.7582
vn 0.5573 0.7034 -0.4412
vn 0.2365 0.7255 -0.6463
vn 0.9215 0.3674 0.1259
vn 0.7976 0.5784 -0.1710
vn 0.6681 0.4097 -0.6211
vn 0.3560 0.4088 -0.8403
vn 0.9697 0.2397 0.0477
vn 0.8835 0.3507 -0.3105
vn -0.3716 0.2369 -0.8976
vn -0.6826 0.0898 -0.7252
vn -0.0078 0.3484 -0.9373
vn -0.3247 -0.0355 -0.9451
vn -0.6563 -0.0629 -0.7518
vn 0.4213 0.0298 -0.9064
vn 0.0527 -0.0030 -0.9986
vn 0.9304 0.0783 -0.3580
vn 0.7286 0.0583 -0.6824
vn 0.9960 0.0869 0.0211
vn 0.9312 -0.1973 -0.3063
vn 0.7297 -0.2973 -0.6157
vn 0.9964 -0.0676 0.0501
vn -0.6558 -0.2175 -0.7229
vn 0.0538 -0.3586 -0.9319
vn -0.3238 -0.3112 -0.8935
vn 0.4225 -0.3537 -0.8345
vn -0.6813 -0.3504 -0.6427
vn -0.0048 -0.6643 -0.7474
vn -0.3692 -0.5481 -0.7505
vn 0.6711 -0.6030 -0.4312
vn 0.3593 -0.6833 -0.6355
vn 0.9710 -0.2005 0.1303
vn 0.8858 -0.4343 -0.1633
vn 0.9235 -0.2914 0.2495
vn 0.8011 -0.5965 0.0493
vn -0.4540 -0.7103 -0.5379
vn -0.7288 -0.4413 -0.5235
vn 0.2414 -0.9089 -0.3399
vn -0.1140 -0.8735 -0.4732
vn 0.5618 -0.8122 -0.1570
vn -0.5651 -0.7730 -0.2881
vn -0.7911 -0.4765 -0.3834
vn 0.0868 -0.9962 0.0076
vn -0.2574 -0.9544 -0.1510
vn 0.6900 -0.6592 0.2990
vn 0.4184 -0.8931 0.1651
vn 0.8611 -0.3266 0.3895
vn 0.7935 -0.3006 0.5291
vn -0.8588 -0.4505 -0.2438
vn -0.4131 -0.8947 0.1700
vn -0.6858 -0.7267 -0.0392
vn 0.2628 -0.8333 0.4863
vn -0.0810 -0.9318 0.3539
vn 0.5693 -0.6129 0.5480
vn -0.5573 -0.7034 0.4412
vn -0.7976 -0.5784 0.1710
vn 0.1186 -0.6420 0.7574
vn -0.2365 -0.7255 0.6463
vn 0.7308 -0.2175 0.6470
vn 0.4575 -0.4646 0.7582
vn -0.9215 -0.3674 -0.1259
vn -0.8835 -0.3507 0.3105
vn -0.9697 -0.2397 -0.0477
vn -0.3560 -0.4088 0.8403
vn -0.6681 -0.4097 0.6211
vn 0.3716 -0.2369 0.8976
vn 0.0078 -0.3484 0.9373
vn 0.6826 -0.0898 0.7252
vn -0.4213 -0.0298 0.9064
vn -0.7286 -0.0583 0.6824
vn 0.3247 0.0355 0.9451
vn -0.0527 0.0030 0.9986
vn 0.6563 0.0629 0.7518
vn -0.9960 -0.0869 -0.0211
vn -0.9304 -0.0783 0.3580
vn -0.9964 0.0676 -0.0501
vn -0.7297 0.2973 0.6157
vn -0.9312 0.1973 0.3063
vn -0.0538 0.3586 0.9319
vn -0.4225 0.3537 0.8345
vn 0.6558 0.2175 0.7229
vn 0.3238 0.3112 0.8935
vn 0.0048 0.6643 0.7474
vn -0.3593 0.6833 0.6355
vn 0.6813 0.3504 0.6427
vn 0.3692 0.5481 0.7505
vn -0.8858 0.4343 0.1633
vn -0.9710 0.2005 -0.1303
vn -0.6711 0.6030 0.4312
vn -0.8011 0.5965 -0.0493
vn -0.9235 0.2914 -0.2495
vn -0.2414 0.9089 0.3398
vn -0.5618 0.8122 0.1570
vn 0.4540 0.7103 0.5379
vn 0.1140 0.8735 0.4732
vn 0.7288 0.4413 0.5235
usemtl eyes
s 1
f 7//1 6//2 13//3 14//4
f 5//5 4//6 11//7 12//8
f 3//9 2//10 9//11 10//12
f 1//13 44//14 8//15
f 22//16 7//1 14//4
f 6//2 5//5 12//8 13//3
f 4//6 3//9 10//12 11//7
f 2//10 1//13 8//15 9//11
f 22//16 14//4 21//17
f 13//3 12//8 19//18 20//19
f 11//7 10//12 17//20 18//21
f 9//11 8//15 15//22 16//23
f 14//4 13//3 20//19 21//17
f 12//8 11//7 18//21 19//18
f 10//12 9//11 16//23 17//20
f 8//15 44//14 15//22
f 18//21 17//20 25//24 26//25
f 16//23 15//22 23//26 24//27
f 21//17 20//19 28//28 29//29
f 19//18 18//21 26//25 27//30
f 17//20 16//23 24//27 25//24
f 15//22 44//14 23//26
f 22//16 21//17 29//29
f 20//19 19//18 27//30 28//28
f 29//29 28//28 35//31 36//32
f 27//30 26//25 33//33 34//34
f 25//24 24//27 31//35 32//36
f 23//26 44//14 30//37
f 22//16 29//29 36//32
f 28//28 27//30 34//34 35//31
f 26//25 25//24 32//36 33//33
f 24//27 23//26 30//37 31//35
f 32//36 31//35 38//38 39//39
f 30//37 44//14 37//40
f 22//16 36//32 43//41
f 35//31 34//34 41//42 42//43
f 33//33 32//36 39//39 40//44
f 31//35 30//37 37//40 38//38
f 36//32 35//31 42//43 43//41
f 34//34 33//33 40//44 41//42
f 22//16 43//41 51//45
f 42//43 41//42 49//46 50//47
f 40//44 39//39 47//48 48//49
f 38//38 37//40 45//50 46//51
f 43//41 42//43 50//47 51//45
f 41//42 40//44 48//49 49//46
f 39//39 38//38 46//51 47//48
f 37//40 44//14 45//50
f 46//51 45//50 52//52 53//53
f 51//45 50//47 57//54 58//55
f 49//46 48//49 55//56 56//57
f 47//48 46//51 53//53 54//58
f 45//50 44//14 52//52
f 22//16 51//45 58//55
f 50//47 49//46 56//57 57//54
f 48//49 47//48 54//58 55//56
f 58//55 57//54 64//59 65//60
f 56//57 55//56 62//61 63//62
f 54//58 53//53 60//63 61//64
f 52//52 44//14 59//65
f 22//16 58//55 65//60
f 57//54 56//57 63//62 64//59
f 55//56 54//58 61//64 62//61
f 53//53 52//52 59//65 60//63
f 59//65 44//14 66//66
f 22//16 65//60 72//67
f 64//59 63//62 70//68 71//69
f 62//61 61//64 68//70 69//71
f 60//63 59//65 66//66 67//72
f 65//60 64//59 71//69 72//67
f 63//62 62//61 69//71 70//68
f 61//64 60//63 67//72 68//70
f 71//69 70//68 77//73 78//74
f 69//71 68//70 75//75 76//76
f 67//72 66//66 73//77 74//78
f 72//67 71//69 78//74 79//79
f 70//68 69//71 76//76 77//73
f 68//70 67//72 74//78 75//75
f 66//66 44//14 73//77
f 22//16 72//67 79//79
f 79//79 78//74 85//80 86//81
f 77//73 76//76 83//82 84//83
f 75//75 74//78 81//84 82//85
f 73//77 44//14 80//86
f 22//16 79//79 86//81
f 78//74 77//73 84//83 85//80
f 76//76 75//75 82//85 83//82
f 74//78 73//77 80//86 81//84
f 84//83 83//82 90//87 91//88
f 82//85 81//84 88//89 89//90
f 80//86 44//14 87//91
f 22//16 86//81 93//92
f 85//80 84//83 91//88 92//93
f 83//82 82//85 89//90 90//87
f 81//84 80//86 87//91 88//89
f 86//81 85//80 92//93 93//92
f 22//16 93//92 100//94
f 92//93 91//88 98//95 99//96
f 90//87 89//90 96//97 97//98
f 88//89 87//91 94//99 95//100
f 93//92 92//93 99//96 100//94
f 91//88 90//87 97//98 98//95
f 89//90 88//89 95//100 96//97
f 87//91 44//14 94//99
f 97//98 96//97 103//101 104//102
f 95//100 94//99 101//103 102//104
f 100//94 99//96 106//105 107//106
f 98//95 97//98 104//102 105//107
f 96//97 95//100 102//104 103//101
f 94//99 44//14 101//103
f 22//16 100//94 107//106
f 99//96 98//95 105//107 106//105
f 107//106 106//105 113//108 114//109
f 105//107 104//102 111//110 112//111
f 103//101 102//104 109//112 110//113
f 101//103 44//14 108//114
f 22//16 107//106 114//109
f 106//105 105//107 112//111 113//108
f 104//102 103//101 110//113 111//110
f 102//104 101//103 108//114 109//112
f 110//113 109//112 2//10 3//9
f 108//114 44//14 1//13
f 22//16 114//109 7//1
f 113//108 112//111 5//5 6//2
f 111//110 110//113 3//9 4//6
f 109//112 108//114 1//13 2//10
f 114//109 113//108 6//2 7//1
f 112//111 111//110 4//6 5//5
