# Blender v2.79 (sub 0) OBJ File: 'rooster_base_mesh_BI.blend'
# www.blender.org
mtllib rooster_feather_flight_secondary_016.mtl
o feather_flight_secondary_016
v 0.297453 0.243298 0.032774
v 0.295418 0.234606 0.032630
v 0.357914 0.228302 0.033270
v 0.355970 0.220446 0.033132
v 0.293350 0.239704 0.033180
v 0.363734 0.222822 0.033762
v 0.308254 0.243203 0.032897
v 0.322060 0.241989 0.033041
v 0.335684 0.239990 0.033171
v 0.348599 0.234781 0.033251
v 0.344782 0.218848 0.032981
v 0.331046 0.220190 0.032843
v 0.317989 0.224599 0.032753
v 0.305113 0.229785 0.032675
v 0.306692 0.236504 0.033291
v 0.320033 0.233304 0.033401
v 0.333370 0.230082 0.033511
v 0.346692 0.226793 0.033620
vn 0.0033 0.0164 -0.9998
vn -0.0120 -0.0514 -0.9986
vn -0.0217 -0.0700 -0.9973
vn -0.0013 0.0173 -0.9998
vn 0.0201 0.0830 -0.9963
vn 0.0191 0.1043 -0.9944
vn 0.0204 0.0113 -0.9997
vn -0.0008 -0.0770 -0.9970
vn 0.0003 -0.0615 -0.9981
vn 0.0183 0.0121 -0.9998
vn 0.0014 -0.0432 -0.9991
vn 0.0150 0.0129 -0.9998
vn -0.0017 -0.0381 -0.9993
vn 0.0108 0.0140 -0.9998
vn 0.0415 0.0998 -0.9941
vn 0.0355 0.0855 -0.9957
vn 0.0284 0.0690 -0.9972
vn 0.0235 0.0663 -0.9975
usemtl feather_003
s 1
f 18//1 10//2 3//3 6//4
f 11//5 18//1 6//4 4//6
f 5//7 1//8 7//9 15//10
f 15//10 7//9 8//11 16//12
f 16//12 8//11 9//13 17//14
f 17//14 9//13 10//2 18//1
f 2//15 5//7 15//10 14//16
f 14//16 15//10 16//12 13//17
f 13//17 16//12 17//14 12//18
f 12//18 17//14 18//1 11//5
