# Blender v2.79 (sub 0) OBJ File: 'rooster_base_mesh_BI.blend'
# www.blender.org
mtllib rooster_feather_flight_tertiary_047.mtl
o feather_flight_tertiary_047
v 0.171386 0.238984 0.031332
v 0.166286 0.238383 0.031323
v 0.173176 0.218512 0.031254
v 0.169320 0.218053 0.031232
v 0.168712 0.239724 0.030830
v 0.171515 0.215997 0.030731
v 0.173181 0.235693 0.031321
v 0.174686 0.231311 0.031305
v 0.175181 0.226810 0.031290
v 0.174626 0.222186 0.031273
v 0.167056 0.221288 0.031241
v 0.165438 0.225659 0.031262
v 0.164867 0.230153 0.031285
v 0.165308 0.234765 0.031306
v 0.169244 0.235227 0.030811
v 0.169777 0.230729 0.030793
v 0.170310 0.226232 0.030774
v 0.170841 0.221734 0.030755
vn 0.0066 -0.0213 -0.9997
vn 0.1465 -0.0021 -0.9892
vn 0.1937 -0.0115 -0.9810
vn 0.0088 -0.0334 -0.9994
vn -0.1346 -0.0341 -0.9903
vn -0.1766 -0.0541 -0.9828
vn -0.0020 0.0316 -0.9995
vn 0.1531 0.0496 -0.9870
vn 0.1280 0.0375 -0.9911
vn -0.0010 0.0240 -0.9997
vn 0.1066 0.0219 -0.9940
vn 0.0009 0.0102 -0.9999
vn 0.1098 0.0100 -0.9939
vn 0.0032 -0.0027 -1.0000
vn -0.1570 0.0130 -0.9875
vn -0.1296 0.0071 -0.9915
vn -0.1046 -0.0025 -0.9945
vn -0.1036 -0.0142 -0.9945
usemtl feather_002
s 1
f 18//1 10//2 3//3 6//4
f 11//5 18//1 6//4 4//6
f 5//7 1//8 7//9 15//10
f 15//10 7//9 8//11 16//12
f 16//12 8//11 9//13 17//14
f 17//14 9//13 10//2 18//1
f 2//15 5//7 15//10 14//16
f 14//16 15//10 16//12 13//17
f 13//17 16//12 17//14 12//18
f 12//18 17//14 18//1 11//5
