# Blender v2.79 (sub 0) OBJ File: 'rooster_base_mesh_BI.blend'
# www.blender.org
mtllib rooster_feather_tail_primary_009.mtl
o feather_tail_primary_009
v 0.018939 0.238679 -0.137941
v 0.016112 0.231654 -0.137767
v 0.083606 0.209540 -0.241803
v 0.081146 0.203427 -0.241651
v 0.013312 0.236978 -0.133202
v 0.085557 0.205024 -0.248919
v 0.030668 0.235678 -0.155577
v 0.045554 0.230822 -0.178511
v 0.059880 0.224574 -0.201411
v 0.073580 0.216828 -0.224288
v 0.069169 0.205868 -0.224016
v 0.054317 0.210753 -0.201068
v 0.040052 0.217151 -0.178172
v 0.026346 0.224941 -0.155310
v 0.027608 0.230655 -0.156100
v 0.041904 0.224332 -0.178998
v 0.056200 0.218009 -0.201896
v 0.070515 0.211678 -0.224780
v 0.038175 0.233409 -0.167048
v 0.033135 0.220887 -0.166737
v 0.034756 0.227493 -0.167549
v 0.052810 0.227929 -0.189967
v 0.047091 0.213720 -0.189614
v 0.049052 0.221170 -0.190447
v 0.066817 0.220916 -0.212855
v 0.061657 0.208096 -0.212537
v 0.063358 0.214844 -0.213338
v 0.079369 0.212995 -0.234207
v 0.022117 0.233083 -0.147305
v 0.075828 0.204197 -0.233989
v 0.021151 0.228104 -0.146534
v 0.024882 0.237372 -0.146764
v 0.076722 0.208933 -0.234738
vn -0.8325 0.0571 -0.5510
vn -0.7642 0.2933 -0.5743
vn -0.7626 0.2926 -0.5769
vn -0.8380 0.0115 -0.5455
vn -0.6660 0.5094 -0.5449
vn -0.6865 0.4744 -0.5510
vn -0.7749 0.2980 -0.5573
vn -0.7763 0.2987 -0.5550
vn -0.8484 0.0432 -0.5276
vn -0.7773 0.2991 -0.5534
vn -0.8425 0.0710 -0.5340
vn -0.7738 0.2976 -0.5591
vn -0.6978 0.4530 -0.5548
vn -0.7039 0.4398 -0.5578
vn -0.7726 0.2970 -0.5611
vn -0.7713 0.2965 -0.5631
vn -0.7052 0.4348 -0.5600
vn -0.7027 0.4365 -0.5618
vn -0.7701 0.2959 -0.5651
vn -0.7688 0.2953 -0.5672
vn -0.6963 0.4448 -0.5632
vn -0.6825 0.4646 -0.5642
vn -0.7669 0.2945 -0.5702
vn -0.8266 0.1331 -0.5468
vn -0.8218 0.1467 -0.5505
vn -0.8193 0.1512 -0.5530
vn -0.8188 0.1482 -0.5546
vn -0.8200 0.1377 -0.5555
vn -0.8237 0.1138 -0.5555
vn -0.8331 0.1100 -0.5420
vn -0.6496 0.5118 -0.5623
vn -0.6510 0.5337 -0.5398
vn -0.6218 0.5487 -0.5588
usemtl feather_004
s 1
f 30//1 33//2 6//3 4//4
f 32//5 7//6 15//7 29//8
f 2//9 5//10 29//8 31//11
f 21//12 19//13 8//14 16//15
f 24//16 22//17 9//18 17//19
f 27//20 25//21 10//22 18//23
f 20//24 21//12 16//15 13//25
f 23//26 24//16 17//19 12//27
f 26//28 27//20 18//23 11//29
f 15//7 7//6 19//13 21//12
f 14//30 15//7 21//12 20//24
f 16//15 8//14 22//17 24//16
f 13//25 16//15 24//16 23//26
f 17//19 9//18 25//21 27//20
f 12//27 17//19 27//20 26//28
f 18//23 10//22 28//31 33//2
f 11//29 18//23 33//2 30//1
f 5//10 1//32 32//5 29//8
f 14//30 31//11 29//8 15//7
f 33//2 28//31 3//33 6//3
