# Blender v2.79 (sub 0) OBJ File: 'rooster_base_mesh_BI.blend'
# www.blender.org
mtllib rooster_feather_tail_primary_012.mtl
o feather_tail_primary_012
v -0.000000 0.256733 -0.146471
v -0.000000 0.245995 -0.146471
v -0.000000 0.256036 -0.324765
v -0.000000 0.246692 -0.324765
v -0.001653 0.251364 -0.137358
v -0.001653 0.251364 -0.335982
v -0.000000 0.259570 -0.176662
v -0.000000 0.261812 -0.215966
v -0.000000 0.261927 -0.255270
v -0.000037 0.259740 -0.294574
v -0.000037 0.242988 -0.294574
v -0.000000 0.240801 -0.255270
v -0.000000 0.240916 -0.215966
v -0.000000 0.243158 -0.176662
v -0.001653 0.251364 -0.176662
v -0.001653 0.251364 -0.215966
v -0.001653 0.251364 -0.255270
v -0.001616 0.251364 -0.294574
v -0.000000 0.260934 -0.196314
v -0.000000 0.241794 -0.196314
v -0.001653 0.251364 -0.196314
v -0.000000 0.262224 -0.235618
v -0.000000 0.240504 -0.235618
v -0.001653 0.251364 -0.235618
v -0.000018 0.261162 -0.274922
v -0.000019 0.241566 -0.274922
v -0.001635 0.251364 -0.274922
v -0.000019 0.258088 -0.311658
v -0.001653 0.251364 -0.161566
v -0.000019 0.244640 -0.311658
v -0.000000 0.244281 -0.161566
v -0.000000 0.258447 -0.161566
v -0.001630 0.251364 -0.311658
vn -0.9694 -0.2451 -0.0127
vn -0.9999 0.0000 -0.0134
vn -0.9998 0.0000 -0.0164
vn -0.9570 -0.2896 -0.0157
vn -0.9716 0.2364 0.0096
vn -0.9805 0.1964 0.0070
vn -1.0000 0.0000 0.0072
vn -0.9999 0.0000 0.0100
vn -0.9643 -0.2644 0.0115
vn -0.9999 0.0000 0.0119
vn -0.9716 -0.2364 0.0096
vn -1.0000 0.0000 0.0051
vn -0.9850 0.1725 0.0049
vn -0.9874 0.1580 0.0026
vn -1.0000 0.0000 0.0027
vn -1.0000 0.0000 0.0002
vn -0.9882 0.1529 0.0002
vn -0.9878 0.1554 -0.0021
vn -1.0000 0.0000 -0.0021
vn -1.0000 0.0000 -0.0047
vn -0.9862 0.1656 -0.0046
vn -0.9819 0.1891 -0.0081
vn -0.9999 0.0000 -0.0083
vn -0.9850 -0.1725 0.0049
vn -0.9874 -0.1580 0.0026
vn -0.9882 -0.1529 0.0002
vn -0.9878 -0.1554 -0.0021
vn -0.9862 -0.1656 -0.0046
vn -0.9819 -0.1891 -0.0081
vn -0.9805 -0.1964 0.0070
vn -0.9694 0.2451 -0.0127
vn -0.9643 0.2644 0.0115
vn -0.9570 0.2896 -0.0157
usemtl feather_004
s 1
f 30//1 33//2 6//3 4//4
f 32//5 7//6 15//7 29//8
f 2//9 5//10 29//8 31//11
f 21//12 19//13 8//14 16//15
f 24//16 22//17 9//18 17//19
f 27//20 25//21 10//22 18//23
f 20//24 21//12 16//15 13//25
f 23//26 24//16 17//19 12//27
f 26//28 27//20 18//23 11//29
f 15//7 7//6 19//13 21//12
f 14//30 15//7 21//12 20//24
f 16//15 8//14 22//17 24//16
f 13//25 16//15 24//16 23//26
f 17//19 9//18 25//21 27//20
f 12//27 17//19 27//20 26//28
f 18//23 10//22 28//31 33//2
f 11//29 18//23 33//2 30//1
f 5//10 1//32 32//5 29//8
f 14//30 31//11 29//8 15//7
f 33//2 28//31 3//33 6//3
