# Blender v2.79 (sub 0) OBJ File: 'rooster_base_mesh_BI.blend'
# www.blender.org
mtllib rooster_feather_flight_primary_016.mtl
o feather_flight_primary_016
v 0.299606 0.243478 0.032044
v 0.298430 0.235923 0.032044
v 0.407319 0.223467 0.032044
v 0.405714 0.213156 0.032044
v 0.293524 0.240794 0.032546
v 0.418542 0.215918 0.032546
v 0.318129 0.241910 0.032044
v 0.342095 0.238922 0.032044
v 0.365965 0.235310 0.032044
v 0.389614 0.230288 0.032044
v 0.387012 0.213579 0.032044
v 0.363267 0.217987 0.032044
v 0.339742 0.223805 0.032044
v 0.316313 0.230247 0.032044
v 0.317221 0.236078 0.032546
v 0.340919 0.231363 0.032546
v 0.364616 0.226648 0.032546
v 0.388313 0.221933 0.032546
vn -0.0027 0.0002 -1.0000
vn -0.0156 -0.0654 -0.9977
vn -0.0202 -0.0755 -0.9969
vn -0.0048 0.0020 -1.0000
vn 0.0106 0.0668 -0.9977
vn 0.0101 0.0771 -0.9969
vn 0.0046 -0.0031 -1.0000
vn -0.0155 -0.1044 -0.9944
vn -0.0136 -0.0881 -0.9960
vn 0.0039 -0.0002 -1.0000
vn -0.0111 -0.0664 -0.9977
vn 0.0020 -0.0001 -1.0000
vn -0.0111 -0.0586 -0.9982
vn 0.0005 -0.0000 -1.0000
vn 0.0257 0.1028 -0.9944
vn 0.0210 0.0861 -0.9960
vn 0.0150 0.0655 -0.9977
vn 0.0121 0.0584 -0.9982
usemtl feather_005
s 1
f 18//1 10//2 3//3 6//4
f 11//5 18//1 6//4 4//6
f 5//7 1//8 7//9 15//10
f 15//10 7//9 8//11 16//12
f 16//12 8//11 9//13 17//14
f 17//14 9//13 10//2 18//1
f 2//15 5//7 15//10 14//16
f 14//16 15//10 16//12 13//17
f 13//17 16//12 17//14 12//18
f 12//18 17//14 18//1 11//5
