# Blender v2.79 (sub 0) OBJ File: 'rooster_base_mesh_BI.blend'
# www.blender.org
mtllib rooster_feather_flight_tertiary_011.mtl
o feather_flight_tertiary_011
v 0.143815 0.238688 0.033312
v 0.138106 0.238638 0.033312
v 0.142726 0.217885 0.033312
v 0.139578 0.217818 0.033312
v 0.140952 0.239727 0.033814
v 0.141160 0.215524 0.033814
v 0.145398 0.235177 0.033312
v 0.146711 0.230600 0.033312
v 0.146662 0.226020 0.033312
v 0.144964 0.221430 0.033312
v 0.137295 0.221321 0.033312
v 0.135505 0.225907 0.033312
v 0.135352 0.230502 0.033312
v 0.136585 0.235101 0.033312
v 0.140991 0.235139 0.033814
v 0.141040 0.230551 0.033814
v 0.141096 0.225964 0.033814
v 0.141137 0.221376 0.033814
vn -0.0012 0.0349 -0.9994
vn -0.1396 0.0290 -0.9898
vn -0.2034 0.0479 -0.9779
vn 0.0007 0.0498 -0.9987
vn 0.1387 0.0309 -0.9898
vn 0.2015 0.0497 -0.9782
vn 0.0002 -0.0272 -0.9996
vn -0.1405 -0.0281 -0.9897
vn -0.1150 -0.0199 -0.9931
vn 0.0002 -0.0205 -0.9998
vn -0.0935 -0.0067 -0.9956
vn -0.0000 -0.0064 -1.0000
vn -0.0965 0.0082 -0.9953
vn -0.0004 0.0106 -0.9999
vn 0.1409 -0.0257 -0.9897
vn 0.1153 -0.0178 -0.9932
vn 0.0934 -0.0047 -0.9956
vn 0.0959 0.0102 -0.9953
usemtl feather_002
s 1
f 18//1 10//2 3//3 6//4
f 11//5 18//1 6//4 4//6
f 5//7 1//8 7//9 15//10
f 15//10 7//9 8//11 16//12
f 16//12 8//11 9//13 17//14
f 17//14 9//13 10//2 18//1
f 2//15 5//7 15//10 14//16
f 14//16 15//10 16//12 13//17
f 13//17 16//12 17//14 12//18
f 12//18 17//14 18//1 11//5
