# Blender v2.79 (sub 0) OBJ File: 'rooster_base_mesh_BI.blend'
# www.blender.org
mtllib rooster_feather_flight_primary_006.mtl
o feather_flight_primary_006
v 0.149038 0.236040 0.032044
v 0.140758 0.235606 0.032044
v 0.154551 0.159751 0.032044
v 0.143250 0.159159 0.032044
v 0.144694 0.239727 0.032546
v 0.149348 0.154049 0.032546
v 0.151967 0.223227 0.032044
v 0.154742 0.206491 0.032044
v 0.156833 0.189719 0.032044
v 0.157379 0.172867 0.032044
v 0.139066 0.171907 0.032044
v 0.137848 0.188724 0.032044
v 0.138175 0.205623 0.032044
v 0.139185 0.222557 0.032044
v 0.145576 0.222892 0.032546
v 0.146458 0.206057 0.032546
v 0.147340 0.189222 0.032546
v 0.148223 0.172387 0.032546
vn -0.0003 0.0042 -1.0000
vn -0.0616 0.0005 -0.9981
vn -0.0714 0.0038 -0.9974
vn -0.0006 0.0079 -0.9999
vn 0.0606 0.0071 -0.9981
vn 0.0692 0.0118 -0.9975
vn 0.0004 -0.0074 -1.0000
vn -0.0969 -0.0125 -0.9952
vn -0.0810 -0.0097 -0.9966
vn 0.0003 -0.0056 -1.0000
vn -0.0616 -0.0061 -0.9981
vn 0.0002 -0.0029 -1.0000
vn -0.0548 -0.0036 -0.9985
vn 0.0000 -0.0007 -1.0000
vn 0.0977 -0.0023 -0.9952
vn 0.0816 -0.0012 -0.9966
vn 0.0619 0.0004 -0.9981
vn 0.0549 0.0021 -0.9985
usemtl feather_004
s 1
f 18//1 10//2 3//3 6//4
f 11//5 18//1 6//4 4//6
f 5//7 1//8 7//9 15//10
f 15//10 7//9 8//11 16//12
f 16//12 8//11 9//13 17//14
f 17//14 9//13 10//2 18//1
f 2//15 5//7 15//10 14//16
f 14//16 15//10 16//12 13//17
f 13//17 16//12 17//14 12//18
f 12//18 17//14 18//1 11//5
