# Blender v2.79 (sub 0) OBJ File: 'rooster_base_mesh_BI.blend'
# www.blender.org
mtllib rooster_feather_flight_tertiary_008.mtl
o feather_flight_tertiary_008
v 0.120627 0.239001 0.033312
v 0.115679 0.238655 0.033312
v 0.120751 0.221478 0.033312
v 0.118185 0.221006 0.033312
v 0.118090 0.239727 0.033814
v 0.119520 0.219275 0.033814
v 0.122176 0.236117 0.033312
v 0.123308 0.232319 0.033312
v 0.123341 0.228493 0.033312
v 0.122294 0.224603 0.033312
v 0.116372 0.223837 0.033312
v 0.114767 0.227700 0.033312
v 0.114076 0.231627 0.033312
v 0.114551 0.235583 0.033312
v 0.118391 0.235850 0.033814
v 0.118784 0.231973 0.033814
v 0.119138 0.228097 0.033814
v 0.119375 0.224220 0.033814
vn -0.0122 0.0389 -0.9991
vn -0.1818 0.0250 -0.9830
vn -0.2614 0.0453 -0.9641
vn 0.0099 0.0556 -0.9984
vn 0.1744 0.0428 -0.9837
vn 0.2430 0.0612 -0.9681
vn 0.0024 -0.0319 -0.9995
vn -0.1597 -0.0437 -0.9862
vn -0.1345 -0.0314 -0.9904
vn 0.0011 -0.0221 -0.9997
vn -0.1158 -0.0141 -0.9932
vn -0.0020 -0.0040 -1.0000
vn -0.1253 0.0029 -0.9921
vn -0.0050 0.0137 -0.9999
vn 0.1625 -0.0193 -0.9865
vn 0.1349 -0.0084 -0.9908
vn 0.1126 0.0069 -0.9936
vn 0.1186 0.0218 -0.9927
usemtl feather_002
s 1
f 18//1 10//2 3//3 6//4
f 11//5 18//1 6//4 4//6
f 5//7 1//8 7//9 15//10
f 15//10 7//9 8//11 16//12
f 16//12 8//11 9//13 17//14
f 17//14 9//13 10//2 18//1
f 2//15 5//7 15//10 14//16
f 14//16 15//10 16//12 13//17
f 13//17 16//12 17//14 12//18
f 12//18 17//14 18//1 11//5
