# Blender v2.79 (sub 0) OBJ File: 'rooster_base_mesh_BI.blend'
# www.blender.org
mtllib rooster_feather_flight_tertiary_005.mtl
o feather_flight_tertiary_005
v 0.099847 0.238813 0.033312
v 0.094535 0.238720 0.033312
v 0.098956 0.220038 0.033312
v 0.096127 0.219911 0.033312
v 0.097174 0.239727 0.033813
v 0.097556 0.217872 0.033813
v 0.101347 0.235656 0.033312
v 0.102449 0.231534 0.033312
v 0.102272 0.227406 0.033312
v 0.100843 0.223259 0.033312
v 0.094163 0.223054 0.033312
v 0.092578 0.227193 0.033312
v 0.092205 0.231349 0.033312
v 0.093146 0.235513 0.033312
v 0.097248 0.235584 0.033813
v 0.097350 0.231442 0.033813
v 0.097448 0.227299 0.033813
v 0.097515 0.223157 0.033813
vn -0.0028 0.0376 -0.9993
vn -0.1600 0.0305 -0.9866
vn -0.2303 0.0500 -0.9718
vn 0.0020 0.0533 -0.9986
vn 0.1582 0.0346 -0.9868
vn 0.2259 0.0537 -0.9727
vn 0.0005 -0.0301 -0.9995
vn -0.1505 -0.0324 -0.9881
vn -0.1246 -0.0222 -0.9919
vn 0.0004 -0.0217 -0.9998
vn -0.1042 -0.0068 -0.9945
vn -0.0003 -0.0050 -1.0000
vn -0.1100 0.0092 -0.9939
vn -0.0011 0.0128 -0.9999
vn 0.1514 -0.0271 -0.9881
vn 0.1249 -0.0172 -0.9920
vn 0.1036 -0.0021 -0.9946
vn 0.1086 0.0135 -0.9940
usemtl feather_002
s 1
f 18//1 10//2 3//3 6//4
f 11//5 18//1 6//4 4//6
f 5//7 1//8 7//9 15//10
f 15//10 7//9 8//11 16//12
f 16//12 8//11 9//13 17//14
f 17//14 9//13 10//2 18//1
f 2//15 5//7 15//10 14//16
f 14//16 15//10 16//12 13//17
f 13//17 16//12 17//14 12//18
f 12//18 17//14 18//1 11//5
