# Blender v2.79 (sub 0) OBJ File: 'rooster_base_mesh_BI.blend'
# www.blender.org
mtllib rooster_feather_flight_primary_010.mtl
o feather_flight_primary_010
v 0.207191 0.237174 0.032044
v 0.198056 0.233667 0.032044
v 0.241196 0.153565 0.032044
v 0.228730 0.148780 0.032044
v 0.200971 0.239727 0.032546
v 0.238080 0.142961 0.032546
v 0.215151 0.223861 0.032044
v 0.224367 0.206091 0.032044
v 0.232830 0.188031 0.032044
v 0.239588 0.169316 0.032044
v 0.219386 0.161561 0.032044
v 0.211886 0.179991 0.032044
v 0.206091 0.199075 0.032044
v 0.201049 0.218448 0.032044
v 0.208100 0.221155 0.032546
v 0.215229 0.202583 0.032546
v 0.222358 0.184011 0.032546
v 0.229487 0.165439 0.032546
vn -0.0012 0.0032 -1.0000
vn -0.0498 -0.0157 -0.9986
vn -0.0586 -0.0156 -0.9981
vn -0.0023 0.0060 -1.0000
vn 0.0477 0.0216 -0.9986
vn 0.0542 0.0276 -0.9981
vn 0.0022 -0.0058 -1.0000
vn -0.0749 -0.0354 -0.9966
vn -0.0628 -0.0291 -0.9976
vn 0.0017 -0.0044 -1.0000
vn -0.0481 -0.0211 -0.9986
vn 0.0009 -0.0023 -1.0000
vn -0.0432 -0.0172 -0.9989
vn 0.0002 -0.0006 -1.0000
vn 0.0794 0.0238 -0.9966
vn 0.0661 0.0204 -0.9976
vn 0.0498 0.0165 -0.9986
vn 0.0437 0.0161 -0.9989
usemtl feather_004
s 1
f 18//1 10//2 3//3 6//4
f 11//5 18//1 6//4 4//6
f 5//7 1//8 7//9 15//10
f 15//10 7//9 8//11 16//12
f 16//12 8//11 9//13 17//14
f 17//14 9//13 10//2 18//1
f 2//15 5//7 15//10 14//16
f 14//16 15//10 16//12 13//17
f 13//17 16//12 17//14 12//18
f 12//18 17//14 18//1 11//5
