# Blender v2.79 (sub 0) OBJ File: 'rooster_base_mesh_BI.blend'
# www.blender.org
mtllib rooster_feather_tail_primary_001.mtl
o feather_tail_primary_001
v 0.023707 0.259076 -0.126947
v 0.020978 0.250073 -0.127794
v 0.091562 0.251145 -0.268117
v 0.089188 0.243311 -0.268853
v 0.017625 0.255385 -0.120779
v 0.093415 0.247200 -0.277984
v 0.035948 0.260211 -0.150619
v 0.051515 0.260471 -0.181550
v 0.066542 0.258948 -0.212648
v 0.080956 0.255504 -0.243943
v 0.076699 0.241459 -0.245264
v 0.061173 0.241235 -0.214314
v 0.046205 0.242951 -0.183198
v 0.031777 0.246450 -0.151913
v 0.032622 0.253765 -0.151886
v 0.047620 0.252145 -0.182994
v 0.062617 0.250526 -0.214102
v 0.077642 0.248897 -0.245196
v 0.043793 0.260545 -0.166065
v 0.038929 0.244497 -0.167574
v 0.040121 0.252955 -0.167440
v 0.059118 0.260006 -0.197071
v 0.053599 0.241796 -0.198784
v 0.055118 0.251336 -0.198548
v 0.073832 0.257501 -0.228270
v 0.068853 0.241072 -0.229815
v 0.070129 0.249711 -0.229649
v 0.087069 0.253410 -0.257588
v 0.026862 0.254387 -0.139939
v 0.083651 0.242135 -0.258648
v 0.026303 0.248014 -0.139876
v 0.029903 0.259891 -0.138759
v 0.084151 0.248196 -0.258723
vn -0.8926 0.0555 -0.4474
vn -0.8476 0.2982 -0.4390
vn -0.8462 0.2980 -0.4418
vn -0.8936 0.0092 -0.4488
vn -0.7651 0.5161 -0.3851
vn -0.7831 0.4805 -0.3947
vn -0.8565 0.2991 -0.4205
vn -0.8577 0.2993 -0.4180
vn -0.9044 0.0367 -0.4251
vn -0.8585 0.2994 -0.4162
vn -0.9016 0.0655 -0.4274
vn -0.8556 0.2991 -0.4224
vn -0.7929 0.4590 -0.4007
vn -0.7982 0.4458 -0.4051
vn -0.8546 0.2990 -0.4246
vn -0.8535 0.2988 -0.4268
vn -0.7993 0.4411 -0.4081
vn -0.7972 0.4433 -0.4097
vn -0.8525 0.2987 -0.4289
vn -0.8513 0.2986 -0.4313
vn -0.7918 0.4523 -0.4104
vn -0.7799 0.4733 -0.4096
vn -0.8498 0.2984 -0.4345
vn -0.8926 0.1302 -0.4316
vn -0.8895 0.1446 -0.4335
vn -0.8877 0.1496 -0.4355
vn -0.8871 0.1469 -0.4376
vn -0.8875 0.1366 -0.4401
vn -0.8891 0.1128 -0.4435
vn -0.8966 0.1061 -0.4299
vn -0.7510 0.5227 -0.4034
vn -0.7516 0.5407 -0.3777
vn -0.7262 0.5613 -0.3969
usemtl feather_004
s 1
f 30//1 33//2 6//3 4//4
f 32//5 7//6 15//7 29//8
f 2//9 5//10 29//8 31//11
f 21//12 19//13 8//14 16//15
f 24//16 22//17 9//18 17//19
f 27//20 25//21 10//22 18//23
f 20//24 21//12 16//15 13//25
f 23//26 24//16 17//19 12//27
f 26//28 27//20 18//23 11//29
f 15//7 7//6 19//13 21//12
f 14//30 15//7 21//12 20//24
f 16//15 8//14 22//17 24//16
f 13//25 16//15 24//16 23//26
f 17//19 9//18 25//21 27//20
f 12//27 17//19 27//20 26//28
f 18//23 10//22 28//31 33//2
f 11//29 18//23 33//2 30//1
f 5//10 1//32 32//5 29//8
f 14//30 31//11 29//8 15//7
f 33//2 28//31 3//33 6//3
