# Blender v2.79 (sub 0) OBJ File: 'rooster_base_mesh_BI.blend'
# www.blender.org
mtllib rooster_feather_flight_secondary_028.mtl
o feather_flight_secondary_028
v 0.233060 0.240208 0.031919
v 0.225687 0.235078 0.031854
v 0.261152 0.198727 0.031739
v 0.254247 0.194542 0.031649
v 0.227914 0.239727 0.031394
v 0.261059 0.192214 0.031170
v 0.239890 0.234684 0.031905
v 0.247857 0.226851 0.031877
v 0.254687 0.218121 0.031844
v 0.259322 0.207704 0.031799
v 0.246227 0.199223 0.031654
v 0.238603 0.207091 0.031694
v 0.233107 0.216587 0.031746
v 0.228509 0.226766 0.031803
v 0.234197 0.230721 0.031352
v 0.240478 0.221713 0.031309
v 0.246551 0.212520 0.031267
v 0.252710 0.203404 0.031224
vn 0.0094 -0.0013 -0.9999
vn 0.0685 0.0411 -0.9968
vn 0.0885 0.0503 -0.9948
vn 0.0176 -0.0015 -0.9998
vn -0.0480 -0.0396 -0.9980
vn -0.0600 -0.0582 -0.9965
vn -0.0028 0.0166 -0.9998
vn 0.0710 0.0681 -0.9951
vn 0.0601 0.0566 -0.9966
vn -0.0012 0.0144 -0.9999
vn 0.0494 0.0428 -0.9978
vn 0.0019 0.0106 -0.9999
vn 0.0508 0.0365 -0.9980
vn 0.0047 0.0059 -1.0000
vn -0.0767 -0.0350 -0.9964
vn -0.0621 -0.0286 -0.9977
vn -0.0462 -0.0222 -0.9987
vn -0.0413 -0.0244 -0.9988
usemtl feather_003
s 1
f 18//1 10//2 3//3 6//4
f 11//5 18//1 6//4 4//6
f 5//7 1//8 7//9 15//10
f 15//10 7//9 8//11 16//12
f 16//12 8//11 9//13 17//14
f 17//14 9//13 10//2 18//1
f 2//15 5//7 15//10 14//16
f 14//16 15//10 16//12 13//17
f 13//17 16//12 17//14 12//18
f 12//18 17//14 18//1 11//5
