# Blender v2.79 (sub 0) OBJ File: 'rooster_base_mesh_BI.blend'
# www.blender.org
mtllib rooster_feather_flight_primary_014.mtl
o feather_flight_primary_014
v 0.263908 0.240473 0.032044
v 0.258903 0.233019 0.032044
v 0.350750 0.184133 0.032044
v 0.343920 0.173961 0.032044
v 0.257014 0.239695 0.032546
v 0.356949 0.172592 0.032546
v 0.279819 0.232729 0.032044
v 0.299906 0.221713 0.032044
v 0.319579 0.210082 0.032044
v 0.338319 0.197060 0.032044
v 0.327250 0.180575 0.032044
v 0.308104 0.192992 0.032044
v 0.289892 0.206800 0.032044
v 0.272093 0.221223 0.032044
v 0.275956 0.226976 0.032546
v 0.294899 0.214256 0.032546
v 0.313842 0.201537 0.032546
v 0.332785 0.188817 0.032546
vn -0.0024 0.0016 -1.0000
vn -0.0342 -0.0460 -0.9984
vn -0.0414 -0.0520 -0.9978
vn -0.0045 0.0030 -1.0000
vn 0.0297 0.0490 -0.9984
vn 0.0324 0.0580 -0.9978
vn 0.0045 -0.0030 -1.0000
vn -0.0457 -0.0778 -0.9959
vn -0.0387 -0.0649 -0.9971
vn 0.0034 -0.0023 -1.0000
vn -0.0301 -0.0486 -0.9984
vn 0.0018 -0.0012 -1.0000
vn -0.0278 -0.0424 -0.9987
vn 0.0004 -0.0003 -1.0000
vn 0.0547 0.0717 -0.9959
vn 0.0454 0.0604 -0.9971
vn 0.0336 0.0463 -0.9984
vn 0.0287 0.0418 -0.9987
usemtl feather_005
s 1
f 18//1 10//2 3//3 6//4
f 11//5 18//1 6//4 4//6
f 5//7 1//8 7//9 15//10
f 15//10 7//9 8//11 16//12
f 16//12 8//11 9//13 17//14
f 17//14 9//13 10//2 18//1
f 2//15 5//7 15//10 14//16
f 14//16 15//10 16//12 13//17
f 13//17 16//12 17//14 12//18
f 12//18 17//14 18//1 11//5
