# Blender v2.79 (sub 0) OBJ File: 'rooster_base_mesh_BI.blend'
# www.blender.org
mtllib rooster_feather_flight_tertiary_016.mtl
o feather_flight_tertiary_016
v 0.179388 0.239176 0.033311
v 0.174602 0.238188 0.033327
v 0.183124 0.218675 0.033444
v 0.179552 0.217671 0.033456
v 0.176777 0.239727 0.033815
v 0.181721 0.215863 0.033967
v 0.181409 0.235970 0.033329
v 0.183314 0.231658 0.033355
v 0.184303 0.227203 0.033384
v 0.184212 0.222543 0.033416
v 0.177183 0.220771 0.033439
v 0.175184 0.225154 0.033414
v 0.174086 0.229721 0.033385
v 0.174021 0.234445 0.033353
v 0.177719 0.235204 0.033843
v 0.178768 0.230693 0.033872
v 0.179813 0.226183 0.033900
v 0.180733 0.221657 0.033929
vn -0.0120 0.0175 -0.9998
vn -0.1534 -0.0130 -0.9881
vn -0.2045 -0.0045 -0.9789
vn -0.0006 0.0315 -0.9995
vn 0.1397 0.0434 -0.9892
vn 0.1819 0.0627 -0.9813
vn 0.0038 -0.0332 -0.9994
vn -0.1568 -0.0661 -0.9854
vn -0.1319 -0.0533 -0.9898
vn 0.0025 -0.0258 -0.9997
vn -0.1106 -0.0370 -0.9932
vn -0.0019 -0.0127 -0.9999
vn -0.1148 -0.0247 -0.9931
vn -0.0058 -0.0003 -1.0000
vn 0.1640 0.0005 -0.9864
vn 0.1347 0.0045 -0.9908
vn 0.1069 0.0126 -0.9942
vn 0.1055 0.0234 -0.9941
usemtl feather_002
s 1
f 18//1 10//2 3//3 6//4
f 11//5 18//1 6//4 4//6
f 5//7 1//8 7//9 15//10
f 15//10 7//9 8//11 16//12
f 16//12 8//11 9//13 17//14
f 17//14 9//13 10//2 18//1
f 2//15 5//7 15//10 14//16
f 14//16 15//10 16//12 13//17
f 13//17 16//12 17//14 12//18
f 12//18 17//14 18//1 11//5
