# Blender v2.79 (sub 0) OBJ File: 'rooster_base_mesh_BI.blend'
# www.blender.org
mtllib rooster_feather_flight_secondary_020.mtl
o feather_flight_secondary_020
v 0.118825 0.237751 0.031896
v 0.111244 0.237625 0.031896
v 0.118877 0.197888 0.031896
v 0.112721 0.197717 0.031896
v 0.114997 0.239727 0.031395
v 0.115848 0.193340 0.031395
v 0.121009 0.231031 0.031896
v 0.122767 0.222267 0.031896
v 0.123068 0.213493 0.031896
v 0.121633 0.204696 0.031896
v 0.109770 0.204417 0.031896
v 0.107988 0.213205 0.031896
v 0.107892 0.222016 0.031896
v 0.109307 0.230837 0.031896
v 0.115158 0.230934 0.031395
v 0.115344 0.222142 0.031395
v 0.115547 0.213349 0.031395
v 0.115712 0.204557 0.031395
vn 0.0007 -0.0130 -0.9999
vn 0.0929 -0.0102 -0.9956
vn 0.1205 -0.0175 -0.9926
vn -0.0003 -0.0192 -0.9998
vn -0.0923 -0.0132 -0.9956
vn -0.1194 -0.0206 -0.9926
vn -0.0004 0.0142 -0.9999
vn 0.1062 0.0161 -0.9942
vn 0.0883 0.0116 -0.9960
vn -0.0002 0.0105 -0.9999
vn 0.0708 0.0049 -0.9975
vn 0.0000 0.0036 -1.0000
vn 0.0706 -0.0015 -0.9975
vn 0.0003 -0.0032 -1.0000
vn -0.1067 0.0121 -0.9942
vn -0.0886 0.0081 -0.9960
vn -0.0707 0.0019 -0.9975
vn -0.0701 -0.0044 -0.9975
usemtl feather_003
s 1
f 18//1 10//2 3//3 6//4
f 11//5 18//1 6//4 4//6
f 5//7 1//8 7//9 15//10
f 15//10 7//9 8//11 16//12
f 16//12 8//11 9//13 17//14
f 17//14 9//13 10//2 18//1
f 2//15 5//7 15//10 14//16
f 14//16 15//10 16//12 13//17
f 13//17 16//12 17//14 12//18
f 12//18 17//14 18//1 11//5
