# Blender v2.79 (sub 0) OBJ File: 'rooster_base_mesh_BI.blend'
# www.blender.org
mtllib rooster_feather_flight_primary_011.mtl
o feather_flight_primary_011
v 0.220814 0.237944 0.032044
v 0.212141 0.233332 0.032044
v 0.264929 0.158791 0.032044
v 0.253093 0.152497 0.032044
v 0.214304 0.239727 0.032546
v 0.263769 0.146695 0.032546
v 0.230375 0.225652 0.032044
v 0.241733 0.209072 0.032044
v 0.252376 0.192111 0.032044
v 0.261400 0.174289 0.032044
v 0.242218 0.164090 0.032044
v 0.232489 0.181537 0.032044
v 0.224379 0.199845 0.032044
v 0.216985 0.218533 0.032044
v 0.223680 0.222092 0.032546
v 0.233056 0.204458 0.032546
v 0.242432 0.186824 0.032546
v 0.251809 0.169190 0.032546
vn -0.0016 0.0029 -1.0000
vn -0.0475 -0.0218 -0.9986
vn -0.0564 -0.0230 -0.9981
vn -0.0029 0.0054 -1.0000
vn 0.0446 0.0272 -0.9986
vn 0.0506 0.0339 -0.9981
vn 0.0029 -0.0055 -1.0000
vn -0.0698 -0.0441 -0.9966
vn -0.0586 -0.0363 -0.9976
vn 0.0022 -0.0042 -1.0000
vn -0.0450 -0.0266 -0.9986
vn 0.0012 -0.0022 -1.0000
vn -0.0407 -0.0223 -0.9989
vn 0.0003 -0.0005 -1.0000
vn 0.0756 0.0331 -0.9966
vn 0.0629 0.0282 -0.9976
vn 0.0472 0.0224 -0.9986
vn 0.0412 0.0212 -0.9989
usemtl feather_004
s 1
f 18//1 10//2 3//3 6//4
f 11//5 18//1 6//4 4//6
f 5//7 1//8 7//9 15//10
f 15//10 7//9 8//11 16//12
f 16//12 8//11 9//13 17//14
f 17//14 9//13 10//2 18//1
f 2//15 5//7 15//10 14//16
f 14//16 15//10 16//12 13//17
f 13//17 16//12 17//14 12//18
f 12//18 17//14 18//1 11//5
