# Blender v2.79 (sub 0) OBJ File: 'rooster_base_mesh_BI.blend'
# www.blender.org
mtllib rooster_feather_flight_tertiary_001.mtl
o feather_flight_tertiary_001
v 0.074373 0.238853 0.033311
v 0.069544 0.238853 0.033311
v 0.072721 0.221750 0.033311
v 0.071196 0.221750 0.033311
v 0.071958 0.239727 0.033813
v 0.071958 0.219837 0.033813
v 0.075556 0.235956 0.033311
v 0.075888 0.232186 0.033311
v 0.075146 0.228416 0.033311
v 0.073866 0.224646 0.033311
v 0.070051 0.224646 0.033311
v 0.068770 0.228416 0.033311
v 0.068029 0.232186 0.033311
v 0.068361 0.235956 0.033311
v 0.071958 0.235956 0.033813
v 0.071958 0.232186 0.033813
v 0.071958 0.228416 0.033813
v 0.071958 0.224646 0.033813
vn 0.0000 0.0475 -0.9989
vn -0.2701 0.0426 -0.9619
vn -0.3871 0.0575 -0.9202
vn 0.0000 0.0624 -0.9980
vn 0.2701 0.0426 -0.9619
vn 0.3871 0.0575 -0.9202
vn 0.0000 -0.0304 -0.9995
vn -0.1688 -0.0299 -0.9852
vn -0.1475 -0.0159 -0.9889
vn 0.0000 -0.0181 -0.9998
vn -0.1357 0.0036 -0.9907
vn 0.0000 0.0040 -1.0000
vn -0.1618 0.0216 -0.9866
vn 0.0000 0.0236 -0.9997
vn 0.1688 -0.0299 -0.9852
vn 0.1475 -0.0159 -0.9889
vn 0.1357 0.0036 -0.9907
vn 0.1618 0.0216 -0.9866
usemtl feather_002
s 1
f 18//1 10//2 3//3 6//4
f 11//5 18//1 6//4 4//6
f 5//7 1//8 7//9 15//10
f 15//10 7//9 8//11 16//12
f 16//12 8//11 9//13 17//14
f 17//14 9//13 10//2 18//1
f 2//15 5//7 15//10 14//16
f 14//16 15//10 16//12 13//17
f 13//17 16//12 17//14 12//18
f 12//18 17//14 18//1 11//5
