# Blender v2.79 (sub 0) OBJ File: 'rooster_base_mesh_BI.blend'
# www.blender.org
mtllib rooster_feather_flight_secondary_030.mtl
o feather_flight_secondary_030
v 0.261828 0.241394 0.031832
v 0.256822 0.234644 0.031978
v 0.306525 0.207817 0.031943
v 0.302027 0.201802 0.032201
v 0.257033 0.239727 0.031392
v 0.309317 0.201115 0.031587
v 0.270802 0.237607 0.031821
v 0.281857 0.231831 0.031824
v 0.292331 0.225269 0.031835
v 0.301096 0.216385 0.031855
v 0.292220 0.204464 0.032233
v 0.281179 0.210239 0.032179
v 0.271841 0.218326 0.032116
v 0.263074 0.227187 0.032046
v 0.266943 0.232408 0.031429
v 0.276854 0.225089 0.031466
v 0.286760 0.217763 0.031503
v 0.296663 0.210435 0.031540
vn -0.0049 -0.0277 -0.9996
vn 0.0378 0.0353 -0.9987
vn 0.0530 0.0461 -0.9975
vn -0.0034 -0.0339 -0.9994
vn -0.0482 -0.0883 -0.9949
vn -0.0596 -0.1130 -0.9918
vn -0.0161 -0.0097 -0.9998
vn 0.0415 0.0683 -0.9968
vn 0.0339 0.0533 -0.9980
vn -0.0139 -0.0109 -0.9998
vn 0.0256 0.0360 -0.9990
vn -0.0110 -0.0136 -0.9998
vn 0.0253 0.0295 -0.9992
vn -0.0082 -0.0182 -0.9998
vn -0.0731 -0.0870 -0.9935
vn -0.0613 -0.0756 -0.9952
vn -0.0473 -0.0634 -0.9969
vn -0.0418 -0.0657 -0.9969
usemtl feather_003
s 1
f 18//1 10//2 3//3 6//4
f 11//5 18//1 6//4 4//6
f 5//7 1//8 7//9 15//10
f 15//10 7//9 8//11 16//12
f 16//12 8//11 9//13 17//14
f 17//14 9//13 10//2 18//1
f 2//15 5//7 15//10 14//16
f 14//16 15//10 16//12 13//17
f 13//17 16//12 17//14 12//18
f 12//18 17//14 18//1 11//5
