# Blender v2.79 (sub 0) OBJ File: 'rooster_base_mesh_BI.blend'
# www.blender.org
mtllib rooster_feather_flight_tertiary_027.mtl
o feather_flight_tertiary_027
v 0.256368 0.240679 0.033360
v 0.253128 0.237089 0.033285
v 0.273255 0.224480 0.033567
v 0.270770 0.221697 0.033508
v 0.253878 0.239695 0.033815
v 0.273950 0.221319 0.034066
v 0.260172 0.238980 0.033417
v 0.264717 0.236317 0.033481
v 0.268658 0.232990 0.033532
v 0.271644 0.228610 0.033561
v 0.266537 0.222920 0.033441
v 0.261909 0.225501 0.033375
v 0.258234 0.229133 0.033331
v 0.255170 0.233437 0.033301
v 0.257682 0.236212 0.033863
v 0.261487 0.232729 0.033910
v 0.265291 0.229245 0.033958
v 0.269096 0.225762 0.034005
vn -0.0014 0.0214 -0.9998
vn -0.0952 -0.0855 -0.9918
vn -0.1380 -0.1117 -0.9841
vn -0.0084 0.0305 -0.9995
vn 0.0971 0.1249 -0.9874
vn 0.1189 0.1687 -0.9785
vn 0.0343 -0.0121 -0.9993
vn -0.0779 -0.1342 -0.9879
vn -0.0631 -0.1082 -0.9921
vn 0.0305 -0.0075 -0.9995
vn -0.0512 -0.0797 -0.9955
vn 0.0224 0.0001 -0.9997
vn -0.0588 -0.0703 -0.9958
vn 0.0128 0.0089 -0.9998
vn 0.1461 0.1110 -0.9830
vn 0.1219 0.0943 -0.9880
vn 0.0951 0.0804 -0.9922
vn 0.0852 0.0874 -0.9925
usemtl feather_002
s 1
f 18//1 10//2 3//3 6//4
f 11//5 18//1 6//4 4//6
f 5//7 1//8 7//9 15//10
f 15//10 7//9 8//11 16//12
f 16//12 8//11 9//13 17//14
f 17//14 9//13 10//2 18//1
f 2//15 5//7 15//10 14//16
f 14//16 15//10 16//12 13//17
f 13//17 16//12 17//14 12//18
f 12//18 17//14 18//1 11//5
