# Blender v2.79 (sub 0) OBJ File: 'rooster_base_mesh_BI.blend'
# www.blender.org
mtllib rooster_feather_flight_secondary_019.mtl
o feather_flight_secondary_019
v 0.104571 0.237765 0.031896
v 0.097634 0.237765 0.031896
v 0.103905 0.199379 0.031896
v 0.098301 0.199379 0.031896
v 0.101103 0.239727 0.031395
v 0.101103 0.195084 0.031395
v 0.106457 0.231265 0.031896
v 0.107838 0.222803 0.031896
v 0.107887 0.214341 0.031896
v 0.106458 0.205879 0.031896
v 0.095748 0.205879 0.031896
v 0.094319 0.214341 0.031896
v 0.094368 0.222803 0.031896
v 0.095749 0.231265 0.031896
v 0.101103 0.231265 0.031395
v 0.101103 0.222803 0.031395
v 0.101103 0.214341 0.031395
v 0.101103 0.205879 0.031395
vn 0.0000 -0.0133 -0.9999
vn 0.1028 -0.0121 -0.9946
vn 0.1322 -0.0195 -0.9910
vn 0.0000 -0.0197 -0.9998
vn -0.1028 -0.0121 -0.9946
vn -0.1322 -0.0195 -0.9910
vn 0.0000 0.0147 -0.9999
vn 0.1162 0.0146 -0.9931
vn 0.0970 0.0101 -0.9952
vn 0.0000 0.0107 -0.9999
vn 0.0781 0.0033 -0.9969
vn 0.0000 0.0035 -1.0000
vn 0.0780 -0.0032 -0.9969
vn 0.0000 -0.0034 -1.0000
vn -0.1162 0.0146 -0.9931
vn -0.0970 0.0101 -0.9952
vn -0.0781 0.0033 -0.9969
vn -0.0780 -0.0032 -0.9969
usemtl feather_003
s 1
f 18//1 10//2 3//3 6//4
f 11//5 18//1 6//4 4//6
f 5//7 1//8 7//9 15//10
f 15//10 7//9 8//11 16//12
f 16//12 8//11 9//13 17//14
f 17//14 9//13 10//2 18//1
f 2//15 5//7 15//10 14//16
f 14//16 15//10 16//12 13//17
f 13//17 16//12 17//14 12//18
f 12//18 17//14 18//1 11//5
