# Blender v2.79 (sub 0) OBJ File: 'rooster_base_mesh_BI.blend'
# www.blender.org
mtllib rooster_feather_tail_primary_005.mtl
o feather_tail_primary_005
v 0.021211 0.252923 -0.144708
v 0.018482 0.243921 -0.145555
v 0.089066 0.244992 -0.285878
v 0.086692 0.237159 -0.286615
v 0.015128 0.249232 -0.138540
v 0.090918 0.241047 -0.295745
v 0.033452 0.254058 -0.168380
v 0.049019 0.254318 -0.199311
v 0.064045 0.252795 -0.230410
v 0.078460 0.249352 -0.261704
v 0.074203 0.235306 -0.263025
v 0.058677 0.235083 -0.232076
v 0.043709 0.236799 -0.200959
v 0.029281 0.240298 -0.169674
v 0.030126 0.247612 -0.169648
v 0.045123 0.245993 -0.200756
v 0.060121 0.244373 -0.231863
v 0.075145 0.242744 -0.262958
v 0.041297 0.254392 -0.183826
v 0.036433 0.238344 -0.185336
v 0.037625 0.246803 -0.185202
v 0.056622 0.253853 -0.214832
v 0.051103 0.235644 -0.216545
v 0.052622 0.245183 -0.216310
v 0.071336 0.251348 -0.246031
v 0.066356 0.234919 -0.247576
v 0.067633 0.243559 -0.247411
v 0.084572 0.247258 -0.275349
v 0.024366 0.248234 -0.157700
v 0.081155 0.235983 -0.276409
v 0.023806 0.241861 -0.157638
v 0.027406 0.253739 -0.156521
v 0.081654 0.242044 -0.276484
vn -0.8926 0.0555 -0.4474
vn -0.8476 0.2982 -0.4390
vn -0.8462 0.2980 -0.4418
vn -0.8936 0.0092 -0.4488
vn -0.7651 0.5161 -0.3851
vn -0.7831 0.4805 -0.3947
vn -0.8565 0.2991 -0.4205
vn -0.8577 0.2993 -0.4180
vn -0.9044 0.0367 -0.4251
vn -0.8585 0.2994 -0.4162
vn -0.9016 0.0655 -0.4274
vn -0.8556 0.2991 -0.4224
vn -0.7929 0.4590 -0.4007
vn -0.7982 0.4458 -0.4051
vn -0.8546 0.2990 -0.4246
vn -0.8535 0.2988 -0.4268
vn -0.7993 0.4411 -0.4081
vn -0.7972 0.4433 -0.4098
vn -0.8525 0.2987 -0.4289
vn -0.8513 0.2986 -0.4313
vn -0.7918 0.4523 -0.4104
vn -0.7799 0.4733 -0.4096
vn -0.8498 0.2984 -0.4345
vn -0.8926 0.1302 -0.4316
vn -0.8895 0.1446 -0.4335
vn -0.8877 0.1496 -0.4355
vn -0.8871 0.1469 -0.4376
vn -0.8875 0.1366 -0.4401
vn -0.8891 0.1128 -0.4435
vn -0.8966 0.1061 -0.4299
vn -0.7510 0.5227 -0.4034
vn -0.7516 0.5407 -0.3777
vn -0.7262 0.5613 -0.3969
usemtl feather_003
s 1
f 30//1 33//2 6//3 4//4
f 32//5 7//6 15//7 29//8
f 2//9 5//10 29//8 31//11
f 21//12 19//13 8//14 16//15
f 24//16 22//17 9//18 17//19
f 27//20 25//21 10//22 18//23
f 20//24 21//12 16//15 13//25
f 23//26 24//16 17//19 12//27
f 26//28 27//20 18//23 11//29
f 15//7 7//6 19//13 21//12
f 14//30 15//7 21//12 20//24
f 16//15 8//14 22//17 24//16
f 13//25 16//15 24//16 23//26
f 17//19 9//18 25//21 27//20
f 12//27 17//19 27//20 26//28
f 18//23 10//22 28//31 33//2
f 11//29 18//23 33//2 30//1
f 5//10 1//32 32//5 29//8
f 14//30 31//11 29//8 15//7
f 33//2 28//31 3//33 6//3
