# Blender v2.79 (sub 0) OBJ File: 'rooster_base_mesh_BI.blend'
# www.blender.org
mtllib rooster_feather_flight_tertiary_057.mtl
o feather_flight_tertiary_057
v 0.241062 0.239820 0.031323
v 0.237528 0.237606 0.031343
v 0.252570 0.220486 0.031310
v 0.249899 0.218813 0.031349
v 0.238687 0.239689 0.030831
v 0.252573 0.217519 0.030827
v 0.244045 0.237193 0.031317
v 0.247470 0.233488 0.031312
v 0.250148 0.229314 0.031305
v 0.251905 0.224564 0.031302
v 0.246520 0.221191 0.031359
v 0.243013 0.224845 0.031356
v 0.240428 0.229077 0.031352
v 0.238589 0.233776 0.031348
v 0.241319 0.235486 0.030830
v 0.243951 0.231284 0.030830
v 0.246583 0.227082 0.030829
v 0.249215 0.222879 0.030828
vn 0.0062 -0.0256 -0.9996
vn 0.1493 0.0680 -0.9864
vn 0.2006 0.0847 -0.9760
vn 0.0102 -0.0363 -0.9993
vn -0.1390 -0.1146 -0.9836
vn -0.1791 -0.1545 -0.9716
vn -0.0173 0.0190 -0.9997
vn 0.1451 0.1202 -0.9821
vn 0.1212 0.0971 -0.9879
vn -0.0139 0.0138 -0.9998
vn 0.0995 0.0702 -0.9926
vn -0.0078 0.0032 -0.9999
vn 0.1048 0.0594 -0.9927
vn -0.0017 -0.0089 -0.9999
vn -0.1787 -0.0827 -0.9804
vn -0.1478 -0.0714 -0.9864
vn -0.1147 -0.0645 -0.9913
vn -0.1086 -0.0761 -0.9911
usemtl feather_002
s 1
f 18//1 10//2 3//3 6//4
f 11//5 18//1 6//4 4//6
f 5//7 1//8 7//9 15//10
f 15//10 7//9 8//11 16//12
f 16//12 8//11 9//13 17//14
f 17//14 9//13 10//2 18//1
f 2//15 5//7 15//10 14//16
f 14//16 15//10 16//12 13//17
f 13//17 16//12 17//14 12//18
f 12//18 17//14 18//1 11//5
