# Blender v2.79 (sub 0) OBJ File: 'rooster_base_mesh_BI.blend'
# www.blender.org
mtllib rooster_feather_flight_secondary_011.mtl
o feather_flight_secondary_011
v 0.219020 0.239515 0.032678
v 0.211684 0.235808 0.032705
v 0.239053 0.198610 0.032968
v 0.232460 0.195586 0.033005
v 0.214304 0.239727 0.033178
v 0.238158 0.192625 0.033522
v 0.224488 0.233664 0.032720
v 0.230680 0.225580 0.032779
v 0.235477 0.216719 0.032840
v 0.238431 0.206885 0.032906
v 0.225985 0.200936 0.032967
v 0.220032 0.209039 0.032903
v 0.216011 0.218169 0.032834
v 0.213163 0.227942 0.032762
v 0.218825 0.230799 0.033243
v 0.223324 0.221857 0.033309
v 0.227698 0.212841 0.033374
v 0.232175 0.203887 0.033439
vn -0.0046 0.0027 -1.0000
vn -0.0765 -0.0350 -0.9964
vn -0.0995 -0.0410 -0.9942
vn -0.0109 0.0056 -0.9999
vn 0.0660 0.0374 -0.9971
vn 0.0828 0.0548 -0.9951
vn 0.0057 -0.0184 -0.9998
vn -0.0821 -0.0627 -0.9946
vn -0.0684 -0.0519 -0.9963
vn 0.0043 -0.0157 -0.9998
vn -0.0555 -0.0387 -0.9977
vn 0.0016 -0.0107 -0.9999
vn -0.0566 -0.0326 -0.9979
vn -0.0008 -0.0052 -1.0000
vn 0.0934 0.0261 -0.9953
vn 0.0767 0.0214 -0.9968
vn 0.0589 0.0178 -0.9981
vn 0.0547 0.0217 -0.9983
usemtl feather_003
s 1
f 18//1 10//2 3//3 6//4
f 11//5 18//1 6//4 4//6
f 5//7 1//8 7//9 15//10
f 15//10 7//9 8//11 16//12
f 16//12 8//11 9//13 17//14
f 17//14 9//13 10//2 18//1
f 2//15 5//7 15//10 14//16
f 14//16 15//10 16//12 13//17
f 13//17 16//12 17//14 12//18
f 12//18 17//14 18//1 11//5
