# Blender v2.79 (sub 0) OBJ File: 'salamander_base_mesh_BI.blend'
# www.blender.org
mtllib salamander_eye.mtl
o eye
v 0.012050 0.044966 0.093944
v 0.011038 0.046121 0.093573
v 0.009713 0.046779 0.093018
v 0.008277 0.046839 0.092363
v 0.006947 0.046291 0.091708
v 0.005927 0.045220 0.091153
v 0.005372 0.043788 0.090782
v 0.012317 0.044893 0.093406
v 0.011532 0.045987 0.092580
v 0.010359 0.046604 0.091720
v 0.008975 0.046649 0.090958
v 0.007593 0.046116 0.090411
v 0.006421 0.045086 0.090160
v 0.005639 0.043716 0.090244
v 0.012585 0.044599 0.092951
v 0.012026 0.045444 0.091738
v 0.011005 0.045894 0.090620
v 0.009674 0.045881 0.089768
v 0.008239 0.045406 0.089311
v 0.006916 0.044543 0.089318
v 0.005907 0.043422 0.089789
v 0.005366 0.042214 0.090652
v 0.012812 0.044129 0.092646
v 0.012446 0.044575 0.091175
v 0.011553 0.044758 0.089885
v 0.010268 0.044652 0.088972
v 0.008787 0.044271 0.088576
v 0.007335 0.043674 0.088755
v 0.006134 0.042951 0.089484
v 0.012964 0.043554 0.092539
v 0.012727 0.043512 0.090978
v 0.011920 0.043369 0.089627
v 0.010665 0.043148 0.088693
v 0.009154 0.042882 0.088318
v 0.007616 0.042611 0.088558
v 0.006286 0.042376 0.089378
v 0.013018 0.042961 0.092646
v 0.012827 0.042417 0.091175
v 0.012050 0.041939 0.089885
v 0.010806 0.041600 0.088972
v 0.009284 0.041451 0.088576
v 0.007716 0.041516 0.088755
v 0.006340 0.041783 0.089484
v 0.012594 0.043488 0.094074
v 0.012965 0.042441 0.092951
v 0.012730 0.041456 0.091738
v 0.011923 0.040684 0.090620
v 0.010669 0.040242 0.089768
v 0.009157 0.040196 0.089311
v 0.007619 0.040555 0.089318
v 0.006287 0.041264 0.089789
v 0.012814 0.042074 0.093406
v 0.012451 0.040777 0.092580
v 0.011559 0.039796 0.091720
v 0.010274 0.039281 0.090958
v 0.008793 0.039309 0.090411
v 0.007340 0.039876 0.090160
v 0.006137 0.040896 0.090244
v 0.012588 0.041914 0.093944
v 0.012033 0.040482 0.093573
v 0.011013 0.039411 0.093018
v 0.009683 0.038864 0.092363
v 0.008247 0.038923 0.091708
v 0.006922 0.039581 0.091153
v 0.005910 0.040736 0.090782
v 0.012321 0.041986 0.094481
v 0.011539 0.040616 0.094566
v 0.010367 0.039586 0.094315
v 0.008985 0.039053 0.093767
v 0.007601 0.039099 0.093005
v 0.006428 0.039715 0.092146
v 0.005643 0.040809 0.091319
v 0.012053 0.042280 0.094937
v 0.011044 0.041159 0.095408
v 0.009721 0.040296 0.095415
v 0.008286 0.039821 0.094958
v 0.006955 0.039808 0.094105
v 0.005934 0.040258 0.092988
v 0.005375 0.041103 0.091775
v 0.011826 0.042751 0.095241
v 0.010625 0.042029 0.095970
v 0.009173 0.041432 0.096150
v 0.007692 0.041051 0.095753
v 0.006407 0.040944 0.094840
v 0.005514 0.041127 0.093550
v 0.005148 0.041573 0.092079
v 0.011674 0.043326 0.095348
v 0.010344 0.043092 0.096168
v 0.008806 0.042820 0.096408
v 0.007295 0.042554 0.096032
v 0.006040 0.042333 0.095098
v 0.005233 0.042190 0.093748
v 0.004996 0.042149 0.092186
v 0.011620 0.043919 0.095241
v 0.010244 0.044187 0.095970
v 0.008676 0.044251 0.096150
v 0.007154 0.044103 0.095753
v 0.005910 0.043763 0.094840
v 0.005133 0.043285 0.093550
v 0.004942 0.042741 0.092079
v 0.011673 0.044438 0.094937
v 0.010341 0.045147 0.095408
v 0.008803 0.045506 0.095415
v 0.007291 0.045461 0.094958
v 0.006037 0.045018 0.094105
v 0.005230 0.044246 0.092988
v 0.004995 0.043261 0.091775
v 0.011823 0.044806 0.094481
v 0.010620 0.045826 0.094566
v 0.009167 0.046393 0.094315
v 0.007686 0.046421 0.093767
v 0.006401 0.045906 0.093005
v 0.005509 0.044925 0.092146
v 0.005146 0.043629 0.091319
vn -0.1736 0.9848 0.0000
vn 0.1731 0.9721 0.1582
vn 0.3330 0.9286 -0.1634
vn -0.0011 0.9379 -0.3468
vn 0.4956 0.8173 0.2938
vn 0.7468 0.5410 0.3868
vn 0.8163 0.5221 0.2470
vn 0.6196 0.7836 0.0444
vn -0.8868 0.2529 -0.3868
vn -0.7453 0.5985 -0.2938
vn -0.6213 0.5648 -0.5431
vn -0.8173 0.2340 -0.5265
vn -0.4951 0.8543 -0.1582
vn -0.3352 0.8108 -0.4798
vn 0.8925 0.1574 0.4226
vn -0.8925 -0.1574 -0.4226
vn -0.4971 0.4285 -0.7544
vn -0.7477 0.1576 -0.6451
vn 0.1715 0.7483 -0.6408
vn -0.1751 0.6349 -0.7525
vn 0.7437 0.6473 -0.1669
vn 0.4931 0.7527 -0.4360
vn 0.8859 0.4456 0.1284
vn 0.9450 0.3233 0.0492
vn -0.6886 0.0352 -0.7243
vn -0.0392 0.3534 -0.9346
vn -0.3918 0.2102 -0.8957
vn 0.6290 0.4712 -0.6182
vn 0.3180 0.4447 -0.8373
vn 0.8491 0.4290 -0.3081
vn 0.0518 0.0091 -0.9986
vn -0.3212 -0.0566 -0.9453
vn 0.7201 0.1270 -0.6822
vn 0.4162 0.0734 -0.9063
vn 0.9846 0.1736 0.0214
vn 0.9196 0.1621 -0.3577
vn -0.6490 -0.1144 -0.7521
vn -0.2962 -0.3316 -0.8957
vn -0.6350 -0.2686 -0.7243
vn 0.4509 -0.3091 -0.8373
vn 0.0840 -0.3455 -0.9346
vn 0.9446 -0.1128 -0.3081
vn 0.7523 -0.2277 -0.6182
vn 0.9986 0.0194 0.0492
vn 0.4171 -0.6445 -0.6408
vn 0.0526 -0.6565 -0.7525
vn 0.9203 -0.3539 -0.1669
vn 0.7209 -0.5387 -0.4360
vn 0.9849 -0.1157 0.1284
vn -0.6487 -0.4038 -0.6451
vn -0.3206 -0.5727 -0.7544
vn -0.6879 -0.4994 -0.5266
vn -0.0377 -0.8766 -0.4798
vn -0.3906 -0.7432 -0.5431
vn 0.6306 -0.7587 -0.1634
vn 0.3197 -0.8817 -0.3468
vn 0.9457 -0.2114 0.2470
vn 0.8502 -0.5244 0.0444
vn 0.4951 -0.8543 0.1582
vn 0.1736 -0.9848 0.0000
vn 0.8868 -0.2529 0.3868
vn 0.7453 -0.5985 0.2938
vn -0.4956 -0.8173 -0.2938
vn -0.7468 -0.5410 -0.3868
vn -0.1731 -0.9721 -0.1582
vn -0.6196 -0.7836 -0.0444
vn -0.8163 -0.5221 -0.2470
vn 0.0011 -0.9379 0.3468
vn -0.3330 -0.9286 0.1634
vn 0.6213 -0.5648 0.5431
vn 0.3352 -0.8108 0.4798
vn 0.8173 -0.2340 0.5266
vn 0.4971 -0.4285 0.7544
vn 0.1751 -0.6349 0.7525
vn 0.7477 -0.1576 0.6451
vn -0.8859 -0.4456 -0.1284
vn -0.4931 -0.7527 0.4360
vn -0.7437 -0.6473 0.1669
vn -0.1715 -0.7483 0.6408
vn -0.9450 -0.3233 -0.0492
vn -0.6290 -0.4712 0.6182
vn -0.8491 -0.4290 0.3081
vn 0.0392 -0.3534 0.9346
vn -0.3181 -0.4447 0.8373
vn 0.6886 -0.0352 0.7243
vn 0.3918 -0.2102 0.8957
vn 0.6490 0.1144 0.7521
vn 0.3213 0.0566 0.9453
vn -0.9196 -0.1621 0.3577
vn -0.9846 -0.1736 -0.0214
vn -0.4162 -0.0734 0.9063
vn -0.7201 -0.1270 0.6822
vn -0.0518 -0.0091 0.9986
vn -0.9446 0.1128 0.3081
vn -0.9986 -0.0194 -0.0492
vn -0.4509 0.3091 0.8373
vn -0.7523 0.2277 0.6182
vn 0.2962 0.3316 0.8957
vn -0.0840 0.3455 0.9346
vn 0.6350 0.2686 0.7243
vn 0.6487 0.4038 0.6451
vn -0.9849 0.1157 -0.1284
vn -0.7209 0.5387 0.4360
vn -0.9203 0.3539 0.1669
vn -0.0526 0.6565 0.7525
vn -0.4171 0.6445 0.6408
vn 0.3206 0.5727 0.7544
vn -0.6306 0.7587 0.1634
vn -0.8502 0.5244 -0.0444
vn 0.0377 0.8766 0.4798
vn -0.3197 0.8817 0.3468
vn 0.6879 0.4994 0.5266
vn 0.3906 0.7432 0.5431
vn -0.9457 0.2114 -0.2470
usemtl eyes
s 1
f 4//1 3//2 10//3 11//4
f 2//5 1//6 8//7 9//8
f 7//9 6//10 13//11 14//12
f 5//13 4//1 11//4 12//14
f 3//2 2//5 9//8 10//3
f 1//6 44//15 8//7
f 22//16 7//9 14//12
f 6//10 5//13 12//14 13//11
f 14//12 13//11 20//17 21//18
f 12//14 11//4 18//19 19//20
f 10//3 9//8 16//21 17//22
f 8//7 44//15 15//23
f 22//16 14//12 21//18
f 13//11 12//14 19//20 20//17
f 11//4 10//3 17//22 18//19
f 9//8 8//7 15//23 16//21
f 15//23 44//15 23//24
f 22//16 21//18 29//25
f 20//17 19//20 27//26 28//27
f 18//19 17//22 25//28 26//29
f 16//21 15//23 23//24 24//30
f 21//18 20//17 28//27 29//25
f 19//20 18//19 26//29 27//26
f 17//22 16//21 24//30 25//28
f 28//27 27//26 34//31 35//32
f 26//29 25//28 32//33 33//34
f 24//30 23//24 30//35 31//36
f 29//25 28//27 35//32 36//37
f 27//26 26//29 33//34 34//31
f 25//28 24//30 31//36 32//33
f 23//24 44//15 30//35
f 22//16 29//25 36//37
f 36//37 35//32 42//38 43//39
f 34//31 33//34 40//40 41//41
f 32//33 31//36 38//42 39//43
f 30//35 44//15 37//44
f 22//16 36//37 43//39
f 35//32 34//31 41//41 42//38
f 33//34 32//33 39//43 40//40
f 31//36 30//35 37//44 38//42
f 41//41 40//40 48//45 49//46
f 39//43 38//42 46//47 47//48
f 37//44 44//15 45//49
f 22//16 43//39 51//50
f 42//38 41//41 49//46 50//51
f 40//40 39//43 47//48 48//45
f 38//42 37//44 45//49 46//47
f 43//39 42//38 50//51 51//50
f 22//16 51//50 58//52
f 50//51 49//46 56//53 57//54
f 48//45 47//48 54//55 55//56
f 46//47 45//49 52//57 53//58
f 51//50 50//51 57//54 58//52
f 49//46 48//45 55//56 56//53
f 47//48 46//47 53//58 54//55
f 45//49 44//15 52//57
f 55//56 54//55 61//59 62//60
f 53//58 52//57 59//61 60//62
f 58//52 57//54 64//63 65//64
f 56//53 55//56 62//60 63//65
f 54//55 53//58 60//62 61//59
f 52//57 44//15 59//61
f 22//16 58//52 65//64
f 57//54 56//53 63//65 64//63
f 65//64 64//63 71//66 72//67
f 63//65 62//60 69//68 70//69
f 61//59 60//62 67//70 68//71
f 59//61 44//15 66//72
f 22//16 65//64 72//67
f 64//63 63//65 70//69 71//66
f 62//60 61//59 68//71 69//68
f 60//62 59//61 66//72 67//70
f 68//71 67//70 74//73 75//74
f 66//72 44//15 73//75
f 22//16 72//67 79//76
f 71//66 70//69 77//77 78//78
f 69//68 68//71 75//74 76//79
f 67//70 66//72 73//75 74//73
f 72//67 71//66 78//78 79//76
f 70//69 69//68 76//79 77//77
f 22//16 79//76 86//80
f 78//78 77//77 84//81 85//82
f 76//79 75//74 82//83 83//84
f 74//73 73//75 80//85 81//86
f 79//76 78//78 85//82 86//80
f 77//77 76//79 83//84 84//81
f 75//74 74//73 81//86 82//83
f 73//75 44//15 80//85
f 81//86 80//85 87//87 88//88
f 86//80 85//82 92//89 93//90
f 84//81 83//84 90//91 91//92
f 82//83 81//86 88//88 89//93
f 80//85 44//15 87//87
f 22//16 86//80 93//90
f 85//82 84//81 91//92 92//89
f 83//84 82//83 89//93 90//91
f 93//90 92//89 99//94 100//95
f 91//92 90//91 97//96 98//97
f 89//93 88//88 95//98 96//99
f 87//87 44//15 94//100
f 22//16 93//90 100//95
f 92//89 91//92 98//97 99//94
f 90//91 89//93 96//99 97//96
f 88//88 87//87 94//100 95//98
f 94//100 44//15 101//101
f 22//16 100//95 107//102
f 99//94 98//97 105//103 106//104
f 97//96 96//99 103//105 104//106
f 95//98 94//100 101//101 102//107
f 100//95 99//94 106//104 107//102
f 98//97 97//96 104//106 105//103
f 96//99 95//98 102//107 103//105
f 106//104 105//103 112//108 113//109
f 104//106 103//105 110//110 111//111
f 102//107 101//101 108//112 109//113
f 107//102 106//104 113//109 114//114
f 105//103 104//106 111//111 112//108
f 103//105 102//107 109//113 110//110
f 101//101 44//15 108//112
f 22//16 107//102 114//114
f 114//114 113//109 6//10 7//9
f 112//108 111//111 4//1 5//13
f 110//110 109//113 2//5 3//2
f 108//112 44//15 1//6
f 22//16 114//114 7//9
f 113//109 112//108 5//13 6//10
f 111//111 110//110 3//2 4//1
f 109//113 108//112 1//6 2//5
