# Blender v2.79 (sub 0) OBJ File: 'serval_base_mesh_BI.blend'
# www.blender.org
mtllib serval_eye.mtl
o eye
v 0.012570 0.564206 0.503895
v 0.008137 0.564520 0.509313
v 0.006119 0.564882 0.516014
v 0.006822 0.565239 0.522977
v 0.010140 0.565534 0.529142
v 0.015567 0.565725 0.533571
v 0.021876 0.565767 0.535278
v 0.013051 0.561568 0.503878
v 0.009026 0.559645 0.509283
v 0.007280 0.558513 0.515975
v 0.008079 0.558345 0.522935
v 0.011302 0.559165 0.529103
v 0.016456 0.560850 0.533541
v 0.022377 0.563016 0.535261
v 0.014459 0.559309 0.503559
v 0.011628 0.555470 0.508693
v 0.010681 0.553058 0.515204
v 0.011760 0.552440 0.522101
v 0.014702 0.553710 0.528332
v 0.019059 0.556675 0.532951
v 0.023846 0.560660 0.534928
v 0.029250 0.565693 0.534890
v 0.016580 0.557772 0.502986
v 0.015548 0.552630 0.507634
v 0.015802 0.549347 0.513820
v 0.017303 0.548423 0.520602
v 0.019823 0.549999 0.526948
v 0.022978 0.553835 0.531892
v 0.026058 0.559058 0.534330
v 0.019092 0.557191 0.502245
v 0.020188 0.551557 0.506266
v 0.021864 0.547945 0.512032
v 0.023865 0.546906 0.518667
v 0.025886 0.548597 0.525161
v 0.027619 0.552762 0.530524
v 0.028676 0.558452 0.533558
v 0.021610 0.557655 0.501451
v 0.024842 0.552415 0.504798
v 0.027945 0.549066 0.510114
v 0.030447 0.548119 0.516591
v 0.031967 0.549718 0.523242
v 0.032273 0.553620 0.529056
v 0.031302 0.558936 0.532730
v 0.018742 0.563990 0.500584
v 0.023753 0.559094 0.500723
v 0.028802 0.555073 0.503453
v 0.033119 0.552539 0.508357
v 0.036047 0.551878 0.514689
v 0.037140 0.553191 0.521485
v 0.036232 0.556278 0.527711
v 0.033537 0.560436 0.531971
v 0.025194 0.561287 0.500173
v 0.031464 0.559126 0.502436
v 0.036598 0.557835 0.507028
v 0.039812 0.557611 0.513251
v 0.040619 0.558487 0.520157
v 0.038895 0.560331 0.526694
v 0.035039 0.562724 0.531397
v 0.025714 0.563902 0.499884
v 0.032424 0.563958 0.501902
v 0.037852 0.564148 0.506331
v 0.041169 0.564444 0.512496
v 0.041873 0.564800 0.519459
v 0.039855 0.565163 0.526160
v 0.035581 0.565450 0.531096
v 0.025233 0.566541 0.499900
v 0.031535 0.568833 0.501932
v 0.036690 0.570517 0.506370
v 0.039912 0.571338 0.512539
v 0.040711 0.571169 0.519499
v 0.038966 0.570038 0.526190
v 0.035079 0.568201 0.531113
v 0.023824 0.568800 0.500219
v 0.028933 0.573008 0.502522
v 0.033290 0.575973 0.507141
v 0.036232 0.577243 0.513373
v 0.037311 0.576625 0.520269
v 0.036363 0.574213 0.526780
v 0.033611 0.570557 0.531445
v 0.021703 0.570337 0.500793
v 0.025013 0.575848 0.503581
v 0.028169 0.579684 0.508525
v 0.030689 0.581259 0.514871
v 0.032190 0.580336 0.521653
v 0.032444 0.577053 0.527839
v 0.031399 0.572160 0.532043
v 0.019192 0.570918 0.501533
v 0.020373 0.576921 0.504949
v 0.022106 0.581085 0.510312
v 0.024127 0.582777 0.516806
v 0.026127 0.581737 0.523441
v 0.027804 0.578126 0.529207
v 0.028780 0.572765 0.532815
v 0.016673 0.570454 0.502328
v 0.015719 0.576063 0.506418
v 0.016025 0.579965 0.512231
v 0.017545 0.581563 0.518882
v 0.020046 0.580617 0.525359
v 0.023149 0.577268 0.530676
v 0.026154 0.572281 0.533644
v 0.014530 0.569015 0.503056
v 0.011759 0.573405 0.507763
v 0.010851 0.576492 0.513988
v 0.011945 0.577804 0.520784
v 0.014873 0.577144 0.527116
v 0.019190 0.574610 0.532021
v 0.023920 0.570781 0.534403
v 0.013089 0.566821 0.503606
v 0.009097 0.569352 0.508779
v 0.007373 0.571196 0.515317
v 0.008180 0.572072 0.522222
v 0.011394 0.571848 0.528445
v 0.016527 0.570557 0.533037
v 0.022417 0.568494 0.534977
v 0.020959 0.565770 0.535193
v 0.021520 0.562692 0.535174
v 0.023163 0.560056 0.534801
v 0.025638 0.558262 0.534132
v 0.028568 0.557585 0.533269
v 0.031506 0.558127 0.532342
v 0.034006 0.559805 0.531492
v 0.035687 0.562364 0.530850
v 0.036293 0.565415 0.530513
v 0.035732 0.568493 0.530532
v 0.034089 0.571129 0.530905
v 0.031614 0.572922 0.531574
v 0.028684 0.573599 0.532437
v 0.025746 0.573058 0.533364
v 0.023246 0.571380 0.534214
v 0.021565 0.568820 0.534856
vn -0.9962 0.0027 -0.0869
vn -0.8907 -0.0171 -0.4541
vn -0.8404 -0.2930 -0.4559
vn -0.9313 -0.3532 -0.0891
vn -0.6532 -0.0345 -0.7564
vn -0.2925 -0.0474 -0.9550
vn -0.6249 -0.1892 -0.7574
vn -0.4840 0.0489 0.8737
vn -0.7772 0.0382 0.6281
vn -0.7122 -0.3176 0.6259
vn -0.4337 -0.2270 0.8720
vn -0.9562 0.0221 0.2918
vn -0.8862 -0.3617 0.2894
vn -0.2017 0.0522 0.9780
vn -0.1682 -0.1318 0.9769
vn -0.5222 -0.6225 0.5828
vn -0.2864 -0.4634 0.8386
vn -0.7413 -0.6580 -0.1322
vn -0.6813 -0.6905 0.2430
vn -0.5423 -0.3217 -0.7761
vn -0.6931 -0.5293 -0.4892
vn -0.0699 -0.2894 0.9546
vn -0.0645 -0.6242 0.7786
vn 0.0780 -0.3966 0.9146
vn -0.3726 -0.9141 0.1595
vn -0.2360 -0.8299 0.5055
vn -0.4712 -0.6901 -0.5492
vn -0.4551 -0.8654 -0.2096
vn -0.4180 -0.4119 -0.8097
vn -0.0073 -0.9986 0.0518
vn 0.1028 -0.9082 0.4056
vn -0.2086 -0.7508 -0.6267
vn -0.1162 -0.9438 -0.3095
vn -0.2706 -0.4459 -0.8531
vn 0.1981 -0.6849 0.7012
vn 0.2532 -0.4372 0.8630
vn 0.4426 -0.8456 0.2984
vn 0.4616 -0.6363 0.6181
vn 0.2235 -0.8811 -0.4167
vn 0.3592 -0.9311 -0.0638
vn -0.1229 -0.4187 -0.8997
vn 0.0548 -0.7023 -0.7098
vn 0.4289 -0.4048 0.8076
vn 0.5127 -0.6870 -0.5149
vn 0.6710 -0.7218 -0.1697
vn 0.0027 -0.3343 -0.9424
vn 0.2790 -0.5518 -0.7859
vn 0.6857 -0.4859 0.5419
vn 0.5784 -0.3044 0.7568
vn 0.7317 -0.6515 0.2002
vn 0.8364 -0.2564 0.4844
vn 0.6789 -0.1514 0.7184
vn 0.8806 -0.4026 -0.2497
vn 0.9261 -0.3555 0.1259
vn 0.4297 -0.3224 -0.8434
vn 0.7071 -0.3911 -0.5891
vn 0.0873 -0.2057 -0.9747
vn 0.4840 -0.0489 -0.8737
vn 0.7772 -0.0382 -0.6281
vn 0.1177 -0.0523 -0.9916
vn 0.9962 -0.0027 0.0869
vn 0.8907 0.0171 0.4541
vn 0.9562 -0.0221 -0.2918
vn 0.7152 0.0310 0.6982
vn 0.9313 0.3532 0.0891
vn 0.8404 0.2930 0.4559
vn 0.7122 0.3176 -0.6259
vn 0.8862 0.3617 -0.2894
vn 0.0895 0.1024 -0.9907
vn 0.4337 0.2270 -0.8720
vn 0.6816 0.2150 0.6994
vn 0.0069 0.2349 -0.9720
vn 0.2864 0.4634 -0.8386
vn 0.6931 0.5293 0.4892
vn 0.5834 0.3727 0.7216
vn 0.6813 0.6905 -0.2430
vn 0.7413 0.6580 0.1322
vn 0.5222 0.6225 -0.5828
vn 0.4712 0.6901 0.5492
vn 0.4354 0.4799 0.7616
vn 0.3726 0.9141 -0.1595
vn 0.4551 0.8654 0.2096
vn 0.0645 0.6242 -0.7786
vn 0.2360 0.8299 -0.5055
vn -0.1175 0.3251 -0.9384
vn -0.2648 0.3591 -0.8949
vn 0.1162 0.9438 0.3095
vn 0.2086 0.7508 0.6267
vn -0.1028 0.9082 -0.4056
vn 0.0073 0.9986 -0.0518
vn -0.1981 0.6849 -0.7012
vn 0.2602 0.5204 0.8133
vn -0.2235 0.8811 0.4167
vn -0.0548 0.7023 0.7098
vn -0.4426 0.8456 -0.2984
vn -0.3592 0.9311 0.0638
vn -0.4125 0.3319 -0.8483
vn -0.4616 0.6363 -0.6181
vn 0.0845 0.4880 0.8687
vn -0.2790 0.5518 0.7859
vn -0.0650 0.3877 0.9195
vn -0.6710 0.7218 0.1697
vn -0.5127 0.6870 0.5149
vn -0.6857 0.4859 -0.5419
vn -0.7317 0.6515 -0.2002
vn -0.5382 0.2475 -0.8056
vn -0.8806 0.4026 0.2497
vn -0.7071 0.3911 0.5891
vn -0.8364 0.2564 -0.4844
vn -0.9261 0.3555 -0.1259
vn -0.6227 0.1189 -0.7734
vn -0.4297 0.3224 0.8434
vn -0.1655 0.2346 0.9579
vn -0.0041 0.1735 0.9848
vn -0.0282 0.0520 0.9982
vn 0.0629 0.2755 0.9592
vn 0.1625 0.3424 0.9254
vn 0.2795 0.3639 0.8885
vn 0.3962 0.3370 0.8541
vn 0.4948 0.2655 0.8274
vn 0.5603 0.1605 0.8126
vn 0.5827 0.0379 0.8118
vn 0.5585 -0.0837 0.8253
vn 0.4915 -0.1856 0.8508
vn 0.3919 -0.2524 0.8846
vn 0.2749 -0.2740 0.9216
vn 0.1581 -0.2470 0.9560
vn 0.0596 -0.1756 0.9826
vn -0.0059 -0.0706 0.9975
vn 0.2925 0.0474 0.9550
usemtl eyes_iris
s 1
f 3//1 2//2 9//3 10//4
f 1//5 44//6 8//7
f 6//8 5//9 12//10 13//11
f 4//12 3//1 10//4 11//13
f 2//2 1//5 8//7 9//3
f 115//14 6//8 13//11 116//15
f 5//9 4//12 11//13 12//10
f 13//11 12//10 19//16 20//17
f 11//13 10//4 17//18 18//19
f 9//3 8//7 15//20 16//21
f 116//15 13//11 20//17 117//22
f 12//10 11//13 18//19 19//16
f 10//4 9//3 16//21 17//18
f 8//7 44//6 15//20
f 117//22 20//17 28//23 118//24
f 19//16 18//19 26//25 27//26
f 17//18 16//21 24//27 25//28
f 15//20 44//6 23//29
f 20//17 19//16 27//26 28//23
f 18//19 17//18 25//28 26//25
f 16//21 15//20 23//29 24//27
f 27//26 26//25 33//30 34//31
f 25//28 24//27 31//32 32//33
f 23//29 44//6 30//34
f 28//23 27//26 34//31 35//35
f 26//25 25//28 32//33 33//30
f 24//27 23//29 30//34 31//32
f 118//24 28//23 35//35 119//36
f 35//35 34//31 41//37 42//38
f 33//30 32//33 39//39 40//40
f 31//32 30//34 37//41 38//42
f 119//36 35//35 42//38 120//43
f 34//31 33//30 40//40 41//37
f 32//33 31//32 38//42 39//39
f 30//34 44//6 37//41
f 40//40 39//39 47//44 48//45
f 38//42 37//41 45//46 46//47
f 120//43 42//38 50//48 121//49
f 41//37 40//40 48//45 49//50
f 39//39 38//42 46//47 47//44
f 37//41 44//6 45//46
f 42//38 41//37 49//50 50//48
f 121//49 50//48 57//51 122//52
f 49//50 48//45 55//53 56//54
f 47//44 46//47 53//55 54//56
f 45//46 44//6 52//57
f 50//48 49//50 56//54 57//51
f 48//45 47//44 54//56 55//53
f 46//47 45//46 52//57 53//55
f 54//56 53//55 60//58 61//59
f 52//57 44//6 59//60
f 57//51 56//54 63//61 64//62
f 55//53 54//56 61//59 62//63
f 53//55 52//57 59//60 60//58
f 122//52 57//51 64//62 123//64
f 56//54 55//53 62//63 63//61
f 64//62 63//61 70//65 71//66
f 62//63 61//59 68//67 69//68
f 60//58 59//60 66//69 67//70
f 123//64 64//62 71//66 124//71
f 63//61 62//63 69//68 70//65
f 61//59 60//58 67//70 68//67
f 59//60 44//6 66//69
f 67//70 66//69 73//72 74//73
f 124//71 71//66 78//74 125//75
f 70//65 69//68 76//76 77//77
f 68//67 67//70 74//73 75//78
f 66//69 44//6 73//72
f 71//66 70//65 77//77 78//74
f 69//68 68//67 75//78 76//76
f 125//75 78//74 85//79 126//80
f 77//77 76//76 83//81 84//82
f 75//78 74//73 81//83 82//84
f 73//72 44//6 80//85
f 78//74 77//77 84//82 85//79
f 76//76 75//78 82//84 83//81
f 74//73 73//72 80//85 81//83
f 80//85 44//6 87//86
f 85//79 84//82 91//87 92//88
f 83//81 82//84 89//89 90//90
f 81//83 80//85 87//86 88//91
f 126//80 85//79 92//88 127//92
f 84//82 83//81 90//90 91//87
f 82//84 81//83 88//91 89//89
f 92//88 91//87 98//93 99//94
f 90//90 89//89 96//95 97//96
f 88//91 87//86 94//97 95//98
f 127//92 92//88 99//94 128//99
f 91//87 90//90 97//96 98//93
f 89//89 88//91 95//98 96//95
f 87//86 44//6 94//97
f 128//99 99//94 106//100 129//101
f 98//93 97//96 104//102 105//103
f 96//95 95//98 102//104 103//105
f 94//97 44//6 101//106
f 99//94 98//93 105//103 106//100
f 97//96 96//95 103//105 104//102
f 95//98 94//97 101//106 102//104
f 105//103 104//102 111//107 112//108
f 103//105 102//104 109//109 110//110
f 101//106 44//6 108//111
f 106//100 105//103 112//108 113//112
f 104//102 103//105 110//110 111//107
f 102//104 101//106 108//111 109//109
f 129//101 106//100 113//112 130//113
f 113//112 112//108 5//9 6//8
f 111//107 110//110 3//1 4//12
f 109//109 108//111 1//5 2//2
f 130//113 113//112 6//8 115//14
f 112//108 111//107 4//12 5//9
f 110//110 109//109 2//2 3//1
f 108//111 44//6 1//5
f 114//114 130//113 115//14 7//115
f 107//116 129//101 130//113 114//114
f 100//117 128//99 129//101 107//116
f 93//118 127//92 128//99 100//117
f 86//119 126//80 127//92 93//118
f 79//120 125//75 126//80 86//119
f 72//121 124//71 125//75 79//120
f 65//122 123//64 124//71 72//121
f 58//123 122//52 123//64 65//122
f 51//124 121//49 122//52 58//123
f 43//125 120//43 121//49 51//124
f 36//126 119//36 120//43 43//125
f 29//127 118//24 119//36 36//126
f 21//128 117//22 118//24 29//127
f 14//129 116//15 117//22 21//128
f 7//115 115//14 116//15 14//129
usemtl eyes_pupil
f 22//130 7//115 14//129
f 22//130 14//129 21//128
f 22//130 21//128 29//127
f 22//130 29//127 36//126
f 22//130 36//126 43//125
f 22//130 43//125 51//124
f 22//130 51//124 58//123
f 22//130 58//123 65//122
f 22//130 65//122 72//121
f 22//130 72//121 79//120
f 22//130 79//120 86//119
f 22//130 86//119 93//118
f 22//130 93//118 100//117
f 22//130 100//117 107//116
f 22//130 107//116 114//114
f 22//130 114//114 7//115
