# Blender v2.79 (sub 0) OBJ File: 'yak_base_mesh_BI.blend'
# www.blender.org
mtllib yak_eye.mtl
o eye
v 0.192722 1.550474 1.509632
v 0.184102 1.566222 1.503597
v 0.171203 1.576744 1.494565
v 0.155987 1.580439 1.483910
v 0.140771 1.576744 1.473256
v 0.127871 1.566222 1.464223
v 0.119252 1.550474 1.458188
v 0.196799 1.549060 1.503809
v 0.191636 1.563609 1.492838
v 0.181046 1.573330 1.480507
v 0.166641 1.576744 1.468694
v 0.150614 1.573330 1.459198
v 0.135405 1.563609 1.453464
v 0.123329 1.549060 1.452365
v 0.200256 1.545034 1.498873
v 0.198023 1.556169 1.483716
v 0.189391 1.563609 1.468589
v 0.175674 1.566222 1.455794
v 0.158959 1.563609 1.447280
v 0.141792 1.556169 1.444342
v 0.126786 1.545034 1.447429
v 0.116225 1.531899 1.456069
v 0.202565 1.539007 1.495574
v 0.202291 1.545034 1.477621
v 0.194967 1.549060 1.460626
v 0.181709 1.550474 1.447175
v 0.164535 1.549060 1.439317
v 0.146059 1.545034 1.438248
v 0.129095 1.539007 1.444130
v 0.203376 1.531899 1.494416
v 0.203789 1.531899 1.475481
v 0.196925 1.531899 1.457830
v 0.183828 1.531899 1.444148
v 0.166493 1.531899 1.436521
v 0.147558 1.531899 1.436108
v 0.129906 1.531899 1.442972
v 0.202565 1.524790 1.495574
v 0.202291 1.518764 1.477621
v 0.194967 1.514737 1.460626
v 0.181709 1.513323 1.447175
v 0.164535 1.514737 1.439317
v 0.146059 1.518764 1.438248
v 0.129095 1.524790 1.444130
v 0.195748 1.531899 1.511752
v 0.200256 1.518764 1.498873
v 0.198023 1.507629 1.483716
v 0.189391 1.500189 1.468589
v 0.175674 1.497576 1.455794
v 0.158959 1.500189 1.447280
v 0.141792 1.507629 1.444342
v 0.126786 1.518764 1.447429
v 0.196799 1.514737 1.503809
v 0.191636 1.500189 1.492838
v 0.181046 1.490467 1.480507
v 0.166641 1.487054 1.468694
v 0.150614 1.490467 1.459198
v 0.135405 1.500189 1.453464
v 0.123329 1.514737 1.452365
v 0.192722 1.513323 1.509632
v 0.184102 1.497576 1.503597
v 0.171203 1.487054 1.494565
v 0.155987 1.483359 1.483910
v 0.140771 1.487054 1.473256
v 0.127871 1.497576 1.464223
v 0.119252 1.513323 1.458188
v 0.188644 1.514737 1.515455
v 0.176569 1.500189 1.514356
v 0.161359 1.490467 1.508622
v 0.145332 1.487054 1.499126
v 0.130927 1.490467 1.487314
v 0.120337 1.500189 1.474983
v 0.115174 1.514737 1.464011
v 0.185188 1.518764 1.520392
v 0.170182 1.507629 1.523478
v 0.153015 1.500189 1.520540
v 0.136300 1.497576 1.512026
v 0.122582 1.500189 1.499231
v 0.113950 1.507629 1.484104
v 0.111718 1.518764 1.468947
v 0.182878 1.524790 1.523690
v 0.165914 1.518764 1.529572
v 0.147439 1.514737 1.528503
v 0.130265 1.513323 1.520645
v 0.117006 1.514737 1.507194
v 0.109683 1.518764 1.490199
v 0.109408 1.524790 1.472246
v 0.182067 1.531899 1.524848
v 0.164416 1.531899 1.531713
v 0.145481 1.531899 1.531299
v 0.128145 1.531899 1.523672
v 0.115048 1.531899 1.509991
v 0.108184 1.531899 1.492339
v 0.108597 1.531899 1.473404
v 0.182878 1.539007 1.523690
v 0.165914 1.545034 1.529572
v 0.147439 1.549060 1.528503
v 0.130265 1.550474 1.520645
v 0.117006 1.549060 1.507194
v 0.109683 1.545034 1.490199
v 0.109408 1.539007 1.472246
v 0.185188 1.545034 1.520392
v 0.170182 1.556169 1.523478
v 0.153015 1.563609 1.520540
v 0.136300 1.566222 1.512026
v 0.122582 1.563609 1.499231
v 0.113950 1.556169 1.484104
v 0.111718 1.545034 1.468947
v 0.188644 1.549060 1.515455
v 0.176569 1.563609 1.514356
v 0.161359 1.573330 1.508622
v 0.145332 1.576744 1.499126
v 0.130927 1.573330 1.487314
v 0.120337 1.563609 1.474983
v 0.115174 1.549060 1.464011
vn 0.5694 0.7188 0.3987
vn 0.7496 0.4031 0.5249
vn 0.8381 0.3724 0.3985
vn 0.7272 0.6641 0.1734
vn -0.7496 0.4031 -0.5249
vn -0.5694 0.7188 -0.3987
vn -0.4116 0.6641 -0.6241
vn -0.6612 0.3724 -0.6513
vn -0.3066 0.9273 -0.2147
vn 0.0000 1.0000 0.0000
vn 0.2195 0.9239 -0.3135
vn -0.1031 0.8567 -0.5054
vn 0.3066 0.9273 0.2147
vn 0.5102 0.8567 -0.0759
vn 0.8191 0.0000 0.5736
vn -0.8191 0.0000 -0.5736
vn 0.4056 0.7071 -0.5792
vn 0.0694 0.6557 -0.7518
vn 0.8610 0.5083 -0.0176
vn 0.6827 0.6557 -0.3224
vn 0.9131 0.2850 0.2914
vn -0.5861 0.2850 -0.7584
vn -0.2779 0.5083 -0.8151
vn -0.5360 0.1542 -0.8300
vn 0.1847 0.3548 -0.9165
vn -0.1885 0.2751 -0.9427
vn 0.7980 0.3548 -0.4870
vn 0.5299 0.3827 -0.7568
vn 0.9633 0.1542 0.2198
vn 0.9503 0.2751 -0.1453
vn 0.8385 0.0000 -0.5448
vn 0.5736 0.0000 -0.8191
vn 0.9808 0.0000 0.1947
vn 0.9817 0.0000 -0.1901
vn -0.1571 0.0000 -0.9876
vn -0.5184 0.0000 -0.8551
vn 0.2252 0.0000 -0.9743
vn -0.1885 -0.2751 -0.9427
vn -0.5360 -0.1542 -0.8300
vn 0.5299 -0.3827 -0.7568
vn 0.1847 -0.3548 -0.9165
vn 0.9503 -0.2751 -0.1453
vn 0.7980 -0.3548 -0.4870
vn 0.9633 -0.1542 0.2198
vn 0.8610 -0.5083 -0.0176
vn 0.6827 -0.6557 -0.3224
vn 0.9131 -0.2850 0.2914
vn -0.5861 -0.2850 -0.7584
vn 0.0694 -0.6557 -0.7518
vn -0.2779 -0.5083 -0.8151
vn 0.4056 -0.7071 -0.5792
vn -0.6612 -0.3724 -0.6513
vn -0.1031 -0.8567 -0.5054
vn -0.4116 -0.6641 -0.6240
vn 0.5102 -0.8567 -0.0759
vn 0.2195 -0.9239 -0.3135
vn 0.8381 -0.3724 0.3985
vn 0.7272 -0.6641 0.1734
vn 0.7496 -0.4031 0.5249
vn 0.5694 -0.7188 0.3987
vn -0.5694 -0.7188 -0.3987
vn -0.7496 -0.4031 -0.5249
vn 0.0000 -1.0000 0.0000
vn -0.3066 -0.9273 -0.2147
vn 0.3066 -0.9273 0.2147
vn -0.7272 -0.6641 -0.1734
vn -0.8381 -0.3724 -0.3985
vn -0.2195 -0.9239 0.3135
vn -0.5102 -0.8567 0.0759
vn 0.4116 -0.6641 0.6240
vn 0.1031 -0.8567 0.5054
vn 0.6612 -0.3724 0.6513
vn 0.5862 -0.2850 0.7584
vn -0.9131 -0.2850 -0.2914
vn -0.6827 -0.6557 0.3224
vn -0.8610 -0.5083 0.0176
vn -0.0694 -0.6557 0.7518
vn -0.4056 -0.7071 0.5792
vn 0.2779 -0.5083 0.8151
vn -0.7980 -0.3548 0.4870
vn -0.9503 -0.2751 0.1453
vn -0.1847 -0.3548 0.9165
vn -0.5299 -0.3827 0.7568
vn 0.5360 -0.1542 0.8300
vn 0.1885 -0.2751 0.9427
vn -0.9633 -0.1542 -0.2198
vn -0.9817 0.0000 0.1901
vn -0.9808 0.0000 -0.1947
vn -0.5736 0.0000 0.8191
vn -0.8385 0.0000 0.5448
vn 0.1571 0.0000 0.9876
vn -0.2252 0.0000 0.9743
vn 0.5184 0.0000 0.8551
vn -0.5299 0.3827 0.7568
vn -0.7980 0.3548 0.4870
vn 0.1885 0.2751 0.9427
vn -0.1847 0.3548 0.9165
vn 0.5360 0.1542 0.8300
vn -0.9633 0.1542 -0.2198
vn -0.9503 0.2751 0.1453
vn -0.9131 0.2850 -0.2914
vn -0.6827 0.6557 0.3224
vn -0.8610 0.5083 0.0176
vn -0.0694 0.6557 0.7518
vn -0.4056 0.7071 0.5792
vn 0.5861 0.2850 0.7584
vn 0.2779 0.5083 0.8151
vn 0.1031 0.8567 0.5054
vn -0.2195 0.9239 0.3135
vn 0.6612 0.3724 0.6513
vn 0.4116 0.6641 0.6240
vn -0.7272 0.6641 -0.1734
vn -0.8381 0.3724 -0.3985
vn -0.5102 0.8567 0.0759
usemtl eyes
s 1
f 2//1 1//2 8//3 9//4
f 7//5 6//6 13//7 14//8
f 5//9 4//10 11//11 12//12
f 3//13 2//1 9//4 10//14
f 1//2 44//15 8//3
f 22//16 7//5 14//8
f 6//6 5//9 12//12 13//7
f 4//10 3//13 10//14 11//11
f 12//12 11//11 18//17 19//18
f 10//14 9//4 16//19 17//20
f 8//3 44//15 15//21
f 22//16 14//8 21//22
f 13//7 12//12 19//18 20//23
f 11//11 10//14 17//20 18//17
f 9//4 8//3 15//21 16//19
f 14//8 13//7 20//23 21//22
f 22//16 21//22 29//24
f 20//23 19//18 27//25 28//26
f 18//17 17//20 25//27 26//28
f 16//19 15//21 23//29 24//30
f 21//22 20//23 28//26 29//24
f 19//18 18//17 26//28 27//25
f 17//20 16//19 24//30 25//27
f 15//21 44//15 23//29
f 26//28 25//27 32//31 33//32
f 24//30 23//29 30//33 31//34
f 29//24 28//26 35//35 36//36
f 27//25 26//28 33//32 34//37
f 25//27 24//30 31//34 32//31
f 23//29 44//15 30//33
f 22//16 29//24 36//36
f 28//26 27//25 34//37 35//35
f 36//36 35//35 42//38 43//39
f 34//37 33//32 40//40 41//41
f 32//31 31//34 38//42 39//43
f 30//33 44//15 37//44
f 22//16 36//36 43//39
f 35//35 34//37 41//41 42//38
f 33//32 32//31 39//43 40//40
f 31//34 30//33 37//44 38//42
f 39//43 38//42 46//45 47//46
f 37//44 44//15 45//47
f 22//16 43//39 51//48
f 42//38 41//41 49//49 50//50
f 40//40 39//43 47//46 48//51
f 38//42 37//44 45//47 46//45
f 43//39 42//38 50//50 51//48
f 41//41 40//40 48//51 49//49
f 22//16 51//48 58//52
f 50//50 49//49 56//53 57//54
f 48//51 47//46 54//55 55//56
f 46//45 45//47 52//57 53//58
f 51//48 50//50 57//54 58//52
f 49//49 48//51 55//56 56//53
f 47//46 46//45 53//58 54//55
f 45//47 44//15 52//57
f 53//58 52//57 59//59 60//60
f 58//52 57//54 64//61 65//62
f 56//53 55//56 62//63 63//64
f 54//55 53//58 60//60 61//65
f 52//57 44//15 59//59
f 22//16 58//52 65//62
f 57//54 56//53 63//64 64//61
f 55//56 54//55 61//65 62//63
f 65//62 64//61 71//66 72//67
f 63//64 62//63 69//68 70//69
f 61//65 60//60 67//70 68//71
f 59//59 44//15 66//72
f 22//16 65//62 72//67
f 64//61 63//64 70//69 71//66
f 62//63 61//65 68//71 69//68
f 60//60 59//59 66//72 67//70
f 66//72 44//15 73//73
f 22//16 72//67 79//74
f 71//66 70//69 77//75 78//76
f 69//68 68//71 75//77 76//78
f 67//70 66//72 73//73 74//79
f 72//67 71//66 78//76 79//74
f 70//69 69//68 76//78 77//75
f 68//71 67//70 74//79 75//77
f 78//76 77//75 84//80 85//81
f 76//78 75//77 82//82 83//83
f 74//79 73//73 80//84 81//85
f 79//74 78//76 85//81 86//86
f 77//75 76//78 83//83 84//80
f 75//77 74//79 81//85 82//82
f 73//73 44//15 80//84
f 22//16 79//74 86//86
f 86//86 85//81 92//87 93//88
f 84//80 83//83 90//89 91//90
f 82//82 81//85 88//91 89//92
f 80//84 44//15 87//93
f 22//16 86//86 93//88
f 85//81 84//80 91//90 92//87
f 83//83 82//82 89//92 90//89
f 81//85 80//84 87//93 88//91
f 91//90 90//89 97//94 98//95
f 89//92 88//91 95//96 96//97
f 87//93 44//15 94//98
f 22//16 93//88 100//99
f 92//87 91//90 98//95 99//100
f 90//89 89//92 96//97 97//94
f 88//91 87//93 94//98 95//96
f 93//88 92//87 99//100 100//99
f 22//16 100//99 107//101
f 99//100 98//95 105//102 106//103
f 97//94 96//97 103//104 104//105
f 95//96 94//98 101//106 102//107
f 100//99 99//100 106//103 107//101
f 98//95 97//94 104//105 105//102
f 96//97 95//96 102//107 103//104
f 94//98 44//15 101//106
f 104//105 103//104 110//108 111//109
f 102//107 101//106 108//110 109//111
f 107//101 106//103 113//112 114//113
f 105//102 104//105 111//109 112//114
f 103//104 102//107 109//111 110//108
f 101//106 44//15 108//110
f 22//16 107//101 114//113
f 106//103 105//102 112//114 113//112
f 114//113 113//112 6//6 7//5
f 112//114 111//109 4//10 5//9
f 110//108 109//111 2//1 3//13
f 108//110 44//15 1//2
f 22//16 114//113 7//5
f 113//112 112//114 5//9 6//6
f 111//109 110//108 3//13 4//10
f 109//111 108//110 1//2 2//1
