# Blender v2.79 (sub 0) OBJ File: 'ara_base_mesh_BI.blend'
# www.blender.org
mtllib ara_feather_flight_secondary_025.mtl
o feather_flight_secondary_025
v 0.241339 0.184180 0.013060
v 0.229535 0.181028 0.013051
v 0.260930 0.119454 0.012930
v 0.244822 0.115153 0.012917
v 0.234546 0.185940 0.012338
v 0.254827 0.109996 0.012184
v 0.247501 0.173979 0.013040
v 0.254043 0.160304 0.013013
v 0.259610 0.146369 0.012985
v 0.262976 0.131846 0.012956
v 0.236870 0.124876 0.012935
v 0.232547 0.139143 0.012964
v 0.230426 0.153999 0.012995
v 0.229279 0.169114 0.013026
v 0.238390 0.171545 0.012308
v 0.242234 0.157149 0.012279
v 0.246078 0.142754 0.012250
v 0.249923 0.128359 0.012221
vn 0.0019 -0.0041 -1.0000
vn 0.0596 0.0122 -0.9981
vn 0.0712 0.0087 -0.9974
vn 0.0033 -0.0095 -0.9999
vn -0.0563 -0.0187 -0.9982
vn -0.0646 -0.0276 -0.9975
vn -0.0029 0.0137 -0.9999
vn 0.0894 0.0383 -0.9952
vn 0.0742 0.0308 -0.9967
vn -0.0021 0.0109 -0.9999
vn 0.0573 0.0221 -0.9981
vn -0.0010 0.0067 -1.0000
vn 0.0519 0.0171 -0.9985
vn -0.0001 0.0032 -1.0000
vn -0.0952 -0.0109 -0.9954
vn -0.0783 -0.0099 -0.9969
vn -0.0593 -0.0090 -0.9982
vn -0.0521 -0.0107 -0.9986
usemtl feather_002
s 1
f 18//1 10//2 3//3 6//4
f 11//5 18//1 6//4 4//6
f 5//7 1//8 7//9 15//10
f 15//10 7//9 8//11 16//12
f 16//12 8//11 9//13 17//14
f 17//14 9//13 10//2 18//1
f 2//15 5//7 15//10 14//16
f 14//16 15//10 16//12 13//17
f 13//17 16//12 17//14 12//18
f 12//18 17//14 18//1 11//5
