# Blender v2.79 (sub 0) OBJ File: 'ara_base_mesh_BI.blend'
# www.blender.org
mtllib ara_feather_flight_secondary_010.mtl
o feather_flight_secondary_010
v 0.261873 0.184911 0.014191
v 0.250599 0.180610 0.014214
v 0.287729 0.123373 0.014471
v 0.272343 0.117504 0.014502
v 0.255020 0.185941 0.014913
v 0.282698 0.113462 0.015243
v 0.268968 0.175527 0.014233
v 0.276791 0.162771 0.014290
v 0.283684 0.149660 0.014350
v 0.288472 0.135747 0.014413
v 0.263539 0.126236 0.014464
v 0.257835 0.139800 0.014402
v 0.254235 0.154166 0.014336
v 0.251564 0.168888 0.014268
v 0.260266 0.172203 0.014975
v 0.265513 0.158465 0.015038
v 0.270759 0.144726 0.015101
v 0.276006 0.130988 0.015163
vn -0.0025 0.0014 -1.0000
vn -0.0589 -0.0211 -0.9980
vn -0.0710 -0.0187 -0.9973
vn -0.0046 0.0067 -0.9999
vn 0.0545 0.0222 -0.9983
vn 0.0620 0.0320 -0.9976
vn 0.0042 -0.0161 -0.9998
vn -0.0862 -0.0505 -0.9950
vn -0.0717 -0.0414 -0.9966
vn 0.0031 -0.0133 -0.9999
vn -0.0557 -0.0308 -0.9980
vn 0.0015 -0.0092 -0.9999
vn -0.0508 -0.0252 -0.9984
vn 0.0002 -0.0058 -1.0000
vn 0.0945 0.0185 -0.9953
vn 0.0776 0.0156 -0.9969
vn 0.0586 0.0128 -0.9982
vn 0.0511 0.0137 -0.9986
usemtl feather_002
s 1
f 18//1 10//2 3//3 6//4
f 11//5 18//1 6//4 4//6
f 5//7 1//8 7//9 15//10
f 15//10 7//9 8//11 16//12
f 16//12 8//11 9//13 17//14
f 17//14 9//13 10//2 18//1
f 2//15 5//7 15//10 14//16
f 14//16 15//10 16//12 13//17
f 13//17 16//12 17//14 12//18
f 12//18 17//14 18//1 11//5
