# Blender v2.79 (sub 0) OBJ File: 'ara_base_mesh_BI.blend'
# www.blender.org
mtllib ara_feather_flight_secondary_027.mtl
o feather_flight_secondary_027
v 0.281078 0.185635 0.013060
v 0.270487 0.180284 0.013021
v 0.312622 0.128139 0.012641
v 0.298168 0.120836 0.012587
v 0.274269 0.185941 0.012337
v 0.308708 0.117939 0.011841
v 0.288972 0.177189 0.012998
v 0.297920 0.165522 0.012913
v 0.305995 0.153413 0.012825
v 0.312093 0.140306 0.012730
v 0.288669 0.128471 0.012643
v 0.281711 0.141144 0.012735
v 0.276729 0.154815 0.012835
v 0.272622 0.168928 0.012938
v 0.280797 0.173052 0.012243
v 0.287325 0.160162 0.012149
v 0.293853 0.147272 0.012055
v 0.300381 0.134382 0.011961
vn 0.0030 0.0013 -1.0000
vn 0.0576 0.0301 -0.9979
vn 0.0701 0.0290 -0.9971
vn 0.0056 -0.0037 -1.0000
vn -0.0526 -0.0257 -0.9983
vn -0.0591 -0.0364 -0.9976
vn -0.0057 0.0184 -0.9998
vn 0.0821 0.0627 -0.9946
vn 0.0685 0.0520 -0.9963
vn -0.0043 0.0157 -0.9998
vn 0.0533 0.0396 -0.9978
vn -0.0022 0.0117 -0.9999
vn 0.0489 0.0334 -0.9982
vn -0.0005 0.0084 -0.9999
vn -0.0934 -0.0261 -0.9953
vn -0.0766 -0.0215 -0.9968
vn -0.0576 -0.0165 -0.9982
vn -0.0500 -0.0167 -0.9986
usemtl feather_002
s 1
f 18//1 10//2 3//3 6//4
f 11//5 18//1 6//4 4//6
f 5//7 1//8 7//9 15//10
f 15//10 7//9 8//11 16//12
f 16//12 8//11 9//13 17//14
f 17//14 9//13 10//2 18//1
f 2//15 5//7 15//10 14//16
f 14//16 15//10 16//12 13//17
f 13//17 16//12 17//14 12//18
f 12//18 17//14 18//1 11//5
