# Blender v2.79 (sub 0) OBJ File: 'ara_base_mesh_BI.blend'
# www.blender.org
mtllib ara_feather_tail_primary_002.mtl
o feather_tail_primary_002
v 0.014608 0.124734 -0.268633
v 0.003012 0.124734 -0.272800
v 0.097767 0.124734 -0.493799
v 0.082191 0.124734 -0.499396
v 0.006768 0.125699 -0.265035
v 0.094276 0.125699 -0.508555
v 0.023979 0.124734 -0.286522
v 0.034738 0.124734 -0.310329
v 0.086213 0.124734 -0.449021
v 0.094007 0.124734 -0.473893
v 0.072421 0.124734 -0.481650
v 0.062602 0.124734 -0.457506
v 0.014025 0.124734 -0.317772
v 0.007171 0.124734 -0.292562
v 0.015575 0.125699 -0.289542
v 0.024382 0.125699 -0.314050
v 0.074408 0.125699 -0.453264
v 0.083214 0.125699 -0.477772
v 0.076282 0.124734 -0.421152
v 0.066136 0.124734 -0.393360
v 0.055896 0.124734 -0.365602
v 0.045567 0.124734 -0.337875
v 0.023207 0.124734 -0.345910
v 0.032888 0.124734 -0.373869
v 0.042658 0.124734 -0.401797
v 0.052523 0.124734 -0.429690
v 0.064402 0.125699 -0.425421
v 0.054397 0.125699 -0.397578
v 0.044392 0.125699 -0.369736
v 0.034387 0.125699 -0.341893
vn 0.0013 1.0000 -0.0037
vn 0.0859 0.9959 0.0269
vn 0.0973 0.9948 0.0284
vn 0.0021 1.0000 -0.0058
vn -0.0834 0.9959 -0.0339
vn -0.0931 0.9948 -0.0400
vn -0.0027 0.9999 0.0074
vn 0.1196 0.9915 0.0513
vn 0.1035 0.9937 0.0432
vn -0.0020 1.0000 0.0055
vn 0.0838 0.9959 0.0328
vn -0.0009 1.0000 0.0024
vn 0.0000 1.0000 0.0000
vn 0.0720 0.9970 0.0259
vn 0.0739 0.9969 0.0256
vn 0.0003 1.0000 -0.0008
vn -0.1249 0.9915 -0.0366
vn -0.1073 0.9937 -0.0325
vn -0.0855 0.9959 -0.0281
vn -0.0721 0.9970 -0.0258
vn -0.0733 0.9969 -0.0273
vn 0.0768 0.9966 0.0285
vn -0.0003 1.0000 0.0008
vn 0.0741 0.9969 0.0270
vn -0.0001 1.0000 0.0004
vn 0.0726 0.9970 0.0264
vn -0.0001 1.0000 0.0002
vn -0.0774 0.9966 -0.0269
vn -0.0743 0.9969 -0.0263
vn -0.0728 0.9970 -0.0259
usemtl feather_003
s 1
f 18//1 10//2 3//3 6//4
f 11//5 18//1 6//4 4//6
f 5//7 1//8 7//9 15//10
f 15//10 7//9 8//11 16//12
f 27//13 19//14 9//15 17//16
f 17//16 9//15 10//2 18//1
f 2//17 5//7 15//10 14//18
f 14//18 15//10 16//12 13//19
f 26//20 27//13 17//16 12//21
f 12//21 17//16 18//1 11//5
f 16//12 8//11 22//22 30//23
f 30//23 22//22 21//24 29//25
f 29//25 21//24 20//26 28//27
f 28//27 20//26 19//14 27//13
f 13//19 16//12 30//23 23//28
f 23//28 30//23 29//25 24//29
f 24//29 29//25 28//27 25//30
f 25//30 28//27 27//13 26//20
