# Blender v2.79 (sub 0) OBJ File: 'ara_base_mesh_BI.blend'
# www.blender.org
mtllib ara_feather_flight_tertiary_058.mtl
o feather_flight_tertiary_058
v 0.323545 0.187216 0.012249
v 0.317793 0.182086 0.012249
v 0.346319 0.163796 0.012249
v 0.338471 0.156795 0.012249
v 0.319559 0.185896 0.011524
v 0.344825 0.157571 0.011524
v 0.328787 0.184487 0.012249
v 0.334890 0.180290 0.012249
v 0.340519 0.175670 0.012249
v 0.345075 0.170092 0.012249
v 0.332356 0.158747 0.012249
v 0.327334 0.163908 0.012249
v 0.323384 0.170026 0.012249
v 0.319909 0.176567 0.012249
v 0.324348 0.180527 0.011524
v 0.329137 0.175158 0.011524
v 0.333927 0.169789 0.011524
v 0.338716 0.164420 0.011524
vn 0.0088 -0.0099 -0.9999
vn 0.0774 0.0546 -0.9955
vn 0.0992 0.0555 -0.9935
vn 0.0165 -0.0185 -0.9997
vn -0.0631 -0.0707 -0.9955
vn -0.0664 -0.0923 -0.9935
vn -0.0167 0.0187 -0.9997
vn 0.0957 0.1185 -0.9883
vn 0.0804 0.0954 -0.9922
vn -0.0126 0.0142 -0.9998
vn 0.0647 0.0704 -0.9954
vn -0.0066 0.0074 -0.9999
vn 0.0620 0.0584 -0.9963
vn -0.0016 0.0019 -1.0000
vn -0.1286 -0.0816 -0.9883
vn -0.1039 -0.0690 -0.9922
vn -0.0773 -0.0563 -0.9954
vn -0.0651 -0.0549 -0.9963
usemtl feather_001
s 1
f 18//1 10//2 3//3 6//4
f 11//5 18//1 6//4 4//6
f 5//7 1//8 7//9 15//10
f 15//10 7//9 8//11 16//12
f 16//12 8//11 9//13 17//14
f 17//14 9//13 10//2 18//1
f 2//15 5//7 15//10 14//16
f 14//16 15//10 16//12 13//17
f 13//17 16//12 17//14 12//18
f 12//18 17//14 18//1 11//5
