# Blender v2.79 (sub 0) OBJ File: 'ara_base_mesh_BI.blend'
# www.blender.org
mtllib ara_feather_flight_primary_001.mtl
o feather_flight_primary_001
v 0.077493 0.181627 0.013275
v 0.068339 0.181627 0.013275
v 0.079161 0.097212 0.013275
v 0.066671 0.097212 0.013275
v 0.072916 0.185941 0.014000
v 0.072916 0.087768 0.014000
v 0.079981 0.167333 0.013275
v 0.082072 0.148724 0.013275
v 0.083409 0.130115 0.013275
v 0.083037 0.111506 0.013275
v 0.062795 0.111506 0.013275
v 0.062423 0.130115 0.013275
v 0.063760 0.148724 0.013275
v 0.065851 0.167333 0.013275
v 0.072916 0.167333 0.014000
v 0.072916 0.148724 0.014000
v 0.072916 0.130115 0.014000
v 0.072916 0.111506 0.014000
vn 0.0000 0.0051 -1.0000
vn -0.0807 0.0047 -0.9967
vn -0.0936 0.0095 -0.9955
vn 0.0000 0.0096 -0.9999
vn 0.0807 0.0047 -0.9967
vn 0.0936 0.0095 -0.9955
vn 0.0000 -0.0097 -0.9999
vn -0.1270 -0.0096 -0.9919
vn -0.1063 -0.0071 -0.9943
vn 0.0000 -0.0073 -1.0000
vn -0.0808 -0.0037 -0.9967
vn 0.0000 -0.0038 -1.0000
vn -0.0718 -0.0009 -0.9974
vn 0.0000 -0.0009 -1.0000
vn 0.1270 -0.0096 -0.9919
vn 0.1063 -0.0071 -0.9943
vn 0.0808 -0.0037 -0.9967
vn 0.0718 -0.0009 -0.9974
usemtl feather_003
s 1
f 18//1 10//2 3//3 6//4
f 11//5 18//1 6//4 4//6
f 5//7 1//8 7//9 15//10
f 15//10 7//9 8//11 16//12
f 16//12 8//11 9//13 17//14
f 17//14 9//13 10//2 18//1
f 2//15 5//7 15//10 14//16
f 14//16 15//10 16//12 13//17
f 13//17 16//12 17//14 12//18
f 12//18 17//14 18//1 11//5
