# Blender v2.79 (sub 0) OBJ File: 'ara_base_mesh_BI.blend'
# www.blender.org
mtllib ara_feather_flight_secondary_029.mtl
o feather_flight_secondary_029
v 0.321380 0.187708 0.013030
v 0.311890 0.178800 0.013093
v 0.372464 0.136750 0.013008
v 0.359514 0.124594 0.013094
v 0.314116 0.185944 0.012337
v 0.371514 0.124792 0.012325
v 0.332317 0.181225 0.013011
v 0.345365 0.171669 0.012994
v 0.357630 0.161378 0.012983
v 0.368125 0.149425 0.012983
v 0.347139 0.129727 0.013123
v 0.335874 0.140956 0.013128
v 0.326379 0.153848 0.013121
v 0.317668 0.167475 0.013109
v 0.324996 0.174353 0.012335
v 0.335875 0.162762 0.012333
v 0.346755 0.151170 0.012330
v 0.357635 0.139579 0.012328
vn 0.0005 -0.0076 -1.0000
vn 0.0410 0.0316 -0.9987
vn 0.0522 0.0338 -0.9980
vn 0.0040 -0.0114 -0.9999
vn -0.0411 -0.0455 -0.9981
vn -0.0441 -0.0565 -0.9974
vn -0.0114 0.0051 -0.9999
vn 0.0541 0.0665 -0.9963
vn 0.0449 0.0535 -0.9975
vn -0.0095 0.0031 -0.9999
vn 0.0348 0.0388 -0.9986
vn -0.0067 0.0001 -1.0000
vn 0.0325 0.0322 -0.9989
vn -0.0044 -0.0023 -1.0000
vn -0.0767 -0.0563 -0.9955
vn -0.0632 -0.0479 -0.9968
vn -0.0479 -0.0388 -0.9981
vn -0.0412 -0.0370 -0.9984
usemtl feather_002
s 1
f 18//1 10//2 3//3 6//4
f 11//5 18//1 6//4 4//6
f 5//7 1//8 7//9 15//10
f 15//10 7//9 8//11 16//12
f 16//12 8//11 9//13 17//14
f 17//14 9//13 10//2 18//1
f 2//15 5//7 15//10 14//16
f 14//16 15//10 16//12 13//17
f 13//17 16//12 17//14 12//18
f 12//18 17//14 18//1 11//5
