# Blender v2.79 (sub 0) OBJ File: 'ara_base_mesh_BI.blend'
# www.blender.org
mtllib ara_feather_flight_tertiary_014.mtl
o feather_flight_tertiary_014
v 0.203282 0.185064 0.015106
v 0.195150 0.183680 0.015112
v 0.209994 0.154599 0.015165
v 0.198897 0.152710 0.015173
v 0.198948 0.185940 0.015830
v 0.205030 0.150216 0.015900
v 0.206378 0.180238 0.015114
v 0.209389 0.173783 0.015126
v 0.211729 0.167214 0.015139
v 0.212552 0.160386 0.015152
v 0.194568 0.157326 0.015166
v 0.193085 0.164041 0.015153
v 0.193120 0.171014 0.015138
v 0.193825 0.178102 0.015124
v 0.200101 0.179168 0.015844
v 0.201254 0.172397 0.015857
v 0.202407 0.165625 0.015870
v 0.203559 0.158854 0.015883
vn -0.0027 0.0117 -0.9999
vn -0.0886 -0.0059 -0.9960
vn -0.1070 0.0060 -0.9942
vn -0.0047 0.0236 -0.9997
vn 0.0841 0.0235 -0.9962
vn 0.0976 0.0409 -0.9944
vn 0.0040 -0.0279 -0.9996
vn -0.1346 -0.0512 -0.9896
vn -0.1107 -0.0394 -0.9931
vn 0.0029 -0.0216 -0.9998
vn -0.0863 -0.0266 -0.9959
vn 0.0013 -0.0122 -0.9999
vn -0.0784 -0.0178 -0.9967
vn 0.0000 -0.0046 -1.0000
vn 0.1426 -0.0040 -0.9897
vn 0.1161 -0.0008 -0.9932
vn 0.0889 0.0031 -0.9960
vn 0.0785 0.0089 -0.9969
usemtl feather_001
s 1
f 18//1 10//2 3//3 6//4
f 11//5 18//1 6//4 4//6
f 5//7 1//8 7//9 15//10
f 15//10 7//9 8//11 16//12
f 16//12 8//11 9//13 17//14
f 17//14 9//13 10//2 18//1
f 2//15 5//7 15//10 14//16
f 14//16 15//10 16//12 13//17
f 13//17 16//12 17//14 12//18
f 12//18 17//14 18//1 11//5
