# Blender v2.79 (sub 0) OBJ File: 'ara_base_mesh_BI.blend'
# www.blender.org
mtllib ara_feather_flight_primary_014.mtl
o feather_flight_primary_014
v 0.346835 0.188152 0.013276
v 0.337541 0.174879 0.013276
v 0.470939 0.104860 0.013276
v 0.458256 0.086747 0.013276
v 0.335932 0.185896 0.014000
v 0.478292 0.086215 0.014000
v 0.370089 0.177246 0.013276
v 0.399198 0.161384 0.013276
v 0.427539 0.144427 0.013276
v 0.454146 0.124994 0.013276
v 0.433593 0.095641 0.013276
v 0.406231 0.113997 0.013276
v 0.380603 0.134829 0.013276
v 0.355743 0.156757 0.013276
v 0.362916 0.167001 0.014000
v 0.389901 0.148107 0.014000
v 0.416885 0.129212 0.014000
v 0.443869 0.110317 0.014000
vn -0.0023 0.0016 -1.0000
vn -0.0284 -0.0359 -0.9989
vn -0.0349 -0.0403 -0.9986
vn -0.0044 0.0031 -1.0000
vn 0.0240 0.0389 -0.9989
vn 0.0260 0.0465 -0.9986
vn 0.0045 -0.0031 -1.0000
vn -0.0369 -0.0622 -0.9974
vn -0.0313 -0.0516 -0.9982
vn 0.0034 -0.0024 -1.0000
vn -0.0245 -0.0387 -0.9989
vn 0.0018 -0.0012 -1.0000
vn -0.0229 -0.0336 -0.9991
vn 0.0004 -0.0003 -1.0000
vn 0.0458 0.0559 -0.9974
vn 0.0378 0.0470 -0.9982
vn 0.0280 0.0362 -0.9989
vn 0.0237 0.0330 -0.9991
usemtl feather_003
s 1
f 18//1 10//2 3//3 6//4
f 11//5 18//1 6//4 4//6
f 5//7 1//8 7//9 15//10
f 15//10 7//9 8//11 16//12
f 16//12 8//11 9//13 17//14
f 17//14 9//13 10//2 18//1
f 2//15 5//7 15//10 14//16
f 14//16 15//10 16//12 13//17
f 13//17 16//12 17//14 12//18
f 12//18 17//14 18//1 11//5
