# Blender v2.79 (sub 0) OBJ File: 'ara_base_mesh_BI.blend'
# www.blender.org
mtllib ara_feather_flight_tertiary_040.mtl
o feather_flight_tertiary_040
v 0.139024 0.184894 0.012248
v 0.131880 0.184394 0.012248
v 0.142102 0.159595 0.012248
v 0.132352 0.158914 0.012248
v 0.135361 0.185941 0.011523
v 0.137426 0.156414 0.011523
v 0.141266 0.180730 0.012248
v 0.143290 0.175247 0.012248
v 0.144725 0.169723 0.012248
v 0.144826 0.164106 0.012248
v 0.129027 0.163001 0.012248
v 0.128345 0.168578 0.012248
v 0.128997 0.174248 0.012248
v 0.130238 0.179959 0.012248
v 0.135752 0.180345 0.011523
v 0.136144 0.174748 0.011523
v 0.136535 0.169151 0.011523
v 0.136926 0.163554 0.011523
vn 0.0012 -0.0170 -0.9998
vn 0.1013 -0.0061 -0.9948
vn 0.1212 -0.0231 -0.9923
vn 0.0022 -0.0317 -0.9995
vn -0.0994 -0.0202 -0.9948
vn -0.1168 -0.0398 -0.9923
vn -0.0022 0.0320 -0.9995
vn 0.1588 0.0428 -0.9864
vn 0.1299 0.0315 -0.9910
vn -0.0017 0.0243 -0.9997
vn 0.1010 0.0191 -0.9947
vn -0.0009 0.0127 -0.9999
vn 0.0911 0.0093 -0.9958
vn -0.0002 0.0032 -1.0000
vn -0.1632 0.0203 -0.9864
vn -0.1331 0.0131 -0.9910
vn -0.1027 0.0049 -0.9947
vn -0.0915 -0.0034 -0.9958
usemtl feather_001
s 1
f 18//1 10//2 3//3 6//4
f 11//5 18//1 6//4 4//6
f 5//7 1//8 7//9 15//10
f 15//10 7//9 8//11 16//12
f 16//12 8//11 9//13 17//14
f 17//14 9//13 10//2 18//1
f 2//15 5//7 15//10 14//16
f 14//16 15//10 16//12 13//17
f 13//17 16//12 17//14 12//18
f 12//18 17//14 18//1 11//5
