# Blender v2.79 (sub 0) OBJ File: 'ara_base_mesh_BI.blend'
# www.blender.org
mtllib ara_feather_flight_secondary_015.mtl
o feather_flight_secondary_015
v 0.366194 0.190208 0.014331
v 0.360979 0.178075 0.014089
v 0.447524 0.157505 0.014810
v 0.440408 0.140949 0.014479
v 0.359490 0.185941 0.014916
v 0.452971 0.145336 0.015422
v 0.381222 0.187594 0.014471
v 0.400133 0.182670 0.014622
v 0.418614 0.176744 0.014754
v 0.436122 0.168555 0.014840
v 0.424588 0.141723 0.014303
v 0.406657 0.148928 0.014197
v 0.389700 0.158396 0.014136
v 0.373172 0.168865 0.014096
v 0.377210 0.178245 0.015012
v 0.394929 0.170548 0.015108
v 0.412648 0.162851 0.015204
v 0.430367 0.155154 0.015300
vn 0.0072 0.0167 -0.9998
vn -0.0145 -0.0348 -0.9993
vn -0.0228 -0.0416 -0.9989
vn 0.0034 0.0187 -0.9998
vn 0.0301 0.0678 -0.9972
vn 0.0293 0.0783 -0.9965
vn 0.0203 0.0108 -0.9997
vn -0.0150 -0.0706 -0.9974
vn -0.0113 -0.0557 -0.9984
vn 0.0183 0.0119 -0.9998
vn -0.0073 -0.0382 -0.9992
vn 0.0152 0.0133 -0.9998
vn -0.0073 -0.0315 -0.9995
vn 0.0127 0.0144 -0.9998
vn 0.0556 0.0923 -0.9942
vn 0.0473 0.0795 -0.9957
vn 0.0375 0.0649 -0.9972
vn 0.0326 0.0603 -0.9976
usemtl feather_002
s 1
f 18//1 10//2 3//3 6//4
f 11//5 18//1 6//4 4//6
f 5//7 1//8 7//9 15//10
f 15//10 7//9 8//11 16//12
f 16//12 8//11 9//13 17//14
f 17//14 9//13 10//2 18//1
f 2//15 5//7 15//10 14//16
f 14//16 15//10 16//12 13//17
f 13//17 16//12 17//14 12//18
f 12//18 17//14 18//1 11//5
