# Blender v2.79 (sub 0) OBJ File: 'ara_base_mesh_BI.blend'
# www.blender.org
mtllib ara_feather_flight_primary_006.mtl
o feather_flight_primary_006
v 0.180042 0.180620 0.013275
v 0.168087 0.179993 0.013275
v 0.188001 0.070477 0.013275
v 0.171686 0.069622 0.013275
v 0.173770 0.185941 0.014000
v 0.180490 0.057714 0.014000
v 0.184271 0.162120 0.013275
v 0.188277 0.137957 0.013275
v 0.191296 0.113743 0.013275
v 0.192084 0.089412 0.013275
v 0.165645 0.088027 0.013275
v 0.163886 0.112307 0.013275
v 0.164358 0.136704 0.013275
v 0.165816 0.161152 0.013275
v 0.175043 0.161636 0.014000
v 0.176317 0.137330 0.014000
v 0.177591 0.113025 0.014000
v 0.178865 0.088719 0.014000
vn -0.0002 0.0039 -1.0000
vn -0.0619 0.0003 -0.9981
vn -0.0720 0.0035 -0.9974
vn -0.0004 0.0073 -1.0000
vn 0.0615 0.0068 -0.9981
vn 0.0712 0.0110 -0.9974
vn 0.0004 -0.0074 -1.0000
vn -0.0969 -0.0125 -0.9952
vn -0.0810 -0.0097 -0.9966
vn 0.0003 -0.0056 -1.0000
vn -0.0616 -0.0061 -0.9981
vn 0.0002 -0.0029 -1.0000
vn -0.0548 -0.0036 -0.9985
vn 0.0000 -0.0007 -1.0000
vn 0.0977 -0.0023 -0.9952
vn 0.0816 -0.0012 -0.9966
vn 0.0619 0.0004 -0.9981
vn 0.0549 0.0021 -0.9985
usemtl feather_003
s 1
f 18//1 10//2 3//3 6//4
f 11//5 18//1 6//4 4//6
f 5//7 1//8 7//9 15//10
f 15//10 7//9 8//11 16//12
f 16//12 8//11 9//13 17//14
f 17//14 9//13 10//2 18//1
f 2//15 5//7 15//10 14//16
f 14//16 15//10 16//12 13//17
f 13//17 16//12 17//14 12//18
f 12//18 17//14 18//1 11//5
