# Blender v2.79 (sub 0) OBJ File: 'ara_base_mesh_BI.blend'
# www.blender.org
mtllib ara_feather_flight_tertiary_033.mtl
o feather_flight_tertiary_033
v 0.072249 0.184679 0.012249
v 0.065267 0.184679 0.012249
v 0.073522 0.159987 0.012249
v 0.063994 0.159987 0.012249
v 0.068758 0.185941 0.011524
v 0.068758 0.157225 0.011524
v 0.074147 0.180498 0.012249
v 0.075743 0.175055 0.012249
v 0.076762 0.169612 0.012249
v 0.076479 0.164169 0.012249
v 0.061037 0.164169 0.012249
v 0.060754 0.169612 0.012249
v 0.061773 0.175055 0.012249
v 0.063369 0.180498 0.012249
v 0.068758 0.180498 0.011524
v 0.068758 0.175055 0.011524
v 0.068758 0.169612 0.011524
v 0.068758 0.164169 0.011524
vn 0.0000 -0.0175 -0.9998
vn 0.1031 -0.0136 -0.9946
vn 0.1223 -0.0325 -0.9919
vn 0.0000 -0.0327 -0.9995
vn -0.1031 -0.0136 -0.9946
vn -0.1223 -0.0325 -0.9919
vn 0.0000 0.0331 -0.9995
vn 0.1654 0.0326 -0.9857
vn 0.1351 0.0230 -0.9905
vn 0.0000 0.0251 -0.9997
vn 0.1047 0.0124 -0.9944
vn 0.0000 0.0131 -0.9999
vn 0.0939 0.0030 -0.9956
vn 0.0000 0.0033 -1.0000
vn -0.1654 0.0326 -0.9857
vn -0.1351 0.0230 -0.9905
vn -0.1047 0.0124 -0.9944
vn -0.0939 0.0030 -0.9956
usemtl feather_001
s 1
f 18//1 10//2 3//3 6//4
f 11//5 18//1 6//4 4//6
f 5//7 1//8 7//9 15//10
f 15//10 7//9 8//11 16//12
f 16//12 8//11 9//13 17//14
f 17//14 9//13 10//2 18//1
f 2//15 5//7 15//10 14//16
f 14//16 15//10 16//12 13//17
f 13//17 16//12 17//14 12//18
f 12//18 17//14 18//1 11//5
