# Blender v2.79 (sub 0) OBJ File: 'ara_base_mesh_BI.blend'
# www.blender.org
mtllib ara_feather_flight_primary_008.mtl
o feather_flight_primary_008
v 0.221540 0.181078 0.013275
v 0.208848 0.178840 0.013275
v 0.244495 0.064430 0.013275
v 0.227174 0.061376 0.013275
v 0.214139 0.185941 0.014000
v 0.238143 0.049807 0.014000
v 0.228486 0.161865 0.013275
v 0.235936 0.136572 0.013275
v 0.242339 0.111094 0.013275
v 0.246374 0.085199 0.013275
v 0.218304 0.080250 0.013275
v 0.213239 0.105963 0.013275
v 0.210542 0.132094 0.013275
v 0.208893 0.158410 0.013275
v 0.218689 0.160137 0.014000
v 0.223239 0.134333 0.014000
v 0.227789 0.108529 0.014000
v 0.232339 0.082724 0.014000
vn -0.0006 0.0036 -1.0000
vn -0.0571 -0.0067 -0.9983
vn -0.0668 -0.0049 -0.9977
vn -0.0012 0.0067 -1.0000
vn 0.0559 0.0132 -0.9983
vn 0.0644 0.0183 -0.9977
vn 0.0012 -0.0067 -1.0000
vn -0.0880 -0.0225 -0.9958
vn -0.0736 -0.0181 -0.9971
vn 0.0009 -0.0051 -1.0000
vn -0.0561 -0.0126 -0.9983
vn 0.0005 -0.0027 -1.0000
vn -0.0501 -0.0095 -0.9987
vn 0.0001 -0.0007 -1.0000
vn 0.0903 0.0090 -0.9958
vn 0.0754 0.0081 -0.9971
vn 0.0570 0.0073 -0.9983
vn 0.0504 0.0082 -0.9987
usemtl feather_003
s 1
f 18//1 10//2 3//3 6//4
f 11//5 18//1 6//4 4//6
f 5//7 1//8 7//9 15//10
f 15//10 7//9 8//11 16//12
f 16//12 8//11 9//13 17//14
f 17//14 9//13 10//2 18//1
f 2//15 5//7 15//10 14//16
f 14//16 15//10 16//12 13//17
f 13//17 16//12 17//14 12//18
f 12//18 17//14 18//1 11//5
