# Blender v2.79 (sub 0) OBJ File: 'ara_base_mesh_BI.blend'
# www.blender.org
mtllib ara_eye.mtl
o eye
v 0.030851 0.258354 0.116585
v 0.029069 0.260820 0.116143
v 0.026514 0.262397 0.115481
v 0.023573 0.262844 0.114701
v 0.020696 0.262092 0.113920
v 0.018319 0.260257 0.113259
v 0.016806 0.257618 0.112816
v 0.031161 0.258140 0.115470
v 0.029642 0.260426 0.114083
v 0.027263 0.261881 0.112790
v 0.024384 0.262285 0.111788
v 0.021445 0.261577 0.111229
v 0.018893 0.259862 0.111199
v 0.017116 0.257404 0.111702
v 0.031448 0.257501 0.114525
v 0.030173 0.259244 0.112337
v 0.027956 0.260337 0.110509
v 0.025134 0.260614 0.109319
v 0.022138 0.260033 0.108948
v 0.019423 0.258681 0.109453
v 0.017403 0.256765 0.110757
v 0.016385 0.254576 0.112661
v 0.031668 0.256533 0.113894
v 0.030580 0.257455 0.111170
v 0.028487 0.258000 0.108984
v 0.025710 0.258084 0.107669
v 0.022670 0.257695 0.107423
v 0.019830 0.256892 0.108286
v 0.017623 0.255797 0.110125
v 0.031788 0.255383 0.113672
v 0.030801 0.255332 0.110761
v 0.028776 0.255225 0.108449
v 0.026023 0.255081 0.107089
v 0.022959 0.254921 0.106888
v 0.020051 0.254768 0.107876
v 0.017743 0.254647 0.109904
v 0.031789 0.254228 0.113894
v 0.030803 0.253196 0.111170
v 0.028779 0.252436 0.108984
v 0.026025 0.252062 0.107669
v 0.022961 0.252131 0.107423
v 0.020053 0.252633 0.108286
v 0.017744 0.253492 0.110125
v 0.031587 0.255373 0.116740
v 0.031671 0.253242 0.114525
v 0.030585 0.251375 0.112337
v 0.028495 0.250056 0.110509
v 0.025718 0.249486 0.109319
v 0.022677 0.249751 0.108948
v 0.019836 0.250812 0.109453
v 0.017626 0.252506 0.110757
v 0.031452 0.252576 0.115470
v 0.030181 0.250144 0.114083
v 0.027967 0.248448 0.112790
v 0.025146 0.247745 0.111788
v 0.022149 0.248143 0.111229
v 0.019432 0.249581 0.111199
v 0.017407 0.251840 0.111702
v 0.031166 0.252331 0.116585
v 0.029652 0.249692 0.116143
v 0.027276 0.247857 0.115481
v 0.024398 0.247105 0.114701
v 0.021458 0.247552 0.113920
v 0.018903 0.249128 0.113259
v 0.017121 0.251595 0.112816
v 0.030856 0.252545 0.117700
v 0.029079 0.250086 0.118202
v 0.026527 0.248372 0.118172
v 0.023587 0.247663 0.117613
v 0.020709 0.248067 0.116611
v 0.018329 0.249523 0.115318
v 0.016811 0.251809 0.113931
v 0.030569 0.253184 0.118645
v 0.028548 0.251268 0.119949
v 0.025834 0.249916 0.120454
v 0.022837 0.249335 0.120083
v 0.020016 0.249611 0.118893
v 0.017799 0.250705 0.117064
v 0.016524 0.252448 0.114876
v 0.030349 0.254152 0.119276
v 0.028142 0.253057 0.121115
v 0.025302 0.252254 0.121978
v 0.022262 0.251864 0.121733
v 0.019484 0.251949 0.120417
v 0.017392 0.252494 0.118231
v 0.016304 0.253416 0.115508
v 0.030229 0.255302 0.119498
v 0.027920 0.255181 0.121525
v 0.025013 0.255028 0.122513
v 0.021949 0.254868 0.122312
v 0.019195 0.254723 0.120952
v 0.017171 0.254617 0.118641
v 0.016184 0.254566 0.115729
v 0.030228 0.256457 0.119276
v 0.027918 0.257316 0.121115
v 0.025010 0.257818 0.121978
v 0.021946 0.257887 0.121733
v 0.019193 0.257513 0.120417
v 0.017169 0.256752 0.118231
v 0.016183 0.255721 0.115508
v 0.030346 0.257443 0.118645
v 0.028136 0.259137 0.119949
v 0.025295 0.260198 0.120454
v 0.022254 0.260463 0.120083
v 0.019477 0.259893 0.118893
v 0.017387 0.258574 0.117064
v 0.016301 0.256707 0.114876
v 0.030564 0.258109 0.117700
v 0.028540 0.260368 0.118202
v 0.025823 0.261806 0.118172
v 0.022825 0.262204 0.117613
v 0.020005 0.261501 0.116611
v 0.017791 0.259805 0.115318
v 0.016519 0.257373 0.113931
vn -0.9038 0.3563 -0.2369
vn -0.7082 0.6827 -0.1799
vn -0.6342 0.6318 -0.4456
vn -0.8624 0.3277 -0.3858
vn -0.4096 0.9071 -0.0969
vn -0.3142 0.8414 -0.4396
vn -0.0523 0.9986 0.0000
vn 0.0505 0.9278 -0.3696
vn 0.3126 0.9449 0.0969
vn 0.4080 0.8792 -0.2459
vn 0.6329 0.7530 0.1799
vn 0.7069 0.7021 -0.0858
vn 0.8617 0.4488 0.2369
vn 0.9031 0.4202 0.0878
vn -0.5658 0.4794 -0.6709
vn -0.8240 0.2422 -0.5122
vn -0.2259 0.6447 -0.7302
vn 0.1457 0.7157 -0.6830
vn 0.4963 0.6826 -0.5364
vn 0.7753 0.5496 -0.3110
vn 0.9415 0.3348 -0.0385
vn -0.5133 0.2486 -0.8214
vn -0.7946 0.1128 -0.5966
vn -0.1582 0.3470 -0.9244
vn 0.2188 0.3947 -0.8924
vn 0.5640 0.3849 -0.7306
vn 0.8278 0.3188 -0.4616
vn 0.9709 0.2053 -0.1228
vn -0.4847 -0.0254 -0.8743
vn -0.7786 -0.0408 -0.6262
vn -0.1214 -0.0063 -0.9926
vn 0.2585 0.0135 -0.9659
vn 0.6008 0.0315 -0.7988
vn 0.8563 0.0449 -0.5144
vn 0.9869 0.0517 -0.1525
vn -0.4845 -0.3009 -0.8214
vn -0.7784 -0.1953 -0.5966
vn -0.1211 -0.3617 -0.9244
vn 0.2588 -0.3696 -0.8924
vn 0.6011 -0.3238 -0.7306
vn 0.8566 -0.2306 -0.4616
vn 0.9871 -0.1027 -0.1228
vn -0.5126 -0.5358 -0.6709
vn -0.7942 -0.3270 -0.5122
vn -0.1573 -0.6648 -0.7302
vn 0.2198 -0.6966 -0.6830
vn 0.5649 -0.6270 -0.5364
vn 0.8285 -0.4656 -0.3110
vn 0.9713 -0.2345 -0.0385
vn -0.5647 -0.6946 -0.4456
vn -0.8234 -0.4161 -0.3858
vn -0.2246 -0.8696 -0.4396
vn 0.1473 -0.9174 -0.3696
vn 0.4977 -0.8318 -0.2459
vn 0.7764 -0.6243 -0.0858
vn 0.9421 -0.3235 0.0878
vn -0.6329 -0.7530 -0.1799
vn -0.8617 -0.4488 -0.2369
vn -0.3126 -0.9449 -0.0969
vn 0.0523 -0.9986 0.0000
vn 0.4096 -0.9071 0.0969
vn 0.7082 -0.6827 0.1799
vn 0.9038 -0.3563 0.2369
vn -0.7069 -0.7021 0.0858
vn -0.9031 -0.4202 -0.0879
vn -0.4080 -0.8792 0.2459
vn -0.0505 -0.9278 0.3696
vn 0.3142 -0.8414 0.4396
vn 0.6342 -0.6318 0.4456
vn 0.8624 -0.3277 0.3858
vn -0.7753 -0.5496 0.3110
vn -0.9415 -0.3348 0.0385
vn -0.4963 -0.6826 0.5364
vn -0.1458 -0.7157 0.6830
vn 0.2259 -0.6447 0.7302
vn 0.5658 -0.4794 0.6709
vn 0.8240 -0.2422 0.5122
vn -0.8278 -0.3188 0.4616
vn -0.9709 -0.2053 0.1228
vn -0.5640 -0.3849 0.7306
vn -0.2188 -0.3947 0.8924
vn 0.1582 -0.3470 0.9244
vn 0.5133 -0.2486 0.8214
vn 0.7946 -0.1128 0.5966
vn -0.8563 -0.0449 0.5144
vn -0.9869 -0.0517 0.1525
vn -0.6008 -0.0315 0.7988
vn -0.2585 -0.0135 0.9659
vn 0.1214 0.0063 0.9926
vn 0.4847 0.0254 0.8743
vn 0.7786 0.0408 0.6262
vn -0.8566 0.2306 0.4616
vn -0.9871 0.1027 0.1228
vn -0.6011 0.3238 0.7306
vn -0.2588 0.3696 0.8924
vn 0.1211 0.3617 0.9244
vn 0.4845 0.3009 0.8214
vn 0.7784 0.1953 0.5966
vn -0.8285 0.4656 0.3110
vn -0.9713 0.2345 0.0385
vn -0.5649 0.6270 0.5364
vn -0.2198 0.6966 0.6830
vn 0.1573 0.6648 0.7302
vn 0.5126 0.5358 0.6709
vn 0.7942 0.3270 0.5122
vn -0.7764 0.6243 0.0858
vn -0.9421 0.3235 -0.0878
vn -0.4977 0.8318 0.2459
vn -0.1473 0.9174 0.3696
vn 0.2246 0.8696 0.4396
vn 0.5647 0.6946 0.4456
vn 0.8234 0.4161 0.3858
vn -0.9646 -0.0505 -0.2588
vn 0.9646 0.0505 0.2588
usemtl eye_white
s 1
f 7//1 6//2 13//3 14//4
f 6//2 5//5 12//6 13//3
f 5//5 4//7 11//8 12//6
f 4//7 3//9 10//10 11//8
f 3//9 2//11 9//12 10//10
f 2//11 1//13 8//14 9//12
f 14//4 13//3 20//15 21//16
f 13//3 12//6 19//17 20//15
f 12//6 11//8 18//18 19//17
f 11//8 10//10 17//19 18//18
f 10//10 9//12 16//20 17//19
f 9//12 8//14 15//21 16//20
f 21//16 20//15 28//22 29//23
f 20//15 19//17 27//24 28//22
f 19//17 18//18 26//25 27//24
f 18//18 17//19 25//26 26//25
f 17//19 16//20 24//27 25//26
f 16//20 15//21 23//28 24//27
f 29//23 28//22 35//29 36//30
f 28//22 27//24 34//31 35//29
f 27//24 26//25 33//32 34//31
f 26//25 25//26 32//33 33//32
f 25//26 24//27 31//34 32//33
f 24//27 23//28 30//35 31//34
f 36//30 35//29 42//36 43//37
f 35//29 34//31 41//38 42//36
f 34//31 33//32 40//39 41//38
f 33//32 32//33 39//40 40//39
f 32//33 31//34 38//41 39//40
f 31//34 30//35 37//42 38//41
f 43//37 42//36 50//43 51//44
f 42//36 41//38 49//45 50//43
f 41//38 40//39 48//46 49//45
f 40//39 39//40 47//47 48//46
f 39//40 38//41 46//48 47//47
f 38//41 37//42 45//49 46//48
f 51//44 50//43 57//50 58//51
f 50//43 49//45 56//52 57//50
f 49//45 48//46 55//53 56//52
f 48//46 47//47 54//54 55//53
f 47//47 46//48 53//55 54//54
f 46//48 45//49 52//56 53//55
f 58//51 57//50 64//57 65//58
f 57//50 56//52 63//59 64//57
f 56//52 55//53 62//60 63//59
f 55//53 54//54 61//61 62//60
f 54//54 53//55 60//62 61//61
f 53//55 52//56 59//63 60//62
f 65//58 64//57 71//64 72//65
f 64//57 63//59 70//66 71//64
f 63//59 62//60 69//67 70//66
f 62//60 61//61 68//68 69//67
f 61//61 60//62 67//69 68//68
f 60//62 59//63 66//70 67//69
f 72//65 71//64 78//71 79//72
f 71//64 70//66 77//73 78//71
f 70//66 69//67 76//74 77//73
f 69//67 68//68 75//75 76//74
f 68//68 67//69 74//76 75//75
f 67//69 66//70 73//77 74//76
f 79//72 78//71 85//78 86//79
f 78//71 77//73 84//80 85//78
f 77//73 76//74 83//81 84//80
f 76//74 75//75 82//82 83//81
f 75//75 74//76 81//83 82//82
f 74//76 73//77 80//84 81//83
f 86//79 85//78 92//85 93//86
f 85//78 84//80 91//87 92//85
f 84//80 83//81 90//88 91//87
f 83//81 82//82 89//89 90//88
f 82//82 81//83 88//90 89//89
f 81//83 80//84 87//91 88//90
f 93//86 92//85 99//92 100//93
f 92//85 91//87 98//94 99//92
f 91//87 90//88 97//95 98//94
f 90//88 89//89 96//96 97//95
f 89//89 88//90 95//97 96//96
f 88//90 87//91 94//98 95//97
f 100//93 99//92 106//99 107//100
f 99//92 98//94 105//101 106//99
f 98//94 97//95 104//102 105//101
f 97//95 96//96 103//103 104//102
f 96//96 95//97 102//104 103//103
f 95//97 94//98 101//105 102//104
f 107//100 106//99 113//106 114//107
f 106//99 105//101 112//108 113//106
f 105//101 104//102 111//109 112//108
f 104//102 103//103 110//110 111//109
f 103//103 102//104 109//111 110//110
f 102//104 101//105 108//112 109//111
f 22//113 7//1 14//4
f 22//113 14//4 21//16
f 22//113 21//16 29//23
f 22//113 29//23 36//30
f 22//113 36//30 43//37
f 22//113 43//37 51//44
f 22//113 51//44 58//51
f 22//113 58//51 65//58
f 22//113 65//58 72//65
f 22//113 72//65 79//72
f 22//113 79//72 86//79
f 22//113 86//79 93//86
f 22//113 93//86 100//93
f 22//113 100//93 107//100
f 22//113 107//100 114//107
f 22//113 114//107 7//1
f 114//107 113//106 6//2 7//1
f 113//106 112//108 5//5 6//2
f 112//108 111//109 4//7 5//5
f 111//109 110//110 3//9 4//7
f 110//110 109//111 2//11 3//9
f 109//111 108//112 1//13 2//11
usemtl eye_pupil
f 1//13 44//114 8//14
f 8//14 44//114 15//21
f 15//21 44//114 23//28
f 23//28 44//114 30//35
f 30//35 44//114 37//42
f 37//42 44//114 45//49
f 45//49 44//114 52//56
f 52//56 44//114 59//63
f 59//63 44//114 66//70
f 66//70 44//114 73//77
f 73//77 44//114 80//84
f 80//84 44//114 87//91
f 87//91 44//114 94//98
f 94//98 44//114 101//105
f 101//105 44//114 108//112
f 108//112 44//114 1//13
