# Blender v2.79 (sub 0) OBJ File: 'ara_base_mesh_BI.blend'
# www.blender.org
mtllib ara_feather_flight_primary_007.mtl
o feather_flight_primary_007
v 0.200295 0.180801 0.013275
v 0.188022 0.179512 0.013275
v 0.214429 0.067850 0.013275
v 0.197681 0.066089 0.013275
v 0.193551 0.185941 0.014000
v 0.207386 0.054307 0.014000
v 0.205646 0.161986 0.013275
v 0.211073 0.137329 0.013275
v 0.215487 0.112566 0.013275
v 0.217611 0.087562 0.013275
v 0.190470 0.084710 0.013275
v 0.187349 0.109609 0.013275
v 0.186518 0.134748 0.013275
v 0.186700 0.159994 0.013275
v 0.196173 0.160990 0.014000
v 0.198796 0.136039 0.014000
v 0.201418 0.111087 0.014000
v 0.204041 0.086136 0.014000
vn -0.0004 0.0038 -1.0000
vn -0.0600 -0.0028 -0.9982
vn -0.0699 -0.0002 -0.9975
vn -0.0007 0.0070 -1.0000
vn 0.0593 0.0097 -0.9982
vn 0.0685 0.0143 -0.9975
vn 0.0007 -0.0071 -1.0000
vn -0.0933 -0.0170 -0.9955
vn -0.0780 -0.0135 -0.9969
vn 0.0005 -0.0054 -1.0000
vn -0.0594 -0.0090 -0.9982
vn 0.0003 -0.0028 -1.0000
vn -0.0529 -0.0063 -0.9986
vn 0.0001 -0.0007 -1.0000
vn 0.0948 0.0027 -0.9955
vn 0.0791 0.0030 -0.9969
vn 0.0600 0.0035 -0.9982
vn 0.0531 0.0049 -0.9986
usemtl feather_003
s 1
f 18//1 10//2 3//3 6//4
f 11//5 18//1 6//4 4//6
f 5//7 1//8 7//9 15//10
f 15//10 7//9 8//11 16//12
f 16//12 8//11 9//13 17//14
f 17//14 9//13 10//2 18//1
f 2//15 5//7 15//10 14//16
f 14//16 15//10 16//12 13//17
f 13//17 16//12 17//14 12//18
f 12//18 17//14 18//1 11//5
