# Blender v2.79 (sub 0) OBJ File: 'ara_base_mesh_BI.blend'
# www.blender.org
mtllib ara_feather_flight_tertiary_050.mtl
o feather_flight_tertiary_050
v 0.244225 0.185134 0.012248
v 0.236429 0.183561 0.012234
v 0.251945 0.154236 0.012119
v 0.241307 0.152090 0.012099
v 0.240004 0.185938 0.011523
v 0.247330 0.149671 0.011369
v 0.247411 0.180281 0.012230
v 0.250581 0.173766 0.012204
v 0.253108 0.167121 0.012177
v 0.254180 0.160183 0.012147
v 0.236939 0.156705 0.012115
v 0.235234 0.163516 0.012143
v 0.234984 0.170620 0.012175
v 0.235377 0.177853 0.012207
v 0.241393 0.179063 0.011494
v 0.242782 0.172189 0.011465
v 0.244170 0.165314 0.011436
v 0.245559 0.158440 0.011406
vn 0.0036 -0.0089 -0.9999
vn 0.0923 0.0118 -0.9956
vn 0.1115 0.0009 -0.9937
vn 0.0060 -0.0205 -0.9998
vn -0.0862 -0.0243 -0.9960
vn -0.0996 -0.0417 -0.9941
vn -0.0042 0.0296 -0.9995
vn 0.1387 0.0581 -0.9886
vn 0.1145 0.0457 -0.9923
vn -0.0029 0.0235 -0.9997
vn 0.0894 0.0322 -0.9955
vn -0.0010 0.0144 -0.9999
vn 0.0814 0.0231 -0.9964
vn 0.0004 0.0070 -1.0000
vn -0.1470 0.0004 -0.9891
vn -0.1198 -0.0015 -0.9928
vn -0.0914 -0.0043 -0.9958
vn -0.0804 -0.0096 -0.9967
usemtl feather_001
s 1
f 18//1 10//2 3//3 6//4
f 11//5 18//1 6//4 4//6
f 5//7 1//8 7//9 15//10
f 15//10 7//9 8//11 16//12
f 16//12 8//11 9//13 17//14
f 17//14 9//13 10//2 18//1
f 2//15 5//7 15//10 14//16
f 14//16 15//10 16//12 13//17
f 13//17 16//12 17//14 12//18
f 12//18 17//14 18//1 11//5
