# Blender v2.79 (sub 0) OBJ File: 'ara_base_mesh_BI.blend'
# www.blender.org
mtllib ara_feather_tail_primary_003.mtl
o feather_tail_primary_003
v 0.014842 0.124482 -0.271235
v 0.002703 0.124482 -0.273985
v 0.078801 0.124482 -0.543867
v 0.062496 0.124482 -0.547561
v 0.007216 0.125554 -0.265740
v 0.073924 0.125554 -0.560172
v 0.022727 0.124482 -0.293378
v 0.031484 0.124482 -0.322547
v 0.071136 0.124482 -0.490521
v 0.076790 0.124482 -0.520393
v 0.054193 0.124482 -0.525512
v 0.046420 0.124482 -0.496121
v 0.009802 0.124482 -0.327459
v 0.005132 0.124482 -0.297365
v 0.013930 0.125554 -0.295372
v 0.020643 0.125554 -0.325003
v 0.058778 0.125554 -0.493321
v 0.065492 0.125554 -0.522953
v 0.063587 0.124482 -0.456840
v 0.055813 0.124482 -0.423210
v 0.047939 0.124482 -0.389602
v 0.039974 0.124482 -0.356015
v 0.016567 0.124482 -0.361318
v 0.023855 0.124482 -0.395059
v 0.031236 0.124482 -0.428778
v 0.038715 0.124482 -0.462475
v 0.051151 0.125554 -0.459657
v 0.043524 0.125554 -0.425994
v 0.035897 0.125554 -0.392330
v 0.028270 0.125554 -0.358667
vn 0.0008 1.0000 -0.0036
vn 0.0973 0.9951 0.0184
vn 0.1097 0.9938 0.0189
vn 0.0013 1.0000 -0.0057
vn -0.0957 0.9951 -0.0254
vn -0.1072 0.9938 -0.0302
vn -0.0016 1.0000 0.0073
vn 0.1375 0.9897 0.0388
vn 0.1189 0.9923 0.0325
vn -0.0012 1.0000 0.0054
vn 0.0960 0.9951 0.0242
vn -0.0005 1.0000 0.0023
vn 0.0000 1.0000 0.0000
vn 0.0821 0.9964 0.0186
vn 0.0841 0.9963 0.0182
vn 0.0002 1.0000 -0.0008
vn -0.1408 0.9897 -0.0243
vn -0.1213 0.9923 -0.0219
vn -0.0970 0.9951 -0.0195
vn -0.0821 0.9964 -0.0186
vn -0.0837 0.9963 -0.0198
vn 0.0876 0.9959 0.0207
vn -0.0002 1.0000 0.0008
vn 0.0844 0.9962 0.0195
vn -0.0001 1.0000 0.0004
vn 0.0828 0.9964 0.0190
vn -0.0000 1.0000 0.0002
vn -0.0880 0.9959 -0.0191
vn -0.0846 0.9962 -0.0188
vn -0.0829 0.9964 -0.0185
usemtl feather_003
s 1
f 18//1 10//2 3//3 6//4
f 11//5 18//1 6//4 4//6
f 5//7 1//8 7//9 15//10
f 15//10 7//9 8//11 16//12
f 27//13 19//14 9//15 17//16
f 17//16 9//15 10//2 18//1
f 2//17 5//7 15//10 14//18
f 14//18 15//10 16//12 13//19
f 26//20 27//13 17//16 12//21
f 12//21 17//16 18//1 11//5
f 16//12 8//11 22//22 30//23
f 30//23 22//22 21//24 29//25
f 29//25 21//24 20//26 28//27
f 28//27 20//26 19//14 27//13
f 13//19 16//12 30//23 23//28
f 23//28 30//23 29//25 24//29
f 24//29 29//25 28//27 25//30
f 25//30 28//27 27//13 26//20
