# Blender v2.79 (sub 0) OBJ File: 'ara_base_mesh_BI.blend'
# www.blender.org
mtllib ara_feather_flight_secondary_018.mtl
o feather_flight_secondary_018
v 0.095986 0.183148 0.013062
v 0.086109 0.183148 0.013062
v 0.097787 0.128492 0.013062
v 0.084308 0.128492 0.013062
v 0.091048 0.185941 0.012338
v 0.091048 0.122377 0.012338
v 0.098671 0.173893 0.013062
v 0.100929 0.161844 0.013062
v 0.102371 0.149796 0.013062
v 0.101970 0.137747 0.013062
v 0.080126 0.137747 0.013062
v 0.079725 0.149796 0.013062
v 0.081167 0.161844 0.013062
v 0.083424 0.173893 0.013062
v 0.091048 0.173893 0.012338
v 0.091048 0.161844 0.012338
v 0.091048 0.149796 0.012338
v 0.091048 0.137747 0.012338
vn 0.0000 -0.0079 -0.9999
vn 0.0741 -0.0068 -0.9972
vn 0.0868 -0.0147 -0.9961
vn 0.0000 -0.0148 -0.9999
vn -0.0741 -0.0068 -0.9972
vn -0.0868 -0.0147 -0.9961
vn 0.0000 0.0150 -0.9999
vn 0.1178 0.0148 -0.9929
vn 0.0975 0.0107 -0.9952
vn 0.0000 0.0113 -0.9999
vn 0.0746 0.0057 -0.9972
vn 0.0000 0.0059 -1.0000
vn 0.0665 0.0014 -0.9978
vn 0.0000 0.0015 -1.0000
vn -0.1178 0.0148 -0.9929
vn -0.0975 0.0107 -0.9952
vn -0.0746 0.0057 -0.9972
vn -0.0665 0.0014 -0.9978
usemtl feather_002
s 1
f 18//1 10//2 3//3 6//4
f 11//5 18//1 6//4 4//6
f 5//7 1//8 7//9 15//10
f 15//10 7//9 8//11 16//12
f 16//12 8//11 9//13 17//14
f 17//14 9//13 10//2 18//1
f 2//15 5//7 15//10 14//16
f 14//16 15//10 16//12 13//17
f 13//17 16//12 17//14 12//18
f 12//18 17//14 18//1 11//5
