# Blender v2.79 (sub 0) OBJ File: 'ara_base_mesh_BI.blend'
# www.blender.org
mtllib ara_feather_flight_secondary_016.mtl
o feather_flight_secondary_016
v 0.394315 0.191098 0.014329
v 0.391378 0.178549 0.014121
v 0.482227 0.172429 0.015088
v 0.478218 0.155304 0.014805
v 0.388393 0.185908 0.014916
v 0.490009 0.161536 0.015756
v 0.409910 0.190960 0.014507
v 0.429843 0.189208 0.014714
v 0.449533 0.186421 0.014903
v 0.468675 0.181291 0.015054
v 0.462178 0.153539 0.014595
v 0.442797 0.157649 0.014427
v 0.423965 0.164101 0.014298
v 0.405375 0.171589 0.014187
v 0.407654 0.181288 0.015075
v 0.426916 0.176669 0.015234
v 0.446177 0.172049 0.015393
v 0.465439 0.167429 0.015553
vn 0.0068 0.0148 -0.9998
vn -0.0060 -0.0411 -0.9991
vn -0.0129 -0.0494 -0.9987
vn 0.0028 0.0161 -0.9998
vn 0.0207 0.0705 -0.9973
vn 0.0183 0.0808 -0.9966
vn 0.0204 0.0113 -0.9997
vn -0.0008 -0.0770 -0.9970
vn 0.0003 -0.0615 -0.9981
vn 0.0183 0.0121 -0.9998
vn 0.0015 -0.0432 -0.9991
vn 0.0150 0.0129 -0.9998
vn 0.0004 -0.0363 -0.9993
vn 0.0124 0.0135 -0.9998
vn 0.0415 0.0998 -0.9941
vn 0.0355 0.0855 -0.9957
vn 0.0284 0.0689 -0.9972
vn 0.0243 0.0634 -0.9977
usemtl feather_002
s 1
f 18//1 10//2 3//3 6//4
f 11//5 18//1 6//4 4//6
f 5//7 1//8 7//9 15//10
f 15//10 7//9 8//11 16//12
f 16//12 8//11 9//13 17//14
f 17//14 9//13 10//2 18//1
f 2//15 5//7 15//10 14//16
f 14//16 15//10 16//12 13//17
f 13//17 16//12 17//14 12//18
f 12//18 17//14 18//1 11//5
