# Blender v2.79 (sub 0) OBJ File: 'ara_base_mesh_BI.blend'
# www.blender.org
mtllib ara_feather_flight_tertiary_029.mtl
o feather_flight_tertiary_029
v 0.360144 0.187571 0.015168
v 0.357008 0.182350 0.015075
v 0.390596 0.170324 0.015502
v 0.386317 0.163199 0.015375
v 0.357064 0.185899 0.015833
v 0.391815 0.164734 0.016202
v 0.366056 0.185909 0.015246
v 0.373360 0.183090 0.015338
v 0.380404 0.179840 0.015421
v 0.386864 0.175617 0.015487
v 0.379930 0.164070 0.015282
v 0.373216 0.167870 0.015208
v 0.367086 0.172644 0.015152
v 0.361216 0.177849 0.015103
v 0.363651 0.181887 0.015903
v 0.370238 0.177875 0.015973
v 0.376825 0.173863 0.016042
v 0.383412 0.169851 0.016112
vn 0.0047 0.0142 -0.9999
vn -0.0563 -0.0893 -0.9944
vn -0.0777 -0.1004 -0.9919
vn -0.0040 0.0206 -0.9998
vn 0.0687 0.1160 -0.9908
vn 0.0686 0.1395 -0.9878
vn 0.0350 -0.0050 -0.9994
vn -0.0639 -0.1667 -0.9839
vn -0.0525 -0.1359 -0.9893
vn 0.0305 -0.0015 -0.9995
vn -0.0399 -0.1001 -0.9941
vn 0.0234 0.0031 -0.9997
vn -0.0388 -0.0854 -0.9956
vn 0.0175 0.0068 -0.9998
vn 0.1329 0.1572 -0.9785
vn 0.1111 0.1334 -0.9848
vn 0.0858 0.1065 -0.9906
vn 0.0734 0.0990 -0.9924
usemtl feather_001
s 1
f 18//1 10//2 3//3 6//4
f 11//5 18//1 6//4 4//6
f 5//7 1//8 7//9 15//10
f 15//10 7//9 8//11 16//12
f 16//12 8//11 9//13 17//14
f 17//14 9//13 10//2 18//1
f 2//15 5//7 15//10 14//16
f 14//16 15//10 16//12 13//17
f 13//17 16//12 17//14 12//18
f 12//18 17//14 18//1 11//5
