# Blender v2.79 (sub 0) OBJ File: 'ara_base_mesh_BI.blend'
# www.blender.org
mtllib ara_feather_flight_tertiary_027.mtl
o feather_flight_tertiary_027
v 0.335000 0.187317 0.015175
v 0.330322 0.182133 0.015067
v 0.360771 0.165449 0.015505
v 0.354387 0.158375 0.015358
v 0.331404 0.185896 0.015833
v 0.360383 0.159365 0.016194
v 0.340491 0.184863 0.015257
v 0.347053 0.181019 0.015350
v 0.353229 0.176746 0.015434
v 0.358532 0.171507 0.015498
v 0.348187 0.160043 0.015259
v 0.342504 0.164862 0.015186
v 0.337694 0.170648 0.015134
v 0.333270 0.176861 0.015090
v 0.336897 0.180867 0.015901
v 0.342390 0.175838 0.015970
v 0.347883 0.170809 0.016038
v 0.353376 0.165780 0.016107
vn 0.0074 0.0135 -0.9999
vn -0.0616 -0.0650 -0.9960
vn -0.0840 -0.0697 -0.9940
vn -0.0003 0.0216 -0.9998
vn 0.0796 0.0893 -0.9928
vn 0.0821 0.1114 -0.9904
vn 0.0343 -0.0121 -0.9993
vn -0.0779 -0.1342 -0.9879
vn -0.0631 -0.1082 -0.9921
vn 0.0305 -0.0075 -0.9995
vn -0.0475 -0.0791 -0.9957
vn 0.0241 -0.0014 -0.9997
vn -0.0449 -0.0661 -0.9968
vn 0.0189 0.0034 -0.9998
vn 0.1461 0.1110 -0.9830
vn 0.1219 0.0943 -0.9880
vn 0.0949 0.0766 -0.9925
vn 0.0823 0.0730 -0.9939
usemtl feather_001
s 1
f 18//1 10//2 3//3 6//4
f 11//5 18//1 6//4 4//6
f 5//7 1//8 7//9 15//10
f 15//10 7//9 8//11 16//12
f 16//12 8//11 9//13 17//14
f 17//14 9//13 10//2 18//1
f 2//15 5//7 15//10 14//16
f 14//16 15//10 16//12 13//17
f 13//17 16//12 17//14 12//18
f 12//18 17//14 18//1 11//5
