# Blender v2.79 (sub 0) OBJ File: 'ara_base_mesh_BI.blend'
# www.blender.org
mtllib ara_feather_flight_tertiary_017.mtl
o feather_flight_tertiary_017
v 0.234359 0.184835 0.015105
v 0.227424 0.184032 0.015127
v 0.239086 0.155244 0.015286
v 0.229622 0.154149 0.015316
v 0.230712 0.185948 0.015831
v 0.234739 0.151364 0.016047
v 0.236831 0.180018 0.015130
v 0.239179 0.173646 0.015166
v 0.240955 0.167208 0.015204
v 0.241437 0.160620 0.015246
v 0.226099 0.158845 0.015294
v 0.225054 0.165367 0.015254
v 0.225303 0.172040 0.015210
v 0.226125 0.178779 0.015164
v 0.231476 0.179392 0.015872
v 0.232239 0.172837 0.015913
v 0.233002 0.166282 0.015954
v 0.233766 0.159726 0.015995
vn -0.0040 0.0079 -0.9999
vn -0.1068 -0.0068 -0.9942
vn -0.1270 0.0060 -0.9919
vn -0.0055 0.0203 -0.9998
vn 0.0995 0.0172 -0.9949
vn 0.1162 0.0344 -0.9926
vn 0.0009 -0.0336 -0.9994
vn -0.1635 -0.0522 -0.9851
vn -0.1353 -0.0413 -0.9899
vn 0.0001 -0.0270 -0.9996
vn -0.1055 -0.0289 -0.9940
vn -0.0011 -0.0172 -0.9998
vn -0.0954 -0.0199 -0.9952
vn -0.0020 -0.0092 -0.9999
vn 0.1653 -0.0140 -0.9861
vn 0.1353 -0.0098 -0.9908
vn 0.1032 -0.0046 -0.9946
vn 0.0913 0.0018 -0.9958
usemtl feather_001
s 1
f 18//1 10//2 3//3 6//4
f 11//5 18//1 6//4 4//6
f 5//7 1//8 7//9 15//10
f 15//10 7//9 8//11 16//12
f 16//12 8//11 9//13 17//14
f 17//14 9//13 10//2 18//1
f 2//15 5//7 15//10 14//16
f 14//16 15//10 16//12 13//17
f 13//17 16//12 17//14 12//18
f 12//18 17//14 18//1 11//5
