# Blender v2.79 (sub 0) OBJ File: 'ara_base_mesh_BI.blend'
# www.blender.org
mtllib ara_feather_flight_tertiary_021.mtl
o feather_flight_tertiary_021
v 0.273267 0.185563 0.015085
v 0.266217 0.183184 0.015137
v 0.284975 0.155219 0.015196
v 0.275355 0.151972 0.015268
v 0.269204 0.185941 0.015830
v 0.281326 0.150147 0.015971
v 0.276948 0.180998 0.015091
v 0.280857 0.174757 0.015106
v 0.284184 0.168320 0.015125
v 0.286195 0.161439 0.015154
v 0.270605 0.156176 0.015269
v 0.268021 0.162864 0.015245
v 0.266752 0.169996 0.015210
v 0.266066 0.177325 0.015172
v 0.271502 0.179157 0.015857
v 0.273800 0.172372 0.015883
v 0.276098 0.165587 0.015910
v 0.278395 0.158802 0.015937
vn -0.0096 0.0069 -0.9999
vn -0.1012 -0.0267 -0.9945
vn -0.1221 -0.0191 -0.9923
vn -0.0134 0.0178 -0.9997
vn 0.0837 0.0359 -0.9958
vn 0.0958 0.0547 -0.9939
vn 0.0029 -0.0295 -0.9995
vn -0.1445 -0.0790 -0.9863
vn -0.1208 -0.0635 -0.9906
vn 0.0009 -0.0237 -0.9997
vn -0.0957 -0.0464 -0.9943
vn -0.0021 -0.0151 -0.9999
vn -0.0881 -0.0362 -0.9954
vn -0.0045 -0.0081 -0.9999
vn 0.1503 0.0207 -0.9884
vn 0.1218 0.0185 -0.9924
vn 0.0912 0.0169 -0.9957
vn 0.0790 0.0203 -0.9966
usemtl feather_001
s 1
f 18//1 10//2 3//3 6//4
f 11//5 18//1 6//4 4//6
f 5//7 1//8 7//9 15//10
f 15//10 7//9 8//11 16//12
f 16//12 8//11 9//13 17//14
f 17//14 9//13 10//2 18//1
f 2//15 5//7 15//10 14//16
f 14//16 15//10 16//12 13//17
f 13//17 16//12 17//14 12//18
f 12//18 17//14 18//1 11//5
