# Blender v2.79 (sub 0) OBJ File: 'budgie_base_mesh_BI.blend'
# www.blender.org
mtllib budgie_feather_flight_primary_015.mtl
o feather_flight_primary_015
v 0.166024 0.099631 0.035749
v 0.163404 0.093746 0.035749
v 0.226808 0.073854 0.035749
v 0.223232 0.065822 0.035749
v 0.161632 0.098061 0.036071
v 0.228375 0.068344 0.036071
v 0.176948 0.096684 0.035749
v 0.190841 0.092110 0.035749
v 0.204518 0.087051 0.035749
v 0.217706 0.080893 0.035749
v 0.211911 0.067877 0.035749
v 0.198510 0.073557 0.035749
v 0.185599 0.080335 0.035749
v 0.172903 0.087599 0.035749
v 0.174926 0.092142 0.036071
v 0.188220 0.086223 0.036071
v 0.201514 0.080304 0.036071
v 0.214808 0.074385 0.036071
vn -0.0029 0.0013 -1.0000
vn -0.0232 -0.0448 -0.9987
vn -0.0290 -0.0502 -0.9983
vn -0.0055 0.0024 -1.0000
vn 0.0178 0.0472 -0.9987
vn 0.0179 0.0551 -0.9983
vn 0.0050 -0.0022 -1.0000
vn -0.0277 -0.0758 -0.9967
vn -0.0237 -0.0632 -0.9977
vn 0.0038 -0.0017 -1.0000
vn -0.0188 -0.0475 -0.9987
vn 0.0020 -0.0009 -1.0000
vn -0.0179 -0.0417 -0.9990
vn 0.0005 -0.0002 -1.0000
vn 0.0378 0.0713 -0.9967
vn 0.0311 0.0599 -0.9977
vn 0.0227 0.0458 -0.9987
vn 0.0189 0.0412 -0.9990
usemtl feather_blue_003
s 1
f 18//1 10//2 3//3 6//4
f 11//5 18//1 6//4 4//6
f 5//7 1//8 7//9 15//10
f 15//10 7//9 8//11 16//12
f 16//12 8//11 9//13 17//14
f 17//14 9//13 10//2 18//1
f 2//15 5//7 15//10 14//16
f 14//16 15//10 16//12 13//17
f 13//17 16//12 17//14 12//18
f 12//18 17//14 18//1 11//5
