# Blender v2.79 (sub 0) OBJ File: 'budgie_base_mesh_BI.blend'
# www.blender.org
mtllib budgie_feather_flight_tertiary_019.mtl
o feather_flight_tertiary_019
v 0.114678 0.097696 0.036562
v 0.111597 0.097123 0.036572
v 0.117709 0.084590 0.036644
v 0.113504 0.083808 0.036657
v 0.113011 0.098082 0.036885
v 0.115743 0.083462 0.036977
v 0.115934 0.095615 0.036573
v 0.117182 0.092834 0.036590
v 0.118176 0.090006 0.036607
v 0.118595 0.087070 0.036625
v 0.111781 0.085802 0.036647
v 0.111112 0.088691 0.036629
v 0.111018 0.091687 0.036609
v 0.111178 0.094730 0.036589
v 0.113555 0.095170 0.036903
v 0.114099 0.092258 0.036922
v 0.114643 0.089346 0.036940
v 0.115187 0.086433 0.036958
vn -0.0048 0.0089 -0.9999
vn -0.1041 -0.0127 -0.9945
vn -0.1233 0.0007 -0.9923
vn -0.0074 0.0226 -0.9997
vn 0.0956 0.0246 -0.9951
vn 0.1087 0.0441 -0.9931
vn 0.0031 -0.0332 -0.9994
vn -0.1580 -0.0628 -0.9854
vn -0.1309 -0.0501 -0.9901
vn 0.0019 -0.0268 -0.9996
vn -0.1022 -0.0358 -0.9941
vn 0.0000 -0.0172 -0.9998
vn -0.0928 -0.0262 -0.9953
vn -0.0014 -0.0094 -0.9999
vn 0.1642 -0.0027 -0.9864
vn 0.1342 -0.0006 -0.9909
vn 0.1022 0.0023 -0.9948
vn 0.0899 0.0079 -0.9959
usemtl feather_blue_001
s 1
f 18//1 10//2 3//3 6//4
f 11//5 18//1 6//4 4//6
f 5//7 1//8 7//9 15//10
f 15//10 7//9 8//11 16//12
f 16//12 8//11 9//13 17//14
f 17//14 9//13 10//2 18//1
f 2//15 5//7 15//10 14//16
f 14//16 15//10 16//12 13//17
f 13//17 16//12 17//14 12//18
f 12//18 17//14 18//1 11//5
