# Blender v2.79 (sub 0) OBJ File: 'budgie_base_mesh_BI.blend'
# www.blender.org
mtllib budgie_feather_tail_secondary_004.mtl
o feather_tail_secondary_004
v 0.003070 0.045074 -0.105798
v -0.002002 0.045074 -0.106519
v 0.000125 0.045491 -0.103284
v 0.005565 0.045074 -0.115160
v 0.008183 0.045074 -0.127438
v -0.000876 0.045074 -0.128727
v -0.001786 0.045074 -0.116206
v 0.001890 0.045491 -0.115683
v 0.003654 0.045491 -0.128082
v 0.013613 0.045074 -0.166203
v 0.012694 0.045074 -0.155539
v 0.010548 0.045074 -0.141473
v 0.000768 0.045074 -0.142864
v 0.002631 0.045074 -0.156971
v 0.004724 0.045074 -0.167468
v 0.009667 0.045491 -0.170341
v 0.007663 0.045491 -0.156255
v 0.005658 0.045491 -0.142168
vn -0.0010 1.0000 0.0070
vn 0.1326 0.9908 0.0259
vn 0.1147 0.9932 0.0215
vn -0.0007 1.0000 0.0052
vn 0.0923 0.9956 0.0154
vn -0.0003 1.0000 0.0023
vn -0.1346 0.9908 -0.0121
vn -0.1161 0.9932 -0.0113
vn -0.0929 0.9956 -0.0109
vn 0.0842 0.9964 0.0127
vn -0.0001 1.0000 0.0007
vn 0.0845 0.9963 0.0112
vn 0.0001 1.0000 -0.0008
vn 0.0870 0.9961 0.0103
vn 0.0003 1.0000 -0.0020
vn -0.0844 0.9964 -0.0112
vn -0.0843 0.9963 -0.0128
vn -0.0864 0.9961 -0.0144
usemtl feather_blue_001
s 1
f 3//1 1//2 4//3 8//4
f 8//4 4//3 5//5 9//6
f 2//7 3//1 8//4 7//8
f 7//8 8//4 9//6 6//9
f 9//6 5//5 12//10 18//11
f 18//11 12//10 11//12 17//13
f 17//13 11//12 10//14 16//15
f 6//9 9//6 18//11 13//16
f 13//16 18//11 17//13 14//17
f 14//17 17//13 16//15 15//18
