# Blender v2.79 (sub 0) OBJ File: 'budgie_base_mesh_BI.blend'
# www.blender.org
mtllib budgie_feather_flight_secondary_012.mtl
o feather_flight_secondary_012
v 0.135808 0.098385 0.036140
v 0.131080 0.095096 0.036182
v 0.154946 0.072786 0.036256
v 0.148494 0.068297 0.036313
v 0.132508 0.098077 0.036477
v 0.152735 0.069081 0.036613
v 0.140188 0.094843 0.036149
v 0.145297 0.089820 0.036167
v 0.150016 0.084524 0.036188
v 0.153853 0.078615 0.036217
v 0.143397 0.071340 0.036310
v 0.139176 0.076982 0.036285
v 0.135838 0.083238 0.036251
v 0.132889 0.089765 0.036214
v 0.136537 0.092301 0.036504
v 0.140566 0.086526 0.036531
v 0.144595 0.080750 0.036558
v 0.148624 0.074975 0.036586
vn -0.0075 -0.0018 -1.0000
vn -0.0528 -0.0346 -0.9980
vn -0.0638 -0.0340 -0.9974
vn -0.0109 0.0029 -0.9999
vn 0.0388 0.0293 -0.9988
vn 0.0421 0.0399 -0.9983
vn 0.0028 -0.0166 -0.9998
vn -0.0710 -0.0681 -0.9951
vn -0.0601 -0.0566 -0.9966
vn 0.0012 -0.0144 -0.9999
vn -0.0479 -0.0435 -0.9979
vn -0.0012 -0.0110 -0.9999
vn -0.0447 -0.0372 -0.9983
vn -0.0031 -0.0082 -0.9999
vn 0.0767 0.0350 -0.9964
vn 0.0621 0.0286 -0.9977
vn 0.0455 0.0217 -0.9987
vn 0.0385 0.0208 -0.9990
usemtl feather_blue_002
s 1
f 18//1 10//2 3//3 6//4
f 11//5 18//1 6//4 4//6
f 5//7 1//8 7//9 15//10
f 15//10 7//9 8//11 16//12
f 16//12 8//11 9//13 17//14
f 17//14 9//13 10//2 18//1
f 2//15 5//7 15//10 14//16
f 14//16 15//10 16//12 13//17
f 13//17 16//12 17//14 12//18
f 12//18 17//14 18//1 11//5
