# Blender v2.79 (sub 0) OBJ File: 'budgie_base_mesh_BI.blend'
# www.blender.org
mtllib budgie_feather_flight_tertiary_054.mtl
o feather_flight_tertiary_054
v 0.128064 0.098088 0.035303
v 0.124898 0.096766 0.035278
v 0.133945 0.085661 0.035256
v 0.129624 0.083858 0.035222
v 0.126208 0.098072 0.034971
v 0.132078 0.084052 0.034914
v 0.129823 0.096302 0.035301
v 0.131716 0.093812 0.035295
v 0.133347 0.091212 0.035287
v 0.134388 0.088366 0.035275
v 0.127386 0.085443 0.035221
v 0.126088 0.088182 0.035231
v 0.125381 0.091168 0.035246
v 0.124935 0.094262 0.035263
v 0.127377 0.095280 0.034960
v 0.128546 0.092487 0.034948
v 0.129716 0.089695 0.034937
v 0.130885 0.086902 0.034926
vn 0.0109 -0.0081 -0.9999
vn 0.0952 0.0305 -0.9950
vn 0.1156 0.0211 -0.9930
vn 0.0163 -0.0207 -0.9996
vn -0.0757 -0.0410 -0.9963
vn -0.0835 -0.0623 -0.9945
vn -0.0054 0.0305 -0.9995
vn 0.1331 0.0880 -0.9872
vn 0.1112 0.0707 -0.9913
vn -0.0028 0.0246 -0.9997
vn 0.0887 0.0520 -0.9947
vn 0.0009 0.0158 -0.9998
vn 0.0824 0.0412 -0.9957
vn 0.0040 0.0086 -0.9999
vn -0.1438 -0.0277 -0.9892
vn -0.1158 -0.0243 -0.9930
vn -0.0865 -0.0213 -0.9960
vn -0.0744 -0.0244 -0.9969
usemtl feather_blue_001
s 1
f 18//1 10//2 3//3 6//4
f 11//5 18//1 6//4 4//6
f 5//7 1//8 7//9 15//10
f 15//10 7//9 8//11 16//12
f 16//12 8//11 9//13 17//14
f 17//14 9//13 10//2 18//1
f 2//15 5//7 15//10 14//16
f 14//16 15//10 16//12 13//17
f 13//17 16//12 17//14 12//18
f 12//18 17//14 18//1 11//5
