# Blender v2.79 (sub 0) OBJ File: 'budgie_base_mesh_BI.blend'
# www.blender.org
mtllib budgie_feather_flight_tertiary_033.mtl
o feather_flight_tertiary_033
v 0.034128 0.097490 0.035226
v 0.030863 0.097490 0.035226
v 0.034723 0.085945 0.035226
v 0.030268 0.085945 0.035226
v 0.032495 0.098080 0.034888
v 0.032495 0.085302 0.034888
v 0.035015 0.095535 0.035226
v 0.035761 0.092990 0.035226
v 0.036238 0.090445 0.035226
v 0.036105 0.087900 0.035226
v 0.028885 0.087900 0.035226
v 0.028753 0.090445 0.035226
v 0.029230 0.092990 0.035226
v 0.029976 0.095535 0.035226
v 0.032495 0.095535 0.034888
v 0.032495 0.092990 0.034888
v 0.032495 0.090445 0.034888
v 0.032495 0.087900 0.034888
vn 0.0000 -0.0194 -0.9998
vn 0.1019 -0.0149 -0.9947
vn 0.1191 -0.0362 -0.9922
vn 0.0000 -0.0364 -0.9993
vn -0.1019 -0.0149 -0.9947
vn -0.1191 -0.0362 -0.9922
vn 0.0000 0.0331 -0.9995
vn 0.1654 0.0326 -0.9857
vn 0.1351 0.0230 -0.9905
vn 0.0000 0.0251 -0.9997
vn 0.1047 0.0124 -0.9944
vn 0.0000 0.0131 -0.9999
vn 0.0939 0.0030 -0.9956
vn 0.0000 0.0033 -1.0000
vn -0.1654 0.0326 -0.9857
vn -0.1351 0.0230 -0.9905
vn -0.1047 0.0124 -0.9944
vn -0.0939 0.0030 -0.9956
usemtl feather_blue_001
s 1
f 18//1 10//2 3//3 6//4
f 11//5 18//1 6//4 4//6
f 5//7 1//8 7//9 15//10
f 15//10 7//9 8//11 16//12
f 16//12 8//11 9//13 17//14
f 17//14 9//13 10//2 18//1
f 2//15 5//7 15//10 14//16
f 14//16 15//10 16//12 13//17
f 13//17 16//12 17//14 12//18
f 12//18 17//14 18//1 11//5
