# Blender v2.79 (sub 0) OBJ File: 'budgie_base_mesh_BI.blend'
# www.blender.org
mtllib budgie_feather_flight_secondary_032.mtl
o feather_flight_secondary_032
v 0.177100 0.100395 0.035592
v 0.175795 0.094821 0.035684
v 0.216148 0.092102 0.035255
v 0.214367 0.084496 0.035380
v 0.174469 0.098090 0.035331
v 0.217422 0.087788 0.034976
v 0.184027 0.100334 0.035513
v 0.192880 0.099555 0.035421
v 0.201626 0.098317 0.035337
v 0.210129 0.096039 0.035270
v 0.207243 0.083712 0.035474
v 0.198634 0.085538 0.035548
v 0.190269 0.088403 0.035605
v 0.182012 0.091729 0.035655
v 0.183025 0.096038 0.035260
v 0.191580 0.093986 0.035190
v 0.200136 0.091934 0.035119
v 0.208691 0.089882 0.035048
vn -0.0063 -0.0149 -0.9998
vn 0.0063 0.0403 -0.9991
vn 0.0135 0.0474 -0.9988
vn -0.0018 -0.0163 -0.9998
vn -0.0201 -0.0699 -0.9973
vn -0.0169 -0.0793 -0.9967
vn -0.0204 -0.0113 -0.9997
vn 0.0008 0.0770 -0.9970
vn -0.0003 0.0615 -0.9981
vn -0.0183 -0.0121 -0.9998
vn -0.0015 0.0432 -0.9991
vn -0.0150 -0.0129 -0.9998
vn -0.0004 0.0363 -0.9993
vn -0.0124 -0.0135 -0.9998
vn -0.0415 -0.0998 -0.9941
vn -0.0355 -0.0855 -0.9957
vn -0.0284 -0.0689 -0.9972
vn -0.0243 -0.0634 -0.9977
usemtl feather_blue_002
s 1
f 18//1 10//2 3//3 6//4
f 11//5 18//1 6//4 4//6
f 5//7 1//8 7//9 15//10
f 15//10 7//9 8//11 16//12
f 16//12 8//11 9//13 17//14
f 17//14 9//13 10//2 18//1
f 2//15 5//7 15//10 14//16
f 14//16 15//10 16//12 13//17
f 13//17 16//12 17//14 12//18
f 12//18 17//14 18//1 11//5
