# Blender v2.79 (sub 0) OBJ File: 'budgie_base_mesh_BI.blend'
# www.blender.org
mtllib budgie_feather_flight_secondary_011.mtl
o feather_flight_secondary_011
v 0.126803 0.097939 0.036156
v 0.122098 0.095562 0.036173
v 0.140814 0.072400 0.036342
v 0.134394 0.069156 0.036365
v 0.123778 0.098075 0.036477
v 0.138336 0.069330 0.036686
v 0.130309 0.094187 0.036183
v 0.134284 0.089005 0.036221
v 0.137870 0.083626 0.036260
v 0.140579 0.077804 0.036302
v 0.130174 0.072548 0.036341
v 0.127084 0.078176 0.036300
v 0.124871 0.084249 0.036255
v 0.123047 0.090517 0.036210
v 0.126678 0.092349 0.036518
v 0.129577 0.086624 0.036560
v 0.132477 0.080898 0.036602
v 0.135377 0.075173 0.036644
vn -0.0033 -0.0007 -1.0000
vn -0.0572 -0.0292 -0.9979
vn -0.0691 -0.0269 -0.9972
vn -0.0062 0.0049 -0.9999
vn 0.0516 0.0258 -0.9983
vn 0.0567 0.0368 -0.9977
vn 0.0057 -0.0184 -0.9998
vn -0.0821 -0.0627 -0.9946
vn -0.0685 -0.0520 -0.9963
vn 0.0043 -0.0157 -0.9998
vn -0.0533 -0.0396 -0.9978
vn 0.0022 -0.0117 -0.9999
vn -0.0489 -0.0334 -0.9982
vn 0.0005 -0.0084 -0.9999
vn 0.0934 0.0261 -0.9953
vn 0.0766 0.0215 -0.9968
vn 0.0576 0.0165 -0.9982
vn 0.0500 0.0167 -0.9986
usemtl feather_blue_002
s 1
f 18//1 10//2 3//3 6//4
f 11//5 18//1 6//4 4//6
f 5//7 1//8 7//9 15//10
f 15//10 7//9 8//11 16//12
f 16//12 8//11 9//13 17//14
f 17//14 9//13 10//2 18//1
f 2//15 5//7 15//10 14//16
f 14//16 15//10 16//12 13//17
f 13//17 16//12 17//14 12//18
f 12//18 17//14 18//1 11//5
