# Blender v2.79 (sub 0) OBJ File: 'budgie_base_mesh_BI.blend'
# www.blender.org
mtllib budgie_feather_tail_primary_003.mtl
o feather_tail_primary_003
v 0.006592 0.044462 -0.103839
v 0.001067 0.044462 -0.105091
v 0.029204 0.044462 -0.199244
v 0.021783 0.044462 -0.200925
v 0.003285 0.044838 -0.102060
v 0.026640 0.044838 -0.205146
v 0.009639 0.044462 -0.111527
v 0.012920 0.044462 -0.121691
v 0.026962 0.044462 -0.180466
v 0.028831 0.044462 -0.190950
v 0.018546 0.044462 -0.193280
v 0.015713 0.044462 -0.183015
v 0.003051 0.044462 -0.123927
v 0.001631 0.044462 -0.113341
v 0.005635 0.044838 -0.112434
v 0.007986 0.044838 -0.122809
v 0.021338 0.044838 -0.181740
v 0.023688 0.044838 -0.192115
v 0.024327 0.044462 -0.168672
v 0.021590 0.044462 -0.156901
v 0.018808 0.044462 -0.145140
v 0.015983 0.044462 -0.133388
v 0.005329 0.044462 -0.135802
v 0.007845 0.044462 -0.147623
v 0.010404 0.044462 -0.159435
v 0.013007 0.044462 -0.171237
v 0.018667 0.044838 -0.169954
v 0.015997 0.044838 -0.158168
v 0.013326 0.044838 -0.146381
v 0.010656 0.044838 -0.134595
vn 0.0008 1.0000 -0.0036
vn 0.0750 0.9971 0.0133
vn 0.0849 0.9963 0.0132
vn 0.0013 1.0000 -0.0057
vn -0.0735 0.9971 -0.0203
vn -0.0823 0.9963 -0.0246
vn -0.0016 1.0000 0.0073
vn 0.1058 0.9939 0.0316
vn 0.0913 0.9955 0.0262
vn -0.0012 1.0000 0.0054
vn 0.0738 0.9971 0.0191
vn -0.0005 1.0000 0.0023
vn 0.0000 1.0000 0.0000
vn 0.0632 0.9979 0.0143
vn 0.0648 0.9978 0.0138
vn 0.0002 1.0000 -0.0008
vn -0.1091 0.9939 -0.0171
vn -0.0937 0.9955 -0.0157
vn -0.0748 0.9971 -0.0145
vn -0.0632 0.9979 -0.0143
vn -0.0645 0.9978 -0.0154
vn 0.0674 0.9976 0.0161
vn -0.0002 1.0000 0.0008
vn 0.0650 0.9977 0.0151
vn -0.0001 1.0000 0.0004
vn 0.0638 0.9978 0.0147
vn -0.0000 1.0000 0.0002
vn -0.0678 0.9976 -0.0145
vn -0.0652 0.9977 -0.0144
vn -0.0639 0.9978 -0.0142
usemtl feather_blue_003
s 1
f 18//1 10//2 3//3 6//4
f 11//5 18//1 6//4 4//6
f 5//7 1//8 7//9 15//10
f 15//10 7//9 8//11 16//12
f 27//13 19//14 9//15 17//16
f 17//16 9//15 10//2 18//1
f 2//17 5//7 15//10 14//18
f 14//18 15//10 16//12 13//19
f 26//20 27//13 17//16 12//21
f 12//21 17//16 18//1 11//5
f 16//12 8//11 22//22 30//23
f 30//23 22//22 21//24 29//25
f 29//25 21//24 20//26 28//27
f 28//27 20//26 19//14 27//13
f 13//19 16//12 30//23 23//28
f 23//28 30//23 29//25 24//29
f 24//29 29//25 28//27 25//30
f 25//30 28//27 27//13 26//20
