# Blender v2.79 (sub 0) OBJ File: 'budgie_base_mesh_BI.blend'
# www.blender.org
mtllib budgie_feather_flight_secondary_022.mtl
o feather_flight_secondary_022
v 0.081611 0.096901 0.035655
v 0.076855 0.096568 0.035655
v 0.084318 0.070648 0.035655
v 0.077828 0.070194 0.035655
v 0.079139 0.098080 0.035333
v 0.081175 0.068957 0.035333
v 0.083215 0.092535 0.035655
v 0.084707 0.086811 0.035655
v 0.085807 0.081059 0.035655
v 0.086020 0.075244 0.035655
v 0.075503 0.074509 0.035655
v 0.074904 0.080296 0.035655
v 0.075193 0.086145 0.035655
v 0.075874 0.092022 0.035655
v 0.079545 0.092279 0.035333
v 0.079950 0.086478 0.035333
v 0.080356 0.080677 0.035333
v 0.080761 0.074877 0.035333
vn 0.0005 -0.0080 -0.9999
vn 0.0677 -0.0021 -0.9977
vn 0.0787 -0.0096 -0.9968
vn 0.0010 -0.0151 -0.9999
vn -0.0667 -0.0115 -0.9977
vn -0.0766 -0.0205 -0.9968
vn -0.0009 0.0137 -0.9999
vn 0.1073 0.0212 -0.9940
vn 0.0889 0.0161 -0.9959
vn -0.0007 0.0104 -0.9999
vn 0.0682 0.0100 -0.9976
vn -0.0004 0.0054 -1.0000
vn 0.0610 0.0056 -0.9981
vn -0.0001 0.0014 -1.0000
vn -0.1092 0.0061 -0.9940
vn -0.0902 0.0036 -0.9959
vn -0.0689 0.0005 -0.9976
vn -0.0612 -0.0030 -0.9981
usemtl feather_blue_002
s 1
f 18//1 10//2 3//3 6//4
f 11//5 18//1 6//4 4//6
f 5//7 1//8 7//9 15//10
f 15//10 7//9 8//11 16//12
f 16//12 8//11 9//13 17//14
f 17//14 9//13 10//2 18//1
f 2//15 5//7 15//10 14//16
f 14//16 15//10 16//12 13//17
f 13//17 16//12 17//14 12//18
f 12//18 17//14 18//1 11//5
