# Blender v2.79 (sub 0) OBJ File: 'budgie_base_mesh_BI.blend'
# www.blender.org
mtllib budgie_feather_flight_secondary_024.mtl
o feather_flight_secondary_024
v 0.099890 0.097081 0.035655
v 0.094761 0.096177 0.035655
v 0.105830 0.068864 0.035655
v 0.098831 0.067629 0.035655
v 0.097070 0.098080 0.035333
v 0.102609 0.066668 0.035333
v 0.102132 0.092521 0.035655
v 0.104408 0.086471 0.035655
v 0.106260 0.080346 0.035655
v 0.107155 0.074053 0.035655
v 0.095811 0.072053 0.035655
v 0.094500 0.078273 0.035655
v 0.094146 0.084661 0.035655
v 0.094214 0.091125 0.035655
v 0.098173 0.091823 0.035333
v 0.099277 0.085566 0.035333
v 0.100380 0.079309 0.035333
v 0.101483 0.073053 0.035333
vn 0.0013 -0.0073 -1.0000
vn 0.0618 0.0045 -0.9980
vn 0.0726 -0.0012 -0.9973
vn 0.0024 -0.0136 -0.9999
vn -0.0596 -0.0169 -0.9980
vn -0.0678 -0.0260 -0.9973
vn -0.0022 0.0124 -0.9999
vn 0.0958 0.0296 -0.9949
vn 0.0794 0.0232 -0.9966
vn -0.0016 0.0094 -0.9999
vn 0.0611 0.0157 -0.9980
vn -0.0009 0.0049 -1.0000
vn 0.0550 0.0109 -0.9984
vn -0.0002 0.0012 -1.0000
vn -0.1001 -0.0049 -0.9949
vn -0.0826 -0.0053 -0.9966
vn -0.0628 -0.0062 -0.9980
vn -0.0554 -0.0085 -0.9984
usemtl feather_blue_002
s 1
f 18//1 10//2 3//3 6//4
f 11//5 18//1 6//4 4//6
f 5//7 1//8 7//9 15//10
f 15//10 7//9 8//11 16//12
f 16//12 8//11 9//13 17//14
f 17//14 9//13 10//2 18//1
f 2//15 5//7 15//10 14//16
f 14//16 15//10 16//12 13//17
f 13//17 16//12 17//14 12//18
f 12//18 17//14 18//1 11//5
