# Blender v2.79 (sub 0) OBJ File: 'budgie_base_mesh_BI.blend'
# www.blender.org
mtllib budgie_feather_flight_tertiary_030.mtl
o feather_flight_tertiary_030
v 0.165552 0.098721 0.036670
v 0.164466 0.096652 0.036635
v 0.179718 0.091676 0.036810
v 0.178237 0.088852 0.036762
v 0.164302 0.098070 0.036988
v 0.179761 0.089855 0.037136
v 0.168212 0.098027 0.036703
v 0.171540 0.096864 0.036740
v 0.174777 0.095530 0.036775
v 0.177813 0.093809 0.036803
v 0.175412 0.089232 0.036724
v 0.172289 0.090785 0.036693
v 0.169368 0.092723 0.036669
v 0.166537 0.094832 0.036648
v 0.167381 0.096434 0.037018
v 0.170460 0.094798 0.037047
v 0.173540 0.093161 0.037077
v 0.176619 0.091525 0.037106
vn 0.0015 0.0154 -0.9999
vn -0.0652 -0.1139 -0.9913
vn -0.0881 -0.1267 -0.9880
vn -0.0092 0.0221 -0.9997
vn 0.0714 0.1431 -0.9871
vn 0.0690 0.1684 -0.9833
vn 0.0354 -0.0033 -0.9994
vn -0.0735 -0.2070 -0.9756
vn -0.0612 -0.1704 -0.9835
vn 0.0304 -0.0002 -0.9995
vn -0.0471 -0.1264 -0.9908
vn 0.0228 0.0044 -0.9997
vn -0.0457 -0.1088 -0.9930
vn 0.0165 0.0078 -0.9998
vn 0.1423 0.2003 -0.9693
vn 0.1194 0.1703 -0.9781
vn 0.0917 0.1351 -0.9865
vn 0.0782 0.1244 -0.9891
usemtl feather_blue_001
s 1
f 18//1 10//2 3//3 6//4
f 11//5 18//1 6//4 4//6
f 5//7 1//8 7//9 15//10
f 15//10 7//9 8//11 16//12
f 16//12 8//11 9//13 17//14
f 17//14 9//13 10//2 18//1
f 2//15 5//7 15//10 14//16
f 14//16 15//10 16//12 13//17
f 13//17 16//12 17//14 12//18
f 12//18 17//14 18//1 11//5
