# Blender v2.79 (sub 0) OBJ File: 'budgie_base_mesh_BI.blend'
# www.blender.org
mtllib budgie_feather_tail_primary_002.mtl
o feather_tail_primary_002
v 0.006449 0.044550 -0.102765
v 0.001171 0.044550 -0.104662
v 0.035774 0.044550 -0.181526
v 0.028684 0.044550 -0.184073
v 0.003095 0.044888 -0.101724
v 0.033733 0.044888 -0.186986
v 0.010003 0.044550 -0.108930
v 0.013975 0.044550 -0.117192
v 0.032150 0.044550 -0.165696
v 0.034773 0.044550 -0.174443
v 0.024948 0.044550 -0.177973
v 0.021403 0.044550 -0.169558
v 0.004548 0.044550 -0.120580
v 0.002353 0.044550 -0.111680
v 0.006178 0.044888 -0.110305
v 0.009262 0.044888 -0.118886
v 0.026777 0.044888 -0.167627
v 0.029860 0.044888 -0.176208
v 0.028681 0.044550 -0.155936
v 0.025114 0.044550 -0.146211
v 0.021504 0.044550 -0.136501
v 0.017853 0.044550 -0.126805
v 0.007676 0.044550 -0.130463
v 0.011032 0.044550 -0.140264
v 0.014428 0.044550 -0.150051
v 0.017867 0.044550 -0.159822
v 0.023274 0.044888 -0.157879
v 0.019771 0.044888 -0.148131
v 0.016268 0.044888 -0.138382
v 0.012765 0.044888 -0.128634
vn 0.0013 1.0000 -0.0037
vn 0.0663 0.9976 0.0199
vn 0.0755 0.9969 0.0206
vn 0.0021 1.0000 -0.0058
vn -0.0638 0.9976 -0.0269
vn -0.0713 0.9969 -0.0321
vn -0.0027 0.9999 0.0074
vn 0.0917 0.9949 0.0413
vn 0.0791 0.9962 0.0344
vn -0.0020 1.0000 0.0055
vn 0.0644 0.9976 0.0258
vn -0.0009 1.0000 0.0024
vn 0.0000 1.0000 0.0000
vn 0.0555 0.9982 0.0200
vn 0.0570 0.9982 0.0196
vn 0.0003 1.0000 -0.0008
vn -0.0970 0.9949 -0.0265
vn -0.0829 0.9962 -0.0238
vn -0.0660 0.9976 -0.0211
vn -0.0555 0.9982 -0.0199
vn -0.0564 0.9982 -0.0212
vn 0.0591 0.9980 0.0221
vn -0.0003 1.0000 0.0008
vn 0.0570 0.9981 0.0209
vn -0.0001 1.0000 0.0004
vn 0.0559 0.9982 0.0204
vn -0.0001 1.0000 0.0002
vn -0.0596 0.9980 -0.0205
vn -0.0573 0.9981 -0.0201
vn -0.0561 0.9982 -0.0199
usemtl feather_blue_003
s 1
f 18//1 10//2 3//3 6//4
f 11//5 18//1 6//4 4//6
f 5//7 1//8 7//9 15//10
f 15//10 7//9 8//11 16//12
f 27//13 19//14 9//15 17//16
f 17//16 9//15 10//2 18//1
f 2//17 5//7 15//10 14//18
f 14//18 15//10 16//12 13//19
f 26//20 27//13 17//16 12//21
f 12//21 17//16 18//1 11//5
f 16//12 8//11 22//22 30//23
f 30//23 22//22 21//24 29//25
f 29//25 21//24 20//26 28//27
f 28//27 20//26 19//14 27//13
f 13//19 16//12 30//23 23//28
f 23//28 30//23 29//25 24//29
f 24//29 29//25 28//27 25//30
f 25//30 28//27 27//13 26//20
