# Blender v2.79 (sub 0) OBJ File: 'budgie_base_mesh_BI.blend'
# www.blender.org
mtllib budgie_feather_flight_primary_005.mtl
o feather_flight_primary_005
v 0.072041 0.095739 0.035749
v 0.066886 0.095559 0.035749
v 0.074642 0.048226 0.035749
v 0.067606 0.047980 0.035749
v 0.069379 0.098080 0.036071
v 0.071216 0.045458 0.036071
v 0.073724 0.087737 0.035749
v 0.075268 0.077297 0.035749
v 0.076387 0.066842 0.035749
v 0.076544 0.056353 0.035749
v 0.065142 0.055955 0.035749
v 0.064567 0.066429 0.035749
v 0.064953 0.076937 0.035749
v 0.065766 0.087459 0.035749
v 0.069745 0.087598 0.036071
v 0.070111 0.077117 0.036071
v 0.070477 0.066635 0.036071
v 0.070843 0.056154 0.036071
vn -0.0002 0.0045 -1.0000
vn -0.0629 0.0019 -0.9980
vn -0.0722 0.0059 -0.9973
vn -0.0003 0.0084 -0.9999
vn 0.0626 0.0063 -0.9980
vn 0.0716 0.0109 -0.9973
vn 0.0002 -0.0076 -1.0000
vn -0.1000 -0.0111 -0.9949
vn -0.0837 -0.0085 -0.9964
vn 0.0002 -0.0058 -1.0000
vn -0.0636 -0.0052 -0.9980
vn 0.0001 -0.0030 -1.0000
vn -0.0566 -0.0027 -0.9984
vn 0.0000 -0.0008 -1.0000
vn 0.1006 -0.0041 -0.9949
vn 0.0840 -0.0027 -0.9964
vn 0.0638 -0.0007 -0.9980
vn 0.0566 0.0012 -0.9984
usemtl feather_blue_003
s 1
f 18//1 10//2 3//3 6//4
f 11//5 18//1 6//4 4//6
f 5//7 1//8 7//9 15//10
f 15//10 7//9 8//11 16//12
f 16//12 8//11 9//13 17//14
f 17//14 9//13 10//2 18//1
f 2//15 5//7 15//10 14//16
f 14//16 15//10 16//12 13//17
f 13//17 16//12 17//14 12//18
f 12//18 17//14 18//1 11//5
