# Blender v2.79 (sub 0) OBJ File: 'budgie_base_mesh_BI.blend'
# www.blender.org
mtllib budgie_feather_flight_primary_007.mtl
o feather_flight_primary_007
v 0.090921 0.095797 0.035749
v 0.085470 0.095224 0.035749
v 0.097199 0.045626 0.035749
v 0.089760 0.044844 0.035749
v 0.087925 0.098080 0.036071
v 0.093773 0.042438 0.036071
v 0.093298 0.087439 0.035749
v 0.095708 0.076487 0.035749
v 0.097669 0.065488 0.035749
v 0.098612 0.054382 0.035749
v 0.086557 0.053115 0.035749
v 0.085171 0.064174 0.035749
v 0.084802 0.075341 0.035749
v 0.084883 0.086555 0.035749
v 0.089090 0.086997 0.036071
v 0.090255 0.075914 0.036071
v 0.091420 0.064831 0.036071
v 0.092585 0.053748 0.036071
vn -0.0004 0.0042 -1.0000
vn -0.0592 -0.0023 -0.9982
vn -0.0682 0.0008 -0.9977
vn -0.0008 0.0078 -0.9999
vn 0.0584 0.0100 -0.9982
vn 0.0666 0.0149 -0.9977
vn 0.0007 -0.0071 -1.0000
vn -0.0933 -0.0170 -0.9955
vn -0.0780 -0.0135 -0.9969
vn 0.0005 -0.0054 -1.0000
vn -0.0594 -0.0090 -0.9982
vn 0.0003 -0.0028 -1.0000
vn -0.0529 -0.0063 -0.9986
vn 0.0001 -0.0007 -1.0000
vn 0.0948 0.0027 -0.9955
vn 0.0791 0.0030 -0.9969
vn 0.0600 0.0035 -0.9982
vn 0.0531 0.0049 -0.9986
usemtl feather_blue_003
s 1
f 18//1 10//2 3//3 6//4
f 11//5 18//1 6//4 4//6
f 5//7 1//8 7//9 15//10
f 15//10 7//9 8//11 16//12
f 16//12 8//11 9//13 17//14
f 17//14 9//13 10//2 18//1
f 2//15 5//7 15//10 14//16
f 14//16 15//10 16//12 13//17
f 13//17 16//12 17//14 12//18
f 12//18 17//14 18//1 11//5
