# Blender v2.79 (sub 0) OBJ File: 'budgie_base_mesh_BI.blend'
# www.blender.org
mtllib budgie_feather_flight_tertiary_014.mtl
o feather_flight_tertiary_014
v 0.092248 0.097690 0.036562
v 0.088636 0.097075 0.036565
v 0.095229 0.084158 0.036589
v 0.090300 0.083319 0.036592
v 0.090323 0.098079 0.036884
v 0.092893 0.082979 0.036914
v 0.093623 0.095546 0.036566
v 0.094960 0.092679 0.036571
v 0.096000 0.089761 0.036577
v 0.096365 0.086729 0.036583
v 0.088377 0.085369 0.036589
v 0.087718 0.088352 0.036583
v 0.087734 0.091449 0.036577
v 0.088047 0.094597 0.036570
v 0.090835 0.095071 0.036890
v 0.091347 0.092063 0.036896
v 0.091859 0.089056 0.036902
v 0.092371 0.086048 0.036908
vn -0.0030 0.0131 -0.9999
vn -0.0878 -0.0046 -0.9961
vn -0.1049 0.0093 -0.9944
vn -0.0052 0.0264 -0.9996
vn 0.0829 0.0244 -0.9962
vn 0.0944 0.0433 -0.9946
vn 0.0040 -0.0279 -0.9996
vn -0.1346 -0.0512 -0.9896
vn -0.1107 -0.0394 -0.9931
vn 0.0029 -0.0216 -0.9998
vn -0.0863 -0.0266 -0.9959
vn 0.0013 -0.0122 -0.9999
vn -0.0784 -0.0178 -0.9967
vn 0.0000 -0.0046 -1.0000
vn 0.1426 -0.0040 -0.9897
vn 0.1161 -0.0008 -0.9932
vn 0.0888 0.0031 -0.9960
vn 0.0785 0.0089 -0.9969
usemtl feather_blue_001
s 1
f 18//1 10//2 3//3 6//4
f 11//5 18//1 6//4 4//6
f 5//7 1//8 7//9 15//10
f 15//10 7//9 8//11 16//12
f 16//12 8//11 9//13 17//14
f 17//14 9//13 10//2 18//1
f 2//15 5//7 15//10 14//16
f 14//16 15//10 16//12 13//17
f 13//17 16//12 17//14 12//18
f 12//18 17//14 18//1 11//5
