# Blender v2.79 (sub 0) OBJ File: 'budgie_base_mesh_BI.blend'
# www.blender.org
mtllib budgie_feather_flight_tertiary_025.mtl
o feather_flight_tertiary_025
v 0.140938 0.098164 0.036568
v 0.138672 0.096745 0.036556
v 0.149008 0.086198 0.036573
v 0.145915 0.084261 0.036555
v 0.139415 0.098081 0.036884
v 0.147889 0.084551 0.036886
v 0.142851 0.096480 0.036572
v 0.145056 0.094110 0.036576
v 0.147075 0.091622 0.036578
v 0.148671 0.088870 0.036578
v 0.143659 0.085730 0.036550
v 0.141879 0.088368 0.036549
v 0.140522 0.091270 0.036550
v 0.139352 0.094289 0.036552
v 0.141103 0.095386 0.036884
v 0.142791 0.092691 0.036885
v 0.144479 0.089996 0.036885
v 0.146166 0.087301 0.036886
vn -0.0038 0.0148 -0.9999
vn -0.1039 -0.0505 -0.9933
vn -0.1275 -0.0476 -0.9907
vn -0.0107 0.0258 -0.9996
vn 0.0986 0.0763 -0.9922
vn 0.1062 0.0987 -0.9894
vn 0.0173 -0.0190 -0.9997
vn -0.1451 -0.1202 -0.9821
vn -0.1209 -0.0971 -0.9879
vn 0.0140 -0.0139 -0.9998
vn -0.0942 -0.0705 -0.9930
vn 0.0093 -0.0061 -0.9999
vn -0.0869 -0.0574 -0.9945
vn 0.0053 0.0002 -1.0000
vn 0.1787 0.0827 -0.9804
vn 0.1477 0.0712 -0.9864
vn 0.1123 0.0589 -0.9919
vn 0.0974 0.0580 -0.9935
usemtl feather_blue_001
s 1
f 18//1 10//2 3//3 6//4
f 11//5 18//1 6//4 4//6
f 5//7 1//8 7//9 15//10
f 15//10 7//9 8//11 16//12
f 16//12 8//11 9//13 17//14
f 17//14 9//13 10//2 18//1
f 2//15 5//7 15//10 14//16
f 14//16 15//10 16//12 13//17
f 13//17 16//12 17//14 12//18
f 12//18 17//14 18//1 11//5
