# Blender v2.79 (sub 0) OBJ File: 'budgie_base_mesh_BI.blend'
# www.blender.org
mtllib budgie_feather_flight_primary_004.mtl
o feather_flight_primary_004
v 0.062715 0.095694 0.035749
v 0.057653 0.095694 0.035749
v 0.063638 0.049012 0.035749
v 0.056731 0.049012 0.035749
v 0.060184 0.098080 0.036071
v 0.060184 0.046416 0.036071
v 0.064091 0.087789 0.035749
v 0.065248 0.077498 0.035749
v 0.065987 0.067208 0.035749
v 0.065781 0.056917 0.035749
v 0.054587 0.056917 0.035749
v 0.054382 0.067208 0.035749
v 0.055121 0.077498 0.035749
v 0.056277 0.087789 0.035749
v 0.060184 0.087789 0.036071
v 0.060184 0.077498 0.036071
v 0.060184 0.067208 0.036071
v 0.060184 0.056917 0.036071
vn 0.0000 0.0045 -1.0000
vn -0.0640 0.0042 -0.9979
vn -0.0733 0.0085 -0.9973
vn 0.0000 0.0085 -0.9999
vn 0.0640 0.0042 -0.9979
vn 0.0733 0.0085 -0.9973
vn 0.0000 -0.0078 -1.0000
vn -0.1023 -0.0077 -0.9947
vn -0.0855 -0.0057 -0.9963
vn 0.0000 -0.0059 -1.0000
vn -0.0649 -0.0030 -0.9979
vn 0.0000 -0.0031 -1.0000
vn -0.0577 -0.0007 -0.9983
vn 0.0000 -0.0008 -1.0000
vn 0.1023 -0.0077 -0.9947
vn 0.0855 -0.0057 -0.9963
vn 0.0649 -0.0030 -0.9979
vn 0.0577 -0.0007 -0.9983
usemtl feather_blue_003
s 1
f 18//1 10//2 3//3 6//4
f 11//5 18//1 6//4 4//6
f 5//7 1//8 7//9 15//10
f 15//10 7//9 8//11 16//12
f 16//12 8//11 9//13 17//14
f 17//14 9//13 10//2 18//1
f 2//15 5//7 15//10 14//16
f 14//16 15//10 16//12 13//17
f 13//17 16//12 17//14 12//18
f 12//18 17//14 18//1 11//5
