# Blender v2.79 (sub 0) OBJ File: 'budgie_base_mesh_BI.blend'
# www.blender.org
mtllib budgie_feather_flight_tertiary_064.mtl
o feather_flight_tertiary_064
v 0.176912 0.099166 0.035344
v 0.176412 0.096686 0.035383
v 0.190881 0.096731 0.035223
v 0.190199 0.093346 0.035276
v 0.175957 0.098079 0.035061
v 0.191316 0.094883 0.034935
v 0.179398 0.099352 0.035315
v 0.182572 0.099282 0.035281
v 0.185704 0.099008 0.035250
v 0.188743 0.098270 0.035227
v 0.187637 0.092784 0.035311
v 0.184557 0.093320 0.035338
v 0.181571 0.094319 0.035357
v 0.178626 0.095523 0.035374
v 0.179017 0.097442 0.035036
v 0.182076 0.096806 0.035011
v 0.185135 0.096169 0.034986
v 0.188194 0.095533 0.034961
vn 0.0032 -0.0154 -0.9998
vn 0.0258 0.1031 -0.9943
vn 0.0440 0.1187 -0.9919
vn 0.0154 -0.0187 -0.9997
vn -0.0234 -0.1332 -0.9908
vn -0.0130 -0.1541 -0.9879
vn -0.0346 -0.0068 -0.9994
vn 0.0051 0.1819 -0.9833
vn 0.0048 0.1483 -0.9889
vn -0.0289 -0.0086 -0.9995
vn 0.0051 0.1098 -0.9939
vn -0.0203 -0.0107 -0.9997
vn 0.0092 0.0953 -0.9954
vn -0.0132 -0.0123 -0.9998
vn -0.0731 -0.1958 -0.9779
vn -0.0602 -0.1654 -0.9844
vn -0.0449 -0.1312 -0.9903
vn -0.0354 -0.1198 -0.9922
usemtl feather_blue_001
s 1
f 18//1 10//2 3//3 6//4
f 11//5 18//1 6//4 4//6
f 5//7 1//8 7//9 15//10
f 15//10 7//9 8//11 16//12
f 16//12 8//11 9//13 17//14
f 17//14 9//13 10//2 18//1
f 2//15 5//7 15//10 14//16
f 14//16 15//10 16//12 13//17
f 13//17 16//12 17//14 12//18
f 12//18 17//14 18//1 11//5
