# Blender v2.79 (sub 0) OBJ File: 'budgie_base_mesh_BI.blend'
# www.blender.org
mtllib budgie_feather_flight_tertiary_049.mtl
o feather_flight_tertiary_049
v 0.106051 0.097588 0.035293
v 0.102971 0.097232 0.035283
v 0.108151 0.084445 0.035213
v 0.103947 0.083958 0.035199
v 0.104432 0.098082 0.034971
v 0.106134 0.083464 0.034879
v 0.107149 0.095448 0.035282
v 0.108192 0.092618 0.035266
v 0.108981 0.089758 0.035249
v 0.109195 0.086832 0.035231
v 0.102382 0.086044 0.035209
v 0.101918 0.088941 0.035227
v 0.102029 0.091905 0.035246
v 0.102394 0.094898 0.035267
v 0.104771 0.095171 0.034952
v 0.105110 0.092259 0.034934
v 0.105449 0.089347 0.034916
v 0.105788 0.086436 0.034898
vn 0.0042 -0.0094 -0.9999
vn 0.1057 0.0055 -0.9944
vn 0.1242 -0.0094 -0.9922
vn 0.0059 -0.0233 -0.9997
vn -0.0981 -0.0182 -0.9950
vn -0.1127 -0.0370 -0.9929
vn -0.0009 0.0336 -0.9994
vn 0.1635 0.0522 -0.9851
vn 0.1353 0.0413 -0.9899
vn -0.0001 0.0270 -0.9996
vn 0.1055 0.0289 -0.9940
vn 0.0011 0.0172 -0.9998
vn 0.0954 0.0199 -0.9952
vn 0.0020 0.0092 -0.9999
vn -0.1653 0.0140 -0.9861
vn -0.1353 0.0098 -0.9908
vn -0.1032 0.0046 -0.9946
vn -0.0913 -0.0018 -0.9958
usemtl feather_blue_001
s 1
f 18//1 10//2 3//3 6//4
f 11//5 18//1 6//4 4//6
f 5//7 1//8 7//9 15//10
f 15//10 7//9 8//11 16//12
f 16//12 8//11 9//13 17//14
f 17//14 9//13 10//2 18//1
f 2//15 5//7 15//10 14//16
f 14//16 15//10 16//12 13//17
f 13//17 16//12 17//14 12//18
f 12//18 17//14 18//1 11//5
