# Blender v2.79 (sub 0) OBJ File: 'budgie_base_mesh_BI.blend'
# www.blender.org
mtllib budgie_feather_flight_tertiary_042.mtl
o feather_flight_tertiary_042
v 0.073141 0.097600 0.035293
v 0.069937 0.097388 0.035293
v 0.074485 0.086184 0.035293
v 0.070113 0.085894 0.035293
v 0.071500 0.098080 0.034971
v 0.072342 0.085401 0.034971
v 0.074140 0.095718 0.035293
v 0.075040 0.093242 0.035293
v 0.075676 0.090747 0.035293
v 0.075713 0.088214 0.035293
v 0.068628 0.087743 0.035293
v 0.068330 0.090260 0.035293
v 0.068631 0.092816 0.035293
v 0.069195 0.095390 0.035293
v 0.071668 0.095554 0.034971
v 0.071835 0.093029 0.034971
v 0.072003 0.090504 0.034971
v 0.072171 0.087978 0.034971
vn 0.0012 -0.0185 -0.9998
vn 0.0993 -0.0078 -0.9950
vn 0.1172 -0.0269 -0.9927
vn 0.0023 -0.0347 -0.9994
vn -0.0974 -0.0208 -0.9950
vn -0.1126 -0.0421 -0.9927
vn -0.0021 0.0315 -0.9995
vn 0.1575 0.0417 -0.9866
vn 0.1289 0.0306 -0.9911
vn -0.0016 0.0239 -0.9997
vn 0.1002 0.0185 -0.9948
vn -0.0008 0.0125 -0.9999
vn 0.0903 0.0089 -0.9958
vn -0.0002 0.0031 -1.0000
vn -0.1617 0.0205 -0.9866
vn -0.1318 0.0133 -0.9911
vn -0.1017 0.0051 -0.9948
vn -0.0907 -0.0031 -0.9958
usemtl feather_blue_001
s 1
f 18//1 10//2 3//3 6//4
f 11//5 18//1 6//4 4//6
f 5//7 1//8 7//9 15//10
f 15//10 7//9 8//11 16//12
f 16//12 8//11 9//13 17//14
f 17//14 9//13 10//2 18//1
f 2//15 5//7 15//10 14//16
f 14//16 15//10 16//12 13//17
f 13//17 16//12 17//14 12//18
f 12//18 17//14 18//1 11//5
