# Blender v2.79 (sub 0) OBJ File: 'budgie_base_mesh_BI.blend'
# www.blender.org
mtllib budgie_feather_flight_primary_013.mtl
o feather_flight_primary_013
v 0.146200 0.098220 0.035749
v 0.141337 0.093356 0.035749
v 0.191944 0.054250 0.035749
v 0.185306 0.047613 0.035749
v 0.141476 0.098081 0.036071
v 0.191120 0.048436 0.036071
v 0.155118 0.091946 0.035749
v 0.166118 0.083169 0.035749
v 0.176716 0.073991 0.035749
v 0.186407 0.063905 0.035749
v 0.175651 0.053149 0.035749
v 0.165565 0.062840 0.035749
v 0.156387 0.073438 0.035749
v 0.147610 0.084438 0.035749
v 0.151364 0.088192 0.036071
v 0.161252 0.078304 0.036071
v 0.171141 0.068416 0.036071
v 0.181029 0.058527 0.036071
vn -0.0023 0.0023 -1.0000
vn -0.0355 -0.0312 -0.9989
vn -0.0426 -0.0338 -0.9985
vn -0.0045 0.0045 -1.0000
vn 0.0312 0.0355 -0.9989
vn 0.0338 0.0426 -0.9985
vn 0.0040 -0.0040 -1.0000
vn -0.0493 -0.0574 -0.9971
vn -0.0416 -0.0475 -0.9980
vn 0.0031 -0.0031 -1.0000
vn -0.0323 -0.0354 -0.9988
vn 0.0016 -0.0016 -1.0000
vn -0.0296 -0.0304 -0.9991
vn 0.0004 -0.0004 -1.0000
vn 0.0574 0.0493 -0.9971
vn 0.0475 0.0416 -0.9980
vn 0.0354 0.0323 -0.9988
vn 0.0304 0.0296 -0.9991
usemtl feather_blue_003
s 1
f 18//1 10//2 3//3 6//4
f 11//5 18//1 6//4 4//6
f 5//7 1//8 7//9 15//10
f 15//10 7//9 8//11 16//12
f 16//12 8//11 9//13 17//14
f 17//14 9//13 10//2 18//1
f 2//15 5//7 15//10 14//16
f 14//16 15//10 16//12 13//17
f 13//17 16//12 17//14 12//18
f 12//18 17//14 18//1 11//5
