# Blender v2.79 (sub 0) OBJ File: 'budgie_base_mesh_BI.blend'
# www.blender.org
mtllib budgie_feather_flight_tertiary_036.mtl
o feather_flight_tertiary_036
v 0.046269 0.097491 0.035293
v 0.042850 0.097432 0.035293
v 0.047104 0.085409 0.035293
v 0.042438 0.085327 0.035293
v 0.044549 0.098080 0.034971
v 0.044783 0.084695 0.034971
v 0.047234 0.095460 0.035293
v 0.048062 0.092807 0.035293
v 0.048608 0.090150 0.035293
v 0.048515 0.087482 0.035293
v 0.040955 0.087350 0.035293
v 0.040769 0.090013 0.035293
v 0.041222 0.092688 0.035293
v 0.041957 0.095368 0.035293
v 0.044595 0.095414 0.034971
v 0.044642 0.092748 0.034971
v 0.044689 0.090082 0.034971
v 0.044735 0.087416 0.034971
vn 0.0003 -0.0176 -0.9998
vn 0.0928 -0.0119 -0.9956
vn 0.1087 -0.0309 -0.9936
vn 0.0005 -0.0330 -0.9995
vn -0.0923 -0.0152 -0.9956
vn -0.1076 -0.0347 -0.9936
vn -0.0005 0.0300 -0.9995
vn 0.1499 0.0323 -0.9882
vn 0.1224 0.0230 -0.9922
vn -0.0004 0.0227 -0.9997
vn 0.0949 0.0129 -0.9954
vn -0.0002 0.0119 -0.9999
vn 0.0851 0.0042 -0.9963
vn -0.0000 0.0030 -1.0000
vn -0.1509 0.0270 -0.9882
vn -0.1231 0.0187 -0.9922
vn -0.0952 0.0096 -0.9954
vn -0.0852 0.0013 -0.9963
usemtl feather_blue_001
s 1
f 18//1 10//2 3//3 6//4
f 11//5 18//1 6//4 4//6
f 5//7 1//8 7//9 15//10
f 15//10 7//9 8//11 16//12
f 16//12 8//11 9//13 17//14
f 17//14 9//13 10//2 18//1
f 2//15 5//7 15//10 14//16
f 14//16 15//10 16//12 13//17
f 13//17 16//12 17//14 12//18
f 12//18 17//14 18//1 11//5
