# Blender v2.79 (sub 0) OBJ File: 'budgie_base_mesh_BI.blend'
# www.blender.org
mtllib budgie_feather_flight_primary_016.mtl
o feather_flight_primary_016
v 0.178540 0.100327 0.035749
v 0.177268 0.094346 0.035749
v 0.247632 0.086780 0.035749
v 0.245897 0.078619 0.035749
v 0.174385 0.098084 0.036071
v 0.250595 0.081885 0.036071
v 0.190546 0.099474 0.035749
v 0.206016 0.097614 0.035749
v 0.221381 0.095261 0.035749
v 0.236510 0.091791 0.035749
v 0.233698 0.078565 0.035749
v 0.218467 0.081548 0.035749
v 0.203472 0.085648 0.035749
v 0.188583 0.090242 0.035749
v 0.189564 0.094858 0.036071
v 0.204744 0.091631 0.036071
v 0.219924 0.088405 0.036071
v 0.235104 0.085178 0.036071
vn -0.0029 0.0006 -1.0000
vn -0.0138 -0.0514 -0.9986
vn -0.0182 -0.0583 -0.9981
vn -0.0056 0.0012 -1.0000
vn 0.0083 0.0526 -0.9986
vn 0.0071 0.0606 -0.9981
vn 0.0050 -0.0011 -1.0000
vn -0.0126 -0.0840 -0.9964
vn -0.0110 -0.0703 -0.9974
vn 0.0038 -0.0008 -1.0000
vn -0.0092 -0.0531 -0.9985
vn 0.0020 -0.0004 -1.0000
vn -0.0094 -0.0468 -0.9988
vn 0.0005 -0.0001 -1.0000
vn 0.0226 0.0819 -0.9964
vn 0.0185 0.0688 -0.9974
vn 0.0132 0.0522 -0.9985
vn 0.0104 0.0466 -0.9988
usemtl feather_blue_003
s 1
f 18//1 10//2 3//3 6//4
f 11//5 18//1 6//4 4//6
f 5//7 1//8 7//9 15//10
f 15//10 7//9 8//11 16//12
f 16//12 8//11 9//13 17//14
f 17//14 9//13 10//2 18//1
f 2//15 5//7 15//10 14//16
f 14//16 15//10 16//12 13//17
f 13//17 16//12 17//14 12//18
f 12//18 17//14 18//1 11//5
