# Blender v2.79 (sub 0) OBJ File: 'budgie_base_mesh_BI.blend'
# www.blender.org
mtllib budgie_feather_flight_tertiary_034.mtl
o feather_flight_tertiary_034
v 0.037832 0.097553 0.035293
v 0.034920 0.097553 0.035293
v 0.038363 0.087253 0.035293
v 0.034389 0.087253 0.035293
v 0.036376 0.098080 0.034971
v 0.036376 0.086680 0.034971
v 0.038624 0.095809 0.035293
v 0.039290 0.093538 0.035293
v 0.039715 0.091268 0.035293
v 0.039597 0.088997 0.035293
v 0.033155 0.088997 0.035293
v 0.033037 0.091268 0.035293
v 0.033462 0.093538 0.035293
v 0.034128 0.095809 0.035293
v 0.036376 0.095809 0.034971
v 0.036376 0.093538 0.034971
v 0.036376 0.091268 0.034971
v 0.036376 0.088997 0.034971
vn 0.0000 -0.0206 -0.9998
vn 0.1085 -0.0159 -0.9940
vn 0.1267 -0.0385 -0.9912
vn 0.0000 -0.0388 -0.9992
vn -0.1085 -0.0159 -0.9940
vn -0.1267 -0.0385 -0.9912
vn 0.0000 0.0352 -0.9994
vn 0.1758 0.0347 -0.9838
vn 0.1437 0.0244 -0.9893
vn 0.0000 0.0267 -0.9996
vn 0.1114 0.0132 -0.9937
vn 0.0000 0.0139 -0.9999
vn 0.0999 0.0032 -0.9950
vn 0.0000 0.0035 -1.0000
vn -0.1758 0.0347 -0.9838
vn -0.1437 0.0244 -0.9893
vn -0.1114 0.0132 -0.9937
vn -0.0999 0.0032 -0.9950
usemtl feather_blue_001
s 1
f 18//1 10//2 3//3 6//4
f 11//5 18//1 6//4 4//6
f 5//7 1//8 7//9 15//10
f 15//10 7//9 8//11 16//12
f 16//12 8//11 9//13 17//14
f 17//14 9//13 10//2 18//1
f 2//15 5//7 15//10 14//16
f 14//16 15//10 16//12 13//17
f 13//17 16//12 17//14 12//18
f 12//18 17//14 18//1 11//5
