# Blender v2.79 (sub 0) OBJ File: 'camel_base_mesh_BI.blend'
# www.blender.org
mtllib camel_eye.mtl
o eye
v 0.089589 1.825650 1.418792
v 0.085103 1.832601 1.417590
v 0.078389 1.837245 1.415791
v 0.070469 1.838876 1.413669
v 0.062549 1.837245 1.411546
v 0.055835 1.832601 1.409747
v 0.051349 1.825650 1.408545
v 0.090401 1.825026 1.415761
v 0.086603 1.831448 1.411990
v 0.080349 1.835738 1.408474
v 0.072591 1.837245 1.405749
v 0.064510 1.835738 1.404230
v 0.057336 1.831448 1.404147
v 0.052161 1.825026 1.405515
v 0.091089 1.823249 1.413192
v 0.087875 1.828164 1.407242
v 0.082011 1.831448 1.402271
v 0.074390 1.832601 1.399035
v 0.066172 1.831448 1.398027
v 0.058608 1.828164 1.399400
v 0.052850 1.823249 1.402945
v 0.049774 1.817451 1.408123
v 0.091549 1.820589 1.411475
v 0.088725 1.823249 1.404070
v 0.083122 1.825026 1.398126
v 0.075592 1.825650 1.394549
v 0.067282 1.825026 1.393882
v 0.059458 1.823249 1.396228
v 0.053310 1.820588 1.401229
v 0.091711 1.817451 1.410872
v 0.089024 1.817451 1.402956
v 0.083512 1.817451 1.396671
v 0.076014 1.817451 1.392973
v 0.067672 1.817451 1.392427
v 0.059756 1.817451 1.395114
v 0.053471 1.817451 1.400626
v 0.091549 1.814313 1.411475
v 0.088725 1.811653 1.404070
v 0.083122 1.809876 1.398126
v 0.075592 1.809252 1.394549
v 0.067282 1.809876 1.393882
v 0.059458 1.811653 1.396228
v 0.053310 1.814313 1.401229
v 0.091164 1.817451 1.419214
v 0.091089 1.811653 1.413192
v 0.087875 1.806738 1.407242
v 0.082011 1.803454 1.402271
v 0.074390 1.802301 1.399035
v 0.066172 1.803454 1.398027
v 0.058608 1.806738 1.399400
v 0.052850 1.811653 1.402945
v 0.090401 1.809876 1.415761
v 0.086603 1.803454 1.411990
v 0.080349 1.799163 1.408474
v 0.072591 1.797657 1.405749
v 0.064510 1.799163 1.404230
v 0.057336 1.803454 1.404147
v 0.052161 1.809876 1.405515
v 0.089589 1.809252 1.418792
v 0.085103 1.802301 1.417590
v 0.078389 1.797657 1.415791
v 0.070469 1.796026 1.413669
v 0.062549 1.797657 1.411546
v 0.055835 1.802301 1.409747
v 0.051349 1.809252 1.408545
v 0.088777 1.809876 1.421822
v 0.083602 1.803454 1.423190
v 0.076428 1.799163 1.423108
v 0.068347 1.797657 1.421588
v 0.060589 1.799163 1.418863
v 0.054335 1.803454 1.415347
v 0.050537 1.809876 1.411576
v 0.088088 1.811653 1.424392
v 0.082330 1.806738 1.427937
v 0.074766 1.803454 1.429310
v 0.066548 1.802301 1.428302
v 0.058927 1.803454 1.425066
v 0.053063 1.806738 1.420095
v 0.049849 1.811653 1.414145
v 0.087628 1.814313 1.426108
v 0.081480 1.811653 1.431109
v 0.073655 1.809876 1.433455
v 0.065346 1.809252 1.432788
v 0.057816 1.809876 1.429211
v 0.052213 1.811653 1.423267
v 0.049389 1.814313 1.415862
v 0.087467 1.817451 1.426711
v 0.081182 1.817451 1.432223
v 0.073265 1.817451 1.434910
v 0.064924 1.817451 1.434364
v 0.057426 1.817451 1.430666
v 0.051914 1.817451 1.424381
v 0.049227 1.817451 1.416465
v 0.087628 1.820589 1.426108
v 0.081480 1.823249 1.431109
v 0.073655 1.825026 1.433455
v 0.065346 1.825650 1.432788
v 0.057816 1.825026 1.429211
v 0.052213 1.823249 1.423267
v 0.049389 1.820588 1.415862
v 0.088088 1.823249 1.424392
v 0.082330 1.828164 1.427937
v 0.074766 1.831448 1.429310
v 0.066548 1.832601 1.428302
v 0.058927 1.831448 1.425066
v 0.053063 1.828164 1.420095
v 0.049849 1.823249 1.414145
v 0.088777 1.825026 1.421822
v 0.083602 1.831448 1.423190
v 0.076428 1.835738 1.423107
v 0.068347 1.837245 1.421588
v 0.060589 1.835738 1.418863
v 0.054335 1.831448 1.415347
v 0.050537 1.825026 1.411576
vn -0.8840 0.4031 -0.2369
vn -0.6715 0.7188 -0.1799
vn -0.6002 0.6641 -0.4456
vn -0.8440 0.3724 -0.3858
vn -0.3616 0.9273 -0.0969
vn -0.2698 0.8567 -0.4396
vn 0.0000 1.0000 0.0000
vn 0.0990 0.9239 -0.3696
vn 0.3616 0.9273 0.0969
vn 0.4534 0.8567 -0.2459
vn 0.6715 0.7188 0.1799
vn 0.7427 0.6641 -0.0858
vn 0.8840 0.4031 0.2369
vn 0.9239 0.3724 0.0878
vn -0.5399 0.5083 -0.6709
vn -0.8102 0.2850 -0.5122
vn -0.1919 0.6557 -0.7302
vn 0.1830 0.7071 -0.6830
vn 0.5313 0.6557 -0.5364
vn 0.8030 0.5083 -0.3110
vn 0.9577 0.2850 -0.0385
vn -0.4996 0.2751 -0.8214
vn -0.7876 0.1542 -0.5966
vn -0.1399 0.3548 -0.9244
vn 0.2391 0.3827 -0.8924
vn 0.5833 0.3548 -0.7306
vn 0.8433 0.2751 -0.4616
vn 0.9803 0.1542 -0.1228
vn -0.4854 0.0000 -0.8743
vn -0.7796 0.0000 -0.6262
vn -0.1216 0.0000 -0.9926
vn 0.2588 0.0000 -0.9659
vn 0.6016 0.0000 -0.7988
vn 0.8575 0.0000 -0.5144
vn 0.9883 0.0000 -0.1525
vn -0.4996 -0.2751 -0.8214
vn -0.7876 -0.1542 -0.5966
vn -0.1399 -0.3548 -0.9244
vn 0.2391 -0.3827 -0.8924
vn 0.5833 -0.3548 -0.7306
vn 0.8433 -0.2751 -0.4616
vn 0.9803 -0.1542 -0.1228
vn -0.5399 -0.5083 -0.6709
vn -0.8102 -0.2850 -0.5122
vn -0.1919 -0.6557 -0.7302
vn 0.1830 -0.7071 -0.6830
vn 0.5313 -0.6557 -0.5364
vn 0.8030 -0.5083 -0.3110
vn 0.9577 -0.2850 -0.0385
vn -0.6003 -0.6641 -0.4456
vn -0.8440 -0.3724 -0.3858
vn -0.2698 -0.8567 -0.4396
vn 0.0990 -0.9239 -0.3696
vn 0.4534 -0.8567 -0.2459
vn 0.7427 -0.6641 -0.0858
vn 0.9239 -0.3724 0.0878
vn -0.6715 -0.7188 -0.1799
vn -0.8840 -0.4031 -0.2369
vn -0.3616 -0.9273 -0.0969
vn 0.0000 -1.0000 0.0000
vn 0.3616 -0.9273 0.0969
vn 0.6715 -0.7188 0.1799
vn 0.8840 -0.4031 0.2369
vn -0.7427 -0.6641 0.0858
vn -0.9239 -0.3724 -0.0878
vn -0.4534 -0.8567 0.2459
vn -0.0990 -0.9239 0.3696
vn 0.2698 -0.8567 0.4396
vn 0.6002 -0.6641 0.4456
vn 0.8440 -0.3724 0.3859
vn -0.8030 -0.5083 0.3111
vn -0.9577 -0.2850 0.0385
vn -0.5313 -0.6557 0.5364
vn -0.1830 -0.7071 0.6830
vn 0.1919 -0.6557 0.7302
vn 0.5399 -0.5083 0.6709
vn 0.8102 -0.2850 0.5122
vn -0.8433 -0.2751 0.4616
vn -0.9803 -0.1542 0.1228
vn -0.5833 -0.3548 0.7306
vn -0.2391 -0.3827 0.8924
vn 0.1399 -0.3548 0.9244
vn 0.4996 -0.2751 0.8214
vn 0.7876 -0.1542 0.5966
vn -0.8575 0.0000 0.5144
vn -0.9883 0.0000 0.1525
vn -0.6016 0.0000 0.7988
vn -0.2588 0.0000 0.9659
vn 0.1216 0.0000 0.9926
vn 0.4854 0.0000 0.8743
vn 0.7796 0.0000 0.6262
vn -0.8433 0.2751 0.4616
vn -0.9803 0.1542 0.1228
vn -0.5833 0.3548 0.7306
vn -0.2391 0.3827 0.8924
vn 0.1399 0.3548 0.9244
vn 0.4996 0.2751 0.8214
vn 0.7876 0.1542 0.5965
vn -0.8030 0.5083 0.3110
vn -0.9577 0.2850 0.0385
vn -0.5313 0.6557 0.5364
vn -0.1830 0.7071 0.6830
vn 0.1919 0.6557 0.7302
vn 0.5399 0.5083 0.6709
vn 0.8102 0.2850 0.5122
vn -0.7427 0.6641 0.0858
vn -0.9239 0.3724 -0.0878
vn -0.4534 0.8567 0.2459
vn -0.0990 0.9239 0.3696
vn 0.2698 0.8567 0.4396
vn 0.6002 0.6641 0.4456
vn 0.8440 0.3724 0.3858
vn -0.9659 0.0000 -0.2588
vn 0.9659 0.0000 0.2588
usemtl eyes
s 1
f 7//1 6//2 13//3 14//4
f 6//2 5//5 12//6 13//3
f 5//5 4//7 11//8 12//6
f 4//7 3//9 10//10 11//8
f 3//9 2//11 9//12 10//10
f 2//11 1//13 8//14 9//12
f 14//4 13//3 20//15 21//16
f 13//3 12//6 19//17 20//15
f 12//6 11//8 18//18 19//17
f 11//8 10//10 17//19 18//18
f 10//10 9//12 16//20 17//19
f 9//12 8//14 15//21 16//20
f 21//16 20//15 28//22 29//23
f 20//15 19//17 27//24 28//22
f 19//17 18//18 26//25 27//24
f 18//18 17//19 25//26 26//25
f 17//19 16//20 24//27 25//26
f 16//20 15//21 23//28 24//27
f 29//23 28//22 35//29 36//30
f 28//22 27//24 34//31 35//29
f 27//24 26//25 33//32 34//31
f 26//25 25//26 32//33 33//32
f 25//26 24//27 31//34 32//33
f 24//27 23//28 30//35 31//34
f 36//30 35//29 42//36 43//37
f 35//29 34//31 41//38 42//36
f 34//31 33//32 40//39 41//38
f 33//32 32//33 39//40 40//39
f 32//33 31//34 38//41 39//40
f 31//34 30//35 37//42 38//41
f 43//37 42//36 50//43 51//44
f 42//36 41//38 49//45 50//43
f 41//38 40//39 48//46 49//45
f 40//39 39//40 47//47 48//46
f 39//40 38//41 46//48 47//47
f 38//41 37//42 45//49 46//48
f 51//44 50//43 57//50 58//51
f 50//43 49//45 56//52 57//50
f 49//45 48//46 55//53 56//52
f 48//46 47//47 54//54 55//53
f 47//47 46//48 53//55 54//54
f 46//48 45//49 52//56 53//55
f 58//51 57//50 64//57 65//58
f 57//50 56//52 63//59 64//57
f 56//52 55//53 62//60 63//59
f 55//53 54//54 61//61 62//60
f 54//54 53//55 60//62 61//61
f 53//55 52//56 59//63 60//62
f 65//58 64//57 71//64 72//65
f 64//57 63//59 70//66 71//64
f 63//59 62//60 69//67 70//66
f 62//60 61//61 68//68 69//67
f 61//61 60//62 67//69 68//68
f 60//62 59//63 66//70 67//69
f 72//65 71//64 78//71 79//72
f 71//64 70//66 77//73 78//71
f 70//66 69//67 76//74 77//73
f 69//67 68//68 75//75 76//74
f 68//68 67//69 74//76 75//75
f 67//69 66//70 73//77 74//76
f 79//72 78//71 85//78 86//79
f 78//71 77//73 84//80 85//78
f 77//73 76//74 83//81 84//80
f 76//74 75//75 82//82 83//81
f 75//75 74//76 81//83 82//82
f 74//76 73//77 80//84 81//83
f 86//79 85//78 92//85 93//86
f 85//78 84//80 91//87 92//85
f 84//80 83//81 90//88 91//87
f 83//81 82//82 89//89 90//88
f 82//82 81//83 88//90 89//89
f 81//83 80//84 87//91 88//90
f 93//86 92//85 99//92 100//93
f 92//85 91//87 98//94 99//92
f 91//87 90//88 97//95 98//94
f 90//88 89//89 96//96 97//95
f 89//89 88//90 95//97 96//96
f 88//90 87//91 94//98 95//97
f 100//93 99//92 106//99 107//100
f 99//92 98//94 105//101 106//99
f 98//94 97//95 104//102 105//101
f 97//95 96//96 103//103 104//102
f 96//96 95//97 102//104 103//103
f 95//97 94//98 101//105 102//104
f 107//100 106//99 113//106 114//107
f 106//99 105//101 112//108 113//106
f 105//101 104//102 111//109 112//108
f 104//102 103//103 110//110 111//109
f 103//103 102//104 109//111 110//110
f 102//104 101//105 108//112 109//111
f 22//113 7//1 14//4
f 1//13 44//114 8//14
f 22//113 14//4 21//16
f 8//14 44//114 15//21
f 22//113 21//16 29//23
f 15//21 44//114 23//28
f 22//113 29//23 36//30
f 23//28 44//114 30//35
f 22//113 36//30 43//37
f 30//35 44//114 37//42
f 22//113 43//37 51//44
f 37//42 44//114 45//49
f 22//113 51//44 58//51
f 45//49 44//114 52//56
f 22//113 58//51 65//58
f 52//56 44//114 59//63
f 22//113 65//58 72//65
f 59//63 44//114 66//70
f 22//113 72//65 79//72
f 66//70 44//114 73//77
f 22//113 79//72 86//79
f 73//77 44//114 80//84
f 22//113 86//79 93//86
f 80//84 44//114 87//91
f 22//113 93//86 100//93
f 87//91 44//114 94//98
f 22//113 100//93 107//100
f 94//98 44//114 101//105
f 22//113 107//100 114//107
f 101//105 44//114 108//112
f 22//113 114//107 7//1
f 114//107 113//106 6//2 7//1
f 113//106 112//108 5//5 6//2
f 112//108 111//109 4//7 5//5
f 111//109 110//110 3//9 4//7
f 110//110 109//111 2//11 3//9
f 109//111 108//112 1//13 2//11
f 108//112 44//114 1//13
