# Blender v2.79 (sub 0) OBJ File: 'canary_base_mesh_BI.blend'
# www.blender.org
mtllib canary_feather_flight_secondary_027.mtl
o feather_flight_secondary_027
v 0.063484 0.052377 0.016972
v 0.061222 0.051234 0.016964
v 0.070221 0.040097 0.016883
v 0.067134 0.038537 0.016871
v 0.062030 0.052442 0.016818
v 0.069029 0.038621 0.016717
v 0.065170 0.050573 0.016959
v 0.067081 0.048081 0.016941
v 0.068806 0.045495 0.016922
v 0.070108 0.042695 0.016902
v 0.065105 0.040168 0.016883
v 0.063619 0.042874 0.016903
v 0.062555 0.045794 0.016924
v 0.061678 0.048808 0.016946
v 0.063424 0.049689 0.016798
v 0.064818 0.046936 0.016778
v 0.066212 0.044183 0.016758
v 0.067607 0.041430 0.016738
vn 0.0033 0.0007 -1.0000
vn 0.0572 0.0292 -0.9979
vn 0.0691 0.0269 -0.9972
vn 0.0062 -0.0049 -0.9999
vn -0.0516 -0.0258 -0.9983
vn -0.0567 -0.0368 -0.9977
vn -0.0057 0.0184 -0.9998
vn 0.0821 0.0627 -0.9946
vn 0.0685 0.0520 -0.9963
vn -0.0043 0.0157 -0.9998
vn 0.0533 0.0396 -0.9978
vn -0.0022 0.0117 -0.9999
vn 0.0489 0.0334 -0.9982
vn -0.0005 0.0084 -0.9999
vn -0.0934 -0.0261 -0.9953
vn -0.0766 -0.0215 -0.9968
vn -0.0576 -0.0165 -0.9982
vn -0.0500 -0.0167 -0.9986
usemtl feather_yellow_002
s 1
f 18//1 10//2 3//3 6//4
f 11//5 18//1 6//4 4//6
f 5//7 1//8 7//9 15//10
f 15//10 7//9 8//11 16//12
f 16//12 8//11 9//13 17//14
f 17//14 9//13 10//2 18//1
f 2//15 5//7 15//10 14//16
f 14//16 15//10 16//12 13//17
f 13//17 16//12 17//14 12//18
f 12//18 17//14 18//1 11//5
