# Blender v2.79 (sub 0) OBJ File: 'canary_base_mesh_BI.blend'
# www.blender.org
mtllib canary_feather_flight_tertiary_029.mtl
o feather_flight_tertiary_029
v 0.080371 0.052792 0.017422
v 0.079701 0.051677 0.017403
v 0.086874 0.049109 0.017494
v 0.085961 0.047587 0.017467
v 0.079713 0.052435 0.017564
v 0.086776 0.048134 0.017639
v 0.081633 0.052437 0.017439
v 0.083193 0.051835 0.017459
v 0.084698 0.051141 0.017477
v 0.086077 0.050239 0.017491
v 0.084596 0.047773 0.017447
v 0.083162 0.048585 0.017431
v 0.081853 0.049604 0.017419
v 0.080599 0.050716 0.017409
v 0.081119 0.051578 0.017579
v 0.082526 0.050722 0.017594
v 0.083933 0.049865 0.017609
v 0.085340 0.049008 0.017624
vn 0.0036 0.0149 -0.9999
vn -0.0564 -0.0874 -0.9946
vn -0.0780 -0.0960 -0.9923
vn -0.0063 0.0218 -0.9997
vn 0.0670 0.1153 -0.9911
vn 0.0645 0.1377 -0.9883
vn 0.0350 -0.0050 -0.9994
vn -0.0639 -0.1667 -0.9839
vn -0.0525 -0.1359 -0.9893
vn 0.0305 -0.0015 -0.9995
vn -0.0399 -0.1001 -0.9941
vn 0.0234 0.0031 -0.9997
vn -0.0388 -0.0854 -0.9956
vn 0.0175 0.0068 -0.9998
vn 0.1329 0.1572 -0.9785
vn 0.1111 0.1334 -0.9848
vn 0.0858 0.1065 -0.9906
vn 0.0734 0.0990 -0.9924
usemtl feather_yellow_001
s 1
f 18//1 10//2 3//3 6//4
f 11//5 18//1 6//4 4//6
f 5//7 1//8 7//9 15//10
f 15//10 7//9 8//11 16//12
f 16//12 8//11 9//13 17//14
f 17//14 9//13 10//2 18//1
f 2//15 5//7 15//10 14//16
f 14//16 15//10 16//12 13//17
f 13//17 16//12 17//14 12//18
f 12//18 17//14 18//1 11//5
