# Blender v2.79 (sub 0) OBJ File: 'canary_base_mesh_BI.blend'
# www.blender.org
mtllib canary_feather_flight_primary_012.mtl
o feather_flight_primary_012
v 0.068353 0.052172 0.017018
v 0.065831 0.050340 0.017018
v 0.085711 0.029247 0.017018
v 0.082269 0.026747 0.017018
v 0.066228 0.052444 0.017173
v 0.084930 0.026703 0.017173
v 0.071900 0.048731 0.017018
v 0.076201 0.044023 0.017018
v 0.080295 0.039163 0.017018
v 0.083917 0.033962 0.017018
v 0.078340 0.029910 0.017018
v 0.074513 0.034962 0.017018
v 0.071156 0.040357 0.017018
v 0.068007 0.045903 0.017018
v 0.069953 0.047317 0.017173
v 0.073678 0.042190 0.017173
v 0.077404 0.037063 0.017173
v 0.081129 0.031936 0.017173
vn -0.0021 0.0029 -1.0000
vn -0.0424 -0.0268 -0.9987
vn -0.0503 -0.0283 -0.9983
vn -0.0039 0.0054 -1.0000
vn 0.0385 0.0320 -0.9987
vn 0.0425 0.0391 -0.9983
vn 0.0035 -0.0049 -1.0000
vn -0.0612 -0.0519 -0.9968
vn -0.0515 -0.0429 -0.9977
vn 0.0027 -0.0037 -1.0000
vn -0.0397 -0.0317 -0.9987
vn 0.0014 -0.0019 -1.0000
vn -0.0361 -0.0270 -0.9990
vn 0.0003 -0.0005 -1.0000
vn 0.0683 0.0421 -0.9968
vn 0.0567 0.0357 -0.9977
vn 0.0425 0.0279 -0.9987
vn 0.0368 0.0260 -0.9990
usemtl feather_yellow_003
s 1
f 18//1 10//2 3//3 6//4
f 11//5 18//1 6//4 4//6
f 5//7 1//8 7//9 15//10
f 15//10 7//9 8//11 16//12
f 16//12 8//11 9//13 17//14
f 17//14 9//13 10//2 18//1
f 2//15 5//7 15//10 14//16
f 14//16 15//10 16//12 13//17
f 13//17 16//12 17//14 12//18
f 12//18 17//14 18//1 11//5
