# Blender v2.79 (sub 0) OBJ File: 'canary_base_mesh_BI.blend'
# www.blender.org
mtllib canary_feather_flight_tertiary_039.mtl
o feather_flight_tertiary_039
v 0.031281 0.052175 0.016799
v 0.029635 0.052118 0.016799
v 0.031784 0.046360 0.016799
v 0.029539 0.046282 0.016799
v 0.030448 0.052444 0.016644
v 0.030673 0.045997 0.016644
v 0.031762 0.051205 0.016799
v 0.032183 0.049933 0.016799
v 0.032468 0.048657 0.016799
v 0.032446 0.047371 0.016799
v 0.028808 0.047244 0.016799
v 0.028696 0.048526 0.016799
v 0.028891 0.049818 0.016799
v 0.029223 0.051116 0.016799
v 0.030493 0.051160 0.016644
v 0.030537 0.049876 0.016644
v 0.030582 0.048592 0.016644
v 0.030627 0.047307 0.016644
vn 0.0006 -0.0175 -0.9998
vn 0.0928 -0.0103 -0.9956
vn 0.1091 -0.0290 -0.9936
vn 0.0011 -0.0329 -0.9995
vn -0.0919 -0.0167 -0.9956
vn -0.1068 -0.0365 -0.9936
vn -0.0010 0.0299 -0.9995
vn 0.1491 0.0348 -0.9882
vn 0.1218 0.0251 -0.9922
vn -0.0008 0.0227 -0.9997
vn 0.0945 0.0145 -0.9954
vn -0.0004 0.0118 -0.9999
vn 0.0849 0.0057 -0.9963
vn -0.0001 0.0030 -1.0000
vn -0.1512 0.0243 -0.9882
vn -0.1233 0.0165 -0.9922
vn -0.0952 0.0079 -0.9954
vn -0.0851 -0.0002 -0.9963
usemtl feather_yellow_001
s 1
f 18//1 10//2 3//3 6//4
f 11//5 18//1 6//4 4//6
f 5//7 1//8 7//9 15//10
f 15//10 7//9 8//11 16//12
f 16//12 8//11 9//13 17//14
f 17//14 9//13 10//2 18//1
f 2//15 5//7 15//10 14//16
f 14//16 15//10 16//12 13//17
f 13//17 16//12 17//14 12//18
f 12//18 17//14 18//1 11//5
