# Blender v2.79 (sub 0) OBJ File: 'canary_base_mesh_BI.blend'
# www.blender.org
mtllib canary_feather_flight_tertiary_032.mtl
o feather_flight_tertiary_032
v 0.087578 0.052967 0.017429
v 0.087338 0.051774 0.017410
v 0.094295 0.051796 0.017487
v 0.093967 0.050168 0.017462
v 0.087119 0.052444 0.017565
v 0.094504 0.050907 0.017625
v 0.088774 0.053056 0.017443
v 0.090300 0.053023 0.017459
v 0.091806 0.052891 0.017474
v 0.093267 0.052536 0.017485
v 0.092735 0.049898 0.017445
v 0.091254 0.050156 0.017432
v 0.089818 0.050636 0.017422
v 0.088402 0.051215 0.017414
v 0.088590 0.052138 0.017577
v 0.090061 0.051832 0.017589
v 0.091532 0.051526 0.017601
v 0.093003 0.051220 0.017613
vn -0.0032 0.0154 -0.9998
vn -0.0258 -0.1031 -0.9943
vn -0.0440 -0.1187 -0.9919
vn -0.0154 0.0187 -0.9997
vn 0.0234 0.1332 -0.9908
vn 0.0130 0.1541 -0.9879
vn 0.0346 0.0068 -0.9994
vn -0.0051 -0.1819 -0.9833
vn -0.0048 -0.1483 -0.9889
vn 0.0289 0.0086 -0.9995
vn -0.0051 -0.1099 -0.9939
vn 0.0203 0.0107 -0.9997
vn -0.0092 -0.0953 -0.9954
vn 0.0132 0.0123 -0.9998
vn 0.0731 0.1958 -0.9779
vn 0.0602 0.1654 -0.9844
vn 0.0449 0.1312 -0.9903
vn 0.0354 0.1198 -0.9922
usemtl feather_yellow_001
s 1
f 18//1 10//2 3//3 6//4
f 11//5 18//1 6//4 4//6
f 5//7 1//8 7//9 15//10
f 15//10 7//9 8//11 16//12
f 16//12 8//11 9//13 17//14
f 17//14 9//13 10//2 18//1
f 2//15 5//7 15//10 14//16
f 14//16 15//10 16//12 13//17
f 13//17 16//12 17//14 12//18
f 12//18 17//14 18//1 11//5
