# Blender v2.79 (sub 0) OBJ File: 'canary_base_mesh_BI.blend'
# www.blender.org
mtllib canary_feather_flight_primary_010.mtl
o feather_flight_primary_010
v 0.059837 0.051657 0.017018
v 0.057020 0.050576 0.017018
v 0.070322 0.025877 0.017018
v 0.066478 0.024401 0.017018
v 0.057919 0.052444 0.017173
v 0.068955 0.023694 0.017173
v 0.062291 0.047552 0.017018
v 0.065133 0.042073 0.017018
v 0.067742 0.036504 0.017018
v 0.069826 0.030734 0.017018
v 0.063597 0.028342 0.017018
v 0.061284 0.034025 0.017018
v 0.059497 0.039910 0.017018
v 0.057943 0.045883 0.017018
v 0.060117 0.046718 0.017173
v 0.062315 0.040991 0.017173
v 0.064513 0.035265 0.017173
v 0.066712 0.029538 0.017173
vn -0.0013 0.0034 -1.0000
vn -0.0494 -0.0154 -0.9987
vn -0.0577 -0.0148 -0.9982
vn -0.0025 0.0064 -1.0000
vn 0.0470 0.0216 -0.9987
vn 0.0528 0.0276 -0.9982
vn 0.0022 -0.0058 -1.0000
vn -0.0749 -0.0354 -0.9966
vn -0.0628 -0.0291 -0.9976
vn 0.0017 -0.0044 -1.0000
vn -0.0481 -0.0211 -0.9986
vn 0.0009 -0.0023 -1.0000
vn -0.0432 -0.0172 -0.9989
vn 0.0002 -0.0006 -1.0000
vn 0.0794 0.0238 -0.9966
vn 0.0661 0.0204 -0.9976
vn 0.0498 0.0165 -0.9986
vn 0.0437 0.0161 -0.9989
usemtl feather_yellow_003
s 1
f 18//1 10//2 3//3 6//4
f 11//5 18//1 6//4 4//6
f 5//7 1//8 7//9 15//10
f 15//10 7//9 8//11 16//12
f 16//12 8//11 9//13 17//14
f 17//14 9//13 10//2 18//1
f 2//15 5//7 15//10 14//16
f 14//16 15//10 16//12 13//17
f 13//17 16//12 17//14 12//18
f 12//18 17//14 18//1 11//5
