# Blender v2.79 (sub 0) OBJ File: 'canary_base_mesh_BI.blend'
# www.blender.org
mtllib canary_feather_flight_primary_004.mtl
o feather_flight_primary_004
v 0.032669 0.051297 0.017018
v 0.030235 0.051297 0.017018
v 0.033112 0.028851 0.017018
v 0.029791 0.028851 0.017018
v 0.031452 0.052444 0.017173
v 0.031452 0.027603 0.017173
v 0.033330 0.047496 0.017018
v 0.033886 0.042548 0.017018
v 0.034242 0.037600 0.017018
v 0.034143 0.032652 0.017018
v 0.028760 0.032652 0.017018
v 0.028662 0.037600 0.017018
v 0.029017 0.042548 0.017018
v 0.029573 0.047496 0.017018
v 0.031452 0.047496 0.017173
v 0.031452 0.042548 0.017173
v 0.031452 0.037600 0.017173
v 0.031452 0.032652 0.017173
vn 0.0000 0.0045 -1.0000
vn -0.0640 0.0042 -0.9979
vn -0.0733 0.0085 -0.9973
vn 0.0000 0.0085 -0.9999
vn 0.0640 0.0042 -0.9979
vn 0.0733 0.0085 -0.9973
vn 0.0000 -0.0078 -1.0000
vn -0.1023 -0.0077 -0.9947
vn -0.0855 -0.0057 -0.9963
vn 0.0000 -0.0059 -1.0000
vn -0.0649 -0.0030 -0.9979
vn 0.0000 -0.0031 -1.0000
vn -0.0577 -0.0007 -0.9983
vn 0.0000 -0.0008 -1.0000
vn 0.1023 -0.0077 -0.9947
vn 0.0855 -0.0057 -0.9963
vn 0.0649 -0.0030 -0.9979
vn 0.0577 -0.0007 -0.9983
usemtl feather_yellow_003
s 1
f 18//1 10//2 3//3 6//4
f 11//5 18//1 6//4 4//6
f 5//7 1//8 7//9 15//10
f 15//10 7//9 8//11 16//12
f 16//12 8//11 9//13 17//14
f 17//14 9//13 10//2 18//1
f 2//15 5//7 15//10 14//16
f 14//16 15//10 16//12 13//17
f 13//17 16//12 17//14 12//18
f 12//18 17//14 18//1 11//5
