# Blender v2.79 (sub 0) OBJ File: 'canary_base_mesh_BI.blend'
# www.blender.org
mtllib canary_feather_flight_secondary_030.mtl
o feather_flight_secondary_030
v 0.076680 0.052955 0.016953
v 0.075136 0.050873 0.016998
v 0.090824 0.043097 0.016996
v 0.088717 0.040257 0.017058
v 0.075201 0.052441 0.016817
v 0.090543 0.041111 0.016874
v 0.079447 0.051787 0.016949
v 0.082855 0.050006 0.016950
v 0.086137 0.048053 0.016955
v 0.089130 0.045712 0.016968
v 0.085716 0.041109 0.017068
v 0.082597 0.043281 0.017059
v 0.079767 0.045842 0.017041
v 0.077064 0.048574 0.017019
v 0.078257 0.050184 0.016829
v 0.081313 0.047927 0.016840
v 0.084369 0.045670 0.016851
v 0.087424 0.043414 0.016863
vn -0.0030 -0.0192 -0.9998
vn 0.0321 0.0295 -0.9990
vn 0.0423 0.0334 -0.9985
vn 0.0012 -0.0223 -0.9997
vn -0.0393 -0.0670 -0.9969
vn -0.0399 -0.0778 -0.9962
vn -0.0161 -0.0097 -0.9998
vn 0.0415 0.0683 -0.9968
vn 0.0339 0.0533 -0.9980
vn -0.0139 -0.0109 -0.9998
vn 0.0253 0.0359 -0.9990
vn -0.0110 -0.0132 -0.9998
vn 0.0237 0.0287 -0.9993
vn -0.0087 -0.0150 -0.9998
vn -0.0731 -0.0870 -0.9935
vn -0.0613 -0.0756 -0.9952
vn -0.0473 -0.0624 -0.9969
vn -0.0409 -0.0588 -0.9974
usemtl feather_yellow_002
s 1
f 18//1 10//2 3//3 6//4
f 11//5 18//1 6//4 4//6
f 5//7 1//8 7//9 15//10
f 15//10 7//9 8//11 16//12
f 16//12 8//11 9//13 17//14
f 17//14 9//13 10//2 18//1
f 2//15 5//7 15//10 14//16
f 14//16 15//10 16//12 13//17
f 13//17 16//12 17//14 12//18
f 12//18 17//14 18//1 11//5
