# Blender v2.79 (sub 0) OBJ File: 'canary_base_mesh_BI.blend'
# www.blender.org
mtllib canary_feather_flight_secondary_028.mtl
o feather_flight_secondary_028
v 0.067814 0.052592 0.016980
v 0.065541 0.051010 0.016960
v 0.077016 0.040283 0.016924
v 0.073914 0.038124 0.016896
v 0.066227 0.052443 0.016818
v 0.075953 0.038501 0.016752
v 0.069920 0.050888 0.016975
v 0.072377 0.048473 0.016967
v 0.074646 0.045927 0.016957
v 0.076491 0.043085 0.016943
v 0.071463 0.039587 0.016898
v 0.069434 0.042300 0.016910
v 0.067828 0.045308 0.016926
v 0.066411 0.048447 0.016944
v 0.068165 0.049666 0.016805
v 0.070102 0.046889 0.016792
v 0.072039 0.044112 0.016779
v 0.073976 0.041335 0.016765
vn 0.0075 0.0018 -1.0000
vn 0.0528 0.0346 -0.9980
vn 0.0638 0.0340 -0.9974
vn 0.0109 -0.0029 -0.9999
vn -0.0388 -0.0293 -0.9988
vn -0.0421 -0.0399 -0.9983
vn -0.0028 0.0166 -0.9998
vn 0.0710 0.0681 -0.9951
vn 0.0601 0.0566 -0.9966
vn -0.0012 0.0144 -0.9999
vn 0.0479 0.0435 -0.9979
vn 0.0012 0.0110 -0.9999
vn 0.0447 0.0372 -0.9983
vn 0.0031 0.0082 -0.9999
vn -0.0767 -0.0350 -0.9964
vn -0.0621 -0.0286 -0.9977
vn -0.0455 -0.0217 -0.9987
vn -0.0385 -0.0208 -0.9990
usemtl feather_yellow_002
s 1
f 18//1 10//2 3//3 6//4
f 11//5 18//1 6//4 4//6
f 5//7 1//8 7//9 15//10
f 15//10 7//9 8//11 16//12
f 16//12 8//11 9//13 17//14
f 17//14 9//13 10//2 18//1
f 2//15 5//7 15//10 14//16
f 14//16 15//10 16//12 13//17
f 13//17 16//12 17//14 12//18
f 12//18 17//14 18//1 11//5
