# Blender v2.79 (sub 0) OBJ File: 'canary_base_mesh_BI.blend'
# www.blender.org
mtllib canary_feather_flight_tertiary_045.mtl
o feather_flight_tertiary_045
v 0.044541 0.052177 0.016799
v 0.042878 0.052069 0.016798
v 0.045252 0.045914 0.016787
v 0.042982 0.045766 0.016785
v 0.043688 0.052444 0.016644
v 0.044140 0.045490 0.016631
v 0.045062 0.051143 0.016797
v 0.045532 0.049782 0.016795
v 0.045865 0.048413 0.016792
v 0.045887 0.047023 0.016789
v 0.042209 0.046785 0.016787
v 0.042051 0.048165 0.016789
v 0.042204 0.049566 0.016792
v 0.042494 0.050976 0.016795
v 0.043778 0.051059 0.016641
v 0.043868 0.049674 0.016639
v 0.043958 0.048289 0.016636
v 0.044048 0.046904 0.016633
vn 0.0016 -0.0143 -0.9999
vn 0.0927 -0.0048 -0.9957
vn 0.1091 -0.0214 -0.9938
vn 0.0026 -0.0285 -0.9996
vn -0.0899 -0.0167 -0.9958
vn -0.1040 -0.0352 -0.9939
vn -0.0012 0.0296 -0.9995
vn 0.1469 0.0389 -0.9884
vn 0.1205 0.0292 -0.9923
vn -0.0008 0.0229 -0.9997
vn 0.0936 0.0184 -0.9954
vn -0.0001 0.0129 -0.9999
vn 0.0843 0.0099 -0.9964
vn 0.0004 0.0047 -1.0000
vn -0.1493 0.0197 -0.9886
vn -0.1219 0.0134 -0.9924
vn -0.0938 0.0063 -0.9955
vn -0.0835 -0.0009 -0.9965
usemtl feather_yellow_001
s 1
f 18//1 10//2 3//3 6//4
f 11//5 18//1 6//4 4//6
f 5//7 1//8 7//9 15//10
f 15//10 7//9 8//11 16//12
f 16//12 8//11 9//13 17//14
f 17//14 9//13 10//2 18//1
f 2//15 5//7 15//10 14//16
f 14//16 15//10 16//12 13//17
f 13//17 16//12 17//14 12//18
f 12//18 17//14 18//1 11//5
