# Blender v2.79 (sub 0) OBJ File: 'canary_base_mesh_BI.blend'
# www.blender.org
mtllib canary_feather_flight_secondary_002.mtl
o feather_flight_secondary_002
v 0.023953 0.051848 0.017213
v 0.021844 0.051848 0.017213
v 0.024338 0.040175 0.017213
v 0.021459 0.040175 0.017213
v 0.022898 0.052444 0.017368
v 0.022898 0.039525 0.017368
v 0.024527 0.049871 0.017213
v 0.025009 0.047298 0.017213
v 0.025317 0.044725 0.017213
v 0.025231 0.042151 0.017213
v 0.020566 0.042151 0.017213
v 0.020480 0.044725 0.017213
v 0.020788 0.047298 0.017213
v 0.021270 0.049871 0.017213
v 0.022898 0.049871 0.017368
v 0.022898 0.047298 0.017368
v 0.022898 0.044725 0.017368
v 0.022898 0.042151 0.017368
vn 0.0000 0.0088 -0.9999
vn -0.0732 0.0074 -0.9973
vn -0.0845 0.0164 -0.9963
vn 0.0000 0.0164 -0.9998
vn 0.0732 0.0074 -0.9973
vn 0.0845 0.0164 -0.9963
vn 0.0000 -0.0150 -0.9999
vn -0.1178 -0.0148 -0.9929
vn -0.0975 -0.0107 -0.9952
vn 0.0000 -0.0113 -0.9999
vn -0.0746 -0.0057 -0.9972
vn 0.0000 -0.0059 -1.0000
vn -0.0665 -0.0014 -0.9978
vn 0.0000 -0.0015 -1.0000
vn 0.1178 -0.0148 -0.9929
vn 0.0975 -0.0107 -0.9952
vn 0.0746 -0.0057 -0.9972
vn 0.0665 -0.0014 -0.9978
usemtl feather_yellow_002
s 1
f 18//1 10//2 3//3 6//4
f 11//5 18//1 6//4 4//6
f 5//7 1//8 7//9 15//10
f 15//10 7//9 8//11 16//12
f 16//12 8//11 9//13 17//14
f 17//14 9//13 10//2 18//1
f 2//15 5//7 15//10 14//16
f 14//16 15//10 16//12 13//17
f 13//17 16//12 17//14 12//18
f 12//18 17//14 18//1 11//5
