# Blender v2.79 (sub 0) OBJ File: 'canary_base_mesh_BI.blend'
# www.blender.org
mtllib canary_feather_flight_tertiary_048.mtl
o feather_flight_tertiary_048
v 0.051264 0.052276 0.016799
v 0.049788 0.051971 0.016794
v 0.052844 0.046004 0.016760
v 0.050830 0.045589 0.016753
v 0.050458 0.052446 0.016644
v 0.051909 0.045443 0.016599
v 0.051887 0.051287 0.016794
v 0.052513 0.049962 0.016786
v 0.053018 0.048612 0.016778
v 0.053247 0.047205 0.016768
v 0.049983 0.046531 0.016758
v 0.049634 0.047913 0.016767
v 0.049561 0.049353 0.016776
v 0.049609 0.050817 0.016786
v 0.050747 0.051051 0.016635
v 0.051036 0.049656 0.016626
v 0.051325 0.048261 0.016617
v 0.051614 0.046867 0.016608
vn 0.0050 -0.0088 -0.9999
vn 0.1038 0.0148 -0.9945
vn 0.1233 0.0017 -0.9923
vn 0.0078 -0.0224 -0.9997
vn -0.0951 -0.0264 -0.9951
vn -0.1079 -0.0462 -0.9931
vn -0.0038 0.0332 -0.9994
vn 0.1567 0.0659 -0.9854
vn 0.1299 0.0526 -0.9901
vn -0.0024 0.0268 -0.9996
vn 0.1015 0.0378 -0.9941
vn -0.0004 0.0172 -0.9998
vn 0.0923 0.0280 -0.9953
vn 0.0012 0.0094 -0.9999
vn -0.1642 -0.0005 -0.9864
vn -0.1342 -0.0020 -0.9909
vn -0.1021 -0.0043 -0.9948
vn -0.0898 -0.0096 -0.9959
usemtl feather_yellow_001
s 1
f 18//1 10//2 3//3 6//4
f 11//5 18//1 6//4 4//6
f 5//7 1//8 7//9 15//10
f 15//10 7//9 8//11 16//12
f 16//12 8//11 9//13 17//14
f 17//14 9//13 10//2 18//1
f 2//15 5//7 15//10 14//16
f 14//16 15//10 16//12 13//17
f 13//17 16//12 17//14 12//18
f 12//18 17//14 18//1 11//5
