# Blender v2.79 (sub 0) OBJ File: 'canary_base_mesh_BI.blend'
# www.blender.org
mtllib canary_feather_flight_tertiary_016.mtl
o feather_flight_tertiary_016
v 0.051264 0.052276 0.017409
v 0.049788 0.051971 0.017414
v 0.052844 0.046004 0.017449
v 0.050830 0.045589 0.017455
v 0.050458 0.052446 0.017564
v 0.051909 0.045443 0.017609
v 0.051887 0.051287 0.017415
v 0.052513 0.049962 0.017422
v 0.053018 0.048612 0.017431
v 0.053247 0.047205 0.017440
v 0.049983 0.046531 0.017450
v 0.049634 0.047913 0.017442
v 0.049561 0.049353 0.017432
v 0.049609 0.050817 0.017422
v 0.050747 0.051051 0.017573
v 0.051036 0.049656 0.017582
v 0.051326 0.048261 0.017591
v 0.051614 0.046867 0.017600
vn -0.0050 0.0088 -0.9999
vn -0.1038 -0.0148 -0.9945
vn -0.1233 -0.0017 -0.9923
vn -0.0078 0.0224 -0.9997
vn 0.0951 0.0264 -0.9951
vn 0.1079 0.0462 -0.9931
vn 0.0038 -0.0332 -0.9994
vn -0.1567 -0.0659 -0.9854
vn -0.1299 -0.0526 -0.9901
vn 0.0024 -0.0268 -0.9996
vn -0.1015 -0.0378 -0.9941
vn 0.0004 -0.0172 -0.9998
vn -0.0923 -0.0280 -0.9953
vn -0.0012 -0.0094 -0.9999
vn 0.1642 0.0005 -0.9864
vn 0.1342 0.0020 -0.9909
vn 0.1021 0.0043 -0.9948
vn 0.0898 0.0096 -0.9959
usemtl feather_yellow_001
s 1
f 18//1 10//2 3//3 6//4
f 11//5 18//1 6//4 4//6
f 5//7 1//8 7//9 15//10
f 15//10 7//9 8//11 16//12
f 16//12 8//11 9//13 17//14
f 17//14 9//13 10//2 18//1
f 2//15 5//7 15//10 14//16
f 14//16 15//10 16//12 13//17
f 13//17 16//12 17//14 12//18
f 12//18 17//14 18//1 11//5
