# Blender v2.79 (sub 0) OBJ File: 'canary_base_mesh_BI.blend'
# www.blender.org
mtllib canary_feather_flight_secondary_032.mtl
o feather_flight_secondary_032
v 0.087669 0.053558 0.016943
v 0.087041 0.050877 0.016987
v 0.106444 0.049570 0.016780
v 0.105588 0.045913 0.016841
v 0.086404 0.052449 0.016817
v 0.107057 0.047496 0.016647
v 0.090999 0.053528 0.016905
v 0.095256 0.053154 0.016860
v 0.099462 0.052559 0.016820
v 0.103550 0.051463 0.016788
v 0.102162 0.045536 0.016886
v 0.098023 0.046414 0.016922
v 0.094001 0.047792 0.016949
v 0.090031 0.049391 0.016973
v 0.090518 0.051463 0.016783
v 0.094631 0.050476 0.016749
v 0.098745 0.049489 0.016715
v 0.102859 0.048503 0.016681
vn -0.0063 -0.0149 -0.9998
vn 0.0063 0.0403 -0.9991
vn 0.0135 0.0474 -0.9988
vn -0.0018 -0.0163 -0.9998
vn -0.0201 -0.0699 -0.9973
vn -0.0169 -0.0793 -0.9967
vn -0.0204 -0.0113 -0.9997
vn 0.0008 0.0770 -0.9970
vn -0.0003 0.0615 -0.9981
vn -0.0183 -0.0121 -0.9998
vn -0.0015 0.0432 -0.9991
vn -0.0150 -0.0129 -0.9998
vn -0.0004 0.0363 -0.9993
vn -0.0124 -0.0135 -0.9998
vn -0.0415 -0.0998 -0.9941
vn -0.0355 -0.0855 -0.9957
vn -0.0284 -0.0689 -0.9972
vn -0.0243 -0.0634 -0.9977
usemtl feather_yellow_002
s 1
f 18//1 10//2 3//3 6//4
f 11//5 18//1 6//4 4//6
f 5//7 1//8 7//9 15//10
f 15//10 7//9 8//11 16//12
f 16//12 8//11 9//13 17//14
f 17//14 9//13 10//2 18//1
f 2//15 5//7 15//10 14//16
f 14//16 15//10 16//12 13//17
f 13//17 16//12 17//14 12//18
f 12//18 17//14 18//1 11//5
