# Blender v2.79 (sub 0) OBJ File: 'canary_base_mesh_BI.blend'
# www.blender.org
mtllib canary_feather_flight_tertiary_040.mtl
o feather_flight_tertiary_040
v 0.033145 0.052221 0.016799
v 0.031619 0.052114 0.016799
v 0.033802 0.046818 0.016799
v 0.031720 0.046672 0.016799
v 0.032363 0.052444 0.016644
v 0.032782 0.046443 0.016644
v 0.033624 0.051331 0.016799
v 0.034056 0.050160 0.016799
v 0.034362 0.048981 0.016799
v 0.034384 0.047781 0.016799
v 0.031010 0.047545 0.016799
v 0.030864 0.048736 0.016799
v 0.031003 0.049947 0.016799
v 0.031268 0.051167 0.016799
v 0.032446 0.051249 0.016644
v 0.032530 0.050054 0.016644
v 0.032613 0.048858 0.016644
v 0.032697 0.047663 0.016644
vn 0.0013 -0.0188 -0.9998
vn 0.1002 -0.0075 -0.9949
vn 0.1184 -0.0269 -0.9926
vn 0.0024 -0.0352 -0.9994
vn -0.0982 -0.0214 -0.9949
vn -0.1134 -0.0431 -0.9926
vn -0.0022 0.0320 -0.9995
vn 0.1588 0.0428 -0.9864
vn 0.1299 0.0315 -0.9910
vn -0.0017 0.0243 -0.9997
vn 0.1010 0.0191 -0.9947
vn -0.0009 0.0127 -0.9999
vn 0.0911 0.0093 -0.9958
vn -0.0002 0.0032 -1.0000
vn -0.1632 0.0203 -0.9864
vn -0.1331 0.0131 -0.9910
vn -0.1027 0.0049 -0.9947
vn -0.0915 -0.0034 -0.9958
usemtl feather_yellow_001
s 1
f 18//1 10//2 3//3 6//4
f 11//5 18//1 6//4 4//6
f 5//7 1//8 7//9 15//10
f 15//10 7//9 8//11 16//12
f 16//12 8//11 9//13 17//14
f 17//14 9//13 10//2 18//1
f 2//15 5//7 15//10 14//16
f 14//16 15//10 16//12 13//17
f 13//17 16//12 17//14 12//18
f 12//18 17//14 18//1 11//5
