# Blender v2.79 (sub 0) OBJ File: 'canary_base_mesh_BI.blend'
# www.blender.org
mtllib canary_feather_flight_tertiary_025.mtl
o feather_flight_tertiary_025
v 0.070281 0.052485 0.017412
v 0.069191 0.051803 0.017406
v 0.074161 0.046732 0.017414
v 0.072674 0.045800 0.017406
v 0.069549 0.052445 0.017564
v 0.073623 0.045939 0.017565
v 0.071200 0.051675 0.017414
v 0.072261 0.050536 0.017416
v 0.073232 0.049339 0.017417
v 0.073999 0.048016 0.017417
v 0.071589 0.046507 0.017403
v 0.070733 0.047775 0.017403
v 0.070081 0.049170 0.017403
v 0.069518 0.050622 0.017405
v 0.070360 0.051149 0.017564
v 0.071172 0.049853 0.017564
v 0.071983 0.048557 0.017564
v 0.072795 0.047262 0.017565
vn -0.0038 0.0148 -0.9999
vn -0.1039 -0.0505 -0.9933
vn -0.1275 -0.0476 -0.9907
vn -0.0107 0.0258 -0.9996
vn 0.0986 0.0763 -0.9922
vn 0.1062 0.0987 -0.9894
vn 0.0173 -0.0190 -0.9997
vn -0.1451 -0.1202 -0.9821
vn -0.1209 -0.0971 -0.9879
vn 0.0140 -0.0139 -0.9998
vn -0.0942 -0.0705 -0.9930
vn 0.0093 -0.0061 -0.9999
vn -0.0869 -0.0574 -0.9945
vn 0.0053 0.0002 -1.0000
vn 0.1787 0.0827 -0.9804
vn 0.1477 0.0712 -0.9864
vn 0.1123 0.0589 -0.9919
vn 0.0974 0.0580 -0.9935
usemtl feather_yellow_001
s 1
f 18//1 10//2 3//3 6//4
f 11//5 18//1 6//4 4//6
f 5//7 1//8 7//9 15//10
f 15//10 7//9 8//11 16//12
f 16//12 8//11 9//13 17//14
f 17//14 9//13 10//2 18//1
f 2//15 5//7 15//10 14//16
f 14//16 15//10 16//12 13//17
f 13//17 16//12 17//14 12//18
f 12//18 17//14 18//1 11//5
