# Blender v2.79 (sub 0) OBJ File: 'canary_base_mesh_BI.blend'
# www.blender.org
mtllib canary_feather_flight_tertiary_020.mtl
o feather_flight_tertiary_020
v 0.060075 0.052354 0.017409
v 0.058431 0.051934 0.017409
v 0.061877 0.046551 0.017409
v 0.059633 0.045978 0.017409
v 0.059177 0.052444 0.017564
v 0.060838 0.045938 0.017564
v 0.060777 0.051473 0.017409
v 0.061483 0.050272 0.017409
v 0.062054 0.049038 0.017409
v 0.062319 0.047725 0.017409
v 0.058683 0.046796 0.017409
v 0.058285 0.048075 0.017409
v 0.058194 0.049432 0.017409
v 0.058239 0.050824 0.017409
v 0.059508 0.051148 0.017564
v 0.059839 0.049852 0.017564
v 0.060170 0.048556 0.017564
v 0.060501 0.047260 0.017564
vn -0.0042 0.0163 -0.9998
vn -0.0902 -0.0096 -0.9959
vn -0.1094 0.0045 -0.9940
vn -0.0078 0.0307 -0.9995
vn 0.0837 0.0348 -0.9959
vn 0.0938 0.0565 -0.9940
vn 0.0071 -0.0279 -0.9996
vn -0.1343 -0.0637 -0.9889
vn -0.1104 -0.0489 -0.9927
vn 0.0054 -0.0211 -0.9998
vn -0.0866 -0.0333 -0.9957
vn 0.0028 -0.0110 -0.9999
vn -0.0793 -0.0230 -0.9966
vn 0.0007 -0.0028 -1.0000
vn 0.1484 0.0085 -0.9889
vn 0.1203 0.0100 -0.9927
vn 0.0920 0.0123 -0.9957
vn 0.0807 0.0179 -0.9966
usemtl feather_yellow_001
s 1
f 18//1 10//2 3//3 6//4
f 11//5 18//1 6//4 4//6
f 5//7 1//8 7//9 15//10
f 15//10 7//9 8//11 16//12
f 16//12 8//11 9//13 17//14
f 17//14 9//13 10//2 18//1
f 2//15 5//7 15//10 14//16
f 14//16 15//10 16//12 13//17
f 13//17 16//12 17//14 12//18
f 12//18 17//14 18//1 11//5
