# Blender v2.79 (sub 0) OBJ File: 'canary_base_mesh_BI.blend'
# www.blender.org
mtllib canary_feather_flight_primary_006.mtl
o feather_flight_primary_006
v 0.041905 0.051308 0.017018
v 0.039352 0.051174 0.017018
v 0.043605 0.027784 0.017018
v 0.040121 0.027601 0.017018
v 0.040566 0.052444 0.017173
v 0.041932 0.026383 0.017173
v 0.042809 0.047357 0.017018
v 0.043664 0.042196 0.017018
v 0.044309 0.037025 0.017018
v 0.044477 0.031828 0.017018
v 0.038831 0.031532 0.017018
v 0.038455 0.036718 0.017018
v 0.038556 0.041928 0.017018
v 0.038867 0.047150 0.017018
v 0.040838 0.047253 0.017173
v 0.041110 0.042062 0.017173
v 0.041382 0.036871 0.017173
v 0.041654 0.031680 0.017173
vn -0.0002 0.0043 -1.0000
vn -0.0611 0.0008 -0.9981
vn -0.0702 0.0045 -0.9975
vn -0.0004 0.0081 -0.9999
vn 0.0606 0.0071 -0.9981
vn 0.0693 0.0117 -0.9975
vn 0.0004 -0.0074 -1.0000
vn -0.0969 -0.0125 -0.9952
vn -0.0810 -0.0097 -0.9966
vn 0.0003 -0.0056 -1.0000
vn -0.0616 -0.0061 -0.9981
vn 0.0002 -0.0029 -1.0000
vn -0.0548 -0.0036 -0.9985
vn 0.0000 -0.0007 -1.0000
vn 0.0977 -0.0023 -0.9952
vn 0.0816 -0.0012 -0.9966
vn 0.0619 0.0004 -0.9981
vn 0.0549 0.0021 -0.9985
usemtl feather_yellow_003
s 1
f 18//1 10//2 3//3 6//4
f 11//5 18//1 6//4 4//6
f 5//7 1//8 7//9 15//10
f 15//10 7//9 8//11 16//12
f 16//12 8//11 9//13 17//14
f 17//14 9//13 10//2 18//1
f 2//15 5//7 15//10 14//16
f 14//16 15//10 16//12 13//17
f 13//17 16//12 17//14 12//18
f 12//18 17//14 18//1 11//5
