# Blender v2.79 (sub 0) OBJ File: 'canary_base_mesh_BI.blend'
# www.blender.org
mtllib canary_feather_tail_secondary_003.mtl
o feather_tail_secondary_003
v 0.003211 0.026297 -0.044836
v 0.000839 0.026297 -0.045417
v 0.001742 0.026550 -0.043971
v 0.004682 0.026297 -0.048533
v 0.006303 0.026297 -0.053418
v 0.002064 0.026297 -0.054457
v 0.001243 0.026297 -0.049376
v 0.002963 0.026550 -0.048954
v 0.004184 0.026550 -0.053938
v 0.010079 0.026297 -0.069003
v 0.009311 0.026297 -0.064683
v 0.007858 0.026297 -0.059038
v 0.003283 0.026297 -0.060159
v 0.004603 0.026297 -0.065837
v 0.005920 0.026297 -0.070022
v 0.008344 0.026550 -0.070921
v 0.006957 0.026550 -0.065260
v 0.005571 0.026550 -0.059599
vn -0.0025 0.9999 0.0102
vn 0.1631 0.9853 0.0506
vn 0.1411 0.9891 0.0423
vn -0.0018 1.0000 0.0075
vn 0.1142 0.9930 0.0314
vn -0.0008 1.0000 0.0033
vn -0.1680 0.9853 -0.0305
vn -0.1447 0.9891 -0.0277
vn -0.1158 0.9930 -0.0250
vn 0.1045 0.9941 0.0267
vn -0.0002 1.0000 0.0011
vn 0.1052 0.9941 0.0245
vn 0.0003 1.0000 -0.0012
vn 0.1085 0.9938 0.0234
vn 0.0007 1.0000 -0.0030
vn -0.1050 0.9941 -0.0246
vn -0.1046 0.9941 -0.0269
vn -0.1070 0.9938 -0.0294
usemtl feather_yellow_001
s 1
f 3//1 1//2 4//3 8//4
f 8//4 4//3 5//5 9//6
f 2//7 3//1 8//4 7//8
f 7//8 8//4 9//6 6//9
f 9//6 5//5 12//10 18//11
f 18//11 12//10 11//12 17//13
f 17//13 11//12 10//14 16//15
f 6//9 9//6 18//11 13//16
f 13//16 18//11 17//13 14//17
f 14//17 17//13 16//15 15//18
