# Blender v2.79 (sub 0) OBJ File: 'canary_base_mesh_BI.blend'
# www.blender.org
mtllib canary_feather_flight_secondary_017.mtl
o feather_flight_secondary_017
v 0.020003 0.051892 0.016973
v 0.018049 0.051892 0.016973
v 0.020360 0.041074 0.016973
v 0.017692 0.041074 0.016973
v 0.019026 0.052444 0.016818
v 0.019026 0.040472 0.016818
v 0.020535 0.050060 0.016973
v 0.020982 0.047675 0.016973
v 0.021267 0.045291 0.016973
v 0.021188 0.042906 0.016973
v 0.016864 0.042906 0.016973
v 0.016785 0.045291 0.016973
v 0.017070 0.047675 0.016973
v 0.017517 0.050060 0.016973
v 0.019026 0.050060 0.016818
v 0.019026 0.047675 0.016818
v 0.019026 0.045291 0.016818
v 0.019026 0.042906 0.016818
vn 0.0000 -0.0095 -0.9999
vn 0.0789 -0.0081 -0.9968
vn 0.0912 -0.0177 -0.9957
vn 0.0000 -0.0178 -0.9998
vn -0.0789 -0.0081 -0.9968
vn -0.0912 -0.0177 -0.9957
vn 0.0000 0.0161 -0.9998
vn 0.1270 0.0160 -0.9918
vn 0.1051 0.0116 -0.9944
vn 0.0000 0.0122 -0.9999
vn 0.0805 0.0062 -0.9967
vn 0.0000 0.0064 -1.0000
vn 0.0718 0.0015 -0.9974
vn 0.0000 0.0016 -1.0000
vn -0.1270 0.0160 -0.9918
vn -0.1051 0.0116 -0.9944
vn -0.0805 0.0062 -0.9967
vn -0.0718 0.0015 -0.9974
usemtl feather_yellow_002
s 1
f 18//1 10//2 3//3 6//4
f 11//5 18//1 6//4 4//6
f 5//7 1//8 7//9 15//10
f 15//10 7//9 8//11 16//12
f 16//12 8//11 9//13 17//14
f 17//14 9//13 10//2 18//1
f 2//15 5//7 15//10 14//16
f 14//16 15//10 16//12 13//17
f 13//17 16//12 17//14 12//18
f 12//18 17//14 18//1 11//5
