# Blender v2.79 (sub 0) OBJ File: 'canary_base_mesh_BI.blend'
# www.blender.org
mtllib canary_feather_flight_primary_002.mtl
o feather_flight_primary_002
v 0.023969 0.051435 0.017018
v 0.021827 0.051435 0.017018
v 0.024360 0.031681 0.017018
v 0.021437 0.031681 0.017018
v 0.022898 0.052444 0.017173
v 0.022898 0.030582 0.017173
v 0.024552 0.048090 0.017018
v 0.025041 0.043735 0.017018
v 0.025354 0.039381 0.017018
v 0.025267 0.035026 0.017018
v 0.020530 0.035026 0.017018
v 0.020443 0.039381 0.017018
v 0.020756 0.043735 0.017018
v 0.021245 0.048090 0.017018
v 0.022898 0.048090 0.017173
v 0.022898 0.043735 0.017173
v 0.022898 0.039381 0.017173
v 0.022898 0.035026 0.017173
vn 0.0000 0.0052 -1.0000
vn -0.0727 0.0047 -0.9973
vn -0.0833 0.0097 -0.9965
vn 0.0000 0.0097 -0.9999
vn 0.0727 0.0047 -0.9973
vn 0.0833 0.0097 -0.9965
vn 0.0000 -0.0088 -0.9999
vn -0.1161 -0.0088 -0.9932
vn -0.0971 -0.0065 -0.9952
vn 0.0000 -0.0067 -1.0000
vn -0.0738 -0.0034 -0.9973
vn 0.0000 -0.0035 -1.0000
vn -0.0656 -0.0009 -0.9978
vn 0.0000 -0.0009 -1.0000
vn 0.1161 -0.0088 -0.9932
vn 0.0971 -0.0065 -0.9952
vn 0.0738 -0.0034 -0.9973
vn 0.0656 -0.0009 -0.9978
usemtl feather_yellow_003
s 1
f 18//1 10//2 3//3 6//4
f 11//5 18//1 6//4 4//6
f 5//7 1//8 7//9 15//10
f 15//10 7//9 8//11 16//12
f 16//12 8//11 9//13 17//14
f 17//14 9//13 10//2 18//1
f 2//15 5//7 15//10 14//16
f 14//16 15//10 16//12 13//17
f 13//17 16//12 17//14 12//18
f 12//18 17//14 18//1 11//5
