# Blender v2.79 (sub 0) OBJ File: 'canary_base_mesh_BI.blend'
# www.blender.org
mtllib canary_feather_flight_secondary_009.mtl
o feather_flight_secondary_009
v 0.054997 0.052068 0.017214
v 0.052476 0.051395 0.017216
v 0.059181 0.038244 0.017241
v 0.055741 0.037326 0.017244
v 0.053546 0.052444 0.017368
v 0.057668 0.037009 0.017399
v 0.056313 0.049890 0.017218
v 0.057710 0.046969 0.017224
v 0.058899 0.043993 0.017230
v 0.059618 0.040891 0.017236
v 0.054042 0.039402 0.017240
v 0.053119 0.042450 0.017234
v 0.052666 0.045622 0.017228
v 0.052421 0.048851 0.017221
v 0.054367 0.049370 0.017374
v 0.055188 0.046295 0.017380
v 0.056009 0.043221 0.017387
v 0.056830 0.040146 0.017393
vn -0.0020 0.0048 -1.0000
vn -0.0590 -0.0115 -0.9982
vn -0.0698 -0.0069 -0.9975
vn -0.0036 0.0108 -0.9999
vn 0.0554 0.0190 -0.9983
vn 0.0625 0.0284 -0.9976
vn 0.0029 -0.0137 -0.9999
vn -0.0894 -0.0383 -0.9952
vn -0.0742 -0.0308 -0.9967
vn 0.0021 -0.0109 -0.9999
vn -0.0573 -0.0221 -0.9981
vn 0.0010 -0.0067 -1.0000
vn -0.0519 -0.0171 -0.9985
vn 0.0001 -0.0032 -1.0000
vn 0.0952 0.0109 -0.9954
vn 0.0783 0.0099 -0.9969
vn 0.0593 0.0090 -0.9982
vn 0.0521 0.0107 -0.9986
usemtl feather_yellow_002
s 1
f 18//1 10//2 3//3 6//4
f 11//5 18//1 6//4 4//6
f 5//7 1//8 7//9 15//10
f 15//10 7//9 8//11 16//12
f 16//12 8//11 9//13 17//14
f 17//14 9//13 10//2 18//1
f 2//15 5//7 15//10 14//16
f 14//16 15//10 16//12 13//17
f 13//17 16//12 17//14 12//18
f 12//18 17//14 18//1 11//5
