# Blender v2.79 (sub 0) OBJ File: 'canary_base_mesh_BI.blend'
# www.blender.org
mtllib canary_feather_tail_secondary_001.mtl
o feather_tail_secondary_001
v 0.003048 0.026398 -0.044133
v 0.000993 0.026398 -0.045214
v 0.001492 0.026580 -0.043670
v 0.005259 0.026398 -0.047213
v 0.007883 0.026398 -0.051359
v 0.004214 0.026398 -0.053291
v 0.002281 0.026398 -0.048781
v 0.003770 0.026580 -0.047997
v 0.006049 0.026580 -0.052325
v 0.014969 0.026398 -0.064902
v 0.013263 0.026398 -0.061084
v 0.010618 0.026398 -0.056198
v 0.006656 0.026398 -0.058284
v 0.009187 0.026398 -0.063230
v 0.011369 0.026398 -0.066797
v 0.013813 0.026580 -0.067073
v 0.011225 0.026580 -0.062157
v 0.008637 0.026580 -0.057241
vn -0.0037 0.9999 0.0070
vn 0.1113 0.9915 0.0674
vn 0.0964 0.9937 0.0572
vn -0.0027 1.0000 0.0052
vn 0.0785 0.9959 0.0441
vn -0.0012 1.0000 0.0023
vn -0.1186 0.9915 -0.0536
vn -0.1017 0.9937 -0.0471
vn -0.0808 0.9959 -0.0397
vn 0.0721 0.9966 0.0389
vn -0.0004 1.0000 0.0007
vn 0.0730 0.9966 0.0374
vn 0.0004 1.0000 -0.0008
vn 0.0757 0.9964 0.0372
vn 0.0011 1.0000 -0.0020
vn -0.0728 0.9966 -0.0374
vn -0.0721 0.9966 -0.0390
vn -0.0735 0.9964 -0.0413
usemtl feather_yellow_001
s 1
f 3//1 1//2 4//3 8//4
f 8//4 4//3 5//5 9//6
f 2//7 3//1 8//4 7//8
f 7//8 8//4 9//6 6//9
f 9//6 5//5 12//10 18//11
f 18//11 12//10 11//12 17//13
f 17//13 11//12 10//14 16//15
f 6//9 9//6 18//11 13//16
f 13//16 18//11 17//13 14//17
f 14//17 17//13 16//15 15//18
