# Blender v2.79 (sub 0) OBJ File: 'canary_base_mesh_BI.blend'
# www.blender.org
mtllib canary_feather_tail_secondary_009.mtl
o feather_tail_secondary_009
v -0.000739 0.026202 -0.045883
v 0.001624 0.026202 -0.045547
v 0.000277 0.025949 -0.044553
v -0.000722 0.026202 -0.049809
v -0.000406 0.026202 -0.054879
v 0.003813 0.026202 -0.054278
v 0.002702 0.026202 -0.049322
v 0.000990 0.025949 -0.049566
v 0.001704 0.025949 -0.054578
v 0.001863 0.026202 -0.070541
v 0.000981 0.026202 -0.066302
v 0.000237 0.026202 -0.060598
v 0.004792 0.026202 -0.059949
v 0.005668 0.026202 -0.065635
v 0.006003 0.026202 -0.069952
v 0.004135 0.025949 -0.071664
v 0.003324 0.025949 -0.065969
v 0.002514 0.025949 -0.060274
vn -0.0015 -0.9999 0.0105
vn -0.1741 -0.9846 -0.0142
vn -0.1501 -0.9886 -0.0137
vn -0.0011 -0.9999 0.0078
vn -0.1205 -0.9926 -0.0138
vn -0.0005 -1.0000 0.0034
vn 0.1712 -0.9846 0.0349
vn 0.1480 -0.9886 0.0287
vn 0.1195 -0.9926 0.0204
vn -0.1094 -0.9939 -0.0144
vn -0.0002 -1.0000 0.0011
vn -0.1093 -0.9939 -0.0168
vn 0.0002 -1.0000 -0.0012
vn -0.1120 -0.9935 -0.0191
vn 0.0004 -1.0000 -0.0031
vn 0.1091 -0.9939 0.0167
vn 0.1096 -0.9939 0.0143
vn 0.1129 -0.9935 0.0129
usemtl feather_yellow_001
s 1
f 3//1 1//2 4//3 8//4
f 8//4 4//3 5//5 9//6
f 2//7 3//1 8//4 7//8
f 7//8 8//4 9//6 6//9
f 9//6 5//5 12//10 18//11
f 18//11 12//10 11//12 17//13
f 17//13 11//12 10//14 16//15
f 6//9 9//6 18//11 13//16
f 13//16 18//11 17//13 14//17
f 14//17 17//13 16//15 15//18
