# Blender v2.79 (sub 0) OBJ File: 'canary_base_mesh_BI.blend'
# www.blender.org
mtllib canary_feather_flight_primary_011.mtl
o feather_flight_primary_011
v 0.064037 0.051892 0.017018
v 0.061363 0.050470 0.017018
v 0.077640 0.027486 0.017018
v 0.073990 0.025545 0.017018
v 0.062030 0.052442 0.017173
v 0.076545 0.025143 0.017173
v 0.066985 0.048102 0.017018
v 0.070488 0.042990 0.017018
v 0.073769 0.037760 0.017018
v 0.076552 0.032265 0.017018
v 0.070637 0.029120 0.017018
v 0.067637 0.034499 0.017018
v 0.065137 0.040144 0.017018
v 0.062857 0.045907 0.017018
v 0.064921 0.047005 0.017173
v 0.067812 0.041567 0.017173
v 0.070703 0.036130 0.017173
v 0.073594 0.030692 0.017173
vn -0.0017 0.0032 -1.0000
vn -0.0470 -0.0212 -0.9987
vn -0.0553 -0.0216 -0.9982
vn -0.0032 0.0061 -1.0000
vn 0.0439 0.0271 -0.9987
vn 0.0489 0.0338 -0.9982
vn 0.0029 -0.0055 -1.0000
vn -0.0698 -0.0441 -0.9966
vn -0.0586 -0.0363 -0.9976
vn 0.0022 -0.0042 -1.0000
vn -0.0450 -0.0266 -0.9986
vn 0.0012 -0.0022 -1.0000
vn -0.0407 -0.0223 -0.9989
vn 0.0003 -0.0005 -1.0000
vn 0.0756 0.0331 -0.9966
vn 0.0629 0.0282 -0.9976
vn 0.0472 0.0224 -0.9986
vn 0.0412 0.0212 -0.9989
usemtl feather_yellow_003
s 1
f 18//1 10//2 3//3 6//4
f 11//5 18//1 6//4 4//6
f 5//7 1//8 7//9 15//10
f 15//10 7//9 8//11 16//12
f 16//12 8//11 9//13 17//14
f 17//14 9//13 10//2 18//1
f 2//15 5//7 15//10 14//16
f 14//16 15//10 16//12 13//17
f 13//17 16//12 17//14 12//18
f 12//18 17//14 18//1 11//5
