# Blender v2.79 (sub 0) OBJ File: 'canary_base_mesh_BI.blend'
# www.blender.org
mtllib canary_feather_tail_primary_003.mtl
o feather_tail_primary_003
v 0.003254 0.026122 -0.044656
v 0.000681 0.026122 -0.045239
v 0.012996 0.026122 -0.085606
v 0.009540 0.026122 -0.086389
v 0.001733 0.026350 -0.043915
v 0.011760 0.026350 -0.088171
v 0.004607 0.026122 -0.047946
v 0.006050 0.026122 -0.052302
v 0.012103 0.026122 -0.077529
v 0.012888 0.026122 -0.082034
v 0.008098 0.026122 -0.083119
v 0.006864 0.026122 -0.078716
v 0.001453 0.026122 -0.053343
v 0.000877 0.026122 -0.048791
v 0.002742 0.026350 -0.048369
v 0.003751 0.026350 -0.052823
v 0.009484 0.026350 -0.078122
v 0.010493 0.026350 -0.082576
v 0.010973 0.026122 -0.072465
v 0.009796 0.026122 -0.067412
v 0.008597 0.026122 -0.062364
v 0.007379 0.026122 -0.057321
v 0.002417 0.026122 -0.058445
v 0.003491 0.026122 -0.063521
v 0.004586 0.026122 -0.068593
v 0.005701 0.026122 -0.073660
v 0.008337 0.026350 -0.073063
v 0.007191 0.026350 -0.068003
v 0.006044 0.026350 -0.062943
v 0.004898 0.026350 -0.057883
vn 0.0012 1.0000 -0.0051
vn 0.0974 0.9951 0.0169
vn 0.1103 0.9937 0.0165
vn 0.0018 0.9999 -0.0081
vn -0.0952 0.9951 -0.0266
vn -0.1066 0.9937 -0.0326
vn -0.0023 0.9999 0.0103
vn 0.1368 0.9897 0.0417
vn 0.1180 0.9924 0.0345
vn -0.0017 0.9999 0.0077
vn 0.0956 0.9951 0.0251
vn -0.0007 1.0000 0.0033
vn 0.0000 1.0000 0.0000
vn 0.0821 0.9964 0.0186
vn 0.0841 0.9963 0.0179
vn 0.0002 1.0000 -0.0011
vn -0.1415 0.9897 -0.0213
vn -0.1214 0.9924 -0.0197
vn -0.0971 0.9951 -0.0186
vn -0.0821 0.9964 -0.0185
vn -0.0836 0.9963 -0.0201
vn 0.0875 0.9959 0.0210
vn -0.0002 1.0000 0.0011
vn 0.0844 0.9962 0.0197
vn -0.0001 1.0000 0.0005
vn 0.0828 0.9964 0.0191
vn -0.0001 1.0000 0.0003
vn -0.0880 0.9959 -0.0188
vn -0.0847 0.9962 -0.0186
vn -0.0829 0.9964 -0.0184
usemtl feather_yellow_003
s 1
f 18//1 10//2 3//3 6//4
f 11//5 18//1 6//4 4//6
f 5//7 1//8 7//9 15//10
f 15//10 7//9 8//11 16//12
f 27//13 19//14 9//15 17//16
f 17//16 9//15 10//2 18//1
f 2//17 5//7 15//10 14//18
f 14//18 15//10 16//12 13//19
f 26//20 27//13 17//16 12//21
f 12//21 17//16 18//1 11//5
f 16//12 8//11 22//22 30//23
f 30//23 22//22 21//24 29//25
f 29//25 21//24 20//26 28//27
f 28//27 20//26 19//14 27//13
f 13//19 16//12 30//23 23//28
f 23//28 30//23 29//25 24//29
f 24//29 29//25 28//27 25//30
f 25//30 28//27 27//13 26//20
