# Blender v2.79 (sub 0) OBJ File: 'canary_base_mesh_BI.blend'
# www.blender.org
mtllib canary_feather_flight_tertiary_009.mtl
o feather_flight_tertiary_009
v 0.035371 0.052206 0.017409
v 0.033746 0.052092 0.017409
v 0.036072 0.046451 0.017409
v 0.033854 0.046296 0.017409
v 0.034538 0.052444 0.017564
v 0.034985 0.046052 0.017564
v 0.035881 0.051259 0.017409
v 0.036342 0.050012 0.017409
v 0.036668 0.048755 0.017409
v 0.036691 0.047477 0.017409
v 0.033097 0.047226 0.017409
v 0.032942 0.048494 0.017409
v 0.033090 0.049784 0.017409
v 0.033373 0.051083 0.017409
v 0.034627 0.051171 0.017564
v 0.034716 0.049898 0.017564
v 0.034805 0.048625 0.017564
v 0.034894 0.047351 0.017564
vn -0.0012 0.0176 -0.9998
vn -0.0941 0.0071 -0.9955
vn -0.1112 0.0253 -0.9935
vn -0.0023 0.0331 -0.9994
vn 0.0922 0.0201 -0.9955
vn 0.1066 0.0405 -0.9935
vn 0.0021 -0.0301 -0.9995
vn -0.1493 -0.0403 -0.9879
vn -0.1221 -0.0296 -0.9921
vn 0.0016 -0.0228 -0.9997
vn -0.0949 -0.0180 -0.9953
vn 0.0008 -0.0119 -0.9999
vn -0.0856 -0.0088 -0.9963
vn 0.0002 -0.0030 -1.0000
vn 0.1535 -0.0191 -0.9879
vn 0.1251 -0.0123 -0.9921
vn 0.0965 -0.0046 -0.9953
vn 0.0860 0.0032 -0.9963
usemtl feather_yellow_001
s 1
f 18//1 10//2 3//3 6//4
f 11//5 18//1 6//4 4//6
f 5//7 1//8 7//9 15//10
f 15//10 7//9 8//11 16//12
f 16//12 8//11 9//13 17//14
f 17//14 9//13 10//2 18//1
f 2//15 5//7 15//10 14//16
f 14//16 15//10 16//12 13//17
f 13//17 16//12 17//14 12//18
f 12//18 17//14 18//1 11//5
