# Blender v2.79 (sub 0) OBJ File: 'chipmunk_base_mesh_BI.blend'
# www.blender.org
mtllib chipmunk_eye.mtl
o eye
v 0.012287 0.053124 0.070285
v 0.011101 0.054811 0.069885
v 0.009401 0.055890 0.069288
v 0.007446 0.056198 0.068583
v 0.005534 0.055688 0.067879
v 0.003956 0.054436 0.067282
v 0.002953 0.052635 0.066882
v 0.012565 0.052982 0.069544
v 0.011613 0.054548 0.068517
v 0.010070 0.055546 0.067500
v 0.008171 0.055826 0.066648
v 0.006204 0.055344 0.066090
v 0.004469 0.054173 0.065913
v 0.003230 0.052493 0.066142
v 0.012816 0.052548 0.068916
v 0.012078 0.053746 0.067356
v 0.010678 0.054499 0.065983
v 0.008829 0.054692 0.065006
v 0.006812 0.054296 0.064574
v 0.004934 0.053371 0.064752
v 0.003482 0.052059 0.065514
v 0.002676 0.050558 0.066742
v 0.013004 0.051888 0.068496
v 0.012425 0.052527 0.066581
v 0.011131 0.052907 0.064970
v 0.009319 0.052969 0.063910
v 0.007264 0.052704 0.063561
v 0.005281 0.052153 0.063977
v 0.003669 0.051399 0.065094
v 0.013098 0.051104 0.068349
v 0.012600 0.051078 0.066308
v 0.011360 0.051013 0.064615
v 0.009566 0.050919 0.063525
v 0.007493 0.050810 0.063205
v 0.005456 0.050703 0.063705
v 0.003764 0.050615 0.064947
v 0.013086 0.050314 0.068496
v 0.012577 0.049618 0.066581
v 0.011330 0.049105 0.064970
v 0.009534 0.048854 0.063910
v 0.007464 0.048903 0.063561
v 0.005433 0.049243 0.063977
v 0.003752 0.049825 0.065094
v 0.012779 0.051087 0.070425
v 0.012969 0.049638 0.068916
v 0.012360 0.048370 0.067356
v 0.011046 0.047475 0.065983
v 0.009227 0.047089 0.065006
v 0.007180 0.047272 0.064574
v 0.005216 0.047995 0.064752
v 0.003634 0.049149 0.065514
v 0.012764 0.049180 0.069544
v 0.011981 0.047524 0.068517
v 0.010551 0.046369 0.067500
v 0.008692 0.045893 0.066648
v 0.006685 0.046166 0.066090
v 0.004837 0.047149 0.065913
v 0.003429 0.048691 0.066142
v 0.012503 0.049010 0.070285
v 0.011499 0.047208 0.069885
v 0.009921 0.045957 0.069288
v 0.008009 0.045446 0.068583
v 0.006055 0.045754 0.067879
v 0.004355 0.046834 0.067282
v 0.003168 0.048520 0.066882
v 0.012225 0.049152 0.071025
v 0.010986 0.047471 0.071254
v 0.009251 0.046301 0.071077
v 0.007284 0.045819 0.070519
v 0.005385 0.046098 0.069667
v 0.003842 0.047097 0.068650
v 0.002891 0.048663 0.067623
v 0.011974 0.049586 0.071653
v 0.010521 0.048273 0.072415
v 0.008644 0.047349 0.072593
v 0.006627 0.046953 0.072160
v 0.004777 0.047146 0.071184
v 0.003377 0.047899 0.069811
v 0.002639 0.049097 0.068251
v 0.011786 0.050246 0.072073
v 0.010175 0.049492 0.073190
v 0.008191 0.048941 0.073606
v 0.006137 0.048676 0.073257
v 0.004325 0.048738 0.072197
v 0.003031 0.049117 0.070586
v 0.002452 0.049756 0.068671
v 0.011691 0.051030 0.072220
v 0.010000 0.050941 0.073462
v 0.007962 0.050835 0.073962
v 0.005889 0.050726 0.073642
v 0.004096 0.050632 0.072552
v 0.002855 0.050567 0.070859
v 0.002357 0.050541 0.068818
v 0.011704 0.051820 0.072073
v 0.010022 0.052401 0.073190
v 0.007992 0.052742 0.073606
v 0.005921 0.052791 0.073257
v 0.004126 0.052539 0.072197
v 0.002878 0.052027 0.070586
v 0.002369 0.051331 0.068671
v 0.011821 0.052496 0.071653
v 0.010240 0.053649 0.072415
v 0.008276 0.054373 0.072593
v 0.006228 0.054556 0.072160
v 0.004409 0.054170 0.071184
v 0.003095 0.053275 0.069811
v 0.002487 0.052006 0.068251
v 0.012026 0.052953 0.071025
v 0.010618 0.054495 0.071254
v 0.008770 0.055478 0.071077
v 0.006764 0.055752 0.070519
v 0.004904 0.055276 0.069667
v 0.003474 0.054121 0.068650
v 0.002692 0.052464 0.067623
vn 0.6147 0.7520 0.2377
vn 0.8377 0.4475 0.3130
vn 0.8920 0.4197 0.1680
vn 0.7115 0.7023 -0.0207
vn -0.8799 0.3575 -0.3130
vn -0.6899 0.6837 -0.2377
vn -0.5931 0.6340 -0.4963
vn -0.8256 0.3296 -0.4579
vn -0.3998 0.9076 -0.1280
vn -0.0523 0.9986 0.0000
vn 0.0823 0.9294 -0.3596
vn -0.2749 0.8434 -0.4615
vn 0.3028 0.9444 0.1280
vn 0.4277 0.8803 -0.2054
vn 0.9384 0.0492 0.3420
vn -0.9384 -0.0492 -0.3420
vn 0.2045 0.7188 -0.6644
vn -0.1617 0.6481 -0.7442
vn 0.7993 0.5509 -0.2399
vn 0.5409 0.6849 -0.4881
vn 0.9412 0.3347 0.0451
vn -0.7763 0.2447 -0.5808
vn -0.5053 0.4825 -0.7154
vn -0.7396 0.1157 -0.6629
vn -0.0773 0.3513 -0.9330
vn -0.4399 0.2524 -0.8618
vn 0.6253 0.3881 -0.6770
vn 0.2955 0.3987 -0.8682
vn 0.9779 0.2057 -0.0369
vn 0.8648 0.3208 -0.3863
vn 0.6680 0.0350 -0.7433
vn 0.3415 0.0179 -0.9397
vn 0.9965 0.0522 -0.0658
vn 0.8979 0.0470 -0.4377
vn -0.4068 -0.0213 -0.9132
vn -0.7211 -0.0378 -0.6918
vn -0.0346 -0.0018 -0.9994
vn -0.4111 -0.2970 -0.8618
vn -0.7235 -0.1924 -0.6629
vn 0.3356 -0.3656 -0.8682
vn -0.0401 -0.3574 -0.9330
vn 0.8936 -0.2286 -0.3863
vn 0.6625 -0.3206 -0.6770
vn 0.9940 -0.1024 -0.0369
vn 0.8525 -0.4643 -0.2399
vn 0.6095 -0.6246 -0.4881
vn 0.9710 -0.2345 0.0451
vn -0.7465 -0.3245 -0.5808
vn -0.0930 -0.6615 -0.7442
vn -0.4521 -0.5327 -0.7154
vn 0.2785 -0.6935 -0.6644
vn -0.7866 -0.4141 -0.4579
vn -0.1852 -0.8676 -0.4615
vn -0.5236 -0.6925 -0.4963
vn 0.5173 -0.8307 -0.2054
vn 0.1791 -0.9157 -0.3596
vn 0.9309 -0.3241 0.1680
vn 0.7810 -0.6241 -0.0207
vn 0.8799 -0.3575 0.3130
vn 0.6899 -0.6837 0.2377
vn -0.6147 -0.7520 -0.2377
vn -0.8377 -0.4475 -0.3130
vn 0.0523 -0.9986 0.0000
vn -0.3028 -0.9444 -0.1280
vn 0.3998 -0.9076 0.1280
vn -0.7115 -0.7023 0.0207
vn -0.8920 -0.4197 -0.1680
vn -0.0823 -0.9294 0.3596
vn -0.4277 -0.8803 0.2054
vn 0.5931 -0.6340 0.4963
vn 0.2749 -0.8434 0.4615
vn 0.8256 -0.3296 0.4579
vn 0.7763 -0.2447 0.5808
vn -0.9412 -0.3347 -0.0451
vn -0.5409 -0.6849 0.4881
vn -0.7993 -0.5509 0.2399
vn 0.1617 -0.6481 0.7442
vn -0.2045 -0.7188 0.6644
vn 0.5053 -0.4825 0.7154
vn -0.6253 -0.3881 0.6770
vn -0.8648 -0.3208 0.3863
vn 0.0773 -0.3513 0.9330
vn -0.2955 -0.3987 0.8682
vn 0.7396 -0.1157 0.6629
vn 0.4399 -0.2524 0.8618
vn -0.9779 -0.2057 0.0369
vn -0.8979 -0.0470 0.4377
vn -0.9965 -0.0522 0.0658
vn -0.3415 -0.0179 0.9397
vn -0.6680 -0.0350 0.7433
vn 0.4068 0.0213 0.9132
vn 0.0346 0.0018 0.9994
vn 0.7211 0.0378 0.6918
vn -0.3356 0.3656 0.8682
vn -0.6625 0.3206 0.6770
vn 0.4111 0.2970 0.8618
vn 0.0401 0.3574 0.9330
vn 0.7235 0.1924 0.6629
vn -0.9940 0.1024 0.0369
vn -0.8936 0.2286 0.3863
vn -0.9710 0.2345 -0.0451
vn -0.6095 0.6246 0.4881
vn -0.8525 0.4643 0.2399
vn 0.0930 0.6615 0.7442
vn -0.2785 0.6935 0.6644
vn 0.7465 0.3245 0.5808
vn 0.4521 0.5327 0.7154
vn 0.1852 0.8676 0.4615
vn -0.1791 0.9157 0.3596
vn 0.7866 0.4141 0.4579
vn 0.5236 0.6925 0.4963
vn -0.7810 0.6241 0.0207
vn -0.9309 0.3241 -0.1680
vn -0.5173 0.8307 0.2054
usemtl eyes
s 1
f 2//1 1//2 8//3 9//4
f 7//5 6//6 13//7 14//8
f 5//9 4//10 11//11 12//12
f 3//13 2//1 9//4 10//14
f 1//2 44//15 8//3
f 22//16 7//5 14//8
f 6//6 5//9 12//12 13//7
f 4//10 3//13 10//14 11//11
f 12//12 11//11 18//17 19//18
f 10//14 9//4 16//19 17//20
f 8//3 44//15 15//21
f 22//16 14//8 21//22
f 13//7 12//12 19//18 20//23
f 11//11 10//14 17//20 18//17
f 9//4 8//3 15//21 16//19
f 14//8 13//7 20//23 21//22
f 22//16 21//22 29//24
f 20//23 19//18 27//25 28//26
f 18//17 17//20 25//27 26//28
f 16//19 15//21 23//29 24//30
f 21//22 20//23 28//26 29//24
f 19//18 18//17 26//28 27//25
f 17//20 16//19 24//30 25//27
f 15//21 44//15 23//29
f 26//28 25//27 32//31 33//32
f 24//30 23//29 30//33 31//34
f 29//24 28//26 35//35 36//36
f 27//25 26//28 33//32 34//37
f 25//27 24//30 31//34 32//31
f 23//29 44//15 30//33
f 22//16 29//24 36//36
f 28//26 27//25 34//37 35//35
f 36//36 35//35 42//38 43//39
f 34//37 33//32 40//40 41//41
f 32//31 31//34 38//42 39//43
f 30//33 44//15 37//44
f 22//16 36//36 43//39
f 35//35 34//37 41//41 42//38
f 33//32 32//31 39//43 40//40
f 31//34 30//33 37//44 38//42
f 39//43 38//42 46//45 47//46
f 37//44 44//15 45//47
f 22//16 43//39 51//48
f 42//38 41//41 49//49 50//50
f 40//40 39//43 47//46 48//51
f 38//42 37//44 45//47 46//45
f 43//39 42//38 50//50 51//48
f 41//41 40//40 48//51 49//49
f 22//16 51//48 58//52
f 50//50 49//49 56//53 57//54
f 48//51 47//46 54//55 55//56
f 46//45 45//47 52//57 53//58
f 51//48 50//50 57//54 58//52
f 49//49 48//51 55//56 56//53
f 47//46 46//45 53//58 54//55
f 45//47 44//15 52//57
f 53//58 52//57 59//59 60//60
f 58//52 57//54 64//61 65//62
f 56//53 55//56 62//63 63//64
f 54//55 53//58 60//60 61//65
f 52//57 44//15 59//59
f 22//16 58//52 65//62
f 57//54 56//53 63//64 64//61
f 55//56 54//55 61//65 62//63
f 65//62 64//61 71//66 72//67
f 63//64 62//63 69//68 70//69
f 61//65 60//60 67//70 68//71
f 59//59 44//15 66//72
f 22//16 65//62 72//67
f 64//61 63//64 70//69 71//66
f 62//63 61//65 68//71 69//68
f 60//60 59//59 66//72 67//70
f 66//72 44//15 73//73
f 22//16 72//67 79//74
f 71//66 70//69 77//75 78//76
f 69//68 68//71 75//77 76//78
f 67//70 66//72 73//73 74//79
f 72//67 71//66 78//76 79//74
f 70//69 69//68 76//78 77//75
f 68//71 67//70 74//79 75//77
f 78//76 77//75 84//80 85//81
f 76//78 75//77 82//82 83//83
f 74//79 73//73 80//84 81//85
f 79//74 78//76 85//81 86//86
f 77//75 76//78 83//83 84//80
f 75//77 74//79 81//85 82//82
f 73//73 44//15 80//84
f 22//16 79//74 86//86
f 86//86 85//81 92//87 93//88
f 84//80 83//83 90//89 91//90
f 82//82 81//85 88//91 89//92
f 80//84 44//15 87//93
f 22//16 86//86 93//88
f 85//81 84//80 91//90 92//87
f 83//83 82//82 89//92 90//89
f 81//85 80//84 87//93 88//91
f 91//90 90//89 97//94 98//95
f 89//92 88//91 95//96 96//97
f 87//93 44//15 94//98
f 22//16 93//88 100//99
f 92//87 91//90 98//95 99//100
f 90//89 89//92 96//97 97//94
f 88//91 87//93 94//98 95//96
f 93//88 92//87 99//100 100//99
f 22//16 100//99 107//101
f 99//100 98//95 105//102 106//103
f 97//94 96//97 103//104 104//105
f 95//96 94//98 101//106 102//107
f 100//99 99//100 106//103 107//101
f 98//95 97//94 104//105 105//102
f 96//97 95//96 102//107 103//104
f 94//98 44//15 101//106
f 104//105 103//104 110//108 111//109
f 102//107 101//106 108//110 109//111
f 107//101 106//103 113//112 114//113
f 105//102 104//105 111//109 112//114
f 103//104 102//107 109//111 110//108
f 101//106 44//15 108//110
f 22//16 107//101 114//113
f 106//103 105//102 112//114 113//112
f 114//113 113//112 6//6 7//5
f 112//114 111//109 4//10 5//9
f 110//108 109//111 2//1 3//13
f 108//110 44//15 1//2
f 22//16 114//113 7//5
f 113//112 112//114 5//9 6//6
f 111//109 110//108 3//13 4//10
f 109//111 108//110 1//2 2//1
