# Blender v2.79 (sub 0) OBJ File: 'cockatiel_base_mesh_BI.blend'
# www.blender.org
mtllib cockatiel_feather_flight_secondary_022.mtl
o feather_flight_secondary_022
v 0.084550 0.085734 0.018430
v 0.079971 0.085414 0.018430
v 0.087157 0.060453 0.018430
v 0.080908 0.060016 0.018430
v 0.082170 0.086869 0.018120
v 0.084231 0.057400 0.018120
v 0.086095 0.081531 0.018430
v 0.087532 0.076018 0.018430
v 0.088591 0.070479 0.018430
v 0.088796 0.064880 0.018430
v 0.078669 0.064171 0.018430
v 0.078092 0.069744 0.018430
v 0.078370 0.075377 0.018430
v 0.079026 0.081036 0.018430
v 0.082561 0.081283 0.018120
v 0.082951 0.075698 0.018120
v 0.083342 0.070112 0.018120
v 0.083733 0.064526 0.018120
vn 0.0005 -0.0073 -1.0000
vn 0.0685 -0.0015 -0.9976
vn 0.0807 -0.0080 -0.9967
vn 0.0009 -0.0136 -0.9999
vn -0.0676 -0.0110 -0.9976
vn -0.0788 -0.0191 -0.9967
vn -0.0009 0.0137 -0.9999
vn 0.1073 0.0212 -0.9940
vn 0.0889 0.0161 -0.9959
vn -0.0007 0.0104 -0.9999
vn 0.0682 0.0100 -0.9976
vn -0.0004 0.0054 -1.0000
vn 0.0610 0.0056 -0.9981
vn -0.0001 0.0014 -1.0000
vn -0.1092 0.0061 -0.9940
vn -0.0902 0.0036 -0.9959
vn -0.0689 0.0005 -0.9976
vn -0.0612 -0.0030 -0.9981
usemtl feather_004
s 1
f 18//1 10//2 3//3 6//4
f 11//5 18//1 6//4 4//6
f 5//7 1//8 7//9 15//10
f 15//10 7//9 8//11 16//12
f 16//12 8//11 9//13 17//14
f 17//14 9//13 10//2 18//1
f 2//15 5//7 15//10 14//16
f 14//16 15//10 16//12 13//17
f 13//17 16//12 17//14 12//18
f 12//18 17//14 18//1 11//5
