# Blender v2.79 (sub 0) OBJ File: 'cockatiel_base_mesh_BI.blend'
# www.blender.org
mtllib cockatiel_feather_flight_tertiary_014.mtl
o feather_flight_tertiary_014
v 0.094793 0.086494 0.019304
v 0.091315 0.085902 0.019307
v 0.097664 0.073463 0.019330
v 0.092918 0.072655 0.019333
v 0.092940 0.086869 0.019614
v 0.095541 0.071589 0.019644
v 0.096118 0.084430 0.019308
v 0.097406 0.081669 0.019313
v 0.098406 0.078859 0.019318
v 0.098758 0.075939 0.019324
v 0.091066 0.074630 0.019330
v 0.090432 0.077502 0.019324
v 0.090447 0.080485 0.019318
v 0.090748 0.083516 0.019312
v 0.093433 0.083972 0.019620
v 0.093926 0.081076 0.019626
v 0.094419 0.078180 0.019631
v 0.094912 0.075283 0.019637
vn -0.0027 0.0117 -0.9999
vn -0.0886 -0.0059 -0.9960
vn -0.1070 0.0060 -0.9942
vn -0.0047 0.0236 -0.9997
vn 0.0841 0.0235 -0.9962
vn 0.0976 0.0409 -0.9944
vn 0.0040 -0.0279 -0.9996
vn -0.1346 -0.0512 -0.9896
vn -0.1107 -0.0394 -0.9931
vn 0.0029 -0.0216 -0.9998
vn -0.0863 -0.0266 -0.9959
vn 0.0013 -0.0122 -0.9999
vn -0.0784 -0.0178 -0.9967
vn 0.0000 -0.0046 -1.0000
vn 0.1426 -0.0040 -0.9897
vn 0.1161 -0.0008 -0.9932
vn 0.0888 0.0031 -0.9960
vn 0.0785 0.0089 -0.9969
usemtl feather_003
s 1
f 18//1 10//2 3//3 6//4
f 11//5 18//1 6//4 4//6
f 5//7 1//8 7//9 15//10
f 15//10 7//9 8//11 16//12
f 16//12 8//11 9//13 17//14
f 17//14 9//13 10//2 18//1
f 2//15 5//7 15//10 14//16
f 14//16 15//10 16//12 13//17
f 13//17 16//12 17//14 12//18
f 12//18 17//14 18//1 11//5
