# Blender v2.79 (sub 0) OBJ File: 'cockatiel_base_mesh_BI.blend'
# www.blender.org
mtllib cockatiel_feather_flight_tertiary_039.mtl
o feather_flight_tertiary_039
v 0.063575 0.086331 0.018082
v 0.060280 0.086216 0.018082
v 0.064583 0.074684 0.018082
v 0.060086 0.074527 0.018082
v 0.061906 0.086869 0.017772
v 0.062380 0.073300 0.017772
v 0.064540 0.084386 0.018082
v 0.065383 0.081841 0.018082
v 0.065953 0.079285 0.018082
v 0.065910 0.076709 0.018082
v 0.058622 0.076454 0.018082
v 0.058398 0.079021 0.018082
v 0.058790 0.081610 0.018082
v 0.059453 0.084209 0.018082
v 0.061996 0.084297 0.017772
v 0.062086 0.081725 0.017772
v 0.062176 0.079153 0.017772
v 0.062266 0.076581 0.017772
vn 0.0005 -0.0159 -0.9998
vn 0.0939 -0.0090 -0.9955
vn 0.1119 -0.0255 -0.9934
vn 0.0010 -0.0296 -0.9995
vn -0.0930 -0.0155 -0.9955
vn -0.1098 -0.0333 -0.9934
vn -0.0010 0.0299 -0.9995
vn 0.1491 0.0348 -0.9882
vn 0.1218 0.0251 -0.9922
vn -0.0008 0.0227 -0.9997
vn 0.0945 0.0145 -0.9954
vn -0.0004 0.0118 -0.9999
vn 0.0849 0.0057 -0.9963
vn -0.0001 0.0030 -1.0000
vn -0.1512 0.0243 -0.9882
vn -0.1233 0.0165 -0.9922
vn -0.0952 0.0079 -0.9954
vn -0.0851 -0.0002 -0.9963
usemtl feather_003
s 1
f 18//1 10//2 3//3 6//4
f 11//5 18//1 6//4 4//6
f 5//7 1//8 7//9 15//10
f 15//10 7//9 8//11 16//12
f 16//12 8//11 9//13 17//14
f 17//14 9//13 10//2 18//1
f 2//15 5//7 15//10 14//16
f 14//16 15//10 16//12 13//17
f 13//17 16//12 17//14 12//18
f 12//18 17//14 18//1 11//5
