# Blender v2.79 (sub 0) OBJ File: 'cockatiel_base_mesh_BI.blend'
# www.blender.org
mtllib cockatiel_feather_flight_primary_006.mtl
o feather_flight_primary_006
v 0.084853 0.084593 0.018522
v 0.079740 0.084325 0.018522
v 0.088257 0.037482 0.018522
v 0.081279 0.037116 0.018522
v 0.082170 0.086869 0.018831
v 0.085045 0.032023 0.018831
v 0.086662 0.076680 0.018522
v 0.088375 0.066345 0.018522
v 0.089667 0.055988 0.018522
v 0.090004 0.045581 0.018522
v 0.078695 0.044988 0.018522
v 0.077943 0.055374 0.018522
v 0.078144 0.065809 0.018522
v 0.078768 0.076266 0.018522
v 0.082715 0.076473 0.018831
v 0.083260 0.066077 0.018831
v 0.083805 0.055681 0.018831
v 0.084349 0.045285 0.018831
vn -0.0002 0.0039 -1.0000
vn -0.0619 0.0003 -0.9981
vn -0.0720 0.0035 -0.9974
vn -0.0004 0.0073 -1.0000
vn 0.0615 0.0068 -0.9981
vn 0.0712 0.0110 -0.9974
vn 0.0004 -0.0074 -1.0000
vn -0.0969 -0.0125 -0.9952
vn -0.0810 -0.0097 -0.9966
vn 0.0003 -0.0056 -1.0000
vn -0.0616 -0.0061 -0.9981
vn 0.0002 -0.0029 -1.0000
vn -0.0548 -0.0036 -0.9985
vn 0.0000 -0.0007 -1.0000
vn 0.0977 -0.0023 -0.9952
vn 0.0816 -0.0012 -0.9966
vn 0.0619 0.0004 -0.9981
vn 0.0549 0.0021 -0.9985
usemtl feather_005
s 1
f 18//1 10//2 3//3 6//4
f 11//5 18//1 6//4 4//6
f 5//7 1//8 7//9 15//10
f 15//10 7//9 8//11 16//12
f 16//12 8//11 9//13 17//14
f 17//14 9//13 10//2 18//1
f 2//15 5//7 15//10 14//16
f 14//16 15//10 16//12 13//17
f 13//17 16//12 17//14 12//18
f 12//18 17//14 18//1 11//5
