# Blender v2.79 (sub 0) OBJ File: 'cockatiel_base_mesh_BI.blend'
# www.blender.org
mtllib cockatiel_feather_tail_primary_002.mtl
o feather_tail_primary_002
v 0.007351 0.038310 -0.087102
v 0.001516 0.038310 -0.089199
v 0.049198 0.038310 -0.200408
v 0.041360 0.038310 -0.203225
v 0.003406 0.038796 -0.085291
v 0.047441 0.038796 -0.207834
v 0.012066 0.038310 -0.096104
v 0.017480 0.038310 -0.108084
v 0.043383 0.038310 -0.177876
v 0.047306 0.038310 -0.190391
v 0.036443 0.038310 -0.194295
v 0.031502 0.038310 -0.182145
v 0.007058 0.038310 -0.111829
v 0.003608 0.038310 -0.099143
v 0.007837 0.038796 -0.097624
v 0.012269 0.038796 -0.109956
v 0.037443 0.038796 -0.180010
v 0.041874 0.038796 -0.192343
v 0.038386 0.038310 -0.163851
v 0.033280 0.038310 -0.149866
v 0.028127 0.038310 -0.135898
v 0.022930 0.038310 -0.121946
v 0.011678 0.038310 -0.125989
v 0.016550 0.038310 -0.140058
v 0.021466 0.038310 -0.154111
v 0.026430 0.038310 -0.168148
v 0.032408 0.038796 -0.166000
v 0.027373 0.038796 -0.151989
v 0.022339 0.038796 -0.137978
v 0.017304 0.038796 -0.123967
vn 0.0013 1.0000 -0.0037
vn 0.0859 0.9959 0.0269
vn 0.0973 0.9948 0.0284
vn 0.0021 1.0000 -0.0058
vn -0.0834 0.9959 -0.0339
vn -0.0931 0.9948 -0.0400
vn -0.0027 0.9999 0.0074
vn 0.1196 0.9915 0.0513
vn 0.1035 0.9937 0.0432
vn -0.0020 1.0000 0.0055
vn 0.0838 0.9959 0.0328
vn -0.0009 1.0000 0.0024
vn 0.0000 1.0000 0.0000
vn 0.0720 0.9970 0.0259
vn 0.0739 0.9969 0.0256
vn 0.0003 1.0000 -0.0008
vn -0.1249 0.9915 -0.0366
vn -0.1073 0.9937 -0.0325
vn -0.0855 0.9959 -0.0281
vn -0.0721 0.9970 -0.0258
vn -0.0733 0.9969 -0.0273
vn 0.0768 0.9966 0.0285
vn -0.0003 1.0000 0.0008
vn 0.0741 0.9969 0.0270
vn -0.0001 1.0000 0.0004
vn 0.0726 0.9970 0.0264
vn -0.0001 1.0000 0.0002
vn -0.0774 0.9966 -0.0269
vn -0.0743 0.9969 -0.0263
vn -0.0728 0.9970 -0.0259
usemtl feather_005
s 1
f 18//1 10//2 3//3 6//4
f 11//5 18//1 6//4 4//6
f 5//7 1//8 7//9 15//10
f 15//10 7//9 8//11 16//12
f 27//13 19//14 9//15 17//16
f 17//16 9//15 10//2 18//1
f 2//17 5//7 15//10 14//18
f 14//18 15//10 16//12 13//19
f 26//20 27//13 17//16 12//21
f 12//21 17//16 18//1 11//5
f 16//12 8//11 22//22 30//23
f 30//23 22//22 21//24 29//25
f 29//25 21//24 20//26 28//27
f 28//27 20//26 19//14 27//13
f 13//19 16//12 30//23 23//28
f 23//28 30//23 29//25 24//29
f 24//29 29//25 28//27 25//30
f 25//30 28//27 27//13 26//20
