# Blender v2.79 (sub 0) OBJ File: 'cockatiel_base_mesh_BI.blend'
# www.blender.org
mtllib cockatiel_feather_flight_tertiary_005.mtl
o feather_flight_tertiary_005
v 0.054476 0.086305 0.019304
v 0.051195 0.086248 0.019304
v 0.055276 0.074711 0.019304
v 0.050800 0.074633 0.019304
v 0.052825 0.086869 0.019614
v 0.053061 0.073374 0.019614
v 0.055402 0.084356 0.019304
v 0.056196 0.081811 0.019304
v 0.056720 0.079261 0.019304
v 0.056631 0.076700 0.019304
v 0.049376 0.076574 0.019304
v 0.049198 0.079129 0.019304
v 0.049633 0.081696 0.019304
v 0.050338 0.084267 0.019304
v 0.052870 0.084311 0.019614
v 0.052914 0.081753 0.019614
v 0.052959 0.079195 0.019614
v 0.053004 0.076637 0.019614
vn -0.0003 0.0160 -0.9998
vn -0.0941 0.0107 -0.9955
vn -0.1120 0.0276 -0.9933
vn -0.0005 0.0298 -0.9995
vn 0.0937 0.0140 -0.9955
vn 0.1109 0.0316 -0.9933
vn 0.0005 -0.0301 -0.9995
vn -0.1504 -0.0324 -0.9881
vn -0.1228 -0.0231 -0.9922
vn 0.0004 -0.0228 -0.9997
vn -0.0952 -0.0129 -0.9954
vn 0.0002 -0.0119 -0.9999
vn -0.0855 -0.0042 -0.9963
vn 0.0000 -0.0030 -1.0000
vn 0.1515 -0.0271 -0.9881
vn 0.1236 -0.0188 -0.9922
vn 0.0956 -0.0096 -0.9954
vn 0.0855 -0.0013 -0.9963
usemtl feather_003
s 1
f 18//1 10//2 3//3 6//4
f 11//5 18//1 6//4 4//6
f 5//7 1//8 7//9 15//10
f 15//10 7//9 8//11 16//12
f 16//12 8//11 9//13 17//14
f 17//14 9//13 10//2 18//1
f 2//15 5//7 15//10 14//16
f 14//16 15//10 16//12 13//17
f 13//17 16//12 17//14 12//18
f 12//18 17//14 18//1 11//5
