# Blender v2.79 (sub 0) OBJ File: 'cockatiel_base_mesh_BI.blend'
# www.blender.org
mtllib cockatiel_feather_flight_primary_012.mtl
o feather_flight_primary_012
v 0.137820 0.086299 0.018522
v 0.132769 0.082630 0.018522
v 0.172583 0.040388 0.018522
v 0.165691 0.035380 0.018522
v 0.133565 0.086845 0.018831
v 0.172923 0.032673 0.018831
v 0.144924 0.079409 0.018522
v 0.153538 0.069979 0.018522
v 0.161736 0.060247 0.018522
v 0.168991 0.049829 0.018522
v 0.157822 0.041714 0.018522
v 0.150156 0.051834 0.018522
v 0.143433 0.062638 0.018522
v 0.137127 0.073745 0.018522
v 0.141025 0.076577 0.018831
v 0.148486 0.066308 0.018831
v 0.155946 0.056040 0.018831
v 0.163406 0.045772 0.018831
vn -0.0019 0.0026 -1.0000
vn -0.0428 -0.0274 -0.9987
vn -0.0511 -0.0297 -0.9982
vn -0.0035 0.0049 -1.0000
vn 0.0393 0.0322 -0.9987
vn 0.0441 0.0394 -0.9982
vn 0.0035 -0.0049 -1.0000
vn -0.0612 -0.0519 -0.9968
vn -0.0515 -0.0429 -0.9977
vn 0.0027 -0.0037 -1.0000
vn -0.0397 -0.0317 -0.9987
vn 0.0014 -0.0019 -1.0000
vn -0.0361 -0.0270 -0.9990
vn 0.0003 -0.0005 -1.0000
vn 0.0683 0.0421 -0.9968
vn 0.0567 0.0357 -0.9977
vn 0.0425 0.0279 -0.9987
vn 0.0368 0.0260 -0.9990
usemtl feather_005
s 1
f 18//1 10//2 3//3 6//4
f 11//5 18//1 6//4 4//6
f 5//7 1//8 7//9 15//10
f 15//10 7//9 8//11 16//12
f 16//12 8//11 9//13 17//14
f 17//14 9//13 10//2 18//1
f 2//15 5//7 15//10 14//16
f 14//16 15//10 16//12 13//17
f 13//17 16//12 17//14 12//18
f 12//18 17//14 18//1 11//5
