# Blender v2.79 (sub 0) OBJ File: 'cockatiel_base_mesh_BI.blend'
# www.blender.org
mtllib cockatiel_feather_flight_secondary_031.mtl
o feather_flight_secondary_031
v 0.164476 0.088694 0.018369
v 0.162245 0.083505 0.018473
v 0.199263 0.074706 0.018164
v 0.196219 0.067625 0.018306
v 0.161609 0.086870 0.018119
v 0.201593 0.069501 0.017903
v 0.170904 0.087576 0.018309
v 0.178993 0.085470 0.018244
v 0.186898 0.082936 0.018188
v 0.194386 0.079433 0.018152
v 0.189453 0.067956 0.018381
v 0.181783 0.071038 0.018426
v 0.174530 0.075087 0.018452
v 0.167461 0.079565 0.018470
v 0.169188 0.083577 0.018078
v 0.176767 0.080285 0.018037
v 0.184346 0.076993 0.017996
v 0.191925 0.073701 0.017955
vn -0.0072 -0.0167 -0.9998
vn 0.0145 0.0348 -0.9993
vn 0.0228 0.0416 -0.9989
vn -0.0034 -0.0187 -0.9998
vn -0.0301 -0.0678 -0.9972
vn -0.0293 -0.0783 -0.9965
vn -0.0203 -0.0108 -0.9997
vn 0.0150 0.0706 -0.9974
vn 0.0113 0.0557 -0.9984
vn -0.0183 -0.0119 -0.9998
vn 0.0073 0.0382 -0.9992
vn -0.0152 -0.0133 -0.9998
vn 0.0073 0.0315 -0.9995
vn -0.0127 -0.0144 -0.9998
vn -0.0556 -0.0923 -0.9942
vn -0.0473 -0.0795 -0.9957
vn -0.0375 -0.0649 -0.9972
vn -0.0326 -0.0603 -0.9976
usemtl feather_004
s 1
f 18//1 10//2 3//3 6//4
f 11//5 18//1 6//4 4//6
f 5//7 1//8 7//9 15//10
f 15//10 7//9 8//11 16//12
f 16//12 8//11 9//13 17//14
f 17//14 9//13 10//2 18//1
f 2//15 5//7 15//10 14//16
f 14//16 15//10 16//12 13//17
f 13//17 16//12 17//14 12//18
f 12//18 17//14 18//1 11//5
