# Blender v2.79 (sub 0) OBJ File: 'cockatiel_base_mesh_BI.blend'
# www.blender.org
mtllib cockatiel_feather_flight_tertiary_009.mtl
o feather_flight_tertiary_009
v 0.071767 0.086392 0.019304
v 0.068512 0.086164 0.019304
v 0.073169 0.074866 0.019304
v 0.068728 0.074555 0.019304
v 0.070098 0.086869 0.019614
v 0.071039 0.073416 0.019614
v 0.072789 0.084495 0.019304
v 0.073711 0.081997 0.019304
v 0.074365 0.079480 0.019304
v 0.074411 0.076921 0.019304
v 0.067212 0.076418 0.019304
v 0.066902 0.078958 0.019304
v 0.067199 0.081542 0.019304
v 0.067764 0.084144 0.019304
v 0.070277 0.084319 0.019614
v 0.070455 0.081769 0.019614
v 0.070633 0.079219 0.019614
v 0.070812 0.076669 0.019614
vn -0.0011 0.0159 -0.9998
vn -0.0951 0.0058 -0.9954
vn -0.1139 0.0217 -0.9932
vn -0.0021 0.0298 -0.9995
vn 0.0934 0.0190 -0.9954
vn 0.1097 0.0374 -0.9932
vn 0.0021 -0.0301 -0.9995
vn -0.1493 -0.0403 -0.9879
vn -0.1221 -0.0296 -0.9921
vn 0.0016 -0.0228 -0.9997
vn -0.0949 -0.0180 -0.9953
vn 0.0008 -0.0119 -0.9999
vn -0.0856 -0.0088 -0.9963
vn 0.0002 -0.0030 -1.0000
vn 0.1535 -0.0191 -0.9879
vn 0.1251 -0.0123 -0.9921
vn 0.0965 -0.0046 -0.9953
vn 0.0860 0.0032 -0.9963
usemtl feather_003
s 1
f 18//1 10//2 3//3 6//4
f 11//5 18//1 6//4 4//6
f 5//7 1//8 7//9 15//10
f 15//10 7//9 8//11 16//12
f 16//12 8//11 9//13 17//14
f 17//14 9//13 10//2 18//1
f 2//15 5//7 15//10 14//16
f 14//16 15//10 16//12 13//17
f 13//17 16//12 17//14 12//18
f 12//18 17//14 18//1 11//5
