# Blender v2.79 (sub 0) OBJ File: 'cockatiel_base_mesh_BI.blend'
# www.blender.org
mtllib cockatiel_feather_tail_secondary_009.mtl
o feather_tail_secondary_009
v -0.002041 0.038372 -0.091690
v 0.003566 0.038372 -0.090893
v 0.000175 0.037773 -0.087160
v -0.001353 0.038372 -0.105559
v 0.000238 0.038372 -0.123514
v 0.010254 0.038372 -0.122089
v 0.006774 0.038372 -0.104402
v 0.002710 0.037773 -0.104981
v 0.005246 0.037773 -0.122801
v 0.008258 0.038372 -0.179199
v 0.005445 0.038372 -0.164084
v 0.002721 0.038372 -0.143816
v 0.013533 0.038372 -0.142278
v 0.016571 0.038372 -0.162501
v 0.018085 0.038372 -0.177801
v 0.013889 0.037773 -0.183538
v 0.011008 0.037773 -0.163293
v 0.008127 0.037773 -0.143047
vn -0.0010 -1.0000 0.0070
vn -0.1736 -0.9846 -0.0176
vn -0.1503 -0.9885 -0.0162
vn -0.0007 -1.0000 0.0052
vn -0.1204 -0.9926 -0.0149
vn -0.0003 -1.0000 0.0023
vn 0.1717 -0.9846 0.0315
vn 0.1488 -0.9885 0.0263
vn 0.1198 -0.9926 0.0193
vn -0.1094 -0.9939 -0.0148
vn -0.0001 -1.0000 0.0007
vn -0.1093 -0.9939 -0.0164
vn 0.0001 -1.0000 -0.0008
vn -0.1122 -0.9935 -0.0180
vn 0.0003 -1.0000 -0.0020
vn 0.1092 -0.9939 0.0163
vn 0.1096 -0.9939 0.0147
vn 0.1127 -0.9935 0.0139
usemtl feather_003
s 1
f 3//1 1//2 4//3 8//4
f 8//4 4//3 5//5 9//6
f 2//7 3//1 8//4 7//8
f 7//8 8//4 9//6 6//9
f 9//6 5//5 12//10 18//11
f 18//11 12//10 11//12 17//13
f 17//13 11//12 10//14 16//15
f 6//9 9//6 18//11 13//16
f 13//16 18//11 17//13 14//17
f 14//17 17//13 16//15 15//18
