# Blender v2.79 (sub 0) OBJ File: 'cockatiel_base_mesh_BI.blend'
# www.blender.org
mtllib cockatiel_feather_flight_secondary_021.mtl
o feather_flight_secondary_021
v 0.075078 0.085669 0.018430
v 0.070554 0.085511 0.018430
v 0.076776 0.060668 0.018430
v 0.070604 0.060453 0.018430
v 0.072771 0.086869 0.018120
v 0.073788 0.057760 0.018120
v 0.076455 0.081474 0.018430
v 0.077682 0.075992 0.018430
v 0.078535 0.070498 0.018430
v 0.078544 0.064974 0.018430
v 0.068540 0.064624 0.018430
v 0.068164 0.070135 0.018430
v 0.068632 0.075676 0.018430
v 0.069473 0.081230 0.018430
v 0.072964 0.081352 0.018120
v 0.073157 0.075834 0.018120
v 0.073349 0.070317 0.018120
v 0.073542 0.064799 0.018120
vn 0.0002 -0.0074 -1.0000
vn 0.0694 -0.0039 -0.9976
vn 0.0815 -0.0109 -0.9966
vn 0.0005 -0.0138 -0.9999
vn -0.0689 -0.0087 -0.9976
vn -0.0805 -0.0166 -0.9966
vn -0.0005 0.0139 -0.9999
vn 0.1095 0.0177 -0.9938
vn 0.0906 0.0132 -0.9958
vn -0.0004 0.0106 -0.9999
vn 0.0694 0.0078 -0.9975
vn -0.0002 0.0055 -1.0000
vn 0.0620 0.0035 -0.9980
vn -0.0000 0.0014 -1.0000
vn -0.1105 0.0100 -0.9938
vn -0.0913 0.0068 -0.9958
vn -0.0698 0.0029 -0.9975
vn -0.0621 -0.0008 -0.9980
usemtl feather_004
s 1
f 18//1 10//2 3//3 6//4
f 11//5 18//1 6//4 4//6
f 5//7 1//8 7//9 15//10
f 15//10 7//9 8//11 16//12
f 16//12 8//11 9//13 17//14
f 17//14 9//13 10//2 18//1
f 2//15 5//7 15//10 14//16
f 14//16 15//10 16//12 13//17
f 13//17 16//12 17//14 12//18
f 12//18 17//14 18//1 11//5
