# Blender v2.79 (sub 0) OBJ File: 'cockatiel_base_mesh_BI.blend'
# www.blender.org
mtllib cockatiel_feather_flight_tertiary_045.mtl
o feather_flight_tertiary_045
v 0.090131 0.086334 0.018082
v 0.086800 0.086118 0.018079
v 0.091556 0.073790 0.018058
v 0.087010 0.073495 0.018055
v 0.088424 0.086869 0.017772
v 0.089374 0.072234 0.017744
v 0.091175 0.084262 0.018078
v 0.092117 0.081538 0.018074
v 0.092783 0.078796 0.018069
v 0.092828 0.076013 0.018063
v 0.085461 0.075535 0.018058
v 0.085146 0.078300 0.018063
v 0.085452 0.081105 0.018069
v 0.086033 0.083929 0.018075
v 0.088604 0.084095 0.017767
v 0.088784 0.081321 0.017761
v 0.088964 0.078547 0.017756
v 0.089144 0.075773 0.017751
vn 0.0015 -0.0127 -0.9999
vn 0.0937 -0.0036 -0.9956
vn 0.1117 -0.0182 -0.9936
vn 0.0024 -0.0254 -0.9997
vn -0.0910 -0.0156 -0.9957
vn -0.1070 -0.0324 -0.9937
vn -0.0012 0.0296 -0.9995
vn 0.1469 0.0389 -0.9884
vn 0.1205 0.0292 -0.9923
vn -0.0008 0.0229 -0.9997
vn 0.0936 0.0184 -0.9954
vn -0.0001 0.0129 -0.9999
vn 0.0843 0.0099 -0.9964
vn 0.0004 0.0047 -1.0000
vn -0.1493 0.0197 -0.9886
vn -0.1219 0.0134 -0.9924
vn -0.0938 0.0063 -0.9955
vn -0.0835 -0.0009 -0.9965
usemtl feather_003
s 1
f 18//1 10//2 3//3 6//4
f 11//5 18//1 6//4 4//6
f 5//7 1//8 7//9 15//10
f 15//10 7//9 8//11 16//12
f 16//12 8//11 9//13 17//14
f 17//14 9//13 10//2 18//1
f 2//15 5//7 15//10 14//16
f 14//16 15//10 16//12 13//17
f 13//17 16//12 17//14 12//18
f 12//18 17//14 18//1 11//5
