# Blender v2.79 (sub 0) OBJ File: 'cockatiel_base_mesh_BI.blend'
# www.blender.org
mtllib cockatiel_feather_flight_tertiary_059.mtl
o feather_flight_tertiary_059
v 0.151133 0.087458 0.018053
v 0.149132 0.085241 0.018099
v 0.162156 0.078104 0.017911
v 0.159426 0.075079 0.017974
v 0.149595 0.086850 0.017771
v 0.161990 0.075502 0.017617
v 0.153482 0.086408 0.018017
v 0.156289 0.084764 0.017978
v 0.158930 0.082936 0.017942
v 0.161199 0.080695 0.017914
v 0.156774 0.075792 0.018016
v 0.154343 0.077853 0.018048
v 0.152286 0.080328 0.018070
v 0.150393 0.082985 0.018089
v 0.151945 0.084699 0.017742
v 0.154294 0.082548 0.017713
v 0.156644 0.080397 0.017683
v 0.158993 0.078246 0.017654
vn -0.0074 -0.0135 -0.9999
vn 0.0616 0.0650 -0.9960
vn 0.0840 0.0697 -0.9940
vn 0.0003 -0.0216 -0.9998
vn -0.0796 -0.0893 -0.9928
vn -0.0821 -0.1114 -0.9904
vn -0.0343 0.0121 -0.9993
vn 0.0779 0.1342 -0.9879
vn 0.0631 0.1082 -0.9921
vn -0.0305 0.0075 -0.9995
vn 0.0475 0.0791 -0.9957
vn -0.0241 0.0014 -0.9997
vn 0.0449 0.0661 -0.9968
vn -0.0189 -0.0034 -0.9998
vn -0.1461 -0.1110 -0.9830
vn -0.1219 -0.0943 -0.9880
vn -0.0949 -0.0766 -0.9925
vn -0.0823 -0.0730 -0.9939
usemtl feather_003
s 1
f 18//1 10//2 3//3 6//4
f 11//5 18//1 6//4 4//6
f 5//7 1//8 7//9 15//10
f 15//10 7//9 8//11 16//12
f 16//12 8//11 9//13 17//14
f 17//14 9//13 10//2 18//1
f 2//15 5//7 15//10 14//16
f 14//16 15//10 16//12 13//17
f 13//17 16//12 17//14 12//18
f 12//18 17//14 18//1 11//5
