# Blender v2.79 (sub 0) OBJ File: 'cockatiel_base_mesh_BI.blend'
# www.blender.org
mtllib cockatiel_feather_flight_secondary_004.mtl
o feather_flight_secondary_004
v 0.066165 0.085649 0.018912
v 0.061714 0.085572 0.018912
v 0.067406 0.061033 0.018912
v 0.061332 0.060927 0.018912
v 0.063917 0.086869 0.019222
v 0.064417 0.058224 0.019222
v 0.067448 0.081500 0.018912
v 0.068559 0.076088 0.018912
v 0.069304 0.070669 0.018912
v 0.069218 0.065237 0.018912
v 0.059374 0.065065 0.018912
v 0.059099 0.070491 0.018912
v 0.059654 0.075932 0.018912
v 0.060576 0.081380 0.018912
v 0.064012 0.081440 0.019222
v 0.064107 0.076010 0.019222
v 0.064201 0.070580 0.019222
v 0.064296 0.065151 0.019222
vn -0.0001 0.0075 -1.0000
vn -0.0704 0.0052 -0.9975
vn -0.0826 0.0125 -0.9965
vn -0.0002 0.0140 -0.9999
vn 0.0702 0.0077 -0.9975
vn 0.0822 0.0154 -0.9965
vn 0.0002 -0.0142 -0.9999
vn -0.1116 -0.0161 -0.9936
vn -0.0923 -0.0118 -0.9956
vn 0.0002 -0.0107 -0.9999
vn -0.0707 -0.0067 -0.9975
vn 0.0001 -0.0056 -1.0000
vn -0.0631 -0.0024 -0.9980
vn 0.0000 -0.0014 -1.0000
vn 0.1121 -0.0121 -0.9936
vn 0.0927 -0.0086 -0.9956
vn 0.0709 -0.0042 -0.9975
vn 0.0632 -0.0002 -0.9980
usemtl feather_004
s 1
f 18//1 10//2 3//3 6//4
f 11//5 18//1 6//4 4//6
f 5//7 1//8 7//9 15//10
f 15//10 7//9 8//11 16//12
f 16//12 8//11 9//13 17//14
f 17//14 9//13 10//2 18//1
f 2//15 5//7 15//10 14//16
f 14//16 15//10 16//12 13//17
f 13//17 16//12 17//14 12//18
f 12//18 17//14 18//1 11//5
