# Blender v2.79 (sub 0) OBJ File: 'duck_base_mesh_BI.blend'
# www.blender.org
mtllib duck_feather_flight_tertiary_047.mtl
o feather_flight_tertiary_047
v 0.209186 0.181838 0.031404
v 0.202754 0.181081 0.031392
v 0.213397 0.156249 0.031300
v 0.204620 0.155214 0.031283
v 0.205814 0.182771 0.030771
v 0.209177 0.154297 0.030652
v 0.211449 0.177688 0.031389
v 0.213588 0.172189 0.031369
v 0.215197 0.166629 0.031347
v 0.215606 0.160926 0.031323
v 0.201382 0.159250 0.031296
v 0.200451 0.164891 0.031319
v 0.200721 0.170673 0.031345
v 0.201520 0.176518 0.031371
v 0.206484 0.177100 0.030747
v 0.207153 0.171428 0.030724
v 0.207823 0.165756 0.030700
v 0.208493 0.160085 0.030677
vn 0.0032 -0.0117 -0.9999
vn 0.0986 0.0028 -0.9951
vn 0.1164 -0.0125 -0.9931
vn 0.0049 -0.0258 -0.9996
vn -0.0930 -0.0198 -0.9955
vn -0.1068 -0.0389 -0.9935
vn -0.0020 0.0316 -0.9995
vn 0.1531 0.0496 -0.9870
vn 0.1262 0.0385 -0.9912
vn -0.0012 0.0251 -0.9997
vn 0.0982 0.0262 -0.9948
vn 0.0000 0.0151 -0.9999
vn 0.0889 0.0172 -0.9959
vn 0.0010 0.0070 -1.0000
vn -0.1570 0.0130 -0.9875
vn -0.1281 0.0085 -0.9917
vn -0.0981 0.0030 -0.9951
vn -0.0869 -0.0035 -0.9962
usemtl feather_001
s 1
f 18//1 10//2 3//3 6//4
f 11//5 18//1 6//4 4//6
f 5//7 1//8 7//9 15//10
f 15//10 7//9 8//11 16//12
f 16//12 8//11 9//13 17//14
f 17//14 9//13 10//2 18//1
f 2//15 5//7 15//10 14//16
f 14//16 15//10 16//12 13//17
f 13//17 16//12 17//14 12//18
f 12//18 17//14 18//1 11//5
