# Blender v2.79 (sub 0) OBJ File: 'duck_base_mesh_BI.blend'
# www.blender.org
mtllib duck_feather_flight_tertiary_054.mtl
o feather_flight_tertiary_054
v 0.271735 0.182791 0.031424
v 0.265509 0.180192 0.031376
v 0.283300 0.158354 0.031331
v 0.274803 0.154808 0.031266
v 0.268085 0.182760 0.030772
v 0.279627 0.155191 0.030659
v 0.275194 0.179279 0.031420
v 0.278916 0.174382 0.031408
v 0.282124 0.169270 0.031393
v 0.284170 0.163673 0.031368
v 0.270400 0.157926 0.031263
v 0.267848 0.163311 0.031283
v 0.266458 0.169182 0.031312
v 0.265582 0.175267 0.031346
v 0.270384 0.177268 0.030749
v 0.272683 0.171777 0.030727
v 0.274982 0.166286 0.030705
v 0.277281 0.160794 0.030682
vn 0.0109 -0.0081 -0.9999
vn 0.0952 0.0305 -0.9950
vn 0.1156 0.0211 -0.9930
vn 0.0163 -0.0207 -0.9996
vn -0.0757 -0.0410 -0.9963
vn -0.0835 -0.0623 -0.9945
vn -0.0054 0.0305 -0.9995
vn 0.1331 0.0880 -0.9872
vn 0.1112 0.0707 -0.9913
vn -0.0028 0.0246 -0.9997
vn 0.0887 0.0520 -0.9947
vn 0.0009 0.0158 -0.9998
vn 0.0824 0.0412 -0.9957
vn 0.0040 0.0086 -0.9999
vn -0.1438 -0.0277 -0.9892
vn -0.1158 -0.0242 -0.9930
vn -0.0865 -0.0213 -0.9960
vn -0.0744 -0.0244 -0.9969
usemtl feather_001
s 1
f 18//1 10//2 3//3 6//4
f 11//5 18//1 6//4 4//6
f 5//7 1//8 7//9 15//10
f 15//10 7//9 8//11 16//12
f 16//12 8//11 9//13 17//14
f 17//14 9//13 10//2 18//1
f 2//15 5//7 15//10 14//16
f 14//16 15//10 16//12 13//17
f 13//17 16//12 17//14 12//18
f 12//18 17//14 18//1 11//5
