# Blender v2.79 (sub 0) OBJ File: 'duck_base_mesh_BI.blend'
# www.blender.org
mtllib duck_feather_flight_primary_016.mtl
o feather_flight_primary_016
v 0.370993 0.187193 0.032302
v 0.368493 0.175432 0.032302
v 0.506860 0.160555 0.032302
v 0.498651 0.144484 0.032302
v 0.362822 0.182784 0.032935
v 0.506595 0.152224 0.032935
v 0.394602 0.185516 0.032302
v 0.425024 0.181859 0.032302
v 0.455239 0.177231 0.032302
v 0.484989 0.170409 0.032302
v 0.479460 0.144399 0.032302
v 0.449508 0.150267 0.032302
v 0.420022 0.158329 0.032302
v 0.390743 0.167361 0.032302
v 0.392673 0.176439 0.032935
v 0.422523 0.170094 0.032935
v 0.452374 0.163749 0.032935
v 0.482224 0.157404 0.032935
vn -0.0031 0.0002 -1.0000
vn -0.0139 -0.0506 -0.9986
vn -0.0184 -0.0566 -0.9982
vn -0.0080 -0.0094 -0.9999
vn 0.0081 0.0511 -0.9987
vn 0.0067 0.0574 -0.9983
vn 0.0050 -0.0011 -1.0000
vn -0.0126 -0.0840 -0.9964
vn -0.0110 -0.0703 -0.9974
vn 0.0038 -0.0008 -1.0000
vn -0.0092 -0.0531 -0.9985
vn 0.0020 -0.0004 -1.0000
vn -0.0094 -0.0468 -0.9988
vn 0.0005 -0.0001 -1.0000
vn 0.0226 0.0819 -0.9964
vn 0.0185 0.0688 -0.9974
vn 0.0132 0.0522 -0.9985
vn 0.0104 0.0466 -0.9988
usemtl feather_gray_003
s 1
f 18//1 10//2 3//3 6//4
f 11//5 18//1 6//4 4//6
f 5//7 1//8 7//9 15//10
f 15//10 7//9 8//11 16//12
f 16//12 8//11 9//13 17//14
f 17//14 9//13 10//2 18//1
f 2//15 5//7 15//10 14//16
f 14//16 15//10 16//12 13//17
f 13//17 16//12 17//14 12//18
f 12//18 17//14 18//1 11//5
