# Blender v2.79 (sub 0) OBJ File: 'duck_base_mesh_BI.blend'
# www.blender.org
mtllib duck_feather_flight_tertiary_058.mtl
o feather_flight_tertiary_058
v 0.306347 0.183929 0.031405
v 0.301323 0.179448 0.031405
v 0.326239 0.163473 0.031405
v 0.319384 0.157358 0.031405
v 0.302865 0.182776 0.030772
v 0.323867 0.159232 0.030772
v 0.310926 0.181545 0.031405
v 0.316257 0.177879 0.031405
v 0.321173 0.173844 0.031405
v 0.325153 0.168972 0.031405
v 0.314043 0.159063 0.031405
v 0.309656 0.163571 0.031405
v 0.306206 0.168914 0.031405
v 0.303171 0.174628 0.031405
v 0.307048 0.178087 0.030772
v 0.311231 0.173397 0.030772
v 0.315415 0.168707 0.030772
v 0.319598 0.164018 0.030772
vn 0.0098 -0.0109 -0.9999
vn 0.0772 0.0530 -0.9956
vn 0.0989 0.0515 -0.9937
vn 0.0183 -0.0206 -0.9996
vn -0.0615 -0.0707 -0.9956
vn -0.0624 -0.0924 -0.9937
vn -0.0167 0.0187 -0.9997
vn 0.0957 0.1185 -0.9883
vn 0.0804 0.0954 -0.9922
vn -0.0126 0.0142 -0.9998
vn 0.0647 0.0704 -0.9954
vn -0.0066 0.0074 -0.9999
vn 0.0620 0.0584 -0.9963
vn -0.0016 0.0019 -1.0000
vn -0.1286 -0.0816 -0.9883
vn -0.1039 -0.0690 -0.9922
vn -0.0773 -0.0563 -0.9954
vn -0.0651 -0.0549 -0.9963
usemtl feather_001
s 1
f 18//1 10//2 3//3 6//4
f 11//5 18//1 6//4 4//6
f 5//7 1//8 7//9 15//10
f 15//10 7//9 8//11 16//12
f 16//12 8//11 9//13 17//14
f 17//14 9//13 10//2 18//1
f 2//15 5//7 15//10 14//16
f 14//16 15//10 16//12 13//17
f 13//17 16//12 17//14 12//18
f 12//18 17//14 18//1 11//5
