# Blender v2.79 (sub 0) OBJ File: 'duck_base_mesh_BI.blend'
# www.blender.org
mtllib duck_feather_flight_tertiary_018.mtl
o feather_flight_tertiary_018
v 0.237065 0.182069 0.033900
v 0.230256 0.180696 0.033913
v 0.243808 0.155081 0.034013
v 0.234516 0.153207 0.034031
v 0.233378 0.182771 0.034534
v 0.239467 0.152625 0.034662
v 0.239847 0.177830 0.033916
v 0.242616 0.172139 0.033939
v 0.244823 0.166335 0.033962
v 0.245760 0.160275 0.033988
v 0.230701 0.157238 0.034017
v 0.229212 0.163186 0.033992
v 0.228993 0.169391 0.033965
v 0.229336 0.175710 0.033936
v 0.234591 0.176767 0.034559
v 0.235804 0.170762 0.034585
v 0.237017 0.164758 0.034610
v 0.238230 0.158753 0.034636
vn -0.0039 0.0103 -0.9999
vn -0.0915 -0.0105 -0.9957
vn -0.1093 0.0024 -0.9940
vn -0.0066 0.0233 -0.9997
vn 0.0849 0.0251 -0.9961
vn 0.0963 0.0439 -0.9944
vn 0.0042 -0.0296 -0.9995
vn -0.1387 -0.0581 -0.9886
vn -0.1145 -0.0457 -0.9923
vn 0.0029 -0.0235 -0.9997
vn -0.0894 -0.0322 -0.9955
vn 0.0010 -0.0144 -0.9999
vn -0.0814 -0.0231 -0.9964
vn -0.0004 -0.0070 -1.0000
vn 0.1470 -0.0004 -0.9891
vn 0.1198 0.0015 -0.9928
vn 0.0914 0.0043 -0.9958
vn 0.0804 0.0096 -0.9967
usemtl feather_001
s 1
f 18//1 10//2 3//3 6//4
f 11//5 18//1 6//4 4//6
f 5//7 1//8 7//9 15//10
f 15//10 7//9 8//11 16//12
f 16//12 8//11 9//13 17//14
f 17//14 9//13 10//2 18//1
f 2//15 5//7 15//10 14//16
f 14//16 15//10 16//12 13//17
f 13//17 16//12 17//14 12//18
f 12//18 17//14 18//1 11//5
