# Blender v2.79 (sub 0) OBJ File: 'duck_base_mesh_BI.blend'
# www.blender.org
mtllib duck_feather_flight_primary_009.mtl
o feather_flight_primary_009
v 0.235723 0.178943 0.032302
v 0.224367 0.175900 0.032302
v 0.265856 0.074766 0.032302
v 0.248447 0.073902 0.032302
v 0.228611 0.182774 0.032935
v 0.258406 0.071575 0.032935
v 0.243562 0.162035 0.032302
v 0.252343 0.139643 0.032302
v 0.260188 0.117000 0.032302
v 0.265913 0.093789 0.032302
v 0.240799 0.087059 0.032302
v 0.234151 0.110023 0.032302
v 0.229623 0.133555 0.032302
v 0.226032 0.157338 0.032302
v 0.234797 0.159687 0.032935
v 0.240983 0.136599 0.032935
v 0.247169 0.113512 0.032935
v 0.253356 0.090424 0.032935
vn -0.0014 0.0037 -1.0000
vn -0.0526 -0.0101 -0.9985
vn -0.0605 -0.0080 -0.9981
vn -0.0107 0.0049 -0.9999
vn 0.0501 0.0169 -0.9986
vn 0.0551 0.0219 -0.9982
vn 0.0017 -0.0063 -1.0000
vn -0.0821 -0.0288 -0.9962
vn -0.0687 -0.0234 -0.9973
vn 0.0013 -0.0048 -1.0000
vn -0.0525 -0.0167 -0.9985
vn 0.0007 -0.0025 -1.0000
vn -0.0470 -0.0132 -0.9988
vn 0.0002 -0.0006 -1.0000
vn 0.0855 0.0161 -0.9962
vn 0.0713 0.0141 -0.9973
vn 0.0538 0.0117 -0.9985
vn 0.0474 0.0120 -0.9988
usemtl feather_gray_003
s 1
f 18//1 10//2 3//3 6//4
f 11//5 18//1 6//4 4//6
f 5//7 1//8 7//9 15//10
f 15//10 7//9 8//11 16//12
f 16//12 8//11 9//13 17//14
f 17//14 9//13 10//2 18//1
f 2//15 5//7 15//10 14//16
f 14//16 15//10 16//12 13//17
f 13//17 16//12 17//14 12//18
f 12//18 17//14 18//1 11//5
