# Blender v2.79 (sub 0) OBJ File: 'duck_base_mesh_BI.blend'
# www.blender.org
mtllib duck_feather_flight_primary_002.mtl
o feather_flight_primary_002
v 0.107651 0.178645 0.032302
v 0.098892 0.178645 0.032302
v 0.109248 0.097858 0.032302
v 0.097294 0.103471 0.032302
v 0.103271 0.182774 0.032935
v 0.103271 0.098977 0.032935
v 0.110033 0.164965 0.032302
v 0.112034 0.147156 0.032302
v 0.113313 0.129347 0.032302
v 0.112958 0.111538 0.032302
v 0.093585 0.111538 0.032302
v 0.093230 0.129347 0.032302
v 0.094508 0.147156 0.032302
v 0.096510 0.164965 0.032302
v 0.103271 0.164965 0.032935
v 0.103271 0.147156 0.032935
v 0.103271 0.129347 0.032935
v 0.103271 0.111538 0.032935
vn 0.0013 0.0070 -1.0000
vn -0.0711 0.0054 -0.9974
vn -0.0797 0.0113 -0.9967
vn -0.0228 0.0127 -0.9996
vn 0.0727 0.0067 -0.9973
vn 0.0849 0.0153 -0.9962
vn 0.0000 -0.0088 -0.9999
vn -0.1161 -0.0088 -0.9932
vn -0.0971 -0.0065 -0.9952
vn 0.0000 -0.0067 -1.0000
vn -0.0738 -0.0034 -0.9973
vn 0.0000 -0.0035 -1.0000
vn -0.0656 -0.0009 -0.9978
vn 0.0000 -0.0009 -1.0000
vn 0.1161 -0.0088 -0.9932
vn 0.0971 -0.0065 -0.9952
vn 0.0738 -0.0034 -0.9973
vn 0.0656 -0.0009 -0.9978
usemtl feather_gray_003
s 1
f 18//1 10//2 3//3 6//4
f 11//5 18//1 6//4 4//6
f 5//7 1//8 7//9 15//10
f 15//10 7//9 8//11 16//12
f 16//12 8//11 9//13 17//14
f 17//14 9//13 10//2 18//1
f 2//15 5//7 15//10 14//16
f 14//16 15//10 16//12 13//17
f 13//17 16//12 17//14 12//18
f 12//18 17//14 18//1 11//5
