# Blender v2.79 (sub 0) OBJ File: 'duck_base_mesh_BI.blend'
# www.blender.org
mtllib duck_feather_flight_tertiary_029.mtl
o feather_flight_tertiary_029
v 0.338314 0.184198 0.033955
v 0.335576 0.179638 0.033874
v 0.364913 0.169133 0.034246
v 0.361176 0.162910 0.034136
v 0.335624 0.182737 0.034536
v 0.364509 0.165144 0.034842
v 0.343478 0.182746 0.034023
v 0.349858 0.180284 0.034103
v 0.356011 0.177445 0.034176
v 0.361653 0.173756 0.034234
v 0.355597 0.163671 0.034055
v 0.349732 0.166990 0.033990
v 0.344379 0.171160 0.033941
v 0.339251 0.175706 0.033898
v 0.341378 0.179233 0.034597
v 0.347131 0.175729 0.034658
v 0.352885 0.172225 0.034719
v 0.358638 0.168720 0.034780
vn 0.0036 0.0149 -0.9999
vn -0.0564 -0.0874 -0.9946
vn -0.0780 -0.0960 -0.9923
vn -0.0063 0.0218 -0.9997
vn 0.0670 0.1153 -0.9911
vn 0.0645 0.1377 -0.9883
vn 0.0350 -0.0050 -0.9994
vn -0.0639 -0.1667 -0.9839
vn -0.0525 -0.1359 -0.9893
vn 0.0305 -0.0015 -0.9995
vn -0.0399 -0.1001 -0.9941
vn 0.0234 0.0031 -0.9997
vn -0.0388 -0.0854 -0.9956
vn 0.0175 0.0068 -0.9998
vn 0.1329 0.1572 -0.9785
vn 0.1111 0.1334 -0.9848
vn 0.0858 0.1065 -0.9906
vn 0.0734 0.0990 -0.9924
usemtl feather_001
s 1
f 18//1 10//2 3//3 6//4
f 11//5 18//1 6//4 4//6
f 5//7 1//8 7//9 15//10
f 15//10 7//9 8//11 16//12
f 16//12 8//11 9//13 17//14
f 17//14 9//13 10//2 18//1
f 2//15 5//7 15//10 14//16
f 14//16 15//10 16//12 13//17
f 13//17 16//12 17//14 12//18
f 12//18 17//14 18//1 11//5
