# Blender v2.79 (sub 0) OBJ File: 'duck_base_mesh_BI.blend'
# www.blender.org
mtllib duck_feather_flight_secondary_014.mtl
o feather_flight_secondary_014
v 0.323220 0.184850 0.033180
v 0.316907 0.176337 0.032996
v 0.381064 0.144535 0.033003
v 0.369994 0.133615 0.032743
v 0.317172 0.182747 0.033734
v 0.377366 0.138295 0.033510
v 0.334536 0.180074 0.033195
v 0.348476 0.172790 0.033190
v 0.361896 0.164803 0.033170
v 0.374137 0.155229 0.033116
v 0.360175 0.136403 0.032709
v 0.347421 0.145287 0.032748
v 0.335845 0.155759 0.032821
v 0.324790 0.166934 0.032910
v 0.329670 0.173518 0.033688
v 0.342168 0.164288 0.033641
v 0.354665 0.155059 0.033595
v 0.367163 0.145830 0.033548
vn 0.0027 0.0189 -0.9998
vn -0.0320 -0.0286 -0.9991
vn -0.0421 -0.0313 -0.9986
vn -0.0059 0.0164 -0.9998
vn 0.0386 0.0656 -0.9971
vn 0.0382 0.0746 -0.9965
vn 0.0161 0.0097 -0.9998
vn -0.0415 -0.0683 -0.9968
vn -0.0339 -0.0533 -0.9980
vn 0.0139 0.0109 -0.9998
vn -0.0253 -0.0359 -0.9990
vn 0.0110 0.0132 -0.9998
vn -0.0237 -0.0287 -0.9993
vn 0.0087 0.0150 -0.9998
vn 0.0731 0.0870 -0.9935
vn 0.0613 0.0756 -0.9952
vn 0.0473 0.0624 -0.9969
vn 0.0409 0.0588 -0.9974
usemtl feather_gray_002
s 1
f 18//1 10//2 3//3 6//4
f 11//5 18//1 6//4 4//6
f 5//7 1//8 7//9 15//10
f 15//10 7//9 8//11 16//12
f 16//12 8//11 9//13 17//14
f 17//14 9//13 10//2 18//1
f 2//15 5//7 15//10 14//16
f 14//16 15//10 16//12 13//17
f 13//17 16//12 17//14 12//18
f 12//18 17//14 18//1 11//5
