# Blender v2.79 (sub 0) OBJ File: 'duck_base_mesh_BI.blend'
# www.blender.org
mtllib duck_feather_flight_tertiary_049.mtl
o feather_flight_tertiary_049
v 0.228447 0.181808 0.031405
v 0.222390 0.181107 0.031386
v 0.232576 0.155962 0.031247
v 0.224310 0.155005 0.031220
v 0.225262 0.182780 0.030771
v 0.228609 0.154034 0.030591
v 0.230606 0.177600 0.031383
v 0.232657 0.172035 0.031352
v 0.234208 0.166411 0.031319
v 0.234629 0.160657 0.031282
v 0.221233 0.159107 0.031240
v 0.220320 0.164804 0.031275
v 0.220538 0.170632 0.031313
v 0.221255 0.176518 0.031353
v 0.225929 0.177054 0.030735
v 0.226596 0.171328 0.030699
v 0.227262 0.165603 0.030663
v 0.227929 0.159877 0.030628
vn 0.0042 -0.0094 -0.9999
vn 0.1057 0.0055 -0.9944
vn 0.1242 -0.0094 -0.9922
vn 0.0059 -0.0233 -0.9997
vn -0.0981 -0.0182 -0.9950
vn -0.1127 -0.0370 -0.9929
vn -0.0009 0.0336 -0.9994
vn 0.1635 0.0522 -0.9851
vn 0.1353 0.0413 -0.9899
vn -0.0001 0.0270 -0.9996
vn 0.1055 0.0289 -0.9940
vn 0.0011 0.0172 -0.9998
vn 0.0954 0.0199 -0.9952
vn 0.0020 0.0092 -0.9999
vn -0.1653 0.0140 -0.9861
vn -0.1353 0.0098 -0.9908
vn -0.1032 0.0046 -0.9946
vn -0.0913 -0.0018 -0.9958
usemtl feather_001
s 1
f 18//1 10//2 3//3 6//4
f 11//5 18//1 6//4 4//6
f 5//7 1//8 7//9 15//10
f 15//10 7//9 8//11 16//12
f 16//12 8//11 9//13 17//14
f 17//14 9//13 10//2 18//1
f 2//15 5//7 15//10 14//16
f 14//16 15//10 16//12 13//17
f 13//17 16//12 17//14 12//18
f 12//18 17//14 18//1 11//5
