# Blender v2.79 (sub 0) OBJ File: 'duck_base_mesh_BI.blend'
# www.blender.org
mtllib duck_feather_flight_secondary_018.mtl
o feather_flight_secondary_018
v 0.107585 0.180334 0.032116
v 0.098958 0.180334 0.032116
v 0.109158 0.132595 0.032116
v 0.096654 0.134211 0.032116
v 0.103271 0.182774 0.031483
v 0.103271 0.132087 0.031483
v 0.109930 0.172250 0.032116
v 0.111902 0.161726 0.032116
v 0.113161 0.151203 0.032116
v 0.112811 0.140679 0.032116
v 0.093732 0.140679 0.032116
v 0.093381 0.151203 0.032116
v 0.094641 0.161726 0.032116
v 0.096612 0.172250 0.032116
v 0.103271 0.172250 0.031483
v 0.103271 0.161726 0.031483
v 0.103271 0.151203 0.031483
v 0.103271 0.140679 0.031483
vn 0.0005 -0.0089 -0.9999
vn 0.0722 -0.0081 -0.9973
vn 0.0823 -0.0180 -0.9964
vn 0.0078 -0.0169 -0.9998
vn -0.0713 -0.0071 -0.9974
vn -0.0801 -0.0155 -0.9966
vn 0.0000 0.0150 -0.9999
vn 0.1178 0.0148 -0.9929
vn 0.0975 0.0107 -0.9952
vn 0.0000 0.0113 -0.9999
vn 0.0746 0.0057 -0.9972
vn 0.0000 0.0059 -1.0000
vn 0.0665 0.0014 -0.9978
vn 0.0000 0.0015 -1.0000
vn -0.1178 0.0148 -0.9929
vn -0.0975 0.0107 -0.9952
vn -0.0746 0.0057 -0.9972
vn -0.0665 0.0014 -0.9978
usemtl feather_gray_002
s 1
f 18//1 10//2 3//3 6//4
f 11//5 18//1 6//4 4//6
f 5//7 1//8 7//9 15//10
f 15//10 7//9 8//11 16//12
f 16//12 8//11 9//13 17//14
f 17//14 9//13 10//2 18//1
f 2//15 5//7 15//10 14//16
f 14//16 15//10 16//12 13//17
f 13//17 16//12 17//14 12//18
f 12//18 17//14 18//1 11//5
