# Blender v2.79 (sub 0) OBJ File: 'duck_base_mesh_BI.blend'
# www.blender.org
mtllib duck_feather_flight_secondary_001.mtl
o feather_flight_secondary_001
v 0.091432 0.180513 0.033099
v 0.083437 0.180513 0.033099
v 0.092889 0.136274 0.033099
v 0.081302 0.137772 0.033099
v 0.087434 0.182774 0.033732
v 0.087434 0.135803 0.033732
v 0.093605 0.173022 0.033099
v 0.095432 0.163270 0.033099
v 0.096599 0.153517 0.033099
v 0.096275 0.143765 0.033099
v 0.078594 0.143765 0.033099
v 0.078269 0.153517 0.033099
v 0.079436 0.163270 0.033099
v 0.081263 0.173022 0.033099
v 0.087434 0.173022 0.033732
v 0.087434 0.163270 0.033732
v 0.087434 0.153517 0.033732
v 0.087434 0.143765 0.033732
vn -0.0006 0.0096 -0.9999
vn -0.0779 0.0088 -0.9969
vn -0.0888 0.0194 -0.9958
vn -0.0084 0.0183 -0.9998
vn 0.0769 0.0077 -0.9970
vn 0.0864 0.0168 -0.9961
vn 0.0000 -0.0161 -0.9998
vn -0.1270 -0.0160 -0.9918
vn -0.1051 -0.0116 -0.9944
vn 0.0000 -0.0122 -0.9999
vn -0.0805 -0.0062 -0.9967
vn 0.0000 -0.0064 -1.0000
vn -0.0718 -0.0015 -0.9974
vn 0.0000 -0.0016 -1.0000
vn 0.1270 -0.0160 -0.9918
vn 0.1051 -0.0116 -0.9944
vn 0.0805 -0.0062 -0.9967
vn 0.0718 -0.0015 -0.9974
usemtl feather_gray_002
s 1
f 18//1 10//2 3//3 6//4
f 11//5 18//1 6//4 4//6
f 5//7 1//8 7//9 15//10
f 15//10 7//9 8//11 16//12
f 16//12 8//11 9//13 17//14
f 17//14 9//13 10//2 18//1
f 2//15 5//7 15//10 14//16
f 14//16 15//10 16//12 13//17
f 13//17 16//12 17//14 12//18
f 12//18 17//14 18//1 11//5
