# Blender v2.79 (sub 0) OBJ File: 'duck_base_mesh_BI.blend'
# www.blender.org
mtllib duck_feather_flight_tertiary_021.mtl
o feather_flight_tertiary_021
v 0.262431 0.182440 0.033882
v 0.256274 0.180361 0.033928
v 0.272658 0.155936 0.033980
v 0.264255 0.153099 0.034042
v 0.258883 0.182770 0.034533
v 0.268959 0.153017 0.034650
v 0.265647 0.178453 0.033888
v 0.269061 0.173001 0.033901
v 0.271967 0.167379 0.033917
v 0.273724 0.161368 0.033943
v 0.260106 0.156771 0.034043
v 0.257849 0.162613 0.034022
v 0.256741 0.168843 0.033992
v 0.256142 0.175244 0.033958
v 0.260890 0.176844 0.034557
v 0.262897 0.170918 0.034580
v 0.264904 0.164991 0.034603
v 0.266911 0.159065 0.034626
vn -0.0100 0.0082 -0.9999
vn -0.1004 -0.0253 -0.9946
vn -0.1201 -0.0155 -0.9926
vn -0.0143 0.0205 -0.9997
vn 0.0822 0.0366 -0.9959
vn 0.0920 0.0564 -0.9941
vn 0.0029 -0.0295 -0.9995
vn -0.1445 -0.0790 -0.9863
vn -0.1208 -0.0635 -0.9906
vn 0.0009 -0.0237 -0.9997
vn -0.0957 -0.0464 -0.9943
vn -0.0021 -0.0151 -0.9999
vn -0.0881 -0.0362 -0.9954
vn -0.0045 -0.0081 -0.9999
vn 0.1503 0.0207 -0.9884
vn 0.1218 0.0185 -0.9924
vn 0.0912 0.0169 -0.9957
vn 0.0790 0.0203 -0.9966
usemtl feather_001
s 1
f 18//1 10//2 3//3 6//4
f 11//5 18//1 6//4 4//6
f 5//7 1//8 7//9 15//10
f 15//10 7//9 8//11 16//12
f 16//12 8//11 9//13 17//14
f 17//14 9//13 10//2 18//1
f 2//15 5//7 15//10 14//16
f 14//16 15//10 16//12 13//17
f 13//17 16//12 17//14 12//18
f 12//18 17//14 18//1 11//5
