# Blender v2.79 (sub 0) OBJ File: 'duck_base_mesh_BI.blend'
# www.blender.org
mtllib duck_feather_flight_tertiary_033.mtl
o feather_flight_tertiary_033
v 0.087012 0.181614 0.031273
v 0.080593 0.181614 0.031273
v 0.088183 0.158912 0.031273
v 0.079422 0.158912 0.031273
v 0.083802 0.182774 0.030607
v 0.083802 0.157649 0.030607
v 0.088758 0.177770 0.031273
v 0.090225 0.172765 0.031273
v 0.091162 0.167761 0.031273
v 0.090901 0.162756 0.031273
v 0.076704 0.162756 0.031273
v 0.076443 0.167761 0.031273
v 0.077380 0.172765 0.031273
v 0.078847 0.177770 0.031273
v 0.083802 0.177770 0.030607
v 0.083802 0.172765 0.030607
v 0.083802 0.167761 0.030607
v 0.083802 0.162756 0.030607
vn 0.0000 -0.0194 -0.9998
vn 0.1019 -0.0149 -0.9947
vn 0.1191 -0.0362 -0.9922
vn 0.0000 -0.0364 -0.9993
vn -0.1019 -0.0149 -0.9947
vn -0.1191 -0.0362 -0.9922
vn 0.0000 0.0331 -0.9995
vn 0.1654 0.0326 -0.9857
vn 0.1351 0.0230 -0.9905
vn 0.0000 0.0251 -0.9997
vn 0.1047 0.0124 -0.9944
vn 0.0000 0.0131 -0.9999
vn 0.0939 0.0030 -0.9956
vn 0.0000 0.0033 -1.0000
vn -0.1654 0.0326 -0.9857
vn -0.1351 0.0230 -0.9905
vn -0.1047 0.0124 -0.9944
vn -0.0939 0.0030 -0.9956
usemtl feather_001
s 1
f 18//1 10//2 3//3 6//4
f 11//5 18//1 6//4 4//6
f 5//7 1//8 7//9 15//10
f 15//10 7//9 8//11 16//12
f 16//12 8//11 9//13 17//14
f 17//14 9//13 10//2 18//1
f 2//15 5//7 15//10 14//16
f 14//16 15//10 16//12 13//17
f 13//17 16//12 17//14 12//18
f 12//18 17//14 18//1 11//5
