# Blender v2.79 (sub 0) OBJ File: 'duck_base_mesh_BI.blend'
# www.blender.org
mtllib duck_feather_flight_tertiary_032.mtl
o feather_flight_tertiary_032
v 0.367793 0.184912 0.033980
v 0.366809 0.180034 0.033904
v 0.395263 0.180122 0.034217
v 0.393920 0.173466 0.034115
v 0.365915 0.182773 0.034536
v 0.396118 0.176488 0.034784
v 0.372681 0.185276 0.034038
v 0.378922 0.185139 0.034104
v 0.385082 0.184599 0.034165
v 0.391058 0.183149 0.034211
v 0.388882 0.172362 0.034045
v 0.382826 0.173416 0.033993
v 0.376954 0.175380 0.033954
v 0.371163 0.177746 0.033922
v 0.371931 0.181521 0.034585
v 0.377947 0.180270 0.034635
v 0.383963 0.179018 0.034684
v 0.389979 0.177766 0.034733
vn -0.0032 0.0154 -0.9998
vn -0.0258 -0.1031 -0.9943
vn -0.0440 -0.1187 -0.9919
vn -0.0154 0.0187 -0.9997
vn 0.0234 0.1332 -0.9908
vn 0.0130 0.1541 -0.9879
vn 0.0346 0.0068 -0.9994
vn -0.0051 -0.1819 -0.9833
vn -0.0048 -0.1483 -0.9889
vn 0.0289 0.0086 -0.9995
vn -0.0051 -0.1099 -0.9939
vn 0.0203 0.0107 -0.9997
vn -0.0092 -0.0953 -0.9954
vn 0.0132 0.0123 -0.9998
vn 0.0731 0.1958 -0.9779
vn 0.0602 0.1654 -0.9844
vn 0.0449 0.1312 -0.9903
vn 0.0354 0.1198 -0.9922
usemtl feather_001
s 1
f 18//1 10//2 3//3 6//4
f 11//5 18//1 6//4 4//6
f 5//7 1//8 7//9 15//10
f 15//10 7//9 8//11 16//12
f 16//12 8//11 9//13 17//14
f 17//14 9//13 10//2 18//1
f 2//15 5//7 15//10 14//16
f 14//16 15//10 16//12 13//17
f 13//17 16//12 17//14 12//18
f 12//18 17//14 18//1 11//5
