# Blender v2.79 (sub 0) OBJ File: 'duck_base_mesh_BI.blend'
# www.blender.org
mtllib duck_feather_flight_tertiary_020.mtl
o feather_flight_tertiary_020
v 0.255314 0.182404 0.033900
v 0.248590 0.180687 0.033900
v 0.262681 0.158673 0.033900
v 0.253504 0.156330 0.033900
v 0.251638 0.182774 0.034533
v 0.258434 0.156164 0.034533
v 0.258182 0.178800 0.033900
v 0.261072 0.173892 0.033900
v 0.263407 0.168842 0.033900
v 0.264488 0.163472 0.033900
v 0.249617 0.159674 0.033900
v 0.247991 0.164905 0.033900
v 0.247619 0.170456 0.033900
v 0.247802 0.176149 0.033900
v 0.252992 0.177474 0.034533
v 0.254345 0.172174 0.034533
v 0.255699 0.166873 0.034533
v 0.257053 0.161573 0.034533
vn -0.0042 0.0163 -0.9998
vn -0.0902 -0.0096 -0.9959
vn -0.1094 0.0045 -0.9940
vn -0.0078 0.0307 -0.9995
vn 0.0837 0.0348 -0.9959
vn 0.0938 0.0565 -0.9940
vn 0.0071 -0.0279 -0.9996
vn -0.1343 -0.0637 -0.9889
vn -0.1104 -0.0489 -0.9927
vn 0.0054 -0.0211 -0.9998
vn -0.0866 -0.0333 -0.9957
vn 0.0028 -0.0110 -0.9999
vn -0.0793 -0.0230 -0.9966
vn 0.0007 -0.0028 -1.0000
vn 0.1484 0.0085 -0.9889
vn 0.1203 0.0100 -0.9927
vn 0.0920 0.0123 -0.9957
vn 0.0807 0.0179 -0.9966
usemtl feather_001
s 1
f 18//1 10//2 3//3 6//4
f 11//5 18//1 6//4 4//6
f 5//7 1//8 7//9 15//10
f 15//10 7//9 8//11 16//12
f 16//12 8//11 9//13 17//14
f 17//14 9//13 10//2 18//1
f 2//15 5//7 15//10 14//16
f 14//16 15//10 16//12 13//17
f 13//17 16//12 17//14 12//18
f 12//18 17//14 18//1 11//5
