# Blender v2.79 (sub 0) OBJ File: 'duck_base_mesh_BI.blend'
# www.blender.org
mtllib duck_feather_flight_tertiary_012.mtl
o feather_flight_tertiary_012
v 0.182578 0.181870 0.033901
v 0.175726 0.181125 0.033901
v 0.186542 0.157028 0.033901
v 0.177192 0.156012 0.033901
v 0.179013 0.182774 0.034533
v 0.182018 0.155131 0.034533
v 0.184900 0.177843 0.033901
v 0.187064 0.172507 0.033901
v 0.188663 0.167110 0.033901
v 0.188984 0.161573 0.033901
v 0.173830 0.159926 0.033901
v 0.172954 0.165402 0.033901
v 0.173356 0.171017 0.033901
v 0.174323 0.176693 0.033901
v 0.179612 0.177268 0.034533
v 0.180210 0.171762 0.034533
v 0.180809 0.166256 0.034533
v 0.181407 0.160750 0.034533
vn -0.0018 0.0165 -0.9998
vn -0.0913 0.0031 -0.9958
vn -0.1083 0.0195 -0.9939
vn -0.0034 0.0311 -0.9995
vn 0.0884 0.0226 -0.9958
vn 0.1016 0.0423 -0.9939
vn 0.0031 -0.0282 -0.9996
vn -0.1429 -0.0438 -0.9887
vn -0.1171 -0.0327 -0.9926
vn 0.0023 -0.0214 -0.9998
vn -0.0911 -0.0206 -0.9956
vn 0.0012 -0.0112 -0.9999
vn -0.0824 -0.0116 -0.9965
vn 0.0003 -0.0028 -1.0000
vn 0.1490 -0.0121 -0.9887
vn 0.1214 -0.0067 -0.9926
vn 0.0934 -0.0006 -0.9956
vn 0.0829 0.0063 -0.9965
usemtl feather_001
s 1
f 18//1 10//2 3//3 6//4
f 11//5 18//1 6//4 4//6
f 5//7 1//8 7//9 15//10
f 15//10 7//9 8//11 16//12
f 16//12 8//11 9//13 17//14
f 17//14 9//13 10//2 18//1
f 2//15 5//7 15//10 14//16
f 14//16 15//10 16//12 13//17
f 13//17 16//12 17//14 12//18
f 12//18 17//14 18//1 11//5
