# Blender v2.79 (sub 0) OBJ File: 'duck_base_mesh_BI.blend'
# www.blender.org
mtllib duck_feather_flight_secondary_020.mtl
o feather_flight_secondary_020
v 0.142841 0.180283 0.032116
v 0.133752 0.180124 0.032116
v 0.145376 0.130014 0.032116
v 0.132173 0.131488 0.032116
v 0.138251 0.182774 0.031483
v 0.139184 0.129371 0.031483
v 0.145461 0.171809 0.032116
v 0.147731 0.160757 0.032116
v 0.149252 0.149693 0.032116
v 0.149077 0.138599 0.032116
v 0.128975 0.138248 0.032116
v 0.128412 0.149329 0.032116
v 0.129546 0.160440 0.032116
v 0.131429 0.171564 0.032116
v 0.138445 0.171687 0.031483
v 0.138638 0.160599 0.031483
v 0.138832 0.149511 0.031483
v 0.139026 0.138423 0.031483
vn 0.0007 -0.0085 -0.9999
vn 0.0687 -0.0065 -0.9976
vn 0.0784 -0.0157 -0.9968
vn 0.0076 -0.0159 -0.9998
vn -0.0675 -0.0079 -0.9977
vn -0.0758 -0.0161 -0.9970
vn -0.0002 0.0142 -0.9999
vn 0.1116 0.0161 -0.9936
vn 0.0923 0.0118 -0.9956
vn -0.0002 0.0107 -0.9999
vn 0.0707 0.0067 -0.9975
vn -0.0001 0.0056 -1.0000
vn 0.0631 0.0024 -0.9980
vn 0.0000 0.0014 -1.0000
vn -0.1121 0.0121 -0.9936
vn -0.0927 0.0086 -0.9956
vn -0.0709 0.0042 -0.9975
vn -0.0632 0.0002 -0.9980
usemtl feather_gray_002
s 1
f 18//1 10//2 3//3 6//4
f 11//5 18//1 6//4 4//6
f 5//7 1//8 7//9 15//10
f 15//10 7//9 8//11 16//12
f 16//12 8//11 9//13 17//14
f 17//14 9//13 10//2 18//1
f 2//15 5//7 15//10 14//16
f 14//16 15//10 16//12 13//17
f 13//17 16//12 17//14 12//18
f 12//18 17//14 18//1 11//5
