# Blender v2.79 (sub 0) OBJ File: 'duck_base_mesh_BI.blend'
# www.blender.org
mtllib duck_feather_flight_primary_007.mtl
o feather_flight_primary_007
v 0.198694 0.178285 0.032302
v 0.187974 0.177158 0.032302
v 0.211039 0.079627 0.032302
v 0.196411 0.083702 0.032302
v 0.192803 0.182774 0.032934
v 0.204303 0.078971 0.032935
v 0.203368 0.161850 0.032302
v 0.208108 0.140314 0.032302
v 0.211964 0.118684 0.032302
v 0.213819 0.096845 0.032302
v 0.190112 0.094353 0.032302
v 0.187386 0.116101 0.032302
v 0.186661 0.138060 0.032302
v 0.186820 0.160111 0.032302
v 0.195094 0.160981 0.032934
v 0.197384 0.139187 0.032934
v 0.199675 0.117393 0.032934
v 0.201966 0.095599 0.032935
vn 0.0006 0.0060 -1.0000
vn -0.0591 -0.0023 -0.9982
vn -0.0680 0.0009 -0.9977
vn -0.0197 0.0082 -0.9998
vn 0.0584 0.0124 -0.9982
vn 0.0677 0.0214 -0.9975
vn 0.0007 -0.0071 -1.0000
vn -0.0933 -0.0170 -0.9955
vn -0.0780 -0.0135 -0.9969
vn 0.0005 -0.0054 -1.0000
vn -0.0594 -0.0090 -0.9982
vn 0.0003 -0.0028 -1.0000
vn -0.0529 -0.0063 -0.9986
vn 0.0001 -0.0007 -1.0000
vn 0.0948 0.0027 -0.9955
vn 0.0791 0.0030 -0.9969
vn 0.0600 0.0035 -0.9982
vn 0.0531 0.0049 -0.9986
usemtl feather_gray_003
s 1
f 18//1 10//2 3//3 6//4
f 11//5 18//1 6//4 4//6
f 5//7 1//8 7//9 15//10
f 15//10 7//9 8//11 16//12
f 16//12 8//11 9//13 17//14
f 17//14 9//13 10//2 18//1
f 2//15 5//7 15//10 14//16
f 14//16 15//10 16//12 13//17
f 13//17 16//12 17//14 12//18
f 12//18 17//14 18//1 11//5
