# Blender v2.79 (sub 0) OBJ File: 'duck_base_mesh_BI.blend'
# www.blender.org
mtllib duck_feather_flight_secondary_026.mtl
o feather_flight_secondary_026
v 0.252480 0.181871 0.032113
v 0.242632 0.178114 0.032093
v 0.275063 0.128120 0.031868
v 0.260087 0.124519 0.031848
v 0.246493 0.182771 0.031483
v 0.268565 0.124974 0.031219
v 0.258677 0.173674 0.032076
v 0.265510 0.162532 0.032026
v 0.271530 0.151081 0.031974
v 0.275713 0.138929 0.031919
v 0.253935 0.130621 0.031874
v 0.248952 0.142468 0.031928
v 0.245808 0.155017 0.031986
v 0.243475 0.167875 0.032045
v 0.251076 0.170771 0.031428
v 0.255658 0.158771 0.031373
v 0.260241 0.146771 0.031318
v 0.264824 0.134771 0.031263
vn 0.0033 -0.0020 -1.0000
vn 0.0579 0.0195 -0.9981
vn 0.0686 0.0149 -0.9975
vn 0.0111 -0.0060 -0.9999
vn -0.0522 -0.0216 -0.9984
vn -0.0566 -0.0307 -0.9979
vn -0.0042 0.0161 -0.9998
vn 0.0862 0.0505 -0.9950
vn 0.0717 0.0414 -0.9966
vn -0.0031 0.0133 -0.9999
vn 0.0557 0.0308 -0.9980
vn -0.0015 0.0092 -0.9999
vn 0.0508 0.0252 -0.9984
vn -0.0002 0.0058 -1.0000
vn -0.0945 -0.0185 -0.9953
vn -0.0776 -0.0156 -0.9969
vn -0.0586 -0.0128 -0.9982
vn -0.0511 -0.0137 -0.9986
usemtl feather_gray_002
s 1
f 18//1 10//2 3//3 6//4
f 11//5 18//1 6//4 4//6
f 5//7 1//8 7//9 15//10
f 15//10 7//9 8//11 16//12
f 16//12 8//11 9//13 17//14
f 17//14 9//13 10//2 18//1
f 2//15 5//7 15//10 14//16
f 14//16 15//10 16//12 13//17
f 13//17 16//12 17//14 12//18
f 12//18 17//14 18//1 11//5
