# Blender v2.79 (sub 0) OBJ File: 'duck_base_mesh_BI.blend'
# www.blender.org
mtllib duck_feather_flight_primary_014.mtl
o feather_flight_primary_014
v 0.326690 0.184717 0.032302
v 0.318572 0.173124 0.032302
v 0.435089 0.111965 0.032302
v 0.419703 0.097698 0.032302
v 0.317166 0.182747 0.032935
v 0.430687 0.103259 0.032935
v 0.347001 0.175191 0.032302
v 0.372426 0.161337 0.032302
v 0.397181 0.146526 0.032302
v 0.420421 0.129552 0.032302
v 0.402469 0.103913 0.032302
v 0.378569 0.119946 0.032302
v 0.356185 0.138142 0.032302
v 0.334470 0.157295 0.032302
v 0.340736 0.166243 0.032935
v 0.364305 0.149740 0.032935
v 0.387875 0.133236 0.032935
v 0.411445 0.116732 0.032935
vn -0.0029 0.0016 -1.0000
vn -0.0281 -0.0346 -0.9990
vn -0.0342 -0.0374 -0.9987
vn -0.0094 -0.0026 -0.9999
vn 0.0229 0.0375 -0.9990
vn 0.0234 0.0433 -0.9988
vn 0.0045 -0.0031 -1.0000
vn -0.0369 -0.0622 -0.9974
vn -0.0313 -0.0516 -0.9982
vn 0.0034 -0.0024 -1.0000
vn -0.0245 -0.0387 -0.9989
vn 0.0018 -0.0012 -1.0000
vn -0.0229 -0.0336 -0.9991
vn 0.0004 -0.0003 -1.0000
vn 0.0458 0.0559 -0.9974
vn 0.0378 0.0470 -0.9982
vn 0.0280 0.0362 -0.9989
vn 0.0237 0.0330 -0.9991
usemtl feather_gray_003
s 1
f 18//1 10//2 3//3 6//4
f 11//5 18//1 6//4 4//6
f 5//7 1//8 7//9 15//10
f 15//10 7//9 8//11 16//12
f 16//12 8//11 9//13 17//14
f 17//14 9//13 10//2 18//1
f 2//15 5//7 15//10 14//16
f 14//16 15//10 16//12 13//17
f 13//17 16//12 17//14 12//18
f 12//18 17//14 18//1 11//5
