# Blender v2.79 (sub 0) OBJ File: 'duck_base_mesh_BI.blend'
# www.blender.org
mtllib duck_feather_flight_tertiary_027.mtl
o feather_flight_tertiary_027
v 0.316352 0.183976 0.033961
v 0.312266 0.179448 0.033867
v 0.338862 0.164875 0.034249
v 0.333286 0.158697 0.034121
v 0.313211 0.182735 0.034536
v 0.337299 0.160682 0.034836
v 0.321149 0.181832 0.034032
v 0.326880 0.178474 0.034114
v 0.332275 0.174743 0.034187
v 0.336907 0.170167 0.034243
v 0.327871 0.160154 0.034035
v 0.322907 0.164362 0.033971
v 0.318705 0.169416 0.033925
v 0.314841 0.174843 0.033887
v 0.318009 0.178342 0.034595
v 0.322807 0.173950 0.034655
v 0.327605 0.169557 0.034715
v 0.332403 0.165165 0.034775
vn 0.0063 0.0144 -0.9998
vn -0.0615 -0.0633 -0.9961
vn -0.0838 -0.0656 -0.9943
vn -0.0024 0.0234 -0.9997
vn 0.0779 0.0891 -0.9930
vn 0.0779 0.1108 -0.9908
vn 0.0343 -0.0121 -0.9993
vn -0.0779 -0.1342 -0.9879
vn -0.0631 -0.1082 -0.9921
vn 0.0305 -0.0075 -0.9995
vn -0.0475 -0.0791 -0.9957
vn 0.0241 -0.0014 -0.9997
vn -0.0449 -0.0661 -0.9968
vn 0.0189 0.0034 -0.9998
vn 0.1461 0.1110 -0.9830
vn 0.1219 0.0943 -0.9880
vn 0.0949 0.0766 -0.9925
vn 0.0823 0.0730 -0.9939
usemtl feather_001
s 1
f 18//1 10//2 3//3 6//4
f 11//5 18//1 6//4 4//6
f 5//7 1//8 7//9 15//10
f 15//10 7//9 8//11 16//12
f 16//12 8//11 9//13 17//14
f 17//14 9//13 10//2 18//1
f 2//15 5//7 15//10 14//16
f 14//16 15//10 16//12 13//17
f 13//17 16//12 17//14 12//18
f 12//18 17//14 18//1 11//5
