# Blender v2.79 (sub 0) OBJ File: 'duck_base_mesh_BI.blend'
# www.blender.org
mtllib duck_feather_flight_tertiary_041.mtl
o feather_flight_tertiary_041
v 0.154282 0.181799 0.031405
v 0.147635 0.181335 0.031405
v 0.157145 0.158262 0.031405
v 0.148075 0.157628 0.031405
v 0.150874 0.182774 0.030772
v 0.152702 0.156631 0.030772
v 0.156368 0.177926 0.031405
v 0.158251 0.172825 0.031405
v 0.159586 0.167685 0.031405
v 0.159680 0.162459 0.031405
v 0.144980 0.161431 0.031405
v 0.144346 0.166620 0.031405
v 0.144953 0.171895 0.031405
v 0.146108 0.177208 0.031405
v 0.151238 0.177567 0.030772
v 0.151602 0.172360 0.030772
v 0.151966 0.167152 0.030772
v 0.152330 0.161945 0.030772
vn 0.0012 -0.0176 -0.9998
vn 0.0941 -0.0071 -0.9955
vn 0.1112 -0.0253 -0.9935
vn 0.0023 -0.0331 -0.9994
vn -0.0922 -0.0201 -0.9955
vn -0.1066 -0.0405 -0.9935
vn -0.0021 0.0301 -0.9995
vn 0.1493 0.0403 -0.9879
vn 0.1221 0.0296 -0.9921
vn -0.0016 0.0228 -0.9997
vn 0.0949 0.0180 -0.9953
vn -0.0008 0.0119 -0.9999
vn 0.0856 0.0088 -0.9963
vn -0.0002 0.0030 -1.0000
vn -0.1535 0.0191 -0.9879
vn -0.1251 0.0123 -0.9921
vn -0.0965 0.0046 -0.9953
vn -0.0860 -0.0032 -0.9963
usemtl feather_001
s 1
f 18//1 10//2 3//3 6//4
f 11//5 18//1 6//4 4//6
f 5//7 1//8 7//9 15//10
f 15//10 7//9 8//11 16//12
f 16//12 8//11 9//13 17//14
f 17//14 9//13 10//2 18//1
f 2//15 5//7 15//10 14//16
f 14//16 15//10 16//12 13//17
f 13//17 16//12 17//14 12//18
f 12//18 17//14 18//1 11//5
