# Blender v2.79 (sub 0) OBJ File: 'finch_base_mesh_BI.blend'
# www.blender.org
mtllib finch_feather_flight_primary_008.mtl
o feather_flight_primary_008
v 0.060591 0.071729 0.021489
v 0.057035 0.071099 0.021489
v 0.069784 0.023247 0.021489
v 0.064341 0.023980 0.021489
v 0.058376 0.073898 0.021790
v 0.067448 0.022300 0.021790
v 0.063004 0.063671 0.021489
v 0.065701 0.053102 0.021489
v 0.068103 0.042481 0.021489
v 0.069843 0.031743 0.021489
v 0.061978 0.030350 0.021489
v 0.059950 0.041037 0.021489
v 0.058586 0.051842 0.021489
v 0.057515 0.062699 0.021489
v 0.060260 0.063185 0.021790
v 0.062143 0.052472 0.021790
v 0.064027 0.041759 0.021790
v 0.065911 0.031046 0.021790
vn -0.0013 0.0039 -1.0000
vn -0.0823 -0.0103 -0.9966
vn -0.0933 -0.0080 -0.9956
vn -0.0209 0.0043 -0.9998
vn 0.0800 0.0177 -0.9966
vn 0.0883 0.0228 -0.9958
vn 0.0012 -0.0067 -1.0000
vn -0.1302 -0.0298 -0.9910
vn -0.1097 -0.0244 -0.9937
vn 0.0010 -0.0051 -1.0000
vn -0.0833 -0.0174 -0.9964
vn 0.0005 -0.0027 -1.0000
vn -0.0742 -0.0137 -0.9971
vn 0.0002 -0.0006 -1.0000
vn 0.1327 0.0164 -0.9910
vn 0.1115 0.0144 -0.9936
vn 0.0844 0.0121 -0.9963
vn 0.0746 0.0124 -0.9971
usemtl feather_brown_003
s 1
f 18//1 10//2 3//3 6//4
f 11//5 18//1 6//4 4//6
f 5//7 1//8 7//9 15//10
f 15//10 7//9 8//11 16//12
f 16//12 8//11 9//13 17//14
f 17//14 9//13 10//2 18//1
f 2//15 5//7 15//10 14//16
f 14//16 15//10 16//12 13//17
f 13//17 16//12 17//14 12//18
f 12//18 17//14 18//1 11//5
