# Blender v2.79 (sub 0) OBJ File: 'finch_base_mesh_BI.blend'
# www.blender.org
mtllib finch_feather_flight_secondary_031.mtl
o feather_flight_secondary_031
v 0.090638 0.074433 0.021436
v 0.089574 0.072591 0.021436
v 0.101959 0.068344 0.021436
v 0.100041 0.065893 0.021436
v 0.089537 0.073840 0.021100
v 0.101351 0.067019 0.021100
v 0.092811 0.073845 0.021436
v 0.095507 0.072850 0.021436
v 0.098115 0.071703 0.021436
v 0.100525 0.070212 0.021436
v 0.098173 0.066139 0.021436
v 0.095677 0.067480 0.021436
v 0.093379 0.069165 0.021436
v 0.091170 0.071003 0.021436
v 0.091990 0.072424 0.021100
v 0.094443 0.071008 0.021100
v 0.096896 0.069592 0.021100
v 0.099349 0.068176 0.021100
vn 0.0159 -0.0078 -0.9998
vn 0.0913 0.1258 -0.9878
vn 0.1182 0.1343 -0.9838
vn 0.0379 -0.0013 -0.9993
vn -0.0641 -0.1393 -0.9882
vn -0.0591 -0.1631 -0.9848
vn -0.0256 0.0148 -0.9995
vn 0.0992 0.2291 -0.9683
vn 0.0854 0.1898 -0.9781
vn -0.0194 0.0112 -0.9997
vn 0.0700 0.1438 -0.9871
vn -0.0101 0.0058 -0.9999
vn 0.0688 0.1248 -0.9898
vn -0.0026 0.0015 -1.0000
vn -0.1488 -0.2004 -0.9683
vn -0.1217 -0.1689 -0.9781
vn -0.0895 -0.1325 -0.9871
vn -0.0736 -0.1220 -0.9898
usemtl feather_brown_002
s 1
f 18//1 10//2 3//3 6//4
f 11//5 18//1 6//4 4//6
f 5//7 1//8 7//9 15//10
f 15//10 7//9 8//11 16//12
f 16//12 8//11 9//13 17//14
f 17//14 9//13 10//2 18//1
f 2//15 5//7 15//10 14//16
f 14//16 15//10 16//12 13//17
f 13//17 16//12 17//14 12//18
f 12//18 17//14 18//1 11//5
