# Blender v2.79 (sub 0) OBJ File: 'finch_base_mesh_BI.blend'
# www.blender.org
mtllib finch_feather_flight_tertiary_050.mtl
o feather_flight_tertiary_050
v 0.064268 0.073633 0.021119
v 0.062845 0.073252 0.021119
v 0.066612 0.065925 0.021119
v 0.064670 0.065404 0.021119
v 0.063450 0.073840 0.020966
v 0.065757 0.065232 0.020966
v 0.065008 0.072420 0.021119
v 0.065792 0.070792 0.021119
v 0.066459 0.069133 0.021119
v 0.066861 0.067403 0.021119
v 0.063714 0.066560 0.021119
v 0.063197 0.068259 0.021119
v 0.062945 0.070029 0.021119
v 0.062811 0.071831 0.021119
v 0.063909 0.072125 0.020966
v 0.064369 0.070411 0.020966
v 0.064828 0.068696 0.020966
v 0.065288 0.066981 0.020966
vn 0.0032 -0.0121 -0.9999
vn 0.1024 0.0164 -0.9946
vn 0.1212 0.0082 -0.9926
vn 0.0061 -0.0228 -0.9997
vn -0.0969 -0.0370 -0.9946
vn -0.1090 -0.0534 -0.9926
vn -0.0055 0.0207 -0.9998
vn 0.1544 0.0632 -0.9860
vn 0.1285 0.0503 -0.9904
vn -0.0042 0.0157 -0.9998
vn 0.0996 0.0351 -0.9944
vn -0.0022 0.0082 -0.9999
vn 0.0902 0.0262 -0.9956
vn -0.0005 0.0021 -1.0000
vn -0.1653 -0.0224 -0.9860
vn -0.1364 -0.0207 -0.9904
vn -0.1038 -0.0193 -0.9944
vn -0.0912 -0.0223 -0.9956
usemtl feather_brown_001
s 1
f 18//1 10//2 3//3 6//4
f 11//5 18//1 6//4 4//6
f 5//7 1//8 7//9 15//10
f 15//10 7//9 8//11 16//12
f 16//12 8//11 9//13 17//14
f 17//14 9//13 10//2 18//1
f 2//15 5//7 15//10 14//16
f 14//16 15//10 16//12 13//17
f 13//17 16//12 17//14 12//18
f 12//18 17//14 18//1 11//5
