# Blender v2.79 (sub 0) OBJ File: 'finch_base_mesh_BI.blend'
# www.blender.org
mtllib finch_feather_flight_secondary_013.mtl
o feather_flight_secondary_013
v 0.079680 0.074128 0.021867
v 0.077950 0.072399 0.021867
v 0.091093 0.063348 0.021867
v 0.088210 0.061218 0.021867
v 0.078248 0.073830 0.022204
v 0.090031 0.062050 0.022204
v 0.082029 0.072719 0.021867
v 0.084871 0.070668 0.021867
v 0.087570 0.068475 0.021867
v 0.089946 0.065959 0.021867
v 0.086121 0.062135 0.021868
v 0.083605 0.064511 0.021868
v 0.081411 0.067209 0.021867
v 0.079360 0.070050 0.021867
v 0.080694 0.071384 0.022204
v 0.083141 0.068938 0.022204
v 0.085587 0.066493 0.022204
v 0.088034 0.064047 0.022204
vn -0.0110 0.0095 -0.9999
vn -0.1050 -0.0860 -0.9907
vn -0.1288 -0.0879 -0.9878
vn -0.0311 0.0077 -0.9995
vn 0.0859 0.1025 -0.9910
vn 0.0877 0.1231 -0.9885
vn 0.0171 -0.0171 -0.9997
vn -0.1370 -0.1704 -0.9758
vn -0.1160 -0.1405 -0.9832
vn 0.0129 -0.0130 -0.9998
vn -0.0920 -0.1050 -0.9902
vn 0.0067 -0.0068 -0.9999
vn -0.0862 -0.0895 -0.9922
vn 0.0016 -0.0017 -1.0000
vn 0.1703 0.1369 -0.9758
vn 0.1404 0.1160 -0.9833
vn 0.1049 0.0919 -0.9902
vn 0.0894 0.0862 -0.9922
usemtl feather_brown_002
s 1
f 18//1 10//2 3//3 6//4
f 11//5 18//1 6//4 4//6
f 5//7 1//8 7//9 15//10
f 15//10 7//9 8//11 16//12
f 16//12 8//11 9//13 17//14
f 17//14 9//13 10//2 18//1
f 2//15 5//7 15//10 14//16
f 14//16 15//10 16//12 13//17
f 13//17 16//12 17//14 12//18
f 12//18 17//14 18//1 11//5
