# Blender v2.79 (sub 0) OBJ File: 'finch_base_mesh_BI.blend'
# www.blender.org
mtllib finch_feather_flight_tertiary_019.mtl
o feather_flight_tertiary_019
v 0.066083 0.073714 0.022247
v 0.064699 0.073210 0.022247
v 0.069030 0.066405 0.022247
v 0.067140 0.065717 0.022247
v 0.065254 0.073840 0.022399
v 0.068235 0.065649 0.022399
v 0.066916 0.072598 0.022247
v 0.067826 0.071081 0.022247
v 0.068622 0.069523 0.022247
v 0.069160 0.067871 0.022247
v 0.066098 0.066757 0.022247
v 0.065448 0.068368 0.022247
v 0.065056 0.070073 0.022247
v 0.064779 0.071820 0.022247
v 0.065847 0.072209 0.022399
v 0.066441 0.070577 0.022399
v 0.067035 0.068946 0.022399
v 0.067629 0.067314 0.022399
vn -0.0044 0.0121 -0.9999
vn -0.1006 -0.0251 -0.9946
vn -0.1202 -0.0183 -0.9926
vn -0.0082 0.0226 -0.9997
vn 0.0932 0.0454 -0.9946
vn 0.1038 0.0632 -0.9926
vn 0.0075 -0.0206 -0.9998
vn -0.1481 -0.0769 -0.9860
vn -0.1234 -0.0616 -0.9904
vn 0.0057 -0.0156 -0.9998
vn -0.0960 -0.0438 -0.9944
vn 0.0030 -0.0081 -0.9999
vn -0.0875 -0.0341 -0.9956
vn 0.0007 -0.0020 -1.0000
vn 0.1629 0.0363 -0.9860
vn 0.1341 0.0322 -0.9904
vn 0.1017 0.0281 -0.9944
vn 0.0890 0.0302 -0.9956
usemtl feather_brown_001
s 1
f 18//1 10//2 3//3 6//4
f 11//5 18//1 6//4 4//6
f 5//7 1//8 7//9 15//10
f 15//10 7//9 8//11 16//12
f 16//12 8//11 9//13 17//14
f 17//14 9//13 10//2 18//1
f 2//15 5//7 15//10 14//16
f 14//16 15//10 16//12 13//17
f 13//17 16//12 17//14 12//18
f 12//18 17//14 18//1 11//5
