# Blender v2.79 (sub 0) OBJ File: 'finch_base_mesh_BI.blend'
# www.blender.org
mtllib finch_feather_flight_primary_004.mtl
o feather_flight_primary_004
v 0.040961 0.071327 0.021489
v 0.038378 0.071335 0.021490
v 0.041509 0.022229 0.021488
v 0.037979 0.025242 0.021490
v 0.039666 0.073840 0.021827
v 0.039746 0.022505 0.021827
v 0.041677 0.063011 0.021488
v 0.042284 0.052186 0.021488
v 0.042678 0.041362 0.021488
v 0.042590 0.030539 0.021488
v 0.036877 0.030557 0.021490
v 0.036755 0.041380 0.021490
v 0.037115 0.052202 0.021490
v 0.037689 0.063023 0.021490
v 0.039683 0.063017 0.021827
v 0.039699 0.052194 0.021827
v 0.039716 0.041371 0.021827
v 0.039733 0.030548 0.021827
vn 0.0016 0.0059 -1.0000
vn -0.1297 0.0047 -0.9915
vn -0.1447 0.0094 -0.9894
vn -0.0707 0.0103 -0.9974
vn 0.1321 0.0063 -0.9912
vn 0.1518 0.0127 -0.9883
vn 0.0000 -0.0078 -1.0000
vn -0.2077 -0.0079 -0.9781
vn -0.1758 -0.0060 -0.9844
vn -0.0005 -0.0059 -1.0000
vn -0.1337 -0.0032 -0.9910
vn -0.0004 -0.0031 -1.0000
vn -0.1187 -0.0009 -0.9929
vn -0.0004 -0.0008 -1.0000
vn 0.2069 -0.0073 -0.9783
vn 0.1752 -0.0054 -0.9845
vn 0.1330 -0.0028 -0.9911
vn 0.1179 -0.0006 -0.9930
usemtl feather_brown_003
s 1
f 18//1 10//2 3//3 6//4
f 11//5 18//1 6//4 4//6
f 5//7 1//8 7//9 15//10
f 15//10 7//9 8//11 16//12
f 16//12 8//11 9//13 17//14
f 17//14 9//13 10//2 18//1
f 2//15 5//7 15//10 14//16
f 14//16 15//10 16//12 13//17
f 13//17 16//12 17//14 12//18
f 12//18 17//14 18//1 11//5
