# Blender v2.79 (sub 0) OBJ File: 'finch_base_mesh_BI.blend'
# www.blender.org
mtllib finch_feather_tail_secondary_003.mtl
o feather_tail_secondary_003
v 0.007216 0.030868 -0.054170
v 0.002785 0.030868 -0.055854
v 0.004556 0.031604 -0.053843
v 0.009685 0.030868 -0.057666
v 0.012349 0.030868 -0.062427
v 0.004434 0.030868 -0.065436
v 0.003262 0.030868 -0.060108
v 0.006474 0.031604 -0.058887
v 0.008391 0.031604 -0.063931
v 0.018268 0.030868 -0.078222
v 0.017144 0.030868 -0.073722
v 0.014842 0.030868 -0.068038
v 0.006297 0.030868 -0.071286
v 0.008352 0.030868 -0.077064
v 0.010502 0.030868 -0.081174
v 0.014927 0.031604 -0.081124
v 0.012748 0.031604 -0.075393
v 0.010570 0.031604 -0.069662
vn -0.0103 0.9996 0.0271
vn 0.2251 0.9674 0.1156
vn 0.1949 0.9761 0.0956
vn -0.0076 0.9998 0.0201
vn 0.1614 0.9843 0.0709
vn -0.0033 0.9999 0.0088
vn -0.2451 0.9674 -0.0631
vn -0.2092 0.9761 -0.0580
vn -0.1677 0.9843 -0.0542
vn 0.1493 0.9870 0.0600
vn -0.0011 1.0000 0.0029
vn 0.1517 0.9869 0.0542
vn 0.0012 1.0000 -0.0032
vn 0.1577 0.9862 0.0509
vn 0.0030 0.9999 -0.0080
vn -0.1514 0.9870 -0.0543
vn -0.1494 0.9869 -0.0602
vn -0.1517 0.9861 -0.0667
usemtl feather_brown_001
s 1
f 3//1 1//2 4//3 8//4
f 8//4 4//3 5//5 9//6
f 2//7 3//1 8//4 7//8
f 7//8 8//4 9//6 6//9
f 9//6 5//5 12//10 18//11
f 18//11 12//10 11//12 17//13
f 17//13 11//12 10//14 16//15
f 6//9 9//6 18//11 13//16
f 13//16 18//11 17//13 14//17
f 14//17 17//13 16//15 15//18
