# Blender v2.79 (sub 0) OBJ File: 'finch_base_mesh_BI.blend'
# www.blender.org
mtllib finch_eye.mtl
o eye
v 0.004730 0.104101 0.046626
v 0.005573 0.103126 0.046814
v 0.006709 0.102555 0.047094
v 0.007966 0.102475 0.047424
v 0.009152 0.102899 0.047755
v 0.010087 0.103761 0.048035
v 0.010628 0.104930 0.048222
v 0.004591 0.104180 0.047098
v 0.005316 0.103272 0.047686
v 0.006374 0.102745 0.048233
v 0.007603 0.102681 0.048658
v 0.008817 0.103089 0.048895
v 0.009831 0.103906 0.048907
v 0.010489 0.105009 0.048694
v 0.004446 0.104439 0.047499
v 0.005049 0.103751 0.048425
v 0.006024 0.103371 0.049200
v 0.007225 0.103358 0.049704
v 0.008468 0.103714 0.049861
v 0.009563 0.104385 0.049647
v 0.010345 0.105268 0.049095
v 0.010694 0.106229 0.048288
v 0.004318 0.104839 0.047766
v 0.004811 0.104490 0.048919
v 0.005714 0.104338 0.049845
v 0.006889 0.104405 0.050402
v 0.008157 0.104681 0.050506
v 0.009325 0.105125 0.050141
v 0.010216 0.105668 0.049362
v 0.004225 0.105320 0.047860
v 0.004639 0.105378 0.049093
v 0.005489 0.105498 0.050072
v 0.006646 0.105660 0.050648
v 0.007933 0.105841 0.050733
v 0.009154 0.106013 0.050314
v 0.010123 0.106149 0.049456
v 0.004182 0.105807 0.047766
v 0.004560 0.106279 0.048919
v 0.005385 0.106674 0.049845
v 0.006533 0.106934 0.050402
v 0.007829 0.107018 0.050506
v 0.009074 0.106913 0.050141
v 0.010080 0.106636 0.049362
v 0.004309 0.105332 0.046561
v 0.004195 0.106228 0.047499
v 0.004584 0.107055 0.048425
v 0.005418 0.107689 0.049200
v 0.006568 0.108032 0.049704
v 0.007861 0.108032 0.049861
v 0.009099 0.107690 0.049647
v 0.010093 0.107057 0.049095
v 0.004263 0.106517 0.047098
v 0.004709 0.107590 0.047686
v 0.005581 0.108387 0.048233
v 0.006745 0.108788 0.048658
v 0.008024 0.108730 0.048895
v 0.009224 0.108224 0.048907
v 0.010161 0.107346 0.048694
v 0.004374 0.106631 0.046626
v 0.004916 0.107800 0.046814
v 0.005851 0.108662 0.047094
v 0.007037 0.109085 0.047424
v 0.008294 0.109005 0.047755
v 0.009430 0.108434 0.048035
v 0.010273 0.107459 0.048222
v 0.004513 0.106552 0.046154
v 0.005172 0.107655 0.045941
v 0.006186 0.108472 0.045954
v 0.007400 0.108880 0.046191
v 0.008629 0.108815 0.046615
v 0.009687 0.108289 0.047163
v 0.010412 0.107381 0.047750
v 0.004658 0.106293 0.045754
v 0.005440 0.107176 0.045202
v 0.006535 0.107846 0.044988
v 0.007778 0.108202 0.045145
v 0.008978 0.108189 0.045649
v 0.009954 0.107810 0.046423
v 0.010556 0.107122 0.047350
v 0.004786 0.105892 0.045487
v 0.005677 0.106436 0.044708
v 0.006846 0.106880 0.044342
v 0.008114 0.107156 0.044446
v 0.009289 0.107223 0.045003
v 0.010192 0.107070 0.045929
v 0.010685 0.106721 0.047083
v 0.004879 0.105412 0.045393
v 0.005849 0.105548 0.044534
v 0.007070 0.105720 0.044116
v 0.008357 0.105901 0.044201
v 0.009513 0.106063 0.044777
v 0.010363 0.106183 0.045756
v 0.010778 0.106241 0.046989
v 0.004923 0.104924 0.045487
v 0.005929 0.104647 0.044708
v 0.007174 0.104543 0.044342
v 0.008469 0.104627 0.044446
v 0.009617 0.104886 0.045003
v 0.010443 0.105282 0.045929
v 0.010821 0.105753 0.047083
v 0.004909 0.104504 0.045754
v 0.005904 0.103871 0.045202
v 0.007142 0.103528 0.044988
v 0.008435 0.103528 0.045145
v 0.009585 0.103872 0.045649
v 0.010418 0.104505 0.046423
v 0.010808 0.105333 0.047350
v 0.004842 0.104215 0.046154
v 0.005779 0.103337 0.045941
v 0.006979 0.102830 0.045954
v 0.008258 0.102773 0.046191
v 0.009422 0.103174 0.046615
v 0.010293 0.103971 0.047163
v 0.010740 0.105044 0.047750
vn 0.9315 -0.2761 0.2369
vn 0.8877 -0.2513 0.3858
vn 0.6868 -0.5741 0.4456
vn 0.7650 -0.6184 0.1799
vn 0.4871 -0.8679 0.0969
vn 0.3864 -0.8108 0.4396
vn 0.0305 -0.9286 0.3696
vn 0.1392 -0.9903 0.0000
vn -0.2290 -0.9686 -0.0969
vn -0.3298 -0.9115 0.2459
vn -0.6430 -0.7610 0.0858
vn -0.5649 -0.8053 -0.1799
vn -0.8193 -0.5222 -0.2369
vn -0.8631 -0.4974 -0.0878
vn -0.9565 -0.1344 -0.2588
vn 0.9565 0.1344 0.2588
vn -0.9087 -0.4155 0.0385
vn 0.8420 -0.1695 0.5122
vn 0.6054 -0.4282 0.6709
vn 0.2813 -0.6226 0.7302
vn -0.0828 -0.7257 0.6830
vn -0.4349 -0.7232 0.5364
vn -0.7244 -0.6151 0.3110
vn 0.5330 -0.2029 0.8214
vn 0.1879 -0.3319 0.9244
vn -0.1835 -0.4122 0.8924
vn -0.5283 -0.4326 0.7306
vn -0.7968 -0.3898 0.4616
vn -0.9493 -0.2892 0.1228
vn 0.8014 -0.0431 0.5966
vn 0.7721 0.1085 0.6262
vn 0.4807 0.0675 0.8743
vn 0.1204 0.0169 0.9926
vn -0.2563 -0.0360 0.9659
vn -0.5958 -0.0837 0.7988
vn -0.8492 -0.1193 0.5144
vn -0.9787 -0.1375 0.1525
vn 0.0891 0.3709 0.9244
vn -0.2900 0.3457 0.8924
vn -0.6270 0.2702 0.7306
vn -0.8734 0.1550 0.4616
vn -0.9923 0.0163 0.1228
vn 0.7584 0.2623 0.5966
vn 0.4564 0.3419 0.8214
vn 0.7626 0.3950 0.5122
vn 0.4639 0.5785 0.6709
vn 0.0988 0.6760 0.7302
vn -0.2796 0.6747 0.6830
vn -0.6174 0.5753 0.5364
vn -0.8659 0.3916 0.3110
vn -0.9881 0.1490 0.0385
vn -0.2266 0.9011 0.3696
vn -0.5683 0.7852 0.2459
vn -0.8278 0.5543 0.0858
vn -0.9667 0.2402 -0.0878
vn 0.7840 0.4863 0.3858
vn 0.5020 0.7412 0.4456
vn 0.1479 0.8859 0.4396
vn 0.8193 0.5222 0.2369
vn 0.5649 0.8053 0.1799
vn 0.2290 0.9686 0.0969
vn -0.1392 0.9903 0.0000
vn -0.4871 0.8679 -0.0969
vn -0.7650 0.6184 -0.1799
vn -0.9315 0.2761 -0.2369
vn -0.3864 0.8108 -0.4396
vn -0.6868 0.5741 -0.4456
vn -0.8877 0.2513 -0.3858
vn 0.8631 0.4974 0.0878
vn 0.6430 0.7610 -0.0858
vn 0.3298 0.9115 -0.2459
vn -0.0305 0.9286 -0.3696
vn 0.9087 0.4155 -0.0385
vn 0.7244 0.6151 -0.3110
vn 0.4349 0.7232 -0.5364
vn 0.0828 0.7257 -0.6830
vn -0.2813 0.6226 -0.7302
vn -0.6054 0.4282 -0.6709
vn -0.8420 0.1695 -0.5122
vn -0.5330 0.2029 -0.8214
vn -0.8014 0.0431 -0.5966
vn 0.9493 0.2892 -0.1228
vn 0.7969 0.3898 -0.4616
vn 0.5283 0.4326 -0.7306
vn 0.1835 0.4122 -0.8924
vn -0.1879 0.3319 -0.9244
vn 0.9787 0.1375 -0.1525
vn 0.8492 0.1193 -0.5144
vn 0.5958 0.0837 -0.7988
vn 0.2563 0.0360 -0.9659
vn -0.1204 -0.0169 -0.9926
vn -0.4807 -0.0675 -0.8743
vn -0.7721 -0.1085 -0.6262
vn -0.7584 -0.2623 -0.5966
vn 0.9923 -0.0163 -0.1228
vn 0.8734 -0.1550 -0.4616
vn 0.6270 -0.2702 -0.7306
vn 0.2900 -0.3457 -0.8924
vn -0.0891 -0.3709 -0.9244
vn -0.4564 -0.3419 -0.8214
vn 0.8659 -0.3916 -0.3110
vn 0.6174 -0.5753 -0.5364
vn 0.2796 -0.6747 -0.6830
vn -0.0988 -0.6760 -0.7302
vn -0.4639 -0.5785 -0.6709
vn -0.7626 -0.3950 -0.5122
vn 0.9881 -0.1490 -0.0385
vn 0.9667 -0.2402 0.0878
vn 0.8278 -0.5543 -0.0858
vn 0.5683 -0.7852 -0.2459
vn 0.2267 -0.9011 -0.3696
vn -0.1479 -0.8859 -0.4396
vn -0.5020 -0.7412 -0.4456
vn -0.7840 -0.4863 -0.3858
usemtl eyes
s 1
f 7//1 14//2 13//3 6//4
f 5//5 12//6 11//7 4//8
f 3//9 10//10 9//11 2//12
f 1//13 8//14 44//15
f 22//16 14//2 7//1
f 6//4 13//3 12//6 5//5
f 4//8 11//7 10//10 3//9
f 2//12 9//11 8//14 1//13
f 8//14 15//17 44//15
f 22//16 21//18 14//2
f 13//3 20//19 19//20 12//6
f 11//7 18//21 17//22 10//10
f 9//11 16//23 15//17 8//14
f 14//2 21//18 20//19 13//3
f 12//6 19//20 18//21 11//7
f 10//10 17//22 16//23 9//11
f 20//19 28//24 27//25 19//20
f 18//21 26//26 25//27 17//22
f 16//23 24//28 23//29 15//17
f 21//18 29//30 28//24 20//19
f 19//20 27//25 26//26 18//21
f 17//22 25//27 24//28 16//23
f 15//17 23//29 44//15
f 22//16 29//30 21//18
f 29//30 36//31 35//32 28//24
f 27//25 34//33 33//34 26//26
f 25//27 32//35 31//36 24//28
f 23//29 30//37 44//15
f 22//16 36//31 29//30
f 28//24 35//32 34//33 27//25
f 26//26 33//34 32//35 25//27
f 24//28 31//36 30//37 23//29
f 34//33 41//38 40//39 33//34
f 32//35 39//40 38//41 31//36
f 30//37 37//42 44//15
f 22//16 43//43 36//31
f 35//32 42//44 41//38 34//33
f 33//34 40//39 39//40 32//35
f 31//36 38//41 37//42 30//37
f 36//31 43//43 42//44 35//32
f 22//16 51//45 43//43
f 42//44 50//46 49//47 41//38
f 40//39 48//48 47//49 39//40
f 38//41 46//50 45//51 37//42
f 43//43 51//45 50//46 42//44
f 41//38 49//47 48//48 40//39
f 39//40 47//49 46//50 38//41
f 37//42 45//51 44//15
f 48//48 55//52 54//53 47//49
f 46//50 53//54 52//55 45//51
f 51//45 58//56 57//57 50//46
f 49//47 56//58 55//52 48//48
f 47//49 54//53 53//54 46//50
f 45//51 52//55 44//15
f 22//16 58//56 51//45
f 50//46 57//57 56//58 49//47
f 58//56 65//59 64//60 57//57
f 56//58 63//61 62//62 55//52
f 54//53 61//63 60//64 53//54
f 52//55 59//65 44//15
f 22//16 65//59 58//56
f 57//57 64//60 63//61 56//58
f 55//52 62//62 61//63 54//53
f 53//54 60//64 59//65 52//55
f 61//63 68//66 67//67 60//64
f 59//65 66//68 44//15
f 22//16 72//69 65//59
f 64//60 71//70 70//71 63//61
f 62//62 69//72 68//66 61//63
f 60//64 67//67 66//68 59//65
f 65//59 72//69 71//70 64//60
f 63//61 70//71 69//72 62//62
f 22//16 79//73 72//69
f 71//70 78//74 77//75 70//71
f 69//72 76//76 75//77 68//66
f 67//67 74//78 73//79 66//68
f 72//69 79//73 78//74 71//70
f 70//71 77//75 76//76 69//72
f 68//66 75//77 74//78 67//67
f 66//68 73//79 44//15
f 74//78 81//80 80//81 73//79
f 79//73 86//82 85//83 78//74
f 77//75 84//84 83//85 76//76
f 75//77 82//86 81//80 74//78
f 73//79 80//81 44//15
f 22//16 86//82 79//73
f 78//74 85//83 84//84 77//75
f 76//76 83//85 82//86 75//77
f 86//82 93//87 92//88 85//83
f 84//84 91//89 90//90 83//85
f 82//86 89//91 88//92 81//80
f 80//81 87//93 44//15
f 22//16 93//87 86//82
f 85//83 92//88 91//89 84//84
f 83//85 90//90 89//91 82//86
f 81//80 88//92 87//93 80//81
f 87//93 94//94 44//15
f 22//16 100//95 93//87
f 92//88 99//96 98//97 91//89
f 90//90 97//98 96//99 89//91
f 88//92 95//100 94//94 87//93
f 93//87 100//95 99//96 92//88
f 91//89 98//97 97//98 90//90
f 89//91 96//99 95//100 88//92
f 99//96 106//101 105//102 98//97
f 97//98 104//103 103//104 96//99
f 95//100 102//105 101//106 94//94
f 100//95 107//107 106//101 99//96
f 98//97 105//102 104//103 97//98
f 96//99 103//104 102//105 95//100
f 94//94 101//106 44//15
f 22//16 107//107 100//95
f 107//107 114//108 113//109 106//101
f 105//102 112//110 111//111 104//103
f 103//104 110//112 109//113 102//105
f 101//106 108//114 44//15
f 22//16 114//108 107//107
f 106//101 113//109 112//110 105//102
f 104//103 111//111 110//112 103//104
f 102//105 109//113 108//114 101//106
f 112//110 5//5 4//8 111//111
f 110//112 3//9 2//12 109//113
f 108//114 1//13 44//15
f 22//16 7//1 114//108
f 113//109 6//4 5//5 112//110
f 111//111 4//8 3//9 110//112
f 109//113 2//12 1//13 108//114
f 114//108 7//1 6//4 113//109
