# Blender v2.79 (sub 0) OBJ File: 'finch_base_mesh_BI.blend'
# www.blender.org
mtllib finch_feather_flight_secondary_004.mtl
o feather_flight_secondary_004
v 0.041298 0.072628 0.021867
v 0.038802 0.072584 0.021868
v 0.042173 0.048626 0.021872
v 0.038542 0.049376 0.021872
v 0.040029 0.073833 0.022211
v 0.040475 0.048341 0.022215
v 0.042047 0.068574 0.021868
v 0.042711 0.063291 0.021869
v 0.043168 0.058005 0.021870
v 0.043159 0.052710 0.021871
v 0.037640 0.052614 0.021871
v 0.037446 0.057905 0.021870
v 0.037717 0.063204 0.021869
v 0.038195 0.068507 0.021868
v 0.040121 0.068540 0.022212
v 0.040214 0.063248 0.022213
v 0.040307 0.057955 0.022214
v 0.040399 0.052662 0.022215
vn -0.0013 0.0095 -0.9999
vn -0.1360 0.0068 -0.9907
vn -0.1536 0.0164 -0.9880
vn -0.0243 0.0178 -0.9995
vn 0.1337 0.0103 -0.9909
vn 0.1488 0.0191 -0.9887
vn 0.0002 -0.0163 -0.9998
vn -0.2171 -0.0197 -0.9759
vn -0.1826 -0.0150 -0.9831
vn 0.0002 -0.0124 -0.9999
vn -0.1395 -0.0088 -0.9902
vn 0.0000 -0.0065 -1.0000
vn -0.1242 -0.0039 -0.9922
vn 0.0000 -0.0018 -1.0000
vn 0.2175 -0.0121 -0.9760
vn 0.1829 -0.0086 -0.9831
vn 0.1397 -0.0039 -0.9902
vn 0.1241 0.0004 -0.9922
usemtl feather_brown_002
s 1
f 18//1 10//2 3//3 6//4
f 11//5 18//1 6//4 4//6
f 5//7 1//8 7//9 15//10
f 15//10 7//9 8//11 16//12
f 16//12 8//11 9//13 17//14
f 17//14 9//13 10//2 18//1
f 2//15 5//7 15//10 14//16
f 14//16 15//10 16//12 13//17
f 13//17 16//12 17//14 12//18
f 12//18 17//14 18//1 11//5
