# Blender v2.79 (sub 0) OBJ File: 'finch_base_mesh_BI.blend'
# www.blender.org
mtllib finch_feather_tail_secondary_002.mtl
o feather_tail_secondary_002
v 0.006844 0.030956 -0.053983
v 0.003048 0.030956 -0.056101
v 0.004303 0.031669 -0.053890
v 0.009826 0.030956 -0.057322
v 0.013237 0.030956 -0.061933
v 0.006457 0.030956 -0.065717
v 0.004324 0.030956 -0.060393
v 0.007075 0.031669 -0.058858
v 0.009847 0.031669 -0.063825
v 0.021837 0.030956 -0.077494
v 0.019911 0.030956 -0.073010
v 0.016656 0.030956 -0.067426
v 0.009336 0.030956 -0.071510
v 0.012379 0.030956 -0.077213
v 0.015184 0.030956 -0.081206
v 0.019294 0.031669 -0.080754
v 0.016145 0.031669 -0.075111
v 0.012996 0.031669 -0.069468
vn -0.0130 0.9996 0.0233
vn 0.2186 0.9640 0.1514
vn 0.1902 0.9734 0.1274
vn -0.0096 0.9998 0.0173
vn 0.1581 0.9825 0.0977
vn -0.0042 0.9999 0.0075
vn -0.2436 0.9640 -0.1065
vn -0.2083 0.9734 -0.0950
vn -0.1661 0.9825 -0.0833
vn 0.1467 0.9855 0.0851
vn -0.0014 1.0000 0.0025
vn 0.1497 0.9854 0.0801
vn 0.0015 1.0000 -0.0027
vn 0.1561 0.9846 0.0782
vn 0.0038 0.9999 -0.0069
vn -0.1495 0.9855 -0.0802
vn -0.1468 0.9854 -0.0853
vn -0.1486 0.9846 -0.0918
usemtl feather_brown_001
s 1
f 3//1 1//2 4//3 8//4
f 8//4 4//3 5//5 9//6
f 2//7 3//1 8//4 7//8
f 7//8 8//4 9//6 6//9
f 9//6 5//5 12//10 18//11
f 18//11 12//10 11//12 17//13
f 17//13 11//12 10//14 16//15
f 6//9 9//6 18//11 13//16
f 13//16 18//11 17//13 14//17
f 14//17 17//13 16//15 15//18
