# Blender v2.79 (sub 0) OBJ File: 'finch_base_mesh_BI.blend'
# www.blender.org
mtllib finch_feather_flight_tertiary_017.mtl
o feather_flight_tertiary_017
v 0.061964 0.073630 0.022247
v 0.060541 0.073248 0.022247
v 0.064327 0.065852 0.022247
v 0.062385 0.065331 0.022247
v 0.061145 0.073840 0.022399
v 0.063473 0.065155 0.022399
v 0.062707 0.072405 0.022247
v 0.063496 0.070762 0.022247
v 0.064167 0.069087 0.022247
v 0.064573 0.067342 0.022247
v 0.061426 0.066499 0.022247
v 0.060905 0.068213 0.022247
v 0.060649 0.069999 0.022247
v 0.060511 0.071816 0.022247
v 0.061609 0.072110 0.022399
v 0.062073 0.070380 0.022399
v 0.062536 0.068650 0.022399
v 0.063000 0.066920 0.022399
vn -0.0032 0.0120 -0.9999
vn -0.1024 -0.0165 -0.9946
vn -0.1211 -0.0084 -0.9926
vn -0.0060 0.0226 -0.9997
vn 0.0969 0.0369 -0.9946
vn 0.1091 0.0533 -0.9926
vn 0.0055 -0.0205 -0.9998
vn -0.1545 -0.0631 -0.9860
vn -0.1286 -0.0501 -0.9904
vn 0.0042 -0.0155 -0.9998
vn -0.0996 -0.0351 -0.9944
vn 0.0022 -0.0081 -0.9999
vn -0.0902 -0.0262 -0.9956
vn 0.0005 -0.0020 -1.0000
vn 0.1653 0.0226 -0.9860
vn 0.1364 0.0208 -0.9904
vn 0.1038 0.0194 -0.9944
vn 0.0912 0.0223 -0.9956
usemtl feather_brown_001
s 1
f 18//1 10//2 3//3 6//4
f 11//5 18//1 6//4 4//6
f 5//7 1//8 7//9 15//10
f 15//10 7//9 8//11 16//12
f 16//12 8//11 9//13 17//14
f 17//14 9//13 10//2 18//1
f 2//15 5//7 15//10 14//16
f 14//16 15//10 16//12 13//17
f 13//17 16//12 17//14 12//18
f 12//18 17//14 18//1 11//5
