# Blender v2.79 (sub 0) OBJ File: 'finch_base_mesh_BI.blend'
# www.blender.org
mtllib finch_feather_flight_tertiary_029.mtl
o feather_flight_tertiary_029
v 0.089916 0.074353 0.022247
v 0.089071 0.073147 0.022247
v 0.092591 0.072808 0.022247
v 0.091438 0.071161 0.022247
v 0.089364 0.073840 0.022399
v 0.092155 0.071886 0.022399
v 0.090572 0.074382 0.022247
v 0.091321 0.074269 0.022247
v 0.092001 0.074056 0.022247
v 0.092522 0.073618 0.022247
v 0.090654 0.070949 0.022247
v 0.090063 0.071289 0.022247
v 0.089631 0.071855 0.022247
v 0.089268 0.072520 0.022247
v 0.089920 0.073451 0.022399
v 0.090476 0.073062 0.022399
v 0.091032 0.072673 0.022399
v 0.091588 0.072283 0.022399
vn -0.0269 0.0188 -0.9995
vn -0.0745 -0.0697 -0.9948
vn -0.1183 -0.0624 -0.9910
vn -0.0504 0.0353 -0.9981
vn 0.0400 0.0939 -0.9948
vn 0.0181 0.1325 -0.9910
vn 0.0458 -0.0321 -0.9984
vn -0.0496 -0.1670 -0.9847
vn -0.0451 -0.1291 -0.9906
vn 0.0348 -0.0243 -0.9991
vn -0.0428 -0.0966 -0.9944
vn 0.0182 -0.0127 -0.9997
vn -0.0498 -0.0796 -0.9956
vn 0.0046 -0.0032 -1.0000
vn 0.1400 0.1037 -0.9847
vn 0.1059 0.0866 -0.9906
vn 0.0761 0.0733 -0.9944
vn 0.0577 0.0741 -0.9956
usemtl feather_brown_001
s 1
f 18//1 10//2 3//3 6//4
f 11//5 18//1 6//4 4//6
f 5//7 1//8 7//9 15//10
f 15//10 7//9 8//11 16//12
f 16//12 8//11 9//13 17//14
f 17//14 9//13 10//2 18//1
f 2//15 5//7 15//10 14//16
f 14//16 15//10 16//12 13//17
f 13//17 16//12 17//14 12//18
f 12//18 17//14 18//1 11//5
