# Blender v2.79 (sub 0) OBJ File: 'finch_base_mesh_BI.blend'
# www.blender.org
mtllib finch_feather_flight_tertiary_028.mtl
o feather_flight_tertiary_028
v 0.087547 0.074234 0.022247
v 0.086505 0.073192 0.022247
v 0.090225 0.071936 0.022247
v 0.088803 0.070515 0.022247
v 0.086899 0.073840 0.022399
v 0.089652 0.071087 0.022399
v 0.088251 0.074096 0.022247
v 0.089038 0.073785 0.022247
v 0.089738 0.073389 0.022247
v 0.090244 0.072799 0.022247
v 0.087941 0.070495 0.022247
v 0.087350 0.071001 0.022247
v 0.086954 0.071701 0.022247
v 0.086643 0.072488 0.022247
v 0.087447 0.073292 0.022399
v 0.087996 0.072743 0.022399
v 0.088544 0.072195 0.022399
v 0.089093 0.071647 0.022399
vn -0.0203 0.0203 -0.9996
vn -0.0847 -0.0573 -0.9948
vn -0.1220 -0.0463 -0.9914
vn -0.0381 0.0381 -0.9985
vn 0.0573 0.0847 -0.9948
vn 0.0463 0.1220 -0.9914
vn 0.0346 -0.0346 -0.9988
vn -0.0828 -0.1511 -0.9850
vn -0.0705 -0.1170 -0.9906
vn 0.0262 -0.0262 -0.9993
vn -0.0608 -0.0862 -0.9944
vn 0.0137 -0.0137 -0.9998
vn -0.0633 -0.0694 -0.9956
vn 0.0035 -0.0035 -1.0000
vn 0.1511 0.0828 -0.9850
vn 0.1170 0.0705 -0.9906
vn 0.0862 0.0608 -0.9944
vn 0.0694 0.0633 -0.9956
usemtl feather_brown_001
s 1
f 18//1 10//2 3//3 6//4
f 11//5 18//1 6//4 4//6
f 5//7 1//8 7//9 15//10
f 15//10 7//9 8//11 16//12
f 16//12 8//11 9//13 17//14
f 17//14 9//13 10//2 18//1
f 2//15 5//7 15//10 14//16
f 14//16 15//10 16//12 13//17
f 13//17 16//12 17//14 12//18
f 12//18 17//14 18//1 11//5
