# Blender v2.79 (sub 0) OBJ File: 'finch_base_mesh_BI.blend'
# www.blender.org
mtllib finch_feather_flight_tertiary_027.mtl
o feather_flight_tertiary_027
v 0.084942 0.074218 0.022247
v 0.083900 0.073176 0.022247
v 0.087930 0.071609 0.022247
v 0.086509 0.070188 0.022247
v 0.084278 0.073840 0.022399
v 0.087375 0.070743 0.022399
v 0.085699 0.074027 0.022247
v 0.086554 0.073648 0.022247
v 0.087323 0.073184 0.022247
v 0.087897 0.072524 0.022247
v 0.085594 0.070221 0.022247
v 0.084935 0.070795 0.022247
v 0.084470 0.071564 0.022247
v 0.084091 0.072419 0.022247
v 0.084895 0.073223 0.022399
v 0.085512 0.072606 0.022399
v 0.086129 0.071989 0.022399
v 0.086746 0.071373 0.022399
vn -0.0180 0.0180 -0.9997
vn -0.0841 -0.0586 -0.9947
vn -0.1178 -0.0505 -0.9917
vn -0.0339 0.0339 -0.9988
vn 0.0586 0.0841 -0.9947
vn 0.0505 0.1178 -0.9917
vn 0.0308 -0.0308 -0.9990
vn -0.0866 -0.1473 -0.9853
vn -0.0734 -0.1153 -0.9906
vn 0.0233 -0.0233 -0.9995
vn -0.0623 -0.0851 -0.9944
vn 0.0122 -0.0122 -0.9998
vn -0.0636 -0.0691 -0.9956
vn 0.0031 -0.0031 -1.0000
vn 0.1473 0.0866 -0.9853
vn 0.1153 0.0734 -0.9906
vn 0.0851 0.0623 -0.9944
vn 0.0691 0.0636 -0.9956
usemtl feather_brown_001
s 1
f 18//1 10//2 3//3 6//4
f 11//5 18//1 6//4 4//6
f 5//7 1//8 7//9 15//10
f 15//10 7//9 8//11 16//12
f 16//12 8//11 9//13 17//14
f 17//14 9//13 10//2 18//1
f 2//15 5//7 15//10 14//16
f 14//16 15//10 16//12 13//17
f 13//17 16//12 17//14 12//18
f 12//18 17//14 18//1 11//5
