# Blender v2.79 (sub 0) OBJ File: 'finch_base_mesh_BI.blend'
# www.blender.org
mtllib finch_feather_flight_primary_013.mtl
o feather_flight_primary_013
v 0.081134 0.073333 0.021489
v 0.078899 0.071093 0.021489
v 0.115496 0.039748 0.021489
v 0.111106 0.037652 0.021489
v 0.078281 0.073950 0.021733
v 0.114332 0.037858 0.021733
v 0.087492 0.068185 0.021489
v 0.095488 0.061204 0.021489
v 0.103299 0.054037 0.021489
v 0.110693 0.046452 0.021489
v 0.105749 0.041499 0.021489
v 0.098173 0.048901 0.021489
v 0.091014 0.056722 0.021489
v 0.084040 0.064728 0.021489
v 0.085766 0.066456 0.021733
v 0.093251 0.058963 0.021733
v 0.100736 0.051469 0.021733
v 0.108221 0.043976 0.021733
vn -0.0028 0.0020 -1.0000
vn -0.0567 -0.0517 -0.9970
vn -0.0660 -0.0561 -0.9962
vn -0.0188 -0.0096 -0.9998
vn 0.0515 0.0557 -0.9971
vn 0.0553 0.0637 -0.9964
vn 0.0040 -0.0040 -1.0000
vn -0.0833 -0.0913 -0.9923
vn -0.0706 -0.0765 -0.9946
vn 0.0031 -0.0030 -1.0000
vn -0.0541 -0.0572 -0.9969
vn 0.0016 -0.0015 -1.0000
vn -0.0490 -0.0497 -0.9976
vn 0.0005 -0.0003 -1.0000
vn 0.0915 0.0834 -0.9923
vn 0.0767 0.0706 -0.9945
vn 0.0574 0.0541 -0.9969
vn 0.0499 0.0490 -0.9975
usemtl feather_brown_003
s 1
f 18//1 10//2 3//3 6//4
f 11//5 18//1 6//4 4//6
f 5//7 1//8 7//9 15//10
f 15//10 7//9 8//11 16//12
f 16//12 8//11 9//13 17//14
f 17//14 9//13 10//2 18//1
f 2//15 5//7 15//10 14//16
f 14//16 15//10 16//12 13//17
f 13//17 16//12 17//14 12//18
f 12//18 17//14 18//1 11//5
