# Blender v2.79 (sub 0) OBJ File: 'finch_base_mesh_BI.blend'
# www.blender.org
mtllib finch_feather_flight_secondary_030.mtl
o feather_flight_secondary_030
v 0.085513 0.074174 0.021436
v 0.084146 0.072545 0.021436
v 0.096976 0.065061 0.021436
v 0.094615 0.063019 0.021436
v 0.084256 0.073840 0.021100
v 0.096163 0.063849 0.021100
v 0.087783 0.073023 0.021436
v 0.090568 0.071321 0.021436
v 0.093239 0.069485 0.021436
v 0.095656 0.067344 0.021436
v 0.092633 0.063741 0.021436
v 0.090105 0.065750 0.021436
v 0.087833 0.068062 0.021436
v 0.085673 0.070508 0.021436
v 0.086728 0.071766 0.021100
v 0.089200 0.069691 0.021100
v 0.091672 0.067617 0.021100
v 0.094145 0.065543 0.021100
vn 0.0126 -0.0091 -0.9999
vn 0.1107 0.1094 -0.9878
vn 0.1365 0.1146 -0.9840
vn 0.0354 -0.0035 -0.9994
vn -0.0887 -0.1253 -0.9881
vn -0.0894 -0.1480 -0.9849
vn -0.0199 0.0167 -0.9996
vn 0.1402 0.2062 -0.9684
vn 0.1194 0.1710 -0.9780
vn -0.0150 0.0126 -0.9998
vn 0.0951 0.1287 -0.9871
vn -0.0078 0.0066 -0.9999
vn 0.0897 0.1107 -0.9898
vn -0.0020 0.0016 -1.0000
vn -0.1787 -0.1738 -0.9684
vn -0.1476 -0.1472 -0.9780
vn -0.1102 -0.1160 -0.9871
vn -0.0935 -0.1075 -0.9898
usemtl feather_brown_002
s 1
f 18//1 10//2 3//3 6//4
f 11//5 18//1 6//4 4//6
f 5//7 1//8 7//9 15//10
f 15//10 7//9 8//11 16//12
f 16//12 8//11 9//13 17//14
f 17//14 9//13 10//2 18//1
f 2//15 5//7 15//10 14//16
f 14//16 15//10 16//12 13//17
f 13//17 16//12 17//14 12//18
f 12//18 17//14 18//1 11//5
