# Blender v2.79 (sub 0) OBJ File: 'finch_base_mesh_BI.blend'
# www.blender.org
mtllib finch_feather_flight_primary_014.mtl
o feather_flight_primary_014
v 0.085607 0.073703 0.021489
v 0.083838 0.071171 0.021489
v 0.124329 0.047244 0.021489
v 0.120464 0.044486 0.021489
v 0.082760 0.073813 0.021716
v 0.123530 0.045230 0.021716
v 0.092591 0.069833 0.021489
v 0.101460 0.064477 0.021489
v 0.110183 0.058912 0.021489
v 0.118576 0.052875 0.021489
v 0.114663 0.047275 0.021489
v 0.106126 0.053107 0.021489
v 0.097920 0.059411 0.021489
v 0.089859 0.065924 0.021489
v 0.091225 0.067878 0.021716
v 0.099690 0.061944 0.021716
v 0.108155 0.056009 0.021716
v 0.116620 0.050075 0.021716
vn -0.0030 0.0015 -1.0000
vn -0.0448 -0.0581 -0.9973
vn -0.0528 -0.0638 -0.9966
vn -0.0161 -0.0121 -0.9998
vn 0.0392 0.0609 -0.9973
vn 0.0415 0.0691 -0.9967
vn 0.0045 -0.0031 -1.0000
vn -0.0634 -0.0998 -0.9930
vn -0.0537 -0.0837 -0.9950
vn 0.0034 -0.0023 -1.0000
vn -0.0414 -0.0628 -0.9972
vn 0.0018 -0.0012 -1.0000
vn -0.0378 -0.0549 -0.9978
vn 0.0005 -0.0002 -1.0000
vn 0.0723 0.0937 -0.9930
vn 0.0605 0.0792 -0.9950
vn 0.0450 0.0605 -0.9971
vn 0.0388 0.0544 -0.9977
usemtl feather_brown_003
s 1
f 18//1 10//2 3//3 6//4
f 11//5 18//1 6//4 4//6
f 5//7 1//8 7//9 15//10
f 15//10 7//9 8//11 16//12
f 16//12 8//11 9//13 17//14
f 17//14 9//13 10//2 18//1
f 2//15 5//7 15//10 14//16
f 14//16 15//10 16//12 13//17
f 13//17 16//12 17//14 12//18
f 12//18 17//14 18//1 11//5
