# Blender v2.79 (sub 0) OBJ File: 'finch_base_mesh_BI.blend'
# www.blender.org
mtllib finch_feather_flight_tertiary_006.mtl
o feather_flight_tertiary_006
v 0.037642 0.073262 0.022247
v 0.036170 0.073210 0.022247
v 0.038324 0.061447 0.022247
v 0.036315 0.061377 0.022247
v 0.036885 0.073840 0.022399
v 0.037342 0.060754 0.022399
v 0.038113 0.071273 0.022247
v 0.038540 0.068679 0.022247
v 0.038846 0.066080 0.022247
v 0.038877 0.063471 0.022247
v 0.035621 0.063357 0.022247
v 0.035471 0.065962 0.022247
v 0.035594 0.068576 0.022247
v 0.035840 0.071194 0.022247
v 0.036976 0.071234 0.022399
v 0.037067 0.068627 0.022399
v 0.037158 0.066021 0.022399
v 0.037249 0.063414 0.022399
vn -0.0003 0.0085 -0.9999
vn -0.1041 0.0040 -0.9945
vn -0.1197 0.0117 -0.9927
vn -0.0005 0.0160 -0.9998
vn 0.1036 0.0113 -0.9945
vn 0.1186 0.0201 -0.9927
vn 0.0005 -0.0146 -0.9999
vn -0.1649 -0.0201 -0.9861
vn -0.1379 -0.0154 -0.9903
vn 0.0004 -0.0110 -0.9999
vn -0.1053 -0.0093 -0.9944
vn 0.0002 -0.0057 -1.0000
vn -0.0938 -0.0047 -0.9956
vn 0.0000 -0.0014 -1.0000
vn 0.1659 -0.0086 -0.9861
vn 0.1386 -0.0057 -0.9903
vn 0.1057 -0.0019 -0.9944
vn 0.0939 0.0019 -0.9956
usemtl feather_brown_001
s 1
f 18//1 10//2 3//3 6//4
f 11//5 18//1 6//4 4//6
f 5//7 1//8 7//9 15//10
f 15//10 7//9 8//11 16//12
f 16//12 8//11 9//13 17//14
f 17//14 9//13 10//2 18//1
f 2//15 5//7 15//10 14//16
f 14//16 15//10 16//12 13//17
f 13//17 16//12 17//14 12//18
f 12//18 17//14 18//1 11//5
