# Blender v2.79 (sub 0) OBJ File: 'finch_base_mesh_BI.blend'
# www.blender.org
mtllib finch_feather_flight_primary_007.mtl
o feather_flight_primary_007
v 0.055483 0.071513 0.021489
v 0.051844 0.071145 0.021489
v 0.061507 0.021887 0.021489
v 0.056437 0.024195 0.021489
v 0.053390 0.073869 0.021807
v 0.059218 0.021682 0.021807
v 0.057380 0.063198 0.021489
v 0.059394 0.052328 0.021489
v 0.061107 0.041427 0.021489
v 0.062140 0.030457 0.021489
v 0.054091 0.029644 0.021490
v 0.052761 0.040584 0.021490
v 0.052111 0.051592 0.021489
v 0.051762 0.062631 0.021489
v 0.054571 0.062915 0.021807
v 0.055752 0.051960 0.021807
v 0.056934 0.041005 0.021807
v 0.058115 0.030050 0.021807
vn 0.0009 0.0060 -1.0000
vn -0.0877 -0.0054 -0.9961
vn -0.1001 -0.0028 -0.9950
vn -0.0389 0.0058 -0.9992
vn 0.0871 0.0160 -0.9961
vn 0.1007 0.0251 -0.9946
vn 0.0011 -0.0071 -1.0000
vn -0.1379 -0.0220 -0.9902
vn -0.1160 -0.0178 -0.9931
vn 0.0003 -0.0054 -1.0000
vn -0.0881 -0.0123 -0.9960
vn 0.0002 -0.0028 -1.0000
vn -0.0784 -0.0092 -0.9969
vn -0.0000 -0.0007 -1.0000
vn 0.1391 0.0078 -0.9902
vn 0.1171 0.0073 -0.9931
vn 0.0886 0.0067 -0.9960
vn 0.0784 0.0077 -0.9969
usemtl feather_brown_003
s 1
f 18//1 10//2 3//3 6//4
f 11//5 18//1 6//4 4//6
f 5//7 1//8 7//9 15//10
f 15//10 7//9 8//11 16//12
f 16//12 8//11 9//13 17//14
f 17//14 9//13 10//2 18//1
f 2//15 5//7 15//10 14//16
f 14//16 15//10 16//12 13//17
f 13//17 16//12 17//14 12//18
f 12//18 17//14 18//1 11//5
