# Blender v2.79 (sub 0) OBJ File: 'finch_base_mesh_BI.blend'
# www.blender.org
mtllib finch_feather_flight_primary_009.mtl
o feather_flight_primary_009
v 0.064591 0.072034 0.021489
v 0.061281 0.071144 0.021489
v 0.077296 0.026946 0.021489
v 0.072088 0.027189 0.021489
v 0.062317 0.073902 0.021762
v 0.075166 0.025858 0.021762
v 0.067540 0.064613 0.021489
v 0.070965 0.054841 0.021489
v 0.074116 0.044996 0.021489
v 0.076649 0.034985 0.021489
v 0.069327 0.033018 0.021489
v 0.066525 0.042957 0.021489
v 0.064341 0.053061 0.021489
v 0.062430 0.063240 0.021489
v 0.064985 0.063926 0.021762
v 0.067653 0.053951 0.021762
v 0.070320 0.043976 0.021762
v 0.072988 0.034001 0.021762
vn -0.0015 0.0037 -1.0000
vn -0.0777 -0.0167 -0.9968
vn -0.0884 -0.0154 -0.9959
vn -0.0203 0.0023 -0.9998
vn 0.0748 0.0236 -0.9969
vn 0.0824 0.0291 -0.9962
vn 0.0017 -0.0063 -1.0000
vn -0.1218 -0.0393 -0.9918
vn -0.1026 -0.0325 -0.9942
vn 0.0014 -0.0048 -1.0000
vn -0.0780 -0.0235 -0.9967
vn 0.0007 -0.0025 -1.0000
vn -0.0696 -0.0193 -0.9974
vn 0.0002 -0.0006 -1.0000
vn 0.1253 0.0267 -0.9917
vn 0.1053 0.0231 -0.9942
vn 0.0795 0.0186 -0.9966
vn 0.0701 0.0181 -0.9973
usemtl feather_brown_003
s 1
f 18//1 10//2 3//3 6//4
f 11//5 18//1 6//4 4//6
f 5//7 1//8 7//9 15//10
f 15//10 7//9 8//11 16//12
f 16//12 8//11 9//13 17//14
f 17//14 9//13 10//2 18//1
f 2//15 5//7 15//10 14//16
f 14//16 15//10 16//12 13//17
f 13//17 16//12 17//14 12//18
f 12//18 17//14 18//1 11//5
