# Blender v2.79 (sub 0) OBJ File: 'goose_base_mesh_BI.blend'
# www.blender.org
mtllib goose_feather_flight_tertiary_062.mtl
o feather_flight_tertiary_062
v 0.572318 0.380103 0.106768
v 0.568971 0.373721 0.106878
v 0.616004 0.358378 0.106337
v 0.611436 0.349669 0.106486
v 0.568462 0.378095 0.105787
v 0.616136 0.352763 0.105332
v 0.580522 0.377962 0.106669
v 0.590783 0.374375 0.106553
v 0.600767 0.370261 0.106446
v 0.610127 0.364956 0.106360
v 0.602725 0.350842 0.106603
v 0.593093 0.355629 0.106698
v 0.584086 0.361606 0.106772
v 0.575355 0.368110 0.106838
v 0.577958 0.373049 0.105697
v 0.587454 0.368003 0.105606
v 0.596950 0.362958 0.105515
v 0.606446 0.357912 0.105425
vn -0.0015 -0.0154 -0.9999
vn 0.0652 0.1139 -0.9913
vn 0.0881 0.1267 -0.9880
vn 0.0092 -0.0221 -0.9997
vn -0.0714 -0.1431 -0.9871
vn -0.0690 -0.1684 -0.9833
vn -0.0354 0.0033 -0.9994
vn 0.0735 0.2070 -0.9756
vn 0.0612 0.1704 -0.9835
vn -0.0304 0.0002 -0.9995
vn 0.0471 0.1264 -0.9908
vn -0.0228 -0.0044 -0.9997
vn 0.0457 0.1088 -0.9930
vn -0.0165 -0.0078 -0.9998
vn -0.1423 -0.2003 -0.9693
vn -0.1194 -0.1703 -0.9781
vn -0.0917 -0.1352 -0.9865
vn -0.0782 -0.1244 -0.9891
usemtl feather_white_001
s 1
f 18//1 10//2 3//3 6//4
f 11//5 18//1 6//4 4//6
f 5//7 1//8 7//9 15//10
f 15//10 7//9 8//11 16//12
f 16//12 8//11 9//13 17//14
f 17//14 9//13 10//2 18//1
f 2//15 5//7 15//10 14//16
f 14//16 15//10 16//12 13//17
f 13//17 16//12 17//14 12//18
f 12//18 17//14 18//1 11//5
