# Blender v2.79 (sub 0) OBJ File: 'goose_base_mesh_BI.blend'
# www.blender.org
mtllib goose_feather_flight_secondary_027.mtl
o feather_flight_secondary_027
v 0.452824 0.377676 0.107931
v 0.438316 0.370346 0.107877
v 0.496031 0.298921 0.107357
v 0.473630 0.291010 0.107299
v 0.443497 0.378095 0.106941
v 0.486563 0.293059 0.106321
v 0.463636 0.366106 0.107847
v 0.475893 0.350126 0.107730
v 0.486953 0.333540 0.107610
v 0.495305 0.315587 0.107479
v 0.463221 0.299377 0.107360
v 0.453690 0.316735 0.107486
v 0.446867 0.335460 0.107623
v 0.441241 0.354791 0.107764
v 0.452438 0.360440 0.106812
v 0.461380 0.342784 0.106683
v 0.470321 0.325128 0.106555
v 0.479263 0.307473 0.106426
vn 0.0038 0.0008 -1.0000
vn 0.0568 0.0284 -0.9980
vn 0.0680 0.0248 -0.9973
vn 0.0122 -0.0024 -0.9999
vn -0.0503 -0.0249 -0.9984
vn -0.0537 -0.0345 -0.9980
vn -0.0057 0.0184 -0.9998
vn 0.0821 0.0627 -0.9946
vn 0.0685 0.0520 -0.9963
vn -0.0043 0.0157 -0.9998
vn 0.0533 0.0396 -0.9978
vn -0.0022 0.0117 -0.9999
vn 0.0489 0.0334 -0.9982
vn -0.0005 0.0084 -0.9999
vn -0.0934 -0.0261 -0.9953
vn -0.0766 -0.0215 -0.9968
vn -0.0576 -0.0165 -0.9982
vn -0.0500 -0.0167 -0.9986
usemtl feather_white_002
s 1
f 18//1 10//2 3//3 6//4
f 11//5 18//1 6//4 4//6
f 5//7 1//8 7//9 15//10
f 15//10 7//9 8//11 16//12
f 16//12 8//11 9//13 17//14
f 17//14 9//13 10//2 18//1
f 2//15 5//7 15//10 14//16
f 14//16 15//10 16//12 13//17
f 13//17 16//12 17//14 12//18
f 12//18 17//14 18//1 11//5
