# Blender v2.79 (sub 0) OBJ File: 'goose_base_mesh_BI.blend'
# www.blender.org
mtllib goose_feather_flight_secondary_017.mtl
o feather_flight_secondary_017
v 0.173968 0.374565 0.107934
v 0.161431 0.374565 0.107934
v 0.176254 0.305190 0.107934
v 0.158083 0.307539 0.107934
v 0.167699 0.378111 0.106942
v 0.167699 0.304452 0.106942
v 0.177376 0.362817 0.107934
v 0.180241 0.347524 0.107934
v 0.182071 0.332231 0.107934
v 0.181562 0.316937 0.107934
v 0.153836 0.316937 0.107934
v 0.153327 0.332231 0.107934
v 0.155157 0.347524 0.107934
v 0.158022 0.362817 0.107934
v 0.167699 0.362817 0.106942
v 0.167699 0.347524 0.106942
v 0.167699 0.332231 0.106942
v 0.167699 0.316937 0.106942
vn 0.0006 -0.0096 -0.9999
vn 0.0779 -0.0088 -0.9969
vn 0.0888 -0.0194 -0.9958
vn 0.0084 -0.0183 -0.9998
vn -0.0769 -0.0077 -0.9970
vn -0.0864 -0.0168 -0.9961
vn 0.0000 0.0161 -0.9998
vn 0.1270 0.0160 -0.9918
vn 0.1051 0.0116 -0.9944
vn 0.0000 0.0122 -0.9999
vn 0.0805 0.0062 -0.9967
vn 0.0000 0.0064 -1.0000
vn 0.0718 0.0015 -0.9974
vn 0.0000 0.0016 -1.0000
vn -0.1270 0.0160 -0.9918
vn -0.1051 0.0116 -0.9944
vn -0.0805 0.0062 -0.9967
vn -0.0718 0.0015 -0.9974
usemtl feather_white_002
s 1
f 18//1 10//2 3//3 6//4
f 11//5 18//1 6//4 4//6
f 5//7 1//8 7//9 15//10
f 15//10 7//9 8//11 16//12
f 16//12 8//11 9//13 17//14
f 17//14 9//13 10//2 18//1
f 2//15 5//7 15//10 14//16
f 14//16 15//10 16//12 13//17
f 13//17 16//12 17//14 12//18
f 12//18 17//14 18//1 11//5
