# Blender v2.79 (sub 0) OBJ File: 'goose_base_mesh_BI.blend'
# www.blender.org
mtllib goose_feather_flight_primary_012.mtl
o feather_flight_primary_012
v 0.484048 0.376363 0.108226
v 0.467874 0.364612 0.108226
v 0.595372 0.229340 0.108226
v 0.568260 0.217361 0.108226
v 0.470422 0.378111 0.109218
v 0.585489 0.219736 0.109218
v 0.506796 0.354298 0.108226
v 0.534383 0.324101 0.108226
v 0.560635 0.292934 0.108226
v 0.583869 0.259575 0.108226
v 0.548100 0.233587 0.108226
v 0.523553 0.265993 0.108226
v 0.502024 0.300591 0.108226
v 0.481829 0.336159 0.108226
v 0.494313 0.345228 0.109218
v 0.518203 0.312346 0.109218
v 0.542094 0.279464 0.109218
v 0.565984 0.246581 0.109218
vn -0.0024 0.0027 -1.0000
vn -0.0420 -0.0261 -0.9987
vn -0.0495 -0.0269 -0.9984
vn -0.0109 0.0006 -0.9999
vn 0.0375 0.0311 -0.9988
vn 0.0402 0.0370 -0.9985
vn 0.0035 -0.0049 -1.0000
vn -0.0612 -0.0519 -0.9968
vn -0.0515 -0.0429 -0.9977
vn 0.0027 -0.0037 -1.0000
vn -0.0397 -0.0317 -0.9987
vn 0.0014 -0.0019 -1.0000
vn -0.0361 -0.0270 -0.9990
vn 0.0003 -0.0005 -1.0000
vn 0.0683 0.0421 -0.9968
vn 0.0567 0.0357 -0.9977
vn 0.0425 0.0279 -0.9987
vn 0.0368 0.0260 -0.9990
usemtl feather_white_003
s 1
f 18//1 10//2 3//3 6//4
f 11//5 18//1 6//4 4//6
f 5//7 1//8 7//9 15//10
f 15//10 7//9 8//11 16//12
f 16//12 8//11 9//13 17//14
f 17//14 9//13 10//2 18//1
f 2//15 5//7 15//10 14//16
f 14//16 15//10 16//12 13//17
f 13//17 16//12 17//14 12//18
f 12//18 17//14 18//1 11//5
