# Blender v2.79 (sub 0) OBJ File: 'goose_base_mesh_BI.blend'
# www.blender.org
mtllib goose_feather_tail_primary_001.mtl
o feather_tail_primary_001
v 0.019946 0.321777 -0.265059
v 0.012616 0.321777 -0.279934
v 0.171937 0.321777 -0.336789
v 0.162091 0.321777 -0.356768
v 0.012489 0.324325 -0.270628
v 0.174994 0.324325 -0.350711
v 0.034156 0.321777 -0.267907
v 0.051744 0.321777 -0.273463
v 0.145560 0.321777 -0.317385
v 0.161274 0.321777 -0.326743
v 0.147629 0.321777 -0.354432
v 0.130634 0.321777 -0.347672
v 0.038651 0.321777 -0.300031
v 0.023531 0.321777 -0.289468
v 0.028843 0.324325 -0.278688
v 0.045198 0.324325 -0.286747
v 0.138097 0.324325 -0.332528
v 0.154451 0.324325 -0.340588
v 0.127027 0.321777 -0.308133
v 0.108358 0.321777 -0.299158
v 0.089630 0.321777 -0.290303
v 0.070845 0.321777 -0.281562
v 0.056710 0.321777 -0.310245
v 0.075085 0.321777 -0.319816
v 0.093517 0.321777 -0.329274
v 0.112007 0.321777 -0.338611
v 0.119517 0.324325 -0.323372
v 0.100937 0.324325 -0.314216
v 0.082357 0.324325 -0.305059
v 0.063778 0.324325 -0.295903
vn 0.0132 0.9999 -0.0065
vn 0.0886 0.9848 0.1494
vn 0.1069 0.9804 0.1654
vn 0.0208 0.9997 -0.0103
vn -0.0645 0.9848 -0.1613
vn -0.0660 0.9804 -0.1856
vn -0.0266 0.9995 0.0131
vn 0.0842 0.9681 0.2359
vn 0.0760 0.9767 0.2008
vn -0.0198 0.9998 0.0097
vn 0.0688 0.9847 0.1602
vn -0.0086 0.9999 0.0042
vn -0.0002 1.0000 0.0001
vn 0.0657 0.9888 0.1337
vn 0.0701 0.9883 0.1350
vn 0.0030 1.0000 -0.0015
vn -0.1358 0.9681 -0.2105
vn -0.1129 0.9767 -0.1826
vn -0.0851 0.9847 -0.1521
vn -0.0660 0.9888 -0.1335
vn -0.0644 0.9883 -0.1379
vn 0.0675 0.9872 0.1441
vn -0.0029 1.0000 0.0014
vn 0.0664 0.9882 0.1382
vn -0.0013 1.0000 0.0006
vn 0.0656 0.9886 0.1353
vn -0.0009 1.0000 0.0004
vn -0.0732 0.9872 -0.1413
vn -0.0691 0.9882 -0.1369
vn -0.0673 0.9886 -0.1344
usemtl feather_white_003
s 1
f 18//1 10//2 3//3 6//4
f 11//5 18//1 6//4 4//6
f 5//7 1//8 7//9 15//10
f 15//10 7//9 8//11 16//12
f 27//13 19//14 9//15 17//16
f 17//16 9//15 10//2 18//1
f 2//17 5//7 15//10 14//18
f 14//18 15//10 16//12 13//19
f 26//20 27//13 17//16 12//21
f 12//21 17//16 18//1 11//5
f 16//12 8//11 22//22 30//23
f 30//23 22//22 21//24 29//25
f 29//25 21//24 20//26 28//27
f 28//27 20//26 19//14 27//13
f 13//19 16//12 30//23 23//28
f 23//28 30//23 29//25 24//29
f 24//29 29//25 28//27 25//30
f 25//30 28//27 27//13 26//20
