# Blender v2.79 (sub 0) OBJ File: 'goose_base_mesh_BI.blend'
# www.blender.org
mtllib goose_feather_flight_secondary_022.mtl
o feather_flight_secondary_022
v 0.313463 0.374476 0.107934
v 0.298799 0.373451 0.107934
v 0.321811 0.293518 0.107934
v 0.300365 0.294780 0.107934
v 0.305841 0.378111 0.106942
v 0.311865 0.291955 0.106942
v 0.318410 0.361014 0.107934
v 0.323012 0.343361 0.107934
v 0.326404 0.325622 0.107934
v 0.327059 0.307693 0.107934
v 0.294629 0.305425 0.107934
v 0.292783 0.323271 0.107934
v 0.293673 0.341309 0.107934
v 0.295773 0.359431 0.107934
v 0.307092 0.360223 0.106942
v 0.308342 0.342335 0.106942
v 0.309593 0.324447 0.106942
v 0.310844 0.306559 0.106942
vn 0.0011 -0.0082 -0.9999
vn 0.0669 -0.0028 -0.9977
vn 0.0768 -0.0113 -0.9970
vn 0.0082 -0.0150 -0.9998
vn -0.0650 -0.0111 -0.9978
vn -0.0726 -0.0194 -0.9972
vn -0.0009 0.0137 -0.9999
vn 0.1073 0.0212 -0.9940
vn 0.0889 0.0161 -0.9959
vn -0.0007 0.0104 -0.9999
vn 0.0682 0.0100 -0.9976
vn -0.0004 0.0054 -1.0000
vn 0.0610 0.0056 -0.9981
vn -0.0001 0.0014 -1.0000
vn -0.1092 0.0061 -0.9940
vn -0.0902 0.0036 -0.9959
vn -0.0689 0.0005 -0.9976
vn -0.0612 -0.0030 -0.9981
usemtl feather_white_002
s 1
f 18//1 10//2 3//3 6//4
f 11//5 18//1 6//4 4//6
f 5//7 1//8 7//9 15//10
f 15//10 7//9 8//11 16//12
f 16//12 8//11 9//13 17//14
f 17//14 9//13 10//2 18//1
f 2//15 5//7 15//10 14//16
f 14//16 15//10 16//12 13//17
f 13//17 16//12 17//14 12//18
f 12//18 17//14 18//1 11//5
