# Blender v2.79 (sub 0) OBJ File: 'goose_base_mesh_BI.blend'
# www.blender.org
mtllib goose_feather_flight_primary_008.mtl
o feather_flight_primary_008
v 0.371273 0.371449 0.108226
v 0.353888 0.368384 0.108226
v 0.402714 0.211673 0.108226
v 0.376560 0.212661 0.108226
v 0.361136 0.378111 0.109218
v 0.391153 0.207876 0.109218
v 0.380787 0.345132 0.108226
v 0.390992 0.310488 0.108226
v 0.399762 0.275591 0.108226
v 0.405289 0.240122 0.108226
v 0.366841 0.233342 0.108226
v 0.359903 0.268563 0.108226
v 0.356209 0.304355 0.108226
v 0.353950 0.340400 0.108226
v 0.367368 0.342766 0.109218
v 0.373600 0.307421 0.109218
v 0.379833 0.272077 0.109218
v 0.386065 0.236732 0.109218
vn -0.0011 0.0040 -1.0000
vn -0.0557 -0.0057 -0.9984
vn -0.0637 -0.0028 -0.9980
vn -0.0107 0.0060 -0.9999
vn 0.0536 0.0130 -0.9985
vn 0.0593 0.0177 -0.9981
vn 0.0012 -0.0067 -1.0000
vn -0.0880 -0.0225 -0.9958
vn -0.0736 -0.0181 -0.9971
vn 0.0009 -0.0051 -1.0000
vn -0.0561 -0.0126 -0.9983
vn 0.0005 -0.0027 -1.0000
vn -0.0501 -0.0095 -0.9987
vn 0.0001 -0.0007 -1.0000
vn 0.0903 0.0090 -0.9958
vn 0.0754 0.0081 -0.9971
vn 0.0570 0.0073 -0.9983
vn 0.0504 0.0082 -0.9987
usemtl feather_white_003
s 1
f 18//1 10//2 3//3 6//4
f 11//5 18//1 6//4 4//6
f 5//7 1//8 7//9 15//10
f 15//10 7//9 8//11 16//12
f 16//12 8//11 9//13 17//14
f 17//14 9//13 10//2 18//1
f 2//15 5//7 15//10 14//16
f 14//16 15//10 16//12 13//17
f 13//17 16//12 17//14 12//18
f 12//18 17//14 18//1 11//5
