# Blender v2.79 (sub 0) OBJ File: 'goose_base_mesh_BI.blend'
# www.blender.org
mtllib goose_feather_flight_tertiary_020.mtl
o feather_flight_tertiary_020
v 0.430963 0.377530 0.110733
v 0.420418 0.374837 0.110733
v 0.442515 0.340316 0.110733
v 0.428125 0.336641 0.110733
v 0.425199 0.378111 0.111725
v 0.435856 0.336381 0.111725
v 0.435460 0.371878 0.110733
v 0.439993 0.364181 0.110733
v 0.443655 0.356263 0.110733
v 0.445350 0.347841 0.110733
v 0.422030 0.341886 0.110733
v 0.419479 0.350088 0.110733
v 0.418896 0.358793 0.110733
v 0.419183 0.367720 0.110733
v 0.427321 0.369799 0.111725
v 0.429444 0.361487 0.111725
v 0.431567 0.353175 0.111725
v 0.433690 0.344864 0.111725
vn -0.0042 0.0163 -0.9998
vn -0.0902 -0.0096 -0.9959
vn -0.1094 0.0045 -0.9940
vn -0.0078 0.0307 -0.9995
vn 0.0837 0.0348 -0.9959
vn 0.0938 0.0565 -0.9940
vn 0.0071 -0.0279 -0.9996
vn -0.1343 -0.0637 -0.9889
vn -0.1104 -0.0489 -0.9927
vn 0.0054 -0.0211 -0.9998
vn -0.0866 -0.0333 -0.9957
vn 0.0028 -0.0110 -0.9999
vn -0.0793 -0.0230 -0.9966
vn 0.0007 -0.0028 -1.0000
vn 0.1484 0.0085 -0.9889
vn 0.1203 0.0100 -0.9927
vn 0.0920 0.0123 -0.9957
vn 0.0807 0.0179 -0.9966
usemtl feather_white_001
s 1
f 18//1 10//2 3//3 6//4
f 11//5 18//1 6//4 4//6
f 5//7 1//8 7//9 15//10
f 15//10 7//9 8//11 16//12
f 16//12 8//11 9//13 17//14
f 17//14 9//13 10//2 18//1
f 2//15 5//7 15//10 14//16
f 14//16 15//10 16//12 13//17
f 13//17 16//12 17//14 12//18
f 12//18 17//14 18//1 11//5
