# Blender v2.79 (sub 0) OBJ File: 'goose_base_mesh_BI.blend'
# www.blender.org
mtllib goose_feather_flight_primary_013.mtl
o feather_flight_primary_013
v 0.512641 0.378543 0.108226
v 0.497642 0.363545 0.108226
v 0.653702 0.242952 0.108226
v 0.627279 0.225898 0.108226
v 0.498072 0.378114 0.109218
v 0.644939 0.231246 0.109218
v 0.540142 0.359197 0.108226
v 0.574062 0.332131 0.108226
v 0.606745 0.303828 0.108226
v 0.636629 0.272726 0.108226
v 0.603460 0.239556 0.108226
v 0.572358 0.269440 0.108226
v 0.544054 0.302123 0.108226
v 0.516989 0.336044 0.108226
v 0.528565 0.347620 0.109218
v 0.559058 0.317127 0.109218
v 0.589551 0.286634 0.109218
v 0.620044 0.256141 0.109218
vn -0.0027 0.0022 -1.0000
vn -0.0352 -0.0305 -0.9989
vn -0.0421 -0.0323 -0.9986
vn -0.0102 -0.0010 -0.9999
vn 0.0304 0.0345 -0.9989
vn 0.0320 0.0404 -0.9987
vn 0.0040 -0.0040 -1.0000
vn -0.0493 -0.0574 -0.9971
vn -0.0416 -0.0475 -0.9980
vn 0.0031 -0.0031 -1.0000
vn -0.0323 -0.0354 -0.9988
vn 0.0016 -0.0016 -1.0000
vn -0.0296 -0.0304 -0.9991
vn 0.0004 -0.0004 -1.0000
vn 0.0574 0.0493 -0.9971
vn 0.0475 0.0416 -0.9980
vn 0.0354 0.0323 -0.9988
vn 0.0304 0.0296 -0.9991
usemtl feather_white_003
s 1
f 18//1 10//2 3//3 6//4
f 11//5 18//1 6//4 4//6
f 5//7 1//8 7//9 15//10
f 15//10 7//9 8//11 16//12
f 16//12 8//11 9//13 17//14
f 17//14 9//13 10//2 18//1
f 2//15 5//7 15//10 14//16
f 14//16 15//10 16//12 13//17
f 13//17 16//12 17//14 12//18
f 12//18 17//14 18//1 11//5
