# Blender v2.79 (sub 0) OBJ File: 'goose_base_mesh_BI.blend'
# www.blender.org
mtllib goose_feather_flight_primary_006.mtl
o feather_flight_primary_006
v 0.314433 0.370821 0.108226
v 0.298058 0.369963 0.108226
v 0.325333 0.219956 0.108226
v 0.302987 0.227587 0.108226
v 0.305841 0.378111 0.109218
v 0.314600 0.219771 0.109218
v 0.320224 0.345481 0.108226
v 0.325711 0.312386 0.108226
v 0.329847 0.279219 0.108226
v 0.330927 0.245892 0.108226
v 0.294712 0.243995 0.108226
v 0.292303 0.277252 0.108226
v 0.292949 0.310669 0.108226
v 0.294946 0.344157 0.108226
v 0.307585 0.344819 0.109218
v 0.309330 0.311527 0.109218
v 0.311075 0.278235 0.109218
v 0.312820 0.244943 0.109218
vn 0.0008 0.0059 -1.0000
vn -0.0605 0.0010 -0.9982
vn -0.0688 0.0051 -0.9976
vn -0.0188 0.0094 -0.9998
vn 0.0607 0.0091 -0.9981
vn 0.0705 0.0170 -0.9973
vn 0.0004 -0.0074 -1.0000
vn -0.0969 -0.0125 -0.9952
vn -0.0810 -0.0097 -0.9966
vn 0.0003 -0.0056 -1.0000
vn -0.0616 -0.0061 -0.9981
vn 0.0002 -0.0029 -1.0000
vn -0.0548 -0.0036 -0.9985
vn 0.0000 -0.0007 -1.0000
vn 0.0977 -0.0023 -0.9952
vn 0.0816 -0.0012 -0.9966
vn 0.0619 0.0004 -0.9981
vn 0.0549 0.0021 -0.9985
usemtl feather_white_003
s 1
f 18//1 10//2 3//3 6//4
f 11//5 18//1 6//4 4//6
f 5//7 1//8 7//9 15//10
f 15//10 7//9 8//11 16//12
f 16//12 8//11 9//13 17//14
f 17//14 9//13 10//2 18//1
f 2//15 5//7 15//10 14//16
f 14//16 15//10 16//12 13//17
f 13//17 16//12 17//14 12//18
f 12//18 17//14 18//1 11//5
