# Blender v2.79 (sub 0) OBJ File: 'goose_base_mesh_BI.blend'
# www.blender.org
mtllib goose_feather_flight_tertiary_055.mtl
o feather_flight_tertiary_055
v 0.469845 0.378111 0.106820
v 0.461304 0.374284 0.106820
v 0.488177 0.341371 0.106820
v 0.476521 0.336149 0.106820
v 0.464717 0.378111 0.105827
v 0.483282 0.336677 0.105827
v 0.475007 0.372812 0.106820
v 0.480657 0.365434 0.106820
v 0.485602 0.357740 0.106820
v 0.488953 0.349331 0.106820
v 0.470064 0.340867 0.106820
v 0.466019 0.348965 0.106820
v 0.463568 0.357777 0.106820
v 0.461822 0.366904 0.106820
v 0.468415 0.369858 0.105827
v 0.472113 0.361605 0.105827
v 0.475811 0.353352 0.105827
v 0.479508 0.345099 0.105827
vn 0.0065 -0.0146 -0.9998
vn 0.1010 0.0310 -0.9944
vn 0.1233 0.0226 -0.9921
vn 0.0123 -0.0274 -0.9995
vn -0.0903 -0.0547 -0.9944
vn -0.0989 -0.0770 -0.9921
vn -0.0111 0.0249 -0.9996
vn 0.1432 0.0936 -0.9852
vn 0.1191 0.0744 -0.9901
vn -0.0085 0.0189 -0.9998
vn 0.0937 0.0533 -0.9942
vn -0.0044 0.0099 -0.9999
vn 0.0865 0.0415 -0.9954
vn -0.0011 0.0025 -1.0000
vn -0.1652 -0.0446 -0.9852
vn -0.1348 -0.0393 -0.9901
vn -0.1021 -0.0344 -0.9942
vn -0.0886 -0.0369 -0.9954
usemtl feather_white_001
s 1
f 18//1 10//2 3//3 6//4
f 11//5 18//1 6//4 4//6
f 5//7 1//8 7//9 15//10
f 15//10 7//9 8//11 16//12
f 16//12 8//11 9//13 17//14
f 17//14 9//13 10//2 18//1
f 2//15 5//7 15//10 14//16
f 14//16 15//10 16//12 13//17
f 13//17 16//12 17//14 12//18
f 12//18 17//14 18//1 11//5
