# Blender v2.79 (sub 0) OBJ File: 'goose_base_mesh_BI.blend'
# www.blender.org
mtllib goose_feather_flight_primary_002.mtl
o feather_flight_primary_002
v 0.199403 0.371636 0.108226
v 0.185666 0.371636 0.108226
v 0.201907 0.244947 0.108226
v 0.183161 0.253750 0.108226
v 0.192534 0.378111 0.109218
v 0.192534 0.246702 0.109218
v 0.203137 0.350183 0.108226
v 0.206276 0.322255 0.108226
v 0.208282 0.294328 0.108226
v 0.207724 0.266400 0.108226
v 0.177345 0.266400 0.108226
v 0.176787 0.294328 0.108226
v 0.178793 0.322255 0.108226
v 0.181932 0.350183 0.108226
v 0.192534 0.350183 0.109218
v 0.192534 0.322255 0.109218
v 0.192534 0.294328 0.109218
v 0.192534 0.266400 0.109218
vn 0.0013 0.0070 -1.0000
vn -0.0711 0.0054 -0.9974
vn -0.0797 0.0113 -0.9967
vn -0.0228 0.0127 -0.9996
vn 0.0727 0.0067 -0.9973
vn 0.0849 0.0153 -0.9962
vn 0.0000 -0.0088 -0.9999
vn -0.1161 -0.0088 -0.9932
vn -0.0971 -0.0065 -0.9952
vn 0.0000 -0.0067 -1.0000
vn -0.0738 -0.0034 -0.9973
vn 0.0000 -0.0035 -1.0000
vn -0.0656 -0.0009 -0.9978
vn 0.0000 -0.0009 -1.0000
vn 0.1161 -0.0088 -0.9932
vn 0.0971 -0.0065 -0.9952
vn 0.0738 -0.0034 -0.9973
vn 0.0656 -0.0009 -0.9978
usemtl feather_white_003
s 1
f 18//1 10//2 3//3 6//4
f 11//5 18//1 6//4 4//6
f 5//7 1//8 7//9 15//10
f 15//10 7//9 8//11 16//12
f 16//12 8//11 9//13 17//14
f 17//14 9//13 10//2 18//1
f 2//15 5//7 15//10 14//16
f 14//16 15//10 16//12 13//17
f 13//17 16//12 17//14 12//18
f 12//18 17//14 18//1 11//5
