# Blender v2.79 (sub 0) OBJ File: 'goose_base_mesh_BI.blend'
# www.blender.org
mtllib goose_feather_flight_tertiary_039.mtl
o feather_flight_tertiary_039
v 0.246293 0.376386 0.106819
v 0.235741 0.376017 0.106819
v 0.249522 0.339090 0.106819
v 0.235122 0.338587 0.106819
v 0.240950 0.378111 0.105827
v 0.242394 0.336760 0.105827
v 0.249383 0.370159 0.106819
v 0.252082 0.362007 0.106819
v 0.253910 0.353824 0.106819
v 0.253769 0.345573 0.106819
v 0.230432 0.344758 0.106819
v 0.229716 0.352979 0.106819
v 0.230969 0.361269 0.106819
v 0.233093 0.369590 0.106819
v 0.241238 0.369874 0.105827
v 0.241526 0.361638 0.105827
v 0.241813 0.353402 0.105827
v 0.242101 0.345165 0.105827
vn 0.0006 -0.0175 -0.9998
vn 0.0928 -0.0103 -0.9956
vn 0.1091 -0.0290 -0.9936
vn 0.0011 -0.0329 -0.9995
vn -0.0919 -0.0167 -0.9956
vn -0.1068 -0.0365 -0.9936
vn -0.0010 0.0299 -0.9995
vn 0.1491 0.0348 -0.9882
vn 0.1218 0.0251 -0.9922
vn -0.0008 0.0227 -0.9997
vn 0.0945 0.0145 -0.9954
vn -0.0004 0.0118 -0.9999
vn 0.0849 0.0057 -0.9963
vn -0.0001 0.0030 -1.0000
vn -0.1512 0.0243 -0.9882
vn -0.1233 0.0165 -0.9922
vn -0.0952 0.0079 -0.9954
vn -0.0851 -0.0002 -0.9963
usemtl feather_white_001
s 1
f 18//1 10//2 3//3 6//4
f 11//5 18//1 6//4 4//6
f 5//7 1//8 7//9 15//10
f 15//10 7//9 8//11 16//12
f 16//12 8//11 9//13 17//14
f 17//14 9//13 10//2 18//1
f 2//15 5//7 15//10 14//16
f 14//16 15//10 16//12 13//17
f 13//17 16//12 17//14 12//18
f 12//18 17//14 18//1 11//5
