# Blender v2.79 (sub 0) OBJ File: 'goose_base_mesh_BI.blend'
# www.blender.org
mtllib goose_feather_flight_secondary_013.mtl
o feather_flight_secondary_013
v 0.508026 0.380533 0.109520
v 0.495028 0.368332 0.109433
v 0.577997 0.310735 0.109550
v 0.556869 0.295491 0.109424
v 0.498076 0.378118 0.110469
v 0.569852 0.301648 0.110484
v 0.523006 0.371654 0.109546
v 0.540879 0.358565 0.109569
v 0.557679 0.344469 0.109585
v 0.572053 0.328097 0.109584
v 0.543308 0.301115 0.109393
v 0.527879 0.316497 0.109386
v 0.514874 0.334155 0.109396
v 0.502942 0.352820 0.109412
v 0.512979 0.362241 0.110472
v 0.527881 0.346364 0.110475
v 0.542783 0.330487 0.110478
v 0.557685 0.314610 0.110481
vn -0.0013 0.0078 -0.9999
vn -0.0407 -0.0298 -0.9987
vn -0.0514 -0.0297 -0.9982
vn -0.0095 0.0085 -0.9999
vn 0.0394 0.0442 -0.9982
vn 0.0399 0.0534 -0.9977
vn 0.0114 -0.0051 -0.9999
vn -0.0541 -0.0665 -0.9963
vn -0.0449 -0.0535 -0.9975
vn 0.0095 -0.0031 -0.9999
vn -0.0348 -0.0388 -0.9986
vn 0.0067 -0.0001 -1.0000
vn -0.0325 -0.0322 -0.9989
vn 0.0044 0.0023 -1.0000
vn 0.0767 0.0563 -0.9955
vn 0.0632 0.0479 -0.9968
vn 0.0479 0.0388 -0.9981
vn 0.0412 0.0370 -0.9984
usemtl feather_white_002
s 1
f 18//1 10//2 3//3 6//4
f 11//5 18//1 6//4 4//6
f 5//7 1//8 7//9 15//10
f 15//10 7//9 8//11 16//12
f 16//12 8//11 9//13 17//14
f 17//14 9//13 10//2 18//1
f 2//15 5//7 15//10 14//16
f 14//16 15//10 16//12 13//17
f 13//17 16//12 17//14 12//18
f 12//18 17//14 18//1 11//5
