# Blender v2.79 (sub 0) OBJ File: 'goose_base_mesh_BI.blend'
# www.blender.org
mtllib goose_feather_tail_secondary_004.mtl
o feather_tail_secondary_004
v 0.025110 0.324538 -0.271915
v 0.009637 0.324538 -0.281125
v 0.015316 0.327086 -0.273064
v 0.035403 0.324538 -0.281295
v 0.046881 0.324538 -0.294650
v 0.019246 0.324538 -0.311102
v 0.012977 0.324538 -0.294645
v 0.024190 0.327086 -0.287970
v 0.033063 0.327086 -0.302876
v 0.074356 0.324538 -0.341394
v 0.068575 0.324538 -0.327607
v 0.058062 0.324538 -0.310930
v 0.028228 0.324538 -0.328691
v 0.037877 0.324538 -0.345882
v 0.047241 0.324538 -0.357536
v 0.063307 0.327086 -0.353679
v 0.053226 0.327086 -0.336745
v 0.043145 0.327086 -0.319810
vn -0.0160 0.9995 0.0268
vn 0.1823 0.9726 0.1439
vn 0.1582 0.9802 0.1193
vn -0.0118 0.9997 0.0199
vn 0.1331 0.9869 0.0904
vn -0.0052 0.9999 0.0087
vn -0.2134 0.9726 -0.0917
vn -0.1803 0.9802 -0.0822
vn -0.1429 0.9869 -0.0739
vn 0.1244 0.9891 0.0779
vn -0.0017 1.0000 0.0029
vn 0.1280 0.9891 0.0722
vn 0.0019 1.0000 -0.0031
vn 0.1345 0.9885 0.0694
vn 0.0047 0.9999 -0.0079
vn -0.1278 0.9891 -0.0722
vn -0.1245 0.9891 -0.0781
vn -0.1251 0.9885 -0.0851
usemtl feather_white_001
s 1
f 3//1 1//2 4//3 8//4
f 8//4 4//3 5//5 9//6
f 2//7 3//1 8//4 7//8
f 7//8 8//4 9//6 6//9
f 9//6 5//5 12//10 18//11
f 18//11 12//10 11//12 17//13
f 17//13 11//12 10//14 16//15
f 6//9 9//6 18//11 13//16
f 13//16 18//11 17//13 14//17
f 14//17 17//13 16//15 15//18
