# Blender v2.79 (sub 0) OBJ File: 'goose_base_mesh_BI.blend'
# www.blender.org
mtllib goose_feather_tail_primary_005.mtl
o feather_tail_primary_005
v 0.026113 0.321090 -0.275361
v 0.008684 0.321090 -0.280946
v 0.076683 0.321090 -0.422902
v 0.053273 0.321090 -0.430402
v 0.016202 0.323638 -0.274418
v 0.067497 0.323638 -0.434513
v 0.033995 0.321090 -0.286483
v 0.042092 0.321090 -0.301655
v 0.073594 0.321090 -0.392478
v 0.077234 0.321090 -0.409078
v 0.044791 0.321090 -0.419473
v 0.038107 0.321090 -0.403849
v 0.010961 0.321090 -0.311629
v 0.008733 0.321090 -0.294577
v 0.021364 0.323638 -0.290530
v 0.026526 0.323638 -0.306642
v 0.055850 0.323638 -0.398164
v 0.061013 0.323638 -0.414275
v 0.067841 0.321090 -0.374138
v 0.061764 0.321090 -0.355902
v 0.055546 0.321090 -0.337711
v 0.049195 0.321090 -0.319562
v 0.015588 0.321090 -0.330330
v 0.020966 0.321090 -0.348790
v 0.026477 0.321090 -0.367208
v 0.032131 0.321090 -0.385580
v 0.049986 0.323638 -0.379859
v 0.044121 0.323638 -0.361555
v 0.038256 0.323638 -0.343251
v 0.032391 0.323638 -0.324946
vn 0.0048 0.9998 -0.0151
vn 0.1538 0.9875 0.0342
vn 0.1769 0.9837 0.0308
vn 0.0076 0.9997 -0.0238
vn -0.1451 0.9875 -0.0615
vn -0.1619 0.9837 -0.0777
vn -0.0098 0.9995 0.0305
vn 0.2064 0.9734 0.0988
vn 0.1777 0.9808 0.0801
vn -0.0072 0.9997 0.0226
vn 0.1475 0.9874 0.0576
vn -0.0031 0.9999 0.0099
vn -0.0000 1.0000 0.0002
vn 0.1287 0.9908 0.0414
vn 0.1326 0.9904 0.0389
vn 0.0011 1.0000 -0.0034
vn -0.2254 0.9734 -0.0395
vn -0.1912 0.9808 -0.0381
vn -0.1535 0.9874 -0.0389
vn -0.1288 0.9908 -0.0411
vn -0.1305 0.9904 -0.0454
vn 0.1365 0.9895 0.0473
vn -0.0010 1.0000 0.0033
vn 0.1321 0.9902 0.0440
vn -0.0005 1.0000 0.0015
vn 0.1296 0.9906 0.0426
vn -0.0003 1.0000 0.0010
vn -0.1386 0.9895 -0.0408
vn -0.1331 0.9902 -0.0410
vn -0.1303 0.9906 -0.0406
usemtl feather_white_003
s 1
f 18//1 10//2 3//3 6//4
f 11//5 18//1 6//4 4//6
f 5//7 1//8 7//9 15//10
f 15//10 7//9 8//11 16//12
f 27//13 19//14 9//15 17//16
f 17//16 9//15 10//2 18//1
f 2//17 5//7 15//10 14//18
f 14//18 15//10 16//12 13//19
f 26//20 27//13 17//16 12//21
f 12//21 17//16 18//1 11//5
f 16//12 8//11 22//22 30//23
f 30//23 22//22 21//24 29//25
f 29//25 21//24 20//26 28//27
f 28//27 20//26 19//14 27//13
f 13//19 16//12 30//23 23//28
f 23//28 30//23 29//25 24//29
f 24//29 29//25 28//27 25//30
f 25//30 28//27 27//13 26//20
