# Blender v2.79 (sub 0) OBJ File: 'goose_base_mesh_BI.blend'
# www.blender.org
mtllib goose_feather_flight_tertiary_024.mtl
o feather_flight_tertiary_024
v 0.484272 0.379245 0.110732
v 0.474489 0.373423 0.110732
v 0.506744 0.345539 0.110732
v 0.493394 0.337595 0.110732
v 0.478323 0.378111 0.111724
v 0.501220 0.339633 0.111724
v 0.490434 0.374940 0.110732
v 0.497231 0.368606 0.110732
v 0.503220 0.361792 0.110732
v 0.507383 0.353892 0.110732
v 0.485748 0.341017 0.110732
v 0.480790 0.348445 0.110732
v 0.477658 0.356959 0.110732
v 0.475333 0.365953 0.110732
v 0.482883 0.370447 0.111724
v 0.487444 0.362783 0.111724
v 0.492005 0.355118 0.111724
v 0.496566 0.347454 0.111724
vn -0.0083 0.0139 -0.9998
vn -0.0801 -0.0331 -0.9962
vn -0.1017 -0.0252 -0.9945
vn -0.0156 0.0262 -0.9995
vn 0.0673 0.0546 -0.9962
vn 0.0707 0.0773 -0.9945
vn 0.0141 -0.0238 -0.9996
vn -0.1059 -0.0949 -0.9898
vn -0.0880 -0.0748 -0.9933
vn 0.0107 -0.0180 -0.9998
vn -0.0704 -0.0540 -0.9960
vn 0.0056 -0.0094 -0.9999
vn -0.0666 -0.0426 -0.9969
vn 0.0014 -0.0024 -1.0000
vn 0.1339 0.0478 -0.9898
vn 0.1077 0.0416 -0.9933
vn 0.0810 0.0361 -0.9960
vn 0.0692 0.0382 -0.9969
usemtl feather_white_001
s 1
f 18//1 10//2 3//3 6//4
f 11//5 18//1 6//4 4//6
f 5//7 1//8 7//9 15//10
f 15//10 7//9 8//11 16//12
f 16//12 8//11 9//13 17//14
f 17//14 9//13 10//2 18//1
f 2//15 5//7 15//10 14//16
f 14//16 15//10 16//12 13//17
f 13//17 16//12 17//14 12//18
f 12//18 17//14 18//1 11//5
