# Blender v2.79 (sub 0) OBJ File: 'goose_base_mesh_BI.blend'
# www.blender.org
mtllib goose_feather_flight_tertiary_027.mtl
o feather_flight_tertiary_027
v 0.526682 0.379994 0.110828
v 0.520274 0.372894 0.110680
v 0.561981 0.350042 0.111280
v 0.553237 0.340353 0.111078
v 0.521756 0.378049 0.111729
v 0.559530 0.343466 0.112200
v 0.534203 0.376633 0.110940
v 0.543191 0.371368 0.111068
v 0.551651 0.365516 0.111183
v 0.558915 0.358340 0.111271
v 0.544744 0.342637 0.110944
v 0.536960 0.349237 0.110844
v 0.530372 0.357162 0.110772
v 0.524312 0.365673 0.110712
v 0.529280 0.371160 0.111823
v 0.536804 0.364272 0.111917
v 0.544328 0.357384 0.112010
v 0.551852 0.350496 0.112104
vn 0.0063 0.0144 -0.9998
vn -0.0615 -0.0633 -0.9961
vn -0.0838 -0.0656 -0.9943
vn -0.0024 0.0234 -0.9997
vn 0.0779 0.0891 -0.9930
vn 0.0779 0.1108 -0.9908
vn 0.0343 -0.0121 -0.9993
vn -0.0779 -0.1342 -0.9879
vn -0.0631 -0.1082 -0.9921
vn 0.0305 -0.0075 -0.9995
vn -0.0475 -0.0791 -0.9957
vn 0.0241 -0.0014 -0.9997
vn -0.0449 -0.0661 -0.9968
vn 0.0189 0.0034 -0.9998
vn 0.1461 0.1110 -0.9830
vn 0.1219 0.0943 -0.9880
vn 0.0949 0.0766 -0.9925
vn 0.0823 0.0730 -0.9939
usemtl feather_white_001
s 1
f 18//1 10//2 3//3 6//4
f 11//5 18//1 6//4 4//6
f 5//7 1//8 7//9 15//10
f 15//10 7//9 8//11 16//12
f 16//12 8//11 9//13 17//14
f 17//14 9//13 10//2 18//1
f 2//15 5//7 15//10 14//16
f 14//16 15//10 16//12 13//17
f 13//17 16//12 17//14 12//18
f 12//18 17//14 18//1 11//5
