# Blender v2.79 (sub 0) OBJ File: 'guinea_fowl_base_mesh_BI.blend'
# www.blender.org
mtllib guinea_fowl_feather_flight_tertiary_013.mtl
o feather_flight_tertiary_013
v 0.228293 0.352839 0.072492
v 0.222789 0.352839 0.072492
v 0.229297 0.321978 0.072492
v 0.221785 0.321978 0.072492
v 0.225541 0.354417 0.073394
v 0.225541 0.318525 0.073394
v 0.229790 0.347613 0.072492
v 0.231047 0.340810 0.072492
v 0.231851 0.334007 0.072492
v 0.231628 0.327204 0.072492
v 0.219455 0.327204 0.072492
v 0.219231 0.334007 0.072492
v 0.220035 0.340810 0.072492
v 0.221293 0.347613 0.072492
v 0.225541 0.347613 0.073394
v 0.225541 0.340810 0.073394
v 0.225541 0.334007 0.073394
v 0.225541 0.327204 0.073394
vn 0.0000 0.0174 -0.9998
vn -0.1637 0.0148 -0.9864
vn -0.1909 0.0320 -0.9811
vn 0.0000 0.0326 -0.9995
vn 0.1637 0.0148 -0.9864
vn 0.1909 0.0320 -0.9811
vn 0.0000 -0.0329 -0.9995
vn -0.2560 -0.0318 -0.9662
vn -0.2135 -0.0232 -0.9767
vn 0.0000 -0.0249 -0.9997
vn -0.1648 -0.0125 -0.9862
vn 0.0000 -0.0130 -0.9999
vn -0.1473 -0.0031 -0.9891
vn 0.0000 -0.0033 -1.0000
vn 0.2560 -0.0318 -0.9662
vn 0.2135 -0.0232 -0.9767
vn 0.1648 -0.0125 -0.9862
vn 0.1473 -0.0031 -0.9891
usemtl feather_002
s 1
f 18//1 10//2 3//3 6//4
f 11//5 18//1 6//4 4//6
f 5//7 1//8 7//9 15//10
f 15//10 7//9 8//11 16//12
f 16//12 8//11 9//13 17//14
f 17//14 9//13 10//2 18//1
f 2//15 5//7 15//10 14//16
f 14//16 15//10 16//12 13//17
f 13//17 16//12 17//14 12//18
f 12//18 17//14 18//1 11//5
