# Blender v2.79 (sub 0) OBJ File: 'guinea_fowl_base_mesh_BI.blend'
# www.blender.org
mtllib guinea_fowl_feather_flight_tertiary_027.mtl
o feather_flight_tertiary_027
v 0.362791 0.353441 0.072492
v 0.357452 0.352105 0.072492
v 0.371816 0.321527 0.072492
v 0.364529 0.319703 0.072492
v 0.359710 0.354417 0.073394
v 0.369073 0.317017 0.073394
v 0.365606 0.348359 0.072492
v 0.368601 0.341576 0.072492
v 0.371156 0.334682 0.072492
v 0.372714 0.327539 0.072492
v 0.360905 0.324582 0.072492
v 0.358914 0.331617 0.072492
v 0.357918 0.338901 0.072492
v 0.357364 0.346296 0.072492
v 0.361485 0.347328 0.073394
v 0.363260 0.340239 0.073394
v 0.365035 0.333149 0.073394
v 0.366809 0.326060 0.073394
vn -0.0039 0.0157 -0.9998
vn -0.1624 -0.0263 -0.9864
vn -0.1924 -0.0175 -0.9811
vn -0.0074 0.0294 -0.9995
vn 0.1556 0.0533 -0.9864
vn 0.1780 0.0753 -0.9811
vn 0.0074 -0.0297 -0.9995
vn -0.2411 -0.0909 -0.9662
vn -0.2022 -0.0730 -0.9766
vn 0.0056 -0.0225 -0.9997
vn -0.1571 -0.0513 -0.9862
vn 0.0029 -0.0117 -0.9999
vn -0.1422 -0.0386 -0.9891
vn 0.0007 -0.0030 -1.0000
vn 0.2555 0.0334 -0.9662
vn 0.2127 0.0309 -0.9766
vn 0.1628 0.0287 -0.9862
vn 0.1436 0.0329 -0.9891
usemtl feather_002
s 1
f 18//1 10//2 3//3 6//4
f 11//5 18//1 6//4 4//6
f 5//7 1//8 7//9 15//10
f 15//10 7//9 8//11 16//12
f 16//12 8//11 9//13 17//14
f 17//14 9//13 10//2 18//1
f 2//15 5//7 15//10 14//16
f 14//16 15//10 16//12 13//17
f 13//17 16//12 17//14 12//18
f 12//18 17//14 18//1 11//5
