# Blender v2.79 (sub 0) OBJ File: 'guinea_fowl_base_mesh_BI.blend'
# www.blender.org
mtllib guinea_fowl_feather_tail_secondary_002.mtl
o feather_tail_secondary_002
v 0.034047 0.337196 -0.223807
v 0.015666 0.337196 -0.234064
v 0.021745 0.340649 -0.223359
v 0.048488 0.337196 -0.239977
v 0.065003 0.337196 -0.262302
v 0.032172 0.337196 -0.280623
v 0.021845 0.337196 -0.254844
v 0.035166 0.340649 -0.247411
v 0.048588 0.340649 -0.271462
v 0.106643 0.337196 -0.337648
v 0.097318 0.337196 -0.315936
v 0.081557 0.337196 -0.288898
v 0.046114 0.337196 -0.308676
v 0.060849 0.337196 -0.336287
v 0.074430 0.337196 -0.355624
v 0.094331 0.340649 -0.353436
v 0.079083 0.340649 -0.326112
v 0.063836 0.340649 -0.298787
vn -0.0130 0.9996 0.0233
vn 0.2186 0.9640 0.1514
vn 0.1902 0.9734 0.1274
vn -0.0096 0.9998 0.0173
vn 0.1581 0.9825 0.0977
vn -0.0042 0.9999 0.0075
vn -0.2436 0.9640 -0.1065
vn -0.2083 0.9734 -0.0950
vn -0.1661 0.9825 -0.0833
vn 0.1467 0.9855 0.0851
vn -0.0014 1.0000 0.0025
vn 0.1497 0.9854 0.0801
vn 0.0015 1.0000 -0.0027
vn 0.1561 0.9846 0.0782
vn 0.0038 0.9999 -0.0069
vn -0.1495 0.9855 -0.0802
vn -0.1468 0.9854 -0.0853
vn -0.1486 0.9846 -0.0918
usemtl feather_002
s 1
f 3//1 1//2 4//3 8//4
f 8//4 4//3 5//5 9//6
f 2//7 3//1 8//4 7//8
f 7//8 8//4 9//6 6//9
f 9//6 5//5 12//10 18//11
f 18//11 12//10 11//12 17//13
f 17//13 11//12 10//14 16//15
f 6//9 9//6 18//11 13//16
f 13//16 18//11 17//13 14//17
f 14//17 17//13 16//15 15//18
