# Blender v2.79 (sub 0) OBJ File: 'guinea_fowl_base_mesh_BI.blend'
# www.blender.org
mtllib guinea_fowl_feather_flight_secondary_038.mtl
o feather_flight_secondary_038
v 0.411750 0.353816 0.069651
v 0.403271 0.347923 0.069575
v 0.461601 0.285643 0.069347
v 0.450031 0.277602 0.069243
v 0.405042 0.354404 0.068727
v 0.461220 0.273871 0.068357
v 0.422235 0.343692 0.069618
v 0.434821 0.329773 0.069565
v 0.446707 0.315368 0.069506
v 0.457012 0.299864 0.069433
v 0.438261 0.286833 0.069265
v 0.427268 0.301859 0.069332
v 0.417857 0.317984 0.069413
v 0.409146 0.334596 0.069501
v 0.415690 0.339139 0.068657
v 0.426339 0.323874 0.068587
v 0.436987 0.308609 0.068517
v 0.447636 0.293344 0.068447
vn 0.0074 0.0020 -1.0000
vn 0.0800 0.0533 -0.9954
vn 0.0952 0.0565 -0.9938
vn 0.0107 -0.0024 -0.9999
vn -0.0658 -0.0483 -0.9966
vn -0.0742 -0.0616 -0.9953
vn -0.0032 0.0171 -0.9998
vn 0.1116 0.0969 -0.9890
vn 0.0945 0.0812 -0.9922
vn -0.0014 0.0147 -0.9999
vn 0.0742 0.0620 -0.9953
vn 0.0011 0.0111 -0.9999
vn 0.0681 0.0535 -0.9962
vn 0.0031 0.0082 -0.9999
vn -0.1179 -0.0631 -0.9910
vn -0.0972 -0.0525 -0.9939
vn -0.0719 -0.0399 -0.9966
vn -0.0618 -0.0371 -0.9974
usemtl feather_003
s 1
f 18//1 10//2 3//3 6//4
f 11//5 18//1 6//4 4//6
f 5//7 1//8 7//9 15//10
f 15//10 7//9 8//11 16//12
f 16//12 8//11 9//13 17//14
f 17//14 9//13 10//2 18//1
f 2//15 5//7 15//10 14//16
f 14//16 15//10 16//12 13//17
f 13//17 16//12 17//14 12//18
f 12//18 17//14 18//1 11//5
