# Blender v2.79 (sub 0) OBJ File: 'guinea_fowl_base_mesh_BI.blend'
# www.blender.org
mtllib guinea_fowl_feather_flight_tertiary_060.mtl
o feather_flight_tertiary_060
v 0.279923 0.352716 0.068488
v 0.274419 0.352716 0.068488
v 0.280927 0.319438 0.068488
v 0.273416 0.319438 0.068488
v 0.277171 0.354417 0.067587
v 0.277171 0.315716 0.067587
v 0.281420 0.347081 0.068488
v 0.282678 0.339745 0.068488
v 0.283481 0.332409 0.068488
v 0.283258 0.325073 0.068488
v 0.271085 0.325073 0.068488
v 0.270861 0.332409 0.068488
v 0.271665 0.339745 0.068488
v 0.272923 0.347081 0.068488
v 0.277171 0.347081 0.067587
v 0.277171 0.339745 0.067587
v 0.277171 0.332409 0.067587
v 0.277171 0.325073 0.067587
vn 0.0000 -0.0161 -0.9998
vn 0.1639 -0.0139 -0.9864
vn 0.1909 -0.0297 -0.9811
vn 0.0000 -0.0302 -0.9995
vn -0.1639 -0.0139 -0.9864
vn -0.1909 -0.0297 -0.9811
vn 0.0000 0.0305 -0.9995
vn 0.2560 0.0295 -0.9662
vn 0.2139 0.0216 -0.9766
vn 0.0000 0.0231 -0.9997
vn 0.1649 0.0116 -0.9862
vn 0.0000 0.0121 -0.9999
vn 0.1473 0.0029 -0.9891
vn 0.0000 0.0031 -1.0000
vn -0.2560 0.0295 -0.9662
vn -0.2139 0.0216 -0.9766
vn -0.1649 0.0116 -0.9862
vn -0.1473 0.0029 -0.9891
usemtl feather_002
s 1
f 18//1 10//2 3//3 6//4
f 11//5 18//1 6//4 4//6
f 5//7 1//8 7//9 15//10
f 15//10 7//9 8//11 16//12
f 16//12 8//11 9//13 17//14
f 17//14 9//13 10//2 18//1
f 2//15 5//7 15//10 14//16
f 14//16 15//10 16//12 13//17
f 13//17 16//12 17//14 12//18
f 12//18 17//14 18//1 11//5
