# Blender v2.79 (sub 0) OBJ File: 'guinea_fowl_base_mesh_BI.blend'
# www.blender.org
mtllib guinea_fowl_feather_flight_primary_003.mtl
o feather_flight_primary_003
v 0.159410 0.347118 0.070216
v 0.150300 0.347118 0.070216
v 0.161286 0.194161 0.069763
v 0.148424 0.194161 0.069763
v 0.154855 0.354417 0.071117
v 0.154855 0.188333 0.071115
v 0.161887 0.322935 0.070216
v 0.163968 0.291454 0.070215
v 0.165299 0.259973 0.070215
v 0.164929 0.228492 0.070214
v 0.144781 0.228492 0.070214
v 0.144411 0.259973 0.070215
v 0.145741 0.291454 0.070215
v 0.147823 0.322935 0.070216
v 0.154855 0.322935 0.071117
v 0.154855 0.291454 0.071117
v 0.154855 0.259973 0.071116
v 0.154855 0.228492 0.071116
vn 0.0000 0.0067 -1.0000
vn -0.1126 0.0064 -0.9936
vn -0.1397 0.0128 -0.9901
vn 0.0000 0.0129 -0.9999
vn 0.1126 0.0064 -0.9936
vn 0.1397 0.0128 -0.9901
vn 0.0000 -0.0071 -1.0000
vn -0.1581 -0.0070 -0.9874
vn -0.1333 -0.0052 -0.9911
vn 0.0000 -0.0054 -1.0000
vn -0.1010 -0.0027 -0.9949
vn 0.0000 -0.0028 -1.0000
vn -0.0896 -0.0007 -0.9960
vn 0.0000 -0.0007 -1.0000
vn 0.1581 -0.0070 -0.9874
vn 0.1333 -0.0052 -0.9911
vn 0.1010 -0.0027 -0.9949
vn 0.0896 -0.0007 -0.9960
usemtl feather_004
s 1
f 18//1 10//2 3//3 6//4
f 11//5 18//1 6//4 4//6
f 5//7 1//8 7//9 15//10
f 15//10 7//9 8//11 16//12
f 16//12 8//11 9//13 17//14
f 17//14 9//13 10//2 18//1
f 2//15 5//7 15//10 14//16
f 14//16 15//10 16//12 13//17
f 13//17 16//12 17//14 12//18
f 12//18 17//14 18//1 11//5
