# Blender v2.79 (sub 0) OBJ File: 'guinea_fowl_base_mesh_BI.blend'
# www.blender.org
mtllib guinea_fowl_feather_flight_primary_005.mtl
o feather_flight_primary_005
v 0.196580 0.346482 0.070217
v 0.187470 0.346482 0.070217
v 0.198456 0.180199 0.069792
v 0.185594 0.180199 0.069792
v 0.192025 0.354416 0.071117
v 0.192025 0.173864 0.071145
v 0.199056 0.320193 0.070221
v 0.201138 0.285969 0.070226
v 0.202468 0.251745 0.070232
v 0.202099 0.217521 0.070237
v 0.181951 0.217521 0.070237
v 0.181581 0.251745 0.070232
v 0.182911 0.285969 0.070226
v 0.184993 0.320193 0.070221
v 0.192025 0.320193 0.071123
v 0.192025 0.285969 0.071128
v 0.192025 0.251745 0.071133
v 0.192025 0.217521 0.071138
vn 0.0000 0.0060 -1.0000
vn -0.1127 0.0058 -0.9936
vn -0.1397 0.0116 -0.9901
vn 0.0000 0.0117 -0.9999
vn 0.1127 0.0058 -0.9936
vn 0.1397 0.0116 -0.9901
vn 0.0000 -0.0067 -1.0000
vn -0.1581 -0.0066 -0.9874
vn -0.1334 -0.0050 -0.9910
vn 0.0000 -0.0051 -1.0000
vn -0.1011 -0.0027 -0.9949
vn 0.0000 -0.0027 -1.0000
vn -0.0896 -0.0008 -0.9960
vn 0.0000 -0.0008 -1.0000
vn 0.1581 -0.0066 -0.9874
vn 0.1334 -0.0050 -0.9910
vn 0.1011 -0.0027 -0.9949
vn 0.0896 -0.0008 -0.9960
usemtl feather_004
s 1
f 18//1 10//2 3//3 6//4
f 11//5 18//1 6//4 4//6
f 5//7 1//8 7//9 15//10
f 15//10 7//9 8//11 16//12
f 16//12 8//11 9//13 17//14
f 17//14 9//13 10//2 18//1
f 2//15 5//7 15//10 14//16
f 14//16 15//10 16//12 13//17
f 13//17 16//12 17//14 12//18
f 12//18 17//14 18//1 11//5
