# Blender v2.79 (sub 0) OBJ File: 'guinea_fowl_base_mesh_BI.blend'
# www.blender.org
mtllib guinea_fowl_feather_flight_tertiary_040.mtl
o feather_flight_tertiary_040
v 0.467658 0.356398 0.072492
v 0.465201 0.351473 0.072492
v 0.486962 0.347888 0.072492
v 0.483608 0.341167 0.072492
v 0.465466 0.354417 0.073394
v 0.487394 0.343475 0.073394
v 0.471519 0.356144 0.072492
v 0.476237 0.355196 0.072492
v 0.480753 0.353841 0.072492
v 0.484810 0.351567 0.072492
v 0.479375 0.340674 0.072492
v 0.475118 0.342548 0.072492
v 0.471321 0.345342 0.072492
v 0.467726 0.348541 0.072492
v 0.469622 0.352343 0.073394
v 0.473779 0.350269 0.073394
v 0.477936 0.348195 0.073394
v 0.482092 0.346121 0.073394
vn -0.0228 0.0114 -0.9997
vn -0.0902 -0.1359 -0.9866
vn -0.1271 -0.1498 -0.9805
vn -0.0427 0.0213 -0.9988
vn 0.0544 0.1538 -0.9866
vn 0.0433 0.1917 -0.9805
vn 0.0431 -0.0215 -0.9988
vn -0.0725 -0.2497 -0.9656
vn -0.0644 -0.2036 -0.9769
vn 0.0327 -0.0163 -0.9993
vn -0.0571 -0.1549 -0.9863
vn 0.0171 -0.0085 -0.9998
vn -0.0617 -0.1337 -0.9891
vn 0.0043 -0.0021 -1.0000
vn 0.1559 0.2081 -0.9656
vn 0.1239 0.1739 -0.9769
vn 0.0894 0.1388 -0.9863
vn 0.0697 0.1297 -0.9891
usemtl feather_002
s 1
f 18//1 10//2 3//3 6//4
f 11//5 18//1 6//4 4//6
f 5//7 1//8 7//9 15//10
f 15//10 7//9 8//11 16//12
f 16//12 8//11 9//13 17//14
f 17//14 9//13 10//2 18//1
f 2//15 5//7 15//10 14//16
f 14//16 15//10 16//12 13//17
f 13//17 16//12 17//14 12//18
f 12//18 17//14 18//1 11//5
