# Blender v2.79 (sub 0) OBJ File: 'guinea_fowl_base_mesh_BI.blend'
# www.blender.org
mtllib guinea_fowl_feather_flight_secondary_023.mtl
o feather_flight_secondary_023
v 0.140467 0.349472 0.069625
v 0.131721 0.349472 0.069625
v 0.142061 0.252724 0.069543
v 0.130126 0.252724 0.069543
v 0.136094 0.354415 0.068728
v 0.136094 0.241900 0.068632
v 0.142844 0.333089 0.069611
v 0.144843 0.311762 0.069593
v 0.146120 0.290434 0.069575
v 0.145765 0.269107 0.069557
v 0.126423 0.269107 0.069557
v 0.126068 0.290434 0.069575
v 0.127344 0.311762 0.069593
v 0.129343 0.333089 0.069611
v 0.136094 0.333088 0.068710
v 0.136094 0.311761 0.068692
v 0.136094 0.290433 0.068674
v 0.136094 0.269106 0.068655
vn 0.0000 -0.0047 -1.0000
vn 0.1051 -0.0043 -0.9944
vn 0.1216 -0.0095 -0.9925
vn 0.0000 -0.0096 -0.9999
vn -0.1051 -0.0043 -0.9944
vn -0.1216 -0.0095 -0.9925
vn 0.0000 0.0114 -0.9999
vn 0.1644 0.0112 -0.9863
vn 0.1382 0.0085 -0.9904
vn 0.0000 0.0088 -0.9999
vn 0.1050 0.0049 -0.9944
vn 0.0000 0.0050 -1.0000
vn 0.0933 0.0019 -0.9956
vn 0.0000 0.0019 -1.0000
vn -0.1644 0.0112 -0.9863
vn -0.1382 0.0085 -0.9904
vn -0.1050 0.0049 -0.9944
vn -0.0933 0.0019 -0.9956
usemtl feather_003
s 1
f 18//1 10//2 3//3 6//4
f 11//5 18//1 6//4 4//6
f 5//7 1//8 7//9 15//10
f 15//10 7//9 8//11 16//12
f 16//12 8//11 9//13 17//14
f 17//14 9//13 10//2 18//1
f 2//15 5//7 15//10 14//16
f 14//16 15//10 16//12 13//17
f 13//17 16//12 17//14 12//18
f 12//18 17//14 18//1 11//5
