# Blender v2.79 (sub 0) OBJ File: 'guinea_fowl_base_mesh_BI.blend'
# www.blender.org
mtllib guinea_fowl_feather_flight_tertiary_010.mtl
o feather_flight_tertiary_010
v 0.198805 0.352813 0.072492
v 0.193300 0.352813 0.072492
v 0.199808 0.321435 0.072492
v 0.192297 0.321435 0.072492
v 0.196053 0.354417 0.073394
v 0.196053 0.317925 0.073394
v 0.200301 0.347500 0.072492
v 0.201559 0.340583 0.072492
v 0.202362 0.333666 0.072492
v 0.202139 0.326749 0.072492
v 0.189966 0.326749 0.072492
v 0.189743 0.333666 0.072492
v 0.190546 0.340583 0.072492
v 0.191804 0.347500 0.072492
v 0.196053 0.347500 0.073394
v 0.196053 0.340583 0.073394
v 0.196053 0.333666 0.073394
v 0.196053 0.326749 0.073394
vn 0.0000 0.0171 -0.9998
vn -0.1637 0.0146 -0.9864
vn -0.1909 0.0315 -0.9811
vn 0.0000 0.0320 -0.9995
vn 0.1637 0.0146 -0.9864
vn 0.1909 0.0315 -0.9811
vn 0.0000 -0.0324 -0.9995
vn -0.2560 -0.0313 -0.9662
vn -0.2136 -0.0229 -0.9767
vn 0.0000 -0.0245 -0.9997
vn -0.1648 -0.0123 -0.9862
vn 0.0000 -0.0128 -0.9999
vn -0.1473 -0.0031 -0.9891
vn 0.0000 -0.0032 -1.0000
vn 0.2560 -0.0313 -0.9662
vn 0.2136 -0.0229 -0.9767
vn 0.1648 -0.0123 -0.9862
vn 0.1473 -0.0031 -0.9891
usemtl feather_002
s 1
f 18//1 10//2 3//3 6//4
f 11//5 18//1 6//4 4//6
f 5//7 1//8 7//9 15//10
f 15//10 7//9 8//11 16//12
f 16//12 8//11 9//13 17//14
f 17//14 9//13 10//2 18//1
f 2//15 5//7 15//10 14//16
f 14//16 15//10 16//12 13//17
f 13//17 16//12 17//14 12//18
f 12//18 17//14 18//1 11//5
