# Blender v2.79 (sub 0) OBJ File: 'guinea_fowl_base_mesh_BI.blend'
# www.blender.org
mtllib guinea_fowl_feather_flight_tertiary_068.mtl
o feather_flight_tertiary_068
v 0.354818 0.353133 0.068488
v 0.349389 0.352228 0.068488
v 0.361466 0.319326 0.068488
v 0.354057 0.318092 0.068488
v 0.351814 0.354417 0.067587
v 0.358394 0.314908 0.067587
v 0.357252 0.347626 0.068488
v 0.359740 0.340344 0.068488
v 0.361780 0.332987 0.068488
v 0.362807 0.325461 0.068488
v 0.350800 0.323461 0.068488
v 0.349332 0.330914 0.068488
v 0.348877 0.338534 0.068488
v 0.348871 0.346230 0.068488
v 0.353062 0.346928 0.067587
v 0.354309 0.339439 0.067587
v 0.355556 0.331950 0.067587
v 0.356803 0.324461 0.067587
vn 0.0026 -0.0154 -0.9998
vn 0.1641 0.0136 -0.9863
vn 0.1931 0.0031 -0.9812
vn 0.0048 -0.0288 -0.9996
vn -0.1596 -0.0402 -0.9863
vn -0.1836 -0.0597 -0.9812
vn -0.0048 0.0291 -0.9995
vn 0.2478 0.0702 -0.9662
vn 0.2077 0.0558 -0.9766
vn -0.0037 0.0220 -0.9997
vn 0.1609 0.0381 -0.9862
vn -0.0019 0.0115 -0.9999
vn 0.1448 0.0269 -0.9891
vn -0.0005 0.0029 -1.0000
vn -0.2572 -0.0139 -0.9662
vn -0.2146 -0.0145 -0.9766
vn -0.1645 -0.0160 -0.9862
vn -0.1457 -0.0214 -0.9891
usemtl feather_002
s 1
f 18//1 10//2 3//3 6//4
f 11//5 18//1 6//4 4//6
f 5//7 1//8 7//9 15//10
f 15//10 7//9 8//11 16//12
f 16//12 8//11 9//13 17//14
f 17//14 9//13 10//2 18//1
f 2//15 5//7 15//10 14//16
f 14//16 15//10 16//12 13//17
f 13//17 16//12 17//14 12//18
f 12//18 17//14 18//1 11//5
