# Blender v2.79 (sub 0) OBJ File: 'guinea_fowl_base_mesh_BI.blend'
# www.blender.org
mtllib guinea_fowl_feather_flight_tertiary_079.mtl
o feather_flight_tertiary_079
v 0.439501 0.355600 0.068488
v 0.435815 0.351513 0.068488
v 0.458839 0.339511 0.068488
v 0.453809 0.333933 0.068488
v 0.436704 0.354417 0.067587
v 0.458412 0.334839 0.067587
v 0.443664 0.353861 0.068488
v 0.448621 0.351084 0.068488
v 0.453274 0.347970 0.068488
v 0.457239 0.344093 0.068488
v 0.449087 0.335053 0.068488
v 0.444823 0.338598 0.068488
v 0.441246 0.342906 0.068488
v 0.437973 0.347551 0.068488
v 0.440819 0.350706 0.067587
v 0.444934 0.346995 0.067587
v 0.449048 0.343284 0.067587
v 0.453163 0.339573 0.067587
vn 0.0159 -0.0143 -0.9998
vn 0.1220 0.1092 -0.9865
vn 0.1570 0.1154 -0.9808
vn 0.0297 -0.0268 -0.9992
vn -0.0960 -0.1326 -0.9865
vn -0.0986 -0.1680 -0.9808
vn -0.0300 0.0271 -0.9992
vn 0.1423 0.2162 -0.9659
vn 0.1212 0.1765 -0.9768
vn -0.0227 0.0205 -0.9995
vn 0.0988 0.1323 -0.9863
vn -0.0119 0.0107 -0.9998
vn 0.0958 0.1119 -0.9891
vn -0.0030 0.0027 -1.0000
vn -0.2004 -0.1639 -0.9659
vn -0.1631 -0.1387 -0.9768
vn -0.1214 -0.1119 -0.9863
vn -0.1014 -0.1068 -0.9891
usemtl feather_002
s 1
f 18//1 10//2 3//3 6//4
f 11//5 18//1 6//4 4//6
f 5//7 1//8 7//9 15//10
f 15//10 7//9 8//11 16//12
f 16//12 8//11 9//13 17//14
f 17//14 9//13 10//2 18//1
f 2//15 5//7 15//10 14//16
f 14//16 15//10 16//12 13//17
f 13//17 16//12 17//14 12//18
f 12//18 17//14 18//1 11//5
