# Blender v2.79 (sub 0) OBJ File: 'guinea_fowl_base_mesh_BI.blend'
# www.blender.org
mtllib guinea_fowl_feather_flight_tertiary_008.mtl
o feather_flight_tertiary_008
v 0.180629 0.352668 0.072492
v 0.175124 0.352668 0.072492
v 0.181632 0.318449 0.072492
v 0.174121 0.318449 0.072492
v 0.177877 0.354417 0.073394
v 0.177877 0.314620 0.073394
v 0.182125 0.346873 0.072492
v 0.183383 0.339330 0.072492
v 0.184186 0.331786 0.072492
v 0.183963 0.324243 0.072492
v 0.171790 0.324243 0.072492
v 0.171567 0.331786 0.072492
v 0.172370 0.339330 0.072492
v 0.173628 0.346873 0.072492
v 0.177877 0.346873 0.073394
v 0.177877 0.339330 0.073394
v 0.177877 0.331786 0.073394
v 0.177877 0.324243 0.073394
vn 0.0000 0.0157 -0.9998
vn -0.1640 0.0136 -0.9863
vn -0.1909 0.0288 -0.9812
vn 0.0000 0.0294 -0.9995
vn 0.1640 0.0136 -0.9863
vn 0.1909 0.0288 -0.9812
vn 0.0000 -0.0297 -0.9995
vn -0.2560 -0.0287 -0.9662
vn -0.2140 -0.0210 -0.9766
vn 0.0000 -0.0225 -0.9997
vn -0.1649 -0.0113 -0.9862
vn 0.0000 -0.0117 -0.9999
vn -0.1473 -0.0028 -0.9891
vn 0.0000 -0.0030 -1.0000
vn 0.2560 -0.0287 -0.9662
vn 0.2140 -0.0210 -0.9766
vn 0.1649 -0.0113 -0.9862
vn 0.1473 -0.0028 -0.9891
usemtl feather_002
s 1
f 18//1 10//2 3//3 6//4
f 11//5 18//1 6//4 4//6
f 5//7 1//8 7//9 15//10
f 15//10 7//9 8//11 16//12
f 16//12 8//11 9//13 17//14
f 17//14 9//13 10//2 18//1
f 2//15 5//7 15//10 14//16
f 14//16 15//10 16//12 13//17
f 13//17 16//12 17//14 12//18
f 12//18 17//14 18//1 11//5
