# Blender v2.79 (sub 0) OBJ File: 'guinea_fowl_base_mesh_BI.blend'
# www.blender.org
mtllib guinea_fowl_feather_tail_primary_002.mtl
o feather_tail_primary_002
v 0.034054 0.333245 -0.223990
v 0.015350 0.333245 -0.234003
v 0.155717 0.333245 -0.443535
v 0.130595 0.333245 -0.456984
v 0.021722 0.336698 -0.223430
v 0.149427 0.336698 -0.461973
v 0.048129 0.333245 -0.240180
v 0.064130 0.333245 -0.262502
v 0.139473 0.333245 -0.397618
v 0.150692 0.333245 -0.422499
v 0.115876 0.333245 -0.441138
v 0.101390 0.333245 -0.418006
v 0.030723 0.333245 -0.280386
v 0.021019 0.333245 -0.254694
v 0.034574 0.336698 -0.247437
v 0.047426 0.336698 -0.271444
v 0.120432 0.336698 -0.407812
v 0.133284 0.336698 -0.431818
v 0.124992 0.333245 -0.370280
v 0.110163 0.333245 -0.343128
v 0.095183 0.333245 -0.316058
v 0.080060 0.333245 -0.289064
v 0.043995 0.333245 -0.308371
v 0.058074 0.333245 -0.335924
v 0.072296 0.333245 -0.363401
v 0.086669 0.333245 -0.390796
v 0.105830 0.336698 -0.380538
v 0.091229 0.336698 -0.353265
v 0.076628 0.336698 -0.325991
v 0.062027 0.336698 -0.298717
vn 0.0063 0.9999 -0.0117
vn 0.1676 0.9829 0.0758
vn 0.1921 0.9781 0.0794
vn 0.0099 0.9998 -0.0186
vn -0.1560 0.9829 -0.0975
vn -0.1726 0.9781 -0.1158
vn -0.0127 0.9996 0.0237
vn 0.2193 0.9645 0.1469
vn 0.1907 0.9738 0.1234
vn -0.0094 0.9998 0.0176
vn 0.1585 0.9828 0.0943
vn -0.0041 0.9999 0.0077
vn -0.0001 1.0000 0.0001
vn 0.1389 0.9875 0.0745
vn 0.1433 0.9869 0.0734
vn 0.0014 1.0000 -0.0027
vn -0.2439 0.9645 -0.1010
vn -0.2084 0.9738 -0.0903
vn -0.1664 0.9828 -0.0796
vn -0.1390 0.9875 -0.0743
vn -0.1406 0.9869 -0.0786
vn 0.1470 0.9857 0.0819
vn -0.0014 1.0000 0.0026
vn 0.1424 0.9867 0.0777
vn -0.0006 1.0000 0.0012
vn 0.1398 0.9872 0.0758
vn -0.0004 1.0000 0.0008
vn -0.1497 0.9857 -0.0769
vn -0.1437 0.9867 -0.0754
vn -0.1407 0.9872 -0.0743
usemtl feather_004
s 1
f 18//1 10//2 3//3 6//4
f 11//5 18//1 6//4 4//6
f 5//7 1//8 7//9 15//10
f 15//10 7//9 8//11 16//12
f 27//13 19//14 9//15 17//16
f 17//16 9//15 10//2 18//1
f 2//17 5//7 15//10 14//18
f 14//18 15//10 16//12 13//19
f 26//20 27//13 17//16 12//21
f 12//21 17//16 18//1 11//5
f 16//12 8//11 22//22 30//23
f 30//23 22//22 21//24 29//25
f 29//25 21//24 20//26 28//27
f 28//27 20//26 19//14 27//13
f 13//19 16//12 30//23 23//28
f 23//28 30//23 29//25 24//29
f 24//29 29//25 28//27 25//30
f 25//30 28//27 27//13 26//20
