# Blender v2.79 (sub 0) OBJ File: 'guinea_fowl_base_mesh_BI.blend'
# www.blender.org
mtllib guinea_fowl_feather_flight_tertiary_012.mtl
o feather_flight_tertiary_012
v 0.218590 0.352825 0.072492
v 0.213086 0.352825 0.072492
v 0.219593 0.321690 0.072492
v 0.212082 0.321690 0.072492
v 0.215838 0.354417 0.073394
v 0.215838 0.318207 0.073394
v 0.220086 0.347553 0.072492
v 0.221344 0.340689 0.072492
v 0.222148 0.333826 0.072492
v 0.221924 0.326962 0.072492
v 0.209751 0.326962 0.072492
v 0.209528 0.333826 0.072492
v 0.210331 0.340689 0.072492
v 0.211589 0.347553 0.072492
v 0.215838 0.347553 0.073394
v 0.215838 0.340689 0.073394
v 0.215838 0.333826 0.073394
v 0.215838 0.326962 0.073394
vn 0.0000 0.0173 -0.9998
vn -0.1637 0.0146 -0.9864
vn -0.1909 0.0317 -0.9811
vn 0.0000 0.0323 -0.9995
vn 0.1637 0.0146 -0.9864
vn 0.1909 0.0317 -0.9811
vn 0.0000 -0.0326 -0.9995
vn -0.2560 -0.0316 -0.9662
vn -0.2135 -0.0230 -0.9767
vn 0.0000 -0.0247 -0.9997
vn -0.1648 -0.0124 -0.9862
vn 0.0000 -0.0129 -0.9999
vn -0.1473 -0.0031 -0.9891
vn 0.0000 -0.0033 -1.0000
vn 0.2560 -0.0316 -0.9662
vn 0.2135 -0.0230 -0.9767
vn 0.1648 -0.0124 -0.9862
vn 0.1473 -0.0031 -0.9891
usemtl feather_002
s 1
f 18//1 10//2 3//3 6//4
f 11//5 18//1 6//4 4//6
f 5//7 1//8 7//9 15//10
f 15//10 7//9 8//11 16//12
f 16//12 8//11 9//13 17//14
f 17//14 9//13 10//2 18//1
f 2//15 5//7 15//10 14//16
f 14//16 15//10 16//12 13//17
f 13//17 16//12 17//14 12//18
f 12//18 17//14 18//1 11//5
