# Blender v2.79 (sub 0) OBJ File: 'guinea_fowl_base_mesh_BI.blend'
# www.blender.org
mtllib guinea_fowl_feather_flight_secondary_039.mtl
o feather_flight_secondary_039
v 0.429041 0.353859 0.069604
v 0.421485 0.346766 0.069655
v 0.487969 0.293837 0.069592
v 0.477658 0.284158 0.069661
v 0.422323 0.353447 0.068728
v 0.489253 0.282139 0.068725
v 0.440840 0.345404 0.069590
v 0.455253 0.333508 0.069578
v 0.469043 0.321027 0.069570
v 0.481423 0.307223 0.069571
v 0.464713 0.291537 0.069683
v 0.451720 0.304766 0.069686
v 0.440136 0.319318 0.069679
v 0.429176 0.334455 0.069668
v 0.435009 0.339931 0.068727
v 0.447696 0.326414 0.068727
v 0.460383 0.312898 0.068726
v 0.473069 0.299381 0.068725
vn 0.0009 -0.0079 -0.9999
vn 0.0649 0.0531 -0.9965
vn 0.0796 0.0584 -0.9951
vn 0.0046 -0.0120 -0.9999
vn -0.0641 -0.0680 -0.9956
vn -0.0703 -0.0823 -0.9941
vn -0.0118 0.0055 -0.9999
vn 0.0899 0.1009 -0.9908
vn 0.0753 0.0829 -0.9937
vn -0.0098 0.0034 -0.9999
vn 0.0579 0.0608 -0.9965
vn -0.0068 0.0002 -1.0000
vn 0.0532 0.0515 -0.9973
vn -0.0044 -0.0024 -1.0000
vn -0.1133 -0.0898 -0.9895
vn -0.0944 -0.0764 -0.9926
vn -0.0714 -0.0605 -0.9956
vn -0.0618 -0.0564 -0.9965
usemtl feather_003
s 1
f 18//1 10//2 3//3 6//4
f 11//5 18//1 6//4 4//6
f 5//7 1//8 7//9 15//10
f 15//10 7//9 8//11 16//12
f 16//12 8//11 9//13 17//14
f 17//14 9//13 10//2 18//1
f 2//15 5//7 15//10 14//16
f 14//16 15//10 16//12 13//17
f 13//17 16//12 17//14 12//18
f 12//18 17//14 18//1 11//5
