# Blender v2.79 (sub 0) OBJ File: 'guinea_fowl_base_mesh_BI.blend'
# www.blender.org
mtllib guinea_fowl_feather_flight_tertiary_057.mtl
o feather_flight_tertiary_057
v 0.247701 0.352805 0.068488
v 0.242197 0.352805 0.068488
v 0.248704 0.321278 0.068488
v 0.241193 0.321278 0.068488
v 0.244949 0.354417 0.067587
v 0.244949 0.317751 0.067587
v 0.249197 0.347467 0.068488
v 0.250455 0.340517 0.068488
v 0.251259 0.333567 0.068488
v 0.251035 0.326617 0.068488
v 0.238862 0.326617 0.068488
v 0.238639 0.333567 0.068488
v 0.239443 0.340517 0.068488
v 0.240700 0.347467 0.068488
v 0.244949 0.347467 0.067587
v 0.244949 0.340517 0.067587
v 0.244949 0.333567 0.067587
v 0.244949 0.326617 0.067587
vn 0.0000 -0.0171 -0.9998
vn 0.1637 -0.0145 -0.9864
vn 0.1909 -0.0313 -0.9811
vn 0.0000 -0.0319 -0.9995
vn -0.1637 -0.0145 -0.9864
vn -0.1909 -0.0313 -0.9811
vn 0.0000 0.0322 -0.9995
vn 0.2560 0.0312 -0.9662
vn 0.2136 0.0227 -0.9766
vn 0.0000 0.0244 -0.9997
vn 0.1648 0.0122 -0.9862
vn 0.0000 0.0128 -0.9999
vn 0.1473 0.0030 -0.9891
vn 0.0000 0.0032 -1.0000
vn -0.2560 0.0312 -0.9662
vn -0.2136 0.0227 -0.9766
vn -0.1648 0.0122 -0.9862
vn -0.1473 0.0031 -0.9891
usemtl feather_002
s 1
f 18//1 10//2 3//3 6//4
f 11//5 18//1 6//4 4//6
f 5//7 1//8 7//9 15//10
f 15//10 7//9 8//11 16//12
f 16//12 8//11 9//13 17//14
f 17//14 9//13 10//2 18//1
f 2//15 5//7 15//10 14//16
f 14//16 15//10 16//12 13//17
f 13//17 16//12 17//14 12//18
f 12//18 17//14 18//1 11//5
