# Blender v2.79 (sub 0) OBJ File: 'guinea_fowl_base_mesh_BI.blend'
# www.blender.org
mtllib guinea_fowl_feather_flight_secondary_034.mtl
o feather_flight_secondary_034
v 0.351528 0.351164 0.069630
v 0.342333 0.349543 0.069630
v 0.367223 0.271959 0.069629
v 0.354675 0.269746 0.069629
v 0.346214 0.354417 0.068728
v 0.362517 0.261959 0.068728
v 0.356401 0.338143 0.069630
v 0.361593 0.320988 0.069630
v 0.366025 0.303699 0.069630
v 0.368742 0.286108 0.069630
v 0.348407 0.282522 0.069630
v 0.344944 0.299982 0.069630
v 0.343196 0.317744 0.069630
v 0.342207 0.335640 0.069630
v 0.349304 0.336891 0.068728
v 0.352394 0.319366 0.068728
v 0.355485 0.301840 0.068728
v 0.358575 0.284315 0.068728
vn 0.0012 -0.0066 -1.0000
vn 0.0978 0.0111 -0.9951
vn 0.1144 0.0076 -0.9934
vn 0.0021 -0.0123 -0.9999
vn -0.0956 -0.0230 -0.9951
vn -0.1101 -0.0320 -0.9934
vn -0.0022 0.0124 -0.9999
vn 0.1498 0.0390 -0.9879
vn 0.1255 0.0314 -0.9916
vn -0.0016 0.0094 -0.9999
vn 0.0960 0.0219 -0.9951
vn -0.0009 0.0049 -1.0000
vn 0.0859 0.0164 -0.9962
vn -0.0002 0.0012 -1.0000
vn -0.1541 -0.0145 -0.9879
vn -0.1287 -0.0134 -0.9916
vn -0.0977 -0.0123 -0.9951
vn -0.0863 -0.0140 -0.9962
usemtl feather_003
s 1
f 18//1 10//2 3//3 6//4
f 11//5 18//1 6//4 4//6
f 5//7 1//8 7//9 15//10
f 15//10 7//9 8//11 16//12
f 16//12 8//11 9//13 17//14
f 17//14 9//13 10//2 18//1
f 2//15 5//7 15//10 14//16
f 14//16 15//10 16//12 13//17
f 13//17 16//12 17//14 12//18
f 12//18 17//14 18//1 11//5
