# Blender v2.79 (sub 0) OBJ File: 'guinea_fowl_base_mesh_BI.blend'
# www.blender.org
mtllib guinea_fowl_feather_flight_tertiary_034.mtl
o feather_flight_tertiary_034
v 0.415149 0.354865 0.072492
v 0.410698 0.351627 0.072492
v 0.432629 0.332544 0.072492
v 0.426555 0.328125 0.072492
v 0.412071 0.354417 0.073394
v 0.431456 0.327772 0.073394
v 0.419181 0.351866 0.072492
v 0.423873 0.347555 0.072492
v 0.428197 0.342977 0.072492
v 0.431691 0.337795 0.072492
v 0.421847 0.330634 0.072492
v 0.417992 0.335553 0.072492
v 0.414968 0.341076 0.072492
v 0.412310 0.346867 0.072492
v 0.415746 0.349366 0.073394
v 0.419420 0.344316 0.073394
v 0.423095 0.339265 0.073394
v 0.426769 0.334214 0.073394
vn -0.0112 0.0154 -0.9998
vn -0.1414 -0.0832 -0.9864
vn -0.1749 -0.0841 -0.9810
vn -0.0209 0.0287 -0.9994
vn 0.1227 0.1089 -0.9864
vn 0.1339 0.1405 -0.9810
vn 0.0211 -0.0290 -0.9993
vn -0.1866 -0.1786 -0.9661
vn -0.1574 -0.1457 -0.9767
vn 0.0160 -0.0219 -0.9996
vn -0.1252 -0.1078 -0.9862
vn 0.0083 -0.0115 -0.9999
vn -0.1171 -0.0894 -0.9891
vn 0.0021 -0.0029 -1.0000
vn 0.2274 0.1225 -0.9661
vn 0.1870 0.1049 -0.9767
vn 0.1411 0.0859 -0.9862
vn 0.1211 0.0839 -0.9891
usemtl feather_002
s 1
f 18//1 10//2 3//3 6//4
f 11//5 18//1 6//4 4//6
f 5//7 1//8 7//9 15//10
f 15//10 7//9 8//11 16//12
f 16//12 8//11 9//13 17//14
f 17//14 9//13 10//2 18//1
f 2//15 5//7 15//10 14//16
f 14//16 15//10 16//12 13//17
f 13//17 16//12 17//14 12//18
f 12//18 17//14 18//1 11//5
