# Blender v2.79 (sub 0) OBJ File: 'guinea_fowl_base_mesh_BI.blend'
# www.blender.org
mtllib guinea_fowl_feather_flight_primary_007.mtl
o feather_flight_primary_007
v 0.234262 0.346289 0.070217
v 0.224280 0.346289 0.070217
v 0.236317 0.175956 0.069786
v 0.222224 0.175956 0.069786
v 0.229271 0.354416 0.071117
v 0.229271 0.169466 0.071138
v 0.236975 0.319359 0.070220
v 0.239256 0.284302 0.070224
v 0.240714 0.249244 0.070228
v 0.240308 0.214187 0.070232
v 0.218233 0.214187 0.070232
v 0.217828 0.249244 0.070228
v 0.219285 0.284302 0.070224
v 0.221566 0.319359 0.070220
v 0.229271 0.319359 0.071121
v 0.229271 0.284302 0.071125
v 0.229271 0.249244 0.071129
v 0.229271 0.214187 0.071133
vn 0.0000 0.0059 -1.0000
vn -0.1029 0.0057 -0.9947
vn -0.1277 0.0114 -0.9917
vn 0.0000 0.0115 -0.9999
vn 0.1029 0.0057 -0.9947
vn 0.1277 0.0114 -0.9917
vn 0.0000 -0.0065 -1.0000
vn -0.1445 -0.0064 -0.9895
vn -0.1218 -0.0048 -0.9925
vn 0.0000 -0.0049 -1.0000
vn -0.0923 -0.0026 -0.9957
vn 0.0000 -0.0026 -1.0000
vn -0.0819 -0.0007 -0.9966
vn 0.0000 -0.0007 -1.0000
vn 0.1445 -0.0064 -0.9895
vn 0.1218 -0.0048 -0.9925
vn 0.0923 -0.0026 -0.9957
vn 0.0819 -0.0007 -0.9966
usemtl feather_004
s 1
f 18//1 10//2 3//3 6//4
f 11//5 18//1 6//4 4//6
f 5//7 1//8 7//9 15//10
f 15//10 7//9 8//11 16//12
f 16//12 8//11 9//13 17//14
f 17//14 9//13 10//2 18//1
f 2//15 5//7 15//10 14//16
f 14//16 15//10 16//12 13//17
f 13//17 16//12 17//14 12//18
f 12//18 17//14 18//1 11//5
