# Blender v2.79 (sub 0) OBJ File: 'guinea_fowl_base_mesh_BI.blend'
# www.blender.org
mtllib guinea_fowl_feather_flight_secondary_003.mtl
o feather_flight_secondary_003
v 0.159775 0.349549 0.071355
v 0.151029 0.349549 0.071355
v 0.161369 0.254304 0.071430
v 0.149434 0.254304 0.071430
v 0.155402 0.354416 0.072253
v 0.155402 0.243647 0.072340
v 0.162152 0.333420 0.071368
v 0.164151 0.312424 0.071385
v 0.165428 0.291428 0.071401
v 0.165073 0.270432 0.071418
v 0.145731 0.270432 0.071418
v 0.145376 0.291428 0.071401
v 0.146653 0.312424 0.071385
v 0.148651 0.333420 0.071368
v 0.155402 0.333419 0.072269
v 0.155402 0.312423 0.072286
v 0.155402 0.291427 0.072302
v 0.155402 0.270431 0.072319
vn 0.0000 0.0049 -1.0000
vn -0.1051 0.0044 -0.9944
vn -0.1216 0.0097 -0.9925
vn 0.0000 0.0098 -0.9999
vn 0.1051 0.0044 -0.9944
vn 0.1216 0.0097 -0.9925
vn 0.0000 -0.0114 -0.9999
vn -0.1644 -0.0113 -0.9863
vn -0.1381 -0.0086 -0.9904
vn 0.0000 -0.0089 -0.9999
vn -0.1050 -0.0049 -0.9944
vn 0.0000 -0.0050 -1.0000
vn -0.0933 -0.0018 -0.9956
vn 0.0000 -0.0019 -1.0000
vn 0.1644 -0.0113 -0.9863
vn 0.1381 -0.0086 -0.9904
vn 0.1050 -0.0049 -0.9944
vn 0.0933 -0.0018 -0.9956
usemtl feather_003
s 1
f 18//1 10//2 3//3 6//4
f 11//5 18//1 6//4 4//6
f 5//7 1//8 7//9 15//10
f 15//10 7//9 8//11 16//12
f 16//12 8//11 9//13 17//14
f 17//14 9//13 10//2 18//1
f 2//15 5//7 15//10 14//16
f 14//16 15//10 16//12 13//17
f 13//17 16//12 17//14 12//18
f 12//18 17//14 18//1 11//5
