# Blender v2.79 (sub 0) OBJ File: 'guinea_fowl_base_mesh_BI.blend'
# www.blender.org
mtllib guinea_fowl_feather_flight_secondary_014.mtl
o feather_flight_secondary_014
v 0.368327 0.351519 0.071356
v 0.358928 0.349010 0.071363
v 0.391737 0.270732 0.071519
v 0.378910 0.267308 0.071529
v 0.362519 0.354414 0.072253
v 0.387751 0.259929 0.072444
v 0.374556 0.338443 0.071382
v 0.381487 0.321107 0.071416
v 0.387642 0.303563 0.071452
v 0.392043 0.285552 0.071488
v 0.371256 0.280003 0.071504
v 0.366092 0.297811 0.071468
v 0.362681 0.316087 0.071431
v 0.360046 0.334570 0.071393
v 0.367301 0.336505 0.072289
v 0.372084 0.318595 0.072325
v 0.376867 0.300685 0.072361
v 0.381650 0.282775 0.072398
vn -0.0019 0.0041 -1.0000
vn -0.0928 -0.0208 -0.9955
vn -0.1090 -0.0188 -0.9938
vn -0.0033 0.0095 -0.9999
vn 0.0894 0.0279 -0.9956
vn 0.1025 0.0377 -0.9940
vn 0.0029 -0.0137 -0.9999
vn -0.1403 -0.0519 -0.9887
vn -0.1177 -0.0426 -0.9921
vn 0.0021 -0.0109 -0.9999
vn -0.0902 -0.0309 -0.9954
vn 0.0010 -0.0067 -1.0000
vn -0.0810 -0.0248 -0.9964
vn 0.0001 -0.0032 -1.0000
vn 0.1461 0.0246 -0.9890
vn 0.1219 0.0214 -0.9923
vn 0.0922 0.0178 -0.9956
vn 0.0812 0.0184 -0.9965
usemtl feather_003
s 1
f 18//1 10//2 3//3 6//4
f 11//5 18//1 6//4 4//6
f 5//7 1//8 7//9 15//10
f 15//10 7//9 8//11 16//12
f 16//12 8//11 9//13 17//14
f 17//14 9//13 10//2 18//1
f 2//15 5//7 15//10 14//16
f 14//16 15//10 16//12 13//17
f 13//17 16//12 17//14 12//18
f 12//18 17//14 18//1 11//5
