# Blender v2.79 (sub 0) OBJ File: 'guinea_fowl_base_mesh_BI.blend'
# www.blender.org
mtllib guinea_fowl_feather_flight_tertiary_006.mtl
o feather_flight_tertiary_006
v 0.161866 0.352527 0.072492
v 0.156362 0.352527 0.072492
v 0.162870 0.315562 0.072492
v 0.155358 0.315562 0.072492
v 0.159114 0.354417 0.073394
v 0.159114 0.311427 0.073394
v 0.163362 0.346268 0.072492
v 0.164620 0.338119 0.072492
v 0.165424 0.329970 0.072492
v 0.165200 0.321821 0.072492
v 0.153027 0.321821 0.072492
v 0.152804 0.329970 0.072492
v 0.153608 0.338119 0.072492
v 0.154865 0.346268 0.072492
v 0.159114 0.346268 0.073394
v 0.159114 0.338119 0.073394
v 0.159114 0.329970 0.073394
v 0.159114 0.321821 0.073394
vn 0.0000 0.0146 -0.9999
vn -0.1643 0.0127 -0.9863
vn -0.1910 0.0267 -0.9812
vn 0.0000 0.0272 -0.9996
vn 0.1643 0.0127 -0.9863
vn 0.1910 0.0267 -0.9812
vn 0.0000 -0.0275 -0.9996
vn -0.2560 -0.0266 -0.9663
vn -0.2144 -0.0195 -0.9765
vn 0.0000 -0.0208 -0.9998
vn -0.1650 -0.0104 -0.9862
vn 0.0000 -0.0109 -0.9999
vn -0.1473 -0.0026 -0.9891
vn 0.0000 -0.0027 -1.0000
vn 0.2560 -0.0266 -0.9663
vn 0.2144 -0.0195 -0.9765
vn 0.1650 -0.0104 -0.9862
vn 0.1473 -0.0026 -0.9891
usemtl feather_002
s 1
f 18//1 10//2 3//3 6//4
f 11//5 18//1 6//4 4//6
f 5//7 1//8 7//9 15//10
f 15//10 7//9 8//11 16//12
f 16//12 8//11 9//13 17//14
f 17//14 9//13 10//2 18//1
f 2//15 5//7 15//10 14//16
f 14//16 15//10 16//12 13//17
f 13//17 16//12 17//14 12//18
f 12//18 17//14 18//1 11//5
