# Blender v2.79 (sub 0) OBJ File: 'guinea_fowl_base_mesh_BI.blend'
# www.blender.org
mtllib guinea_fowl_feather_flight_primary_012.mtl
o feather_flight_primary_012
v 0.338400 0.346538 0.070217
v 0.326185 0.345255 0.070217
v 0.357046 0.165684 0.070247
v 0.339444 0.185239 0.070243
v 0.331397 0.354416 0.071117
v 0.351774 0.160544 0.071149
v 0.344688 0.318659 0.070222
v 0.351342 0.282204 0.070228
v 0.356988 0.245643 0.070234
v 0.360354 0.208842 0.070240
v 0.333340 0.206003 0.070240
v 0.328981 0.242699 0.070234
v 0.326902 0.279635 0.070228
v 0.325831 0.316677 0.070222
v 0.335260 0.317668 0.071123
v 0.339122 0.280919 0.071129
v 0.342985 0.244171 0.071135
v 0.346847 0.207422 0.071141
vn -0.0034 0.0030 -1.0000
vn -0.0788 -0.0043 -0.9969
vn -0.0949 -0.0019 -0.9955
vn -0.0450 0.0024 -0.9990
vn 0.0725 0.0099 -0.9973
vn 0.0815 0.0131 -0.9966
vn 0.0006 -0.0062 -1.0000
vn -0.1166 -0.0185 -0.9930
vn -0.0981 -0.0150 -0.9951
vn 0.0005 -0.0047 -1.0000
vn -0.0744 -0.0103 -0.9972
vn 0.0002 -0.0025 -1.0000
vn -0.0661 -0.0077 -0.9978
vn 0.0001 -0.0008 -1.0000
vn 0.1179 0.0062 -0.9930
vn 0.0990 0.0057 -0.9951
vn 0.0749 0.0053 -0.9972
vn 0.0663 0.0062 -0.9978
usemtl feather_004
s 1
f 18//1 10//2 3//3 6//4
f 11//5 18//1 6//4 4//6
f 5//7 1//8 7//9 15//10
f 15//10 7//9 8//11 16//12
f 16//12 8//11 9//13 17//14
f 17//14 9//13 10//2 18//1
f 2//15 5//7 15//10 14//16
f 14//16 15//10 16//12 13//17
f 13//17 16//12 17//14 12//18
f 12//18 17//14 18//1 11//5
