# Blender v2.79 (sub 0) OBJ File: 'guinea_fowl_base_mesh_BI.blend'
# www.blender.org
mtllib guinea_fowl_feather_flight_secondary_036.mtl
o feather_flight_secondary_036
v 0.384899 0.352170 0.069621
v 0.375921 0.348747 0.069602
v 0.416146 0.275255 0.069270
v 0.403895 0.270584 0.069245
v 0.378897 0.354417 0.068728
v 0.413334 0.264241 0.068316
v 0.392353 0.339970 0.069566
v 0.400933 0.323659 0.069492
v 0.408771 0.307066 0.069417
v 0.414934 0.289834 0.069338
v 0.395079 0.282265 0.069297
v 0.388187 0.299219 0.069375
v 0.382970 0.316812 0.069455
v 0.378494 0.334687 0.069537
v 0.385425 0.337324 0.068650
v 0.391952 0.320231 0.068572
v 0.398480 0.303138 0.068494
v 0.405007 0.286045 0.068416
vn 0.0025 -0.0014 -1.0000
vn 0.0915 0.0332 -0.9952
vn 0.1081 0.0329 -0.9936
vn 0.0046 -0.0067 -0.9999
vn -0.0869 -0.0349 -0.9956
vn -0.0990 -0.0462 -0.9940
vn -0.0042 0.0161 -0.9998
vn 0.1361 0.0694 -0.9883
vn 0.1143 0.0577 -0.9918
vn -0.0031 0.0133 -0.9999
vn 0.0879 0.0432 -0.9952
vn -0.0015 0.0092 -0.9999
vn 0.0793 0.0361 -0.9962
vn -0.0002 0.0058 -1.0000
vn -0.1443 -0.0376 -0.9888
vn -0.1202 -0.0318 -0.9922
vn -0.0908 -0.0251 -0.9955
vn -0.0796 -0.0246 -0.9965
usemtl feather_003
s 1
f 18//1 10//2 3//3 6//4
f 11//5 18//1 6//4 4//6
f 5//7 1//8 7//9 15//10
f 15//10 7//9 8//11 16//12
f 16//12 8//11 9//13 17//14
f 17//14 9//13 10//2 18//1
f 2//15 5//7 15//10 14//16
f 14//16 15//10 16//12 13//17
f 13//17 16//12 17//14 12//18
f 12//18 17//14 18//1 11//5
