# Blender v2.79 (sub 0) OBJ File: 'guinea_fowl_base_mesh_BI.blend'
# www.blender.org
mtllib guinea_fowl_feather_flight_tertiary_004.mtl
o feather_flight_tertiary_004
v 0.143482 0.352468 0.072492
v 0.137978 0.352468 0.072492
v 0.144486 0.314332 0.072492
v 0.136974 0.314332 0.072492
v 0.140730 0.354417 0.073394
v 0.140730 0.310066 0.073394
v 0.144978 0.346010 0.072492
v 0.146236 0.337603 0.072492
v 0.147040 0.329196 0.072492
v 0.146816 0.320790 0.072492
v 0.134644 0.320790 0.072492
v 0.134420 0.329196 0.072492
v 0.135224 0.337603 0.072492
v 0.136482 0.346010 0.072492
v 0.140730 0.346010 0.073394
v 0.140730 0.337603 0.073394
v 0.140730 0.329196 0.073394
v 0.140730 0.320790 0.073394
vn 0.0000 0.0141 -0.9999
vn -0.1644 0.0123 -0.9863
vn -0.1910 0.0259 -0.9812
vn 0.0000 0.0264 -0.9996
vn 0.1644 0.0123 -0.9863
vn 0.1910 0.0259 -0.9812
vn 0.0000 -0.0266 -0.9996
vn -0.2560 -0.0258 -0.9663
vn -0.2145 -0.0190 -0.9765
vn 0.0000 -0.0202 -0.9998
vn -0.1651 -0.0101 -0.9862
vn 0.0000 -0.0105 -0.9999
vn -0.1473 -0.0025 -0.9891
vn 0.0000 -0.0027 -1.0000
vn 0.2560 -0.0258 -0.9663
vn 0.2145 -0.0190 -0.9765
vn 0.1651 -0.0101 -0.9862
vn 0.1473 -0.0025 -0.9891
usemtl feather_002
s 1
f 18//1 10//2 3//3 6//4
f 11//5 18//1 6//4 4//6
f 5//7 1//8 7//9 15//10
f 15//10 7//9 8//11 16//12
f 16//12 8//11 9//13 17//14
f 17//14 9//13 10//2 18//1
f 2//15 5//7 15//10 14//16
f 14//16 15//10 16//12 13//17
f 13//17 16//12 17//14 12//18
f 12//18 17//14 18//1 11//5
