# Blender v2.79 (sub 0) OBJ File: 'hen_base_mesh_BI.blend'
# www.blender.org
mtllib hen_feather_flight_tertiary_024.mtl
o feather_flight_tertiary_024
v 0.243381 0.246887 0.046162
v 0.238212 0.243811 0.046162
v 0.253156 0.227826 0.046162
v 0.250303 0.226128 0.046162
v 0.240238 0.246288 0.046687
v 0.252952 0.224922 0.046687
v 0.246638 0.244613 0.046162
v 0.250188 0.241241 0.046162
v 0.252490 0.237127 0.046162
v 0.253341 0.232149 0.046162
v 0.246414 0.228027 0.046162
v 0.242446 0.231150 0.046162
v 0.239927 0.235135 0.046162
v 0.238658 0.239864 0.046162
v 0.242648 0.242238 0.046687
v 0.245058 0.238188 0.046687
v 0.247468 0.234138 0.046687
v 0.249878 0.230088 0.046687
vn -0.0181 0.0304 -0.9994
vn -0.1343 -0.0446 -0.9899
vn -0.1981 -0.0603 -0.9783
vn -0.0258 0.0434 -0.9987
vn 0.1033 0.0967 -0.9899
vn 0.1475 0.1454 -0.9783
vn 0.0141 -0.0238 -0.9996
vn -0.1059 -0.0949 -0.9898
vn -0.0884 -0.0748 -0.9933
vn 0.0106 -0.0178 -0.9998
vn -0.0770 -0.0524 -0.9956
vn 0.0032 -0.0055 -1.0000
vn -0.0871 -0.0409 -0.9953
vn -0.0055 0.0093 -0.9999
vn 0.1339 0.0478 -0.9898
vn 0.1079 0.0420 -0.9933
vn 0.0828 0.0426 -0.9956
vn 0.0775 0.0571 -0.9953
usemtl feather_002
s 1
f 18//1 10//2 3//3 6//4
f 11//5 18//1 6//4 4//6
f 5//7 1//8 7//9 15//10
f 15//10 7//9 8//11 16//12
f 16//12 8//11 9//13 17//14
f 17//14 9//13 10//2 18//1
f 2//15 5//7 15//10 14//16
f 14//16 15//10 16//12 13//17
f 13//17 16//12 17//14 12//18
f 12//18 17//14 18//1 11//5
