# Blender v2.79 (sub 0) OBJ File: 'hen_base_mesh_BI.blend'
# www.blender.org
mtllib hen_feather_flight_primary_007.mtl
o feather_flight_primary_007
v 0.168291 0.242568 0.044838
v 0.159408 0.241634 0.044838
v 0.178522 0.160812 0.044838
v 0.166399 0.159538 0.044838
v 0.163410 0.246288 0.045362
v 0.173424 0.153214 0.045362
v 0.172164 0.228949 0.044838
v 0.176093 0.211102 0.044838
v 0.179288 0.193178 0.044838
v 0.180825 0.175080 0.044838
v 0.161180 0.173016 0.044838
v 0.158921 0.191038 0.044838
v 0.158320 0.209234 0.044838
v 0.158452 0.227508 0.044838
v 0.165308 0.228228 0.045362
v 0.167206 0.210168 0.045362
v 0.169104 0.192108 0.045362
v 0.171003 0.174048 0.045362
vn -0.0006 0.0039 -1.0000
vn -0.0600 -0.0028 -0.9982
vn -0.0699 -0.0002 -0.9975
vn -0.0009 0.0074 -1.0000
vn 0.0585 0.0099 -0.9982
vn 0.0667 0.0149 -0.9977
vn 0.0007 -0.0071 -1.0000
vn -0.0933 -0.0170 -0.9955
vn -0.0780 -0.0135 -0.9969
vn 0.0005 -0.0054 -1.0000
vn -0.0594 -0.0090 -0.9982
vn 0.0003 -0.0028 -1.0000
vn -0.0529 -0.0063 -0.9986
vn 0.0001 -0.0007 -1.0000
vn 0.0948 0.0027 -0.9955
vn 0.0791 0.0030 -0.9969
vn 0.0600 0.0035 -0.9982
vn 0.0531 0.0049 -0.9986
usemtl feather_004
s 1
f 18//1 10//2 3//3 6//4
f 11//5 18//1 6//4 4//6
f 5//7 1//8 7//9 15//10
f 15//10 7//9 8//11 16//12
f 16//12 8//11 9//13 17//14
f 17//14 9//13 10//2 18//1
f 2//15 5//7 15//10 14//16
f 14//16 15//10 16//12 13//17
f 13//17 16//12 17//14 12//18
f 12//18 17//14 18//1 11//5
