# Blender v2.79 (sub 0) OBJ File: 'hen_base_mesh_BI.blend'
# www.blender.org
mtllib hen_feather_tail_primary_007.mtl
o feather_tail_primary_007
v 0.007098 0.250358 -0.075244
v -0.007098 0.250358 -0.075244
v 0.009533 0.381353 -0.135534
v -0.009533 0.381353 -0.135534
v 0.000000 0.248067 -0.071557
v 0.000000 0.389226 -0.136525
v 0.010288 0.261275 -0.080269
v 0.012677 0.275488 -0.086810
v 0.014451 0.356223 -0.123968
v 0.013212 0.370435 -0.130509
v -0.013212 0.370435 -0.130509
v -0.014451 0.356223 -0.123968
v -0.012677 0.275488 -0.086810
v -0.010288 0.261275 -0.080269
v 0.000000 0.262280 -0.078099
v 0.000000 0.276493 -0.084640
v 0.000000 0.357227 -0.121798
v 0.000000 0.371440 -0.128339
v 0.014542 0.340076 -0.116536
v 0.014370 0.323929 -0.109105
v 0.014082 0.307782 -0.101673
v 0.013686 0.291635 -0.094242
v -0.013686 0.291635 -0.094242
v -0.014082 0.307782 -0.101673
v -0.014370 0.323929 -0.109105
v -0.014542 0.340076 -0.116536
v 0.000000 0.341080 -0.114366
v 0.000000 0.324933 -0.106935
v 0.000000 0.308786 -0.099503
v 0.000000 0.292639 -0.092072
vn 0.0000 0.4327 0.9015
vn 0.1893 0.4238 0.8857
vn 0.2136 0.4309 0.8767
vn 0.0000 0.4411 0.8975
vn -0.1893 0.4238 0.8857
vn -0.2136 0.4309 0.8767
vn 0.0000 0.3883 0.9215
vn 0.2712 0.3738 0.8870
vn 0.2332 0.3861 0.8925
vn 0.0000 0.3960 0.9182
vn 0.1903 0.4013 0.8959
vn 0.0000 0.4085 0.9127
vn 0.0000 0.4179 0.9085
vn 0.1630 0.4123 0.8963
vn 0.1664 0.4154 0.8943
vn 0.0000 0.4214 0.9069
vn -0.2712 0.3738 0.8870
vn -0.2332 0.3861 0.8925
vn -0.1903 0.4013 0.8959
vn -0.1630 0.4123 0.8963
vn -0.1664 0.4154 0.8943
vn 0.1740 0.4086 0.8960
vn 0.0000 0.4149 0.9098
vn 0.1677 0.4107 0.8962
vn 0.0000 0.4166 0.9091
vn 0.1645 0.4114 0.8965
vn 0.0000 0.4171 0.9088
vn -0.1740 0.4086 0.8960
vn -0.1677 0.4107 0.8962
vn -0.1645 0.4114 0.8965
usemtl feather_004
s 1
f 18//1 10//2 3//3 6//4
f 11//5 18//1 6//4 4//6
f 5//7 1//8 7//9 15//10
f 15//10 7//9 8//11 16//12
f 27//13 19//14 9//15 17//16
f 17//16 9//15 10//2 18//1
f 2//17 5//7 15//10 14//18
f 14//18 15//10 16//12 13//19
f 26//20 27//13 17//16 12//21
f 12//21 17//16 18//1 11//5
f 16//12 8//11 22//22 30//23
f 30//23 22//22 21//24 29//25
f 29//25 21//24 20//26 28//27
f 28//27 20//26 19//14 27//13
f 13//19 16//12 30//23 23//28
f 23//28 30//23 29//25 24//29
f 24//29 29//25 28//27 25//30
f 25//30 28//27 27//13 26//20
