# Blender v2.79 (sub 0) OBJ File: 'hen_base_mesh_BI.blend'
# www.blender.org
mtllib hen_feather_tail_secondary_001.mtl
o feather_tail_secondary_001
v 0.012516 0.195109 -0.133664
v 0.019845 0.199673 -0.129284
v 0.017216 0.194793 -0.130498
v 0.010975 0.199669 -0.140647
v 0.009880 0.206172 -0.149194
v 0.022971 0.214325 -0.141370
v 0.021599 0.206285 -0.134298
v 0.017354 0.202065 -0.138308
v 0.017493 0.209337 -0.146117
v 0.010436 0.228977 -0.173528
v 0.009469 0.222243 -0.167371
v 0.009516 0.214109 -0.158377
v 0.023649 0.222911 -0.149930
v 0.024011 0.231300 -0.158680
v 0.023280 0.236977 -0.165851
v 0.017964 0.234121 -0.172732
v 0.017807 0.225860 -0.163860
v 0.017650 0.217598 -0.154988
vn 0.6525 -0.5817 -0.4856
vn 0.4225 -0.6878 -0.5902
vn 0.4580 -0.6695 -0.5847
vn 0.6528 -0.5761 -0.4919
vn 0.4968 -0.6462 -0.5793
vn 0.6531 -0.5669 -0.5020
vn 0.8335 -0.4318 -0.3446
vn 0.8115 -0.4494 -0.3734
vn 0.7854 -0.4664 -0.4068
vn 0.5113 -0.6357 -0.5782
vn 0.6532 -0.5622 -0.5071
vn 0.5112 -0.6310 -0.5835
vn 0.6533 -0.5572 -0.5125
vn 0.5071 -0.6288 -0.5895
vn 0.6534 -0.5532 -0.5167
vn 0.7751 -0.4714 -0.4205
vn 0.7754 -0.4665 -0.4256
vn 0.7785 -0.4598 -0.4273
usemtl feather_002
s 1
f 3//1 1//2 4//3 8//4
f 8//4 4//3 5//5 9//6
f 2//7 3//1 8//4 7//8
f 7//8 8//4 9//6 6//9
f 9//6 5//5 12//10 18//11
f 18//11 12//10 11//12 17//13
f 17//13 11//12 10//14 16//15
f 6//9 9//6 18//11 13//16
f 13//16 18//11 17//13 14//17
f 14//17 17//13 16//15 15//18
