# Blender v2.79 (sub 0) OBJ File: 'hen_base_mesh_BI.blend'
# www.blender.org
mtllib hen_feather_flight_primary_012.mtl
o feather_flight_primary_012
v 0.243263 0.245323 0.044838
v 0.234716 0.239114 0.044838
v 0.302090 0.167632 0.044838
v 0.290427 0.159158 0.044838
v 0.236063 0.246247 0.045362
v 0.302665 0.154576 0.045362
v 0.255284 0.233664 0.044838
v 0.269862 0.217707 0.044838
v 0.283734 0.201237 0.044838
v 0.296012 0.183609 0.044838
v 0.277110 0.169876 0.044838
v 0.264139 0.187000 0.044838
v 0.252762 0.205283 0.044838
v 0.242091 0.224078 0.044838
v 0.248687 0.228871 0.045362
v 0.261312 0.211495 0.045362
v 0.273937 0.194118 0.045362
v 0.286561 0.176742 0.045362
vn -0.0019 0.0026 -1.0000
vn -0.0428 -0.0274 -0.9987
vn -0.0511 -0.0297 -0.9982
vn -0.0035 0.0049 -1.0000
vn 0.0393 0.0322 -0.9987
vn 0.0441 0.0394 -0.9982
vn 0.0035 -0.0049 -1.0000
vn -0.0612 -0.0519 -0.9968
vn -0.0515 -0.0429 -0.9977
vn 0.0027 -0.0037 -1.0000
vn -0.0397 -0.0317 -0.9987
vn 0.0014 -0.0019 -1.0000
vn -0.0361 -0.0270 -0.9990
vn 0.0003 -0.0005 -1.0000
vn 0.0683 0.0421 -0.9968
vn 0.0567 0.0357 -0.9977
vn 0.0425 0.0279 -0.9987
vn 0.0368 0.0260 -0.9990
usemtl feather_004
s 1
f 18//1 10//2 3//3 6//4
f 11//5 18//1 6//4 4//6
f 5//7 1//8 7//9 15//10
f 15//10 7//9 8//11 16//12
f 16//12 8//11 9//13 17//14
f 17//14 9//13 10//2 18//1
f 2//15 5//7 15//10 14//16
f 14//16 15//10 16//12 13//17
f 13//17 16//12 17//14 12//18
f 12//18 17//14 18//1 11//5
