# Blender v2.79 (sub 0) OBJ File: 'hen_base_mesh_BI.blend'
# www.blender.org
mtllib hen_feather_flight_tertiary_048.mtl
o feather_flight_tertiary_048
v 0.185348 0.245713 0.044095
v 0.180347 0.244680 0.044079
v 0.189253 0.224290 0.043966
v 0.185520 0.223240 0.043934
v 0.182619 0.246288 0.043569
v 0.187786 0.221350 0.043410
v 0.187460 0.242363 0.044076
v 0.189450 0.237856 0.044050
v 0.190484 0.233201 0.044024
v 0.190390 0.228331 0.043996
v 0.183045 0.226480 0.043949
v 0.180955 0.231059 0.043981
v 0.179807 0.235833 0.044017
v 0.179739 0.240769 0.044051
v 0.183603 0.241562 0.043539
v 0.184700 0.236849 0.043508
v 0.185792 0.232135 0.043478
v 0.186753 0.227406 0.043448
vn 0.0147 -0.0171 -0.9997
vn 0.1562 0.0127 -0.9876
vn 0.2082 0.0045 -0.9781
vn 0.0045 -0.0310 -0.9995
vn -0.1374 -0.0423 -0.9896
vn -0.1785 -0.0618 -0.9820
vn -0.0038 0.0332 -0.9994
vn 0.1568 0.0661 -0.9854
vn 0.1321 0.0533 -0.9898
vn -0.0024 0.0258 -0.9996
vn 0.1112 0.0370 -0.9931
vn 0.0023 0.0129 -0.9999
vn 0.1162 0.0245 -0.9929
vn 0.0071 0.0006 -1.0000
vn -0.1640 -0.0005 -0.9864
vn -0.1347 -0.0044 -0.9908
vn -0.1067 -0.0121 -0.9942
vn -0.1045 -0.0225 -0.9943
usemtl feather_002
s 1
f 18//1 10//2 3//3 6//4
f 11//5 18//1 6//4 4//6
f 5//7 1//8 7//9 15//10
f 15//10 7//9 8//11 16//12
f 16//12 8//11 9//13 17//14
f 17//14 9//13 10//2 18//1
f 2//15 5//7 15//10 14//16
f 14//16 15//10 16//12 13//17
f 13//17 16//12 17//14 12//18
f 12//18 17//14 18//1 11//5
