# Blender v2.79 (sub 0) OBJ File: 'hen_base_mesh_BI.blend'
# www.blender.org
mtllib hen_feather_flight_tertiary_059.mtl
o feather_flight_tertiary_059
v 0.265792 0.247284 0.044044
v 0.262406 0.243532 0.044123
v 0.283435 0.230351 0.043783
v 0.280837 0.227442 0.043934
v 0.263189 0.246255 0.043568
v 0.284165 0.227052 0.043307
v 0.269767 0.245508 0.043985
v 0.274516 0.242725 0.043918
v 0.278634 0.239247 0.043849
v 0.281753 0.234668 0.043787
v 0.276415 0.228721 0.044007
v 0.271581 0.231421 0.044044
v 0.267742 0.235218 0.044074
v 0.264540 0.239716 0.044106
v 0.267165 0.242615 0.043519
v 0.271141 0.238975 0.043469
v 0.275116 0.235335 0.043419
v 0.279092 0.231695 0.043370
vn -0.0062 -0.0296 -0.9995
vn 0.0859 0.0802 -0.9930
vn 0.1254 0.1019 -0.9868
vn -0.0031 -0.0430 -0.9991
vn -0.1014 -0.1344 -0.9857
vn -0.1272 -0.1816 -0.9751
vn -0.0343 0.0121 -0.9993
vn 0.0779 0.1342 -0.9879
vn 0.0631 0.1082 -0.9921
vn -0.0305 0.0075 -0.9995
vn 0.0501 0.0796 -0.9955
vn -0.0229 -0.0006 -0.9997
vn 0.0544 0.0691 -0.9961
vn -0.0156 -0.0119 -0.9998
vn -0.1461 -0.1110 -0.9830
vn -0.1219 -0.0943 -0.9880
vn -0.0951 -0.0815 -0.9921
vn -0.0860 -0.0919 -0.9920
usemtl feather_002
s 1
f 18//1 10//2 3//3 6//4
f 11//5 18//1 6//4 4//6
f 5//7 1//8 7//9 15//10
f 15//10 7//9 8//11 16//12
f 16//12 8//11 9//13 17//14
f 17//14 9//13 10//2 18//1
f 2//15 5//7 15//10 14//16
f 14//16 15//10 16//12 13//17
f 13//17 16//12 17//14 12//18
f 12//18 17//14 18//1 11//5
