# Blender v2.79 (sub 0) OBJ File: 'hen_base_mesh_BI.blend'
# www.blender.org
mtllib hen_feather_flight_tertiary_038.mtl
o feather_flight_tertiary_038
v 0.109580 0.245363 0.044095
v 0.103919 0.245165 0.044095
v 0.109017 0.225358 0.044095
v 0.105977 0.225089 0.044095
v 0.106714 0.246288 0.043570
v 0.107528 0.222981 0.043570
v 0.111237 0.242023 0.044095
v 0.112541 0.237650 0.044095
v 0.112490 0.233261 0.044095
v 0.111028 0.228836 0.044095
v 0.103800 0.228398 0.044095
v 0.101997 0.232808 0.044095
v 0.101531 0.237255 0.044095
v 0.102499 0.241718 0.044095
v 0.106870 0.241870 0.043570
v 0.107082 0.237453 0.043570
v 0.107295 0.233035 0.043570
v 0.107441 0.228617 0.043570
vn 0.0054 -0.0370 -0.9993
vn 0.1554 -0.0279 -0.9874
vn 0.2254 -0.0476 -0.9731
vn -0.0038 -0.0526 -0.9986
vn -0.1518 -0.0360 -0.9877
vn -0.2168 -0.0548 -0.9746
vn -0.0010 0.0295 -0.9995
vn 0.1470 0.0343 -0.9885
vn 0.1215 0.0244 -0.9923
vn -0.0009 0.0215 -0.9998
vn 0.1014 0.0094 -0.9948
vn 0.0005 0.0054 -1.0000
vn 0.1071 -0.0065 -0.9942
vn 0.0020 -0.0122 -0.9999
vn -0.1490 0.0239 -0.9885
vn -0.1223 0.0147 -0.9924
vn -0.1004 0.0003 -0.9949
vn -0.1042 -0.0151 -0.9944
usemtl feather_002
s 1
f 18//1 10//2 3//3 6//4
f 11//5 18//1 6//4 4//6
f 5//7 1//8 7//9 15//10
f 15//10 7//9 8//11 16//12
f 16//12 8//11 9//13 17//14
f 17//14 9//13 10//2 18//1
f 2//15 5//7 15//10 14//16
f 14//16 15//10 16//12 13//17
f 13//17 16//12 17//14 12//18
f 12//18 17//14 18//1 11//5
