# Blender v2.79 (sub 0) OBJ File: 'hen_base_mesh_BI.blend'
# www.blender.org
mtllib hen_feather_flight_tertiary_058.mtl
o feather_flight_tertiary_058
v 0.257501 0.247211 0.044095
v 0.253338 0.243498 0.044095
v 0.272767 0.229173 0.044095
v 0.269522 0.226278 0.044095
v 0.254616 0.246255 0.043571
v 0.272904 0.225753 0.043571
v 0.261295 0.245235 0.044095
v 0.265713 0.242197 0.044095
v 0.269356 0.238468 0.044095
v 0.271806 0.233676 0.044095
v 0.265157 0.227745 0.044095
v 0.260675 0.230725 0.044095
v 0.257385 0.234769 0.044095
v 0.254869 0.239503 0.044095
v 0.258082 0.242369 0.043571
v 0.261549 0.238483 0.043571
v 0.265015 0.234597 0.043571
v 0.268482 0.230711 0.043571
vn 0.0167 -0.0187 -0.9997
vn 0.1092 0.0681 -0.9917
vn 0.1514 0.0861 -0.9847
vn 0.0246 -0.0276 -0.9993
vn -0.0801 -0.1007 -0.9917
vn -0.1028 -0.1406 -0.9847
vn -0.0167 0.0187 -0.9997
vn 0.0957 0.1185 -0.9883
vn 0.0804 0.0954 -0.9922
vn -0.0126 0.0142 -0.9998
vn 0.0684 0.0703 -0.9951
vn -0.0050 0.0056 -1.0000
vn 0.0752 0.0603 -0.9953
vn 0.0037 -0.0042 -1.0000
vn -0.1286 -0.0816 -0.9883
vn -0.1039 -0.0690 -0.9922
vn -0.0777 -0.0599 -0.9951
vn -0.0685 -0.0678 -0.9953
usemtl feather_002
s 1
f 18//1 10//2 3//3 6//4
f 11//5 18//1 6//4 4//6
f 5//7 1//8 7//9 15//10
f 15//10 7//9 8//11 16//12
f 16//12 8//11 9//13 17//14
f 17//14 9//13 10//2 18//1
f 2//15 5//7 15//10 14//16
f 14//16 15//10 16//12 13//17
f 13//17 16//12 17//14 12//18
f 12//18 17//14 18//1 11//5
