# Blender v2.79 (sub 0) OBJ File: 'hen_base_mesh_BI.blend'
# www.blender.org
mtllib hen_feather_tail_secondary_010.mtl
o feather_tail_secondary_010
v 0.036914 0.229598 -0.115469
v 0.034147 0.220904 -0.124625
v 0.033459 0.223137 -0.117413
v 0.037340 0.239516 -0.120915
v 0.037552 0.251347 -0.129141
v 0.032608 0.235819 -0.145494
v 0.033329 0.226915 -0.134185
v 0.033204 0.233505 -0.127181
v 0.032949 0.243872 -0.136949
v 0.036709 0.283605 -0.159825
v 0.037246 0.275765 -0.150429
v 0.037459 0.263743 -0.139588
v 0.032122 0.246979 -0.157242
v 0.031755 0.258515 -0.168595
v 0.031858 0.268369 -0.175870
v 0.032081 0.279208 -0.170240
v 0.032370 0.267429 -0.159143
v 0.032660 0.255651 -0.148046
vn -0.9755 0.1104 0.1901
vn -0.8806 0.2889 0.3754
vn -0.8989 0.2712 0.3441
vn -0.9759 0.1165 0.1844
vn -0.9176 0.2527 0.3067
vn -0.9764 0.1264 0.1751
vn -0.9970 -0.0765 -0.0095
vn -0.9990 -0.0431 0.0130
vn -0.9993 -0.0039 0.0365
vn -0.9243 0.2468 0.2911
vn -0.9766 0.1315 0.1703
vn -0.9243 0.2521 0.2864
vn -0.9767 0.1369 0.1652
vn -0.9225 0.2595 0.2857
vn -0.9767 0.1411 0.1612
vn -0.9989 0.0123 0.0441
vn -0.9991 0.0173 0.0391
vn -0.9993 0.0182 0.0316
usemtl feather_002
s 1
f 3//1 1//2 4//3 8//4
f 8//4 4//3 5//5 9//6
f 2//7 3//1 8//4 7//8
f 7//8 8//4 9//6 6//9
f 9//6 5//5 12//10 18//11
f 18//11 12//10 11//12 17//13
f 17//13 11//12 10//14 16//15
f 6//9 9//6 18//11 13//16
f 13//16 18//11 17//13 14//17
f 14//17 17//13 16//15 15//18
