# Blender v2.79 (sub 0) OBJ File: 'hen_base_mesh_BI.blend'
# www.blender.org
mtllib hen_feather_flight_tertiary_052.mtl
o feather_flight_tertiary_052
v 0.215211 0.245981 0.044095
v 0.209639 0.244558 0.044095
v 0.219299 0.225801 0.044095
v 0.215728 0.224889 0.044095
v 0.212165 0.246288 0.043570
v 0.218083 0.223116 0.043570
v 0.217585 0.242994 0.044095
v 0.219692 0.238853 0.044095
v 0.220621 0.234412 0.044095
v 0.220413 0.229680 0.044095
v 0.212891 0.227759 0.044095
v 0.210439 0.231811 0.044095
v 0.209125 0.236154 0.044095
v 0.208988 0.240798 0.044095
v 0.213287 0.241896 0.043570
v 0.214408 0.237504 0.043570
v 0.215530 0.233111 0.043570
v 0.216652 0.228719 0.043570
vn 0.0076 -0.0297 -0.9995
vn 0.1461 0.0098 -0.9892
vn 0.2015 0.0067 -0.9795
vn 0.0109 -0.0428 -0.9990
vn -0.1329 -0.0614 -0.9892
vn -0.1800 -0.0907 -0.9795
vn -0.0071 0.0278 -0.9996
vn 0.1343 0.0636 -0.9889
vn 0.1130 0.0478 -0.9924
vn -0.0050 0.0197 -0.9998
vn 0.0970 0.0293 -0.9948
vn -0.0012 0.0047 -1.0000
vn 0.1037 0.0174 -0.9944
vn 0.0024 -0.0094 -0.9999
vn -0.1484 -0.0085 -0.9889
vn -0.1221 -0.0122 -0.9924
vn -0.0992 -0.0208 -0.9948
vn -0.0993 -0.0345 -0.9944
usemtl feather_002
s 1
f 18//1 10//2 3//3 6//4
f 11//5 18//1 6//4 4//6
f 5//7 1//8 7//9 15//10
f 15//10 7//9 8//11 16//12
f 16//12 8//11 9//13 17//14
f 17//14 9//13 10//2 18//1
f 2//15 5//7 15//10 14//16
f 14//16 15//10 16//12 13//17
f 13//17 16//12 17//14 12//18
f 12//18 17//14 18//1 11//5
