# Blender v2.79 (sub 0) OBJ File: 'hen_base_mesh_BI.blend'
# www.blender.org
mtllib hen_feather_flight_secondary_007.mtl
o feather_flight_secondary_007
v 0.167630 0.244454 0.045499
v 0.159663 0.243616 0.045499
v 0.171943 0.200516 0.045499
v 0.164993 0.199373 0.045499
v 0.163410 0.246288 0.046023
v 0.168799 0.195012 0.046023
v 0.170581 0.237215 0.045499
v 0.173384 0.227687 0.045499
v 0.174864 0.218090 0.045499
v 0.174362 0.208337 0.045499
v 0.161305 0.206485 0.045499
v 0.158593 0.216170 0.045499
v 0.157580 0.226012 0.045499
v 0.158281 0.235922 0.045499
v 0.164431 0.236569 0.046023
v 0.165547 0.226849 0.046023
v 0.166826 0.217130 0.046023
v 0.167887 0.207411 0.046023
vn -0.0037 0.0113 -0.9999
vn -0.0883 0.0020 -0.9961
vn -0.1140 0.0085 -0.9934
vn 0.0020 0.0175 -0.9998
vn 0.0857 0.0185 -0.9961
vn 0.1088 0.0256 -0.9937
vn 0.0014 -0.0132 -0.9999
vn -0.1033 -0.0242 -0.9943
vn -0.0860 -0.0188 -0.9961
vn 0.0011 -0.0099 -0.9999
vn -0.0687 -0.0119 -0.9976
vn 0.0002 -0.0037 -1.0000
vn -0.0682 -0.0058 -0.9977
vn -0.0015 0.0023 -1.0000
vn 0.1061 -0.0022 -0.9943
vn 0.0876 -0.0000 -0.9962
vn 0.0685 0.0047 -0.9976
vn 0.0662 0.0103 -0.9977
usemtl feather_003
s 1
f 18//1 10//2 3//3 6//4
f 11//5 18//1 6//4 4//6
f 5//7 1//8 7//9 15//10
f 15//10 7//9 8//11 16//12
f 16//12 8//11 9//13 17//14
f 17//14 9//13 10//2 18//1
f 2//15 5//7 15//10 14//16
f 14//16 15//10 16//12 13//17
f 13//17 16//12 17//14 12//18
f 12//18 17//14 18//1 11//5
