# Blender v2.79 (sub 0) OBJ File: 'hen_base_mesh_BI.blend'
# www.blender.org
mtllib hen_feather_flight_primary_013.mtl
o feather_flight_primary_013
v 0.256717 0.244172 0.044838
v 0.250099 0.238009 0.044838
v 0.333554 0.175651 0.044838
v 0.324523 0.167242 0.044838
v 0.249543 0.244650 0.045362
v 0.337499 0.163655 0.045362
v 0.271323 0.234054 0.044838
v 0.289507 0.220109 0.044838
v 0.307146 0.205656 0.044838
v 0.323549 0.190054 0.044838
v 0.308914 0.176425 0.044838
v 0.291973 0.191528 0.044838
v 0.276267 0.207780 0.044838
v 0.261107 0.224541 0.044838
v 0.266215 0.229297 0.045362
v 0.282887 0.213945 0.045362
v 0.299559 0.198592 0.045362
v 0.316231 0.183240 0.045362
vn -0.0018 0.0025 -1.0000
vn -0.0427 -0.0419 -0.9982
vn -0.0506 -0.0465 -0.9976
vn -0.0055 0.0024 -1.0000
vn 0.0382 0.0455 -0.9982
vn 0.0428 0.0549 -0.9976
vn 0.0068 -0.0010 -1.0000
vn -0.0595 -0.0731 -0.9955
vn -0.0499 -0.0603 -0.9969
vn 0.0025 -0.0037 -1.0000
vn -0.0386 -0.0452 -0.9982
vn 0.0013 -0.0019 -1.0000
vn -0.0354 -0.0392 -0.9986
vn 0.0003 -0.0005 -1.0000
vn 0.0674 0.0647 -0.9956
vn 0.0566 0.0551 -0.9969
vn 0.0421 0.0423 -0.9982
vn 0.0362 0.0384 -0.9986
usemtl feather_004
s 1
f 18//1 10//2 3//3 6//4
f 11//5 18//1 6//4 4//6
f 5//7 1//8 7//9 15//10
f 15//10 7//9 8//11 16//12
f 16//12 8//11 9//13 17//14
f 17//14 9//13 10//2 18//1
f 2//15 5//7 15//10 14//16
f 14//16 15//10 16//12 13//17
f 13//17 16//12 17//14 12//18
f 12//18 17//14 18//1 11//5
