# Blender v2.79 (sub 0) OBJ File: 'hen_base_mesh_BI.blend'
# www.blender.org
mtllib hen_feather_flight_secondary_022.mtl
o feather_flight_secondary_022
v 0.152162 0.244368 0.044684
v 0.144062 0.243826 0.044684
v 0.154894 0.201586 0.044684
v 0.147853 0.200847 0.044684
v 0.147951 0.246288 0.044159
v 0.151596 0.196419 0.044159
v 0.154894 0.237254 0.044684
v 0.157351 0.227925 0.044684
v 0.158382 0.218551 0.044684
v 0.157524 0.209077 0.044684
v 0.144375 0.207878 0.044684
v 0.142045 0.217309 0.044684
v 0.141382 0.226841 0.044684
v 0.142390 0.236417 0.044684
v 0.148642 0.236836 0.044159
v 0.149417 0.227383 0.044159
v 0.150278 0.217930 0.044159
v 0.150984 0.208478 0.044159
vn 0.0024 -0.0117 -0.9999
vn 0.0878 -0.0049 -0.9961
vn 0.1127 -0.0116 -0.9935
vn -0.0011 -0.0178 -0.9998
vn -0.0859 -0.0162 -0.9962
vn -0.1093 -0.0234 -0.9937
vn -0.0014 0.0137 -0.9999
vn 0.1027 0.0212 -0.9945
vn 0.0854 0.0162 -0.9962
vn -0.0007 0.0102 -0.9999
vn 0.0685 0.0093 -0.9976
vn -0.0000 0.0037 -1.0000
vn 0.0680 0.0031 -0.9977
vn 0.0010 -0.0026 -1.0000
vn -0.1046 0.0061 -0.9945
vn -0.0866 0.0031 -0.9962
vn -0.0683 -0.0023 -0.9977
vn -0.0666 -0.0080 -0.9977
usemtl feather_003
s 1
f 18//1 10//2 3//3 6//4
f 11//5 18//1 6//4 4//6
f 5//7 1//8 7//9 15//10
f 15//10 7//9 8//11 16//12
f 16//12 8//11 9//13 17//14
f 17//14 9//13 10//2 18//1
f 2//15 5//7 15//10 14//16
f 14//16 15//10 16//12 13//17
f 13//17 16//12 17//14 12//18
f 12//18 17//14 18//1 11//5
