# Blender v2.79 (sub 0) OBJ File: 'hen_base_mesh_BI.blend'
# www.blender.org
mtllib hen_feather_tail_primary_001.mtl
o feather_tail_primary_001
v 0.011075 0.196340 -0.132537
v 0.018405 0.200905 -0.128156
v 0.011093 0.262580 -0.205263
v 0.020938 0.268711 -0.199379
v 0.015774 0.196026 -0.129370
v 0.017148 0.268249 -0.206929
v 0.009535 0.200900 -0.139520
v 0.008439 0.207404 -0.148066
v 0.008309 0.248141 -0.192973
v 0.009088 0.255811 -0.200399
v 0.022731 0.264308 -0.192245
v 0.023232 0.257435 -0.184054
v 0.021530 0.215557 -0.140242
v 0.020158 0.207516 -0.133170
v 0.015912 0.203297 -0.137179
v 0.016050 0.210569 -0.144988
v 0.016836 0.251877 -0.189347
v 0.016975 0.259149 -0.197156
v 0.008105 0.239850 -0.184129
v 0.008037 0.231644 -0.175204
v 0.008028 0.223475 -0.166243
v 0.008076 0.215341 -0.157249
v 0.022208 0.224142 -0.148803
v 0.022570 0.232531 -0.157552
v 0.022876 0.240885 -0.166335
v 0.023122 0.249202 -0.175154
v 0.016679 0.243615 -0.180475
v 0.016522 0.235354 -0.171604
v 0.016365 0.227092 -0.162732
v 0.016208 0.218831 -0.153860
vn 0.6534 -0.5488 -0.5214
vn 0.4983 -0.6289 -0.5968
vn 0.4766 -0.6305 -0.6126
vn 0.6534 -0.5423 -0.5282
vn 0.7849 -0.4504 -0.4255
vn 0.8000 -0.4290 -0.4193
vn 0.6525 -0.5817 -0.4857
vn 0.4228 -0.6877 -0.5902
vn 0.4582 -0.6694 -0.5846
vn 0.6528 -0.5761 -0.4919
vn 0.4971 -0.6461 -0.5792
vn 0.6531 -0.5669 -0.5020
vn 0.6533 -0.5599 -0.5096
vn 0.5212 -0.6293 -0.5765
vn 0.5182 -0.6281 -0.5805
vn 0.6533 -0.5573 -0.5124
vn 0.8333 -0.4320 -0.3448
vn 0.8114 -0.4495 -0.3736
vn 0.7853 -0.4666 -0.4070
vn 0.7679 -0.4756 -0.4290
vn 0.7702 -0.4711 -0.4299
vn 0.5115 -0.6356 -0.5781
vn 0.6532 -0.5622 -0.5071
vn 0.5170 -0.6320 -0.5772
vn 0.6532 -0.5609 -0.5085
vn 0.5199 -0.6305 -0.5764
vn 0.6532 -0.5605 -0.5089
vn 0.7750 -0.4716 -0.4207
vn 0.7710 -0.4739 -0.4254
vn 0.7689 -0.4754 -0.4276
usemtl feather_004
s 1
f 18//1 10//2 3//3 6//4
f 11//5 18//1 6//4 4//6
f 5//7 1//8 7//9 15//10
f 15//10 7//9 8//11 16//12
f 27//13 19//14 9//15 17//16
f 17//16 9//15 10//2 18//1
f 2//17 5//7 15//10 14//18
f 14//18 15//10 16//12 13//19
f 26//20 27//13 17//16 12//21
f 12//21 17//16 18//1 11//5
f 16//12 8//11 22//22 30//23
f 30//23 22//22 21//24 29//25
f 29//25 21//24 20//26 28//27
f 28//27 20//26 19//14 27//13
f 13//19 16//12 30//23 23//28
f 23//28 30//23 29//25 24//29
f 24//29 29//25 28//27 25//30
f 25//30 28//27 27//13 26//20
