# Blender v2.79 (sub 0) OBJ File: 'hen_base_mesh_BI.blend'
# www.blender.org
mtllib hen_feather_flight_tertiary_012.mtl
o feather_flight_tertiary_012
v 0.154936 0.245539 0.046163
v 0.149258 0.244922 0.046163
v 0.156157 0.224713 0.046169
v 0.152517 0.224349 0.046157
v 0.151982 0.246288 0.046687
v 0.154599 0.222217 0.046687
v 0.156860 0.242202 0.046163
v 0.158371 0.237747 0.046164
v 0.158662 0.233154 0.046167
v 0.157787 0.228433 0.046171
v 0.150109 0.227636 0.046156
v 0.148247 0.232042 0.046159
v 0.147566 0.236577 0.046162
v 0.148096 0.241249 0.046163
v 0.152476 0.241725 0.046687
v 0.152959 0.237161 0.046687
v 0.153445 0.232597 0.046687
v 0.153944 0.228035 0.046687
vn -0.0008 0.0305 -0.9995
vn -0.1451 0.0101 -0.9893
vn -0.1987 0.0204 -0.9798
vn -0.0031 0.0437 -0.9990
vn 0.1428 0.0429 -0.9888
vn 0.1949 0.0654 -0.9786
vn 0.0031 -0.0282 -0.9996
vn -0.1429 -0.0437 -0.9887
vn -0.1193 -0.0312 -0.9924
vn 0.0022 -0.0200 -0.9998
vn -0.1001 -0.0154 -0.9948
vn 0.0009 -0.0048 -1.0000
vn -0.1045 -0.0029 -0.9945
vn 0.0001 0.0097 -0.9999
vn 0.1491 -0.0121 -0.9887
vn 0.1234 -0.0050 -0.9923
vn 0.1019 0.0066 -0.9948
vn 0.1046 0.0205 -0.9943
usemtl feather_002
s 1
f 18//1 10//2 3//3 6//4
f 11//5 18//1 6//4 4//6
f 5//7 1//8 7//9 15//10
f 15//10 7//9 8//11 16//12
f 16//12 8//11 9//13 17//14
f 17//14 9//13 10//2 18//1
f 2//15 5//7 15//10 14//16
f 14//16 15//10 16//12 13//17
f 13//17 16//12 17//14 12//18
f 12//18 17//14 18//1 11//5
