# Blender v2.79 (sub 0) OBJ File: 'hen_base_mesh_BI.blend'
# www.blender.org
mtllib hen_feather_flight_tertiary_051.mtl
o feather_flight_tertiary_051
v 0.207006 0.245664 0.044095
v 0.201985 0.244729 0.044079
v 0.210408 0.224020 0.043966
v 0.206628 0.223318 0.043934
v 0.204288 0.246293 0.043569
v 0.208966 0.221257 0.043410
v 0.209052 0.242273 0.044076
v 0.210906 0.237707 0.044050
v 0.211743 0.232952 0.044025
v 0.211543 0.228003 0.043997
v 0.204130 0.226626 0.043950
v 0.202156 0.231169 0.043982
v 0.201221 0.235904 0.044017
v 0.201301 0.240830 0.044051
v 0.205175 0.241547 0.043539
v 0.206062 0.236801 0.043509
v 0.206949 0.232056 0.043479
v 0.207835 0.227310 0.043449
vn 0.0093 -0.0180 -0.9998
vn 0.1559 0.0117 -0.9877
vn 0.2054 0.0067 -0.9786
vn 0.0129 -0.0294 -0.9995
vn -0.1386 -0.0419 -0.9894
vn -0.1812 -0.0646 -0.9813
vn -0.0031 0.0332 -0.9994
vn 0.1580 0.0628 -0.9854
vn 0.1327 0.0493 -0.9899
vn -0.0016 0.0258 -0.9996
vn 0.1111 0.0321 -0.9933
vn 0.0013 0.0124 -0.9999
vn 0.1155 0.0204 -0.9931
vn 0.0045 -0.0001 -1.0000
vn -0.1642 0.0027 -0.9864
vn -0.1355 -0.0007 -0.9908
vn -0.1084 -0.0082 -0.9940
vn -0.1067 -0.0197 -0.9941
usemtl feather_002
s 1
f 18//1 10//2 3//3 6//4
f 11//5 18//1 6//4 4//6
f 5//7 1//8 7//9 15//10
f 15//10 7//9 8//11 16//12
f 16//12 8//11 9//13 17//14
f 17//14 9//13 10//2 18//1
f 2//15 5//7 15//10 14//16
f 14//16 15//10 16//12 13//17
f 13//17 16//12 17//14 12//18
f 12//18 17//14 18//1 11//5
