# Blender v2.79 (sub 0) OBJ File: 'hen_base_mesh_BI.blend'
# www.blender.org
mtllib hen_feather_flight_primary_003.mtl
o feather_flight_primary_003
v 0.106697 0.242689 0.044838
v 0.099061 0.242689 0.044838
v 0.108090 0.172261 0.044838
v 0.097669 0.172261 0.044838
v 0.102879 0.246288 0.045362
v 0.102879 0.168107 0.045362
v 0.108773 0.230763 0.044838
v 0.110518 0.215238 0.044838
v 0.111633 0.199712 0.044838
v 0.111323 0.184187 0.044838
v 0.094435 0.184187 0.044838
v 0.094125 0.199712 0.044838
v 0.095240 0.215238 0.044838
v 0.096985 0.230763 0.044838
v 0.102879 0.230763 0.045362
v 0.102879 0.215238 0.045362
v 0.102879 0.199712 0.045362
v 0.102879 0.184187 0.045362
vn 0.0000 0.0049 -1.0000
vn -0.0692 0.0045 -0.9976
vn -0.0793 0.0092 -0.9968
vn 0.0000 0.0092 -0.9999
vn 0.0692 0.0045 -0.9976
vn 0.0793 0.0092 -0.9968
vn 0.0000 -0.0084 -0.9999
vn -0.1104 -0.0083 -0.9938
vn -0.0923 -0.0061 -0.9957
vn 0.0000 -0.0063 -1.0000
vn -0.0701 -0.0032 -0.9975
vn 0.0000 -0.0033 -1.0000
vn -0.0623 -0.0008 -0.9980
vn 0.0000 -0.0008 -1.0000
vn 0.1104 -0.0083 -0.9938
vn 0.0923 -0.0061 -0.9957
vn 0.0701 -0.0032 -0.9975
vn 0.0623 -0.0008 -0.9980
usemtl feather_004
s 1
f 18//1 10//2 3//3 6//4
f 11//5 18//1 6//4 4//6
f 5//7 1//8 7//9 15//10
f 15//10 7//9 8//11 16//12
f 16//12 8//11 9//13 17//14
f 17//14 9//13 10//2 18//1
f 2//15 5//7 15//10 14//16
f 14//16 15//10 16//12 13//17
f 13//17 16//12 17//14 12//18
f 12//18 17//14 18//1 11//5
