# Blender v2.79 (sub 0) OBJ File: 'hen_base_mesh_BI.blend'
# www.blender.org
mtllib hen_feather_flight_tertiary_053.mtl
o feather_flight_tertiary_053
v 0.221109 0.246014 0.044109
v 0.216007 0.244292 0.044072
v 0.228082 0.223532 0.044040
v 0.224123 0.222199 0.043966
v 0.218169 0.246288 0.043570
v 0.226943 0.220369 0.043468
v 0.223774 0.242710 0.044105
v 0.226601 0.238190 0.044094
v 0.228450 0.233339 0.044084
v 0.228866 0.228003 0.044071
v 0.220783 0.225278 0.043965
v 0.217873 0.229770 0.043990
v 0.216396 0.234745 0.044019
v 0.215897 0.240051 0.044046
v 0.219832 0.241377 0.043551
v 0.221495 0.236465 0.043531
v 0.223158 0.231551 0.043512
v 0.224821 0.226638 0.043493
vn 0.0182 -0.0165 -0.9997
vn 0.1428 0.0273 -0.9893
vn 0.1921 0.0290 -0.9809
vn 0.0248 -0.0268 -0.9993
vn -0.1095 -0.0547 -0.9925
vn -0.1451 -0.0824 -0.9860
vn -0.0029 0.0295 -0.9995
vn 0.1445 0.0790 -0.9863
vn 0.1208 0.0635 -0.9906
vn -0.0009 0.0237 -0.9997
vn 0.0999 0.0445 -0.9940
vn 0.0033 0.0128 -0.9999
vn 0.1041 0.0322 -0.9940
vn 0.0090 0.0008 -0.9999
vn -0.1503 -0.0207 -0.9884
vn -0.1219 -0.0186 -0.9924
vn -0.0930 -0.0198 -0.9955
vn -0.0866 -0.0296 -0.9958
usemtl feather_002
s 1
f 18//1 10//2 3//3 6//4
f 11//5 18//1 6//4 4//6
f 5//7 1//8 7//9 15//10
f 15//10 7//9 8//11 16//12
f 16//12 8//11 9//13 17//14
f 17//14 9//13 10//2 18//1
f 2//15 5//7 15//10 14//16
f 14//16 15//10 16//12 13//17
f 13//17 16//12 17//14 12//18
f 12//18 17//14 18//1 11//5
