# Blender v2.79 (sub 0) OBJ File: 'hen_base_mesh_BI.blend'
# www.blender.org
mtllib hen_feather_tail_secondary_006.mtl
o feather_tail_secondary_006
v 0.029037 0.245234 -0.081785
v 0.017962 0.248627 -0.073579
v 0.025187 0.244590 -0.074437
v 0.030880 0.255229 -0.088949
v 0.031903 0.268662 -0.097257
v 0.012121 0.274722 -0.082601
v 0.014827 0.260147 -0.077056
v 0.024345 0.258594 -0.081363
v 0.023504 0.272598 -0.088290
v 0.029087 0.312488 -0.118767
v 0.031087 0.300145 -0.113807
v 0.031734 0.284330 -0.105709
v 0.010378 0.290873 -0.089887
v 0.009113 0.306877 -0.097527
v 0.009677 0.318434 -0.104388
v 0.020636 0.320327 -0.111897
v 0.021592 0.304417 -0.104028
v 0.022548 0.288508 -0.096159
vn 0.6246 0.3471 0.6995
vn 0.8130 0.2692 0.5163
vn 0.7892 0.2901 0.5413
vn 0.6243 0.3547 0.6960
vn 0.7609 0.3151 0.5671
vn 0.6237 0.3670 0.6901
vn 0.3893 0.3990 0.8302
vn 0.4248 0.4017 0.8113
vn 0.4635 0.4062 0.7875
vn 0.7498 0.3260 0.5758
vn 0.6234 0.3733 0.6870
vn 0.7495 0.3322 0.5725
vn 0.6230 0.3799 0.6838
vn 0.7524 0.3360 0.5665
vn 0.6226 0.3851 0.6812
vn 0.4779 0.4093 0.7772
vn 0.4773 0.4156 0.7742
vn 0.4727 0.4217 0.7738
usemtl feather_002
s 1
f 3//1 1//2 4//3 8//4
f 8//4 4//3 5//5 9//6
f 2//7 3//1 8//4 7//8
f 7//8 8//4 9//6 6//9
f 9//6 5//5 12//10 18//11
f 18//11 12//10 11//12 17//13
f 17//13 11//12 10//14 16//15
f 6//9 9//6 18//11 13//16
f 13//16 18//11 17//13 14//17
f 14//17 17//13 16//15 15//18
