# Blender v2.79 (sub 0) OBJ File: 'hen_base_mesh_BI.blend'
# www.blender.org
mtllib hen_feather_flight_tertiary_028.mtl
o feather_flight_tertiary_028
v 0.274392 0.247520 0.046211
v 0.271541 0.243559 0.046136
v 0.293292 0.233373 0.046423
v 0.290780 0.229856 0.046355
v 0.272003 0.246256 0.046689
v 0.294177 0.230056 0.046940
v 0.278395 0.246238 0.046268
v 0.283246 0.244068 0.046332
v 0.287591 0.241199 0.046384
v 0.291205 0.237319 0.046417
v 0.286411 0.230628 0.046288
v 0.281615 0.232885 0.046226
v 0.277549 0.236152 0.046182
v 0.273995 0.240124 0.046152
v 0.276206 0.243186 0.046737
v 0.280409 0.240115 0.046784
v 0.284612 0.237044 0.046832
v 0.288815 0.233973 0.046879
vn -0.0018 0.0196 -0.9998
vn -0.0814 -0.0938 -0.9922
vn -0.1163 -0.1186 -0.9861
vn -0.0099 0.0276 -0.9995
vn 0.0822 0.1304 -0.9880
vn 0.0948 0.1701 -0.9808
vn 0.0360 -0.0088 -0.9993
vn -0.0655 -0.1471 -0.9869
vn -0.0534 -0.1188 -0.9915
vn 0.0315 -0.0046 -0.9995
vn -0.0441 -0.0881 -0.9951
vn 0.0225 0.0023 -0.9997
vn -0.0510 -0.0788 -0.9956
vn 0.0128 0.0093 -0.9998
vn 0.1369 0.1304 -0.9819
vn 0.1139 0.1107 -0.9873
vn 0.0880 0.0931 -0.9918
vn 0.0772 0.0970 -0.9923
usemtl feather_002
s 1
f 18//1 10//2 3//3 6//4
f 11//5 18//1 6//4 4//6
f 5//7 1//8 7//9 15//10
f 15//10 7//9 8//11 16//12
f 16//12 8//11 9//13 17//14
f 17//14 9//13 10//2 18//1
f 2//15 5//7 15//10 14//16
f 14//16 15//10 16//12 13//17
f 13//17 16//12 17//14 12//18
f 12//18 17//14 18//1 11//5
