# Blender v2.79 (sub 0) OBJ File: 'hen_base_mesh_BI.blend'
# www.blender.org
mtllib hen_feather_flight_tertiary_015.mtl
o feather_flight_tertiary_015
v 0.176986 0.245513 0.046163
v 0.171656 0.244885 0.046173
v 0.178855 0.224118 0.046255
v 0.174825 0.223639 0.046258
v 0.174191 0.246286 0.046688
v 0.177120 0.221491 0.046791
v 0.178861 0.242073 0.046175
v 0.180434 0.237494 0.046193
v 0.180951 0.232790 0.046214
v 0.180370 0.227958 0.046236
v 0.172460 0.227020 0.046246
v 0.170770 0.231588 0.046230
v 0.170173 0.236284 0.046212
v 0.170634 0.241104 0.046190
v 0.174747 0.241586 0.046707
v 0.175304 0.236886 0.046727
v 0.175861 0.232186 0.046746
v 0.176416 0.227486 0.046766
vn -0.0038 0.0216 -0.9998
vn -0.1439 0.0017 -0.9896
vn -0.1901 0.0114 -0.9817
vn -0.0049 0.0338 -0.9994
vn 0.1370 0.0351 -0.9899
vn 0.1801 0.0551 -0.9821
vn 0.0020 -0.0316 -0.9995
vn -0.1531 -0.0496 -0.9870
vn -0.1279 -0.0375 -0.9911
vn 0.0010 -0.0240 -0.9997
vn -0.1062 -0.0222 -0.9941
vn -0.0005 -0.0101 -0.9999
vn -0.1084 -0.0105 -0.9940
vn -0.0019 0.0028 -1.0000
vn 0.1570 -0.0130 -0.9875
vn 0.1297 -0.0071 -0.9915
vn 0.1050 0.0029 -0.9944
vn 0.1047 0.0150 -0.9944
usemtl feather_002
s 1
f 18//1 10//2 3//3 6//4
f 11//5 18//1 6//4 4//6
f 5//7 1//8 7//9 15//10
f 15//10 7//9 8//11 16//12
f 16//12 8//11 9//13 17//14
f 17//14 9//13 10//2 18//1
f 2//15 5//7 15//10 14//16
f 14//16 15//10 16//12 13//17
f 13//17 16//12 17//14 12//18
f 12//18 17//14 18//1 11//5
