# Blender v2.79 (sub 0) OBJ File: 'hen_base_mesh_BI.blend'
# www.blender.org
mtllib hen_feather_flight_tertiary_018.mtl
o feather_flight_tertiary_018
v 0.200088 0.245704 0.046163
v 0.194446 0.244566 0.046173
v 0.203663 0.222964 0.046263
v 0.200026 0.222169 0.046265
v 0.197033 0.246285 0.046688
v 0.202336 0.220035 0.046799
v 0.202394 0.242191 0.046176
v 0.204584 0.237456 0.046195
v 0.205486 0.232473 0.046217
v 0.205013 0.227218 0.046243
v 0.197162 0.225565 0.046252
v 0.194666 0.230259 0.046235
v 0.193514 0.235220 0.046216
v 0.193684 0.240434 0.046192
v 0.198039 0.241310 0.046709
v 0.199063 0.236338 0.046730
v 0.200093 0.231366 0.046751
v 0.201097 0.226391 0.046772
vn -0.0070 0.0234 -0.9997
vn -0.1426 -0.0074 -0.9897
vn -0.1975 -0.0023 -0.9803
vn -0.0064 0.0360 -0.9993
vn 0.1318 0.0477 -0.9901
vn 0.1807 0.0720 -0.9809
vn 0.0042 -0.0296 -0.9995
vn -0.1387 -0.0581 -0.9886
vn -0.1154 -0.0455 -0.9922
vn 0.0029 -0.0230 -0.9997
vn -0.0961 -0.0292 -0.9949
vn 0.0000 -0.0099 -0.9999
vn -0.1011 -0.0170 -0.9947
vn -0.0029 0.0041 -1.0000
vn 0.1470 -0.0004 -0.9891
vn 0.1203 0.0024 -0.9927
vn 0.0960 0.0104 -0.9953
vn 0.0959 0.0236 -0.9951
usemtl feather_002
s 1
f 18//1 10//2 3//3 6//4
f 11//5 18//1 6//4 4//6
f 5//7 1//8 7//9 15//10
f 15//10 7//9 8//11 16//12
f 16//12 8//11 9//13 17//14
f 17//14 9//13 10//2 18//1
f 2//15 5//7 15//10 14//16
f 14//16 15//10 16//12 13//17
f 13//17 16//12 17//14 12//18
f 12//18 17//14 18//1 11//5
