# Blender v2.79 (sub 0) OBJ File: 'hen_base_mesh_BI.blend'
# www.blender.org
mtllib hen_feather_flight_tertiary_060.mtl
o feather_flight_tertiary_060
v 0.274392 0.247520 0.044046
v 0.271541 0.243559 0.044121
v 0.293289 0.233369 0.043800
v 0.290776 0.229851 0.043937
v 0.272003 0.246256 0.043568
v 0.294177 0.230056 0.043317
v 0.278395 0.246238 0.043990
v 0.283246 0.244068 0.043925
v 0.287590 0.241198 0.043859
v 0.291203 0.237316 0.043803
v 0.286408 0.230625 0.044007
v 0.281614 0.232884 0.044045
v 0.277549 0.236152 0.044075
v 0.273995 0.240124 0.044105
v 0.276206 0.243186 0.043521
v 0.280409 0.240115 0.043473
v 0.284612 0.237043 0.043426
v 0.288814 0.233973 0.043378
vn -0.0032 -0.0264 -0.9996
vn 0.0748 0.0889 -0.9932
vn 0.1080 0.1104 -0.9880
vn 0.0026 -0.0376 -0.9993
vn -0.0849 -0.1380 -0.9868
vn -0.1000 -0.1802 -0.9785
vn -0.0360 0.0088 -0.9993
vn 0.0655 0.1471 -0.9869
vn 0.0534 0.1188 -0.9915
vn -0.0315 0.0046 -0.9995
vn 0.0431 0.0879 -0.9952
vn -0.0229 -0.0028 -0.9997
vn 0.0474 0.0773 -0.9958
vn -0.0149 -0.0121 -0.9998
vn -0.1369 -0.1304 -0.9819
vn -0.1139 -0.1107 -0.9873
vn -0.0879 -0.0941 -0.9917
vn -0.0775 -0.1008 -0.9919
usemtl feather_002
s 1
f 18//1 10//2 3//3 6//4
f 11//5 18//1 6//4 4//6
f 5//7 1//8 7//9 15//10
f 15//10 7//9 8//11 16//12
f 16//12 8//11 9//13 17//14
f 17//14 9//13 10//2 18//1
f 2//15 5//7 15//10 14//16
f 14//16 15//10 16//12 13//17
f 13//17 16//12 17//14 12//18
f 12//18 17//14 18//1 11//5
