# Blender v2.79 (sub 0) OBJ File: 'hen_base_mesh_BI.blend'
# www.blender.org
mtllib hen_feather_flight_secondary_031.mtl
o feather_flight_secondary_031
v 0.288370 0.249376 0.044580
v 0.284596 0.240595 0.044756
v 0.346318 0.223865 0.044202
v 0.343125 0.215796 0.044508
v 0.283519 0.246288 0.044156
v 0.351180 0.216898 0.043791
v 0.299248 0.247484 0.044479
v 0.312936 0.243920 0.044369
v 0.326275 0.239555 0.044273
v 0.338239 0.232212 0.044187
v 0.331537 0.216082 0.044631
v 0.317712 0.219605 0.044679
v 0.305384 0.226350 0.044721
v 0.293421 0.233928 0.044750
v 0.296344 0.240717 0.044087
v 0.309169 0.235146 0.044018
v 0.322018 0.229621 0.043949
v 0.334914 0.224193 0.043882
vn -0.0063 -0.0242 -0.9997
vn 0.0176 0.0389 -0.9991
vn 0.0295 0.0507 -0.9983
vn -0.0049 -0.0318 -0.9995
vn -0.0318 -0.0867 -0.9957
vn -0.0379 -0.1110 -0.9931
vn -0.0203 -0.0108 -0.9997
vn 0.0150 0.0706 -0.9974
vn 0.0113 0.0557 -0.9984
vn -0.0183 -0.0119 -0.9998
vn 0.0073 0.0383 -0.9992
vn -0.0151 -0.0135 -0.9998
vn 0.0080 0.0321 -0.9995
vn -0.0115 -0.0168 -0.9998
vn -0.0556 -0.0923 -0.9942
vn -0.0473 -0.0795 -0.9957
vn -0.0373 -0.0651 -0.9972
vn -0.0310 -0.0653 -0.9974
usemtl feather_003
s 1
f 18//1 10//2 3//3 6//4
f 11//5 18//1 6//4 4//6
f 5//7 1//8 7//9 15//10
f 15//10 7//9 8//11 16//12
f 16//12 8//11 9//13 17//14
f 17//14 9//13 10//2 18//1
f 2//15 5//7 15//10 14//16
f 14//16 15//10 16//12 13//17
f 13//17 16//12 17//14 12//18
f 12//18 17//14 18//1 11//5
