# Blender v2.79 (sub 0) OBJ File: 'hen_base_mesh_BI.blend'
# www.blender.org
mtllib hen_feather_flight_tertiary_017.mtl
o feather_flight_tertiary_017
v 0.192947 0.245487 0.046162
v 0.187928 0.244906 0.046178
v 0.194828 0.223890 0.046298
v 0.191056 0.223456 0.046311
v 0.190308 0.246293 0.046688
v 0.193223 0.221261 0.046844
v 0.194736 0.242001 0.046181
v 0.196237 0.237365 0.046207
v 0.196732 0.232613 0.046237
v 0.196208 0.227743 0.046270
v 0.188828 0.226892 0.046294
v 0.187200 0.231511 0.046267
v 0.186591 0.236249 0.046238
v 0.186987 0.241104 0.046205
v 0.190860 0.241548 0.046718
v 0.191413 0.236803 0.046747
v 0.191965 0.232058 0.046777
v 0.192518 0.227314 0.046807
vn -0.0053 0.0191 -0.9998
vn -0.1559 -0.0014 -0.9878
vn -0.2044 0.0074 -0.9789
vn -0.0069 0.0310 -0.9995
vn 0.1459 0.0337 -0.9887
vn 0.1913 0.0535 -0.9800
vn 0.0009 -0.0336 -0.9994
vn -0.1635 -0.0522 -0.9851
vn -0.1373 -0.0403 -0.9897
vn -0.0000 -0.0260 -0.9996
vn -0.1142 -0.0247 -0.9931
vn -0.0017 -0.0121 -0.9999
vn -0.1170 -0.0130 -0.9930
vn -0.0032 0.0007 -1.0000
vn 0.1653 -0.0140 -0.9861
vn 0.1369 -0.0084 -0.9905
vn 0.1107 0.0014 -0.9938
vn 0.1108 0.0134 -0.9937
usemtl feather_002
s 1
f 18//1 10//2 3//3 6//4
f 11//5 18//1 6//4 4//6
f 5//7 1//8 7//9 15//10
f 15//10 7//9 8//11 16//12
f 16//12 8//11 9//13 17//14
f 17//14 9//13 10//2 18//1
f 2//15 5//7 15//10 14//16
f 14//16 15//10 16//12 13//17
f 13//17 16//12 17//14 12//18
f 12//18 17//14 18//1 11//5
