# Blender v2.79 (sub 0) OBJ File: 'hen_base_mesh_BI.blend'
# www.blender.org
mtllib hen_feather_flight_secondary_027.mtl
o feather_flight_secondary_027
v 0.226763 0.246067 0.044682
v 0.219097 0.242193 0.044654
v 0.247698 0.203321 0.044379
v 0.240808 0.200161 0.044340
v 0.221834 0.246288 0.044159
v 0.246762 0.197067 0.043800
v 0.232477 0.239953 0.044638
v 0.238948 0.231505 0.044576
v 0.243960 0.222246 0.044512
v 0.247048 0.211969 0.044443
v 0.234041 0.205752 0.044380
v 0.227820 0.214220 0.044447
v 0.223619 0.223760 0.044519
v 0.220642 0.233973 0.044594
v 0.226559 0.236958 0.044091
v 0.231260 0.227614 0.044023
v 0.235832 0.218193 0.043955
v 0.240510 0.208836 0.043887
vn 0.0046 -0.0027 -1.0000
vn 0.0765 0.0350 -0.9964
vn 0.0995 0.0410 -0.9942
vn 0.0109 -0.0056 -0.9999
vn -0.0660 -0.0374 -0.9971
vn -0.0828 -0.0548 -0.9951
vn -0.0057 0.0184 -0.9998
vn 0.0821 0.0627 -0.9946
vn 0.0684 0.0519 -0.9963
vn -0.0043 0.0157 -0.9998
vn 0.0555 0.0387 -0.9977
vn -0.0016 0.0107 -0.9999
vn 0.0566 0.0326 -0.9979
vn 0.0008 0.0052 -1.0000
vn -0.0934 -0.0261 -0.9953
vn -0.0767 -0.0214 -0.9968
vn -0.0589 -0.0178 -0.9981
vn -0.0547 -0.0217 -0.9983
usemtl feather_003
s 1
f 18//1 10//2 3//3 6//4
f 11//5 18//1 6//4 4//6
f 5//7 1//8 7//9 15//10
f 15//10 7//9 8//11 16//12
f 16//12 8//11 9//13 17//14
f 17//14 9//13 10//2 18//1
f 2//15 5//7 15//10 14//16
f 14//16 15//10 16//12 13//17
f 13//17 16//12 17//14 12//18
f 12//18 17//14 18//1 11//5
