# Blender v2.79 (sub 0) OBJ File: 'hen_base_mesh_BI.blend'
# www.blender.org
mtllib hen_feather_flight_tertiary_005.mtl
o feather_flight_tertiary_005
v 0.102227 0.245333 0.046163
v 0.096676 0.245236 0.046163
v 0.101296 0.225714 0.046163
v 0.098340 0.225581 0.046163
v 0.099434 0.246288 0.046687
v 0.099833 0.223451 0.046687
v 0.103794 0.242034 0.046163
v 0.104947 0.237727 0.046163
v 0.104761 0.233413 0.046163
v 0.103268 0.229080 0.046163
v 0.096288 0.228866 0.046163
v 0.094631 0.233191 0.046163
v 0.094242 0.237534 0.046163
v 0.095225 0.241885 0.046163
v 0.099512 0.241959 0.046687
v 0.099618 0.237630 0.046687
v 0.099721 0.233302 0.046687
v 0.099791 0.228973 0.046687
vn -0.0028 0.0376 -0.9993
vn -0.1600 0.0305 -0.9866
vn -0.2303 0.0500 -0.9718
vn 0.0020 0.0533 -0.9986
vn 0.1582 0.0346 -0.9868
vn 0.2259 0.0537 -0.9727
vn 0.0005 -0.0301 -0.9995
vn -0.1505 -0.0324 -0.9881
vn -0.1246 -0.0222 -0.9919
vn 0.0004 -0.0217 -0.9998
vn -0.1042 -0.0068 -0.9945
vn -0.0003 -0.0050 -1.0000
vn -0.1100 0.0092 -0.9939
vn -0.0011 0.0128 -0.9999
vn 0.1514 -0.0271 -0.9881
vn 0.1249 -0.0172 -0.9920
vn 0.1036 -0.0021 -0.9946
vn 0.1086 0.0135 -0.9940
usemtl feather_002
s 1
f 18//1 10//2 3//3 6//4
f 11//5 18//1 6//4 4//6
f 5//7 1//8 7//9 15//10
f 15//10 7//9 8//11 16//12
f 16//12 8//11 9//13 17//14
f 17//14 9//13 10//2 18//1
f 2//15 5//7 15//10 14//16
f 14//16 15//10 16//12 13//17
f 13//17 16//12 17//14 12//18
f 12//18 17//14 18//1 11//5
