# Blender v2.79 (sub 0) OBJ File: 'hen_base_mesh_BI.blend'
# www.blender.org
mtllib hen_feather_flight_tertiary_046.mtl
o feather_flight_tertiary_046
v 0.170453 0.245653 0.044094
v 0.164568 0.244651 0.044090
v 0.173607 0.223404 0.044057
v 0.169100 0.222447 0.044040
v 0.167317 0.246287 0.043570
v 0.171719 0.220430 0.043519
v 0.172694 0.242160 0.044088
v 0.174782 0.237477 0.044080
v 0.175719 0.232634 0.044073
v 0.175262 0.227570 0.044067
v 0.166251 0.225821 0.044045
v 0.164084 0.230554 0.044057
v 0.163221 0.235498 0.044070
v 0.163608 0.240614 0.044081
v 0.168151 0.241386 0.043560
v 0.169050 0.236492 0.043551
v 0.169957 0.231599 0.043541
v 0.170786 0.226697 0.043531
vn 0.0089 -0.0223 -0.9997
vn 0.1272 0.0001 -0.9919
vn 0.1720 -0.0099 -0.9850
vn 0.0045 -0.0352 -0.9994
vn -0.1152 -0.0383 -0.9926
vn -0.1519 -0.0579 -0.9867
vn -0.0040 0.0279 -0.9996
vn 0.1346 0.0512 -0.9896
vn 0.1117 0.0396 -0.9930
vn -0.0030 0.0211 -0.9998
vn 0.0924 0.0247 -0.9954
vn 0.0001 0.0086 -0.9999
vn 0.0951 0.0125 -0.9954
vn 0.0035 -0.0039 -1.0000
vn -0.1426 0.0040 -0.9897
vn -0.1163 -0.0002 -0.9932
vn -0.0921 -0.0085 -0.9957
vn -0.0894 -0.0193 -0.9958
usemtl feather_002
s 1
f 18//1 10//2 3//3 6//4
f 11//5 18//1 6//4 4//6
f 5//7 1//8 7//9 15//10
f 15//10 7//9 8//11 16//12
f 16//12 8//11 9//13 17//14
f 17//14 9//13 10//2 18//1
f 2//15 5//7 15//10 14//16
f 14//16 15//10 16//12 13//17
f 13//17 16//12 17//14 12//18
f 12//18 17//14 18//1 11//5
