# Blender v2.79 (sub 0) OBJ File: 'hen_base_mesh_BI.blend'
# www.blender.org
mtllib hen_feather_flight_tertiary_063.mtl
o feather_flight_tertiary_063
v 0.299234 0.247500 0.044057
v 0.297985 0.244132 0.044112
v 0.321906 0.238705 0.043830
v 0.320827 0.235770 0.043929
v 0.297455 0.246262 0.043568
v 0.323921 0.236285 0.043330
v 0.303427 0.246964 0.044008
v 0.308726 0.245834 0.043950
v 0.313787 0.244067 0.043891
v 0.318535 0.241463 0.043839
v 0.316491 0.235919 0.043989
v 0.311206 0.237096 0.044028
v 0.306233 0.239111 0.044059
v 0.301498 0.241763 0.044092
v 0.302472 0.244371 0.043523
v 0.307488 0.242480 0.043478
v 0.312505 0.240588 0.043433
v 0.317522 0.238697 0.043387
vn 0.0042 -0.0259 -0.9996
vn 0.0693 0.1566 -0.9852
vn 0.0980 0.1979 -0.9753
vn 0.0117 -0.0359 -0.9993
vn -0.0640 -0.2065 -0.9763
vn -0.0726 -0.2603 -0.9628
vn -0.0356 -0.0013 -0.9994
vn 0.0465 0.2147 -0.9756
vn 0.0391 0.1769 -0.9834
vn -0.0301 -0.0037 -0.9995
vn 0.0337 0.1340 -0.9904
vn -0.0200 -0.0089 -0.9998
vn 0.0410 0.1244 -0.9914
vn -0.0099 -0.0158 -0.9998
vn -0.1156 -0.2168 -0.9693
vn -0.0967 -0.1843 -0.9781
vn -0.0726 -0.1517 -0.9857
vn -0.0612 -0.1556 -0.9859
usemtl feather_002
s 1
f 18//1 10//2 3//3 6//4
f 11//5 18//1 6//4 4//6
f 5//7 1//8 7//9 15//10
f 15//10 7//9 8//11 16//12
f 16//12 8//11 9//13 17//14
f 17//14 9//13 10//2 18//1
f 2//15 5//7 15//10 14//16
f 14//16 15//10 16//12 13//17
f 13//17 16//12 17//14 12//18
f 12//18 17//14 18//1 11//5
