# Blender v2.79 (sub 0) OBJ File: 'lizard_base_mesh_BI.blend'
# www.blender.org
mtllib lizard_eye.mtl
o eye
v 0.008468 0.029035 0.048370
v 0.007893 0.029775 0.048233
v 0.007090 0.030232 0.048030
v 0.006181 0.030338 0.047790
v 0.005304 0.030076 0.047549
v 0.004593 0.029486 0.047346
v 0.004156 0.028658 0.047210
v 0.008565 0.028973 0.048027
v 0.008074 0.029659 0.047600
v 0.007326 0.030082 0.047202
v 0.006437 0.030175 0.046893
v 0.005540 0.029925 0.046721
v 0.004774 0.029371 0.046712
v 0.004254 0.028595 0.046867
v 0.008661 0.028779 0.047736
v 0.008250 0.029302 0.047062
v 0.007556 0.029614 0.046500
v 0.006685 0.029669 0.046133
v 0.005770 0.029458 0.046019
v 0.004950 0.029013 0.046175
v 0.004349 0.028402 0.046576
v 0.004059 0.027718 0.047162
v 0.008739 0.028484 0.047541
v 0.008394 0.028756 0.046703
v 0.007745 0.028901 0.046030
v 0.006889 0.028897 0.045625
v 0.005959 0.028745 0.045550
v 0.005094 0.028467 0.045816
v 0.004427 0.028106 0.046382
v 0.008788 0.028132 0.047473
v 0.008485 0.028105 0.046577
v 0.007863 0.028051 0.045866
v 0.007018 0.027977 0.045447
v 0.006077 0.027894 0.045385
v 0.005185 0.027816 0.045689
v 0.004476 0.027754 0.046313
v 0.008801 0.027776 0.047541
v 0.008508 0.027448 0.046703
v 0.007894 0.027193 0.046030
v 0.007051 0.027048 0.045625
v 0.006108 0.027036 0.045550
v 0.005208 0.027160 0.045816
v 0.004489 0.027399 0.046382
v 0.008726 0.028126 0.048417
v 0.008775 0.027472 0.047736
v 0.008461 0.026886 0.047062
v 0.007832 0.026458 0.046500
v 0.006984 0.026252 0.046133
v 0.006046 0.026301 0.046019
v 0.005161 0.026597 0.046175
v 0.004463 0.027094 0.046576
v 0.008715 0.027264 0.048027
v 0.008350 0.026503 0.047600
v 0.007687 0.025957 0.047202
v 0.006827 0.025711 0.046893
v 0.005901 0.025801 0.046721
v 0.005050 0.026214 0.046712
v 0.004403 0.026887 0.046867
v 0.008630 0.027186 0.048370
v 0.008192 0.026358 0.048233
v 0.007481 0.025768 0.048030
v 0.006604 0.025506 0.047790
v 0.005695 0.025612 0.047549
v 0.004892 0.026069 0.047346
v 0.004318 0.026809 0.047210
v 0.008532 0.027248 0.048713
v 0.008012 0.026473 0.048867
v 0.007245 0.025919 0.048858
v 0.006349 0.025669 0.048686
v 0.005459 0.025762 0.048378
v 0.004711 0.026185 0.047980
v 0.004220 0.026871 0.047553
v 0.008437 0.027442 0.049003
v 0.007836 0.026831 0.049405
v 0.007015 0.026386 0.049560
v 0.006100 0.026175 0.049446
v 0.005229 0.026230 0.049080
v 0.004536 0.026542 0.048517
v 0.004125 0.027065 0.047844
v 0.008359 0.027737 0.049198
v 0.007691 0.027377 0.049764
v 0.006827 0.027099 0.050029
v 0.005896 0.026947 0.049954
v 0.005041 0.026943 0.049549
v 0.004391 0.027088 0.048876
v 0.004047 0.027360 0.048038
v 0.008309 0.028090 0.049266
v 0.007601 0.028028 0.049890
v 0.006708 0.027950 0.050194
v 0.005767 0.027867 0.050132
v 0.004922 0.027793 0.049714
v 0.004300 0.027739 0.049002
v 0.003997 0.027712 0.048106
v 0.008297 0.028445 0.049198
v 0.007577 0.028684 0.049764
v 0.006677 0.028808 0.050029
v 0.005734 0.028796 0.049954
v 0.004891 0.028651 0.049549
v 0.004277 0.028396 0.048876
v 0.003985 0.028068 0.048038
v 0.008322 0.028750 0.049003
v 0.007624 0.029247 0.049405
v 0.006739 0.029543 0.049560
v 0.005801 0.029592 0.049446
v 0.004953 0.029386 0.049080
v 0.004324 0.028958 0.048517
v 0.004010 0.028372 0.047844
v 0.008382 0.028957 0.048713
v 0.007736 0.029630 0.048867
v 0.006884 0.030043 0.048858
v 0.005958 0.030133 0.048686
v 0.005098 0.029887 0.048378
v 0.004435 0.029341 0.047980
v 0.004070 0.028579 0.047553
vn -0.9622 -0.0842 -0.2588
vn -0.9157 0.3245 -0.2369
vn -0.8733 0.2974 -0.3858
vn -0.7316 0.6576 -0.1799
vn -0.4410 0.8922 -0.0969
vn -0.3434 0.8299 -0.4396
vn -0.6558 0.6093 -0.4456
vn -0.0871 0.9962 0.0000
vn 0.2794 0.9553 0.0969
vn 0.3771 0.8929 -0.2459
vn 0.0181 0.9290 -0.3696
vn 0.6063 0.7746 0.1799
vn 0.8455 0.4786 0.2369
vn 0.8879 0.4515 0.0878
vn 0.6819 0.7263 -0.0858
vn 0.9622 0.0842 0.2588
vn -0.5821 0.4593 -0.6709
vn -0.8319 0.2133 -0.5122
vn 0.1207 0.7204 -0.6830
vn -0.2483 0.6365 -0.7302
vn 0.7557 0.5763 -0.3110
vn 0.4721 0.6995 -0.5364
vn 0.9293 0.3674 -0.0385
vn 0.2048 0.4021 -0.8924
vn -0.1703 0.3413 -0.9244
vn 0.8162 0.3475 -0.4616
vn 0.5502 0.4043 -0.7306
vn 0.9632 0.2391 -0.1228
vn -0.7980 0.0850 -0.5966
vn -0.5216 0.2305 -0.8214
vn -0.7767 -0.0679 -0.6262
vn -0.1211 -0.0106 -0.9926
vn -0.4836 -0.0423 -0.8743
vn 0.5993 0.0524 -0.7988
vn 0.2578 0.0226 -0.9659
vn 0.9845 0.0861 -0.1525
vn 0.8542 0.0747 -0.5144
vn 0.6120 -0.3027 -0.7306
vn 0.2716 -0.3604 -0.8924
vn 0.9901 -0.0682 -0.1228
vn 0.8641 -0.2005 -0.4616
vn -0.4737 -0.3176 -0.8214
vn -0.7711 -0.2223 -0.5966
vn -0.1084 -0.3657 -0.9244
vn -0.4935 -0.5534 -0.6709
vn -0.7823 -0.3545 -0.5122
vn 0.2439 -0.6884 -0.6830
vn -0.1340 -0.6699 -0.7302
vn 0.8443 -0.4364 -0.3110
vn 0.5864 -0.6069 -0.5364
vn 0.9789 -0.2004 -0.0385
vn 0.7977 -0.5969 -0.0858
vn 0.5264 -0.8139 -0.2459
vn 0.9528 -0.2904 0.0878
vn -0.8084 -0.4445 -0.3858
vn -0.1941 -0.8769 -0.4396
vn -0.5401 -0.7139 -0.4456
vn 0.1792 -0.9117 -0.3696
vn -0.8455 -0.4786 -0.2369
vn -0.2794 -0.9553 -0.0969
vn -0.6063 -0.7746 -0.1799
vn 0.4410 -0.8922 0.0969
vn 0.0871 -0.9962 0.0000
vn 0.9157 -0.3245 0.2369
vn 0.7316 -0.6576 0.1799
vn 0.8733 -0.2974 0.3858
vn 0.6558 -0.6093 0.4456
vn -0.6819 -0.7263 0.0858
vn -0.8879 -0.4515 -0.0878
vn -0.0181 -0.9290 0.3696
vn -0.3771 -0.8929 0.2459
vn 0.3434 -0.8299 0.4396
vn -0.7557 -0.5763 0.3110
vn -0.9293 -0.3674 0.0385
vn -0.1207 -0.7204 0.6830
vn -0.4721 -0.6995 0.5364
vn 0.5821 -0.4593 0.6709
vn 0.2483 -0.6365 0.7302
vn 0.8319 -0.2133 0.5122
vn 0.7980 -0.0850 0.5966
vn -0.9632 -0.2391 0.1228
vn -0.5502 -0.4043 0.7306
vn -0.8162 -0.3475 0.4616
vn 0.1703 -0.3413 0.9244
vn -0.2048 -0.4021 0.8924
vn 0.5216 -0.2305 0.8214
vn -0.5993 -0.0524 0.7988
vn -0.8542 -0.0747 0.5144
vn 0.1211 0.0106 0.9926
vn -0.2578 -0.0226 0.9659
vn 0.7767 0.0679 0.6262
vn 0.4836 0.0423 0.8743
vn -0.9845 -0.0861 0.1525
vn -0.8641 0.2005 0.4616
vn -0.9901 0.0682 0.1228
vn -0.2716 0.3604 0.8924
vn -0.6120 0.3027 0.7306
vn 0.4737 0.3176 0.8214
vn 0.1084 0.3657 0.9244
vn 0.7711 0.2223 0.5966
vn -0.2439 0.6884 0.6830
vn -0.5864 0.6069 0.5364
vn 0.4935 0.5534 0.6709
vn 0.1340 0.6699 0.7302
vn 0.7823 0.3545 0.5122
vn -0.9789 0.2004 0.0385
vn -0.8443 0.4364 0.3110
vn -0.9528 0.2904 -0.0878
vn -0.5264 0.8139 0.2459
vn -0.7977 0.5969 0.0858
vn 0.1941 0.8769 0.4396
vn -0.1792 0.9117 0.3696
vn 0.8084 0.4445 0.3858
vn 0.5401 0.7139 0.4456
usemtl eyes
s 1
f 22//1 7//2 14//3
f 6//4 5//5 12//6 13//7
f 4//8 3//9 10//10 11//11
f 2//12 1//13 8//14 9//15
f 7//2 6//4 13//7 14//3
f 5//5 4//8 11//11 12//6
f 3//9 2//12 9//15 10//10
f 1//13 44//16 8//14
f 14//3 13//7 20//17 21//18
f 12//6 11//11 18//19 19//20
f 10//10 9//15 16//21 17//22
f 8//14 44//16 15//23
f 22//1 14//3 21//18
f 13//7 12//6 19//20 20//17
f 11//11 10//10 17//22 18//19
f 9//15 8//14 15//23 16//21
f 19//20 18//19 26//24 27//25
f 17//22 16//21 24//26 25//27
f 15//23 44//16 23//28
f 22//1 21//18 29//29
f 20//17 19//20 27//25 28//30
f 18//19 17//22 25//27 26//24
f 16//21 15//23 23//28 24//26
f 21//18 20//17 28//30 29//29
f 22//1 29//29 36//31
f 28//30 27//25 34//32 35//33
f 26//24 25//27 32//34 33//35
f 24//26 23//28 30//36 31//37
f 29//29 28//30 35//33 36//31
f 27//25 26//24 33//35 34//32
f 25//27 24//26 31//37 32//34
f 23//28 44//16 30//36
f 33//35 32//34 39//38 40//39
f 31//37 30//36 37//40 38//41
f 36//31 35//33 42//42 43//43
f 34//32 33//35 40//39 41//44
f 32//34 31//37 38//41 39//38
f 30//36 44//16 37//40
f 22//1 36//31 43//43
f 35//33 34//32 41//44 42//42
f 43//43 42//42 50//45 51//46
f 41//44 40//39 48//47 49//48
f 39//38 38//41 46//49 47//50
f 37//40 44//16 45//51
f 22//1 43//43 51//46
f 42//42 41//44 49//48 50//45
f 40//39 39//38 47//50 48//47
f 38//41 37//40 45//51 46//49
f 47//50 46//49 53//52 54//53
f 45//51 44//16 52//54
f 22//1 51//46 58//55
f 50//45 49//48 56//56 57//57
f 48//47 47//50 54//53 55//58
f 46//49 45//51 52//54 53//52
f 51//46 50//45 57//57 58//55
f 49//48 48//47 55//58 56//56
f 22//1 58//55 65//59
f 57//57 56//56 63//60 64//61
f 55//58 54//53 61//62 62//63
f 53//52 52//54 59//64 60//65
f 58//55 57//57 64//61 65//59
f 56//56 55//58 62//63 63//60
f 54//53 53//52 60//65 61//62
f 52//54 44//16 59//64
f 60//65 59//64 66//66 67//67
f 65//59 64//61 71//68 72//69
f 63//60 62//63 69//70 70//71
f 61//62 60//65 67//67 68//72
f 59//64 44//16 66//66
f 22//1 65//59 72//69
f 64//61 63//60 70//71 71//68
f 62//63 61//62 68//72 69//70
f 72//69 71//68 78//73 79//74
f 70//71 69//70 76//75 77//76
f 68//72 67//67 74//77 75//78
f 66//66 44//16 73//79
f 22//1 72//69 79//74
f 71//68 70//71 77//76 78//73
f 69//70 68//72 75//78 76//75
f 67//67 66//66 73//79 74//77
f 73//79 44//16 80//80
f 22//1 79//74 86//81
f 78//73 77//76 84//82 85//83
f 76//75 75//78 82//84 83//85
f 74//77 73//79 80//80 81//86
f 79//74 78//73 85//83 86//81
f 77//76 76//75 83//85 84//82
f 75//78 74//77 81//86 82//84
f 85//83 84//82 91//87 92//88
f 83//85 82//84 89//89 90//90
f 81//86 80//80 87//91 88//92
f 86//81 85//83 92//88 93//93
f 84//82 83//85 90//90 91//87
f 82//84 81//86 88//92 89//89
f 80//80 44//16 87//91
f 22//1 86//81 93//93
f 93//93 92//88 99//94 100//95
f 91//87 90//90 97//96 98//97
f 89//89 88//92 95//98 96//99
f 87//91 44//16 94//100
f 22//1 93//93 100//95
f 92//88 91//87 98//97 99//94
f 90//90 89//89 96//99 97//96
f 88//92 87//91 94//100 95//98
f 98//97 97//96 104//101 105//102
f 96//99 95//98 102//103 103//104
f 94//100 44//16 101//105
f 22//1 100//95 107//106
f 99//94 98//97 105//102 106//107
f 97//96 96//99 103//104 104//101
f 95//98 94//100 101//105 102//103
f 100//95 99//94 106//107 107//106
f 22//1 107//106 114//108
f 106//107 105//102 112//109 113//110
f 104//101 103//104 110//111 111//112
f 102//103 101//105 108//113 109//114
f 107//106 106//107 113//110 114//108
f 105//102 104//101 111//112 112//109
f 103//104 102//103 109//114 110//111
f 101//105 44//16 108//113
f 111//112 110//111 3//9 4//8
f 109//114 108//113 1//13 2//12
f 114//108 113//110 6//4 7//2
f 112//109 111//112 4//8 5//5
f 110//111 109//114 2//12 3//9
f 108//113 44//16 1//13
f 22//1 114//108 7//2
f 113//110 112//109 5//5 6//4
