# Blender v2.79 (sub 0) OBJ File: 'lovebird_base_mesh_BI.blend'
# www.blender.org
mtllib lovebird_feather_flight_primary_015.001.mtl
o feather_flight_primary_015.001
v -0.210924 0.057824 0.020476
v -0.212227 0.054898 0.020476
v -0.180701 0.045008 0.020476
v -0.182479 0.041014 0.020476
v -0.213108 0.057044 0.020636
v -0.178235 0.041517 0.020636
v -0.205492 0.056359 0.020476
v -0.198584 0.054085 0.020476
v -0.191784 0.051569 0.020476
v -0.185227 0.048507 0.020476
v -0.188108 0.042036 0.020476
v -0.194771 0.044860 0.020476
v -0.201191 0.048230 0.020476
v -0.207503 0.051842 0.020476
v -0.206498 0.054101 0.020636
v -0.199888 0.051158 0.020636
v -0.193277 0.048215 0.020636
v -0.186667 0.045271 0.020636
vn -0.0027 0.0012 -1.0000
vn -0.0232 -0.0456 -0.9987
vn -0.0291 -0.0519 -0.9982
vn -0.0049 0.0022 -1.0000
vn 0.0183 0.0478 -0.9987
vn 0.0191 0.0563 -0.9982
vn 0.0050 -0.0022 -1.0000
vn -0.0277 -0.0758 -0.9967
vn -0.0237 -0.0632 -0.9977
vn 0.0038 -0.0017 -1.0000
vn -0.0188 -0.0475 -0.9987
vn 0.0020 -0.0009 -1.0000
vn -0.0179 -0.0417 -0.9990
vn 0.0005 -0.0002 -1.0000
vn 0.0378 0.0713 -0.9967
vn 0.0311 0.0599 -0.9977
vn 0.0227 0.0458 -0.9987
vn 0.0189 0.0412 -0.9990
usemtl feather_005
s 1
f 18//1 10//2 3//3 6//4
f 11//5 18//1 6//4 4//6
f 5//7 1//8 7//9 15//10
f 15//10 7//9 8//11 16//12
f 16//12 8//11 9//13 17//14
f 17//14 9//13 10//2 18//1
f 2//15 5//7 15//10 14//16
f 14//16 15//10 16//12 13//17
f 13//17 16//12 17//14 12//18
f 12//18 17//14 18//1 11//5
