# Blender v2.79 (sub 0) OBJ File: 'lovebird_base_mesh_BI.blend'
# www.blender.org
mtllib lovebird_feather_flight_tertiary_041.001.mtl
o feather_flight_tertiary_041.001
v -0.259496 0.056797 0.020249
v -0.261177 0.056680 0.020249
v -0.258772 0.050846 0.020249
v -0.261066 0.050685 0.020249
v -0.260358 0.057044 0.020089
v -0.259872 0.050097 0.020089
v -0.258969 0.055818 0.020249
v -0.258492 0.054528 0.020249
v -0.258155 0.053228 0.020249
v -0.258131 0.051907 0.020249
v -0.261848 0.051647 0.020249
v -0.262008 0.052959 0.020249
v -0.261855 0.054293 0.020249
v -0.261563 0.055636 0.020249
v -0.260266 0.055727 0.020089
v -0.260174 0.054410 0.020089
v -0.260082 0.053094 0.020089
v -0.259990 0.051777 0.020089
vn 0.0011 -0.0159 -0.9998
vn 0.0951 -0.0058 -0.9954
vn 0.1139 -0.0217 -0.9932
vn 0.0021 -0.0298 -0.9995
vn -0.0934 -0.0190 -0.9954
vn -0.1097 -0.0374 -0.9932
vn -0.0021 0.0301 -0.9995
vn 0.1493 0.0403 -0.9879
vn 0.1221 0.0296 -0.9921
vn -0.0016 0.0228 -0.9997
vn 0.0949 0.0180 -0.9953
vn -0.0008 0.0119 -0.9999
vn 0.0856 0.0088 -0.9963
vn -0.0002 0.0030 -1.0000
vn -0.1535 0.0191 -0.9879
vn -0.1251 0.0123 -0.9921
vn -0.0965 0.0046 -0.9953
vn -0.0860 -0.0032 -0.9963
usemtl feather_003.001
s 1
f 18//1 10//2 3//3 6//4
f 11//5 18//1 6//4 4//6
f 5//7 1//8 7//9 15//10
f 15//10 7//9 8//11 16//12
f 16//12 8//11 9//13 17//14
f 17//14 9//13 10//2 18//1
f 2//15 5//7 15//10 14//16
f 14//16 15//10 16//12 13//17
f 13//17 16//12 17//14 12//18
f 12//18 17//14 18//1 11//5
