# Blender v2.79 (sub 0) OBJ File: 'lovebird_base_mesh_BI.blend'
# www.blender.org
mtllib lovebird_feather_flight_tertiary_003.001.mtl
o feather_flight_tertiary_003.001
v -0.272608 0.056762 0.020880
v -0.274166 0.056762 0.020880
v -0.272325 0.051255 0.020880
v -0.274450 0.051255 0.020880
v -0.273387 0.057044 0.021040
v -0.273387 0.050639 0.021040
v -0.272185 0.055830 0.020880
v -0.271829 0.054616 0.020880
v -0.271602 0.053402 0.020880
v -0.271665 0.052188 0.020880
v -0.275109 0.052188 0.020880
v -0.275172 0.053402 0.020880
v -0.274945 0.054616 0.020880
v -0.274589 0.055830 0.020880
v -0.273387 0.055830 0.021040
v -0.273387 0.054616 0.021040
v -0.273387 0.053402 0.021040
v -0.273387 0.052188 0.021040
vn 0.0000 0.0174 -0.9998
vn -0.1021 0.0134 -0.9947
vn -0.1211 0.0322 -0.9921
vn 0.0000 0.0324 -0.9995
vn 0.1021 0.0134 -0.9947
vn 0.1211 0.0322 -0.9921
vn 0.0000 -0.0327 -0.9995
vn -0.1639 -0.0323 -0.9859
vn -0.1339 -0.0228 -0.9907
vn 0.0000 -0.0248 -0.9997
vn -0.1037 -0.0123 -0.9945
vn 0.0000 -0.0130 -0.9999
vn -0.0930 -0.0030 -0.9956
vn 0.0000 -0.0033 -1.0000
vn 0.1639 -0.0323 -0.9859
vn 0.1339 -0.0228 -0.9907
vn 0.1037 -0.0123 -0.9945
vn 0.0930 -0.0030 -0.9956
usemtl feather_003.001
s 1
f 18//1 10//2 3//3 6//4
f 11//5 18//1 6//4 4//6
f 5//7 1//8 7//9 15//10
f 15//10 7//9 8//11 16//12
f 16//12 8//11 9//13 17//14
f 17//14 9//13 10//2 18//1
f 2//15 5//7 15//10 14//16
f 14//16 15//10 16//12 13//17
f 13//17 16//12 17//14 12//18
f 12//18 17//14 18//1 11//5
