# Blender v2.79 (sub 0) OBJ File: 'lovebird_base_mesh_BI.blend'
# www.blender.org
mtllib lovebird_feather_flight_tertiary_002.mtl
o feather_flight_tertiary_002
v 0.025337 0.056782 0.020881
v 0.023889 0.056782 0.020881
v 0.025601 0.051660 0.020881
v 0.023625 0.051660 0.020881
v 0.024613 0.057044 0.021041
v 0.024613 0.051087 0.021041
v 0.025730 0.055915 0.020881
v 0.026061 0.054786 0.020881
v 0.026273 0.053657 0.020881
v 0.026214 0.052528 0.020881
v 0.023011 0.052528 0.020881
v 0.022952 0.053657 0.020881
v 0.023164 0.054786 0.020881
v 0.023495 0.055915 0.020881
v 0.024613 0.055915 0.021041
v 0.024613 0.054786 0.021041
v 0.024613 0.053657 0.021041
v 0.024613 0.052528 0.021041
vn 0.0000 0.0187 -0.9998
vn -0.1097 0.0144 -0.9938
vn -0.1301 0.0345 -0.9909
vn 0.0000 0.0349 -0.9994
vn 0.1097 0.0144 -0.9938
vn 0.1301 0.0345 -0.9909
vn 0.0000 -0.0352 -0.9994
vn -0.1758 -0.0347 -0.9838
vn -0.1437 -0.0244 -0.9893
vn 0.0000 -0.0267 -0.9996
vn -0.1114 -0.0132 -0.9937
vn 0.0000 -0.0139 -0.9999
vn -0.0999 -0.0032 -0.9950
vn 0.0000 -0.0035 -1.0000
vn 0.1758 -0.0347 -0.9838
vn 0.1437 -0.0244 -0.9893
vn 0.1114 -0.0132 -0.9937
vn 0.0999 -0.0032 -0.9950
usemtl feather_003
s 1
f 18//1 10//2 3//3 6//4
f 11//5 18//1 6//4 4//6
f 5//7 1//8 7//9 15//10
f 15//10 7//9 8//11 16//12
f 16//12 8//11 9//13 17//14
f 17//14 9//13 10//2 18//1
f 2//15 5//7 15//10 14//16
f 14//16 15//10 16//12 13//17
f 13//17 16//12 17//14 12//18
f 12//18 17//14 18//1 11//5
