# Blender v2.79 (sub 0) OBJ File: 'lovebird_base_mesh_BI.blend'
# www.blender.org
mtllib lovebird_feather_tail_secondary_003.001.mtl
o feather_tail_secondary_003.001
v -0.295787 0.022000 -0.042965
v -0.299114 0.022000 -0.043781
v -0.297847 0.022354 -0.041753
v -0.293724 0.022000 -0.048150
v -0.291452 0.022000 -0.055001
v -0.297395 0.022000 -0.056457
v -0.298547 0.022000 -0.049332
v -0.296135 0.022354 -0.048741
v -0.294423 0.022354 -0.055729
v -0.286157 0.022000 -0.076856
v -0.287232 0.022000 -0.070798
v -0.289270 0.022000 -0.062882
v -0.295687 0.022000 -0.064454
v -0.293835 0.022000 -0.072416
v -0.291988 0.022000 -0.078285
v -0.288588 0.022354 -0.079546
v -0.290533 0.022354 -0.071607
v -0.292478 0.022354 -0.063668
vn -0.0025 0.9999 0.0102
vn 0.1631 0.9853 0.0506
vn 0.1411 0.9891 0.0423
vn -0.0018 1.0000 0.0075
vn 0.1142 0.9930 0.0314
vn -0.0008 1.0000 0.0033
vn -0.1680 0.9853 -0.0305
vn -0.1447 0.9891 -0.0277
vn -0.1158 0.9930 -0.0250
vn 0.1045 0.9941 0.0267
vn -0.0002 1.0000 0.0011
vn 0.1052 0.9941 0.0245
vn 0.0003 1.0000 -0.0012
vn 0.1085 0.9938 0.0234
vn 0.0007 1.0000 -0.0030
vn -0.1050 0.9941 -0.0246
vn -0.1046 0.9941 -0.0269
vn -0.1070 0.9938 -0.0294
usemtl feather_003.001
s 1
f 3//1 1//2 4//3 8//4
f 8//4 4//3 5//5 9//6
f 2//7 3//1 8//4 7//8
f 7//8 8//4 9//6 6//9
f 9//6 5//5 12//10 18//11
f 18//11 12//10 11//12 17//13
f 17//13 11//12 10//14 16//15
f 6//9 9//6 18//11 13//16
f 13//16 18//11 17//13 14//17
f 14//17 17//13 16//15 15//18
