# Blender v2.79 (sub 0) OBJ File: 'lovebird_base_mesh_BI.blend'
# www.blender.org
mtllib lovebird_feather_flight_tertiary_030.001.mtl
o feather_flight_tertiary_030.001
v -0.210794 0.057423 0.020894
v -0.211360 0.056276 0.020874
v -0.203480 0.054024 0.020967
v -0.204253 0.052458 0.020939
v -0.211442 0.057036 0.021041
v -0.203057 0.052840 0.021122
v -0.209419 0.057124 0.020911
v -0.207700 0.056591 0.020931
v -0.206028 0.055963 0.020949
v -0.204462 0.055121 0.020964
v -0.205713 0.052583 0.020919
v -0.207326 0.053332 0.020903
v -0.208833 0.054295 0.020890
v -0.210293 0.055353 0.020880
v -0.209853 0.056241 0.021056
v -0.208263 0.055445 0.021072
v -0.206674 0.054650 0.021087
v -0.205084 0.053855 0.021102
vn 0.0038 0.0151 -0.9999
vn -0.0514 -0.0987 -0.9938
vn -0.0716 -0.1126 -0.9910
vn -0.0050 0.0206 -0.9998
vn 0.0618 0.1276 -0.9899
vn 0.0607 0.1513 -0.9866
vn 0.0343 -0.0008 -0.9994
vn -0.0552 -0.1788 -0.9823
vn -0.0455 -0.1462 -0.9882
vn 0.0296 0.0020 -0.9995
vn -0.0347 -0.1078 -0.9936
vn 0.0225 0.0060 -0.9997
vn -0.0343 -0.0925 -0.9951
vn 0.0166 0.0090 -0.9998
vn 0.1225 0.1772 -0.9765
vn 0.1026 0.1505 -0.9832
vn 0.0790 0.1197 -0.9897
vn 0.0671 0.1104 -0.9916
usemtl feather_003.001
s 1
f 18//1 10//2 3//3 6//4
f 11//5 18//1 6//4 4//6
f 5//7 1//8 7//9 15//10
f 15//10 7//9 8//11 16//12
f 16//12 8//11 9//13 17//14
f 17//14 9//13 10//2 18//1
f 2//15 5//7 15//10 14//16
f 14//16 15//10 16//12 13//17
f 13//17 16//12 17//14 12//18
f 12//18 17//14 18//1 11//5
