# Blender v2.79 (sub 0) OBJ File: 'lovebird_base_mesh_BI.blend'
# www.blender.org
mtllib lovebird_feather_tail_primary_004.001.mtl
o feather_tail_primary_004.001
v -0.297564 0.021993 -0.043737
v -0.301881 0.021993 -0.044275
v -0.289707 0.021993 -0.100791
v -0.295505 0.021993 -0.101513
v -0.299902 0.022347 -0.042568
v -0.292232 0.022347 -0.104159
v -0.296001 0.021993 -0.048379
v -0.294502 0.021993 -0.054489
v -0.289577 0.021993 -0.089642
v -0.289182 0.021993 -0.095889
v -0.297217 0.021993 -0.096889
v -0.298366 0.021993 -0.090736
v -0.302212 0.021993 -0.055449
v -0.302258 0.021993 -0.049158
v -0.299129 0.022347 -0.048769
v -0.298357 0.022347 -0.054969
v -0.293971 0.022347 -0.090189
v -0.293199 0.022347 -0.096389
v -0.290426 0.021993 -0.082594
v -0.291356 0.021993 -0.075557
v -0.292321 0.021993 -0.068524
v -0.293319 0.021993 -0.061495
v -0.301642 0.021993 -0.062531
v -0.300885 0.021993 -0.069590
v -0.300095 0.021993 -0.076645
v -0.299271 0.021993 -0.083696
v -0.294849 0.022347 -0.083145
v -0.295726 0.022347 -0.076101
v -0.296603 0.022347 -0.069057
v -0.297480 0.022347 -0.062013
vn 0.0007 1.0000 -0.0059
vn 0.0931 0.9956 0.0059
vn 0.1055 0.9944 0.0037
vn 0.0012 0.9999 -0.0093
vn -0.0917 0.9956 -0.0171
vn -0.1032 0.9944 -0.0223
vn -0.0015 0.9999 0.0119
vn 0.1325 0.9908 0.0285
vn 0.1138 0.9932 0.0228
vn -0.0011 0.9999 0.0089
vn 0.0922 0.9956 0.0153
vn -0.0005 1.0000 0.0038
vn 0.0000 1.0000 0.0001
vn 0.0790 0.9968 0.0099
vn 0.0809 0.9967 0.0087
vn 0.0002 1.0000 -0.0013
vn -0.1354 0.9908 -0.0048
vn -0.1159 0.9932 -0.0058
vn -0.0932 0.9956 -0.0078
vn -0.0790 0.9968 -0.0097
vn -0.0805 0.9967 -0.0114
vn 0.0843 0.9964 0.0118
vn -0.0002 1.0000 0.0013
vn 0.0812 0.9966 0.0107
vn -0.0001 1.0000 0.0006
vn 0.0797 0.9968 0.0103
vn -0.0000 1.0000 0.0004
vn -0.0846 0.9964 -0.0092
vn -0.0814 0.9966 -0.0095
vn -0.0797 0.9968 -0.0095
usemtl feather_004.001
s 1
f 18//1 10//2 3//3 6//4
f 11//5 18//1 6//4 4//6
f 5//7 1//8 7//9 15//10
f 15//10 7//9 8//11 16//12
f 27//13 19//14 9//15 17//16
f 17//16 9//15 10//2 18//1
f 2//17 5//7 15//10 14//18
f 14//18 15//10 16//12 13//19
f 26//20 27//13 17//16 12//21
f 12//21 17//16 18//1 11//5
f 16//12 8//11 22//22 30//23
f 30//23 22//22 21//24 29//25
f 29//25 21//24 20//26 28//27
f 28//27 20//26 19//14 27//13
f 13//19 16//12 30//23 23//28
f 23//28 30//23 29//25 24//29
f 24//29 29//25 28//27 25//30
f 25//30 28//27 27//13 26//20
