# Blender v2.79 (sub 0) OBJ File: 'lovebird_base_mesh_BI.blend'
# www.blender.org
mtllib lovebird_feather_flight_secondary_026.001.mtl
o feather_flight_secondary_026.001
v -0.234667 0.056816 0.020428
v -0.237157 0.055866 0.020423
v -0.228957 0.043225 0.020367
v -0.232355 0.041929 0.020360
v -0.236181 0.057044 0.020269
v -0.230068 0.041036 0.020196
v -0.233100 0.054743 0.020419
v -0.231372 0.051926 0.020407
v -0.229850 0.049031 0.020393
v -0.228792 0.045958 0.020379
v -0.234299 0.043858 0.020368
v -0.235559 0.046853 0.020382
v -0.236354 0.050026 0.020396
v -0.236944 0.053277 0.020411
v -0.235022 0.054009 0.020255
v -0.233863 0.050975 0.020241
v -0.232704 0.047941 0.020228
v -0.231546 0.044907 0.020214
vn 0.0025 -0.0014 -1.0000
vn 0.0589 0.0211 -0.9980
vn 0.0710 0.0187 -0.9973
vn 0.0046 -0.0067 -0.9999
vn -0.0545 -0.0222 -0.9983
vn -0.0620 -0.0320 -0.9976
vn -0.0042 0.0161 -0.9998
vn 0.0862 0.0505 -0.9950
vn 0.0717 0.0414 -0.9966
vn -0.0031 0.0133 -0.9999
vn 0.0557 0.0308 -0.9980
vn -0.0015 0.0092 -0.9999
vn 0.0508 0.0252 -0.9984
vn -0.0002 0.0058 -1.0000
vn -0.0945 -0.0185 -0.9953
vn -0.0776 -0.0156 -0.9969
vn -0.0586 -0.0128 -0.9982
vn -0.0511 -0.0137 -0.9986
usemtl feather_004.001
s 1
f 18//1 10//2 3//3 6//4
f 11//5 18//1 6//4 4//6
f 5//7 1//8 7//9 15//10
f 15//10 7//9 8//11 16//12
f 16//12 8//11 9//13 17//14
f 17//14 9//13 10//2 18//1
f 2//15 5//7 15//10 14//16
f 14//16 15//10 16//12 13//17
f 13//17 16//12 17//14 12//18
f 12//18 17//14 18//1 11//5
