# Blender v2.79 (sub 0) OBJ File: 'lovebird_base_mesh_BI.blend'
# www.blender.org
mtllib lovebird_feather_flight_tertiary_053.mtl
o feather_flight_tertiary_053
v 0.067849 0.056959 0.020254
v 0.066293 0.056433 0.020242
v 0.070435 0.050257 0.020229
v 0.068311 0.049540 0.020214
v 0.066952 0.057042 0.020089
v 0.069629 0.049137 0.020058
v 0.068662 0.055951 0.020253
v 0.069526 0.054572 0.020249
v 0.070261 0.053151 0.020245
v 0.070705 0.051631 0.020239
v 0.067262 0.050469 0.020213
v 0.066691 0.051946 0.020219
v 0.066411 0.053521 0.020226
v 0.066259 0.055140 0.020235
v 0.067460 0.055544 0.020083
v 0.067967 0.054046 0.020078
v 0.068475 0.052547 0.020072
v 0.068982 0.051049 0.020066
vn 0.0096 -0.0069 -0.9999
vn 0.1012 0.0267 -0.9945
vn 0.1221 0.0191 -0.9923
vn 0.0134 -0.0178 -0.9997
vn -0.0837 -0.0359 -0.9958
vn -0.0958 -0.0547 -0.9939
vn -0.0029 0.0295 -0.9995
vn 0.1445 0.0790 -0.9863
vn 0.1208 0.0635 -0.9906
vn -0.0009 0.0237 -0.9997
vn 0.0957 0.0464 -0.9943
vn 0.0021 0.0151 -0.9999
vn 0.0881 0.0362 -0.9954
vn 0.0045 0.0081 -0.9999
vn -0.1503 -0.0207 -0.9884
vn -0.1218 -0.0185 -0.9924
vn -0.0912 -0.0169 -0.9957
vn -0.0790 -0.0203 -0.9966
usemtl feather_003
s 1
f 18//1 10//2 3//3 6//4
f 11//5 18//1 6//4 4//6
f 5//7 1//8 7//9 15//10
f 15//10 7//9 8//11 16//12
f 16//12 8//11 9//13 17//14
f 17//14 9//13 10//2 18//1
f 2//15 5//7 15//10 14//16
f 14//16 15//10 16//12 13//17
f 13//17 16//12 17//14 12//18
f 12//18 17//14 18//1 11//5
