# Blender v2.79 (sub 0) OBJ File: 'lovebird_base_mesh_BI.blend'
# www.blender.org
mtllib lovebird_feather_flight_secondary_027.001.mtl
o feather_flight_secondary_027.001
v -0.230425 0.056975 0.020429
v -0.232765 0.055793 0.020420
v -0.223459 0.044276 0.020336
v -0.226651 0.042663 0.020324
v -0.231929 0.057042 0.020269
v -0.224323 0.042024 0.020160
v -0.228682 0.055109 0.020415
v -0.226706 0.052532 0.020396
v -0.224922 0.049858 0.020377
v -0.223576 0.046963 0.020356
v -0.228749 0.044350 0.020337
v -0.230286 0.047148 0.020357
v -0.231386 0.050168 0.020379
v -0.232293 0.053285 0.020402
v -0.230487 0.054195 0.020248
v -0.229046 0.051349 0.020228
v -0.227604 0.048502 0.020207
v -0.226162 0.045655 0.020186
vn 0.0030 0.0013 -1.0000
vn 0.0576 0.0301 -0.9979
vn 0.0701 0.0290 -0.9971
vn 0.0056 -0.0037 -1.0000
vn -0.0526 -0.0257 -0.9983
vn -0.0591 -0.0364 -0.9976
vn -0.0057 0.0184 -0.9998
vn 0.0821 0.0627 -0.9946
vn 0.0685 0.0520 -0.9963
vn -0.0043 0.0157 -0.9998
vn 0.0533 0.0396 -0.9978
vn -0.0022 0.0117 -0.9999
vn 0.0489 0.0334 -0.9982
vn -0.0005 0.0084 -0.9999
vn -0.0934 -0.0261 -0.9953
vn -0.0766 -0.0215 -0.9968
vn -0.0576 -0.0165 -0.9982
vn -0.0500 -0.0167 -0.9986
usemtl feather_004.001
s 1
f 18//1 10//2 3//3 6//4
f 11//5 18//1 6//4 4//6
f 5//7 1//8 7//9 15//10
f 15//10 7//9 8//11 16//12
f 16//12 8//11 9//13 17//14
f 17//14 9//13 10//2 18//1
f 2//15 5//7 15//10 14//16
f 14//16 15//10 16//12 13//17
f 13//17 16//12 17//14 12//18
f 12//18 17//14 18//1 11//5
