# Blender v2.79 (sub 0) OBJ File: 'lovebird_base_mesh_BI.blend'
# www.blender.org
mtllib lovebird_feather_tail_primary_005.mtl
o feather_tail_primary_005
v 0.002142 0.022149 -0.044035
v -0.002142 0.022149 -0.044035
v 0.002877 0.022149 -0.102331
v -0.002877 0.022149 -0.102331
v -0.000000 0.022503 -0.042568
v -0.000000 0.022503 -0.105388
v 0.003104 0.022149 -0.048893
v 0.003825 0.022149 -0.055218
v 0.004361 0.022149 -0.091147
v 0.003987 0.022149 -0.097472
v -0.003987 0.022149 -0.097472
v -0.004361 0.022149 -0.091147
v -0.003825 0.022149 -0.055218
v -0.003104 0.022149 -0.048893
v -0.000000 0.022503 -0.048893
v -0.000000 0.022503 -0.055218
v -0.000000 0.022503 -0.091147
v -0.000000 0.022503 -0.097472
v 0.004388 0.022149 -0.083962
v 0.004336 0.022149 -0.076776
v 0.004249 0.022149 -0.069590
v 0.004130 0.022149 -0.062404
v -0.004130 0.022149 -0.062404
v -0.004249 0.022149 -0.069590
v -0.004336 0.022149 -0.076776
v -0.004388 0.022149 -0.083962
v -0.000000 0.022503 -0.083962
v -0.000000 0.022503 -0.076776
v -0.000000 0.022503 -0.069590
v -0.000000 0.022503 -0.062404
vn 0.0000 1.0000 -0.0059
vn 0.0946 0.9955 -0.0056
vn 0.1067 0.9942 -0.0092
vn 0.0000 0.9999 -0.0093
vn -0.0946 0.9955 -0.0056
vn -0.1067 0.9942 -0.0092
vn 0.0000 0.9999 0.0119
vn 0.1370 0.9905 0.0118
vn 0.1176 0.9930 0.0085
vn 0.0000 0.9999 0.0089
vn 0.0949 0.9955 0.0037
vn 0.0000 1.0000 0.0038
vn 0.0000 1.0000 0.0001
vn 0.0808 0.9967 0.0001
vn 0.0826 0.9966 -0.0013
vn 0.0000 1.0000 -0.0013
vn -0.1370 0.9905 0.0118
vn -0.1176 0.9930 0.0085
vn -0.0949 0.9955 0.0037
vn -0.0808 0.9967 0.0001
vn -0.0826 0.9966 -0.0013
vn 0.0864 0.9962 0.0013
vn 0.0000 1.0000 0.0013
vn 0.0832 0.9965 0.0006
vn 0.0000 1.0000 0.0006
vn 0.0816 0.9966 0.0004
vn 0.0000 1.0000 0.0004
vn -0.0864 0.9962 0.0013
vn -0.0832 0.9965 0.0006
vn -0.0816 0.9966 0.0004
usemtl feather_004
s 1
f 18//1 10//2 3//3 6//4
f 11//5 18//1 6//4 4//6
f 5//7 1//8 7//9 15//10
f 15//10 7//9 8//11 16//12
f 27//13 19//14 9//15 17//16
f 17//16 9//15 10//2 18//1
f 2//17 5//7 15//10 14//18
f 14//18 15//10 16//12 13//19
f 26//20 27//13 17//16 12//21
f 12//21 17//16 18//1 11//5
f 16//12 8//11 22//22 30//23
f 30//23 22//22 21//24 29//25
f 29//25 21//24 20//26 28//27
f 28//27 20//26 19//14 27//13
f 13//19 16//12 30//23 23//28
f 23//28 30//23 29//25 24//29
f 24//29 29//25 28//27 25//30
f 25//30 28//27 27//13 26//20
