# Blender v2.79 (sub 0) OBJ File: 'lovebird_base_mesh_BI.blend'
# www.blender.org
mtllib lovebird_feather_flight_secondary_020.mtl
o feather_flight_secondary_020
v 0.037611 0.056414 0.020429
v 0.035313 0.056374 0.020429
v 0.038252 0.043703 0.020429
v 0.035116 0.043648 0.020429
v 0.036451 0.057044 0.020269
v 0.036709 0.042253 0.020269
v 0.038273 0.054271 0.020429
v 0.038848 0.051477 0.020429
v 0.039232 0.048679 0.020429
v 0.039188 0.045874 0.020429
v 0.034105 0.045785 0.020429
v 0.033963 0.048587 0.020429
v 0.034249 0.051396 0.020429
v 0.034726 0.054209 0.020429
v 0.036500 0.054240 0.020269
v 0.036548 0.051437 0.020269
v 0.036597 0.048633 0.020269
v 0.036646 0.045829 0.020269
vn 0.0001 -0.0075 -1.0000
vn 0.0704 -0.0052 -0.9975
vn 0.0826 -0.0125 -0.9965
vn 0.0002 -0.0140 -0.9999
vn -0.0702 -0.0077 -0.9975
vn -0.0822 -0.0154 -0.9965
vn -0.0002 0.0142 -0.9999
vn 0.1116 0.0161 -0.9936
vn 0.0923 0.0118 -0.9956
vn -0.0002 0.0107 -0.9999
vn 0.0707 0.0067 -0.9975
vn -0.0001 0.0056 -1.0000
vn 0.0631 0.0024 -0.9980
vn 0.0000 0.0014 -1.0000
vn -0.1121 0.0121 -0.9936
vn -0.0927 0.0086 -0.9956
vn -0.0709 0.0042 -0.9975
vn -0.0632 0.0002 -0.9980
usemtl feather_004
s 1
f 18//1 10//2 3//3 6//4
f 11//5 18//1 6//4 4//6
f 5//7 1//8 7//9 15//10
f 15//10 7//9 8//11 16//12
f 16//12 8//11 9//13 17//14
f 17//14 9//13 10//2 18//1
f 2//15 5//7 15//10 14//16
f 14//16 15//10 16//12 13//17
f 13//17 16//12 17//14 12//18
f 12//18 17//14 18//1 11//5
