# Blender v2.79 (sub 0) OBJ File: 'lovebird_base_mesh_BI.blend'
# www.blender.org
mtllib lovebird_feather_tail_secondary_006.mtl
o feather_tail_secondary_006
v 0.001103 0.021847 -0.043496
v 0.003984 0.021847 -0.041979
v 0.001802 0.021592 -0.041331
v 0.002909 0.021847 -0.048498
v 0.005619 0.021847 -0.054822
v 0.010765 0.021847 -0.052112
v 0.007085 0.021847 -0.046299
v 0.004997 0.021592 -0.047399
v 0.008192 0.021592 -0.053467
v 0.015653 0.021847 -0.073763
v 0.012593 0.021847 -0.068760
v 0.009044 0.021847 -0.061824
v 0.014599 0.021847 -0.058899
v 0.018309 0.021847 -0.065750
v 0.020702 0.021847 -0.071104
v 0.019081 0.021592 -0.074149
v 0.015451 0.021592 -0.067255
v 0.011822 0.021592 -0.060361
vn -0.0037 -0.9999 0.0070
vn -0.1186 -0.9915 -0.0536
vn -0.1017 -0.9937 -0.0471
vn -0.0027 -1.0000 0.0052
vn -0.0808 -0.9959 -0.0397
vn -0.0012 -1.0000 0.0023
vn 0.1113 -0.9915 0.0674
vn 0.0964 -0.9937 0.0572
vn 0.0785 -0.9959 0.0441
vn -0.0728 -0.9966 -0.0374
vn -0.0004 -1.0000 0.0007
vn -0.0721 -0.9966 -0.0390
vn 0.0004 -1.0000 -0.0008
vn -0.0735 -0.9964 -0.0413
vn 0.0011 -1.0000 -0.0020
vn 0.0721 -0.9966 0.0389
vn 0.0730 -0.9966 0.0374
vn 0.0757 -0.9964 0.0372
usemtl feather_003
s 1
f 3//1 1//2 4//3 8//4
f 8//4 4//3 5//5 9//6
f 2//7 3//1 8//4 7//8
f 7//8 8//4 9//6 6//9
f 9//6 5//5 12//10 18//11
f 18//11 12//10 11//12 17//13
f 17//13 11//12 10//14 16//15
f 6//9 9//6 18//11 13//16
f 13//16 18//11 17//13 14//17
f 14//17 17//13 16//15 15//18
