# Blender v2.79 (sub 0) OBJ File: 'lovebird_base_mesh_BI.blend'
# www.blender.org
mtllib lovebird_feather_flight_tertiary_008.001.mtl
o feather_flight_tertiary_008.001
v -0.261798 0.056812 0.020881
v -0.263376 0.056702 0.020881
v -0.261119 0.051225 0.020881
v -0.263272 0.051074 0.020881
v -0.262607 0.057044 0.021041
v -0.262151 0.050522 0.021041
v -0.261303 0.055893 0.020881
v -0.260856 0.054682 0.020881
v -0.260539 0.053462 0.020881
v -0.260517 0.052221 0.020881
v -0.264006 0.051977 0.020881
v -0.264157 0.053209 0.020881
v -0.264013 0.054461 0.020881
v -0.263739 0.055722 0.020881
v -0.262521 0.055807 0.021041
v -0.262435 0.054571 0.021041
v -0.262348 0.053335 0.021041
v -0.262262 0.052099 0.021041
vn -0.0012 0.0170 -0.9998
vn -0.1013 0.0061 -0.9948
vn -0.1212 0.0231 -0.9923
vn -0.0022 0.0317 -0.9995
vn 0.0994 0.0202 -0.9948
vn 0.1168 0.0398 -0.9923
vn 0.0022 -0.0320 -0.9995
vn -0.1588 -0.0428 -0.9864
vn -0.1299 -0.0315 -0.9910
vn 0.0017 -0.0243 -0.9997
vn -0.1010 -0.0191 -0.9947
vn 0.0009 -0.0127 -0.9999
vn -0.0911 -0.0093 -0.9958
vn 0.0002 -0.0032 -1.0000
vn 0.1632 -0.0203 -0.9864
vn 0.1331 -0.0131 -0.9910
vn 0.1027 -0.0049 -0.9947
vn 0.0915 0.0034 -0.9958
usemtl feather_003.001
s 1
f 18//1 10//2 3//3 6//4
f 11//5 18//1 6//4 4//6
f 5//7 1//8 7//9 15//10
f 15//10 7//9 8//11 16//12
f 16//12 8//11 9//13 17//14
f 17//14 9//13 10//2 18//1
f 2//15 5//7 15//10 14//16
f 14//16 15//10 16//12 13//17
f 13//17 16//12 17//14 12//18
f 12//18 17//14 18//1 11//5
