# Blender v2.79 (sub 0) OBJ File: 'lovebird_base_mesh_BI.blend'
# www.blender.org
mtllib lovebird_feather_flight_secondary_016.001.mtl
o feather_flight_secondary_016.001
v -0.205417 0.058190 0.020709
v -0.206065 0.055418 0.020663
v -0.186001 0.054067 0.020877
v -0.186887 0.050285 0.020814
v -0.206725 0.057044 0.020839
v -0.184282 0.051661 0.021024
v -0.201973 0.058159 0.020748
v -0.197570 0.057772 0.020794
v -0.193222 0.057157 0.020836
v -0.188994 0.056024 0.020869
v -0.190429 0.049895 0.020768
v -0.194709 0.050803 0.020731
v -0.198869 0.052227 0.020702
v -0.202974 0.053881 0.020678
v -0.202471 0.056023 0.020874
v -0.198217 0.055003 0.020909
v -0.193963 0.053983 0.020944
v -0.189709 0.052962 0.020979
vn 0.0068 0.0148 -0.9998
vn -0.0060 -0.0411 -0.9991
vn -0.0129 -0.0494 -0.9987
vn 0.0028 0.0161 -0.9998
vn 0.0207 0.0705 -0.9973
vn 0.0183 0.0808 -0.9966
vn 0.0204 0.0113 -0.9997
vn -0.0008 -0.0770 -0.9970
vn 0.0003 -0.0615 -0.9981
vn 0.0183 0.0121 -0.9998
vn 0.0015 -0.0432 -0.9991
vn 0.0150 0.0129 -0.9998
vn 0.0004 -0.0363 -0.9993
vn 0.0124 0.0135 -0.9998
vn 0.0415 0.0998 -0.9941
vn 0.0355 0.0855 -0.9957
vn 0.0284 0.0689 -0.9972
vn 0.0243 0.0634 -0.9977
usemtl feather_004.001
s 1
f 18//1 10//2 3//3 6//4
f 11//5 18//1 6//4 4//6
f 5//7 1//8 7//9 15//10
f 15//10 7//9 8//11 16//12
f 16//12 8//11 9//13 17//14
f 17//14 9//13 10//2 18//1
f 2//15 5//7 15//10 14//16
f 14//16 15//10 16//12 13//17
f 13//17 16//12 17//14 12//18
f 12//18 17//14 18//1 11//5
