# Blender v2.79 (sub 0) OBJ File: 'lovebird_base_mesh_BI.blend'
# www.blender.org
mtllib lovebird_feather_flight_tertiary_064.001.mtl
o feather_flight_tertiary_064.001
v -0.207087 0.057608 0.020237
v -0.207348 0.056313 0.020256
v -0.199794 0.056337 0.020173
v -0.200151 0.054570 0.020201
v -0.207586 0.057041 0.020089
v -0.199160 0.055287 0.020020
v -0.205789 0.057705 0.020221
v -0.204132 0.057669 0.020203
v -0.202497 0.057525 0.020187
v -0.200911 0.057140 0.020175
v -0.201488 0.054276 0.020219
v -0.203096 0.054556 0.020233
v -0.204655 0.055078 0.020243
v -0.206193 0.055706 0.020252
v -0.205989 0.056708 0.020076
v -0.204391 0.056376 0.020063
v -0.202794 0.056044 0.020049
v -0.201197 0.055711 0.020036
vn 0.0019 -0.0151 -0.9999
vn 0.0250 0.1049 -0.9941
vn 0.0421 0.1229 -0.9915
vn 0.0127 -0.0183 -0.9997
vn -0.0248 -0.1345 -0.9906
vn -0.0164 -0.1571 -0.9874
vn -0.0346 -0.0068 -0.9994
vn 0.0051 0.1819 -0.9833
vn 0.0048 0.1483 -0.9889
vn -0.0289 -0.0086 -0.9995
vn 0.0051 0.1098 -0.9939
vn -0.0203 -0.0107 -0.9997
vn 0.0092 0.0953 -0.9954
vn -0.0132 -0.0123 -0.9998
vn -0.0731 -0.1958 -0.9779
vn -0.0602 -0.1654 -0.9844
vn -0.0449 -0.1312 -0.9903
vn -0.0354 -0.1198 -0.9922
usemtl feather_003.001
s 1
f 18//1 10//2 3//3 6//4
f 11//5 18//1 6//4 4//6
f 5//7 1//8 7//9 15//10
f 15//10 7//9 8//11 16//12
f 16//12 8//11 9//13 17//14
f 17//14 9//13 10//2 18//1
f 2//15 5//7 15//10 14//16
f 14//16 15//10 16//12 13//17
f 13//17 16//12 17//14 12//18
f 12//18 17//14 18//1 11//5
