# Blender v2.79 (sub 0) OBJ File: 'lovebird_base_mesh_BI.blend'
# www.blender.org
mtllib lovebird_feather_flight_primary_006.001.mtl
o feather_flight_primary_006.001
v -0.252739 0.055868 0.020476
v -0.255380 0.055730 0.020476
v -0.250982 0.031543 0.020476
v -0.254585 0.031354 0.020476
v -0.254125 0.057044 0.020636
v -0.252641 0.028724 0.020636
v -0.251806 0.051782 0.020476
v -0.250921 0.046446 0.020476
v -0.250254 0.041098 0.020476
v -0.250080 0.035725 0.020476
v -0.255919 0.035419 0.020476
v -0.256308 0.040781 0.020476
v -0.256203 0.046169 0.020476
v -0.255881 0.051569 0.020476
v -0.253843 0.051676 0.020636
v -0.253562 0.046308 0.020636
v -0.253281 0.040940 0.020636
v -0.252999 0.035572 0.020636
vn -0.0002 0.0039 -1.0000
vn -0.0619 0.0003 -0.9981
vn -0.0720 0.0035 -0.9974
vn -0.0004 0.0073 -1.0000
vn 0.0615 0.0068 -0.9981
vn 0.0712 0.0110 -0.9974
vn 0.0004 -0.0074 -1.0000
vn -0.0969 -0.0125 -0.9952
vn -0.0810 -0.0097 -0.9966
vn 0.0003 -0.0056 -1.0000
vn -0.0616 -0.0061 -0.9981
vn 0.0002 -0.0029 -1.0000
vn -0.0548 -0.0036 -0.9985
vn 0.0000 -0.0007 -1.0000
vn 0.0977 -0.0023 -0.9952
vn 0.0816 -0.0012 -0.9966
vn 0.0619 0.0004 -0.9981
vn 0.0549 0.0021 -0.9985
usemtl feather_005
s 1
f 18//1 10//2 3//3 6//4
f 11//5 18//1 6//4 4//6
f 5//7 1//8 7//9 15//10
f 15//10 7//9 8//11 16//12
f 16//12 8//11 9//13 17//14
f 17//14 9//13 10//2 18//1
f 2//15 5//7 15//10 14//16
f 14//16 15//10 16//12 13//17
f 13//17 16//12 17//14 12//18
f 12//18 17//14 18//1 11//5
