# Blender v2.79 (sub 0) OBJ File: 'lovebird_base_mesh_BI.blend'
# www.blender.org
mtllib lovebird_feather_flight_primary_005.mtl
o feather_flight_primary_005
v 0.042346 0.055880 0.020476
v 0.039783 0.055791 0.020476
v 0.043639 0.032255 0.020476
v 0.040141 0.032133 0.020476
v 0.041022 0.057044 0.020636
v 0.041982 0.029549 0.020636
v 0.043183 0.051901 0.020476
v 0.043951 0.046710 0.020476
v 0.044507 0.041512 0.020476
v 0.044585 0.036296 0.020476
v 0.038916 0.036098 0.020476
v 0.038630 0.041306 0.020476
v 0.038822 0.046531 0.020476
v 0.039226 0.051763 0.020476
v 0.041204 0.051832 0.020636
v 0.041386 0.046620 0.020636
v 0.041568 0.041409 0.020636
v 0.041750 0.036197 0.020636
vn -0.0001 0.0040 -1.0000
vn -0.0638 0.0015 -0.9980
vn -0.0741 0.0049 -0.9972
vn -0.0002 0.0075 -1.0000
vn 0.0635 0.0059 -0.9980
vn 0.0736 0.0101 -0.9972
vn 0.0002 -0.0076 -1.0000
vn -0.1000 -0.0111 -0.9949
vn -0.0837 -0.0085 -0.9964
vn 0.0002 -0.0058 -1.0000
vn -0.0636 -0.0052 -0.9980
vn 0.0001 -0.0030 -1.0000
vn -0.0566 -0.0027 -0.9984
vn 0.0000 -0.0008 -1.0000
vn 0.1006 -0.0041 -0.9949
vn 0.0840 -0.0027 -0.9964
vn 0.0638 -0.0007 -0.9980
vn 0.0566 0.0012 -0.9984
usemtl feather_005
s 1
f 18//1 10//2 3//3 6//4
f 11//5 18//1 6//4 4//6
f 5//7 1//8 7//9 15//10
f 15//10 7//9 8//11 16//12
f 16//12 8//11 9//13 17//14
f 17//14 9//13 10//2 18//1
f 2//15 5//7 15//10 14//16
f 14//16 15//10 16//12 13//17
f 13//17 16//12 17//14 12//18
f 12//18 17//14 18//1 11//5
