# Blender v2.79 (sub 0) OBJ File: 'lovebird_base_mesh_BI.blend'
# www.blender.org
mtllib lovebird_feather_flight_tertiary_016.001.mtl
o feather_flight_tertiary_016.001
v -0.243062 0.056869 0.020880
v -0.244588 0.056554 0.020885
v -0.241428 0.050384 0.020921
v -0.243511 0.049954 0.020928
v -0.243895 0.057045 0.021041
v -0.242318 0.049436 0.021089
v -0.242418 0.055847 0.020886
v -0.241770 0.054477 0.020894
v -0.241249 0.053080 0.020903
v -0.241012 0.051625 0.020912
v -0.244387 0.050929 0.020923
v -0.244747 0.052358 0.020914
v -0.244823 0.053846 0.020904
v -0.244773 0.055361 0.020894
v -0.243596 0.055603 0.021050
v -0.243297 0.054160 0.021059
v -0.242998 0.052718 0.021068
v -0.242699 0.051276 0.021078
vn -0.0047 0.0073 -0.9999
vn -0.1048 -0.0162 -0.9944
vn -0.1258 -0.0053 -0.9920
vn -0.0073 0.0194 -0.9998
vn 0.0965 0.0255 -0.9950
vn 0.1115 0.0439 -0.9928
vn 0.0038 -0.0332 -0.9994
vn -0.1567 -0.0659 -0.9854
vn -0.1299 -0.0526 -0.9901
vn 0.0024 -0.0268 -0.9996
vn -0.1015 -0.0378 -0.9941
vn 0.0004 -0.0172 -0.9998
vn -0.0923 -0.0280 -0.9953
vn -0.0012 -0.0094 -0.9999
vn 0.1642 0.0005 -0.9864
vn 0.1342 0.0020 -0.9909
vn 0.1021 0.0043 -0.9948
vn 0.0898 0.0096 -0.9959
usemtl feather_003.001
s 1
f 18//1 10//2 3//3 6//4
f 11//5 18//1 6//4 4//6
f 5//7 1//8 7//9 15//10
f 15//10 7//9 8//11 16//12
f 16//12 8//11 9//13 17//14
f 17//14 9//13 10//2 18//1
f 2//15 5//7 15//10 14//16
f 14//16 15//10 16//12 13//17
f 13//17 16//12 17//14 12//18
f 12//18 17//14 18//1 11//5
