# Blender v2.79 (sub 0) OBJ File: 'minature_pig_base_mesh_BI.blend'
# www.blender.org
mtllib minature_pig_eye.mtl
o eye
v 0.031628 0.476417 0.432438
v 0.038051 0.467640 0.435065
v 0.046993 0.462182 0.438997
v 0.057092 0.460874 0.443635
v 0.066810 0.463915 0.448273
v 0.074669 0.470843 0.452205
v 0.079470 0.480603 0.454832
v 0.029787 0.477095 0.436244
v 0.034650 0.468892 0.442098
v 0.042549 0.463817 0.448186
v 0.052281 0.462644 0.453581
v 0.062366 0.465551 0.457462
v 0.071267 0.472095 0.459238
v 0.077629 0.481280 0.458639
v 0.028080 0.479333 0.439471
v 0.031497 0.473028 0.448061
v 0.038429 0.469222 0.455977
v 0.047822 0.468495 0.462014
v 0.058246 0.470956 0.465253
v 0.068114 0.476232 0.465201
v 0.075923 0.483519 0.461866
v 0.080485 0.491708 0.455755
v 0.026768 0.482793 0.441627
v 0.029073 0.479420 0.452045
v 0.035262 0.477574 0.461182
v 0.044394 0.477534 0.467648
v 0.055079 0.479307 0.470458
v 0.065690 0.482624 0.469185
v 0.074611 0.486978 0.464022
v 0.026051 0.486946 0.442384
v 0.027746 0.487094 0.453444
v 0.033529 0.487600 0.463010
v 0.042519 0.488387 0.469626
v 0.053346 0.489334 0.472286
v 0.064364 0.490298 0.470584
v 0.073893 0.491131 0.464779
v 0.026036 0.491160 0.441627
v 0.027720 0.494882 0.452045
v 0.033495 0.497775 0.461182
v 0.042481 0.499400 0.467648
v 0.053312 0.499509 0.470458
v 0.064337 0.498085 0.469185
v 0.073879 0.495346 0.464022
v 0.028700 0.487178 0.431515
v 0.026728 0.494795 0.439471
v 0.028997 0.501597 0.448061
v 0.035163 0.506549 0.455977
v 0.044288 0.508897 0.462014
v 0.054981 0.508283 0.465253
v 0.065615 0.504801 0.465201
v 0.074570 0.498981 0.461866
v 0.028019 0.497296 0.436244
v 0.031384 0.506219 0.442098
v 0.038282 0.512588 0.448186
v 0.047663 0.515433 0.453581
v 0.058099 0.514321 0.457462
v 0.068001 0.509422 0.459238
v 0.075862 0.501482 0.458639
v 0.029715 0.498283 0.432438
v 0.034516 0.508042 0.435065
v 0.042375 0.514970 0.438997
v 0.052093 0.518012 0.443635
v 0.062192 0.516704 0.448273
v 0.071134 0.511246 0.452205
v 0.077557 0.502469 0.454832
v 0.031556 0.497605 0.428631
v 0.037918 0.506790 0.428032
v 0.046819 0.513335 0.429808
v 0.056904 0.516241 0.433689
v 0.066636 0.515068 0.439084
v 0.074535 0.509994 0.445172
v 0.079398 0.501791 0.451026
v 0.033262 0.495367 0.425404
v 0.041071 0.502654 0.422069
v 0.050939 0.507930 0.422017
v 0.061363 0.510391 0.425256
v 0.070756 0.509663 0.431294
v 0.077688 0.505857 0.439209
v 0.081105 0.499552 0.447799
v 0.034574 0.491907 0.423248
v 0.043495 0.496262 0.418085
v 0.054106 0.499578 0.416812
v 0.064791 0.501352 0.419622
v 0.073923 0.501312 0.426088
v 0.080112 0.499465 0.435226
v 0.082417 0.496093 0.445643
v 0.035292 0.487754 0.422491
v 0.044821 0.488588 0.416686
v 0.055839 0.489552 0.414984
v 0.066666 0.490499 0.417644
v 0.075656 0.491286 0.424260
v 0.081439 0.491792 0.433827
v 0.083134 0.491940 0.444886
v 0.035306 0.483540 0.423248
v 0.044848 0.480800 0.418085
v 0.055873 0.479377 0.416812
v 0.066704 0.479486 0.419622
v 0.075690 0.481111 0.426088
v 0.081465 0.484004 0.435226
v 0.083149 0.487725 0.445643
v 0.034615 0.479905 0.425404
v 0.043570 0.474085 0.422069
v 0.054204 0.470602 0.422017
v 0.064897 0.469988 0.425256
v 0.074022 0.472336 0.431294
v 0.080188 0.477288 0.439209
v 0.082457 0.484091 0.447799
v 0.033323 0.477404 0.428631
v 0.041184 0.469463 0.428032
v 0.051086 0.464564 0.429808
v 0.061522 0.463453 0.433689
v 0.070903 0.466298 0.439084
v 0.077801 0.472667 0.445172
v 0.081166 0.481590 0.451026
vn 0.9028 0.0790 0.4226
vn 0.7938 -0.3044 0.5266
vn 0.8614 -0.3293 0.3868
vn 0.6903 -0.6612 0.2938
vn 0.5697 -0.6168 0.5431
vn 0.2633 -0.8369 0.4798
vn 0.4188 -0.8942 0.1582
vn 0.0871 -0.9962 0.0000
vn -0.0806 -0.9344 0.3468
vn -0.4127 -0.8961 0.1634
vn -0.2572 -0.9533 -0.1582
vn -0.5650 -0.7710 -0.2938
vn -0.6855 -0.7266 -0.0445
vn -0.8587 -0.4490 -0.2470
vn -0.7911 -0.4738 -0.3868
vn -0.9028 -0.0790 -0.4226
vn 0.7311 -0.2221 0.6451
vn 0.4579 -0.4702 0.7544
vn 0.1191 -0.6478 0.7525
vn -0.2361 -0.7305 0.6408
vn -0.5569 -0.7069 0.4360
vn -0.7973 -0.5800 0.1669
vn -0.9214 -0.3667 -0.1284
vn 0.0082 -0.3555 0.9346
vn -0.3556 -0.4152 0.8373
vn -0.6677 -0.4146 0.6182
vn -0.8832 -0.3534 0.3081
vn -0.9696 -0.2397 -0.0492
vn 0.6829 -0.0951 0.7243
vn 0.3720 -0.2436 0.8957
vn 0.6565 0.0574 0.7521
vn 0.3250 0.0284 0.9453
vn -0.0524 -0.0046 0.9986
vn -0.4210 -0.0368 0.9063
vn -0.7284 -0.0637 0.6822
vn -0.9303 -0.0814 0.3577
vn -0.9959 -0.0871 -0.0214
vn -0.4223 0.3472 0.8373
vn -0.7296 0.2924 0.6182
vn -0.9312 0.1946 0.3081
vn -0.9965 0.0677 -0.0492
vn 0.6560 0.2122 0.7243
vn 0.3240 0.3045 0.8957
vn -0.0536 0.3515 0.9346
vn 0.6814 0.3457 0.6451
vn 0.3693 0.5426 0.7544
vn 0.0048 0.6586 0.7525
vn -0.3593 0.6784 0.6408
vn -0.6712 0.5994 0.4360
vn -0.8859 0.4327 0.1669
vn -0.9711 0.2011 -0.1284
vn -0.5621 0.8108 0.1634
vn -0.8013 0.5965 -0.0445
vn -0.9236 0.2930 -0.2470
vn 0.7288 0.4376 0.5266
vn 0.4539 0.7064 0.5431
vn 0.1139 0.8699 0.4798
vn -0.2416 0.9062 0.3468
vn 0.7911 0.4738 0.3868
vn 0.5650 0.7710 0.2938
vn 0.2572 0.9533 0.1582
vn -0.0871 0.9962 0.0000
vn -0.4188 0.8942 -0.1582
vn -0.6903 0.6612 -0.2938
vn -0.8614 0.3293 -0.3868
vn -0.5697 0.6168 -0.5431
vn -0.7938 0.3044 -0.5265
vn 0.8587 0.4490 0.2470
vn 0.6855 0.7266 0.0444
vn 0.4127 0.8961 -0.1634
vn 0.0806 0.9344 -0.3468
vn -0.2633 0.8369 -0.4798
vn 0.9214 0.3667 0.1284
vn 0.7973 0.5800 -0.1669
vn 0.5569 0.7069 -0.4360
vn 0.2361 0.7305 -0.6408
vn -0.1191 0.6478 -0.7525
vn -0.4579 0.4702 -0.7544
vn -0.7311 0.2221 -0.6451
vn -0.6829 0.0951 -0.7243
vn 0.9696 0.2397 0.0492
vn 0.8832 0.3534 -0.3081
vn 0.6677 0.4146 -0.6182
vn 0.3556 0.4152 -0.8373
vn -0.0082 0.3555 -0.9346
vn -0.3720 0.2436 -0.8957
vn 0.9303 0.0814 -0.3577
vn 0.7284 0.0637 -0.6822
vn 0.4210 0.0368 -0.9063
vn 0.0524 0.0046 -0.9986
vn -0.3250 -0.0284 -0.9453
vn -0.6565 -0.0574 -0.7521
vn 0.9959 0.0871 0.0214
vn 0.9965 -0.0677 0.0492
vn 0.9312 -0.1946 -0.3081
vn 0.7296 -0.2924 -0.6182
vn 0.4223 -0.3472 -0.8373
vn 0.0536 -0.3515 -0.9346
vn -0.3240 -0.3045 -0.8957
vn -0.6560 -0.2122 -0.7243
vn 0.6712 -0.5994 -0.4360
vn 0.3593 -0.6784 -0.6408
vn -0.0048 -0.6586 -0.7525
vn -0.3693 -0.5426 -0.7544
vn -0.6814 -0.3457 -0.6451
vn 0.9711 -0.2011 0.1284
vn 0.8859 -0.4327 -0.1669
vn 0.9236 -0.2930 0.2470
vn 0.8013 -0.5965 0.0445
vn 0.5621 -0.8108 -0.1634
vn 0.2416 -0.9062 -0.3468
vn -0.1139 -0.8699 -0.4798
vn -0.4539 -0.7064 -0.5431
vn -0.7288 -0.4376 -0.5266
usemtl eyes
s 1
f 22//1 14//2 7//3
f 6//4 13//5 12//6 5//7
f 4//8 11//9 10//10 3//11
f 2//12 9//13 8//14 1//15
f 7//3 14//2 13//5 6//4
f 5//7 12//6 11//9 4//8
f 3//11 10//10 9//13 2//12
f 1//15 8//14 44//16
f 14//2 21//17 20//18 13//5
f 12//6 19//19 18//20 11//9
f 10//10 17//21 16//22 9//13
f 8//14 15//23 44//16
f 22//1 21//17 14//2
f 13//5 20//18 19//19 12//6
f 11//9 18//20 17//21 10//10
f 9//13 16//22 15//23 8//14
f 19//19 27//24 26//25 18//20
f 17//21 25//26 24//27 16//22
f 15//23 23//28 44//16
f 22//1 29//29 21//17
f 20//18 28//30 27//24 19//19
f 18//20 26//25 25//26 17//21
f 16//22 24//27 23//28 15//23
f 21//17 29//29 28//30 20//18
f 22//1 36//31 29//29
f 28//30 35//32 34//33 27//24
f 26//25 33//34 32//35 25//26
f 24//27 31//36 30//37 23//28
f 29//29 36//31 35//32 28//30
f 27//24 34//33 33//34 26//25
f 25//26 32//35 31//36 24//27
f 23//28 30//37 44//16
f 33//34 40//38 39//39 32//35
f 31//36 38//40 37//41 30//37
f 36//31 43//42 42//43 35//32
f 34//33 41//44 40//38 33//34
f 32//35 39//39 38//40 31//36
f 30//37 37//41 44//16
f 22//1 43//42 36//31
f 35//32 42//43 41//44 34//33
f 43//42 51//45 50//46 42//43
f 41//44 49//47 48//48 40//38
f 39//39 47//49 46//50 38//40
f 37//41 45//51 44//16
f 22//1 51//45 43//42
f 42//43 50//46 49//47 41//44
f 40//38 48//48 47//49 39//39
f 38//40 46//50 45//51 37//41
f 47//49 54//52 53//53 46//50
f 45//51 52//54 44//16
f 22//1 58//55 51//45
f 50//46 57//56 56//57 49//47
f 48//48 55//58 54//52 47//49
f 46//50 53//53 52//54 45//51
f 51//45 58//55 57//56 50//46
f 49//47 56//57 55//58 48//48
f 22//1 65//59 58//55
f 57//56 64//60 63//61 56//57
f 55//58 62//62 61//63 54//52
f 53//53 60//64 59//65 52//54
f 58//55 65//59 64//60 57//56
f 56//57 63//61 62//62 55//58
f 54//52 61//63 60//64 53//53
f 52//54 59//65 44//16
f 60//64 67//66 66//67 59//65
f 65//59 72//68 71//69 64//60
f 63//61 70//70 69//71 62//62
f 61//63 68//72 67//66 60//64
f 59//65 66//67 44//16
f 22//1 72//68 65//59
f 64//60 71//69 70//70 63//61
f 62//62 69//71 68//72 61//63
f 72//68 79//73 78//74 71//69
f 70//70 77//75 76//76 69//71
f 68//72 75//77 74//78 67//66
f 66//67 73//79 44//16
f 22//1 79//73 72//68
f 71//69 78//74 77//75 70//70
f 69//71 76//76 75//77 68//72
f 67//66 74//78 73//79 66//67
f 73//79 80//80 44//16
f 22//1 86//81 79//73
f 78//74 85//82 84//83 77//75
f 76//76 83//84 82//85 75//77
f 74//78 81//86 80//80 73//79
f 79//73 86//81 85//82 78//74
f 77//75 84//83 83//84 76//76
f 75//77 82//85 81//86 74//78
f 85//82 92//87 91//88 84//83
f 83//84 90//89 89//90 82//85
f 81//86 88//91 87//92 80//80
f 86//81 93//93 92//87 85//82
f 84//83 91//88 90//89 83//84
f 82//85 89//90 88//91 81//86
f 80//80 87//92 44//16
f 22//1 93//93 86//81
f 93//93 100//94 99//95 92//87
f 91//88 98//96 97//97 90//89
f 89//90 96//98 95//99 88//91
f 87//92 94//100 44//16
f 22//1 100//94 93//93
f 92//87 99//95 98//96 91//88
f 90//89 97//97 96//98 89//90
f 88//91 95//99 94//100 87//92
f 98//96 105//101 104//102 97//97
f 96//98 103//103 102//104 95//99
f 94//100 101//105 44//16
f 22//1 107//106 100//94
f 99//95 106//107 105//101 98//96
f 97//97 104//102 103//103 96//98
f 95//99 102//104 101//105 94//100
f 100//94 107//106 106//107 99//95
f 22//1 114//108 107//106
f 106//107 113//109 112//110 105//101
f 104//102 111//111 110//112 103//103
f 102//104 109//113 108//114 101//105
f 107//106 114//108 113//109 106//107
f 105//101 112//110 111//111 104//102
f 103//103 110//112 109//113 102//104
f 101//105 108//114 44//16
f 111//111 4//8 3//11 110//112
f 109//113 2//12 1//15 108//114
f 114//108 7//3 6//4 113//109
f 112//110 5//7 4//8 111//111
f 110//112 3//11 2//12 109//113
f 108//114 1//15 44//16
f 22//1 7//3 114//108
f 113//109 6//4 5//7 112//110
