# Blender v2.79 (sub 0) OBJ File: 'mink_base_mesh_BI.blend'
# www.blender.org
mtllib mink_eye.mtl
o eye
v 0.008358 0.141102 0.160960
v 0.009405 0.139764 0.161452
v 0.010803 0.138968 0.162187
v 0.012338 0.138835 0.163054
v 0.013778 0.139386 0.163921
v 0.014902 0.140536 0.164657
v 0.015540 0.142111 0.165148
v 0.008011 0.141186 0.161535
v 0.008764 0.139920 0.162514
v 0.009965 0.139172 0.163575
v 0.011432 0.139056 0.164556
v 0.012940 0.139590 0.165309
v 0.014261 0.140693 0.165719
v 0.015193 0.142196 0.165723
v 0.007680 0.141519 0.162023
v 0.008152 0.140536 0.163414
v 0.009166 0.139977 0.164751
v 0.010567 0.139927 0.165830
v 0.012141 0.140395 0.166486
v 0.013650 0.141308 0.166619
v 0.014862 0.142529 0.166210
v 0.015595 0.143870 0.165320
v 0.007415 0.142050 0.162348
v 0.007664 0.141517 0.164016
v 0.008528 0.141259 0.165537
v 0.009876 0.141315 0.166681
v 0.011503 0.141677 0.167272
v 0.013161 0.142290 0.167221
v 0.014598 0.143060 0.166536
v 0.007258 0.142698 0.162463
v 0.007372 0.142715 0.164227
v 0.008147 0.142823 0.165813
v 0.009463 0.143009 0.166980
v 0.011122 0.143242 0.167548
v 0.012869 0.143487 0.167432
v 0.014440 0.143708 0.166650
v 0.007231 0.143365 0.162348
v 0.007322 0.143946 0.164016
v 0.008081 0.144433 0.165537
v 0.009393 0.144750 0.166681
v 0.011057 0.144851 0.167272
v 0.012819 0.144719 0.167221
v 0.014413 0.144374 0.166536
v 0.007820 0.142778 0.160788
v 0.007338 0.143948 0.162023
v 0.007521 0.145024 0.163414
v 0.008342 0.145841 0.164751
v 0.009675 0.146275 0.165830
v 0.011317 0.146259 0.166486
v 0.013019 0.145797 0.166619
v 0.014521 0.144958 0.166210
v 0.007565 0.144360 0.161535
v 0.007940 0.145785 0.162514
v 0.008888 0.146835 0.163575
v 0.010266 0.147350 0.164556
v 0.011863 0.147253 0.165309
v 0.013437 0.146557 0.165719
v 0.014747 0.145369 0.165723
v 0.007875 0.144537 0.160960
v 0.008513 0.146111 0.161452
v 0.009637 0.147262 0.162187
v 0.011077 0.147812 0.163054
v 0.012612 0.147680 0.163921
v 0.014010 0.146884 0.164657
v 0.015058 0.145546 0.165148
v 0.008222 0.144452 0.160385
v 0.009154 0.145955 0.160389
v 0.010475 0.147058 0.160799
v 0.011984 0.147591 0.161552
v 0.013450 0.147476 0.162534
v 0.014651 0.146728 0.163594
v 0.015405 0.145462 0.164573
v 0.008553 0.144119 0.159898
v 0.009766 0.145340 0.159489
v 0.011274 0.146253 0.159622
v 0.012849 0.146721 0.160278
v 0.014249 0.146671 0.161357
v 0.015263 0.146112 0.162694
v 0.015736 0.145129 0.164086
v 0.008817 0.143588 0.159572
v 0.010254 0.144358 0.158887
v 0.011913 0.144971 0.158836
v 0.013540 0.145333 0.159428
v 0.014888 0.145389 0.160571
v 0.015752 0.145131 0.162092
v 0.016000 0.144597 0.163760
v 0.008975 0.142940 0.159458
v 0.010546 0.143161 0.158676
v 0.012294 0.143406 0.158560
v 0.013952 0.143639 0.159129
v 0.015269 0.143824 0.160295
v 0.016043 0.143933 0.161881
v 0.016158 0.143949 0.163646
v 0.009002 0.142273 0.159572
v 0.010596 0.141929 0.158887
v 0.012359 0.141797 0.158836
v 0.014022 0.141898 0.159428
v 0.015334 0.142215 0.160571
v 0.016093 0.142702 0.162092
v 0.016185 0.143283 0.163760
v 0.008894 0.141690 0.159898
v 0.010397 0.140851 0.159489
v 0.012098 0.140389 0.159622
v 0.013741 0.140373 0.160278
v 0.015073 0.140807 0.161357
v 0.015894 0.141624 0.162694
v 0.016077 0.142699 0.164086
v 0.008668 0.141278 0.160385
v 0.009978 0.140091 0.160389
v 0.011552 0.139395 0.160799
v 0.013149 0.139298 0.161552
v 0.014527 0.139813 0.162534
v 0.015476 0.140863 0.163594
v 0.015851 0.142288 0.164573
vn -0.1920 -0.9634 -0.1872
vn -0.3775 -0.9181 0.1201
vn -0.6399 -0.7606 -0.1093
vn -0.4961 -0.7956 -0.3476
vn -0.7287 -0.5094 -0.4576
vn -0.8094 -0.4898 -0.3240
vn -0.8576 -0.1205 -0.5000
vn 0.8576 0.1205 0.5000
vn 0.7603 -0.2692 0.5911
vn 0.8409 -0.2889 0.4576
vn 0.6962 -0.6281 0.3476
vn 0.5524 -0.5930 0.5858
vn 0.2646 -0.8279 0.4945
vn 0.4501 -0.8731 0.1872
vn 0.1392 -0.9903 0.0000
vn -0.0609 -0.9415 0.3314
vn 0.4152 -0.4549 0.7878
vn 0.0876 -0.6498 0.7550
vn -0.2517 -0.7494 0.6124
vn -0.5544 -0.7400 0.3806
vn -0.7771 -0.6225 0.0926
vn -0.8863 -0.4124 -0.2107
vn 0.6834 -0.1918 0.7044
vn 0.6219 -0.0684 0.7801
vn 0.3056 -0.2348 0.9227
vn -0.0537 -0.3659 0.9291
vn -0.4042 -0.4432 0.8001
vn -0.6958 -0.4561 0.5547
vn -0.8867 -0.4024 0.2276
vn -0.9478 -0.2889 -0.1350
vn -0.1381 -0.0194 0.9902
vn -0.4951 -0.0696 0.8660
vn -0.7802 -0.1096 0.6159
vn -0.9521 -0.1338 0.2750
vn -0.9844 -0.1383 -0.1085
vn 0.5852 0.0822 0.8067
vn 0.2402 0.0338 0.9701
vn 0.5790 0.2371 0.7801
vn 0.2290 0.3100 0.9227
vn -0.1525 0.3369 0.9291
vn -0.5107 0.3146 0.8001
vn -0.7946 0.2467 0.5547
vn -0.9633 0.1424 0.2276
vn -0.9907 0.0165 -0.1350
vn -0.4485 0.6510 0.6124
vn -0.7370 0.5585 0.3806
vn -0.9186 0.3842 0.0926
vn -0.9656 0.1521 -0.2107
vn 0.6040 0.3727 0.7044
vn 0.2737 0.5518 0.7878
vn -0.0948 0.6488 0.7550
vn 0.6566 0.4683 0.5912
vn 0.3675 0.7223 0.5858
vn 0.0261 0.8688 0.4945
vn -0.3180 0.8882 0.3314
vn -0.6160 0.7785 0.1201
vn -0.8248 0.5547 -0.1093
vn -0.9130 0.2477 -0.3240
vn -0.4501 0.8731 -0.1872
vn -0.6962 0.6281 -0.3476
vn -0.8409 0.2889 -0.4576
vn 0.7287 0.5094 0.4576
vn 0.4961 0.7956 0.3476
vn 0.1920 0.9634 0.1872
vn -0.1392 0.9903 0.0000
vn 0.8094 0.4898 0.3240
vn 0.6399 0.7606 0.1093
vn 0.3775 0.9181 -0.1201
vn 0.0609 0.9415 -0.3314
vn -0.2646 0.8279 -0.4945
vn -0.5524 0.5930 -0.5858
vn -0.7603 0.2692 -0.5911
vn -0.4152 0.4549 -0.7878
vn -0.6834 0.1918 -0.7044
vn 0.8863 0.4124 0.2107
vn 0.7771 0.6225 -0.0926
vn 0.5544 0.7400 -0.3806
vn 0.2517 0.7494 -0.6124
vn -0.0876 0.6498 -0.7550
vn 0.9478 0.2889 0.1350
vn 0.8867 0.4024 -0.2276
vn 0.6958 0.4561 -0.5547
vn 0.4042 0.4432 -0.8001
vn 0.0537 0.3659 -0.9291
vn -0.3056 0.2348 -0.9227
vn -0.6219 0.0684 -0.7801
vn -0.5852 -0.0822 -0.8067
vn 0.9844 0.1383 0.1085
vn 0.9521 0.1338 -0.2750
vn 0.7802 0.1096 -0.6159
vn 0.4951 0.0696 -0.8660
vn 0.1381 0.0194 -0.9902
vn -0.2402 -0.0338 -0.9701
vn 0.9633 -0.1424 -0.2276
vn 0.7946 -0.2467 -0.5547
vn 0.5107 -0.3146 -0.8001
vn 0.1525 -0.3369 -0.9291
vn -0.2290 -0.3100 -0.9227
vn -0.5790 -0.2371 -0.7801
vn 0.9907 -0.0165 0.1350
vn 0.9656 -0.1521 0.2107
vn 0.9186 -0.3842 -0.0926
vn 0.7370 -0.5585 -0.3807
vn 0.4485 -0.6510 -0.6124
vn 0.0948 -0.6488 -0.7550
vn -0.2737 -0.5518 -0.7878
vn -0.6040 -0.3727 -0.7044
vn 0.6160 -0.7785 -0.1201
vn 0.3180 -0.8882 -0.3314
vn -0.0261 -0.8688 -0.4945
vn -0.3675 -0.7223 -0.5858
vn -0.6566 -0.4683 -0.5912
vn 0.9130 -0.2477 0.3240
vn 0.8248 -0.5547 0.1093
usemtl eyes
s 1
f 3//1 10//2 9//3 2//4
f 1//5 8//6 44//7
f 22//8 14//9 7//10
f 6//11 13//12 12//13 5//14
f 4//15 11//16 10//2 3//1
f 2//4 9//3 8//6 1//5
f 7//10 14//9 13//12 6//11
f 5//14 12//13 11//16 4//15
f 13//12 20//17 19//18 12//13
f 11//16 18//19 17//20 10//2
f 9//3 16//21 15//22 8//6
f 14//9 21//23 20//17 13//12
f 12//13 19//18 18//19 11//16
f 10//2 17//20 16//21 9//3
f 8//6 15//22 44//7
f 22//8 21//23 14//9
f 21//23 29//24 28//25 20//17
f 19//18 27//26 26//27 18//19
f 17//20 25//28 24//29 16//21
f 15//22 23//30 44//7
f 22//8 29//24 21//23
f 20//17 28//25 27//26 19//18
f 18//19 26//27 25//28 17//20
f 16//21 24//29 23//30 15//22
f 27//26 34//31 33//32 26//27
f 25//28 32//33 31//34 24//29
f 23//30 30//35 44//7
f 22//8 36//36 29//24
f 28//25 35//37 34//31 27//26
f 26//27 33//32 32//33 25//28
f 24//29 31//34 30//35 23//30
f 29//24 36//36 35//37 28//25
f 22//8 43//38 36//36
f 35//37 42//39 41//40 34//31
f 33//32 40//41 39//42 32//33
f 31//34 38//43 37//44 30//35
f 36//36 43//38 42//39 35//37
f 34//31 41//40 40//41 33//32
f 32//33 39//42 38//43 31//34
f 30//35 37//44 44//7
f 40//41 48//45 47//46 39//42
f 38//43 46//47 45//48 37//44
f 43//38 51//49 50//50 42//39
f 41//40 49//51 48//45 40//41
f 39//42 47//46 46//47 38//43
f 37//44 45//48 44//7
f 22//8 51//49 43//38
f 42//39 50//50 49//51 41//40
f 51//49 58//52 57//53 50//50
f 49//51 56//54 55//55 48//45
f 47//46 54//56 53//57 46//47
f 45//48 52//58 44//7
f 22//8 58//52 51//49
f 50//50 57//53 56//54 49//51
f 48//45 55//55 54//56 47//46
f 46//47 53//57 52//58 45//48
f 54//56 61//59 60//60 53//57
f 52//58 59//61 44//7
f 22//8 65//62 58//52
f 57//53 64//63 63//64 56//54
f 55//55 62//65 61//59 54//56
f 53//57 60//60 59//61 52//58
f 58//52 65//62 64//63 57//53
f 56//54 63//64 62//65 55//55
f 22//8 72//66 65//62
f 64//63 71//67 70//68 63//64
f 62//65 69//69 68//70 61//59
f 60//60 67//71 66//72 59//61
f 65//62 72//66 71//67 64//63
f 63//64 70//68 69//69 62//65
f 61//59 68//70 67//71 60//60
f 59//61 66//72 44//7
f 67//71 74//73 73//74 66//72
f 72//66 79//75 78//76 71//67
f 70//68 77//77 76//78 69//69
f 68//70 75//79 74//73 67//71
f 66//72 73//74 44//7
f 22//8 79//75 72//66
f 71//67 78//76 77//77 70//68
f 69//69 76//78 75//79 68//70
f 79//75 86//80 85//81 78//76
f 77//77 84//82 83//83 76//78
f 75//79 82//84 81//85 74//73
f 73//74 80//86 44//7
f 22//8 86//80 79//75
f 78//76 85//81 84//82 77//77
f 76//78 83//83 82//84 75//79
f 74//73 81//85 80//86 73//74
f 80//86 87//87 44//7
f 22//8 93//88 86//80
f 85//81 92//89 91//90 84//82
f 83//83 90//91 89//92 82//84
f 81//85 88//93 87//87 80//86
f 86//80 93//88 92//89 85//81
f 84//82 91//90 90//91 83//83
f 82//84 89//92 88//93 81//85
f 92//89 99//94 98//95 91//90
f 90//91 97//96 96//97 89//92
f 88//93 95//98 94//99 87//87
f 93//88 100//100 99//94 92//89
f 91//90 98//95 97//96 90//91
f 89//92 96//97 95//98 88//93
f 87//87 94//99 44//7
f 22//8 100//100 93//88
f 100//100 107//101 106//102 99//94
f 98//95 105//103 104//104 97//96
f 96//97 103//105 102//106 95//98
f 94//99 101//107 44//7
f 22//8 107//101 100//100
f 99//94 106//102 105//103 98//95
f 97//96 104//104 103//105 96//97
f 95//98 102//106 101//107 94//99
f 105//103 112//108 111//109 104//104
f 103//105 110//110 109//111 102//106
f 101//107 108//112 44//7
f 22//8 114//113 107//101
f 106//102 113//114 112//108 105//103
f 104//104 111//109 110//110 103//105
f 102//106 109//111 108//112 101//107
f 107//101 114//113 113//114 106//102
f 22//8 7//10 114//113
f 113//114 6//11 5//14 112//108
f 111//109 4//15 3//1 110//110
f 109//111 2//4 1//5 108//112
f 114//113 7//10 6//11 113//114
f 112//108 5//14 4//15 111//109
f 110//110 3//1 2//4 109//111
f 108//112 1//5 44//7
