# Blender v2.79 (sub 0) OBJ File: 'mouse_base_mesh_BI.blend'
# www.blender.org
mtllib mouse_eye.mtl
o eye
v 0.006398 0.028022 0.042416
v 0.005934 0.028704 0.042214
v 0.005271 0.029140 0.041913
v 0.004508 0.029265 0.041561
v 0.003763 0.029059 0.041210
v 0.003148 0.028553 0.040913
v 0.002758 0.027824 0.040717
v 0.006536 0.027964 0.042128
v 0.006189 0.028598 0.041681
v 0.005603 0.029001 0.041217
v 0.004868 0.029114 0.040807
v 0.004096 0.028919 0.040513
v 0.003403 0.028446 0.040380
v 0.002896 0.027767 0.040429
v 0.006659 0.027789 0.041884
v 0.006417 0.028273 0.041230
v 0.005902 0.028578 0.040627
v 0.005191 0.028656 0.040169
v 0.004394 0.028496 0.039923
v 0.003631 0.028122 0.039929
v 0.003020 0.027591 0.040185
v 0.002652 0.026984 0.040651
v 0.006750 0.027522 0.041721
v 0.006584 0.027781 0.040929
v 0.006120 0.027934 0.040235
v 0.005427 0.027959 0.039744
v 0.004612 0.027852 0.039531
v 0.003798 0.027629 0.039629
v 0.003110 0.027325 0.040022
v 0.006793 0.027205 0.041665
v 0.006664 0.027195 0.040826
v 0.006224 0.027168 0.040100
v 0.005540 0.027130 0.039598
v 0.004717 0.027086 0.039396
v 0.003878 0.027043 0.039525
v 0.003153 0.027007 0.039966
v 0.006783 0.026886 0.041724
v 0.006645 0.026604 0.040935
v 0.006200 0.026397 0.040242
v 0.005514 0.026296 0.039752
v 0.004692 0.026315 0.039538
v 0.003860 0.026453 0.039634
v 0.003143 0.026688 0.040025
v 0.006591 0.027198 0.042490
v 0.006721 0.026613 0.041889
v 0.006531 0.026100 0.041240
v 0.006050 0.025738 0.040640
v 0.005352 0.025582 0.040183
v 0.004542 0.025656 0.039936
v 0.003745 0.025948 0.039939
v 0.003081 0.026415 0.040190
v 0.006616 0.026427 0.042135
v 0.006337 0.025758 0.041694
v 0.005797 0.025291 0.041234
v 0.005078 0.025098 0.040825
v 0.004289 0.025209 0.040530
v 0.003551 0.025606 0.040393
v 0.002976 0.026230 0.040436
v 0.006485 0.026358 0.042424
v 0.006095 0.025630 0.042228
v 0.005480 0.025124 0.041932
v 0.004735 0.024918 0.041581
v 0.003973 0.025042 0.041228
v 0.003309 0.025479 0.040927
v 0.002845 0.026161 0.040725
v 0.006347 0.026416 0.042713
v 0.005840 0.025737 0.042761
v 0.005147 0.025263 0.042629
v 0.004375 0.025068 0.042335
v 0.003640 0.025181 0.041925
v 0.003054 0.025585 0.041461
v 0.002707 0.026218 0.041013
v 0.006224 0.026592 0.042957
v 0.005612 0.026061 0.043212
v 0.004849 0.025687 0.043218
v 0.004052 0.025527 0.042973
v 0.003342 0.025605 0.042514
v 0.002826 0.025909 0.041912
v 0.002584 0.026394 0.041258
v 0.006133 0.026858 0.043119
v 0.005445 0.026553 0.043512
v 0.004631 0.026331 0.043610
v 0.003816 0.026224 0.043397
v 0.003124 0.026249 0.042906
v 0.002659 0.026402 0.042212
v 0.002493 0.026660 0.041420
v 0.006090 0.027175 0.043175
v 0.005365 0.027139 0.043616
v 0.004526 0.027096 0.043745
v 0.003703 0.027052 0.043543
v 0.003019 0.027014 0.043041
v 0.002579 0.026988 0.042315
v 0.002450 0.026978 0.041476
v 0.006100 0.027495 0.043116
v 0.005383 0.027730 0.043507
v 0.004551 0.027868 0.043603
v 0.003729 0.027887 0.043389
v 0.003043 0.027786 0.042899
v 0.002598 0.027578 0.042206
v 0.002460 0.027297 0.041417
v 0.006162 0.027768 0.042951
v 0.005498 0.028234 0.043202
v 0.004701 0.028527 0.043205
v 0.003892 0.028601 0.042959
v 0.003193 0.028445 0.042501
v 0.002712 0.028083 0.041902
v 0.002522 0.027570 0.041252
v 0.006267 0.027953 0.042706
v 0.005692 0.028576 0.042748
v 0.004954 0.028974 0.042612
v 0.004165 0.029085 0.042316
v 0.003446 0.028892 0.041908
v 0.002906 0.028425 0.041448
v 0.002627 0.027755 0.041006
vn -0.8492 0.3575 -0.3885
vn -0.6666 0.6837 -0.2970
vn -0.5476 0.6340 -0.5461
vn -0.7825 0.3296 -0.5282
vn -0.3871 0.9076 -0.1624
vn -0.0521 0.9986 -0.0045
vn 0.1134 0.9294 -0.3511
vn -0.2336 0.8434 -0.4837
vn 0.2904 0.9444 0.1539
vn 0.5916 0.7520 0.2904
vn 0.7106 0.7023 0.0413
vn 0.4439 0.8803 -0.1673
vn 0.8072 0.4475 0.3848
vn 0.9050 0.0492 0.4225
vn 0.8739 0.4197 0.2451
vn -0.9050 -0.0492 -0.4225
vn -0.7228 0.2447 -0.6463
vn -0.0962 0.6481 -0.7554
vn -0.4410 0.4825 -0.7567
vn 0.5814 0.6849 -0.4391
vn 0.2616 0.7188 -0.6441
vn 0.9337 0.3347 0.1270
vn 0.8172 0.5509 -0.1693
vn 0.6819 0.3881 -0.6199
vn 0.3700 0.3987 -0.8391
vn 0.9774 0.2057 0.0484
vn 0.8951 0.3208 -0.3095
vn -0.3631 0.2524 -0.8969
vn -0.6791 0.1157 -0.7249
vn 0.0043 0.3513 -0.9362
vn -0.3257 -0.0213 -0.9452
vn -0.6581 -0.0378 -0.7520
vn 0.4221 0.0179 -0.9063
vn 0.0526 -0.0018 -0.9986
vn 0.9326 0.0470 -0.3578
vn 0.7302 0.0350 -0.6822
vn 0.9984 0.0522 0.0213
vn 0.9238 -0.2286 -0.3070
vn 0.7190 -0.3206 -0.6167
vn 0.9935 -0.1024 0.0498
vn -0.6630 -0.1924 -0.7235
vn 0.0413 -0.3574 -0.9330
vn -0.3344 -0.2970 -0.8944
vn 0.4100 -0.3656 -0.8356
vn -0.6930 -0.3245 -0.6437
vn -0.0278 -0.6615 -0.7494
vn -0.3880 -0.5327 -0.7521
vn 0.6498 -0.6246 -0.4331
vn 0.3354 -0.6935 -0.6377
vn 0.9634 -0.2345 0.1296
vn 0.8702 -0.4643 -0.1647
vn 0.9127 -0.3241 0.2485
vn 0.7799 -0.6241 0.0474
vn -0.4784 -0.6925 -0.5400
vn -0.7437 -0.4141 -0.5248
vn 0.2097 -0.9157 -0.3426
vn -0.1443 -0.8675 -0.4759
vn 0.5332 -0.8307 -0.1595
vn -0.5916 -0.7520 -0.2904
vn -0.8072 -0.4475 -0.3848
vn 0.0521 -0.9986 0.0045
vn -0.2904 -0.9444 -0.1539
vn 0.6666 -0.6837 0.2970
vn 0.3871 -0.9076 0.1624
vn 0.8492 -0.3575 0.3885
vn 0.7825 -0.3296 0.5282
vn -0.8739 -0.4197 -0.2451
vn -0.4439 -0.8803 0.1673
vn -0.7106 -0.7023 -0.0413
vn 0.2336 -0.8434 0.4837
vn -0.1134 -0.9294 0.3511
vn 0.5476 -0.6340 0.5461
vn -0.5814 -0.6849 0.4391
vn -0.8172 -0.5509 0.1693
vn 0.0962 -0.6481 0.7554
vn -0.2616 -0.7188 0.6441
vn 0.7228 -0.2447 0.6463
vn 0.4410 -0.4825 0.7567
vn -0.9337 -0.3347 -0.1270
vn -0.8951 -0.3208 0.3095
vn -0.9774 -0.2057 -0.0484
vn -0.3701 -0.3987 0.8391
vn -0.6819 -0.3881 0.6199
vn 0.3631 -0.2524 0.8969
vn -0.0043 -0.3513 0.9362
vn 0.6791 -0.1157 0.7249
vn -0.4221 -0.0179 0.9063
vn -0.7302 -0.0350 0.6822
vn 0.3257 0.0213 0.9452
vn -0.0526 0.0018 0.9986
vn 0.6581 0.0378 0.7520
vn -0.9984 -0.0522 -0.0213
vn -0.9326 -0.0470 0.3578
vn -0.9935 0.1024 -0.0498
vn -0.7190 0.3206 0.6167
vn -0.9238 0.2286 0.3070
vn -0.0413 0.3574 0.9330
vn -0.4100 0.3656 0.8356
vn 0.6630 0.1924 0.7235
vn 0.3344 0.2970 0.8944
vn 0.0278 0.6615 0.7494
vn -0.3354 0.6935 0.6377
vn 0.6930 0.3245 0.6437
vn 0.3880 0.5327 0.7521
vn -0.8702 0.4643 0.1647
vn -0.9634 0.2345 -0.1296
vn -0.6498 0.6246 0.4331
vn -0.7799 0.6241 -0.0474
vn -0.9128 0.3241 -0.2485
vn -0.2097 0.9157 0.3426
vn -0.5332 0.8307 0.1595
vn 0.4784 0.6925 0.5400
vn 0.1443 0.8676 0.4759
vn 0.7437 0.4141 0.5248
usemtl eyes
s 1
f 7//1 6//2 13//3 14//4
f 5//5 4//6 11//7 12//8
f 3//9 2//10 9//11 10//12
f 1//13 44//14 8//15
f 22//16 7//1 14//4
f 6//2 5//5 12//8 13//3
f 4//6 3//9 10//12 11//7
f 2//10 1//13 8//15 9//11
f 22//16 14//4 21//17
f 13//3 12//8 19//18 20//19
f 11//7 10//12 17//20 18//21
f 9//11 8//15 15//22 16//23
f 14//4 13//3 20//19 21//17
f 12//8 11//7 18//21 19//18
f 10//12 9//11 16//23 17//20
f 8//15 44//14 15//22
f 18//21 17//20 25//24 26//25
f 16//23 15//22 23//26 24//27
f 21//17 20//19 28//28 29//29
f 19//18 18//21 26//25 27//30
f 17//20 16//23 24//27 25//24
f 15//22 44//14 23//26
f 22//16 21//17 29//29
f 20//19 19//18 27//30 28//28
f 29//29 28//28 35//31 36//32
f 27//30 26//25 33//33 34//34
f 25//24 24//27 31//35 32//36
f 23//26 44//14 30//37
f 22//16 29//29 36//32
f 28//28 27//30 34//34 35//31
f 26//25 25//24 32//36 33//33
f 24//27 23//26 30//37 31//35
f 32//36 31//35 38//38 39//39
f 30//37 44//14 37//40
f 22//16 36//32 43//41
f 35//31 34//34 41//42 42//43
f 33//33 32//36 39//39 40//44
f 31//35 30//37 37//40 38//38
f 36//32 35//31 42//43 43//41
f 34//34 33//33 40//44 41//42
f 22//16 43//41 51//45
f 42//43 41//42 49//46 50//47
f 40//44 39//39 47//48 48//49
f 38//38 37//40 45//50 46//51
f 43//41 42//43 50//47 51//45
f 41//42 40//44 48//49 49//46
f 39//39 38//38 46//51 47//48
f 37//40 44//14 45//50
f 46//51 45//50 52//52 53//53
f 51//45 50//47 57//54 58//55
f 49//46 48//49 55//56 56//57
f 47//48 46//51 53//53 54//58
f 45//50 44//14 52//52
f 22//16 51//45 58//55
f 50//47 49//46 56//57 57//54
f 48//49 47//48 54//58 55//56
f 58//55 57//54 64//59 65//60
f 56//57 55//56 62//61 63//62
f 54//58 53//53 60//63 61//64
f 52//52 44//14 59//65
f 22//16 58//55 65//60
f 57//54 56//57 63//62 64//59
f 55//56 54//58 61//64 62//61
f 53//53 52//52 59//65 60//63
f 59//65 44//14 66//66
f 22//16 65//60 72//67
f 64//59 63//62 70//68 71//69
f 62//61 61//64 68//70 69//71
f 60//63 59//65 66//66 67//72
f 65//60 64//59 71//69 72//67
f 63//62 62//61 69//71 70//68
f 61//64 60//63 67//72 68//70
f 71//69 70//68 77//73 78//74
f 69//71 68//70 75//75 76//76
f 67//72 66//66 73//77 74//78
f 72//67 71//69 78//74 79//79
f 70//68 69//71 76//76 77//73
f 68//70 67//72 74//78 75//75
f 66//66 44//14 73//77
f 22//16 72//67 79//79
f 79//79 78//74 85//80 86//81
f 77//73 76//76 83//82 84//83
f 75//75 74//78 81//84 82//85
f 73//77 44//14 80//86
f 22//16 79//79 86//81
f 78//74 77//73 84//83 85//80
f 76//76 75//75 82//85 83//82
f 74//78 73//77 80//86 81//84
f 84//83 83//82 90//87 91//88
f 82//85 81//84 88//89 89//90
f 80//86 44//14 87//91
f 22//16 86//81 93//92
f 85//80 84//83 91//88 92//93
f 83//82 82//85 89//90 90//87
f 81//84 80//86 87//91 88//89
f 86//81 85//80 92//93 93//92
f 22//16 93//92 100//94
f 92//93 91//88 98//95 99//96
f 90//87 89//90 96//97 97//98
f 88//89 87//91 94//99 95//100
f 93//92 92//93 99//96 100//94
f 91//88 90//87 97//98 98//95
f 89//90 88//89 95//100 96//97
f 87//91 44//14 94//99
f 97//98 96//97 103//101 104//102
f 95//100 94//99 101//103 102//104
f 100//94 99//96 106//105 107//106
f 98//95 97//98 104//102 105//107
f 96//97 95//100 102//104 103//101
f 94//99 44//14 101//103
f 22//16 100//94 107//106
f 99//96 98//95 105//107 106//105
f 107//106 106//105 113//108 114//109
f 105//107 104//102 111//110 112//111
f 103//101 102//104 109//112 110//113
f 101//103 44//14 108//114
f 22//16 107//106 114//109
f 106//105 105//107 112//111 113//108
f 104//102 103//101 110//113 111//110
f 102//104 101//103 108//114 109//112
f 110//113 109//112 2//10 3//9
f 108//114 44//14 1//13
f 22//16 114//109 7//1
f 113//108 112//111 5//5 6//2
f 111//110 110//113 3//9 4//6
f 109//112 108//114 1//13 2//10
f 114//109 113//108 6//2 7//1
f 112//111 111//110 4//6 5//5
