# Blender v2.79 (sub 0) OBJ File: 'ostrich_base_mesh_BI.blend'
# www.blender.org
mtllib ostrich_feather_flight_tertiary_048.mtl
o feather_flight_tertiary_048
v 0.469090 1.247726 0.255543
v 0.453059 1.244574 0.255494
v 0.486256 1.182838 0.255134
v 0.464378 1.178536 0.255067
v 0.460343 1.249483 0.253938
v 0.476105 1.177032 0.253475
v 0.475860 1.237498 0.255486
v 0.482663 1.223788 0.255405
v 0.488144 1.209817 0.255320
v 0.490632 1.195258 0.255226
v 0.455178 1.188287 0.255116
v 0.451387 1.202589 0.255207
v 0.450588 1.217480 0.255306
v 0.451112 1.232632 0.255409
v 0.463483 1.235052 0.253846
v 0.466622 1.220621 0.253753
v 0.469762 1.206190 0.253661
v 0.472901 1.191759 0.253569
vn 0.0046 -0.0088 -0.9999
vn 0.0989 0.0148 -0.9950
vn 0.1175 0.0017 -0.9930
vn 0.0090 -0.0220 -0.9997
vn -0.0904 -0.0261 -0.9955
vn -0.1028 -0.0462 -0.9936
vn -0.0058 0.0327 -0.9994
vn 0.1494 0.0660 -0.9865
vn 0.1233 0.0525 -0.9910
vn -0.0020 0.0269 -0.9996
vn 0.0966 0.0377 -0.9946
vn -0.0002 0.0172 -0.9998
vn 0.0880 0.0280 -0.9957
vn 0.0012 0.0094 -0.9999
vn -0.1566 -0.0005 -0.9876
vn -0.1280 -0.0020 -0.9918
vn -0.0974 -0.0043 -0.9952
vn -0.0856 -0.0096 -0.9963
usemtl feather_001
s 1
f 18//1 10//2 3//3 6//4
f 11//5 18//1 6//4 4//6
f 5//7 1//8 7//9 15//10
f 15//10 7//9 8//11 16//12
f 16//12 8//11 9//13 17//14
f 17//14 9//13 10//2 18//1
f 2//15 5//7 15//10 14//16
f 14//16 15//10 16//12 13//17
f 13//17 16//12 17//14 12//18
f 12//18 17//14 18//1 11//5
