# Blender v2.79 (sub 0) OBJ File: 'ostrich_base_mesh_BI.blend'
# www.blender.org
mtllib ostrich_feather_flight_tertiary_013.mtl
o feather_flight_tertiary_013
v 0.583723 1.248623 0.261810
v 0.567367 1.243364 0.261926
v 0.610888 1.181572 0.262056
v 0.588568 1.174396 0.262214
v 0.574297 1.249458 0.263457
v 0.601062 1.174189 0.263752
v 0.592264 1.238536 0.261824
v 0.601333 1.224745 0.261857
v 0.609052 1.210521 0.261899
v 0.613719 1.195315 0.261962
v 0.577547 1.183686 0.262217
v 0.571552 1.198465 0.262163
v 0.568609 1.214225 0.262088
v 0.567015 1.230419 0.262002
v 0.579629 1.234466 0.263516
v 0.584960 1.219474 0.263575
v 0.590291 1.204481 0.263633
v 0.595622 1.189489 0.263692
vn -0.0093 0.0083 -0.9999
vn -0.0959 -0.0252 -0.9951
vn -0.1145 -0.0155 -0.9933
vn -0.0157 0.0197 -0.9997
vn 0.0781 0.0361 -0.9963
vn 0.0877 0.0564 -0.9945
vn 0.0058 -0.0284 -0.9996
vn -0.1378 -0.0791 -0.9873
vn -0.1146 -0.0632 -0.9914
vn 0.0005 -0.0239 -0.9997
vn -0.0910 -0.0462 -0.9948
vn -0.0022 -0.0152 -0.9999
vn -0.0840 -0.0361 -0.9958
vn -0.0043 -0.0081 -0.9999
vn 0.1433 0.0208 -0.9894
vn 0.1164 0.0186 -0.9930
vn 0.0870 0.0169 -0.9960
vn 0.0753 0.0203 -0.9969
usemtl feather_001
s 1
f 18//1 10//2 3//3 6//4
f 11//5 18//1 6//4 4//6
f 5//7 1//8 7//9 15//10
f 15//10 7//9 8//11 16//12
f 16//12 8//11 9//13 17//14
f 17//14 9//13 10//2 18//1
f 2//15 5//7 15//10 14//16
f 14//16 15//10 16//12 13//17
f 13//17 16//12 17//14 12//18
f 12//18 17//14 18//1 11//5
