# Blender v2.79 (sub 0) OBJ File: 'ostrich_base_mesh_BI.blend'
# www.blender.org
mtllib ostrich_feather_tail_primary_025.mtl
o feather_tail_primary_025
v 0.011438 1.334932 -0.640392
v -0.011438 1.334932 -0.640392
v 0.015363 1.185653 -0.763756
v -0.015363 1.185653 -0.763756
v -0.000000 1.340736 -0.639768
v -0.000000 1.179876 -0.772704
v 0.016579 1.322491 -0.650673
v 0.020430 1.306294 -0.664058
v 0.023289 1.214291 -0.740089
v 0.021291 1.198095 -0.753474
v -0.021291 1.198095 -0.753474
v -0.023289 1.214291 -0.740089
v -0.020430 1.306294 -0.664058
v -0.016579 1.322491 -0.650673
v -0.000000 1.324540 -0.653153
v -0.000000 1.308343 -0.666538
v -0.000000 1.216341 -0.742569
v -0.000000 1.200144 -0.755954
v 0.023435 1.232692 -0.724883
v 0.023157 1.251092 -0.709677
v 0.022694 1.269493 -0.694470
v 0.022055 1.287893 -0.679264
v -0.022055 1.287893 -0.679264
v -0.022694 1.269493 -0.694470
v -0.023157 1.251092 -0.709677
v -0.023435 1.232692 -0.724883
v -0.000000 1.234741 -0.727363
v -0.000000 1.253142 -0.712156
v -0.000000 1.271542 -0.696950
v -0.000000 1.289943 -0.681744
vn 0.0000 0.6245 -0.7810
vn 0.1584 0.6177 -0.7703
vn 0.1795 0.6071 -0.7740
vn 0.0000 0.6171 -0.7868
vn -0.1584 0.6177 -0.7703
vn -0.1795 0.6071 -0.7740
vn 0.0000 0.6618 -0.7497
vn 0.2289 0.6442 -0.7298
vn 0.1956 0.6418 -0.7414
vn 0.0000 0.6555 -0.7552
vn 0.1596 0.6365 -0.7546
vn 0.0000 0.6451 -0.7641
vn 0.0000 0.6372 -0.7707
vn 0.1366 0.6312 -0.7635
vn 0.1395 0.6281 -0.7655
vn 0.0000 0.6342 -0.7731
vn -0.2289 0.6442 -0.7298
vn -0.1956 0.6418 -0.7414
vn -0.1596 0.6365 -0.7546
vn -0.1366 0.6312 -0.7635
vn -0.1395 0.6281 -0.7655
vn 0.1459 0.6329 -0.7604
vn 0.0000 0.6397 -0.7686
vn 0.1406 0.6319 -0.7621
vn 0.0000 0.6383 -0.7698
vn 0.1379 0.6318 -0.7628
vn 0.0000 0.6378 -0.7701
vn -0.1459 0.6329 -0.7604
vn -0.1406 0.6319 -0.7621
vn -0.1379 0.6318 -0.7628
usemtl feather_003
s 1
f 18//1 10//2 3//3 6//4
f 11//5 18//1 6//4 4//6
f 5//7 1//8 7//9 15//10
f 15//10 7//9 8//11 16//12
f 27//13 19//14 9//15 17//16
f 17//16 9//15 10//2 18//1
f 2//17 5//7 15//10 14//18
f 14//18 15//10 16//12 13//19
f 26//20 27//13 17//16 12//21
f 12//21 17//16 18//1 11//5
f 16//12 8//11 22//22 30//23
f 30//23 22//22 21//24 29//25
f 29//25 21//24 20//26 28//27
f 28//27 20//26 19//14 27//13
f 13//19 16//12 30//23 23//28
f 23//28 30//23 29//25 24//29
f 24//29 29//25 28//27 25//30
f 25//30 28//27 27//13 26//20
