# Blender v2.79 (sub 0) OBJ File: 'ostrich_base_mesh_BI.blend'
# www.blender.org
mtllib ostrich_feather_flight_tertiary_064.mtl
o feather_flight_tertiary_064
v 0.863596 1.254876 0.255797
v 0.860983 1.242535 0.255987
v 0.936564 1.242760 0.255196
v 0.932998 1.225920 0.255455
v 0.858607 1.249466 0.254390
v 0.938837 1.233567 0.253762
v 0.876582 1.255797 0.255650
v 0.893160 1.255451 0.255481
v 0.909522 1.254085 0.255329
v 0.925396 1.250418 0.255211
v 0.919616 1.223127 0.255631
v 0.903530 1.225793 0.255764
v 0.887931 1.230761 0.255861
v 0.872548 1.236748 0.255943
v 0.874588 1.246299 0.254265
v 0.890568 1.243132 0.254140
v 0.906548 1.239965 0.254015
v 0.922529 1.236798 0.253890
vn 0.0031 -0.0156 -0.9998
vn 0.0248 0.1034 -0.9943
vn 0.0419 0.1187 -0.9920
vn 0.0151 -0.0168 -0.9997
vn -0.0223 -0.1332 -0.9908
vn -0.0124 -0.1541 -0.9880
vn -0.0335 -0.0095 -0.9994
vn 0.0048 0.1819 -0.9833
vn 0.0045 0.1482 -0.9889
vn -0.0275 -0.0083 -0.9996
vn 0.0049 0.1097 -0.9939
vn -0.0193 -0.0106 -0.9998
vn 0.0089 0.0953 -0.9954
vn -0.0126 -0.0122 -0.9998
vn -0.0696 -0.1958 -0.9781
vn -0.0575 -0.1660 -0.9844
vn -0.0428 -0.1314 -0.9904
vn -0.0338 -0.1198 -0.9922
usemtl feather_001
s 1
f 18//1 10//2 3//3 6//4
f 11//5 18//1 6//4 4//6
f 5//7 1//8 7//9 15//10
f 15//10 7//9 8//11 16//12
f 16//12 8//11 9//13 17//14
f 17//14 9//13 10//2 18//1
f 2//15 5//7 15//10 14//16
f 14//16 15//10 16//12 13//17
f 13//17 16//12 17//14 12//18
f 12//18 17//14 18//1 11//5
