# Blender v2.79 (sub 0) OBJ File: 'ostrich_base_mesh_BI.blend'
# www.blender.org
mtllib ostrich_feather_flight_tertiary_052.mtl
o feather_flight_tertiary_052
v 0.564817 1.248533 0.255542
v 0.546955 1.244188 0.255542
v 0.584385 1.188498 0.255542
v 0.560010 1.182569 0.255542
v 0.555052 1.249469 0.253941
v 0.573105 1.182150 0.253941
v 0.572435 1.239414 0.255542
v 0.580112 1.226997 0.255542
v 0.586316 1.214223 0.255542
v 0.589186 1.200638 0.255542
v 0.549685 1.191030 0.255542
v 0.545364 1.204262 0.255542
v 0.544376 1.218305 0.255542
v 0.544862 1.232707 0.255542
v 0.558648 1.236060 0.253941
v 0.562244 1.222651 0.253941
v 0.565840 1.209242 0.253941
v 0.569435 1.195834 0.253941
vn 0.0038 -0.0164 -0.9998
vn 0.0859 0.0095 -0.9962
vn 0.1043 -0.0045 -0.9945
vn 0.0091 -0.0302 -0.9995
vn -0.0795 -0.0344 -0.9962
vn -0.0894 -0.0565 -0.9944
vn -0.0090 0.0273 -0.9996
vn 0.1280 0.0637 -0.9897
vn 0.1048 0.0486 -0.9933
vn -0.0048 0.0212 -0.9998
vn 0.0823 0.0331 -0.9960
vn -0.0026 0.0110 -0.9999
vn 0.0756 0.0229 -0.9969
vn -0.0006 0.0028 -1.0000
vn -0.1415 -0.0085 -0.9899
vn -0.1147 -0.0100 -0.9933
vn -0.0877 -0.0123 -0.9961
vn -0.0769 -0.0178 -0.9969
usemtl feather_001
s 1
f 18//1 10//2 3//3 6//4
f 11//5 18//1 6//4 4//6
f 5//7 1//8 7//9 15//10
f 15//10 7//9 8//11 16//12
f 16//12 8//11 9//13 17//14
f 17//14 9//13 10//2 18//1
f 2//15 5//7 15//10 14//16
f 14//16 15//10 16//12 13//17
f 13//17 16//12 17//14 12//18
f 12//18 17//14 18//1 11//5
