# Blender v2.79 (sub 0) OBJ File: 'ostrich_base_mesh_BI.blend'
# www.blender.org
mtllib ostrich_feather_flight_tertiary_054.mtl
o feather_flight_tertiary_054
v 0.608436 1.249511 0.255590
v 0.591897 1.242936 0.255469
v 0.639155 1.187691 0.255356
v 0.616585 1.178719 0.255190
v 0.598740 1.249432 0.253940
v 0.629401 1.179687 0.253656
v 0.617623 1.240627 0.255580
v 0.627510 1.228238 0.255551
v 0.636032 1.215305 0.255512
v 0.641468 1.201146 0.255450
v 0.604891 1.186606 0.255182
v 0.598112 1.200231 0.255234
v 0.594420 1.215083 0.255308
v 0.592092 1.230478 0.255393
v 0.604847 1.235540 0.253884
v 0.610954 1.221648 0.253827
v 0.617061 1.207756 0.253771
v 0.623169 1.193864 0.253714
vn 0.0102 -0.0083 -0.9999
vn 0.0909 0.0304 -0.9954
vn 0.1102 0.0211 -0.9937
vn 0.0179 -0.0197 -0.9996
vn -0.0720 -0.0405 -0.9966
vn -0.0795 -0.0624 -0.9949
vn -0.0085 0.0290 -0.9995
vn 0.1268 0.0881 -0.9880
vn 0.1055 0.0703 -0.9919
vn -0.0023 0.0248 -0.9997
vn 0.0843 0.0519 -0.9951
vn 0.0010 0.0159 -0.9998
vn 0.0785 0.0411 -0.9960
vn 0.0038 0.0086 -0.9999
vn -0.1371 -0.0278 -0.9901
vn -0.1107 -0.0243 -0.9935
vn -0.0826 -0.0213 -0.9963
vn -0.0709 -0.0243 -0.9972
usemtl feather_001
s 1
f 18//1 10//2 3//3 6//4
f 11//5 18//1 6//4 4//6
f 5//7 1//8 7//9 15//10
f 15//10 7//9 8//11 16//12
f 16//12 8//11 9//13 17//14
f 17//14 9//13 10//2 18//1
f 2//15 5//7 15//10 14//16
f 14//16 15//10 16//12 13//17
f 13//17 16//12 17//14 12//18
f 12//18 17//14 18//1 11//5
