# Blender v2.79 (sub 0) OBJ File: 'ostrich_base_mesh_BI.blend'
# www.blender.org
mtllib ostrich_feather_flight_tertiary_047.mtl
o feather_flight_tertiary_047
v 0.442286 1.247102 0.255541
v 0.425202 1.245184 0.255511
v 0.453473 1.182364 0.255276
v 0.430159 1.179747 0.255235
v 0.433329 1.249461 0.253939
v 0.442262 1.177426 0.253639
v 0.448297 1.236601 0.255504
v 0.453981 1.222691 0.255451
v 0.458254 1.208623 0.255396
v 0.459340 1.194197 0.255335
v 0.421558 1.189957 0.255268
v 0.419085 1.204227 0.255326
v 0.419800 1.218855 0.255390
v 0.421925 1.233642 0.255457
v 0.435108 1.235113 0.253879
v 0.436888 1.220765 0.253819
v 0.438667 1.206417 0.253760
v 0.440446 1.192069 0.253700
vn 0.0029 -0.0117 -0.9999
vn 0.0939 0.0029 -0.9956
vn 0.1109 -0.0125 -0.9937
vn 0.0055 -0.0257 -0.9996
vn -0.0884 -0.0195 -0.9959
vn -0.1017 -0.0389 -0.9940
vn -0.0031 0.0315 -0.9995
vn 0.1459 0.0496 -0.9880
vn 0.1199 0.0384 -0.9920
vn -0.0009 0.0251 -0.9997
vn 0.0935 0.0262 -0.9953
vn 0.0001 0.0151 -0.9999
vn 0.0847 0.0172 -0.9962
vn 0.0009 0.0070 -1.0000
vn -0.1497 0.0130 -0.9886
vn -0.1221 0.0085 -0.9925
vn -0.0935 0.0030 -0.9956
vn -0.0828 -0.0035 -0.9966
usemtl feather_001
s 1
f 18//1 10//2 3//3 6//4
f 11//5 18//1 6//4 4//6
f 5//7 1//8 7//9 15//10
f 15//10 7//9 8//11 16//12
f 16//12 8//11 9//13 17//14
f 17//14 9//13 10//2 18//1
f 2//15 5//7 15//10 14//16
f 14//16 15//10 16//12 13//17
f 13//17 16//12 17//14 12//18
f 12//18 17//14 18//1 11//5
