# Blender v2.79 (sub 0) OBJ File: 'ostrich_base_mesh_BI.blend'
# www.blender.org
mtllib ostrich_feather_flight_secondary_023.mtl
o feather_flight_secondary_023
v 0.412298 1.243868 0.257340
v 0.386757 1.241312 0.257340
v 0.431809 1.109733 0.257340
v 0.394289 1.110586 0.257340
v 0.398768 1.249469 0.255739
v 0.414540 1.106557 0.255739
v 0.421756 1.221771 0.257340
v 0.430867 1.192683 0.257340
v 0.437871 1.163384 0.257340
v 0.440109 1.133608 0.257340
v 0.383624 1.127954 0.257340
v 0.379313 1.157523 0.257340
v 0.379767 1.187568 0.257340
v 0.382329 1.217824 0.257340
v 0.402043 1.219797 0.255739
v 0.405317 1.190125 0.255739
v 0.408592 1.160453 0.255739
v 0.411867 1.130781 0.255739
vn 0.0012 -0.0079 -0.9999
vn 0.0618 -0.0005 -0.9981
vn 0.0713 -0.0083 -0.9974
vn 0.0083 -0.0143 -0.9998
vn -0.0596 -0.0128 -0.9981
vn -0.0664 -0.0213 -0.9976
vn -0.0020 0.0132 -0.9999
vn 0.0985 0.0242 -0.9948
vn 0.0813 0.0186 -0.9965
vn -0.0009 0.0101 -0.9999
vn 0.0625 0.0120 -0.9980
vn -0.0005 0.0052 -1.0000
vn 0.0561 0.0074 -0.9984
vn -0.0001 0.0013 -1.0000
vn -0.1011 0.0022 -0.9949
vn -0.0834 0.0004 -0.9965
vn -0.0636 -0.0019 -0.9980
vn -0.0564 -0.0049 -0.9984
usemtl feather_002
s 1
f 18//1 10//2 3//3 6//4
f 11//5 18//1 6//4 4//6
f 5//7 1//8 7//9 15//10
f 15//10 7//9 8//11 16//12
f 16//12 8//11 9//13 17//14
f 17//14 9//13 10//2 18//1
f 2//15 5//7 15//10 14//16
f 14//16 15//10 16//12 13//17
f 13//17 16//12 17//14 12//18
f 12//18 17//14 18//1 11//5
