# Blender v2.79 (sub 0) OBJ File: 'ostrich_base_mesh_BI.blend'
# www.blender.org
mtllib ostrich_feather_tail_primary_014.mtl
o feather_tail_primary_014
v 0.045537 1.332562 -0.642007
v 0.012549 1.334913 -0.647328
v 0.086016 1.228565 -0.902759
v 0.041708 1.231722 -0.909905
v 0.028746 1.340716 -0.639740
v 0.066266 1.229084 -0.921705
v 0.055852 1.323400 -0.662620
v 0.065183 1.311764 -0.690114
v 0.090766 1.247624 -0.850717
v 0.091663 1.236589 -0.879572
v 0.030257 1.240966 -0.889475
v 0.023599 1.252411 -0.861550
v 0.006262 1.315963 -0.699617
v 0.008038 1.326807 -0.670332
v 0.032523 1.329476 -0.668130
v 0.036301 1.318236 -0.696520
v 0.057761 1.254390 -0.857787
v 0.061538 1.243150 -0.886178
v 0.086685 1.260378 -0.818429
v 0.081992 1.273176 -0.786241
v 0.077032 1.285993 -0.754095
v 0.071819 1.298828 -0.721990
v 0.008210 1.303361 -0.732249
v 0.011581 1.290657 -0.764651
v 0.015204 1.277936 -0.797012
v 0.019096 1.265195 -0.829330
v 0.053469 1.267159 -0.825534
v 0.049177 1.279928 -0.793281
v 0.044885 1.292698 -0.761027
v 0.040593 1.305467 -0.728774
vn 0.1247 0.9222 -0.3660
vn 0.2790 0.9000 -0.3349
vn 0.3007 0.8911 -0.3399
vn 0.1259 0.9186 -0.3746
vn -0.0330 0.9222 -0.3852
vn -0.0530 0.9163 -0.3970
vn 0.1187 0.9396 -0.3209
vn 0.3410 0.8986 -0.2760
vn 0.3103 0.9045 -0.2925
vn 0.1198 0.9368 -0.3287
vn 0.2772 0.9087 -0.3121
vn 0.1215 0.9320 -0.3414
vn 0.1227 0.9283 -0.3510
vn 0.2561 0.9100 -0.3260
vn 0.2594 0.9080 -0.3288
vn 0.1232 0.9269 -0.3545
vn -0.1099 0.9307 -0.3488
vn -0.0750 0.9320 -0.3546
vn -0.0372 0.9311 -0.3628
vn -0.0129 0.9292 -0.3694
vn -0.0154 0.9276 -0.3731
vn 0.2647 0.9093 -0.3210
vn 0.1223 0.9295 -0.3479
vn 0.2598 0.9097 -0.3238
vn 0.1226 0.9288 -0.3496
vn 0.2572 0.9101 -0.3249
vn 0.1227 0.9286 -0.3501
vn -0.0226 0.9298 -0.3674
vn -0.0171 0.9294 -0.3685
vn -0.0143 0.9294 -0.3687
usemtl feather_003
s 1
f 18//1 10//2 3//3 6//4
f 11//5 18//1 6//4 4//6
f 5//7 1//8 7//9 15//10
f 15//10 7//9 8//11 16//12
f 27//13 19//14 9//15 17//16
f 17//16 9//15 10//2 18//1
f 2//17 5//7 15//10 14//18
f 14//18 15//10 16//12 13//19
f 26//20 27//13 17//16 12//21
f 12//21 17//16 18//1 11//5
f 16//12 8//11 22//22 30//23
f 30//23 22//22 21//24 29//25
f 29//25 21//24 20//26 28//27
f 28//27 20//26 19//14 27//13
f 13//19 16//12 30//23 23//28
f 23//28 30//23 29//25 24//29
f 24//29 29//25 28//27 25//30
f 25//30 28//27 27//13 26//20
