# Blender v2.79 (sub 0) OBJ File: 'ostrich_base_mesh_BI.blend'
# www.blender.org
mtllib ostrich_feather_flight_secondary_032.mtl
o feather_flight_secondary_032
v 0.864576 1.260986 0.257029
v 0.857760 1.233257 0.257488
v 1.068545 1.219735 0.255350
v 1.051801 1.181114 0.256070
v 0.850835 1.249519 0.255731
v 1.066079 1.200352 0.254038
v 0.900758 1.260683 0.256634
v 0.947005 1.256811 0.256178
v 0.992690 1.250652 0.255759
v 1.037103 1.239318 0.255426
v 1.022029 1.177993 0.256441
v 0.977062 1.187076 0.256811
v 0.933368 1.201333 0.257096
v 0.890236 1.217878 0.257343
v 0.895525 1.239311 0.255380
v 0.940214 1.229103 0.255028
v 0.984904 1.218895 0.254676
v 1.029594 1.208686 0.254325
vn -0.0058 -0.0146 -0.9998
vn 0.0063 0.0396 -0.9992
vn 0.0134 0.0455 -0.9989
vn 0.0005 -0.0079 -0.9999
vn -0.0191 -0.0683 -0.9975
vn -0.0159 -0.0759 -0.9970
vn -0.0197 -0.0126 -0.9997
vn 0.0008 0.0770 -0.9970
vn -0.0003 0.0614 -0.9981
vn -0.0174 -0.0119 -0.9998
vn -0.0015 0.0431 -0.9991
vn -0.0143 -0.0128 -0.9998
vn -0.0004 0.0363 -0.9993
vn -0.0118 -0.0135 -0.9998
vn -0.0395 -0.0998 -0.9942
vn -0.0339 -0.0858 -0.9957
vn -0.0270 -0.0690 -0.9972
vn -0.0232 -0.0634 -0.9977
usemtl feather_002
s 1
f 18//1 10//2 3//3 6//4
f 11//5 18//1 6//4 4//6
f 5//7 1//8 7//9 15//10
f 15//10 7//9 8//11 16//12
f 16//12 8//11 9//13 17//14
f 17//14 9//13 10//2 18//1
f 2//15 5//7 15//10 14//16
f 14//16 15//10 16//12 13//17
f 13//17 16//12 17//14 12//18
f 12//18 17//14 18//1 11//5
