# Blender v2.79 (sub 0) OBJ File: 'ostrich_base_mesh_BI.blend'
# www.blender.org
mtllib ostrich_feather_flight_tertiary_020.mtl
o feather_flight_tertiary_020
v 0.754520 1.253229 0.262002
v 0.745382 1.241138 0.261773
v 0.817302 1.212908 0.262703
v 0.804832 1.196407 0.262390
v 0.746864 1.249372 0.263462
v 0.814503 1.202307 0.264191
v 0.767353 1.249315 0.262176
v 0.782914 1.242704 0.262374
v 0.797721 1.235095 0.262552
v 0.810822 1.225229 0.262688
v 0.790614 1.198488 0.262182
v 0.776770 1.207372 0.262027
v 0.764632 1.218512 0.261916
v 0.753247 1.230649 0.261823
v 0.760337 1.239998 0.263608
v 0.773809 1.230623 0.263753
v 0.787282 1.221248 0.263898
v 0.800754 1.211874 0.264043
vn 0.0042 0.0156 -0.9998
vn -0.0547 -0.0726 -0.9958
vn -0.0757 -0.0773 -0.9941
vn -0.0079 0.0201 -0.9998
vn 0.0661 0.0997 -0.9928
vn 0.0637 0.1226 -0.9904
vn 0.0375 -0.0041 -0.9993
vn -0.0624 -0.1472 -0.9871
vn -0.0505 -0.1182 -0.9917
vn 0.0296 -0.0052 -0.9995
vn -0.0385 -0.0869 -0.9955
vn 0.0230 0.0007 -0.9997
vn -0.0376 -0.0733 -0.9966
vn 0.0174 0.0053 -0.9998
vn 0.1305 0.1306 -0.9828
vn 0.1091 0.1112 -0.9878
vn 0.0843 0.0895 -0.9924
vn 0.0722 0.0842 -0.9938
usemtl feather_001
s 1
f 18//1 10//2 3//3 6//4
f 11//5 18//1 6//4 4//6
f 5//7 1//8 7//9 15//10
f 15//10 7//9 8//11 16//12
f 16//12 8//11 9//13 17//14
f 17//14 9//13 10//2 18//1
f 2//15 5//7 15//10 14//16
f 14//16 15//10 16//12 13//17
f 13//17 16//12 17//14 12//18
f 12//18 17//14 18//1 11//5
