# Blender v2.79 (sub 0) OBJ File: 'ostrich_base_mesh_BI.blend'
# www.blender.org
mtllib ostrich_feather_flight_primary_012.mtl
o feather_flight_primary_012
v 0.872096 1.260647 0.257812
v 0.865456 1.230894 0.257812
v 1.233002 1.193257 0.257812
v 1.211196 1.152601 0.257812
v 0.850392 1.249492 0.259413
v 1.232298 1.172182 0.259413
v 0.934810 1.256405 0.257812
v 1.015620 1.247153 0.257812
v 1.095882 1.235445 0.257812
v 1.174905 1.218186 0.257812
v 1.160220 1.152386 0.257812
v 1.080658 1.167230 0.257812
v 1.002334 1.187625 0.257812
v 0.924559 1.210476 0.257812
v 0.929685 1.233441 0.259413
v 1.008977 1.217389 0.259413
v 1.088270 1.201338 0.259413
v 1.167563 1.185286 0.259413
vn -0.0029 0.0003 -1.0000
vn -0.0133 -0.0507 -0.9986
vn -0.0175 -0.0566 -0.9982
vn -0.0079 -0.0106 -0.9999
vn 0.0078 0.0511 -0.9987
vn 0.0064 0.0574 -0.9983
vn 0.0050 -0.0001 -1.0000
vn -0.0120 -0.0840 -0.9964
vn -0.0105 -0.0702 -0.9975
vn 0.0036 -0.0009 -1.0000
vn -0.0088 -0.0530 -0.9985
vn 0.0019 -0.0005 -1.0000
vn -0.0090 -0.0468 -0.9988
vn 0.0005 -0.0001 -1.0000
vn 0.0216 0.0819 -0.9964
vn 0.0177 0.0689 -0.9974
vn 0.0125 0.0523 -0.9985
vn 0.0099 0.0467 -0.9988
usemtl feather_003
s 1
f 18//1 10//2 3//3 6//4
f 11//5 18//1 6//4 4//6
f 5//7 1//8 7//9 15//10
f 15//10 7//9 8//11 16//12
f 16//12 8//11 9//13 17//14
f 17//14 9//13 10//2 18//1
f 2//15 5//7 15//10 14//16
f 14//16 15//10 16//12 13//17
f 13//17 16//12 17//14 12//18
f 12//18 17//14 18//1 11//5
