# Blender v2.79 (sub 0) OBJ File: 'ostrich_base_mesh_BI.blend'
# www.blender.org
mtllib ostrich_feather_flight_secondary_010.mtl
o feather_flight_secondary_010
v 0.745196 1.254719 0.260034
v 0.728426 1.233184 0.259567
v 0.898849 1.152729 0.259585
v 0.869444 1.125105 0.258927
v 0.729132 1.249400 0.261436
v 0.889027 1.136943 0.260869
v 0.775255 1.242638 0.260070
v 0.812286 1.224211 0.260059
v 0.847932 1.204006 0.260009
v 0.880449 1.179783 0.259873
v 0.843362 1.132158 0.258841
v 0.809484 1.154633 0.258940
v 0.778734 1.181125 0.259126
v 0.749368 1.209395 0.259350
v 0.762330 1.226051 0.261318
v 0.795528 1.202703 0.261200
v 0.828726 1.179354 0.261083
v 0.861924 1.156005 0.260965
vn 0.0027 0.0190 -0.9998
vn -0.0307 -0.0287 -0.9991
vn -0.0401 -0.0313 -0.9987
vn -0.0069 0.0146 -0.9998
vn 0.0367 0.0654 -0.9972
vn 0.0364 0.0746 -0.9965
vn 0.0171 0.0122 -0.9998
vn -0.0395 -0.0683 -0.9969
vn -0.0321 -0.0530 -0.9981
vn 0.0130 0.0106 -0.9998
vn -0.0240 -0.0357 -0.9991
vn 0.0104 0.0131 -0.9998
vn -0.0226 -0.0286 -0.9993
vn 0.0082 0.0150 -0.9998
vn 0.0696 0.0870 -0.9937
vn 0.0587 0.0759 -0.9954
vn 0.0451 0.0626 -0.9970
vn 0.0391 0.0588 -0.9975
usemtl feather_002
s 1
f 18//1 10//2 3//3 6//4
f 11//5 18//1 6//4 4//6
f 5//7 1//8 7//9 15//10
f 15//10 7//9 8//11 16//12
f 16//12 8//11 9//13 17//14
f 17//14 9//13 10//2 18//1
f 2//15 5//7 15//10 14//16
f 14//16 15//10 16//12 13//17
f 13//17 16//12 17//14 12//18
f 12//18 17//14 18//1 11//5
