# Blender v2.79 (sub 0) OBJ File: 'ostrich_base_mesh_BI.blend'
# www.blender.org
mtllib ostrich_feather_flight_secondary_005.mtl
o feather_flight_secondary_005
v 0.509646 1.245576 0.259833
v 0.482258 1.238613 0.259853
v 0.555100 1.102552 0.260121
v 0.514036 1.097346 0.260140
v 0.493884 1.249465 0.261429
v 0.536843 1.096262 0.261739
v 0.523942 1.223035 0.259876
v 0.539120 1.192818 0.259936
v 0.552038 1.162026 0.259998
v 0.559846 1.129935 0.260063
v 0.499277 1.114534 0.260108
v 0.489246 1.146060 0.260044
v 0.484325 1.178886 0.259977
v 0.481664 1.212286 0.259908
v 0.502803 1.217656 0.261493
v 0.511722 1.185848 0.261557
v 0.520641 1.154039 0.261622
v 0.529561 1.122230 0.261686
vn -0.0023 0.0048 -1.0000
vn -0.0557 -0.0107 -0.9984
vn -0.0651 -0.0052 -0.9978
vn -0.0101 0.0093 -0.9999
vn 0.0514 0.0182 -0.9985
vn 0.0564 0.0268 -0.9980
vn 0.0043 -0.0133 -0.9999
vn -0.0851 -0.0383 -0.9956
vn -0.0704 -0.0307 -0.9970
vn 0.0018 -0.0110 -0.9999
vn -0.0545 -0.0221 -0.9983
vn 0.0009 -0.0067 -1.0000
vn -0.0494 -0.0170 -0.9986
vn 0.0001 -0.0032 -1.0000
vn 0.0906 0.0109 -0.9958
vn 0.0747 0.0099 -0.9971
vn 0.0566 0.0090 -0.9984
vn 0.0496 0.0107 -0.9987
usemtl feather_002
s 1
f 18//1 10//2 3//3 6//4
f 11//5 18//1 6//4 4//6
f 5//7 1//8 7//9 15//10
f 15//10 7//9 8//11 16//12
f 16//12 8//11 9//13 17//14
f 17//14 9//13 10//2 18//1
f 2//15 5//7 15//10 14//16
f 14//16 15//10 16//12 13//17
f 13//17 16//12 17//14 12//18
f 12//18 17//14 18//1 11//5
