# Blender v2.79 (sub 0) OBJ File: 'ostrich_base_mesh_BI.blend'
# www.blender.org
mtllib ostrich_feather_flight_tertiary_044.mtl
o feather_flight_tertiary_044
v 0.371607 1.247182 0.255541
v 0.353406 1.245298 0.255541
v 0.382137 1.184337 0.255541
v 0.357299 1.181765 0.255541
v 0.362138 1.249469 0.253940
v 0.370119 1.179536 0.253940
v 0.377776 1.236994 0.255541
v 0.383525 1.223495 0.255541
v 0.387772 1.209841 0.255541
v 0.388623 1.195834 0.255541
v 0.348371 1.191668 0.255541
v 0.346042 1.205521 0.255541
v 0.347110 1.219725 0.255541
v 0.349679 1.234085 0.255541
v 0.363727 1.235540 0.253940
v 0.365317 1.221610 0.253940
v 0.366907 1.207681 0.253940
v 0.368497 1.193751 0.253940
vn 0.0016 -0.0165 -0.9998
vn 0.0869 -0.0030 -0.9962
vn 0.1032 -0.0195 -0.9944
vn 0.0040 -0.0310 -0.9995
vn -0.0841 -0.0223 -0.9962
vn -0.0968 -0.0423 -0.9944
vn -0.0040 0.0281 -0.9996
vn 0.1363 0.0438 -0.9897
vn 0.1113 0.0326 -0.9932
vn -0.0021 0.0214 -0.9998
vn 0.0867 0.0206 -0.9960
vn -0.0011 0.0112 -0.9999
vn 0.0785 0.0115 -0.9968
vn -0.0003 0.0028 -1.0000
vn -0.1421 0.0121 -0.9898
vn -0.1156 0.0067 -0.9933
vn -0.0890 0.0006 -0.9960
vn -0.0790 -0.0063 -0.9968
usemtl feather_001
s 1
f 18//1 10//2 3//3 6//4
f 11//5 18//1 6//4 4//6
f 5//7 1//8 7//9 15//10
f 15//10 7//9 8//11 16//12
f 16//12 8//11 9//13 17//14
f 17//14 9//13 10//2 18//1
f 2//15 5//7 15//10 14//16
f 14//16 15//10 16//12 13//17
f 13//17 16//12 17//14 12//18
f 12//18 17//14 18//1 11//5
