# Blender v2.79 (sub 0) OBJ File: 'ostrich_base_mesh_BI.blend'
# www.blender.org
mtllib ostrich_feather_tail_primary_003.mtl
o feather_tail_primary_003
v 0.047229 1.329516 -0.641882
v 0.013051 1.340786 -0.653152
v 0.148497 1.312627 -0.944242
v 0.102590 1.327764 -0.959379
v 0.029325 1.340582 -0.639614
v 0.132131 1.324466 -0.967517
v 0.062861 1.325737 -0.664711
v 0.078966 1.322217 -0.695829
v 0.142036 1.311592 -0.881961
v 0.149403 1.310953 -0.915961
v 0.085782 1.331931 -0.936939
v 0.072446 1.334538 -0.904907
v 0.017919 1.342346 -0.715958
v 0.013322 1.342072 -0.681045
v 0.039676 1.338959 -0.672630
v 0.050027 1.337337 -0.705645
v 0.108826 1.328119 -0.893186
v 0.119177 1.326497 -0.926201
v 0.130495 1.313363 -0.844381
v 0.118321 1.315343 -0.807010
v 0.105868 1.317415 -0.769730
v 0.093154 1.319573 -0.732536
v 0.027251 1.341304 -0.754267
v 0.038056 1.339775 -0.792090
v 0.049123 1.338160 -0.829826
v 0.060467 1.336453 -0.867471
v 0.097066 1.329963 -0.855678
v 0.085307 1.331806 -0.818169
v 0.073547 1.333650 -0.780661
v 0.061787 1.335493 -0.743153
vn 0.3036 0.9523 0.0314
vn 0.4429 0.8930 0.0797
vn 0.4641 0.8825 0.0758
vn 0.3063 0.9516 0.0225
vn 0.1558 0.9877 -0.0150
vn 0.1386 0.9898 -0.0315
vn 0.2889 0.9542 0.0778
vn 0.4888 0.8604 0.1442
vn 0.4635 0.8771 0.1257
vn 0.2915 0.9540 0.0699
vn 0.4367 0.8936 0.1034
vn 0.2957 0.9536 0.0569
vn 0.2988 0.9532 0.0470
vn 0.4198 0.9034 0.0874
vn 0.4234 0.9019 0.0847
vn 0.2999 0.9530 0.0434
vn 0.0738 0.9972 0.0074
vn 0.1090 0.9940 0.0088
vn 0.1473 0.9890 0.0080
vn 0.1722 0.9850 0.0057
vn 0.1705 0.9854 0.0013
vn 0.4268 0.8995 0.0932
vn 0.2978 0.9533 0.0502
vn 0.4228 0.9017 0.0899
vn 0.2983 0.9532 0.0484
vn 0.4206 0.9029 0.0886
vn 0.2985 0.9532 0.0479
vn 0.1624 0.9867 0.0060
vn 0.1679 0.9858 0.0059
vn 0.1707 0.9853 0.0062
usemtl feather_003
s 1
f 18//1 10//2 3//3 6//4
f 11//5 18//1 6//4 4//6
f 5//7 1//8 7//9 15//10
f 15//10 7//9 8//11 16//12
f 27//13 19//14 9//15 17//16
f 17//16 9//15 10//2 18//1
f 2//17 5//7 15//10 14//18
f 14//18 15//10 16//12 13//19
f 26//20 27//13 17//16 12//21
f 12//21 17//16 18//1 11//5
f 16//12 8//11 22//22 30//23
f 30//23 22//22 21//24 29//25
f 29//25 21//24 20//26 28//27
f 28//27 20//26 19//14 27//13
f 13//19 16//12 30//23 23//28
f 23//28 30//23 29//25 24//29
f 24//29 29//25 28//27 25//30
f 25//30 28//27 27//13 26//20
