# Blender v2.79 (sub 0) OBJ File: 'ostrich_base_mesh_BI.blend'
# www.blender.org
mtllib ostrich_feather_flight_tertiary_056.mtl
o feather_flight_tertiary_056
v 0.655116 1.251298 0.255543
v 0.638545 1.241907 0.255543
v 0.693182 1.196923 0.255543
v 0.670568 1.184107 0.255543
v 0.645039 1.249469 0.253942
v 0.683825 1.187395 0.253942
v 0.665555 1.244354 0.255543
v 0.677067 1.234136 0.255543
v 0.687212 1.223143 0.255543
v 0.694265 1.210398 0.255543
v 0.657617 1.189628 0.255543
v 0.649219 1.201611 0.255543
v 0.643913 1.215346 0.255543
v 0.639974 1.229856 0.255543
v 0.652764 1.237105 0.253942
v 0.660490 1.224741 0.253942
v 0.668215 1.212377 0.253942
v 0.675941 1.200013 0.253942
vn 0.0076 -0.0141 -0.9998
vn 0.0767 0.0330 -0.9965
vn 0.0969 0.0252 -0.9950
vn 0.0173 -0.0246 -0.9995
vn -0.0640 -0.0540 -0.9965
vn -0.0674 -0.0774 -0.9947
vn -0.0170 0.0215 -0.9996
vn 0.1010 0.0950 -0.9903
vn 0.0834 0.0744 -0.9937
vn -0.0098 0.0183 -0.9998
vn 0.0669 0.0538 -0.9963
vn -0.0051 0.0095 -0.9999
vn 0.0634 0.0424 -0.9971
vn -0.0013 0.0024 -1.0000
vn -0.1277 -0.0479 -0.9906
vn -0.1030 -0.0417 -0.9938
vn -0.0774 -0.0362 -0.9963
vn -0.0660 -0.0381 -0.9971
usemtl feather_001
s 1
f 18//1 10//2 3//3 6//4
f 11//5 18//1 6//4 4//6
f 5//7 1//8 7//9 15//10
f 15//10 7//9 8//11 16//12
f 16//12 8//11 9//13 17//14
f 17//14 9//13 10//2 18//1
f 2//15 5//7 15//10 14//16
f 14//16 15//10 16//12 13//17
f 13//17 16//12 17//14 12//18
f 12//18 17//14 18//1 11//5
