# Blender v2.79 (sub 0) OBJ File: 'ostrich_base_mesh_BI.blend'
# www.blender.org
mtllib ostrich_feather_tail_primary_020.mtl
o feather_tail_primary_020
v 0.014184 1.334103 -0.642668
v -0.014184 1.334103 -0.642668
v 0.019052 1.203506 -0.844204
v -0.019052 1.203506 -0.844204
v -0.000000 1.340736 -0.639768
v -0.000000 1.200006 -0.856941
v 0.020559 1.323219 -0.659465
v 0.025334 1.309049 -0.681332
v 0.028880 1.228560 -0.805541
v 0.026403 1.214390 -0.827408
v -0.026403 1.214390 -0.827408
v -0.028880 1.228560 -0.805541
v -0.025334 1.309049 -0.681332
v -0.020559 1.323219 -0.659465
v -0.000000 1.326567 -0.661635
v -0.000000 1.312397 -0.683501
v -0.000000 1.231908 -0.807711
v -0.000000 1.217738 -0.829577
v 0.029062 1.244658 -0.780699
v 0.028717 1.260756 -0.755857
v 0.028142 1.276853 -0.731015
v 0.027350 1.292951 -0.706174
v -0.027350 1.292951 -0.706174
v -0.028142 1.276853 -0.731015
v -0.028717 1.260756 -0.755857
v -0.029062 1.244658 -0.780699
v -0.000000 1.248006 -0.782869
v -0.000000 1.264103 -0.758027
v -0.000000 1.280201 -0.733185
v -0.000000 1.296299 -0.708343
vn 0.0000 0.8303 -0.5573
vn 0.1584 0.8206 -0.5491
vn 0.1796 0.8116 -0.5558
vn 0.0000 0.8250 -0.5650
vn -0.1584 0.8206 -0.5491
vn -0.1796 0.8116 -0.5558
vn 0.0000 0.8564 -0.5162
vn 0.2289 0.8337 -0.5025
vn 0.1956 0.8350 -0.5143
vn 0.0000 0.8521 -0.5233
vn 0.1596 0.8338 -0.5284
vn 0.0000 0.8449 -0.5349
vn 0.0000 0.8393 -0.5436
vn 0.1366 0.8314 -0.5385
vn 0.1395 0.8291 -0.5414
vn 0.0000 0.8372 -0.5469
vn -0.2289 0.8337 -0.5025
vn -0.1956 0.8350 -0.5143
vn -0.1596 0.8338 -0.5284
vn -0.1366 0.8314 -0.5386
vn -0.1395 0.8291 -0.5414
vn 0.1459 0.8321 -0.5351
vn 0.0000 0.8411 -0.5408
vn 0.1406 0.8317 -0.5370
vn 0.0000 0.8401 -0.5424
vn 0.1379 0.8318 -0.5377
vn 0.0000 0.8398 -0.5429
vn -0.1459 0.8321 -0.5351
vn -0.1406 0.8317 -0.5370
vn -0.1379 0.8318 -0.5377
usemtl feather_003
s 1
f 18//1 10//2 3//3 6//4
f 11//5 18//1 6//4 4//6
f 5//7 1//8 7//9 15//10
f 15//10 7//9 8//11 16//12
f 27//13 19//14 9//15 17//16
f 17//16 9//15 10//2 18//1
f 2//17 5//7 15//10 14//18
f 14//18 15//10 16//12 13//19
f 26//20 27//13 17//16 12//21
f 12//21 17//16 18//1 11//5
f 16//12 8//11 22//22 30//23
f 30//23 22//22 21//24 29//25
f 29//25 21//24 20//26 28//27
f 28//27 20//26 19//14 27//13
f 13//19 16//12 30//23 23//28
f 23//28 30//23 29//25 24//29
f 24//29 29//25 28//27 25//30
f 25//30 28//27 27//13 26//20
