# Blender v2.79 (sub 0) OBJ File: 'ostrich_base_mesh_BI.blend'
# www.blender.org
mtllib ostrich_feather_tail_primary_001.mtl
o feather_tail_primary_001
v 0.042643 1.323228 -0.635594
v 0.021013 1.345071 -0.657437
v 0.231273 1.251412 -0.883027
v 0.202220 1.280751 -0.912367
v 0.030248 1.340034 -0.639066
v 0.229514 1.266685 -0.909736
v 0.062916 1.312646 -0.651619
v 0.086621 1.301583 -0.675195
v 0.203292 1.256902 -0.827272
v 0.221467 1.251424 -0.856432
v 0.181203 1.292085 -0.897093
v 0.159250 1.301378 -0.871747
v 0.047986 1.340599 -0.714211
v 0.031564 1.344307 -0.683280
v 0.050312 1.332649 -0.666319
v 0.070375 1.325264 -0.693572
v 0.184343 1.283312 -0.848379
v 0.204406 1.275927 -0.875632
v 0.180637 1.265152 -0.796171
v 0.157581 1.273808 -0.765475
v 0.134349 1.282641 -0.734956
v 0.110951 1.291641 -0.704604
v 0.069243 1.333760 -0.746724
v 0.091432 1.325980 -0.778295
v 0.113788 1.318033 -0.809699
v 0.136318 1.309908 -0.840926
v 0.161549 1.291703 -0.817418
v 0.138756 1.300093 -0.786456
v 0.115962 1.308483 -0.755495
v 0.093169 1.316873 -0.724533
vn 0.5885 0.7832 0.2004
vn 0.6711 0.6819 0.2908
vn 0.6872 0.6644 0.2939
vn 0.5938 0.7811 0.1931
vn 0.4894 0.8654 0.1073
vn 0.4812 0.8724 0.0859
vn 0.5600 0.7933 0.2387
vn 0.6765 0.6396 0.3650
vn 0.6671 0.6629 0.3400
vn 0.5650 0.7917 0.2322
vn 0.6576 0.6863 0.3108
vn 0.5731 0.7890 0.2215
vn 0.5791 0.7868 0.2134
vn 0.6520 0.7003 0.2905
vn 0.6556 0.6975 0.2892
vn 0.5813 0.7860 0.2103
vn 0.4139 0.9048 0.0997
vn 0.4427 0.8895 0.1134
vn 0.4744 0.8712 0.1258
vn 0.4953 0.8585 0.1322
vn 0.4955 0.8591 0.1275
vn 0.6547 0.6946 0.2981
vn 0.5772 0.7875 0.2160
vn 0.6532 0.6979 0.2938
vn 0.5783 0.7871 0.2145
vn 0.6522 0.6996 0.2918
vn 0.5786 0.7870 0.2141
vn 0.4873 0.8636 0.1291
vn 0.4919 0.8607 0.1309
vn 0.4940 0.8593 0.1321
usemtl feather_003
s 1
f 18//1 10//2 3//3 6//4
f 11//5 18//1 6//4 4//6
f 5//7 1//8 7//9 15//10
f 15//10 7//9 8//11 16//12
f 27//13 19//14 9//15 17//16
f 17//16 9//15 10//2 18//1
f 2//17 5//7 15//10 14//18
f 14//18 15//10 16//12 13//19
f 26//20 27//13 17//16 12//21
f 12//21 17//16 18//1 11//5
f 16//12 8//11 22//22 30//23
f 30//23 22//22 21//24 29//25
f 29//25 21//24 20//26 28//27
f 28//27 20//26 19//14 27//13
f 13//19 16//12 30//23 23//28
f 23//28 30//23 29//25 24//29
f 24//29 29//25 28//27 25//30
f 25//30 28//27 27//13 26//20
