# Blender v2.79 (sub 0) OBJ File: 'ostrich_base_mesh_BI.blend'
# www.blender.org
mtllib ostrich_feather_tail_secondary_003.mtl
o feather_tail_secondary_003
v 0.049322 1.336189 -0.641554
v 0.015143 1.347459 -0.652824
v 0.031417 1.347255 -0.639286
v 0.064954 1.332410 -0.664383
v 0.081058 1.328891 -0.695501
v 0.020011 1.349020 -0.715630
v 0.015414 1.348745 -0.680717
v 0.041769 1.345633 -0.672302
v 0.052120 1.344010 -0.705317
v 0.112836 1.324008 -0.798880
v 0.107960 1.324088 -0.769402
v 0.095246 1.326246 -0.732208
v 0.029343 1.347977 -0.753939
v 0.040148 1.346448 -0.791762
v 0.052938 1.343758 -0.818630
v 0.087399 1.338480 -0.817841
v 0.075639 1.340323 -0.780333
v 0.063879 1.342166 -0.742825
vn 0.2889 0.9542 0.0778
vn 0.4888 0.8604 0.1442
vn 0.4635 0.8771 0.1257
vn 0.2915 0.9540 0.0699
vn 0.4367 0.8936 0.1034
vn 0.2957 0.9536 0.0569
vn 0.0738 0.9972 0.0074
vn 0.1090 0.9940 0.0089
vn 0.1473 0.9890 0.0080
vn 0.4268 0.8995 0.0932
vn 0.2978 0.9533 0.0502
vn 0.4291 0.8991 0.0866
vn 0.3000 0.9529 0.0432
vn 0.4343 0.8970 0.0821
vn 0.3017 0.9526 0.0377
vn 0.1624 0.9867 0.0060
vn 0.1643 0.9864 -0.0007
vn 0.1622 0.9867 -0.0076
usemtl feather_001
s 1
f 3//1 1//2 4//3 8//4
f 8//4 4//3 5//5 9//6
f 2//7 3//1 8//4 7//8
f 7//8 8//4 9//6 6//9
f 9//6 5//5 12//10 18//11
f 18//11 12//10 11//12 17//13
f 17//13 11//12 10//14 16//15
f 6//9 9//6 18//11 13//16
f 13//16 18//11 17//13 14//17
f 14//17 17//13 16//15 15//18
