# Blender v2.79 (sub 0) OBJ File: 'ostrich_base_mesh_BI.blend'
# www.blender.org
mtllib ostrich_feather_flight_primary_003.mtl
o feather_flight_primary_003
v 0.414416 1.238112 0.257812
v 0.385941 1.235261 0.257812
v 0.447210 0.988524 0.257812
v 0.408351 0.998835 0.257812
v 0.398768 1.249469 0.259412
v 0.429316 0.986866 0.259412
v 0.426831 1.196535 0.257812
v 0.439423 1.142051 0.257812
v 0.449665 1.087333 0.257812
v 0.454593 1.032082 0.257812
v 0.391620 1.025779 0.257812
v 0.384379 1.080798 0.257812
v 0.382452 1.136349 0.257812
v 0.382875 1.192135 0.257812
v 0.404853 1.194335 0.259412
v 0.410937 1.139200 0.259412
v 0.417022 1.084065 0.259412
v 0.423107 1.028931 0.259412
vn 0.0007 0.0060 -1.0000
vn -0.0563 -0.0023 -0.9984
vn -0.0648 0.0009 -0.9979
vn -0.0185 0.0082 -0.9998
vn 0.0555 0.0123 -0.9984
vn 0.0645 0.0214 -0.9977
vn 0.0013 -0.0070 -1.0000
vn -0.0888 -0.0170 -0.9959
vn -0.0742 -0.0135 -0.9971
vn 0.0004 -0.0054 -1.0000
vn -0.0565 -0.0090 -0.9984
vn 0.0002 -0.0028 -1.0000
vn -0.0504 -0.0063 -0.9987
vn 0.0001 -0.0007 -1.0000
vn 0.0903 0.0027 -0.9959
vn 0.0754 0.0030 -0.9971
vn 0.0571 0.0035 -0.9984
vn 0.0506 0.0049 -0.9987
usemtl feather_003
s 1
f 18//1 10//2 3//3 6//4
f 11//5 18//1 6//4 4//6
f 5//7 1//8 7//9 15//10
f 15//10 7//9 8//11 16//12
f 16//12 8//11 9//13 17//14
f 17//14 9//13 10//2 18//1
f 2//15 5//7 15//10 14//16
f 14//16 15//10 16//12 13//17
f 13//17 16//12 17//14 12//18
f 12//18 17//14 18//1 11//5
