# Blender v2.79 (sub 0) OBJ File: 'parrot_base_mesh_BI.blend'
# www.blender.org
mtllib parrot_feather_flight_secondary_001.mtl
o feather_flight_secondary_001
v 0.041832 0.117513 0.040687
v 0.037550 0.117513 0.040687
v 0.042613 0.093814 0.040687
v 0.036769 0.093814 0.040687
v 0.039691 0.118724 0.041026
v 0.039691 0.091163 0.041026
v 0.042997 0.113500 0.040687
v 0.043975 0.108276 0.040687
v 0.044601 0.103052 0.040687
v 0.044427 0.097827 0.040687
v 0.034955 0.097827 0.040687
v 0.034782 0.103052 0.040687
v 0.035407 0.108276 0.040687
v 0.036386 0.113500 0.040687
v 0.039691 0.113500 0.041026
v 0.039691 0.108276 0.041026
v 0.039691 0.103052 0.041026
v 0.039691 0.097827 0.041026
vn 0.0000 0.0085 -0.9999
vn -0.0799 0.0073 -0.9968
vn -0.0936 0.0159 -0.9955
vn 0.0000 0.0160 -0.9998
vn 0.0799 0.0073 -0.9968
vn 0.0936 0.0159 -0.9955
vn 0.0000 -0.0161 -0.9998
vn -0.1270 -0.0160 -0.9918
vn -0.1051 -0.0116 -0.9944
vn 0.0000 -0.0122 -0.9999
vn -0.0805 -0.0062 -0.9967
vn 0.0000 -0.0064 -1.0000
vn -0.0718 -0.0015 -0.9974
vn 0.0000 -0.0016 -1.0000
vn 0.1270 -0.0160 -0.9918
vn 0.1051 -0.0116 -0.9944
vn 0.0805 -0.0062 -0.9967
vn 0.0718 -0.0015 -0.9974
usemtl feather_gray_003
s 1
f 18//1 10//2 3//3 6//4
f 11//5 18//1 6//4 4//6
f 5//7 1//8 7//9 15//10
f 15//10 7//9 8//11 16//12
f 16//12 8//11 9//13 17//14
f 17//14 9//13 10//2 18//1
f 2//15 5//7 15//10 14//16
f 14//16 15//10 16//12 13//17
f 13//17 16//12 17//14 12//18
f 12//18 17//14 18//1 11//5
