# Blender v2.79 (sub 0) OBJ File: 'parrot_base_mesh_BI.blend'
# www.blender.org
mtllib parrot_feather_flight_secondary_016.mtl
o feather_flight_secondary_016
v 0.190073 0.121152 0.040753
v 0.188699 0.115281 0.040656
v 0.231207 0.112417 0.041109
v 0.229331 0.104405 0.040976
v 0.187302 0.118724 0.041028
v 0.234848 0.107321 0.041421
v 0.197370 0.121088 0.040837
v 0.206696 0.120268 0.040933
v 0.215910 0.118964 0.041022
v 0.224866 0.116564 0.041093
v 0.221826 0.103579 0.040878
v 0.212758 0.105502 0.040799
v 0.203946 0.108521 0.040739
v 0.195248 0.112024 0.040687
v 0.196315 0.116563 0.041102
v 0.205327 0.114401 0.041177
v 0.214339 0.112239 0.041251
v 0.223352 0.110078 0.041326
vn 0.0068 0.0148 -0.9998
vn -0.0060 -0.0411 -0.9991
vn -0.0129 -0.0494 -0.9987
vn 0.0028 0.0161 -0.9998
vn 0.0207 0.0705 -0.9973
vn 0.0183 0.0808 -0.9966
vn 0.0204 0.0113 -0.9997
vn -0.0008 -0.0770 -0.9970
vn 0.0003 -0.0615 -0.9981
vn 0.0183 0.0121 -0.9998
vn 0.0015 -0.0432 -0.9991
vn 0.0150 0.0129 -0.9998
vn 0.0004 -0.0363 -0.9993
vn 0.0124 0.0135 -0.9998
vn 0.0415 0.0998 -0.9941
vn 0.0355 0.0855 -0.9957
vn 0.0284 0.0689 -0.9972
vn 0.0243 0.0634 -0.9977
usemtl feather_gray_003
s 1
f 18//1 10//2 3//3 6//4
f 11//5 18//1 6//4 4//6
f 5//7 1//8 7//9 15//10
f 15//10 7//9 8//11 16//12
f 16//12 8//11 9//13 17//14
f 17//14 9//13 10//2 18//1
f 2//15 5//7 15//10 14//16
f 14//16 15//10 16//12 13//17
f 13//17 16//12 17//14 12//18
f 12//18 17//14 18//1 11//5
