# Blender v2.79 (sub 0) OBJ File: 'parrot_base_mesh_BI.blend'
# www.blender.org
mtllib parrot_feather_tail_secondary_010.mtl
o feather_tail_secondary_010
v -0.002728 0.058362 -0.105587
v 0.002728 0.058362 -0.105587
v 0.000000 0.057776 -0.102846
v -0.003955 0.058362 -0.114666
v -0.004873 0.058362 -0.126486
v 0.004873 0.058362 -0.126486
v 0.003955 0.058362 -0.114666
v 0.000000 0.057776 -0.114666
v 0.000000 0.057776 -0.126486
v -0.004781 0.058362 -0.163430
v -0.005413 0.058362 -0.153343
v -0.005261 0.058362 -0.139915
v 0.005261 0.058362 -0.139915
v 0.005413 0.058362 -0.153343
v 0.004781 0.058362 -0.163430
v 0.000000 0.057776 -0.166771
v 0.000000 0.057776 -0.153343
v 0.000000 0.057776 -0.139915
vn 0.0000 -0.9999 0.0105
vn -0.1770 -0.9841 0.0104
vn -0.1529 -0.9882 0.0076
vn 0.0000 -0.9999 0.0078
vn -0.1231 -0.9924 0.0033
vn 0.0000 -1.0000 0.0034
vn 0.1770 -0.9841 0.0104
vn 0.1529 -0.9882 0.0076
vn 0.1231 -0.9924 0.0033
vn -0.1121 -0.9937 0.0011
vn 0.0000 -1.0000 0.0011
vn -0.1122 -0.9937 -0.0012
vn 0.0000 -1.0000 -0.0012
vn -0.1153 -0.9933 -0.0031
vn 0.0000 -1.0000 -0.0031
vn 0.1121 -0.9937 0.0011
vn 0.1122 -0.9937 -0.0012
vn 0.1153 -0.9933 -0.0031
usemtl feather_red_001
s 1
f 3//1 1//2 4//3 8//4
f 8//4 4//3 5//5 9//6
f 2//7 3//1 8//4 7//8
f 7//8 8//4 9//6 6//9
f 9//6 5//5 12//10 18//11
f 18//11 12//10 11//12 17//13
f 17//13 11//12 10//14 16//15
f 6//9 9//6 18//11 13//16
f 13//16 18//11 17//13 14//17
f 14//17 17//13 16//15 15//18
