# Blender v2.79 (sub 0) OBJ File: 'parrot_base_mesh_BI.blend'
# www.blender.org
mtllib parrot_feather_tail_primary_004.mtl
o feather_tail_primary_004
v 0.003448 0.058314 -0.104782
v -0.003700 0.058314 -0.105672
v 0.016460 0.058314 -0.199268
v 0.006859 0.058314 -0.200463
v -0.000423 0.058900 -0.102846
v 0.012279 0.058900 -0.204846
v 0.006037 0.058314 -0.112469
v 0.008519 0.058314 -0.122588
v 0.016676 0.058314 -0.180804
v 0.017330 0.058314 -0.191150
v 0.004024 0.058314 -0.192807
v 0.002121 0.058314 -0.182616
v -0.004249 0.058314 -0.124178
v -0.004324 0.058314 -0.113759
v 0.000856 0.058900 -0.113114
v 0.002135 0.058900 -0.123383
v 0.009398 0.058900 -0.181710
v 0.010677 0.058900 -0.191978
v 0.015269 0.058314 -0.169132
v 0.013729 0.058314 -0.157478
v 0.012132 0.058314 -0.145830
v 0.010479 0.058314 -0.134190
v -0.003304 0.058314 -0.135906
v -0.002051 0.058314 -0.147597
v -0.000743 0.058314 -0.159280
v 0.000622 0.058314 -0.170956
v 0.007946 0.058900 -0.170044
v 0.006493 0.058900 -0.158379
v 0.005040 0.058900 -0.146713
v 0.003588 0.058900 -0.135048
vn 0.0007 1.0000 -0.0059
vn 0.0931 0.9956 0.0059
vn 0.1055 0.9944 0.0037
vn 0.0012 0.9999 -0.0093
vn -0.0917 0.9956 -0.0171
vn -0.1032 0.9944 -0.0223
vn -0.0015 0.9999 0.0119
vn 0.1325 0.9908 0.0285
vn 0.1138 0.9932 0.0228
vn -0.0011 0.9999 0.0089
vn 0.0922 0.9956 0.0153
vn -0.0005 1.0000 0.0038
vn 0.0000 1.0000 0.0001
vn 0.0790 0.9968 0.0099
vn 0.0809 0.9967 0.0087
vn 0.0002 1.0000 -0.0013
vn -0.1354 0.9908 -0.0048
vn -0.1159 0.9932 -0.0058
vn -0.0932 0.9956 -0.0078
vn -0.0790 0.9968 -0.0097
vn -0.0805 0.9967 -0.0114
vn 0.0843 0.9964 0.0118
vn -0.0002 1.0000 0.0013
vn 0.0812 0.9966 0.0107
vn -0.0001 1.0000 0.0006
vn 0.0797 0.9968 0.0103
vn -0.0000 1.0000 0.0004
vn -0.0846 0.9964 -0.0092
vn -0.0814 0.9966 -0.0095
vn -0.0797 0.9968 -0.0095
usemtl feather_red_002
s 1
f 18//1 10//2 3//3 6//4
f 11//5 18//1 6//4 4//6
f 5//7 1//8 7//9 15//10
f 15//10 7//9 8//11 16//12
f 27//13 19//14 9//15 17//16
f 17//16 9//15 10//2 18//1
f 2//17 5//7 15//10 14//18
f 14//18 15//10 16//12 13//19
f 26//20 27//13 17//16 12//21
f 12//21 17//16 18//1 11//5
f 16//12 8//11 22//22 30//23
f 30//23 22//22 21//24 29//25
f 29//25 21//24 20//26 28//27
f 28//27 20//26 19//14 27//13
f 13//19 16//12 30//23 23//28
f 23//28 30//23 29//25 24//29
f 24//29 29//25 28//27 25//30
f 25//30 28//27 27//13 26//20
