# Blender v2.79 (sub 0) OBJ File: 'parrot_base_mesh_BI.blend'
# www.blender.org
mtllib parrot_feather_flight_tertiary_030.mtl
o feather_flight_tertiary_030
v 0.178682 0.119529 0.041145
v 0.177483 0.117097 0.041102
v 0.194176 0.112328 0.041300
v 0.192539 0.109010 0.041241
v 0.177308 0.118708 0.041457
v 0.195073 0.109818 0.041627
v 0.181594 0.118895 0.041182
v 0.185236 0.117766 0.041224
v 0.188778 0.116435 0.041263
v 0.192097 0.114652 0.041293
v 0.189445 0.109275 0.041198
v 0.186029 0.110861 0.041164
v 0.182837 0.112902 0.041138
v 0.179743 0.115142 0.041115
v 0.180675 0.117023 0.041489
v 0.184043 0.115338 0.041522
v 0.187410 0.113653 0.041554
v 0.190777 0.111968 0.041586
vn 0.0038 0.0151 -0.9999
vn -0.0514 -0.0987 -0.9938
vn -0.0716 -0.1126 -0.9910
vn -0.0050 0.0206 -0.9998
vn 0.0618 0.1276 -0.9899
vn 0.0607 0.1513 -0.9866
vn 0.0343 -0.0008 -0.9994
vn -0.0552 -0.1788 -0.9823
vn -0.0455 -0.1462 -0.9882
vn 0.0296 0.0020 -0.9995
vn -0.0347 -0.1078 -0.9936
vn 0.0225 0.0060 -0.9997
vn -0.0343 -0.0925 -0.9951
vn 0.0166 0.0090 -0.9998
vn 0.1225 0.1772 -0.9765
vn 0.1026 0.1505 -0.9832
vn 0.0790 0.1197 -0.9897
vn 0.0671 0.1104 -0.9916
usemtl feather_gray_002
s 1
f 18//1 10//2 3//3 6//4
f 11//5 18//1 6//4 4//6
f 5//7 1//8 7//9 15//10
f 15//10 7//9 8//11 16//12
f 16//12 8//11 9//13 17//14
f 17//14 9//13 10//2 18//1
f 2//15 5//7 15//10 14//16
f 14//16 15//10 16//12 13//17
f 13//17 16//12 17//14 12//18
f 12//18 17//14 18//1 11//5
