# Blender v2.79 (sub 0) OBJ File: 'parrot_base_mesh_BI.blend'
# www.blender.org
mtllib parrot_eye.mtl
o eye
v 0.017139 0.180619 0.090423
v 0.015875 0.182605 0.090137
v 0.014257 0.183569 0.089730
v 0.012409 0.183821 0.089243
v 0.010614 0.183323 0.088750
v 0.009144 0.182150 0.088327
v 0.008224 0.180482 0.088037
v 0.017288 0.180525 0.089895
v 0.016239 0.182373 0.088844
v 0.014732 0.183266 0.088041
v 0.012923 0.183493 0.087415
v 0.011089 0.183020 0.087061
v 0.009508 0.181919 0.087034
v 0.008421 0.180357 0.087338
v 0.017429 0.180228 0.089445
v 0.016584 0.181647 0.087744
v 0.015182 0.182317 0.086603
v 0.013411 0.182466 0.085859
v 0.011539 0.182071 0.085624
v 0.009853 0.181192 0.085934
v 0.008607 0.179964 0.086742
v 0.007993 0.178572 0.087926
v 0.017541 0.179774 0.089143
v 0.016858 0.180536 0.087004
v 0.015540 0.180865 0.085637
v 0.013798 0.180895 0.084813
v 0.011897 0.180619 0.084657
v 0.010127 0.180081 0.085194
v 0.008756 0.179362 0.086342
v 0.017606 0.179233 0.089034
v 0.017019 0.179209 0.086737
v 0.015751 0.179132 0.085288
v 0.014027 0.179019 0.084435
v 0.012108 0.178886 0.084309
v 0.010288 0.178755 0.084927
v 0.008843 0.178644 0.086198
v 0.017616 0.178685 0.089135
v 0.017043 0.177869 0.086984
v 0.015783 0.177381 0.085610
v 0.014061 0.177124 0.084784
v 0.012140 0.177135 0.084631
v 0.010312 0.177415 0.085174
v 0.008856 0.177919 0.086331
v 0.017512 0.179215 0.090485
v 0.017569 0.178216 0.089430
v 0.016926 0.176720 0.087707
v 0.015630 0.175880 0.086554
v 0.013896 0.175498 0.085806
v 0.011987 0.175634 0.085575
v 0.010196 0.176265 0.085897
v 0.008793 0.177297 0.086722
v 0.017471 0.177896 0.089875
v 0.016687 0.175936 0.088795
v 0.015317 0.174855 0.087977
v 0.013557 0.174390 0.087345
v 0.011674 0.174609 0.086997
v 0.009956 0.175481 0.086985
v 0.008663 0.176873 0.087311
v 0.017337 0.177774 0.090401
v 0.016360 0.175637 0.090084
v 0.014891 0.174465 0.089661
v 0.013095 0.173967 0.089168
v 0.011248 0.174219 0.088681
v 0.009629 0.175182 0.088274
v 0.008486 0.176711 0.088009
v 0.017189 0.177868 0.090929
v 0.015997 0.175868 0.091377
v 0.014416 0.174767 0.091350
v 0.012582 0.174294 0.090996
v 0.010773 0.174521 0.090370
v 0.009266 0.175414 0.089567
v 0.008290 0.176836 0.088708
v 0.017048 0.178165 0.091378
v 0.015652 0.176595 0.092477
v 0.013965 0.175716 0.092787
v 0.012094 0.175321 0.092552
v 0.010323 0.175470 0.091807
v 0.008921 0.176140 0.090667
v 0.008103 0.177230 0.089304
v 0.016936 0.178619 0.091680
v 0.015378 0.177706 0.093217
v 0.013607 0.177168 0.093754
v 0.011706 0.176893 0.093598
v 0.009965 0.176922 0.092774
v 0.008647 0.177251 0.091407
v 0.007955 0.177831 0.089704
v 0.016870 0.179161 0.091789
v 0.015217 0.179033 0.093483
v 0.013396 0.178901 0.094102
v 0.011478 0.178769 0.093976
v 0.009754 0.178655 0.093123
v 0.008486 0.178578 0.091673
v 0.007868 0.178549 0.089849
v 0.016861 0.179708 0.091689
v 0.015193 0.180373 0.093237
v 0.013365 0.180652 0.093780
v 0.011444 0.180664 0.093627
v 0.009722 0.180406 0.092801
v 0.008462 0.179918 0.091427
v 0.007854 0.179274 0.089715
v 0.016908 0.180177 0.091394
v 0.015309 0.181522 0.092514
v 0.013517 0.182154 0.092836
v 0.011609 0.182289 0.092605
v 0.009875 0.181908 0.091856
v 0.008578 0.181067 0.090704
v 0.007918 0.179896 0.089324
v 0.017006 0.180497 0.090949
v 0.015549 0.182306 0.091426
v 0.013831 0.183178 0.091414
v 0.011948 0.183398 0.091066
v 0.010188 0.182932 0.090434
v 0.008818 0.181851 0.089616
v 0.008047 0.180320 0.088735
v 0.016918 0.181010 0.090374
v 0.017109 0.180888 0.089696
v 0.017289 0.180507 0.089120
v 0.017433 0.179925 0.088732
v 0.017518 0.179230 0.088592
v 0.017530 0.178528 0.088721
v 0.017469 0.177925 0.089100
v 0.017343 0.177514 0.089670
v 0.017172 0.177358 0.090346
v 0.016982 0.177479 0.091024
v 0.016801 0.177860 0.091600
v 0.016658 0.178442 0.091988
v 0.016573 0.179137 0.092128
v 0.016560 0.179840 0.091998
v 0.016621 0.180442 0.091620
v 0.016747 0.180853 0.091049
v 0.016397 0.181807 0.090255
v 0.016674 0.181631 0.089270
v 0.016936 0.181077 0.088432
v 0.017145 0.180230 0.087868
v 0.017268 0.179220 0.087665
v 0.017287 0.178199 0.087853
v 0.017198 0.177323 0.088403
v 0.017015 0.176725 0.089233
v 0.016766 0.176497 0.090215
v 0.016489 0.176674 0.091200
v 0.016227 0.177227 0.092038
v 0.016018 0.178074 0.092602
v 0.015895 0.179085 0.092806
v 0.015876 0.180106 0.092618
v 0.015965 0.180982 0.092067
v 0.016148 0.181579 0.091237
vn -0.0694 0.9975 0.0076
vn 0.2964 0.9494 0.1040
vn 0.3928 0.8879 -0.2392
vn 0.0346 0.9313 -0.3626
vn -0.9098 0.3425 -0.2341
vn -0.7198 0.6718 -0.1747
vn -0.6450 0.6242 -0.4408
vn -0.8679 0.3158 -0.3833
vn -0.4251 0.9006 -0.0899
vn -0.3287 0.8392 -0.4332
vn 0.6411 0.7434 0.1907
vn 0.7137 0.6971 -0.0678
vn -0.9636 -0.0651 -0.2591
vn -0.5740 0.4747 -0.6672
vn -0.8281 0.2320 -0.5103
vn 0.1333 0.7233 -0.6775
vn -0.2371 0.6463 -0.7253
vn 0.7827 0.5518 -0.2879
vn 0.4844 0.6950 -0.5313
vn -0.7965 0.1037 -0.5956
vn -0.1643 0.3513 -0.9217
vn -0.5176 0.2460 -0.8195
vn 0.5571 0.4000 -0.7277
vn 0.2118 0.4051 -0.8894
vn 0.8375 0.3296 -0.4358
vn -0.1215 -0.0009 -0.9926
vn -0.4844 -0.0270 -0.8744
vn 0.6000 0.0478 -0.7985
vn 0.2580 0.0253 -0.9658
vn -0.7779 -0.0493 -0.6264
vn 0.8698 0.0642 -0.4892
vn -0.4794 -0.3028 -0.8236
vn -0.7751 -0.2040 -0.5980
vn 0.2649 -0.3583 -0.8952
vn -0.1151 -0.3567 -0.9271
vn 0.8746 -0.2037 -0.4399
vn 0.6064 -0.3079 -0.7331
vn 0.2315 -0.6875 -0.6883
vn -0.1461 -0.6619 -0.7353
vn 0.8513 -0.4336 -0.2954
vn 0.5754 -0.6131 -0.5412
vn -0.7885 -0.3367 -0.5146
vn -0.5034 -0.5394 -0.6749
vn -0.8162 -0.4271 -0.3889
vn -0.2097 -0.8700 -0.4462
vn -0.5528 -0.7008 -0.4508
vn 0.5118 -0.8213 -0.2522
vn 0.1628 -0.9119 -0.3766
vn 0.8033 -0.5904 -0.0776
vn 0.4251 -0.9006 0.0899
vn 0.0694 -0.9975 -0.0076
vn -0.6200 -0.7623 -0.1856
vn -0.8539 -0.4617 -0.2402
vn -0.2964 -0.9494 -0.1040
vn 0.7381 -0.6502 0.1801
vn -0.6947 -0.7147 0.0805
vn -0.8958 -0.4349 -0.0910
vn -0.0346 -0.9313 0.3626
vn -0.3928 -0.8879 0.2392
vn 0.6654 -0.6039 0.4387
vn 0.3287 -0.8392 0.4332
vn 0.5964 -0.4586 0.6587
vn 0.2371 -0.6463 0.7253
vn -0.9356 -0.3511 0.0360
vn -0.4844 -0.6950 0.5313
vn -0.7657 -0.5652 0.3069
vn -0.1333 -0.7233 0.6775
vn -0.9673 -0.2228 0.1213
vn -0.5571 -0.4000 0.7277
vn -0.8221 -0.3365 0.4592
vn 0.1643 -0.3513 0.9217
vn -0.2118 -0.4051 0.8894
vn 0.5416 -0.2364 0.8067
vn -0.8553 -0.0634 0.5141
vn -0.9859 -0.0698 0.1522
vn -0.2580 -0.0253 0.9658
vn -0.6000 -0.0478 0.7985
vn 0.5094 0.0289 0.8600
vn 0.1215 0.0009 0.9926
vn -0.8603 0.2123 0.4634
vn -0.9887 0.0849 0.1237
vn -0.2649 0.3583 0.8952
vn -0.6064 0.3079 0.7331
vn 0.5045 0.2969 0.8107
vn 0.1151 0.3567 0.9271
vn -0.9752 0.2175 0.0403
vn -0.5754 0.6131 0.5412
vn -0.8363 0.4489 0.3146
vn 0.1461 0.6619 0.7353
vn -0.2315 0.6875 0.6883
vn 0.5278 0.5268 0.6662
vn -0.5118 0.8212 0.2522
vn -0.7870 0.6103 0.0906
vn 0.2097 0.8700 0.4462
vn -0.1628 0.9119 0.3766
vn -0.9475 0.3080 -0.0853
vn 0.5758 0.6836 0.4485
vn 0.7179 0.4008 0.5692
vn 0.7371 0.3846 0.5556
vn 0.7699 0.4914 0.4072
vn 0.7523 0.5133 0.4130
vn 0.7011 0.2359 0.6728
vn 0.7212 0.2279 0.6541
vn 0.7046 0.0436 0.7082
vn 0.7245 0.0452 0.6877
vn 0.7278 -0.1467 0.6699
vn 0.7465 -0.1356 0.6513
vn 0.7671 -0.3061 0.5638
vn 0.7839 -0.2871 0.5505
vn 0.8166 -0.4104 0.4059
vn 0.8309 -0.3862 0.4005
vn 0.8687 -0.4436 0.2204
vn 0.8805 -0.4177 0.2243
vn 0.9155 -0.4006 0.0355
vn 0.9250 -0.3769 0.0485
vn 0.9499 -0.2882 -0.1207
vn 0.9576 -0.2701 -0.0998
vn 0.9667 -0.1232 -0.2243
vn 0.9735 -0.1134 -0.1983
vn 0.9632 0.0690 -0.2597
vn 0.9702 0.0693 -0.2320
vn 0.9400 0.2593 -0.2214
vn 0.9482 0.2501 -0.1956
vn 0.9007 0.4187 -0.1153
vn 0.9109 0.4016 -0.0947
vn 0.8513 0.5230 0.0425
vn 0.8639 0.5007 0.0552
vn 0.7991 0.5562 0.2280
vn 0.8143 0.5322 0.2315
vn 0.8838 0.3976 0.2465
vn 0.9636 0.0651 0.2591
vn 0.9189 0.3753 0.1217
vn 0.9522 0.3051 0.0155
vn 0.9786 0.1979 -0.0559
vn 0.9942 0.0698 -0.0817
vn 0.9965 -0.0595 -0.0579
vn 0.9853 -0.1705 0.0119
vn 0.9621 -0.2462 0.1169
vn 0.9306 -0.2750 0.2414
vn 0.8955 -0.2527 0.3662
vn 0.8622 -0.1826 0.4724
vn 0.8358 -0.0753 0.5438
vn 0.8202 0.0527 0.5696
vn 0.8179 0.1821 0.5458
vn 0.8292 0.2930 0.4760
vn 0.8523 0.3687 0.3709
usemtl eyes_iris_001
s 1
f 4//1 3//2 10//3 11//4
f 7//5 6//6 13//7 14//8
f 5//9 4//1 11//4 12//10
f 3//2 2//11 9//12 10//3
f 22//13 7//5 14//8
f 6//6 5//9 12//10 13//7
f 14//8 13//7 20//14 21//15
f 12//10 11//4 18//16 19//17
f 10//3 9//12 16//18 17//19
f 22//13 14//8 21//15
f 13//7 12//10 19//17 20//14
f 11//4 10//3 17//19 18//16
f 22//13 21//15 29//20
f 20//14 19//17 27//21 28//22
f 18//16 17//19 25//23 26//24
f 21//15 20//14 28//22 29//20
f 19//17 18//16 26//24 27//21
f 17//19 16//18 24//25 25//23
f 28//22 27//21 34//26 35//27
f 26//24 25//23 32//28 33//29
f 29//20 28//22 35//27 36//30
f 27//21 26//24 33//29 34//26
f 25//23 24//25 31//31 32//28
f 22//13 29//20 36//30
f 36//30 35//27 42//32 43//33
f 34//26 33//29 40//34 41//35
f 32//28 31//31 38//36 39//37
f 22//13 36//30 43//33
f 35//27 34//26 41//35 42//32
f 33//29 32//28 39//37 40//34
f 41//35 40//34 48//38 49//39
f 39//37 38//36 46//40 47//41
f 22//13 43//33 51//42
f 42//32 41//35 49//39 50//43
f 40//34 39//37 47//41 48//38
f 43//33 42//32 50//43 51//42
f 22//13 51//42 58//44
f 50//43 49//39 56//45 57//46
f 48//38 47//41 54//47 55//48
f 51//42 50//43 57//46 58//44
f 49//39 48//38 55//48 56//45
f 47//41 46//40 53//49 54//47
f 55//48 54//47 61//50 62//51
f 58//44 57//46 64//52 65//53
f 56//45 55//48 62//51 63//54
f 54//47 53//49 60//55 61//50
f 22//13 58//44 65//53
f 57//46 56//45 63//54 64//52
f 65//53 64//52 71//56 72//57
f 63//54 62//51 69//58 70//59
f 61//50 60//55 67//60 68//61
f 22//13 65//53 72//57
f 64//52 63//54 70//59 71//56
f 62//51 61//50 68//61 69//58
f 68//61 67//60 74//62 75//63
f 22//13 72//57 79//64
f 71//56 70//59 77//65 78//66
f 69//58 68//61 75//63 76//67
f 72//57 71//56 78//66 79//64
f 70//59 69//58 76//67 77//65
f 22//13 79//64 86//68
f 78//66 77//65 84//69 85//70
f 76//67 75//63 82//71 83//72
f 79//64 78//66 85//70 86//68
f 77//65 76//67 83//72 84//69
f 75//63 74//62 81//73 82//71
f 86//68 85//70 92//74 93//75
f 84//69 83//72 90//76 91//77
f 82//71 81//73 88//78 89//79
f 22//13 86//68 93//75
f 85//70 84//69 91//77 92//74
f 83//72 82//71 89//79 90//76
f 93//75 92//74 99//80 100//81
f 91//77 90//76 97//82 98//83
f 89//79 88//78 95//84 96//85
f 22//13 93//75 100//81
f 92//74 91//77 98//83 99//80
f 90//76 89//79 96//85 97//82
f 22//13 100//81 107//86
f 99//80 98//83 105//87 106//88
f 97//82 96//85 103//89 104//90
f 100//81 99//80 106//88 107//86
f 98//83 97//82 104//90 105//87
f 96//85 95//84 102//91 103//89
f 106//88 105//87 112//92 113//93
f 104//90 103//89 110//94 111//95
f 107//86 106//88 113//93 114//96
f 105//87 104//90 111//95 112//92
f 103//89 102//91 109//97 110//94
f 22//13 107//86 114//96
f 114//96 113//93 6//6 7//5
f 112//92 111//95 4//1 5//9
f 110//94 109//97 2//11 3//2
f 22//13 114//96 7//5
f 113//93 112//92 5//9 6//6
f 111//95 110//94 3//2 4//1
f 145//98 129//99 130//100 146//101
f 144//102 128//103 129//99 145//98
f 143//104 127//105 128//103 144//102
f 142//106 126//107 127//105 143//104
f 141//108 125//109 126//107 142//106
f 140//110 124//111 125//109 141//108
f 139//112 123//113 124//111 140//110
f 138//114 122//115 123//113 139//112
f 137//116 121//117 122//115 138//114
f 136//118 120//119 121//117 137//116
f 135//120 119//121 120//119 136//118
f 134//122 118//123 119//121 135//120
f 133//124 117//125 118//123 134//122
f 132//126 116//127 117//125 133//124
f 131//128 115//129 116//127 132//126
f 146//101 130//100 115//129 131//128
f 109//97 146//101 131//128 2//11
f 2//11 131//128 132//126 9//12
f 9//12 132//126 133//124 16//18
f 16//18 133//124 134//122 24//25
f 24//25 134//122 135//120 31//31
f 31//31 135//120 136//118 38//36
f 38//36 136//118 137//116 46//40
f 46//40 137//116 138//114 53//49
f 53//49 138//114 139//112 60//55
f 60//55 139//112 140//110 67//60
f 67//60 140//110 141//108 74//62
f 74//62 141//108 142//106 81//73
f 81//73 142//106 143//104 88//78
f 88//78 143//104 144//102 95//84
f 95//84 144//102 145//98 102//91
f 102//91 145//98 146//101 109//97
usemtl eyes_pupil
f 1//130 44//131 8//132
f 8//132 44//131 15//133
f 115//129 1//130 8//132 116//127
f 15//133 44//131 23//134
f 116//127 8//132 15//133 117//125
f 117//125 15//133 23//134 118//123
f 23//134 44//131 30//135
f 30//135 44//131 37//136
f 118//123 23//134 30//135 119//121
f 37//136 44//131 45//137
f 119//121 30//135 37//136 120//119
f 120//119 37//136 45//137 121//117
f 45//137 44//131 52//138
f 121//117 45//137 52//138 122//115
f 52//138 44//131 59//139
f 59//139 44//131 66//140
f 122//115 52//138 59//139 123//113
f 66//140 44//131 73//141
f 123//113 59//139 66//140 124//111
f 124//111 66//140 73//141 125//109
f 73//141 44//131 80//142
f 125//109 73//141 80//142 126//107
f 80//142 44//131 87//143
f 87//143 44//131 94//144
f 126//107 80//142 87//143 127//105
f 94//144 44//131 101//145
f 127//105 87//143 94//144 128//103
f 128//103 94//144 101//145 129//99
f 101//145 44//131 108//146
f 108//146 44//131 1//130
f 129//99 101//145 108//146 130//100
f 130//100 108//146 1//130 115//129
