# Blender v2.79 (sub 0) OBJ File: 'parrot_base_mesh_BI.blend'
# www.blender.org
mtllib parrot_feather_flight_tertiary_010.mtl
o feather_flight_tertiary_010
v 0.080562 0.118219 0.041117
v 0.077187 0.117995 0.041117
v 0.081978 0.106193 0.041117
v 0.077373 0.105887 0.041117
v 0.078834 0.118724 0.041456
v 0.079765 0.104690 0.041456
v 0.081615 0.116237 0.041117
v 0.082563 0.113628 0.041117
v 0.083232 0.111001 0.041117
v 0.083272 0.108331 0.041117
v 0.075808 0.107836 0.041117
v 0.075495 0.110487 0.041117
v 0.075811 0.113180 0.041117
v 0.076405 0.115891 0.041117
v 0.079010 0.116064 0.041456
v 0.079187 0.113404 0.041456
v 0.079363 0.110744 0.041456
v 0.079540 0.108084 0.041456
vn -0.0011 0.0167 -0.9998
vn -0.1003 0.0064 -0.9949
vn -0.1200 0.0232 -0.9925
vn -0.0020 0.0312 -0.9995
vn 0.0986 0.0196 -0.9949
vn 0.1159 0.0388 -0.9925
vn 0.0021 -0.0315 -0.9995
vn -0.1575 -0.0417 -0.9866
vn -0.1289 -0.0306 -0.9911
vn 0.0016 -0.0239 -0.9997
vn -0.1002 -0.0185 -0.9948
vn 0.0008 -0.0125 -0.9999
vn -0.0903 -0.0089 -0.9958
vn 0.0002 -0.0031 -1.0000
vn 0.1617 -0.0205 -0.9866
vn 0.1318 -0.0133 -0.9911
vn 0.1017 -0.0051 -0.9948
vn 0.0907 0.0031 -0.9958
usemtl feather_gray_002
s 1
f 18//1 10//2 3//3 6//4
f 11//5 18//1 6//4 4//6
f 5//7 1//8 7//9 15//10
f 15//10 7//9 8//11 16//12
f 16//12 8//11 9//13 17//14
f 17//14 9//13 10//2 18//1
f 2//15 5//7 15//10 14//16
f 14//16 15//10 16//12 13//17
f 13//17 16//12 17//14 12//18
f 12//18 17//14 18//1 11//5
