# Blender v2.79 (sub 0) OBJ File: 'parrot_base_mesh_BI.blend'
# www.blender.org
mtllib parrot_feather_flight_tertiary_012.mtl
o feather_flight_tertiary_012
v 0.090658 0.118240 0.041117
v 0.086988 0.117841 0.041117
v 0.092782 0.104932 0.041117
v 0.087773 0.104388 0.041117
v 0.088749 0.118724 0.041456
v 0.090440 0.103163 0.041456
v 0.091902 0.116083 0.041117
v 0.093062 0.113224 0.041117
v 0.093918 0.110333 0.041117
v 0.094090 0.107367 0.041117
v 0.085972 0.106485 0.041117
v 0.085503 0.109418 0.041117
v 0.085718 0.112426 0.041117
v 0.086236 0.115467 0.041117
v 0.089069 0.115775 0.041456
v 0.089390 0.112825 0.041456
v 0.089711 0.109876 0.041456
v 0.090031 0.106926 0.041456
vn -0.0016 0.0150 -0.9999
vn -0.0922 0.0018 -0.9957
vn -0.1108 0.0161 -0.9937
vn -0.0030 0.0280 -0.9996
vn 0.0896 0.0216 -0.9957
vn 0.1047 0.0395 -0.9937
vn 0.0031 -0.0282 -0.9996
vn -0.1429 -0.0438 -0.9887
vn -0.1171 -0.0327 -0.9926
vn 0.0023 -0.0214 -0.9998
vn -0.0911 -0.0206 -0.9956
vn 0.0012 -0.0112 -0.9999
vn -0.0824 -0.0116 -0.9965
vn 0.0003 -0.0028 -1.0000
vn 0.1490 -0.0121 -0.9887
vn 0.1214 -0.0067 -0.9926
vn 0.0934 -0.0006 -0.9956
vn 0.0829 0.0063 -0.9965
usemtl feather_gray_002
s 1
f 18//1 10//2 3//3 6//4
f 11//5 18//1 6//4 4//6
f 5//7 1//8 7//9 15//10
f 15//10 7//9 8//11 16//12
f 16//12 8//11 9//13 17//14
f 17//14 9//13 10//2 18//1
f 2//15 5//7 15//10 14//16
f 14//16 15//10 16//12 13//17
f 13//17 16//12 17//14 12//18
f 12//18 17//14 18//1 11//5
