# Blender v2.79 (sub 0) OBJ File: 'parrot_base_mesh_BI.blend'
# www.blender.org
mtllib parrot_feather_tail_primary_001.mtl
o feather_tail_primary_001
v 0.006044 0.058266 -0.101537
v 0.000844 0.058266 -0.104159
v 0.047993 0.058266 -0.182486
v 0.041008 0.058266 -0.186009
v 0.002411 0.058646 -0.100800
v 0.046674 0.058646 -0.188557
v 0.010634 0.058266 -0.107731
v 0.015964 0.058266 -0.116122
v 0.041918 0.058266 -0.165962
v 0.045918 0.058266 -0.175023
v 0.036239 0.058266 -0.179905
v 0.031330 0.058266 -0.171302
v 0.006676 0.058266 -0.120806
v 0.003097 0.058266 -0.111533
v 0.006866 0.058646 -0.109632
v 0.011320 0.058646 -0.118464
v 0.036624 0.058646 -0.168632
v 0.041079 0.058646 -0.177464
v 0.036890 0.058266 -0.155911
v 0.031766 0.058266 -0.145910
v 0.026600 0.058266 -0.135929
v 0.021394 0.058266 -0.125969
v 0.011368 0.058266 -0.131026
v 0.016283 0.058266 -0.141133
v 0.021239 0.058266 -0.151220
v 0.026236 0.058266 -0.161285
v 0.031563 0.058646 -0.158598
v 0.026503 0.058646 -0.148565
v 0.021442 0.058646 -0.138531
v 0.016381 0.058646 -0.128498
vn 0.0018 1.0000 -0.0036
vn 0.0686 0.9972 0.0303
vn 0.0783 0.9964 0.0323
vn 0.0029 1.0000 -0.0057
vn -0.0652 0.9972 -0.0372
vn -0.0725 0.9964 -0.0437
vn -0.0037 0.9999 0.0073
vn 0.0933 0.9940 0.0561
vn 0.0806 0.9956 0.0472
vn -0.0027 1.0000 0.0054
vn 0.0658 0.9972 0.0361
vn -0.0012 1.0000 0.0023
vn 0.0000 1.0000 0.0000
vn 0.0570 0.9980 0.0288
vn 0.0587 0.9979 0.0286
vn 0.0004 1.0000 -0.0008
vn -0.1006 0.9940 -0.0416
vn -0.0859 0.9956 -0.0367
vn -0.0681 0.9972 -0.0315
vn -0.0570 0.9980 -0.0287
vn -0.0579 0.9979 -0.0302
vn 0.0606 0.9977 0.0315
vn -0.0004 1.0000 0.0008
vn 0.0585 0.9978 0.0300
vn -0.0002 1.0000 0.0004
vn 0.0574 0.9979 0.0293
vn -0.0001 1.0000 0.0002
vn -0.0614 0.9977 -0.0300
vn -0.0589 0.9978 -0.0292
vn -0.0577 0.9979 -0.0288
usemtl feather_red_002
s 1
f 18//1 10//2 3//3 6//4
f 11//5 18//1 6//4 4//6
f 5//7 1//8 7//9 15//10
f 15//10 7//9 8//11 16//12
f 27//13 19//14 9//15 17//16
f 17//16 9//15 10//2 18//1
f 2//17 5//7 15//10 14//18
f 14//18 15//10 16//12 13//19
f 26//20 27//13 17//16 12//21
f 12//21 17//16 18//1 11//5
f 16//12 8//11 22//22 30//23
f 30//23 22//22 21//24 29//25
f 29//25 21//24 20//26 28//27
f 28//27 20//26 19//14 27//13
f 13//19 16//12 30//23 23//28
f 23//28 30//23 29//25 24//29
f 24//29 29//25 28//27 25//30
f 25//30 28//27 27//13 26//20
