# Blender v2.79 (sub 0) OBJ File: 'parrot_base_mesh_BI.blend'
# www.blender.org
mtllib parrot_feather_flight_primary_009.mtl
o feather_flight_primary_009
v 0.119127 0.116672 0.040260
v 0.113044 0.115042 0.040260
v 0.135270 0.060865 0.040260
v 0.126968 0.058641 0.040260
v 0.115317 0.118724 0.040599
v 0.132801 0.053477 0.040599
v 0.123327 0.107615 0.040260
v 0.128031 0.095619 0.040260
v 0.132233 0.083490 0.040260
v 0.135300 0.071056 0.040260
v 0.121846 0.067451 0.040260
v 0.118286 0.079752 0.040260
v 0.115860 0.092358 0.040260
v 0.113936 0.105098 0.040260
v 0.118631 0.106356 0.040599
v 0.121945 0.093989 0.040599
v 0.125259 0.081621 0.040599
v 0.128573 0.069253 0.040599
vn -0.0009 0.0034 -1.0000
vn -0.0539 -0.0111 -0.9985
vn -0.0633 -0.0102 -0.9979
vn -0.0017 0.0063 -1.0000
vn 0.0523 0.0173 -0.9985
vn 0.0599 0.0228 -0.9979
vn 0.0017 -0.0063 -1.0000
vn -0.0821 -0.0288 -0.9962
vn -0.0687 -0.0234 -0.9973
vn 0.0013 -0.0048 -1.0000
vn -0.0525 -0.0167 -0.9985
vn 0.0007 -0.0025 -1.0000
vn -0.0470 -0.0132 -0.9988
vn 0.0002 -0.0006 -1.0000
vn 0.0855 0.0161 -0.9962
vn 0.0713 0.0141 -0.9973
vn 0.0538 0.0117 -0.9985
vn 0.0474 0.0120 -0.9988
usemtl feather_gray_004
s 1
f 18//1 10//2 3//3 6//4
f 11//5 18//1 6//4 4//6
f 5//7 1//8 7//9 15//10
f 15//10 7//9 8//11 16//12
f 16//12 8//11 9//13 17//14
f 17//14 9//13 10//2 18//1
f 2//15 5//7 15//10 14//16
f 14//16 15//10 16//12 13//17
f 13//17 16//12 17//14 12//18
f 12//18 17//14 18//1 11//5
