# Blender v2.79 (sub 0) OBJ File: 'parrot_base_mesh_BI.blend'
# www.blender.org
mtllib parrot_feather_tail_secondary_003.mtl
o feather_tail_secondary_003
v 0.006392 0.058325 -0.103504
v 0.000881 0.058325 -0.104854
v 0.002979 0.058912 -0.101496
v 0.009808 0.058325 -0.112090
v 0.013571 0.058325 -0.123436
v 0.003728 0.058325 -0.125847
v 0.001821 0.058325 -0.114047
v 0.005815 0.058912 -0.113069
v 0.008650 0.058912 -0.124642
v 0.022340 0.058325 -0.159629
v 0.020559 0.058325 -0.149597
v 0.017184 0.058325 -0.136488
v 0.006558 0.058325 -0.139091
v 0.009625 0.058325 -0.152276
v 0.012682 0.058325 -0.161995
v 0.018313 0.058912 -0.164084
v 0.015092 0.058912 -0.150937
v 0.011871 0.058912 -0.137789
vn -0.0025 0.9999 0.0102
vn 0.1631 0.9853 0.0506
vn 0.1411 0.9891 0.0423
vn -0.0018 1.0000 0.0075
vn 0.1142 0.9930 0.0314
vn -0.0008 1.0000 0.0033
vn -0.1680 0.9853 -0.0305
vn -0.1447 0.9891 -0.0277
vn -0.1158 0.9930 -0.0250
vn 0.1045 0.9941 0.0267
vn -0.0002 1.0000 0.0011
vn 0.1052 0.9941 0.0245
vn 0.0003 1.0000 -0.0012
vn 0.1085 0.9938 0.0234
vn 0.0007 1.0000 -0.0030
vn -0.1050 0.9941 -0.0246
vn -0.1046 0.9941 -0.0269
vn -0.1070 0.9938 -0.0294
usemtl feather_red_001
s 1
f 3//1 1//2 4//3 8//4
f 8//4 4//3 5//5 9//6
f 2//7 3//1 8//4 7//8
f 7//8 8//4 9//6 6//9
f 9//6 5//5 12//10 18//11
f 18//11 12//10 11//12 17//13
f 17//13 11//12 10//14 16//15
f 6//9 9//6 18//11 13//16
f 13//16 18//11 17//13 14//17
f 14//17 17//13 16//15 15//18
