# Blender v2.79 (sub 0) OBJ File: 'parrot_base_mesh_BI.blend'
# www.blender.org
mtllib parrot_feather_flight_primary_014.mtl
o feather_flight_primary_014
v 0.167857 0.119758 0.040260
v 0.163509 0.113548 0.040260
v 0.225925 0.080786 0.040260
v 0.219991 0.072311 0.040260
v 0.162756 0.118703 0.040599
v 0.229366 0.072062 0.040599
v 0.178738 0.114656 0.040260
v 0.192358 0.107234 0.040260
v 0.205619 0.099300 0.040260
v 0.218068 0.090207 0.040260
v 0.208451 0.076473 0.040260
v 0.195649 0.085061 0.040260
v 0.183658 0.094809 0.040260
v 0.172025 0.105069 0.040260
v 0.175382 0.109862 0.040599
v 0.188008 0.101021 0.040599
v 0.200634 0.092181 0.040599
v 0.213260 0.083340 0.040599
vn -0.0023 0.0016 -1.0000
vn -0.0284 -0.0359 -0.9989
vn -0.0349 -0.0403 -0.9986
vn -0.0044 0.0031 -1.0000
vn 0.0240 0.0389 -0.9989
vn 0.0260 0.0465 -0.9986
vn 0.0045 -0.0031 -1.0000
vn -0.0369 -0.0622 -0.9974
vn -0.0313 -0.0516 -0.9982
vn 0.0034 -0.0024 -1.0000
vn -0.0245 -0.0387 -0.9989
vn 0.0018 -0.0012 -1.0000
vn -0.0229 -0.0336 -0.9991
vn 0.0004 -0.0003 -1.0000
vn 0.0458 0.0559 -0.9974
vn 0.0378 0.0470 -0.9982
vn 0.0280 0.0362 -0.9989
vn 0.0237 0.0330 -0.9991
usemtl feather_gray_004
s 1
f 18//1 10//2 3//3 6//4
f 11//5 18//1 6//4 4//6
f 5//7 1//8 7//9 15//10
f 15//10 7//9 8//11 16//12
f 16//12 8//11 9//13 17//14
f 17//14 9//13 10//2 18//1
f 2//15 5//7 15//10 14//16
f 14//16 15//10 16//12 13//17
f 13//17 16//12 17//14 12//18
f 12//18 17//14 18//1 11//5
