# Blender v2.79 (sub 0) OBJ File: 'parrot_base_mesh_BI.blend'
# www.blender.org
mtllib parrot_feather_flight_tertiary_037.mtl
o feather_flight_tertiary_037
v 0.056585 0.118107 0.039780
v 0.052997 0.118044 0.039780
v 0.057461 0.105424 0.039780
v 0.052564 0.105338 0.039780
v 0.054780 0.118724 0.039441
v 0.055037 0.103961 0.039441
v 0.057598 0.115974 0.039780
v 0.058467 0.113190 0.039780
v 0.059040 0.110401 0.039780
v 0.058943 0.107600 0.039780
v 0.051007 0.107462 0.039780
v 0.050812 0.110257 0.039780
v 0.051287 0.113065 0.039780
v 0.052059 0.115878 0.039780
v 0.054828 0.115926 0.039441
v 0.054877 0.113127 0.039441
v 0.054926 0.110329 0.039441
v 0.054975 0.107531 0.039441
vn 0.0003 -0.0160 -0.9998
vn 0.0941 -0.0107 -0.9955
vn 0.1120 -0.0276 -0.9933
vn 0.0005 -0.0298 -0.9995
vn -0.0937 -0.0140 -0.9955
vn -0.1109 -0.0316 -0.9933
vn -0.0005 0.0301 -0.9995
vn 0.1504 0.0324 -0.9881
vn 0.1228 0.0231 -0.9922
vn -0.0004 0.0228 -0.9997
vn 0.0952 0.0129 -0.9954
vn -0.0002 0.0119 -0.9999
vn 0.0855 0.0042 -0.9963
vn -0.0000 0.0030 -1.0000
vn -0.1515 0.0271 -0.9881
vn -0.1236 0.0188 -0.9922
vn -0.0956 0.0096 -0.9954
vn -0.0855 0.0013 -0.9963
usemtl feather_gray_002
s 1
f 18//1 10//2 3//3 6//4
f 11//5 18//1 6//4 4//6
f 5//7 1//8 7//9 15//10
f 15//10 7//9 8//11 16//12
f 16//12 8//11 9//13 17//14
f 17//14 9//13 10//2 18//1
f 2//15 5//7 15//10 14//16
f 14//16 15//10 16//12 13//17
f 13//17 16//12 17//14 12//18
f 12//18 17//14 18//1 11//5
