# Blender v2.79 (sub 0) OBJ File: 'parrot_base_mesh_BI.blend'
# www.blender.org
mtllib parrot_feather_flight_primary_015.mtl
o feather_flight_primary_015
v 0.178406 0.120379 0.040260
v 0.175646 0.114179 0.040260
v 0.242437 0.093225 0.040260
v 0.238670 0.084764 0.040260
v 0.173779 0.118724 0.040599
v 0.247660 0.085830 0.040599
v 0.189914 0.117274 0.040260
v 0.204549 0.112456 0.040260
v 0.218956 0.107126 0.040260
v 0.232848 0.100639 0.040260
v 0.226744 0.086928 0.040260
v 0.212627 0.092912 0.040260
v 0.199026 0.100052 0.040260
v 0.185653 0.107704 0.040260
v 0.187783 0.112489 0.040599
v 0.201787 0.106254 0.040599
v 0.215792 0.100019 0.040599
v 0.229796 0.093784 0.040599
vn -0.0027 0.0012 -1.0000
vn -0.0232 -0.0456 -0.9987
vn -0.0291 -0.0519 -0.9982
vn -0.0049 0.0022 -1.0000
vn 0.0183 0.0478 -0.9987
vn 0.0191 0.0563 -0.9982
vn 0.0050 -0.0022 -1.0000
vn -0.0277 -0.0758 -0.9967
vn -0.0237 -0.0632 -0.9977
vn 0.0038 -0.0017 -1.0000
vn -0.0188 -0.0475 -0.9987
vn 0.0020 -0.0009 -1.0000
vn -0.0179 -0.0417 -0.9990
vn 0.0005 -0.0002 -1.0000
vn 0.0378 0.0713 -0.9967
vn 0.0311 0.0599 -0.9977
vn 0.0227 0.0458 -0.9987
vn 0.0189 0.0412 -0.9990
usemtl feather_gray_004
s 1
f 18//1 10//2 3//3 6//4
f 11//5 18//1 6//4 4//6
f 5//7 1//8 7//9 15//10
f 15//10 7//9 8//11 16//12
f 16//12 8//11 9//13 17//14
f 17//14 9//13 10//2 18//1
f 2//15 5//7 15//10 14//16
f 14//16 15//10 16//12 13//17
f 13//17 16//12 17//14 12//18
f 12//18 17//14 18//1 11//5
