# Blender v2.79 (sub 0) OBJ File: 'parrot_base_mesh_BI.blend'
# www.blender.org
mtllib parrot_feather_flight_primary_001.mtl
o feather_flight_primary_001
v 0.041832 0.116705 0.040260
v 0.037550 0.116705 0.040260
v 0.042613 0.077208 0.040260
v 0.036769 0.077208 0.040260
v 0.039691 0.118724 0.040599
v 0.039691 0.072789 0.040599
v 0.042997 0.110017 0.040260
v 0.043975 0.101310 0.040260
v 0.044601 0.092603 0.040260
v 0.044427 0.083896 0.040260
v 0.034955 0.083896 0.040260
v 0.034782 0.092603 0.040260
v 0.035407 0.101310 0.040260
v 0.036386 0.110017 0.040260
v 0.039691 0.110017 0.040599
v 0.039691 0.101310 0.040599
v 0.039691 0.092603 0.040599
v 0.039691 0.083896 0.040599
vn 0.0000 0.0051 -1.0000
vn -0.0807 0.0047 -0.9967
vn -0.0936 0.0095 -0.9955
vn 0.0000 0.0096 -0.9999
vn 0.0807 0.0047 -0.9967
vn 0.0936 0.0095 -0.9955
vn 0.0000 -0.0097 -0.9999
vn -0.1270 -0.0096 -0.9919
vn -0.1063 -0.0071 -0.9943
vn 0.0000 -0.0073 -1.0000
vn -0.0808 -0.0037 -0.9967
vn 0.0000 -0.0038 -1.0000
vn -0.0718 -0.0009 -0.9974
vn 0.0000 -0.0009 -1.0000
vn 0.1270 -0.0096 -0.9919
vn 0.1063 -0.0071 -0.9943
vn 0.0808 -0.0037 -0.9967
vn 0.0718 -0.0009 -0.9974
usemtl feather_gray_004
s 1
f 18//1 10//2 3//3 6//4
f 11//5 18//1 6//4 4//6
f 5//7 1//8 7//9 15//10
f 15//10 7//9 8//11 16//12
f 16//12 8//11 9//13 17//14
f 17//14 9//13 10//2 18//1
f 2//15 5//7 15//10 14//16
f 14//16 15//10 16//12 13//17
f 13//17 16//12 17//14 12//18
f 12//18 17//14 18//1 11//5
