# Blender v2.79 (sub 0) OBJ File: 'parrot_base_mesh_BI.blend'
# www.blender.org
mtllib parrot_feather_tail_secondary_009.mtl
o feather_tail_secondary_009
v -0.002781 0.058104 -0.105936
v 0.002704 0.058104 -0.105155
v -0.000423 0.057517 -0.102846
v -0.002742 0.058104 -0.115054
v -0.002009 0.058104 -0.126827
v 0.007790 0.058104 -0.125433
v 0.005210 0.058104 -0.113922
v 0.001234 0.057517 -0.114488
v 0.002891 0.057517 -0.126130
v 0.003261 0.058104 -0.163201
v 0.001212 0.058104 -0.153356
v -0.000517 0.058104 -0.140109
v 0.010062 0.058104 -0.138603
v 0.012097 0.058104 -0.151808
v 0.012875 0.058104 -0.161833
v 0.008537 0.057517 -0.165808
v 0.006655 0.057517 -0.152582
v 0.004773 0.057517 -0.139356
vn -0.0015 -0.9999 0.0105
vn -0.1741 -0.9846 -0.0142
vn -0.1501 -0.9886 -0.0137
vn -0.0011 -0.9999 0.0078
vn -0.1205 -0.9926 -0.0138
vn -0.0005 -1.0000 0.0034
vn 0.1712 -0.9846 0.0349
vn 0.1480 -0.9886 0.0287
vn 0.1195 -0.9926 0.0204
vn -0.1094 -0.9939 -0.0144
vn -0.0002 -1.0000 0.0011
vn -0.1093 -0.9939 -0.0168
vn 0.0002 -1.0000 -0.0012
vn -0.1120 -0.9935 -0.0191
vn 0.0004 -1.0000 -0.0031
vn 0.1091 -0.9939 0.0167
vn 0.1096 -0.9939 0.0143
vn 0.1129 -0.9935 0.0129
usemtl feather_red_001
s 1
f 3//1 1//2 4//3 8//4
f 8//4 4//3 5//5 9//6
f 2//7 3//1 8//4 7//8
f 7//8 8//4 9//6 6//9
f 9//6 5//5 12//10 18//11
f 18//11 12//10 11//12 17//13
f 17//13 11//12 10//14 16//15
f 6//9 9//6 18//11 13//16
f 13//16 18//11 17//13 14//17
f 14//17 17//13 16//15 15//18
