# Blender v2.79 (sub 0) OBJ File: 'parrot_base_mesh_BI.blend'
# www.blender.org
mtllib parrot_feather_flight_primary_006.mtl
o feather_flight_primary_006
v 0.089815 0.116234 0.040260
v 0.084222 0.115941 0.040260
v 0.093539 0.064698 0.040260
v 0.085905 0.064298 0.040260
v 0.086880 0.118724 0.040599
v 0.090025 0.058727 0.040599
v 0.091794 0.107578 0.040260
v 0.093668 0.096272 0.040260
v 0.095081 0.084943 0.040260
v 0.095450 0.073558 0.040260
v 0.083079 0.072910 0.040260
v 0.082256 0.084271 0.040260
v 0.082477 0.095686 0.040260
v 0.083159 0.107125 0.040260
v 0.087476 0.107352 0.040599
v 0.088072 0.095979 0.040599
v 0.088668 0.084607 0.040599
v 0.089264 0.073234 0.040599
vn -0.0002 0.0039 -1.0000
vn -0.0619 0.0003 -0.9981
vn -0.0720 0.0035 -0.9974
vn -0.0004 0.0073 -1.0000
vn 0.0615 0.0068 -0.9981
vn 0.0712 0.0110 -0.9974
vn 0.0004 -0.0074 -1.0000
vn -0.0969 -0.0125 -0.9952
vn -0.0810 -0.0097 -0.9966
vn 0.0003 -0.0056 -1.0000
vn -0.0616 -0.0061 -0.9981
vn 0.0002 -0.0029 -1.0000
vn -0.0548 -0.0036 -0.9985
vn 0.0000 -0.0007 -1.0000
vn 0.0977 -0.0023 -0.9952
vn 0.0816 -0.0012 -0.9966
vn 0.0619 0.0004 -0.9981
vn 0.0549 0.0021 -0.9985
usemtl feather_gray_004
s 1
f 18//1 10//2 3//3 6//4
f 11//5 18//1 6//4 4//6
f 5//7 1//8 7//9 15//10
f 15//10 7//9 8//11 16//12
f 16//12 8//11 9//13 17//14
f 17//14 9//13 10//2 18//1
f 2//15 5//7 15//10 14//16
f 14//16 15//10 16//12 13//17
f 13//17 16//12 17//14 12//18
f 12//18 17//14 18//1 11//5
