# Blender v2.79 (sub 0) OBJ File: 'parrot_base_mesh_BI.blend'
# www.blender.org
mtllib parrot_feather_flight_secondary_023.mtl
o feather_flight_secondary_023
v 0.098864 0.117538 0.040160
v 0.093714 0.116997 0.040160
v 0.102799 0.089135 0.040160
v 0.095770 0.088397 0.040160
v 0.096136 0.118724 0.039821
v 0.099620 0.085577 0.039821
v 0.100772 0.112859 0.040160
v 0.102609 0.106700 0.040160
v 0.104022 0.100496 0.040160
v 0.104473 0.094191 0.040160
v 0.093082 0.092994 0.040160
v 0.092212 0.099255 0.040160
v 0.092304 0.105617 0.040160
v 0.092821 0.112023 0.040160
v 0.096796 0.112441 0.039821
v 0.097457 0.106158 0.039821
v 0.098117 0.099875 0.039821
v 0.098777 0.093592 0.039821
vn 0.0007 -0.0070 -1.0000
vn 0.0664 0.0009 -0.9978
vn 0.0785 -0.0050 -0.9969
vn 0.0014 -0.0131 -0.9999
vn -0.0652 -0.0129 -0.9978
vn -0.0757 -0.0212 -0.9969
vn -0.0014 0.0132 -0.9999
vn 0.1033 0.0242 -0.9943
vn 0.0856 0.0186 -0.9962
vn -0.0010 0.0101 -0.9999
vn 0.0657 0.0120 -0.9977
vn -0.0005 0.0052 -1.0000
vn 0.0589 0.0074 -0.9982
vn -0.0001 0.0013 -1.0000
vn -0.1061 0.0022 -0.9943
vn -0.0876 0.0004 -0.9962
vn -0.0668 -0.0019 -0.9977
vn -0.0592 -0.0049 -0.9982
usemtl feather_gray_003
s 1
f 18//1 10//2 3//3 6//4
f 11//5 18//1 6//4 4//6
f 5//7 1//8 7//9 15//10
f 15//10 7//9 8//11 16//12
f 16//12 8//11 9//13 17//14
f 17//14 9//13 10//2 18//1
f 2//15 5//7 15//10 14//16
f 14//16 15//10 16//12 13//17
f 13//17 16//12 17//14 12//18
f 12//18 17//14 18//1 11//5
