# Blender v2.79 (sub 0) OBJ File: 'parrot_base_mesh_BI.blend'
# www.blender.org
mtllib parrot_feather_flight_secondary_011.mtl
o feather_flight_secondary_011
v 0.137090 0.118578 0.040688
v 0.132134 0.116074 0.040707
v 0.151849 0.091675 0.040884
v 0.145086 0.088258 0.040909
v 0.133904 0.118721 0.041026
v 0.150018 0.086903 0.041258
v 0.140783 0.114626 0.040717
v 0.144970 0.109167 0.040757
v 0.148748 0.103501 0.040798
v 0.151602 0.097369 0.040843
v 0.140642 0.091831 0.040883
v 0.137386 0.097760 0.040840
v 0.135055 0.104157 0.040794
v 0.133133 0.110761 0.040745
v 0.136958 0.112690 0.041070
v 0.140013 0.106659 0.041114
v 0.143067 0.100628 0.041158
v 0.146122 0.094597 0.041202
vn -0.0030 -0.0013 -1.0000
vn -0.0576 -0.0301 -0.9979
vn -0.0701 -0.0290 -0.9971
vn -0.0056 0.0037 -1.0000
vn 0.0526 0.0257 -0.9983
vn 0.0591 0.0364 -0.9976
vn 0.0057 -0.0184 -0.9998
vn -0.0821 -0.0627 -0.9946
vn -0.0685 -0.0520 -0.9963
vn 0.0043 -0.0157 -0.9998
vn -0.0533 -0.0396 -0.9978
vn 0.0022 -0.0117 -0.9999
vn -0.0489 -0.0334 -0.9982
vn 0.0005 -0.0084 -0.9999
vn 0.0934 0.0261 -0.9953
vn 0.0766 0.0215 -0.9968
vn 0.0576 0.0165 -0.9982
vn 0.0500 0.0167 -0.9986
usemtl feather_gray_003
s 1
f 18//1 10//2 3//3 6//4
f 11//5 18//1 6//4 4//6
f 5//7 1//8 7//9 15//10
f 15//10 7//9 8//11 16//12
f 16//12 8//11 9//13 17//14
f 17//14 9//13 10//2 18//1
f 2//15 5//7 15//10 14//16
f 14//16 15//10 16//12 13//17
f 13//17 16//12 17//14 12//18
f 12//18 17//14 18//1 11//5
