# Blender v2.79 (sub 0) OBJ File: 'parrot_base_mesh_BI.blend'
# www.blender.org
mtllib parrot_feather_flight_primary_004.mtl
o feather_flight_primary_004
v 0.069579 0.116211 0.040260
v 0.064247 0.116211 0.040260
v 0.070551 0.067036 0.040260
v 0.063275 0.067036 0.040260
v 0.066913 0.118724 0.040599
v 0.066913 0.061535 0.040599
v 0.071029 0.107884 0.040260
v 0.072247 0.097044 0.040260
v 0.073026 0.086204 0.040260
v 0.072809 0.075363 0.040260
v 0.061017 0.075363 0.040260
v 0.060801 0.086204 0.040260
v 0.061579 0.097044 0.040260
v 0.062798 0.107884 0.040260
v 0.066913 0.107884 0.040599
v 0.066913 0.097044 0.040599
v 0.066913 0.086204 0.040599
v 0.066913 0.075363 0.040599
vn 0.0000 0.0041 -1.0000
vn -0.0649 0.0038 -0.9979
vn -0.0753 0.0077 -0.9971
vn 0.0000 0.0077 -1.0000
vn 0.0649 0.0038 -0.9979
vn 0.0753 0.0077 -0.9971
vn 0.0000 -0.0078 -1.0000
vn -0.1023 -0.0077 -0.9947
vn -0.0855 -0.0057 -0.9963
vn 0.0000 -0.0059 -1.0000
vn -0.0649 -0.0030 -0.9979
vn 0.0000 -0.0031 -1.0000
vn -0.0577 -0.0007 -0.9983
vn 0.0000 -0.0008 -1.0000
vn 0.1023 -0.0077 -0.9947
vn 0.0855 -0.0057 -0.9963
vn 0.0649 -0.0030 -0.9979
vn 0.0577 -0.0007 -0.9983
usemtl feather_gray_004
s 1
f 18//1 10//2 3//3 6//4
f 11//5 18//1 6//4 4//6
f 5//7 1//8 7//9 15//10
f 15//10 7//9 8//11 16//12
f 16//12 8//11 9//13 17//14
f 17//14 9//13 10//2 18//1
f 2//15 5//7 15//10 14//16
f 14//16 15//10 16//12 13//17
f 13//17 16//12 17//14 12//18
f 12//18 17//14 18//1 11//5
