# Blender v2.79 (sub 0) OBJ File: 'parrot_base_mesh_BI.blend'
# www.blender.org
mtllib parrot_feather_flight_tertiary_058.mtl
o feather_flight_tertiary_058
v 0.156960 0.119337 0.039780
v 0.154269 0.116937 0.039780
v 0.167616 0.108379 0.039780
v 0.163944 0.105103 0.039780
v 0.155095 0.118719 0.039441
v 0.166917 0.105466 0.039441
v 0.159413 0.118060 0.039780
v 0.162269 0.116096 0.039780
v 0.164902 0.113934 0.039780
v 0.167034 0.111325 0.039780
v 0.161083 0.106016 0.039780
v 0.158733 0.108431 0.039780
v 0.156885 0.111294 0.039780
v 0.155259 0.114354 0.039780
v 0.157336 0.116207 0.039441
v 0.159577 0.113695 0.039441
v 0.161818 0.111183 0.039441
v 0.164058 0.108670 0.039441
vn 0.0088 -0.0099 -0.9999
vn 0.0774 0.0546 -0.9955
vn 0.0992 0.0555 -0.9935
vn 0.0165 -0.0185 -0.9997
vn -0.0631 -0.0707 -0.9955
vn -0.0664 -0.0923 -0.9935
vn -0.0167 0.0187 -0.9997
vn 0.0957 0.1185 -0.9883
vn 0.0804 0.0954 -0.9922
vn -0.0126 0.0142 -0.9998
vn 0.0647 0.0704 -0.9954
vn -0.0066 0.0074 -0.9999
vn 0.0620 0.0584 -0.9963
vn -0.0016 0.0019 -1.0000
vn -0.1286 -0.0816 -0.9883
vn -0.1039 -0.0690 -0.9922
vn -0.0773 -0.0563 -0.9954
vn -0.0651 -0.0549 -0.9963
usemtl feather_gray_002
s 1
f 18//1 10//2 3//3 6//4
f 11//5 18//1 6//4 4//6
f 5//7 1//8 7//9 15//10
f 15//10 7//9 8//11 16//12
f 16//12 8//11 9//13 17//14
f 17//14 9//13 10//2 18//1
f 2//15 5//7 15//10 14//16
f 14//16 15//10 16//12 13//17
f 13//17 16//12 17//14 12//18
f 12//18 17//14 18//1 11//5
