# Blender v2.79 (sub 0) OBJ File: 'pheasant_base_mesh_BI.blend'
# www.blender.org
mtllib pheasant_feather_tail_secondary_012.mtl
o feather_tail_secondary_012
v -0.007127 0.205952 -0.143650
v 0.009310 0.205952 -0.139551
v 0.000000 0.202003 -0.137221
v -0.007203 0.205952 -0.159079
v -0.005261 0.205952 -0.178657
v 0.024098 0.205952 -0.171337
v 0.016622 0.205952 -0.153139
v 0.004709 0.202003 -0.156109
v 0.009418 0.202003 -0.174997
v 0.009734 0.205952 -0.237621
v 0.003812 0.205952 -0.221978
v -0.001079 0.205952 -0.200406
v 0.030616 0.205952 -0.192503
v 0.036425 0.205952 -0.213847
v 0.038540 0.205952 -0.230439
v 0.025469 0.202003 -0.239370
v 0.020119 0.202003 -0.217912
v 0.014769 0.202003 -0.196455
vn -0.0104 -0.9991 0.0418
vn -0.3620 -0.9309 -0.0489
vn -0.3127 -0.9486 -0.0480
vn -0.0077 -0.9995 0.0310
vn -0.2546 -0.9657 -0.0501
vn -0.0034 -0.9999 0.0135
vn 0.3426 -0.9309 0.1268
vn 0.2986 -0.9486 0.1043
vn 0.2483 -0.9657 0.0753
vn -0.2315 -0.9713 -0.0531
vn -0.0011 -1.0000 0.0045
vn -0.2296 -0.9713 -0.0621
vn 0.0012 -1.0000 -0.0049
vn -0.2339 -0.9696 -0.0710
vn 0.0031 -0.9999 -0.0124
vn 0.2294 -0.9713 0.0618
vn 0.2319 -0.9713 0.0529
vn 0.2398 -0.9696 0.0471
usemtl feather_004
s 1
f 3//1 1//2 4//3 8//4
f 8//4 4//3 5//5 9//6
f 2//7 3//1 8//4 7//8
f 7//8 8//4 9//6 6//9
f 9//6 5//5 12//10 18//11
f 18//11 12//10 11//12 17//13
f 17//13 11//12 10//14 16//15
f 6//9 9//6 18//11 13//16
f 13//16 18//11 17//13 14//17
f 14//17 17//13 16//15 15//18
