# Blender v2.79 (sub 0) OBJ File: 'pheasant_base_mesh_BI.blend'
# www.blender.org
mtllib pheasant_feather_flight_secondary_029.mtl
o feather_flight_secondary_029
v 0.170151 0.237112 0.090241
v 0.163519 0.237112 0.090241
v 0.171361 0.184422 0.090223
v 0.162309 0.184422 0.090223
v 0.166835 0.239805 0.089608
v 0.166835 0.178527 0.089588
v 0.171954 0.228190 0.090238
v 0.173470 0.216575 0.090234
v 0.174439 0.204960 0.090230
v 0.174169 0.193345 0.090226
v 0.159501 0.193345 0.090226
v 0.159232 0.204960 0.090230
v 0.160200 0.216575 0.090234
v 0.161716 0.228190 0.090238
v 0.166835 0.228190 0.089604
v 0.166835 0.216575 0.089600
v 0.166835 0.204959 0.089596
v 0.166835 0.193344 0.089593
vn 0.0000 -0.0069 -1.0000
vn 0.0970 -0.0061 -0.9952
vn 0.1128 -0.0130 -0.9935
vn 0.0000 -0.0131 -0.9999
vn -0.0970 -0.0061 -0.9952
vn -0.1128 -0.0130 -0.9935
vn 0.0000 0.0139 -0.9999
vn 0.1527 0.0137 -0.9882
vn 0.1275 0.0102 -0.9918
vn 0.0000 0.0106 -0.9999
vn 0.0973 0.0056 -0.9952
vn 0.0000 0.0057 -1.0000
vn 0.0865 0.0016 -0.9962
vn 0.0000 0.0017 -1.0000
vn -0.1527 0.0137 -0.9882
vn -0.1275 0.0102 -0.9918
vn -0.0973 0.0056 -0.9952
vn -0.0865 0.0016 -0.9962
usemtl feather_005
s 1
f 18//1 10//2 3//3 6//4
f 11//5 18//1 6//4 4//6
f 5//7 1//8 7//9 15//10
f 15//10 7//9 8//11 16//12
f 16//12 8//11 9//13 17//14
f 17//14 9//13 10//2 18//1
f 2//15 5//7 15//10 14//16
f 14//16 15//10 16//12 13//17
f 13//17 16//12 17//14 12//18
f 12//18 17//14 18//1 11//5
