# Blender v2.79 (sub 0) OBJ File: 'pheasant_base_mesh_BI.blend'
# www.blender.org
mtllib pheasant_feather_flight_primary_007.mtl
o feather_flight_primary_007
v 0.154843 0.233564 0.090399
v 0.147672 0.233564 0.090399
v 0.156320 0.102775 0.090089
v 0.146195 0.102775 0.090089
v 0.151258 0.239805 0.091046
v 0.151258 0.097792 0.091061
v 0.156793 0.212887 0.090401
v 0.158431 0.185968 0.090404
v 0.159478 0.159049 0.090407
v 0.159187 0.132131 0.090410
v 0.143328 0.132131 0.090410
v 0.143037 0.159049 0.090407
v 0.144084 0.185968 0.090404
v 0.145723 0.212887 0.090401
v 0.151258 0.212887 0.091049
v 0.151258 0.185968 0.091052
v 0.151258 0.159049 0.091055
v 0.151258 0.132131 0.091058
vn 0.0000 0.0055 -1.0000
vn -0.1030 0.0053 -0.9947
vn -0.1277 0.0107 -0.9917
vn 0.0000 0.0108 -0.9999
vn 0.1030 0.0053 -0.9947
vn 0.1277 0.0107 -0.9917
vn 0.0000 -0.0061 -1.0000
vn -0.1445 -0.0060 -0.9895
vn -0.1219 -0.0045 -0.9925
vn 0.0000 -0.0046 -1.0000
vn -0.0923 -0.0024 -0.9957
vn 0.0000 -0.0025 -1.0000
vn -0.0819 -0.0007 -0.9966
vn 0.0000 -0.0007 -1.0000
vn 0.1445 -0.0060 -0.9895
vn 0.1219 -0.0045 -0.9925
vn 0.0923 -0.0024 -0.9957
vn 0.0819 -0.0007 -0.9966
usemtl feather_006
s 1
f 18//1 10//2 3//3 6//4
f 11//5 18//1 6//4 4//6
f 5//7 1//8 7//9 15//10
f 15//10 7//9 8//11 16//12
f 16//12 8//11 9//13 17//14
f 17//14 9//13 10//2 18//1
f 2//15 5//7 15//10 14//16
f 14//16 15//10 16//12 13//17
f 13//17 16//12 17//14 12//18
f 12//18 17//14 18//1 11//5
