# Blender v2.79 (sub 0) OBJ File: 'pheasant_base_mesh_BI.blend'
# www.blender.org
mtllib pheasant_feather_flight_tertiary_045.mtl
o feather_flight_tertiary_045
v 0.083642 0.238425 0.089440
v 0.079773 0.238425 0.089440
v 0.084347 0.211418 0.089440
v 0.079068 0.211418 0.089440
v 0.081707 0.239805 0.088806
v 0.081707 0.208396 0.088806
v 0.084693 0.233852 0.089440
v 0.085577 0.227898 0.089440
v 0.086142 0.221944 0.089440
v 0.085985 0.215991 0.089440
v 0.077430 0.215991 0.089440
v 0.077273 0.221944 0.089440
v 0.077838 0.227898 0.089440
v 0.078722 0.233852 0.089440
v 0.081707 0.233852 0.088806
v 0.081707 0.227898 0.088806
v 0.081707 0.221944 0.088806
v 0.081707 0.215991 0.088806
vn 0.0000 -0.0140 -0.9999
vn 0.1644 -0.0122 -0.9863
vn 0.1910 -0.0257 -0.9812
vn 0.0000 -0.0262 -0.9996
vn -0.1644 -0.0122 -0.9863
vn -0.1910 -0.0257 -0.9812
vn 0.0000 0.0264 -0.9996
vn 0.2560 0.0256 -0.9663
vn 0.2146 0.0188 -0.9765
vn 0.0000 0.0200 -0.9998
vn 0.1651 0.0101 -0.9862
vn 0.0000 0.0105 -0.9999
vn 0.1473 0.0025 -0.9891
vn 0.0000 0.0027 -1.0000
vn -0.2560 0.0256 -0.9663
vn -0.2146 0.0188 -0.9765
vn -0.1651 0.0101 -0.9862
vn -0.1473 0.0025 -0.9891
usemtl feather_004
s 1
f 18//1 10//2 3//3 6//4
f 11//5 18//1 6//4 4//6
f 5//7 1//8 7//9 15//10
f 15//10 7//9 8//11 16//12
f 16//12 8//11 9//13 17//14
f 17//14 9//13 10//2 18//1
f 2//15 5//7 15//10 14//16
f 14//16 15//10 16//12 13//17
f 13//17 16//12 17//14 12//18
f 12//18 17//14 18//1 11//5
