# Blender v2.79 (sub 0) OBJ File: 'pheasant_base_mesh_BI.blend'
# www.blender.org
mtllib pheasant_feather_flight_secondary_014.mtl
o feather_flight_secondary_014
v 0.248815 0.237769 0.091200
v 0.242210 0.236005 0.091205
v 0.265268 0.180993 0.091314
v 0.256253 0.178587 0.091321
v 0.244733 0.239804 0.091830
v 0.262466 0.173401 0.091964
v 0.253193 0.228580 0.091218
v 0.258064 0.216396 0.091242
v 0.262390 0.204067 0.091267
v 0.265483 0.191409 0.091293
v 0.250874 0.187509 0.091304
v 0.247245 0.200024 0.091279
v 0.244848 0.212868 0.091253
v 0.242996 0.225858 0.091226
v 0.248095 0.227217 0.091855
v 0.251456 0.214631 0.091881
v 0.254817 0.202044 0.091906
v 0.258179 0.189457 0.091932
vn -0.0019 0.0041 -1.0000
vn -0.0928 -0.0208 -0.9955
vn -0.1090 -0.0188 -0.9938
vn -0.0033 0.0095 -0.9999
vn 0.0894 0.0279 -0.9956
vn 0.1025 0.0377 -0.9940
vn 0.0029 -0.0137 -0.9999
vn -0.1403 -0.0519 -0.9887
vn -0.1177 -0.0426 -0.9921
vn 0.0021 -0.0109 -0.9999
vn -0.0902 -0.0309 -0.9954
vn 0.0010 -0.0067 -1.0000
vn -0.0810 -0.0248 -0.9964
vn 0.0001 -0.0032 -1.0000
vn 0.1461 0.0246 -0.9890
vn 0.1219 0.0214 -0.9923
vn 0.0922 0.0178 -0.9956
vn 0.0812 0.0184 -0.9965
usemtl feather_005
s 1
f 18//1 10//2 3//3 6//4
f 11//5 18//1 6//4 4//6
f 5//7 1//8 7//9 15//10
f 15//10 7//9 8//11 16//12
f 16//12 8//11 9//13 17//14
f 17//14 9//13 10//2 18//1
f 2//15 5//7 15//10 14//16
f 14//16 15//10 16//12 13//17
f 13//17 16//12 17//14 12//18
f 12//18 17//14 18//1 11//5
