# Blender v2.79 (sub 0) OBJ File: 'pheasant_base_mesh_BI.blend'
# www.blender.org
mtllib pheasant_feather_flight_primary_021.mtl
o feather_flight_primary_021
v 0.314861 0.242051 0.090400
v 0.313327 0.234837 0.090400
v 0.450699 0.212976 0.090418
v 0.432857 0.207274 0.090416
v 0.307691 0.239804 0.090884
v 0.453385 0.208857 0.090904
v 0.336492 0.239506 0.090403
v 0.364459 0.235289 0.090406
v 0.392299 0.230476 0.090410
v 0.419853 0.224317 0.090414
v 0.416460 0.208363 0.090414
v 0.388781 0.213936 0.090410
v 0.361389 0.220855 0.090406
v 0.334123 0.228370 0.090403
v 0.335307 0.233938 0.090888
v 0.362924 0.228072 0.090891
v 0.390540 0.222206 0.090895
v 0.418156 0.216340 0.090899
vn -0.0028 -0.0022 -1.0000
vn -0.0175 -0.0688 -0.9975
vn -0.0232 -0.0818 -0.9964
vn -0.0137 -0.0406 -0.9991
vn 0.0121 0.0646 -0.9978
vn 0.0122 0.0730 -0.9973
vn 0.0043 -0.0009 -1.0000
vn -0.0177 -0.1044 -0.9944
vn -0.0153 -0.0879 -0.9960
vn 0.0033 -0.0007 -1.0000
vn -0.0122 -0.0663 -0.9977
vn 0.0018 -0.0004 -1.0000
vn -0.0118 -0.0585 -0.9982
vn 0.0005 -0.0001 -1.0000
vn 0.0262 0.1026 -0.9944
vn 0.0218 0.0865 -0.9960
vn 0.0157 0.0655 -0.9977
vn 0.0129 0.0583 -0.9982
usemtl feather_006
s 1
f 18//1 10//2 3//3 6//4
f 11//5 18//1 6//4 4//6
f 5//7 1//8 7//9 15//10
f 15//10 7//9 8//11 16//12
f 16//12 8//11 9//13 17//14
f 17//14 9//13 10//2 18//1
f 2//15 5//7 15//10 14//16
f 14//16 15//10 16//12 13//17
f 13//17 16//12 17//14 12//18
f 12//18 17//14 18//1 11//5
