# Blender v2.79 (sub 0) OBJ File: 'pheasant_base_mesh_BI.blend'
# www.blender.org
mtllib pheasant_feather_flight_secondary_006.mtl
o feather_flight_secondary_006
v 0.141883 0.236720 0.091198
v 0.135736 0.236720 0.091198
v 0.143003 0.176359 0.091236
v 0.134615 0.176359 0.091236
v 0.138809 0.239805 0.091830
v 0.138809 0.169605 0.091874
v 0.143553 0.226499 0.091205
v 0.144958 0.213193 0.091213
v 0.145855 0.199886 0.091221
v 0.145606 0.186580 0.091230
v 0.132013 0.186580 0.091230
v 0.131763 0.199886 0.091221
v 0.132661 0.213193 0.091213
v 0.134065 0.226499 0.091205
v 0.138809 0.226498 0.091838
v 0.138809 0.213192 0.091847
v 0.138809 0.199886 0.091855
v 0.138809 0.186579 0.091863
vn 0.0000 0.0056 -1.0000
vn -0.1050 0.0051 -0.9944
vn -0.1216 0.0110 -0.9925
vn 0.0000 0.0111 -0.9999
vn 0.1050 0.0051 -0.9944
vn 0.1216 0.0110 -0.9925
vn 0.0000 -0.0125 -0.9999
vn -0.1644 -0.0123 -0.9863
vn -0.1379 -0.0092 -0.9904
vn 0.0000 -0.0096 -0.9999
vn -0.1050 -0.0052 -0.9944
vn 0.0000 -0.0053 -1.0000
vn -0.0933 -0.0018 -0.9956
vn 0.0000 -0.0018 -1.0000
vn 0.1644 -0.0123 -0.9863
vn 0.1379 -0.0092 -0.9904
vn 0.1050 -0.0052 -0.9944
vn 0.0933 -0.0018 -0.9956
usemtl feather_005
s 1
f 18//1 10//2 3//3 6//4
f 11//5 18//1 6//4 4//6
f 5//7 1//8 7//9 15//10
f 15//10 7//9 8//11 16//12
f 16//12 8//11 9//13 17//14
f 17//14 9//13 10//2 18//1
f 2//15 5//7 15//10 14//16
f 14//16 15//10 16//12 13//17
f 13//17 16//12 17//14 12//18
f 12//18 17//14 18//1 11//5
