# Blender v2.79 (sub 0) OBJ File: 'pheasant_base_mesh_BI.blend'
# www.blender.org
mtllib pheasant_eye.mtl
o eye
v 0.022687 0.353301 0.201824
v 0.021340 0.355446 0.201334
v 0.019325 0.356879 0.200600
v 0.016947 0.357382 0.199735
v 0.014570 0.356879 0.198870
v 0.012554 0.355446 0.198136
v 0.011207 0.353301 0.197646
v 0.023018 0.353108 0.200914
v 0.021952 0.355090 0.199653
v 0.020124 0.356414 0.198404
v 0.017813 0.356879 0.197358
v 0.015369 0.356414 0.196673
v 0.013166 0.355090 0.196455
v 0.011539 0.353108 0.196736
v 0.023299 0.352560 0.200143
v 0.022471 0.354076 0.198228
v 0.020802 0.355090 0.196542
v 0.018546 0.355446 0.195342
v 0.016047 0.355090 0.194811
v 0.013685 0.354076 0.195030
v 0.011819 0.352560 0.195965
v 0.010735 0.350771 0.197474
v 0.023487 0.351739 0.199628
v 0.022818 0.352560 0.197275
v 0.021255 0.353108 0.195297
v 0.019036 0.353301 0.193995
v 0.016500 0.353108 0.193567
v 0.014031 0.352560 0.194077
v 0.012007 0.351739 0.195449
v 0.023553 0.350771 0.199447
v 0.022939 0.350771 0.196941
v 0.021414 0.350771 0.194861
v 0.019209 0.350771 0.193522
v 0.016659 0.350771 0.193130
v 0.014153 0.350771 0.193743
v 0.012073 0.350771 0.195268
v 0.023487 0.349802 0.199628
v 0.022818 0.348981 0.197275
v 0.021255 0.348433 0.195297
v 0.019036 0.348240 0.193995
v 0.016500 0.348433 0.193567
v 0.014031 0.348981 0.194077
v 0.012007 0.349802 0.195449
v 0.023160 0.350771 0.201996
v 0.023299 0.348981 0.200143
v 0.022471 0.347465 0.198228
v 0.020802 0.346451 0.196542
v 0.018546 0.346095 0.195342
v 0.016047 0.346451 0.194811
v 0.013685 0.347465 0.195030
v 0.011819 0.348981 0.195965
v 0.023018 0.348433 0.200914
v 0.021952 0.346451 0.199653
v 0.020124 0.345127 0.198404
v 0.017813 0.344662 0.197358
v 0.015369 0.345127 0.196673
v 0.013166 0.346451 0.196455
v 0.011539 0.348433 0.196736
v 0.022687 0.348240 0.201824
v 0.021340 0.346095 0.201334
v 0.019325 0.344662 0.200600
v 0.016947 0.344159 0.199735
v 0.014570 0.344662 0.198870
v 0.012554 0.346095 0.198136
v 0.011207 0.348240 0.197646
v 0.022356 0.348433 0.202734
v 0.020729 0.346451 0.203015
v 0.018525 0.345127 0.202797
v 0.016082 0.344662 0.202113
v 0.013770 0.345127 0.201066
v 0.011942 0.346451 0.199817
v 0.010876 0.348433 0.198556
v 0.022075 0.348981 0.203505
v 0.020210 0.347465 0.204440
v 0.017848 0.346451 0.204659
v 0.015348 0.346095 0.204128
v 0.013093 0.346451 0.202928
v 0.011424 0.347465 0.201243
v 0.010596 0.348981 0.199327
v 0.021888 0.349802 0.204021
v 0.019863 0.348981 0.205393
v 0.017395 0.348433 0.205903
v 0.014858 0.348240 0.205475
v 0.012640 0.348433 0.204173
v 0.011077 0.348981 0.202195
v 0.010408 0.349802 0.199842
v 0.021822 0.350771 0.204202
v 0.019741 0.350771 0.205727
v 0.017236 0.350771 0.206340
v 0.014686 0.350771 0.205948
v 0.012481 0.350771 0.204610
v 0.010955 0.350771 0.202529
v 0.010342 0.350771 0.200023
v 0.021888 0.351739 0.204021
v 0.019863 0.352560 0.205393
v 0.017395 0.353108 0.205903
v 0.014858 0.353301 0.205475
v 0.012640 0.353108 0.204173
v 0.011077 0.352560 0.202195
v 0.010408 0.351739 0.199842
v 0.022075 0.352560 0.203505
v 0.020210 0.354076 0.204440
v 0.017848 0.355090 0.204659
v 0.015348 0.355446 0.204128
v 0.013093 0.355090 0.202928
v 0.011424 0.354076 0.201243
v 0.010596 0.352560 0.199327
v 0.022356 0.353108 0.202734
v 0.020729 0.355090 0.203015
v 0.018525 0.356414 0.202797
v 0.016082 0.356879 0.202113
v 0.013770 0.356414 0.201066
v 0.011942 0.355090 0.199817
v 0.010876 0.353108 0.198556
vn 0.6532 0.7188 0.2377
vn 0.8600 0.4031 0.3130
vn 0.9127 0.3724 0.1680
vn 0.7473 0.6641 -0.0207
vn 0.9574 0.2850 0.0451
vn 0.8271 0.5083 -0.2399
vn 0.9873 0.1542 -0.0369
vn 0.8804 0.2751 -0.3863
vn 0.9978 0.0000 -0.0658
vn 0.8991 0.0000 -0.4377
vn 0.9873 -0.1542 -0.0369
vn 0.8804 -0.2751 -0.3863
vn 0.9574 -0.2850 0.0451
vn 0.8271 -0.5083 -0.2399
vn 0.9127 -0.3724 0.1680
vn 0.7473 -0.6641 -0.0207
vn 0.8600 -0.4031 0.3130
vn 0.6532 -0.7188 0.2377
vn 0.8072 -0.3724 0.4579
vn 0.5591 -0.6641 0.4962
vn 0.7625 -0.2850 0.5808
vn 0.4794 -0.5083 0.7154
vn 0.7326 -0.1542 0.6630
vn 0.4261 -0.2751 0.8618
vn 0.7221 0.0000 0.6918
vn 0.4074 0.0000 0.9132
vn 0.7326 0.1542 0.6629
vn 0.4261 0.2751 0.8618
vn 0.7625 0.2850 0.5808
vn 0.4794 0.5083 0.7154
vn 0.8072 0.3724 0.4579
vn 0.5591 0.6641 0.4963
vn 0.0000 1.0000 0.0000
vn 0.3518 0.9273 0.1280
vn 0.4731 0.8567 -0.2054
vn 0.1309 0.9239 -0.3596
vn -0.8600 0.4031 -0.3130
vn -0.6532 0.7188 -0.2377
vn -0.5591 0.6641 -0.4963
vn -0.8072 0.3724 -0.4579
vn -0.3518 0.9273 -0.1280
vn -0.2304 0.8567 -0.4615
vn -0.9397 0.0000 -0.3420
vn -0.4794 0.5083 -0.7154
vn -0.7625 0.2850 -0.5808
vn 0.2418 0.7071 -0.6644
vn -0.1275 0.6557 -0.7442
vn 0.5760 0.6557 -0.4881
vn -0.7326 0.1542 -0.6630
vn -0.0588 0.3548 -0.9330
vn -0.4261 0.2751 -0.8618
vn 0.6448 0.3548 -0.6770
vn 0.3160 0.3827 -0.8682
vn -0.0346 0.0000 -0.9994
vn -0.4074 0.0000 -0.9132
vn 0.6689 0.0000 -0.7433
vn 0.3420 0.0000 -0.9397
vn -0.7221 0.0000 -0.6918
vn -0.4261 -0.2751 -0.8618
vn -0.7326 -0.1542 -0.6630
vn 0.3160 -0.3827 -0.8682
vn -0.0588 -0.3548 -0.9330
vn 0.6448 -0.3548 -0.6770
vn 0.2418 -0.7071 -0.6644
vn -0.1275 -0.6557 -0.7442
vn 0.5760 -0.6557 -0.4881
vn -0.7625 -0.2850 -0.5808
vn -0.4794 -0.5083 -0.7154
vn -0.8072 -0.3724 -0.4579
vn -0.2304 -0.8567 -0.4615
vn -0.5591 -0.6641 -0.4962
vn 0.4731 -0.8567 -0.2054
vn 0.1309 -0.9239 -0.3596
vn 0.3518 -0.9273 0.1280
vn 0.0000 -1.0000 0.0000
vn -0.6532 -0.7188 -0.2377
vn -0.8600 -0.4031 -0.3130
vn -0.3518 -0.9273 -0.1280
vn -0.7473 -0.6641 0.0207
vn -0.9127 -0.3724 -0.1680
vn -0.1309 -0.9239 0.3596
vn -0.4731 -0.8567 0.2054
vn 0.2304 -0.8567 0.4615
vn 0.1275 -0.6557 0.7442
vn -0.9574 -0.2850 -0.0451
vn -0.5760 -0.6557 0.4881
vn -0.8271 -0.5083 0.2399
vn -0.2418 -0.7071 0.6644
vn -0.9873 -0.1542 0.0369
vn -0.6448 -0.3548 0.6770
vn -0.8804 -0.2751 0.3863
vn 0.0588 -0.3548 0.9330
vn -0.3160 -0.3827 0.8682
vn -0.8991 0.0000 0.4377
vn -0.9978 0.0000 0.0658
vn -0.3420 0.0000 0.9397
vn -0.6689 0.0000 0.7433
vn 0.0346 0.0000 0.9994
vn -0.8804 0.2751 0.3863
vn -0.9873 0.1542 0.0369
vn -0.3160 0.3827 0.8682
vn -0.6448 0.3548 0.6770
vn 0.0588 0.3548 0.9330
vn -0.9574 0.2850 -0.0451
vn -0.5760 0.6557 0.4881
vn -0.8271 0.5083 0.2399
vn 0.1275 0.6557 0.7442
vn -0.2418 0.7071 0.6644
vn -0.4731 0.8567 0.2054
vn -0.7473 0.6641 0.0207
vn 0.2304 0.8567 0.4615
vn -0.1309 0.9239 0.3596
vn -0.9127 0.3724 -0.1680
vn 0.9397 0.0000 0.3420
usemtl eyes_iris_001
s 1
f 2//1 1//2 8//3 9//4
f 9//4 8//3 15//5 16//6
f 16//6 15//5 23//7 24//8
f 24//8 23//7 30//9 31//10
f 31//10 30//9 37//11 38//12
f 38//12 37//11 45//13 46//14
f 46//14 45//13 52//15 53//16
f 53//16 52//15 59//17 60//18
f 60//18 59//17 66//19 67//20
f 67//20 66//19 73//21 74//22
f 74//22 73//21 80//23 81//24
f 81//24 80//23 87//25 88//26
f 88//26 87//25 94//27 95//28
f 95//28 94//27 101//29 102//30
f 102//30 101//29 108//31 109//32
f 109//32 108//31 1//2 2//1
usemtl eyes_iris_002
f 4//33 3//34 10//35 11//36
f 7//37 6//38 13//39 14//40
f 5//41 4//33 11//36 12//42
f 3//34 2//1 9//4 10//35
f 22//43 7//37 14//40
f 6//38 5//41 12//42 13//39
f 14//40 13//39 20//44 21//45
f 12//42 11//36 18//46 19//47
f 10//35 9//4 16//6 17//48
f 22//43 14//40 21//45
f 13//39 12//42 19//47 20//44
f 11//36 10//35 17//48 18//46
f 22//43 21//45 29//49
f 20//44 19//47 27//50 28//51
f 18//46 17//48 25//52 26//53
f 21//45 20//44 28//51 29//49
f 19//47 18//46 26//53 27//50
f 17//48 16//6 24//8 25//52
f 28//51 27//50 34//54 35//55
f 26//53 25//52 32//56 33//57
f 29//49 28//51 35//55 36//58
f 27//50 26//53 33//57 34//54
f 25//52 24//8 31//10 32//56
f 22//43 29//49 36//58
f 36//58 35//55 42//59 43//60
f 34//54 33//57 40//61 41//62
f 32//56 31//10 38//12 39//63
f 22//43 36//58 43//60
f 35//55 34//54 41//62 42//59
f 33//57 32//56 39//63 40//61
f 41//62 40//61 48//64 49//65
f 39//63 38//12 46//14 47//66
f 22//43 43//60 51//67
f 42//59 41//62 49//65 50//68
f 40//61 39//63 47//66 48//64
f 43//60 42//59 50//68 51//67
f 22//43 51//67 58//69
f 50//68 49//65 56//70 57//71
f 48//64 47//66 54//72 55//73
f 51//67 50//68 57//71 58//69
f 49//65 48//64 55//73 56//70
f 47//66 46//14 53//16 54//72
f 55//73 54//72 61//74 62//75
f 58//69 57//71 64//76 65//77
f 56//70 55//73 62//75 63//78
f 54//72 53//16 60//18 61//74
f 22//43 58//69 65//77
f 57//71 56//70 63//78 64//76
f 65//77 64//76 71//79 72//80
f 63//78 62//75 69//81 70//82
f 61//74 60//18 67//20 68//83
f 22//43 65//77 72//80
f 64//76 63//78 70//82 71//79
f 62//75 61//74 68//83 69//81
f 68//83 67//20 74//22 75//84
f 22//43 72//80 79//85
f 71//79 70//82 77//86 78//87
f 69//81 68//83 75//84 76//88
f 72//80 71//79 78//87 79//85
f 70//82 69//81 76//88 77//86
f 22//43 79//85 86//89
f 78//87 77//86 84//90 85//91
f 76//88 75//84 82//92 83//93
f 79//85 78//87 85//91 86//89
f 77//86 76//88 83//93 84//90
f 75//84 74//22 81//24 82//92
f 86//89 85//91 92//94 93//95
f 84//90 83//93 90//96 91//97
f 82//92 81//24 88//26 89//98
f 22//43 86//89 93//95
f 85//91 84//90 91//97 92//94
f 83//93 82//92 89//98 90//96
f 93//95 92//94 99//99 100//100
f 91//97 90//96 97//101 98//102
f 89//98 88//26 95//28 96//103
f 22//43 93//95 100//100
f 92//94 91//97 98//102 99//99
f 90//96 89//98 96//103 97//101
f 22//43 100//100 107//104
f 99//99 98//102 105//105 106//106
f 97//101 96//103 103//107 104//108
f 100//100 99//99 106//106 107//104
f 98//102 97//101 104//108 105//105
f 96//103 95//28 102//30 103//107
f 106//106 105//105 112//109 113//110
f 104//108 103//107 110//111 111//112
f 107//104 106//106 113//110 114//113
f 105//105 104//108 111//112 112//109
f 103//107 102//30 109//32 110//111
f 22//43 107//104 114//113
f 114//113 113//110 6//38 7//37
f 112//109 111//112 4//33 5//41
f 110//111 109//32 2//1 3//34
f 22//43 114//113 7//37
f 113//110 112//109 5//41 6//38
f 111//112 110//111 3//34 4//33
usemtl eyes_pupil
f 1//2 44//114 8//3
f 8//3 44//114 15//5
f 15//5 44//114 23//7
f 23//7 44//114 30//9
f 30//9 44//114 37//11
f 37//11 44//114 45//13
f 45//13 44//114 52//15
f 52//15 44//114 59//17
f 59//17 44//114 66//19
f 66//19 44//114 73//21
f 73//21 44//114 80//23
f 80//23 44//114 87//25
f 87//25 44//114 94//27
f 94//27 44//114 101//29
f 101//29 44//114 108//31
f 108//31 44//114 1//2
