# Blender v2.79 (sub 0) OBJ File: 'pheasant_base_mesh_BI.blend'
# www.blender.org
mtllib pheasant_feather_flight_primary_019.mtl
o feather_flight_primary_019
v 0.303078 0.239985 0.090399
v 0.297669 0.232257 0.090399
v 0.413328 0.162413 0.090412
v 0.393592 0.161742 0.090411
v 0.295171 0.239766 0.090926
v 0.413552 0.156837 0.090939
v 0.321785 0.230011 0.090401
v 0.345460 0.216058 0.090404
v 0.368689 0.201467 0.090407
v 0.390908 0.185434 0.090409
v 0.378947 0.168344 0.090409
v 0.356288 0.183749 0.090407
v 0.334639 0.200597 0.090404
v 0.313436 0.218082 0.090401
v 0.317610 0.224046 0.090928
v 0.340049 0.208327 0.090931
v 0.362489 0.192608 0.090934
v 0.384928 0.176889 0.090936
vn -0.0035 -0.0004 -1.0000
vn -0.0370 -0.0474 -0.9982
vn -0.0467 -0.0554 -0.9973
vn -0.0238 -0.0242 -0.9994
vn 0.0305 0.0467 -0.9984
vn 0.0331 0.0536 -0.9980
vn 0.0040 -0.0028 -1.0000
vn -0.0477 -0.0765 -0.9959
vn -0.0404 -0.0640 -0.9971
vn 0.0031 -0.0021 -1.0000
vn -0.0312 -0.0480 -0.9984
vn 0.0016 -0.0011 -1.0000
vn -0.0287 -0.0419 -0.9987
vn 0.0005 -0.0003 -1.0000
vn 0.0556 0.0709 -0.9959
vn 0.0464 0.0598 -0.9971
vn 0.0344 0.0457 -0.9984
vn 0.0296 0.0412 -0.9987
usemtl feather_006
s 1
f 18//1 10//2 3//3 6//4
f 11//5 18//1 6//4 4//6
f 5//7 1//8 7//9 15//10
f 15//10 7//9 8//11 16//12
f 16//12 8//11 9//13 17//14
f 17//14 9//13 10//2 18//1
f 2//15 5//7 15//10 14//16
f 14//16 15//10 16//12 13//17
f 13//17 16//12 17//14 12//18
f 12//18 17//14 18//1 11//5
