# Blender v2.79 (sub 0) OBJ File: 'pheasant_base_mesh_BI.blend'
# www.blender.org
mtllib pheasant_feather_flight_tertiary_069.mtl
o feather_flight_tertiary_069
v 0.245093 0.239120 0.089440
v 0.241341 0.238180 0.089440
v 0.251435 0.216691 0.089440
v 0.246315 0.215409 0.089440
v 0.242928 0.239805 0.088806
v 0.249508 0.213522 0.088806
v 0.247071 0.235548 0.089440
v 0.249176 0.230781 0.089440
v 0.250971 0.225936 0.089440
v 0.252066 0.220916 0.089440
v 0.243767 0.218838 0.089440
v 0.242368 0.223782 0.089440
v 0.241668 0.228901 0.089440
v 0.241279 0.234098 0.089440
v 0.244175 0.234823 0.088806
v 0.245422 0.229841 0.088806
v 0.246670 0.224859 0.088806
v 0.247917 0.219877 0.088806
vn 0.0039 -0.0157 -0.9998
vn 0.1624 0.0263 -0.9864
vn 0.1924 0.0175 -0.9811
vn 0.0074 -0.0294 -0.9995
vn -0.1556 -0.0533 -0.9864
vn -0.1780 -0.0753 -0.9811
vn -0.0074 0.0297 -0.9995
vn 0.2411 0.0909 -0.9662
vn 0.2022 0.0730 -0.9766
vn -0.0056 0.0225 -0.9997
vn 0.1571 0.0513 -0.9862
vn -0.0029 0.0117 -0.9999
vn 0.1422 0.0386 -0.9891
vn -0.0007 0.0030 -1.0000
vn -0.2555 -0.0334 -0.9662
vn -0.2127 -0.0309 -0.9766
vn -0.1628 -0.0287 -0.9862
vn -0.1436 -0.0329 -0.9891
usemtl feather_004
s 1
f 18//1 10//2 3//3 6//4
f 11//5 18//1 6//4 4//6
f 5//7 1//8 7//9 15//10
f 15//10 7//9 8//11 16//12
f 16//12 8//11 9//13 17//14
f 17//14 9//13 10//2 18//1
f 2//15 5//7 15//10 14//16
f 14//16 15//10 16//12 13//17
f 13//17 16//12 17//14 12//18
f 12//18 17//14 18//1 11//5
