# Blender v2.79 (sub 0) OBJ File: 'pheasant_base_mesh_BI.blend'
# www.blender.org
mtllib pheasant_feather_flight_tertiary_042.mtl
o feather_flight_tertiary_042
v 0.336589 0.241207 0.092000
v 0.335683 0.238098 0.092000
v 0.347011 0.238783 0.092000
v 0.345774 0.234541 0.092000
v 0.335612 0.239805 0.092530
v 0.347540 0.236327 0.092530
v 0.338572 0.241545 0.092000
v 0.341040 0.241596 0.092000
v 0.343433 0.241391 0.092000
v 0.345658 0.240605 0.092000
v 0.343653 0.233731 0.092000
v 0.341356 0.234264 0.092000
v 0.339227 0.235377 0.092000
v 0.337173 0.236747 0.092000
v 0.337873 0.239146 0.092530
v 0.340133 0.238487 0.092530
v 0.342394 0.237828 0.092530
v 0.344655 0.237168 0.092530
vn -0.0284 0.0083 -0.9995
vn -0.0665 -0.1484 -0.9867
vn -0.1055 -0.1679 -0.9801
vn -0.0531 0.0155 -0.9984
vn 0.0236 0.1609 -0.9867
vn 0.0012 0.1983 -0.9801
vn 0.0537 -0.0156 -0.9984
vn -0.0197 -0.2606 -0.9652
vn -0.0220 -0.2120 -0.9770
vn 0.0407 -0.0118 -0.9991
vn -0.0259 -0.1630 -0.9863
vn 0.0212 -0.0062 -0.9997
vn -0.0363 -0.1427 -0.9891
vn 0.0054 -0.0016 -1.0000
vn 0.1234 0.2304 -0.9652
vn 0.0953 0.1906 -0.9770
vn 0.0657 0.1514 -0.9863
vn 0.0461 0.1399 -0.9891
usemtl feather_004
s 1
f 18//1 10//2 3//3 6//4
f 11//5 18//1 6//4 4//6
f 5//7 1//8 7//9 15//10
f 15//10 7//9 8//11 16//12
f 16//12 8//11 9//13 17//14
f 17//14 9//13 10//2 18//1
f 2//15 5//7 15//10 14//16
f 14//16 15//10 16//12 13//17
f 13//17 16//12 17//14 12//18
f 12//18 17//14 18//1 11//5
