# Blender v2.79 (sub 0) OBJ File: 'pheasant_base_mesh_BI.blend'
# www.blender.org
mtllib pheasant_feather_flight_primary_011.mtl
o feather_flight_primary_011
v 0.215185 0.234209 0.090400
v 0.206270 0.233742 0.090400
v 0.223424 0.112127 0.090084
v 0.210838 0.111467 0.090084
v 0.210422 0.239805 0.091074
v 0.217375 0.107142 0.091097
v 0.218621 0.215020 0.090403
v 0.221976 0.189980 0.090408
v 0.224596 0.164902 0.090412
v 0.225552 0.139736 0.090417
v 0.205836 0.138703 0.090417
v 0.204156 0.163831 0.090412
v 0.204140 0.189045 0.090408
v 0.204859 0.214298 0.090403
v 0.211740 0.214659 0.091078
v 0.213058 0.189512 0.091083
v 0.214376 0.164366 0.091087
v 0.215694 0.139220 0.091092
vn -0.0003 0.0061 -1.0000
vn -0.0864 0.0013 -0.9962
vn -0.1077 0.0062 -0.9941
vn -0.0006 0.0119 -0.9999
vn 0.0858 0.0103 -0.9962
vn 0.1064 0.0175 -0.9941
vn 0.0003 -0.0068 -1.0000
vn -0.1209 -0.0131 -0.9926
vn -0.1016 -0.0104 -0.9948
vn 0.0002 -0.0052 -1.0000
vn -0.0771 -0.0068 -0.9970
vn 0.0001 -0.0028 -1.0000
vn -0.0685 -0.0044 -0.9976
vn 0.0000 -0.0008 -1.0000
vn 0.1216 -0.0004 -0.9926
vn 0.1022 0.0002 -0.9948
vn 0.0774 0.0013 -0.9970
vn 0.0686 0.0027 -0.9976
usemtl feather_006
s 1
f 18//1 10//2 3//3 6//4
f 11//5 18//1 6//4 4//6
f 5//7 1//8 7//9 15//10
f 15//10 7//9 8//11 16//12
f 16//12 8//11 9//13 17//14
f 17//14 9//13 10//2 18//1
f 2//15 5//7 15//10 14//16
f 14//16 15//10 16//12 13//17
f 13//17 16//12 17//14 12//18
f 12//18 17//14 18//1 11//5
