# Blender v2.79 (sub 0) OBJ File: 'pheasant_base_mesh_BI.blend'
# www.blender.org
mtllib pheasant_feather_flight_tertiary_077.mtl
o feather_flight_tertiary_077
v 0.287903 0.240219 0.089440
v 0.284829 0.237870 0.089440
v 0.299836 0.225764 0.089440
v 0.295642 0.222559 0.089440
v 0.285785 0.239805 0.088806
v 0.299012 0.222496 0.088806
v 0.290664 0.238337 0.089440
v 0.293874 0.235593 0.089440
v 0.296830 0.232655 0.089440
v 0.299212 0.229279 0.089440
v 0.292415 0.224084 0.089440
v 0.289783 0.227270 0.089440
v 0.287724 0.230894 0.089440
v 0.285920 0.234712 0.089440
v 0.288292 0.236524 0.088806
v 0.290799 0.233243 0.088806
v 0.293306 0.229962 0.088806
v 0.295813 0.226681 0.088806
vn 0.0122 -0.0160 -0.9998
vn 0.1397 0.0857 -0.9864
vn 0.1742 0.0865 -0.9809
vn 0.0229 -0.0300 -0.9993
vn -0.1194 -0.1122 -0.9864
vn -0.1292 -0.1453 -0.9809
vn -0.0231 0.0303 -0.9993
vn 0.1810 0.1847 -0.9660
vn 0.1527 0.1503 -0.9767
vn -0.0175 0.0229 -0.9996
vn 0.1220 0.1113 -0.9862
vn -0.0092 0.0120 -0.9999
vn 0.1148 0.0922 -0.9891
vn -0.0023 0.0030 -1.0000
vn -0.2257 -0.1261 -0.9660
vn -0.1851 -0.1079 -0.9767
vn -0.1395 -0.0885 -0.9862
vn -0.1192 -0.0866 -0.9891
usemtl feather_004
s 1
f 18//1 10//2 3//3 6//4
f 11//5 18//1 6//4 4//6
f 5//7 1//8 7//9 15//10
f 15//10 7//9 8//11 16//12
f 16//12 8//11 9//13 17//14
f 17//14 9//13 10//2 18//1
f 2//15 5//7 15//10 14//16
f 14//16 15//10 16//12 13//17
f 13//17 16//12 17//14 12//18
f 12//18 17//14 18//1 11//5
