# Blender v2.79 (sub 0) OBJ File: 'pheasant_base_mesh_BI.blend'
# www.blender.org
mtllib pheasant_feather_flight_secondary_040.mtl
o feather_flight_secondary_040
v 0.302208 0.240741 0.090192
v 0.298160 0.235289 0.090311
v 0.349301 0.207502 0.090362
v 0.343778 0.200063 0.090524
v 0.297817 0.239770 0.089605
v 0.351727 0.199959 0.089828
v 0.311158 0.236426 0.090192
v 0.322302 0.230125 0.090207
v 0.333111 0.223375 0.090232
v 0.343166 0.215607 0.090279
v 0.334214 0.203551 0.090542
v 0.323831 0.210876 0.090504
v 0.314203 0.219219 0.090445
v 0.304910 0.228011 0.090375
v 0.308036 0.232224 0.089648
v 0.318254 0.224678 0.089690
v 0.328473 0.217131 0.089732
v 0.338692 0.209585 0.089774
vn -0.0023 -0.0198 -0.9998
vn 0.0539 0.0573 -0.9969
vn 0.0681 0.0659 -0.9955
vn 0.0023 -0.0233 -0.9997
vn -0.0593 -0.0959 -0.9936
vn -0.0634 -0.1119 -0.9917
vn -0.0178 -0.0087 -0.9998
vn 0.0717 0.1124 -0.9911
vn 0.0596 0.0905 -0.9941
vn -0.0150 -0.0100 -0.9998
vn 0.0452 0.0638 -0.9969
vn -0.0115 -0.0129 -0.9998
vn 0.0418 0.0531 -0.9977
vn -0.0086 -0.0151 -0.9998
vn -0.1061 -0.1286 -0.9860
vn -0.0891 -0.1109 -0.9898
vn -0.0681 -0.0897 -0.9936
vn -0.0590 -0.0834 -0.9948
usemtl feather_005
s 1
f 18//1 10//2 3//3 6//4
f 11//5 18//1 6//4 4//6
f 5//7 1//8 7//9 15//10
f 15//10 7//9 8//11 16//12
f 16//12 8//11 9//13 17//14
f 17//14 9//13 10//2 18//1
f 2//15 5//7 15//10 14//16
f 14//16 15//10 16//12 13//17
f 13//17 16//12 17//14 12//18
f 12//18 17//14 18//1 11//5
