# Blender v2.79 (sub 0) OBJ File: 'pheasant_base_mesh_BI.blend'
# www.blender.org
mtllib pheasant_feather_flight_secondary_005.mtl
o feather_flight_secondary_005
v 0.128834 0.236590 0.091199
v 0.122687 0.236590 0.091199
v 0.129954 0.173672 0.091242
v 0.121566 0.173672 0.091242
v 0.125760 0.239805 0.091830
v 0.125760 0.166632 0.091881
v 0.130504 0.225935 0.091206
v 0.131909 0.212066 0.091216
v 0.132806 0.198196 0.091225
v 0.132557 0.184326 0.091235
v 0.118964 0.184326 0.091235
v 0.118714 0.198196 0.091225
v 0.119612 0.212066 0.091216
v 0.121016 0.225935 0.091206
v 0.125760 0.225935 0.091840
v 0.125760 0.212065 0.091849
v 0.125760 0.198195 0.091859
v 0.125760 0.184325 0.091868
vn 0.0000 0.0053 -1.0000
vn -0.1050 0.0048 -0.9944
vn -0.1216 0.0105 -0.9925
vn 0.0000 0.0105 -0.9999
vn 0.1050 0.0048 -0.9944
vn 0.1216 0.0105 -0.9925
vn 0.0000 -0.0120 -0.9999
vn -0.1644 -0.0119 -0.9863
vn -0.1380 -0.0090 -0.9904
vn 0.0000 -0.0093 -0.9999
vn -0.1050 -0.0051 -0.9944
vn 0.0000 -0.0052 -1.0000
vn -0.0933 -0.0018 -0.9956
vn 0.0000 -0.0018 -1.0000
vn 0.1644 -0.0119 -0.9863
vn 0.1380 -0.0090 -0.9904
vn 0.1050 -0.0051 -0.9944
vn 0.0933 -0.0018 -0.9956
usemtl feather_005
s 1
f 18//1 10//2 3//3 6//4
f 11//5 18//1 6//4 4//6
f 5//7 1//8 7//9 15//10
f 15//10 7//9 8//11 16//12
f 16//12 8//11 9//13 17//14
f 17//14 9//13 10//2 18//1
f 2//15 5//7 15//10 14//16
f 14//16 15//10 16//12 13//17
f 13//17 16//12 17//14 12//18
f 12//18 17//14 18//1 11//5
