# Blender v2.79 (sub 0) OBJ File: 'pheasant_base_mesh_BI.blend'
# www.blender.org
mtllib pheasant_feather_flight_tertiary_007.mtl
o feather_flight_tertiary_007
v 0.110360 0.238532 0.091998
v 0.106492 0.238532 0.091998
v 0.111065 0.213620 0.091998
v 0.105787 0.213620 0.091998
v 0.108426 0.239805 0.092632
v 0.108426 0.210833 0.092632
v 0.111412 0.234314 0.091998
v 0.112296 0.228822 0.091998
v 0.112860 0.223330 0.091998
v 0.112703 0.217838 0.091998
v 0.104149 0.217838 0.091998
v 0.103992 0.223330 0.091998
v 0.104556 0.228822 0.091998
v 0.105440 0.234314 0.091998
v 0.108426 0.234314 0.092632
v 0.108426 0.228822 0.092632
v 0.108426 0.223330 0.092632
v 0.108426 0.217838 0.092632
vn 0.0000 0.0152 -0.9999
vn -0.1642 0.0131 -0.9863
vn -0.1910 0.0279 -0.9812
vn 0.0000 0.0284 -0.9996
vn 0.1642 0.0131 -0.9863
vn 0.1910 0.0279 -0.9812
vn 0.0000 -0.0287 -0.9996
vn -0.2560 -0.0277 -0.9662
vn -0.2142 -0.0203 -0.9766
vn 0.0000 -0.0217 -0.9998
vn -0.1650 -0.0109 -0.9862
vn 0.0000 -0.0113 -0.9999
vn -0.1473 -0.0027 -0.9891
vn 0.0000 -0.0029 -1.0000
vn 0.2560 -0.0277 -0.9662
vn 0.2142 -0.0203 -0.9766
vn 0.1650 -0.0109 -0.9862
vn 0.1473 -0.0027 -0.9891
usemtl feather_004
s 1
f 18//1 10//2 3//3 6//4
f 11//5 18//1 6//4 4//6
f 5//7 1//8 7//9 15//10
f 15//10 7//9 8//11 16//12
f 16//12 8//11 9//13 17//14
f 17//14 9//13 10//2 18//1
f 2//15 5//7 15//10 14//16
f 14//16 15//10 16//12 13//17
f 13//17 16//12 17//14 12//18
f 12//18 17//14 18//1 11//5
