# Blender v2.79 (sub 0) OBJ File: 'pheasant_base_mesh_BI.blend'
# www.blender.org
mtllib pheasant_feather_tail_primary_002.mtl
o feather_tail_primary_002
v 0.009641 0.208183 -0.134630
v -0.004847 0.208183 -0.145949
v 0.101910 0.208649 -0.259255
v 0.093755 0.208649 -0.265627
v 0.000000 0.212121 -0.137221
v 0.102840 0.212622 -0.268851
v 0.020808 0.208222 -0.142300
v 0.033361 0.208273 -0.153836
v 0.087625 0.208560 -0.232678
v 0.096431 0.208610 -0.247141
v 0.083326 0.208610 -0.257380
v 0.071423 0.208560 -0.245337
v 0.008051 0.208273 -0.173611
v -0.000106 0.208222 -0.158640
v 0.010355 0.212171 -0.150475
v 0.020709 0.212222 -0.163728
v 0.079527 0.212509 -0.239012
v 0.089882 0.212559 -0.252265
v 0.077512 0.208502 -0.216331
v 0.067418 0.208445 -0.199970
v 0.056839 0.208387 -0.183987
v 0.045805 0.208330 -0.168361
v 0.019133 0.208330 -0.189199
v 0.031626 0.208387 -0.203686
v 0.044575 0.208445 -0.217817
v 0.058008 0.208502 -0.231569
v 0.067764 0.212451 -0.223955
v 0.056000 0.212394 -0.208898
v 0.044237 0.212336 -0.193842
v 0.032473 0.212279 -0.178785
vn 0.0230 0.9993 -0.0295
vn 0.3763 0.8910 0.2537
vn 0.4432 0.8490 0.2877
vn 0.0334 0.9985 -0.0427
vn -0.3372 0.8910 -0.3038
vn -0.3864 0.8490 -0.3604
vn -0.0322 0.9986 0.0412
vn 0.2364 0.9397 0.2471
vn 0.2098 0.9553 0.2083
vn -0.0238 0.9992 0.0304
vn 0.1838 0.9692 0.1636
vn -0.0103 0.9998 0.0132
vn 0.0090 0.9999 -0.0116
vn 0.2481 0.9525 0.1762
vn 0.2929 0.9335 0.2067
vn 0.0116 0.9998 -0.0149
vn -0.2970 0.9397 -0.1696
vn -0.2529 0.9553 -0.1531
vn -0.2032 0.9692 -0.1387
vn -0.2310 0.9525 -0.1982
vn -0.2714 0.9335 -0.2342
vn 0.1820 0.9724 0.1456
vn -0.0017 1.0000 0.0022
vn 0.1934 0.9703 0.1450
vn 0.0031 1.0000 -0.0039
vn 0.2152 0.9640 0.1558
vn 0.0063 0.9999 -0.0081
vn -0.1853 0.9724 -0.1413
vn -0.1875 0.9703 -0.1525
vn -0.2032 0.9640 -0.1711
usemtl feather_006
s 1
f 18//1 10//2 3//3 6//4
f 11//5 18//1 6//4 4//6
f 5//7 1//8 7//9 15//10
f 15//10 7//9 8//11 16//12
f 27//13 19//14 9//15 17//16
f 17//16 9//15 10//2 18//1
f 2//17 5//7 15//10 14//18
f 14//18 15//10 16//12 13//19
f 26//20 27//13 17//16 12//21
f 12//21 17//16 18//1 11//5
f 16//12 8//11 22//22 30//23
f 30//23 22//22 21//24 29//25
f 29//25 21//24 20//26 28//27
f 28//27 20//26 19//14 27//13
f 13//19 16//12 30//23 23//28
f 23//28 30//23 29//25 24//29
f 24//29 29//25 28//27 25//30
f 25//30 28//27 27//13 26//20
