# Blender v2.79 (sub 0) OBJ File: 'pheasant_base_mesh_BI.blend'
# www.blender.org
mtllib pheasant_feather_flight_secondary_009.mtl
o feather_flight_secondary_009
v 0.184112 0.237283 0.091196
v 0.177066 0.237181 0.091196
v 0.186460 0.186951 0.091196
v 0.176845 0.186812 0.091196
v 0.180535 0.239805 0.091830
v 0.181771 0.181249 0.091830
v 0.186208 0.228784 0.091196
v 0.188052 0.217708 0.091196
v 0.189316 0.206624 0.091196
v 0.189264 0.195520 0.091196
v 0.173681 0.195295 0.091196
v 0.173160 0.206391 0.091196
v 0.173955 0.217505 0.091196
v 0.175330 0.228627 0.091196
v 0.180769 0.228706 0.091830
v 0.181004 0.217606 0.091830
v 0.181238 0.206507 0.091830
v 0.181472 0.195408 0.091830
vn -0.0000 0.0075 -1.0000
vn -0.0913 0.0048 -0.9958
vn -0.1064 0.0117 -0.9942
vn -0.0006 0.0140 -0.9999
vn 0.0910 0.0085 -0.9958
vn 0.1060 0.0162 -0.9942
vn 0.0009 -0.0142 -0.9999
vn -0.1437 -0.0171 -0.9895
vn -0.1196 -0.0128 -0.9927
vn 0.0001 -0.0107 -0.9999
vn -0.0914 -0.0074 -0.9958
vn 0.0000 -0.0056 -1.0000
vn -0.0814 -0.0031 -0.9967
vn 0.0000 -0.0014 -1.0000
vn 0.1441 -0.0110 -0.9895
vn 0.1201 -0.0078 -0.9927
vn 0.0916 -0.0035 -0.9958
vn 0.0815 0.0003 -0.9967
usemtl feather_005
s 1
f 18//1 10//2 3//3 6//4
f 11//5 18//1 6//4 4//6
f 5//7 1//8 7//9 15//10
f 15//10 7//9 8//11 16//12
f 16//12 8//11 9//13 17//14
f 17//14 9//13 10//2 18//1
f 2//15 5//7 15//10 14//16
f 14//16 15//10 16//12 13//17
f 13//17 16//12 17//14 12//18
f 12//18 17//14 18//1 11//5
