# Blender v2.79 (sub 0) OBJ File: 'pheasant_base_mesh_BI.blend'
# www.blender.org
mtllib pheasant_feather_flight_tertiary_074.mtl
o feather_flight_tertiary_074
v 0.272194 0.239640 0.089440
v 0.268695 0.237991 0.089440
v 0.281956 0.220577 0.089440
v 0.277180 0.218327 0.089440
v 0.269978 0.239805 0.088806
v 0.280589 0.217285 0.088806
v 0.274690 0.236809 0.089440
v 0.277501 0.232917 0.089440
v 0.280023 0.228889 0.089440
v 0.281892 0.224554 0.089440
v 0.274154 0.220907 0.089440
v 0.272000 0.225109 0.089440
v 0.270500 0.229619 0.089440
v 0.269288 0.234264 0.089440
v 0.271989 0.235537 0.088806
v 0.274001 0.231268 0.088806
v 0.276012 0.226999 0.088806
v 0.278023 0.222731 0.088806
vn 0.0075 -0.0160 -0.9998
vn 0.1544 0.0562 -0.9864
vn 0.1865 0.0520 -0.9810
vn 0.0141 -0.0299 -0.9995
vn -0.1416 -0.0833 -0.9864
vn -0.1589 -0.1107 -0.9810
vn -0.0142 0.0302 -0.9994
vn 0.2178 0.1383 -0.9661
vn 0.1830 0.1122 -0.9767
vn -0.0107 0.0229 -0.9997
vn 0.1437 0.0816 -0.9862
vn -0.0056 0.0119 -0.9999
vn 0.1319 0.0656 -0.9891
vn -0.0014 0.0030 -1.0000
vn -0.2453 -0.0799 -0.9661
vn -0.2031 -0.0697 -0.9767
vn -0.1544 -0.0588 -0.9862
vn -0.1346 -0.0599 -0.9891
usemtl feather_004
s 1
f 18//1 10//2 3//3 6//4
f 11//5 18//1 6//4 4//6
f 5//7 1//8 7//9 15//10
f 15//10 7//9 8//11 16//12
f 16//12 8//11 9//13 17//14
f 17//14 9//13 10//2 18//1
f 2//15 5//7 15//10 14//16
f 14//16 15//10 16//12 13//17
f 13//17 16//12 17//14 12//18
f 12//18 17//14 18//1 11//5
