# Blender v2.79 (sub 0) OBJ File: 'pheasant_base_mesh_BI.blend'
# www.blender.org
mtllib pheasant_feather_flight_primary_017.mtl
o feather_flight_primary_017
v 0.280026 0.237381 0.090400
v 0.273202 0.232419 0.090400
v 0.355318 0.133256 0.090419
v 0.337888 0.139184 0.090417
v 0.273057 0.239800 0.090922
v 0.354000 0.128312 0.090943
v 0.293667 0.222497 0.090403
v 0.310569 0.202499 0.090407
v 0.326908 0.182091 0.090410
v 0.341974 0.160757 0.090414
v 0.326882 0.149783 0.090414
v 0.311262 0.170714 0.090410
v 0.296915 0.192571 0.090407
v 0.283132 0.214837 0.090403
v 0.288400 0.218667 0.090926
v 0.303742 0.197535 0.090930
v 0.319085 0.176402 0.090934
v 0.334428 0.155270 0.090938
vn -0.0037 0.0006 -1.0000
vn -0.0559 -0.0366 -0.9977
vn -0.0687 -0.0417 -0.9968
vn -0.0341 -0.0176 -0.9992
vn 0.0490 0.0379 -0.9981
vn 0.0543 0.0440 -0.9975
vn 0.0030 -0.0042 -1.0000
vn -0.0778 -0.0628 -0.9950
vn -0.0657 -0.0524 -0.9965
vn 0.0023 -0.0032 -1.0000
vn -0.0502 -0.0390 -0.9980
vn 0.0012 -0.0017 -1.0000
vn -0.0452 -0.0336 -0.9984
vn 0.0004 -0.0005 -1.0000
vn 0.0838 0.0545 -0.9950
vn 0.0702 0.0462 -0.9965
vn 0.0526 0.0356 -0.9980
vn 0.0460 0.0326 -0.9984
usemtl feather_006
s 1
f 18//1 10//2 3//3 6//4
f 11//5 18//1 6//4 4//6
f 5//7 1//8 7//9 15//10
f 15//10 7//9 8//11 16//12
f 16//12 8//11 9//13 17//14
f 17//14 9//13 10//2 18//1
f 2//15 5//7 15//10 14//16
f 14//16 15//10 16//12 13//17
f 13//17 16//12 17//14 12//18
f 12//18 17//14 18//1 11//5
