# Blender v2.79 (sub 0) OBJ File: 'pheasant_base_mesh_BI.blend'
# www.blender.org
mtllib pheasant_feather_flight_primary_013.mtl
o feather_flight_primary_013
v 0.239024 0.235087 0.090400
v 0.232090 0.233862 0.090400
v 0.258726 0.121921 0.090425
v 0.247667 0.133625 0.090422
v 0.234619 0.239805 0.090893
v 0.255962 0.118507 0.090921
v 0.244017 0.217759 0.090404
v 0.249647 0.195047 0.090409
v 0.254704 0.172234 0.090414
v 0.258468 0.149192 0.090419
v 0.243134 0.146481 0.090419
v 0.238807 0.169424 0.090414
v 0.235774 0.192595 0.090409
v 0.233313 0.215867 0.090404
v 0.238665 0.216813 0.090899
v 0.242710 0.193821 0.090904
v 0.246756 0.170829 0.090909
v 0.250801 0.147836 0.090914
vn -0.0034 0.0022 -1.0000
vn -0.0750 -0.0098 -0.9971
vn -0.0904 -0.0089 -0.9958
vn -0.0442 -0.0016 -0.9990
vn 0.0687 0.0140 -0.9975
vn 0.0771 0.0175 -0.9969
vn 0.0009 -0.0054 -1.0000
vn -0.1103 -0.0249 -0.9936
vn -0.0929 -0.0205 -0.9955
vn 0.0007 -0.0042 -1.0000
vn -0.0704 -0.0147 -0.9974
vn 0.0004 -0.0023 -1.0000
vn -0.0627 -0.0118 -0.9980
vn 0.0001 -0.0007 -1.0000
vn 0.1122 0.0142 -0.9936
vn 0.0943 0.0124 -0.9955
vn 0.0712 0.0102 -0.9974
vn 0.0629 0.0103 -0.9980
usemtl feather_006
s 1
f 18//1 10//2 3//3 6//4
f 11//5 18//1 6//4 4//6
f 5//7 1//8 7//9 15//10
f 15//10 7//9 8//11 16//12
f 16//12 8//11 9//13 17//14
f 17//14 9//13 10//2 18//1
f 2//15 5//7 15//10 14//16
f 14//16 15//10 16//12 13//17
f 13//17 16//12 17//14 12//18
f 12//18 17//14 18//1 11//5
