# Blender v2.79 (sub 0) OBJ File: 'pheasant_base_mesh_BI.blend'
# www.blender.org
mtllib pheasant_feather_flight_secondary_042.mtl
o feather_flight_secondary_042
v 0.322813 0.242651 0.090162
v 0.321173 0.235628 0.090278
v 0.377067 0.230991 0.089725
v 0.374828 0.221407 0.089885
v 0.319240 0.239805 0.089605
v 0.381988 0.224756 0.089122
v 0.332395 0.242369 0.090060
v 0.344664 0.241121 0.089941
v 0.356797 0.239294 0.089833
v 0.368625 0.236157 0.089746
v 0.364997 0.220624 0.090004
v 0.353037 0.223192 0.090101
v 0.341382 0.227070 0.090175
v 0.329863 0.231527 0.090240
v 0.331134 0.236953 0.089513
v 0.343028 0.234100 0.089422
v 0.354922 0.231248 0.089330
v 0.366816 0.228395 0.089239
vn -0.0043 -0.0154 -0.9998
vn 0.0159 0.0719 -0.9973
vn 0.0258 0.0847 -0.9961
vn 0.0013 -0.0173 -0.9998
vn -0.0259 -0.1024 -0.9944
vn -0.0229 -0.1180 -0.9927
vn -0.0235 -0.0104 -0.9997
vn 0.0096 0.1268 -0.9919
vn 0.0074 0.1032 -0.9946
vn -0.0205 -0.0115 -0.9997
vn 0.0051 0.0747 -0.9972
vn -0.0160 -0.0127 -0.9998
vn 0.0064 0.0642 -0.9979
vn -0.0123 -0.0136 -0.9998
vn -0.0562 -0.1479 -0.9874
vn -0.0475 -0.1260 -0.9909
vn -0.0367 -0.1000 -0.9943
vn -0.0308 -0.0913 -0.9953
usemtl feather_005
s 1
f 18//1 10//2 3//3 6//4
f 11//5 18//1 6//4 4//6
f 5//7 1//8 7//9 15//10
f 15//10 7//9 8//11 16//12
f 16//12 8//11 9//13 17//14
f 17//14 9//13 10//2 18//1
f 2//15 5//7 15//10 14//16
f 14//16 15//10 16//12 13//17
f 13//17 16//12 17//14 12//18
f 12//18 17//14 18//1 11//5
