# Blender v2.79 (sub 0) OBJ File: 'pig_base_mesh_BI.blend'
# www.blender.org
mtllib pig_eye.mtl
o eye
v 0.092342 0.596469 0.702850
v 0.087400 0.604346 0.699295
v 0.080600 0.609304 0.693974
v 0.072979 0.610587 0.687697
v 0.065697 0.608000 0.681420
v 0.059861 0.601937 0.676099
v 0.056362 0.593321 0.672544
v 0.094800 0.595937 0.699988
v 0.091941 0.603365 0.694005
v 0.086534 0.608021 0.687063
v 0.079401 0.609199 0.680217
v 0.071630 0.606717 0.674509
v 0.064403 0.600955 0.670810
v 0.058819 0.592790 0.669681
v 0.097013 0.594006 0.697561
v 0.096030 0.599796 0.689521
v 0.091876 0.603359 0.681204
v 0.085184 0.604152 0.673875
v 0.076973 0.602055 0.668651
v 0.068492 0.597387 0.666326
v 0.061032 0.590858 0.667254
v 0.055731 0.583463 0.671295
v 0.098645 0.590969 0.695939
v 0.099045 0.594184 0.686525
v 0.095815 0.596026 0.677289
v 0.089448 0.596215 0.669638
v 0.080912 0.594722 0.664736
v 0.071506 0.591775 0.663329
v 0.062664 0.587821 0.665633
v 0.099446 0.587288 0.695370
v 0.100526 0.587382 0.685473
v 0.097751 0.587140 0.675915
v 0.091543 0.586596 0.668150
v 0.082847 0.585836 0.663361
v 0.072988 0.584973 0.662277
v 0.063466 0.584140 0.665063
v 0.099296 0.583524 0.695939
v 0.100248 0.580427 0.686525
v 0.097388 0.578052 0.677289
v 0.091150 0.576760 0.669638
v 0.082484 0.576748 0.664736
v 0.072710 0.578018 0.663329
v 0.063315 0.580376 0.665633
v 0.094676 0.586871 0.704099
v 0.098217 0.580249 0.697561
v 0.098254 0.574377 0.689521
v 0.094782 0.570147 0.681204
v 0.088329 0.568203 0.673875
v 0.079878 0.568843 0.668651
v 0.070716 0.571967 0.666326
v 0.062236 0.577101 0.667254
v 0.096373 0.577963 0.699988
v 0.094847 0.570152 0.694005
v 0.090330 0.564627 0.687063
v 0.083511 0.562229 0.680217
v 0.075426 0.563323 0.674509
v 0.067308 0.567743 0.670810
v 0.060392 0.574815 0.669681
v 0.094045 0.577013 0.702850
v 0.090545 0.568397 0.699295
v 0.084710 0.562334 0.693974
v 0.077427 0.559747 0.687697
v 0.069806 0.561030 0.681420
v 0.063007 0.565988 0.676099
v 0.058064 0.573865 0.672544
v 0.091587 0.577544 0.705713
v 0.086004 0.569379 0.704584
v 0.078776 0.563617 0.700885
v 0.071005 0.561135 0.695177
v 0.063873 0.562313 0.688331
v 0.058465 0.566969 0.681388
v 0.055606 0.574396 0.675406
v 0.089374 0.579476 0.708140
v 0.081915 0.572947 0.709068
v 0.073434 0.568279 0.706743
v 0.065222 0.566182 0.701519
v 0.058530 0.566975 0.694190
v 0.054376 0.570538 0.685873
v 0.053393 0.576328 0.677833
v 0.087742 0.582513 0.709761
v 0.078900 0.578559 0.712065
v 0.069495 0.575612 0.710658
v 0.060959 0.574119 0.705756
v 0.054591 0.574308 0.698105
v 0.051361 0.576150 0.688869
v 0.051762 0.579365 0.679455
v 0.086941 0.586194 0.710331
v 0.077419 0.585361 0.713117
v 0.067559 0.584498 0.712033
v 0.058864 0.583737 0.707244
v 0.052656 0.583194 0.699479
v 0.049880 0.582952 0.689921
v 0.050960 0.583046 0.680024
v 0.087091 0.589958 0.709761
v 0.077696 0.592316 0.712065
v 0.067922 0.593586 0.710658
v 0.059256 0.593574 0.705756
v 0.053018 0.592282 0.698105
v 0.050158 0.589907 0.688869
v 0.051110 0.586810 0.679455
v 0.088170 0.593233 0.708140
v 0.079691 0.598367 0.709068
v 0.070528 0.601491 0.706743
v 0.062077 0.602131 0.701519
v 0.055624 0.600187 0.694190
v 0.052152 0.595957 0.685873
v 0.052190 0.590085 0.677833
v 0.090014 0.595519 0.705713
v 0.083098 0.602591 0.704584
v 0.074980 0.607011 0.700885
v 0.066896 0.608105 0.695177
v 0.060076 0.605707 0.688331
v 0.055560 0.600182 0.681388
v 0.054034 0.592371 0.675406
vn -0.7631 -0.0667 -0.6428
vn -0.7335 0.3404 -0.5882
vn -0.6320 0.3185 -0.7064
vn -0.5931 0.6697 -0.4468
vn -0.3665 0.8987 -0.2406
vn -0.1331 0.8483 -0.5125
vn -0.4122 0.6306 -0.6576
vn -0.0871 0.9962 0.0000
vn 0.2049 0.9487 0.2406
vn 0.4382 0.8983 -0.0312
vn 0.1645 0.9418 -0.2931
vn 0.4678 0.7625 0.4468
vn 0.6632 0.4626 0.5882
vn 0.7647 0.4407 0.4701
vn 0.6488 0.7234 0.2361
vn 0.7631 0.0667 0.6428
vn -0.2493 0.4884 -0.8362
vn -0.5407 0.2388 -0.8066
vn 0.3912 0.7440 -0.5417
vn 0.0770 0.6649 -0.7429
vn 0.8117 0.5813 0.0574
vn 0.6484 0.7149 -0.2616
vn 0.8560 0.3610 0.3699
vn 0.5582 0.4330 -0.7077
vn 0.2319 0.3765 -0.8969
vn 0.9318 0.3576 -0.0619
vn 0.8033 0.4265 -0.4156
vn 0.9234 0.2356 0.3030
vn -0.4733 0.1134 -0.8735
vn -0.1292 0.2648 -0.9556
vn -0.4403 -0.0385 -0.8970
vn 0.3081 0.0269 -0.9510
vn -0.0702 -0.0061 -0.9975
vn 0.8795 0.0769 -0.4697
vn 0.6403 0.0560 -0.7660
vn 0.9565 0.0837 0.2795
vn 0.9908 0.0867 -0.1038
vn 0.8652 -0.2805 -0.4156
vn 0.6249 -0.3294 -0.7077
vn 0.9503 -0.0717 0.3030
vn 0.9797 -0.1904 -0.0619
vn -0.0812 -0.2832 -0.9556
vn -0.4465 -0.1939 -0.8735
vn 0.2938 -0.3305 -0.8969
vn -0.1607 -0.5243 -0.8362
vn -0.4910 -0.3291 -0.8066
vn 0.5144 -0.6648 -0.5417
vn 0.1913 -0.6414 -0.7429
vn 0.9003 -0.4315 0.0574
vn 0.7627 -0.5914 -0.2616
vn 0.9057 -0.2069 0.3699
vn 0.7645 -0.5998 0.2361
vn 0.5876 -0.8086 -0.0312
vn 0.8296 -0.3012 0.4701
vn -0.5671 -0.4234 -0.7064
vn 0.0162 -0.8585 -0.5125
vn -0.2965 -0.6926 -0.6576
vn 0.3255 -0.8989 -0.2931
vn -0.6632 -0.4627 -0.5882
vn -0.2049 -0.9487 -0.2406
vn -0.4678 -0.7625 -0.4468
vn 0.3665 -0.8987 0.2406
vn 0.0871 -0.9962 0.0000
vn 0.7335 -0.3404 0.5882
vn 0.5931 -0.6697 0.4468
vn 0.6320 -0.3185 0.7064
vn 0.4122 -0.6306 0.6576
vn -0.6488 -0.7234 -0.2361
vn -0.7647 -0.4407 -0.4701
vn -0.1645 -0.9418 0.2931
vn -0.4382 -0.8983 0.0312
vn 0.1331 -0.8483 0.5125
vn -0.8117 -0.5813 -0.0574
vn -0.8560 -0.3610 -0.3699
vn -0.3912 -0.7440 0.5417
vn -0.6484 -0.7149 0.2616
vn 0.2493 -0.4884 0.8362
vn -0.0770 -0.6649 0.7429
vn 0.5407 -0.2388 0.8066
vn 0.4733 -0.1134 0.8735
vn -0.9234 -0.2356 -0.3030
vn -0.8033 -0.4265 0.4156
vn -0.9318 -0.3576 0.0619
vn -0.2319 -0.3765 0.8969
vn -0.5582 -0.4330 0.7077
vn 0.1292 -0.2648 0.9556
vn -0.8795 -0.0769 0.4697
vn -0.9908 -0.0867 0.1038
vn -0.3081 -0.0269 0.9510
vn -0.6403 -0.0560 0.7660
vn 0.4403 0.0385 0.8970
vn 0.0702 0.0061 0.9975
vn -0.9565 -0.0837 -0.2795
vn -0.9797 0.1904 0.0619
vn -0.9503 0.0717 -0.3030
vn -0.6249 0.3294 0.7077
vn -0.8652 0.2805 0.4156
vn 0.0812 0.2832 0.9556
vn -0.2938 0.3305 0.8969
vn 0.4465 0.1939 0.8735
vn -0.5144 0.6648 0.5417
vn -0.7627 0.5914 0.2616
vn 0.1607 0.5243 0.8362
vn -0.1913 0.6414 0.7429
vn 0.4910 0.3291 0.8066
vn -0.9057 0.2069 -0.3699
vn -0.9003 0.4315 -0.0574
vn -0.8296 0.3012 -0.4701
vn -0.5876 0.8086 0.0312
vn -0.7645 0.5998 -0.2361
vn -0.0162 0.8585 0.5125
vn -0.3255 0.8989 0.2931
vn 0.5671 0.4234 0.7064
vn 0.2964 0.6926 0.6576
usemtl eyes
s 1
f 22//1 7//2 14//3
f 6//4 5//5 12//6 13//7
f 4//8 3//9 10//10 11//11
f 2//12 1//13 8//14 9//15
f 7//2 6//4 13//7 14//3
f 5//5 4//8 11//11 12//6
f 3//9 2//12 9//15 10//10
f 1//13 44//16 8//14
f 14//3 13//7 20//17 21//18
f 12//6 11//11 18//19 19//20
f 10//10 9//15 16//21 17//22
f 8//14 44//16 15//23
f 22//1 14//3 21//18
f 13//7 12//6 19//20 20//17
f 11//11 10//10 17//22 18//19
f 9//15 8//14 15//23 16//21
f 19//20 18//19 26//24 27//25
f 17//22 16//21 24//26 25//27
f 15//23 44//16 23//28
f 22//1 21//18 29//29
f 20//17 19//20 27//25 28//30
f 18//19 17//22 25//27 26//24
f 16//21 15//23 23//28 24//26
f 21//18 20//17 28//30 29//29
f 22//1 29//29 36//31
f 28//30 27//25 34//32 35//33
f 26//24 25//27 32//34 33//35
f 24//26 23//28 30//36 31//37
f 29//29 28//30 35//33 36//31
f 27//25 26//24 33//35 34//32
f 25//27 24//26 31//37 32//34
f 23//28 44//16 30//36
f 33//35 32//34 39//38 40//39
f 31//37 30//36 37//40 38//41
f 36//31 35//33 42//42 43//43
f 34//32 33//35 40//39 41//44
f 32//34 31//37 38//41 39//38
f 30//36 44//16 37//40
f 22//1 36//31 43//43
f 35//33 34//32 41//44 42//42
f 43//43 42//42 50//45 51//46
f 41//44 40//39 48//47 49//48
f 39//38 38//41 46//49 47//50
f 37//40 44//16 45//51
f 22//1 43//43 51//46
f 42//42 41//44 49//48 50//45
f 40//39 39//38 47//50 48//47
f 38//41 37//40 45//51 46//49
f 47//50 46//49 53//52 54//53
f 45//51 44//16 52//54
f 22//1 51//46 58//55
f 50//45 49//48 56//56 57//57
f 48//47 47//50 54//53 55//58
f 46//49 45//51 52//54 53//52
f 51//46 50//45 57//57 58//55
f 49//48 48//47 55//58 56//56
f 22//1 58//55 65//59
f 57//57 56//56 63//60 64//61
f 55//58 54//53 61//62 62//63
f 53//52 52//54 59//64 60//65
f 58//55 57//57 64//61 65//59
f 56//56 55//58 62//63 63//60
f 54//53 53//52 60//65 61//62
f 52//54 44//16 59//64
f 60//65 59//64 66//66 67//67
f 65//59 64//61 71//68 72//69
f 63//60 62//63 69//70 70//71
f 61//62 60//65 67//67 68//72
f 59//64 44//16 66//66
f 22//1 65//59 72//69
f 64//61 63//60 70//71 71//68
f 62//63 61//62 68//72 69//70
f 72//69 71//68 78//73 79//74
f 70//71 69//70 76//75 77//76
f 68//72 67//67 74//77 75//78
f 66//66 44//16 73//79
f 22//1 72//69 79//74
f 71//68 70//71 77//76 78//73
f 69//70 68//72 75//78 76//75
f 67//67 66//66 73//79 74//77
f 73//79 44//16 80//80
f 22//1 79//74 86//81
f 78//73 77//76 84//82 85//83
f 76//75 75//78 82//84 83//85
f 74//77 73//79 80//80 81//86
f 79//74 78//73 85//83 86//81
f 77//76 76//75 83//85 84//82
f 75//78 74//77 81//86 82//84
f 85//83 84//82 91//87 92//88
f 83//85 82//84 89//89 90//90
f 81//86 80//80 87//91 88//92
f 86//81 85//83 92//88 93//93
f 84//82 83//85 90//90 91//87
f 82//84 81//86 88//92 89//89
f 80//80 44//16 87//91
f 22//1 86//81 93//93
f 93//93 92//88 99//94 100//95
f 91//87 90//90 97//96 98//97
f 89//89 88//92 95//98 96//99
f 87//91 44//16 94//100
f 22//1 93//93 100//95
f 92//88 91//87 98//97 99//94
f 90//90 89//89 96//99 97//96
f 88//92 87//91 94//100 95//98
f 98//97 97//96 104//101 105//102
f 96//99 95//98 102//103 103//104
f 94//100 44//16 101//105
f 22//1 100//95 107//106
f 99//94 98//97 105//102 106//107
f 97//96 96//99 103//104 104//101
f 95//98 94//100 101//105 102//103
f 100//95 99//94 106//107 107//106
f 22//1 107//106 114//108
f 106//107 105//102 112//109 113//110
f 104//101 103//104 110//111 111//112
f 102//103 101//105 108//113 109//114
f 107//106 106//107 113//110 114//108
f 105//102 104//101 111//112 112//109
f 103//104 102//103 109//114 110//111
f 101//105 44//16 108//113
f 111//112 110//111 3//9 4//8
f 109//114 108//113 1//13 2//12
f 114//108 113//110 6//4 7//2
f 112//109 111//112 4//8 5//5
f 110//111 109//114 2//12 3//9
f 108//113 44//16 1//13
f 22//1 114//108 7//2
f 113//110 112//109 5//5 6//4
