# Blender v2.79 (sub 0) OBJ File: 'pigeon_base_mesh_BI.blend'
# www.blender.org
mtllib pigeon_feather_flight_tertiary_076.mtl
o feather_flight_tertiary_076
v 0.197692 0.140878 0.027184
v 0.195566 0.139331 0.027184
v 0.206042 0.130216 0.027184
v 0.203140 0.128105 0.027184
v 0.196222 0.140664 0.026753
v 0.205482 0.127936 0.026753
v 0.199618 0.139445 0.027184
v 0.201859 0.137386 0.027184
v 0.203925 0.135200 0.027184
v 0.205594 0.132724 0.027184
v 0.200892 0.129303 0.027184
v 0.199050 0.131653 0.027184
v 0.197605 0.134292 0.027184
v 0.196336 0.137058 0.027184
v 0.197977 0.138251 0.026753
v 0.199732 0.135839 0.026753
v 0.201487 0.133426 0.026753
v 0.203243 0.131014 0.026753
vn 0.0112 -0.0154 -0.9998
vn 0.1414 0.0832 -0.9864
vn 0.1749 0.0841 -0.9810
vn 0.0209 -0.0287 -0.9994
vn -0.1227 -0.1089 -0.9864
vn -0.1339 -0.1405 -0.9810
vn -0.0211 0.0290 -0.9993
vn 0.1866 0.1786 -0.9661
vn 0.1574 0.1457 -0.9767
vn -0.0160 0.0219 -0.9996
vn 0.1252 0.1078 -0.9862
vn -0.0083 0.0115 -0.9999
vn 0.1171 0.0894 -0.9891
vn -0.0021 0.0029 -1.0000
vn -0.2274 -0.1225 -0.9661
vn -0.1870 -0.1049 -0.9767
vn -0.1411 -0.0859 -0.9862
vn -0.1211 -0.0839 -0.9891
usemtl feather_001
s 1
f 18//1 10//2 3//3 6//4
f 11//5 18//1 6//4 4//6
f 5//7 1//8 7//9 15//10
f 15//10 7//9 8//11 16//12
f 16//12 8//11 9//13 17//14
f 17//14 9//13 10//2 18//1
f 2//15 5//7 15//10 14//16
f 14//16 15//10 16//12 13//17
f 13//17 16//12 17//14 12//18
f 12//18 17//14 18//1 11//5
