# Blender v2.79 (sub 0) OBJ File: 'pigeon_base_mesh_BI.blend'
# www.blender.org
mtllib pigeon_feather_flight_tertiary_070.mtl
o feather_flight_tertiary_070
v 0.176894 0.140218 0.027184
v 0.174358 0.139523 0.027184
v 0.181611 0.124814 0.027184
v 0.178151 0.123866 0.027184
v 0.175408 0.140664 0.026753
v 0.180357 0.122603 0.026753
v 0.178303 0.137777 0.027184
v 0.179821 0.134512 0.027184
v 0.181129 0.131190 0.027184
v 0.181964 0.127738 0.027184
v 0.176356 0.126202 0.027184
v 0.175315 0.129597 0.027184
v 0.174748 0.133122 0.027184
v 0.174389 0.136704 0.027184
v 0.176346 0.137240 0.026753
v 0.177284 0.133817 0.026753
v 0.178222 0.130393 0.026753
v 0.179160 0.126970 0.026753
vn 0.0042 -0.0154 -0.9998
vn 0.1618 0.0301 -0.9864
vn 0.1919 0.0222 -0.9811
vn 0.0079 -0.0288 -0.9995
vn -0.1545 -0.0566 -0.9864
vn -0.1764 -0.0787 -0.9811
vn -0.0080 0.0291 -0.9995
vn 0.2392 0.0957 -0.9662
vn 0.2007 0.0771 -0.9766
vn -0.0060 0.0220 -0.9997
vn 0.1560 0.0546 -0.9862
vn -0.0031 0.0115 -0.9999
vn 0.1413 0.0417 -0.9891
vn -0.0008 0.0029 -1.0000
vn -0.2546 -0.0395 -0.9662
vn -0.2120 -0.0360 -0.9766
vn -0.1621 -0.0325 -0.9862
vn -0.1428 -0.0361 -0.9891
usemtl feather_001
s 1
f 18//1 10//2 3//3 6//4
f 11//5 18//1 6//4 4//6
f 5//7 1//8 7//9 15//10
f 15//10 7//9 8//11 16//12
f 16//12 8//11 9//13 17//14
f 17//14 9//13 10//2 18//1
f 2//15 5//7 15//10 14//16
f 14//16 15//10 16//12 13//17
f 13//17 16//12 17//14 12//18
f 12//18 17//14 18//1 11//5
