# Blender v2.79 (sub 0) OBJ File: 'pigeon_base_mesh_BI.blend'
# www.blender.org
mtllib pigeon_feather_flight_tertiary_081.mtl
o feather_flight_tertiary_081
v 0.217663 0.141425 0.027184
v 0.216170 0.139261 0.027184
v 0.227029 0.135546 0.027184
v 0.224991 0.132593 0.027184
v 0.216452 0.140664 0.026753
v 0.227028 0.133367 0.026753
v 0.219609 0.140951 0.027184
v 0.221955 0.140063 0.027184
v 0.224177 0.138996 0.027184
v 0.226121 0.137525 0.027184
v 0.222819 0.132739 0.027184
v 0.220754 0.134034 0.027184
v 0.218967 0.135733 0.027184
v 0.217304 0.137610 0.027184
v 0.218456 0.139281 0.026753
v 0.220461 0.137898 0.026753
v 0.222466 0.136515 0.026753
v 0.224470 0.135132 0.026753
vn 0.0191 -0.0132 -0.9997
vn 0.1075 0.1231 -0.9865
vn 0.1435 0.1328 -0.9807
vn 0.0358 -0.0247 -0.9990
vn -0.0768 -0.1442 -0.9865
vn -0.0732 -0.1813 -0.9807
vn -0.0361 0.0249 -0.9990
vn 0.1103 0.2347 -0.9658
vn 0.0951 0.1915 -0.9769
vn -0.0274 0.0189 -0.9994
vn 0.0797 0.1446 -0.9863
vn -0.0143 0.0099 -0.9998
vn 0.0802 0.1235 -0.9891
vn -0.0036 0.0025 -1.0000
vn -0.1802 -0.1865 -0.9658
vn -0.1453 -0.1569 -0.9769
vn -0.1068 -0.1259 -0.9863
vn -0.0869 -0.1189 -0.9891
usemtl feather_001
s 1
f 18//1 10//2 3//3 6//4
f 11//5 18//1 6//4 4//6
f 5//7 1//8 7//9 15//10
f 15//10 7//9 8//11 16//12
f 16//12 8//11 9//13 17//14
f 17//14 9//13 10//2 18//1
f 2//15 5//7 15//10 14//16
f 14//16 15//10 16//12 13//17
f 13//17 16//12 17//14 12//18
f 12//18 17//14 18//1 11//5
