# Blender v2.79 (sub 0) OBJ File: 'pigeon_base_mesh_BI.blend'
# www.blender.org
mtllib pigeon_feather_flight_secondary_010.mtl
o feather_flight_secondary_010
v 0.140875 0.138957 0.028912
v 0.136451 0.138816 0.028912
v 0.143018 0.104205 0.028912
v 0.136980 0.104013 0.028912
v 0.138595 0.140664 0.029343
v 0.140148 0.100218 0.029343
v 0.142304 0.133106 0.028912
v 0.143610 0.125472 0.028912
v 0.144550 0.117826 0.028912
v 0.144665 0.110153 0.028912
v 0.134880 0.109843 0.028912
v 0.134406 0.117504 0.028912
v 0.134757 0.125191 0.028912
v 0.135474 0.132889 0.028912
v 0.138889 0.132997 0.029343
v 0.139184 0.125331 0.029343
v 0.139478 0.117665 0.029343
v 0.139773 0.109998 0.029343
vn -0.0002 0.0074 -1.0000
vn -0.0990 0.0028 -0.9951
vn -0.1151 0.0093 -0.9933
vn -0.0009 0.0138 -0.9999
vn 0.0984 0.0104 -0.9951
vn 0.1143 0.0181 -0.9933
vn 0.0011 -0.0139 -0.9999
vn -0.1549 -0.0197 -0.9877
vn -0.1293 -0.0151 -0.9915
vn 0.0002 -0.0106 -0.9999
vn -0.0987 -0.0092 -0.9951
vn 0.0001 -0.0055 -1.0000
vn -0.0880 -0.0047 -0.9961
vn 0.0000 -0.0014 -1.0000
vn 0.1557 -0.0078 -0.9878
vn 0.1301 -0.0052 -0.9915
vn 0.0992 -0.0016 -0.9951
vn 0.0881 0.0020 -0.9961
usemtl feather_002
s 1
f 18//1 10//2 3//3 6//4
f 11//5 18//1 6//4 4//6
f 5//7 1//8 7//9 15//10
f 15//10 7//9 8//11 16//12
f 16//12 8//11 9//13 17//14
f 17//14 9//13 10//2 18//1
f 2//15 5//7 15//10 14//16
f 14//16 15//10 16//12 13//17
f 13//17 16//12 17//14 12//18
f 12//18 17//14 18//1 11//5
