# Blender v2.79 (sub 0) OBJ File: 'pigeon_base_mesh_BI.blend'
# www.blender.org
mtllib pigeon_feather_flight_tertiary_004.mtl
o feather_flight_tertiary_004
v 0.067922 0.139733 0.029457
v 0.065293 0.139733 0.029457
v 0.068402 0.121516 0.029457
v 0.064814 0.121516 0.029457
v 0.066608 0.140664 0.029888
v 0.066608 0.119479 0.029888
v 0.068637 0.136648 0.029457
v 0.069238 0.132633 0.029457
v 0.069622 0.128617 0.029457
v 0.069515 0.124601 0.029457
v 0.063700 0.124601 0.029457
v 0.063594 0.128617 0.029457
v 0.063978 0.132633 0.029457
v 0.064578 0.136648 0.029457
v 0.066608 0.136648 0.029888
v 0.066608 0.132633 0.029888
v 0.066608 0.128617 0.029888
v 0.066608 0.124601 0.029888
vn 0.0000 0.0141 -0.9999
vn -0.1644 0.0123 -0.9863
vn -0.1910 0.0259 -0.9812
vn 0.0000 0.0264 -0.9996
vn 0.1644 0.0123 -0.9863
vn 0.1910 0.0259 -0.9812
vn 0.0000 -0.0266 -0.9996
vn -0.2560 -0.0258 -0.9663
vn -0.2145 -0.0190 -0.9765
vn 0.0000 -0.0202 -0.9998
vn -0.1651 -0.0101 -0.9862
vn 0.0000 -0.0105 -0.9999
vn -0.1473 -0.0025 -0.9891
vn 0.0000 -0.0027 -1.0000
vn 0.2560 -0.0258 -0.9663
vn 0.2145 -0.0190 -0.9765
vn 0.1651 -0.0101 -0.9862
vn 0.1473 -0.0025 -0.9891
usemtl feather_001
s 1
f 18//1 10//2 3//3 6//4
f 11//5 18//1 6//4 4//6
f 5//7 1//8 7//9 15//10
f 15//10 7//9 8//11 16//12
f 16//12 8//11 9//13 17//14
f 17//14 9//13 10//2 18//1
f 2//15 5//7 15//10 14//16
f 14//16 15//10 16//12 13//17
f 13//17 16//12 17//14 12//18
f 12//18 17//14 18//1 11//5
