# Blender v2.79 (sub 0) OBJ File: 'pigeon_base_mesh_BI.blend'
# www.blender.org
mtllib pigeon_feather_flight_tertiary_019.mtl
o feather_flight_tertiary_019
v 0.137748 0.139844 0.029457
v 0.135119 0.139844 0.029457
v 0.138227 0.123802 0.029457
v 0.134639 0.123802 0.029457
v 0.136433 0.140664 0.029888
v 0.136433 0.122007 0.029888
v 0.138463 0.137128 0.029457
v 0.139064 0.133591 0.029457
v 0.139447 0.130055 0.029457
v 0.139341 0.126519 0.029457
v 0.133526 0.126519 0.029457
v 0.133419 0.130055 0.029457
v 0.133803 0.133591 0.029457
v 0.134404 0.137128 0.029457
v 0.136433 0.137128 0.029888
v 0.136433 0.133591 0.029888
v 0.136433 0.130055 0.029888
v 0.136433 0.126519 0.029888
vn 0.0000 0.0160 -0.9998
vn -0.1640 0.0138 -0.9864
vn -0.1909 0.0294 -0.9811
vn 0.0000 0.0299 -0.9995
vn 0.1640 0.0138 -0.9864
vn 0.1909 0.0294 -0.9811
vn 0.0000 -0.0302 -0.9995
vn -0.2560 -0.0292 -0.9662
vn -0.2139 -0.0214 -0.9766
vn 0.0000 -0.0229 -0.9997
vn -0.1649 -0.0115 -0.9862
vn 0.0000 -0.0120 -0.9999
vn -0.1473 -0.0029 -0.9891
vn 0.0000 -0.0030 -1.0000
vn 0.2560 -0.0292 -0.9662
vn 0.2139 -0.0214 -0.9766
vn 0.1649 -0.0115 -0.9862
vn 0.1473 -0.0029 -0.9891
usemtl feather_001
s 1
f 18//1 10//2 3//3 6//4
f 11//5 18//1 6//4 4//6
f 5//7 1//8 7//9 15//10
f 15//10 7//9 8//11 16//12
f 16//12 8//11 9//13 17//14
f 17//14 9//13 10//2 18//1
f 2//15 5//7 15//10 14//16
f 14//16 15//10 16//12 13//17
f 13//17 16//12 17//14 12//18
f 12//18 17//14 18//1 11//5
