# Blender v2.79 (sub 0) OBJ File: 'pigeon_base_mesh_BI.blend'
# www.blender.org
mtllib pigeon_feather_flight_secondary_009.mtl
o feather_flight_secondary_009
v 0.131233 0.138949 0.028912
v 0.126444 0.138880 0.028912
v 0.132829 0.104739 0.028912
v 0.126293 0.104645 0.028912
v 0.128801 0.140664 0.029343
v 0.129642 0.100863 0.029343
v 0.132657 0.133173 0.028912
v 0.133911 0.125645 0.028912
v 0.134770 0.118110 0.028912
v 0.134735 0.110563 0.028912
v 0.124143 0.110410 0.028912
v 0.123789 0.117952 0.028912
v 0.124329 0.125506 0.028912
v 0.125264 0.133066 0.028912
v 0.128961 0.133120 0.029343
v 0.129120 0.125575 0.029343
v 0.129279 0.118031 0.029343
v 0.129439 0.110487 0.029343
vn -0.0000 0.0075 -1.0000
vn -0.0913 0.0048 -0.9958
vn -0.1064 0.0117 -0.9942
vn -0.0006 0.0140 -0.9999
vn 0.0910 0.0085 -0.9958
vn 0.1060 0.0162 -0.9942
vn 0.0009 -0.0142 -0.9999
vn -0.1437 -0.0171 -0.9895
vn -0.1196 -0.0128 -0.9927
vn 0.0001 -0.0107 -0.9999
vn -0.0914 -0.0074 -0.9958
vn 0.0000 -0.0056 -1.0000
vn -0.0814 -0.0031 -0.9967
vn 0.0000 -0.0014 -1.0000
vn 0.1441 -0.0110 -0.9895
vn 0.1201 -0.0078 -0.9927
vn 0.0916 -0.0035 -0.9958
vn 0.0815 0.0003 -0.9967
usemtl feather_002
s 1
f 18//1 10//2 3//3 6//4
f 11//5 18//1 6//4 4//6
f 5//7 1//8 7//9 15//10
f 15//10 7//9 8//11 16//12
f 16//12 8//11 9//13 17//14
f 17//14 9//13 10//2 18//1
f 2//15 5//7 15//10 14//16
f 14//16 15//10 16//12 13//17
f 13//17 16//12 17//14 12//18
f 12//18 17//14 18//1 11//5
