# Blender v2.79 (sub 0) OBJ File: 'pigeon_base_mesh_BI.blend'
# www.blender.org
mtllib pigeon_feather_tail_secondary_004.mtl
o feather_tail_secondary_004
v 0.018011 0.105869 -0.097832
v 0.006074 0.105869 -0.100535
v 0.011367 0.107701 -0.096201
v 0.022930 0.105869 -0.107108
v 0.027853 0.105869 -0.119519
v 0.006533 0.105869 -0.124346
v 0.005630 0.105869 -0.111025
v 0.014280 0.107701 -0.109066
v 0.017193 0.107701 -0.121932
v 0.036756 0.105869 -0.159775
v 0.035653 0.105869 -0.148484
v 0.032010 0.105869 -0.133943
v 0.008995 0.105869 -0.139154
v 0.011971 0.105869 -0.153846
v 0.015838 0.105869 -0.164511
v 0.027121 0.107701 -0.165781
v 0.023812 0.107701 -0.151165
v 0.020502 0.107701 -0.136548
vn -0.0065 0.9995 0.0288
vn 0.2305 0.9696 0.0815
vn 0.1987 0.9778 0.0660
vn -0.0048 0.9998 0.0214
vn 0.1636 0.9854 0.0463
vn -0.0021 0.9999 0.0093
vn -0.2432 0.9696 -0.0257
vn -0.2077 0.9778 -0.0261
vn -0.1676 0.9854 -0.0286
vn 0.1506 0.9879 0.0373
vn -0.0007 1.0000 0.0031
vn 0.1522 0.9879 0.0311
vn 0.0008 1.0000 -0.0034
vn 0.1575 0.9871 0.0268
vn 0.0019 0.9999 -0.0085
vn -0.1520 0.9879 -0.0312
vn -0.1507 0.9879 -0.0375
vn -0.1537 0.9871 -0.0436
usemtl feather_001
s 1
f 3//1 1//2 4//3 8//4
f 8//4 4//3 5//5 9//6
f 2//7 3//1 8//4 7//8
f 7//8 8//4 9//6 6//9
f 9//6 5//5 12//10 18//11
f 18//11 12//10 11//12 17//13
f 17//13 11//12 10//14 16//15
f 6//9 9//6 18//11 13//16
f 13//16 18//11 17//13 14//17
f 14//17 17//13 16//15 15//18
