# Blender v2.79 (sub 0) OBJ File: 'pigeon_base_mesh_BI.blend'
# www.blender.org
mtllib pigeon_feather_tail_secondary_002.mtl
o feather_tail_secondary_002
v 0.016264 0.106204 -0.096736
v 0.007483 0.106204 -0.101636
v 0.010387 0.107853 -0.096522
v 0.023161 0.106204 -0.104460
v 0.031051 0.106204 -0.115124
v 0.015368 0.106204 -0.123876
v 0.010435 0.106204 -0.111562
v 0.016798 0.107853 -0.108011
v 0.023209 0.107853 -0.119500
v 0.050941 0.106204 -0.151116
v 0.046487 0.106204 -0.140744
v 0.038958 0.106204 -0.127829
v 0.022028 0.106204 -0.137276
v 0.029066 0.106204 -0.150466
v 0.035554 0.106204 -0.159702
v 0.045060 0.107853 -0.158657
v 0.037776 0.107853 -0.145605
v 0.030493 0.107853 -0.132553
vn -0.0130 0.9996 0.0233
vn 0.2186 0.9640 0.1514
vn 0.1902 0.9734 0.1274
vn -0.0096 0.9998 0.0173
vn 0.1581 0.9825 0.0977
vn -0.0042 0.9999 0.0075
vn -0.2436 0.9640 -0.1065
vn -0.2083 0.9734 -0.0950
vn -0.1661 0.9825 -0.0833
vn 0.1467 0.9855 0.0851
vn -0.0014 1.0000 0.0025
vn 0.1497 0.9854 0.0801
vn 0.0015 1.0000 -0.0027
vn 0.1561 0.9846 0.0782
vn 0.0038 0.9999 -0.0069
vn -0.1495 0.9855 -0.0802
vn -0.1468 0.9854 -0.0853
vn -0.1486 0.9846 -0.0918
usemtl feather_001
s 1
f 3//1 1//2 4//3 8//4
f 8//4 4//3 5//5 9//6
f 2//7 3//1 8//4 7//8
f 7//8 8//4 9//6 6//9
f 9//6 5//5 12//10 18//11
f 18//11 12//10 11//12 17//13
f 17//13 11//12 10//14 16//15
f 6//9 9//6 18//11 13//16
f 13//16 18//11 17//13 14//17
f 14//17 17//13 16//15 15//18
