# Blender v2.79 (sub 0) OBJ File: 'pigeon_base_mesh_BI.blend'
# www.blender.org
mtllib pigeon_feather_flight_tertiary_074.mtl
o feather_flight_tertiary_074
v 0.191102 0.140552 0.027184
v 0.188724 0.139431 0.027184
v 0.197737 0.127594 0.027184
v 0.194492 0.126065 0.027184
v 0.189596 0.140664 0.026753
v 0.196808 0.125357 0.026753
v 0.192799 0.138628 0.027184
v 0.194710 0.135982 0.027184
v 0.196424 0.133244 0.027184
v 0.197694 0.130298 0.027184
v 0.192434 0.127819 0.027184
v 0.190971 0.130675 0.027184
v 0.189951 0.133740 0.027184
v 0.189127 0.136898 0.027184
v 0.190963 0.137763 0.026753
v 0.192330 0.134861 0.026753
v 0.193697 0.131960 0.026753
v 0.195064 0.129058 0.026753
vn 0.0075 -0.0160 -0.9998
vn 0.1544 0.0562 -0.9864
vn 0.1865 0.0520 -0.9810
vn 0.0141 -0.0299 -0.9995
vn -0.1416 -0.0833 -0.9864
vn -0.1589 -0.1107 -0.9810
vn -0.0142 0.0302 -0.9994
vn 0.2178 0.1383 -0.9661
vn 0.1830 0.1122 -0.9767
vn -0.0107 0.0229 -0.9997
vn 0.1437 0.0816 -0.9862
vn -0.0056 0.0119 -0.9999
vn 0.1319 0.0656 -0.9891
vn -0.0014 0.0030 -1.0000
vn -0.2453 -0.0799 -0.9661
vn -0.2031 -0.0697 -0.9767
vn -0.1544 -0.0588 -0.9862
vn -0.1346 -0.0599 -0.9891
usemtl feather_001
s 1
f 18//1 10//2 3//3 6//4
f 11//5 18//1 6//4 4//6
f 5//7 1//8 7//9 15//10
f 15//10 7//9 8//11 16//12
f 16//12 8//11 9//13 17//14
f 17//14 9//13 10//2 18//1
f 2//15 5//7 15//10 14//16
f 14//16 15//10 16//12 13//17
f 13//17 16//12 17//14 12//18
f 12//18 17//14 18//1 11//5
