# Blender v2.79 (sub 0) OBJ File: 'pigeon_base_mesh_BI.blend'
# www.blender.org
mtllib pigeon_feather_flight_tertiary_078.mtl
o feather_flight_tertiary_078
v 0.205718 0.141166 0.027184
v 0.203809 0.139358 0.027184
v 0.214513 0.132574 0.027184
v 0.211907 0.130108 0.027184
v 0.204332 0.140718 0.026753
v 0.214155 0.130343 0.026753
v 0.207667 0.140147 0.027184
v 0.209966 0.138593 0.027184
v 0.212106 0.136891 0.027184
v 0.213891 0.134851 0.027184
v 0.209669 0.130853 0.027184
v 0.207729 0.132746 0.027184
v 0.206146 0.134977 0.027184
v 0.204720 0.137356 0.027184
v 0.206194 0.138752 0.026753
v 0.208056 0.136785 0.026753
v 0.209918 0.134818 0.026753
v 0.211780 0.132852 0.026753
vn 0.0144 -0.0152 -0.9998
vn 0.1301 0.0995 -0.9865
vn 0.1650 0.1033 -0.9808
vn 0.0269 -0.0284 -0.9992
vn -0.1065 -0.1245 -0.9865
vn -0.1122 -0.1591 -0.9808
vn -0.0272 0.0287 -0.9992
vn 0.1596 0.2037 -0.9659
vn 0.1352 0.1661 -0.9768
vn -0.0206 0.0217 -0.9995
vn 0.1092 0.1239 -0.9862
vn -0.0107 0.0114 -0.9998
vn 0.1044 0.1039 -0.9891
vn -0.0027 0.0029 -1.0000
vn -0.2121 -0.1482 -0.9659
vn -0.1732 -0.1260 -0.9768
vn -0.1297 -0.1023 -0.9862
vn -0.1095 -0.0985 -0.9891
usemtl feather_001
s 1
f 18//1 10//2 3//3 6//4
f 11//5 18//1 6//4 4//6
f 5//7 1//8 7//9 15//10
f 15//10 7//9 8//11 16//12
f 16//12 8//11 9//13 17//14
f 17//14 9//13 10//2 18//1
f 2//15 5//7 15//10 14//16
f 14//16 15//10 16//12 13//17
f 13//17 16//12 17//14 12//18
f 12//18 17//14 18//1 11//5
