# Blender v2.79 (sub 0) OBJ File: 'pigeon_base_mesh_BI.blend'
# www.blender.org
mtllib pigeon_feather_flight_tertiary_033.mtl
o feather_flight_tertiary_033
v 0.194268 0.140638 0.029457
v 0.191934 0.139427 0.029457
v 0.201100 0.128506 0.029457
v 0.197915 0.126854 0.029457
v 0.192773 0.140664 0.029888
v 0.200224 0.126298 0.029888
v 0.195987 0.138875 0.029457
v 0.197933 0.136429 0.029457
v 0.199686 0.133882 0.029457
v 0.201003 0.131110 0.029457
v 0.195842 0.128433 0.029457
v 0.194335 0.131107 0.029457
v 0.193263 0.134007 0.029457
v 0.192384 0.137007 0.029457
v 0.194186 0.137941 0.029888
v 0.195598 0.135218 0.029888
v 0.197010 0.132495 0.029888
v 0.198423 0.129772 0.029888
vn -0.0085 0.0164 -0.9998
vn -0.1522 -0.0615 -0.9864
vn -0.1851 -0.0578 -0.9810
vn -0.0159 0.0306 -0.9994
vn 0.1379 0.0890 -0.9864
vn 0.1538 0.1180 -0.9810
vn 0.0161 -0.0309 -0.9994
vn -0.2117 -0.1478 -0.9661
vn -0.1779 -0.1199 -0.9767
vn 0.0121 -0.0234 -0.9996
vn -0.1401 -0.0875 -0.9862
vn 0.0063 -0.0122 -0.9999
vn -0.1292 -0.0707 -0.9891
vn 0.0016 -0.0031 -1.0000
vn 0.2427 0.0879 -0.9661
vn 0.2005 0.0764 -0.9767
vn 0.1523 0.0641 -0.9862
vn 0.1322 0.0649 -0.9891
usemtl feather_001
s 1
f 18//1 10//2 3//3 6//4
f 11//5 18//1 6//4 4//6
f 5//7 1//8 7//9 15//10
f 15//10 7//9 8//11 16//12
f 16//12 8//11 9//13 17//14
f 17//14 9//13 10//2 18//1
f 2//15 5//7 15//10 14//16
f 14//16 15//10 16//12 13//17
f 13//17 16//12 17//14 12//18
f 12//18 17//14 18//1 11//5
