# Blender v2.79 (sub 0) OBJ File: 'pigeon_base_mesh_BI.blend'
# www.blender.org
mtllib pigeon_feather_flight_secondary_025.mtl
o feather_flight_secondary_025
v 0.084691 0.138367 0.027727
v 0.080513 0.138367 0.027727
v 0.085453 0.093416 0.027692
v 0.079751 0.093416 0.027692
v 0.082602 0.140663 0.027298
v 0.082602 0.088387 0.027258
v 0.085827 0.130755 0.027721
v 0.086781 0.120846 0.027713
v 0.087391 0.110937 0.027706
v 0.087222 0.101028 0.027698
v 0.077982 0.101028 0.027698
v 0.077813 0.110937 0.027706
v 0.078423 0.120846 0.027713
v 0.079378 0.130755 0.027721
v 0.082602 0.130754 0.027290
v 0.082602 0.120846 0.027283
v 0.082602 0.110937 0.027275
v 0.082602 0.101028 0.027267
vn 0.0000 -0.0049 -1.0000
vn 0.1051 -0.0045 -0.9944
vn 0.1216 -0.0098 -0.9925
vn 0.0000 -0.0099 -0.9999
vn -0.1051 -0.0045 -0.9944
vn -0.1216 -0.0098 -0.9925
vn 0.0000 0.0116 -0.9999
vn 0.1644 0.0114 -0.9863
vn 0.1381 0.0087 -0.9904
vn 0.0000 0.0089 -0.9999
vn 0.1050 0.0049 -0.9944
vn 0.0000 0.0050 -1.0000
vn 0.0933 0.0018 -0.9956
vn 0.0000 0.0018 -1.0000
vn -0.1644 0.0114 -0.9863
vn -0.1381 0.0087 -0.9904
vn -0.1050 0.0049 -0.9944
vn -0.0933 0.0018 -0.9956
usemtl feather_002
s 1
f 18//1 10//2 3//3 6//4
f 11//5 18//1 6//4 4//6
f 5//7 1//8 7//9 15//10
f 15//10 7//9 8//11 16//12
f 16//12 8//11 9//13 17//14
f 17//14 9//13 10//2 18//1
f 2//15 5//7 15//10 14//16
f 14//16 15//10 16//12 13//17
f 13//17 16//12 17//14 12//18
f 12//18 17//14 18//1 11//5
