# Blender v2.79 (sub 0) OBJ File: 'pigeon_base_mesh_BI.blend'
# www.blender.org
mtllib pigeon_feather_flight_secondary_023.mtl
o feather_flight_secondary_023
v 0.066482 0.138302 0.027727
v 0.062304 0.138302 0.027727
v 0.067244 0.092088 0.027687
v 0.061543 0.092088 0.027687
v 0.064393 0.140663 0.027298
v 0.064393 0.086917 0.027252
v 0.067618 0.130476 0.027720
v 0.068572 0.120289 0.027711
v 0.069182 0.110101 0.027703
v 0.069013 0.099913 0.027694
v 0.059774 0.099913 0.027694
v 0.059604 0.110101 0.027703
v 0.060214 0.120289 0.027711
v 0.061169 0.130476 0.027720
v 0.064393 0.130476 0.027289
v 0.064393 0.120288 0.027281
v 0.064393 0.110100 0.027272
v 0.064393 0.099913 0.027263
vn 0.0000 -0.0047 -1.0000
vn 0.1051 -0.0043 -0.9944
vn 0.1216 -0.0095 -0.9925
vn 0.0000 -0.0096 -0.9999
vn -0.1051 -0.0043 -0.9944
vn -0.1216 -0.0095 -0.9925
vn 0.0000 0.0114 -0.9999
vn 0.1644 0.0112 -0.9863
vn 0.1382 0.0085 -0.9904
vn 0.0000 0.0088 -0.9999
vn 0.1050 0.0049 -0.9944
vn 0.0000 0.0050 -1.0000
vn 0.0933 0.0019 -0.9956
vn 0.0000 0.0019 -1.0000
vn -0.1644 0.0112 -0.9863
vn -0.1382 0.0085 -0.9904
vn -0.1050 0.0049 -0.9944
vn -0.0933 0.0019 -0.9956
usemtl feather_002
s 1
f 18//1 10//2 3//3 6//4
f 11//5 18//1 6//4 4//6
f 5//7 1//8 7//9 15//10
f 15//10 7//9 8//11 16//12
f 16//12 8//11 9//13 17//14
f 17//14 9//13 10//2 18//1
f 2//15 5//7 15//10 14//16
f 14//16 15//10 16//12 13//17
f 13//17 16//12 17//14 12//18
f 12//18 17//14 18//1 11//5
