# Blender v2.79 (sub 0) OBJ File: 'pigeon_base_mesh_BI.blend'
# www.blender.org
mtllib pigeon_feather_flight_primary_003.mtl
o feather_flight_primary_003
v 0.075531 0.137177 0.028370
v 0.071179 0.137177 0.028370
v 0.076427 0.064113 0.028154
v 0.070283 0.064113 0.028154
v 0.073355 0.140664 0.028800
v 0.073355 0.061329 0.028800
v 0.076714 0.125626 0.028370
v 0.077708 0.110588 0.028369
v 0.078344 0.095550 0.028369
v 0.078167 0.080512 0.028369
v 0.068543 0.080512 0.028369
v 0.068366 0.095550 0.028369
v 0.069002 0.110588 0.028369
v 0.069996 0.125626 0.028370
v 0.073355 0.125626 0.028800
v 0.073355 0.110588 0.028800
v 0.073355 0.095550 0.028800
v 0.073355 0.080512 0.028800
vn 0.0000 0.0067 -1.0000
vn -0.1126 0.0064 -0.9936
vn -0.1397 0.0128 -0.9901
vn 0.0000 0.0129 -0.9999
vn 0.1126 0.0064 -0.9936
vn 0.1397 0.0128 -0.9901
vn 0.0000 -0.0071 -1.0000
vn -0.1581 -0.0070 -0.9874
vn -0.1333 -0.0052 -0.9911
vn 0.0000 -0.0054 -1.0000
vn -0.1010 -0.0027 -0.9949
vn 0.0000 -0.0028 -1.0000
vn -0.0896 -0.0007 -0.9960
vn 0.0000 -0.0007 -1.0000
vn 0.1581 -0.0070 -0.9874
vn 0.1333 -0.0052 -0.9911
vn 0.1010 -0.0027 -0.9949
vn 0.0896 -0.0007 -0.9960
usemtl feather_003
s 1
f 18//1 10//2 3//3 6//4
f 11//5 18//1 6//4 4//6
f 5//7 1//8 7//9 15//10
f 15//10 7//9 8//11 16//12
f 16//12 8//11 9//13 17//14
f 17//14 9//13 10//2 18//1
f 2//15 5//7 15//10 14//16
f 14//16 15//10 16//12 13//17
f 13//17 16//12 17//14 12//18
f 12//18 17//14 18//1 11//5
