# Blender v2.79 (sub 0) OBJ File: 'pigeon_base_mesh_BI.blend'
# www.blender.org
mtllib pigeon_feather_flight_primary_014.mtl
o feather_flight_primary_014
v 0.177701 0.137459 0.028370
v 0.171519 0.135803 0.028370
v 0.200454 0.051816 0.028379
v 0.189987 0.059753 0.028378
v 0.173529 0.140664 0.028800
v 0.198120 0.048889 0.028809
v 0.182961 0.124546 0.028372
v 0.189035 0.107529 0.028373
v 0.194599 0.090375 0.028375
v 0.199009 0.072912 0.028377
v 0.185339 0.069249 0.028377
v 0.180427 0.086577 0.028375
v 0.176668 0.104215 0.028373
v 0.173419 0.121990 0.028372
v 0.178190 0.123268 0.028802
v 0.182852 0.105872 0.028804
v 0.187513 0.088476 0.028805
v 0.192174 0.071080 0.028807
vn -0.0035 0.0024 -1.0000
vn -0.0708 -0.0149 -0.9974
vn -0.0859 -0.0147 -0.9962
vn -0.0404 -0.0036 -0.9992
vn 0.0642 0.0195 -0.9977
vn 0.0719 0.0239 -0.9971
vn 0.0016 -0.0058 -1.0000
vn -0.1029 -0.0338 -0.9941
vn -0.0866 -0.0278 -0.9958
vn 0.0012 -0.0044 -1.0000
vn -0.0659 -0.0201 -0.9976
vn 0.0006 -0.0023 -1.0000
vn -0.0588 -0.0164 -0.9981
vn 0.0002 -0.0006 -1.0000
vn 0.1061 0.0222 -0.9941
vn 0.0889 0.0192 -0.9958
vn 0.0671 0.0155 -0.9976
vn 0.0591 0.0151 -0.9981
usemtl feather_003
s 1
f 18//1 10//2 3//3 6//4
f 11//5 18//1 6//4 4//6
f 5//7 1//8 7//9 15//10
f 15//10 7//9 8//11 16//12
f 16//12 8//11 9//13 17//14
f 17//14 9//13 10//2 18//1
f 2//15 5//7 15//10 14//16
f 14//16 15//10 16//12 13//17
f 13//17 16//12 17//14 12//18
f 12//18 17//14 18//1 11//5
