# Blender v2.79 (sub 0) OBJ File: 'pigeon_base_mesh_BI.blend'
# www.blender.org
mtllib pigeon_feather_flight_tertiary_020.mtl
o feather_flight_tertiary_020
v 0.142280 0.139874 0.029457
v 0.139651 0.139798 0.029457
v 0.143227 0.123679 0.029457
v 0.139640 0.123576 0.029457
v 0.140942 0.140664 0.029888
v 0.141486 0.121814 0.029888
v 0.143073 0.137150 0.029457
v 0.143777 0.133594 0.029457
v 0.144264 0.130032 0.029457
v 0.144260 0.126456 0.029457
v 0.138448 0.126288 0.029457
v 0.138238 0.129858 0.029457
v 0.138519 0.133442 0.029457
v 0.139016 0.137033 0.029457
v 0.141045 0.137091 0.029888
v 0.141148 0.133518 0.029888
v 0.141251 0.129945 0.029888
v 0.141354 0.126372 0.029888
vn -0.0004 0.0158 -0.9998
vn -0.1643 0.0089 -0.9864
vn -0.1917 0.0236 -0.9811
vn -0.0008 0.0296 -0.9995
vn 0.1635 0.0184 -0.9864
vn 0.1900 0.0346 -0.9811
vn 0.0009 -0.0299 -0.9995
vn -0.2550 -0.0363 -0.9662
vn -0.2133 -0.0273 -0.9766
vn 0.0006 -0.0226 -0.9997
vn -0.1645 -0.0161 -0.9862
vn 0.0003 -0.0118 -0.9999
vn -0.1471 -0.0071 -0.9891
vn 0.0001 -0.0030 -1.0000
vn 0.2567 -0.0215 -0.9662
vn 0.2145 -0.0150 -0.9766
vn 0.1652 -0.0066 -0.9862
vn 0.1473 0.0014 -0.9891
usemtl feather_001
s 1
f 18//1 10//2 3//3 6//4
f 11//5 18//1 6//4 4//6
f 5//7 1//8 7//9 15//10
f 15//10 7//9 8//11 16//12
f 16//12 8//11 9//13 17//14
f 17//14 9//13 10//2 18//1
f 2//15 5//7 15//10 14//16
f 14//16 15//10 16//12 13//17
f 13//17 16//12 17//14 12//18
f 12//18 17//14 18//1 11//5
