# Blender v2.79 (sub 0) OBJ File: 'pigeon_base_mesh_BI.blend'
# www.blender.org
mtllib pigeon_feather_flight_tertiary_007.mtl
o feather_flight_tertiary_007
v 0.081104 0.139799 0.029457
v 0.078475 0.139799 0.029457
v 0.081583 0.122866 0.029457
v 0.077995 0.122866 0.029457
v 0.079789 0.140664 0.029888
v 0.079789 0.120971 0.029888
v 0.081819 0.136931 0.029457
v 0.082419 0.133198 0.029457
v 0.082803 0.129466 0.029457
v 0.082696 0.125733 0.029457
v 0.076882 0.125733 0.029457
v 0.076775 0.129466 0.029457
v 0.077159 0.133198 0.029457
v 0.077760 0.136931 0.029457
v 0.079789 0.136931 0.029888
v 0.079789 0.133198 0.029888
v 0.079789 0.129466 0.029888
v 0.079789 0.125733 0.029888
vn 0.0000 0.0152 -0.9999
vn -0.1642 0.0131 -0.9863
vn -0.1910 0.0279 -0.9812
vn 0.0000 0.0284 -0.9996
vn 0.1642 0.0131 -0.9863
vn 0.1910 0.0279 -0.9812
vn 0.0000 -0.0287 -0.9996
vn -0.2560 -0.0277 -0.9662
vn -0.2142 -0.0203 -0.9766
vn 0.0000 -0.0217 -0.9998
vn -0.1650 -0.0109 -0.9862
vn 0.0000 -0.0113 -0.9999
vn -0.1473 -0.0027 -0.9891
vn 0.0000 -0.0029 -1.0000
vn 0.2560 -0.0277 -0.9662
vn 0.2142 -0.0203 -0.9766
vn 0.1650 -0.0109 -0.9862
vn 0.1473 -0.0027 -0.9891
usemtl feather_001
s 1
f 18//1 10//2 3//3 6//4
f 11//5 18//1 6//4 4//6
f 5//7 1//8 7//9 15//10
f 15//10 7//9 8//11 16//12
f 16//12 8//11 9//13 17//14
f 17//14 9//13 10//2 18//1
f 2//15 5//7 15//10 14//16
f 14//16 15//10 16//12 13//17
f 13//17 16//12 17//14 12//18
f 12//18 17//14 18//1 11//5
