# Blender v2.79 (sub 0) OBJ File: 'pigeon_base_mesh_BI.blend'
# www.blender.org
mtllib pigeon_feather_flight_tertiary_056.mtl
o feather_flight_tertiary_056
v 0.113532 0.139914 0.027184
v 0.110902 0.139914 0.027184
v 0.114011 0.125239 0.027184
v 0.110423 0.125239 0.027184
v 0.112217 0.140664 0.026753
v 0.112217 0.123598 0.026753
v 0.114246 0.137429 0.027184
v 0.114847 0.134194 0.027184
v 0.115231 0.130959 0.027184
v 0.115124 0.127724 0.027184
v 0.109310 0.127724 0.027184
v 0.109203 0.130959 0.027184
v 0.109587 0.134194 0.027184
v 0.110188 0.137429 0.027184
v 0.112217 0.137429 0.026753
v 0.112217 0.134194 0.026753
v 0.112217 0.130959 0.026753
v 0.112217 0.127724 0.026753
vn 0.0000 -0.0175 -0.9998
vn 0.1636 -0.0148 -0.9864
vn 0.1909 -0.0321 -0.9810
vn 0.0000 -0.0327 -0.9995
vn -0.1636 -0.0148 -0.9864
vn -0.1909 -0.0321 -0.9810
vn 0.0000 0.0331 -0.9995
vn 0.2560 0.0320 -0.9661
vn 0.2134 0.0233 -0.9767
vn 0.0000 0.0251 -0.9997
vn 0.1648 0.0125 -0.9862
vn 0.0000 0.0131 -0.9999
vn 0.1473 0.0031 -0.9891
vn 0.0000 0.0033 -1.0000
vn -0.2560 0.0320 -0.9661
vn -0.2134 0.0233 -0.9767
vn -0.1648 0.0125 -0.9862
vn -0.1473 0.0031 -0.9891
usemtl feather_001
s 1
f 18//1 10//2 3//3 6//4
f 11//5 18//1 6//4 4//6
f 5//7 1//8 7//9 15//10
f 15//10 7//9 8//11 16//12
f 16//12 8//11 9//13 17//14
f 17//14 9//13 10//2 18//1
f 2//15 5//7 15//10 14//16
f 14//16 15//10 16//12 13//17
f 13//17 16//12 17//14 12//18
f 12//18 17//14 18//1 11//5
