# Blender v2.79 (sub 0) OBJ File: 'pigeon_base_mesh_BI.blend'
# www.blender.org
mtllib pigeon_feather_flight_secondary_017.mtl
o feather_flight_secondary_017
v 0.196068 0.140377 0.028902
v 0.192018 0.137562 0.028938
v 0.219881 0.107812 0.029047
v 0.214354 0.103971 0.029097
v 0.192864 0.140658 0.029343
v 0.219699 0.102189 0.029520
v 0.201077 0.135541 0.028918
v 0.207089 0.128892 0.028943
v 0.212767 0.122011 0.028971
v 0.217689 0.114605 0.029006
v 0.208732 0.108381 0.029086
v 0.203481 0.115558 0.029054
v 0.198986 0.123261 0.029015
v 0.194825 0.131196 0.028974
v 0.197950 0.133366 0.029377
v 0.203037 0.126074 0.029410
v 0.208124 0.118783 0.029444
v 0.213210 0.111491 0.029477
vn -0.0074 -0.0020 -1.0000
vn -0.0800 -0.0533 -0.9954
vn -0.0952 -0.0565 -0.9938
vn -0.0107 0.0024 -0.9999
vn 0.0658 0.0483 -0.9966
vn 0.0742 0.0616 -0.9953
vn 0.0032 -0.0171 -0.9998
vn -0.1116 -0.0969 -0.9890
vn -0.0945 -0.0812 -0.9922
vn 0.0014 -0.0147 -0.9999
vn -0.0742 -0.0620 -0.9953
vn -0.0011 -0.0111 -0.9999
vn -0.0681 -0.0535 -0.9962
vn -0.0031 -0.0082 -0.9999
vn 0.1179 0.0631 -0.9910
vn 0.0972 0.0525 -0.9939
vn 0.0719 0.0399 -0.9966
vn 0.0618 0.0371 -0.9974
usemtl feather_002
s 1
f 18//1 10//2 3//3 6//4
f 11//5 18//1 6//4 4//6
f 5//7 1//8 7//9 15//10
f 15//10 7//9 8//11 16//12
f 16//12 8//11 9//13 17//14
f 17//14 9//13 10//2 18//1
f 2//15 5//7 15//10 14//16
f 14//16 15//10 16//12 13//17
f 13//17 16//12 17//14 12//18
f 12//18 17//14 18//1 11//5
