# Blender v2.79 (sub 0) OBJ File: 'pigeon_base_mesh_BI.blend'
# www.blender.org
mtllib pigeon_feather_flight_tertiary_024.mtl
o feather_flight_tertiary_024
v 0.160138 0.139997 0.029457
v 0.157531 0.139656 0.029457
v 0.162757 0.123680 0.029457
v 0.159200 0.123214 0.029457
v 0.158724 0.140664 0.029888
v 0.161218 0.121615 0.029888
v 0.161209 0.137317 0.029457
v 0.162278 0.133784 0.029457
v 0.163131 0.130223 0.029457
v 0.163498 0.126598 0.029457
v 0.157733 0.125843 0.029457
v 0.157154 0.129440 0.029457
v 0.157062 0.133101 0.029457
v 0.157185 0.136790 0.029457
v 0.159197 0.137053 0.029888
v 0.159670 0.133442 0.029888
v 0.160143 0.129832 0.029888
v 0.160615 0.126221 0.029888
vn -0.0020 0.0154 -0.9999
vn -0.1644 -0.0080 -0.9863
vn -0.1930 0.0035 -0.9812
vn -0.0038 0.0288 -0.9996
vn 0.1610 0.0346 -0.9863
vn 0.1856 0.0531 -0.9812
vn 0.0038 -0.0291 -0.9995
vn -0.2501 -0.0614 -0.9662
vn -0.2096 -0.0484 -0.9766
vn 0.0029 -0.0221 -0.9997
vn -0.1621 -0.0325 -0.9862
vn 0.0015 -0.0115 -0.9999
vn -0.1457 -0.0219 -0.9891
vn 0.0004 -0.0029 -1.0000
vn 0.2575 0.0050 -0.9662
vn 0.2150 0.0071 -0.9766
vn 0.1650 0.0103 -0.9862
vn 0.1464 0.0163 -0.9891
usemtl feather_001
s 1
f 18//1 10//2 3//3 6//4
f 11//5 18//1 6//4 4//6
f 5//7 1//8 7//9 15//10
f 15//10 7//9 8//11 16//12
f 16//12 8//11 9//13 17//14
f 17//14 9//13 10//2 18//1
f 2//15 5//7 15//10 14//16
f 14//16 15//10 16//12 13//17
f 13//17 16//12 17//14 12//18
f 12//18 17//14 18//1 11//5
