# Blender v2.79 (sub 0) OBJ File: 'pigeon_base_mesh_BI.blend'
# www.blender.org
mtllib pigeon_feather_tail_secondary_003.mtl
o feather_tail_secondary_003
v 0.017420 0.106034 -0.097196
v 0.006723 0.106034 -0.101262
v 0.010998 0.107812 -0.096406
v 0.023379 0.106034 -0.105636
v 0.029809 0.106034 -0.117128
v 0.010703 0.106034 -0.124391
v 0.007875 0.106034 -0.111530
v 0.015627 0.107812 -0.108583
v 0.020256 0.107812 -0.120760
v 0.044097 0.106034 -0.155255
v 0.041385 0.106034 -0.144393
v 0.035828 0.106034 -0.130673
v 0.015202 0.106034 -0.138514
v 0.020162 0.106034 -0.152461
v 0.025351 0.106034 -0.162382
v 0.036032 0.107812 -0.162261
v 0.030774 0.107812 -0.148427
v 0.025515 0.107812 -0.134593
vn -0.0103 0.9996 0.0271
vn 0.2251 0.9674 0.1156
vn 0.1949 0.9761 0.0956
vn -0.0076 0.9998 0.0201
vn 0.1614 0.9843 0.0709
vn -0.0033 0.9999 0.0088
vn -0.2451 0.9674 -0.0631
vn -0.2092 0.9761 -0.0580
vn -0.1677 0.9843 -0.0542
vn 0.1493 0.9870 0.0600
vn -0.0011 1.0000 0.0029
vn 0.1517 0.9869 0.0542
vn 0.0012 1.0000 -0.0032
vn 0.1577 0.9861 0.0509
vn 0.0030 0.9999 -0.0080
vn -0.1514 0.9870 -0.0543
vn -0.1494 0.9869 -0.0602
vn -0.1517 0.9862 -0.0667
usemtl feather_001
s 1
f 3//1 1//2 4//3 8//4
f 8//4 4//3 5//5 9//6
f 2//7 3//1 8//4 7//8
f 7//8 8//4 9//6 6//9
f 9//6 5//5 12//10 18//11
f 18//11 12//10 11//12 17//13
f 17//13 11//12 10//14 16//15
f 6//9 9//6 18//11 13//16
f 13//16 18//11 17//13 14//17
f 14//17 17//13 16//15 15//18
