# Blender v2.79 (sub 0) OBJ File: 'pigeon_base_mesh_BI.blend'
# www.blender.org
mtllib pigeon_feather_tail_primary_001.mtl
o feather_tail_primary_001
v 0.015419 0.105017 -0.096602
v 0.008039 0.105017 -0.101828
v 0.082110 0.105017 -0.188094
v 0.072198 0.105017 -0.195113
v 0.010083 0.106445 -0.096891
v 0.080617 0.106445 -0.196494
v 0.022530 0.105017 -0.103127
v 0.030871 0.105017 -0.112272
v 0.072116 0.105017 -0.168559
v 0.078570 0.105017 -0.179039
v 0.064832 0.105017 -0.188768
v 0.057089 0.105017 -0.179200
v 0.017690 0.105017 -0.121606
v 0.011833 0.105017 -0.110703
v 0.017182 0.106445 -0.106915
v 0.024280 0.106445 -0.116939
v 0.064603 0.106445 -0.173879
v 0.071701 0.106445 -0.183903
v 0.064099 0.105017 -0.157137
v 0.055945 0.105017 -0.145813
v 0.047731 0.105017 -0.134531
v 0.039460 0.105017 -0.123288
v 0.025230 0.105017 -0.133366
v 0.033088 0.105017 -0.144900
v 0.041003 0.105017 -0.156394
v 0.048978 0.105017 -0.167845
v 0.056538 0.106445 -0.162491
v 0.048474 0.106445 -0.151103
v 0.040409 0.106445 -0.139715
v 0.032345 0.106445 -0.128327
vn 0.0070 0.9999 -0.0100
vn 0.1520 0.9839 0.0938
vn 0.1748 0.9794 0.1006
vn 0.0111 0.9998 -0.0157
vn -0.1390 0.9839 -0.1123
vn -0.1529 0.9794 -0.1315
vn -0.0143 0.9997 0.0201
vn 0.1945 0.9666 0.1670
vn 0.1697 0.9753 0.1413
vn -0.0106 0.9998 0.0150
vn 0.1416 0.9838 0.1096
vn -0.0046 0.9999 0.0065
vn -0.0001 1.0000 0.0001
vn 0.1247 0.9882 0.0885
vn 0.1291 0.9877 0.0881
vn 0.0016 1.0000 -0.0022
vn -0.2221 0.9666 -0.1280
vn -0.1896 0.9753 -0.1131
vn -0.1504 0.9838 -0.0971
vn -0.1249 0.9882 -0.0883
vn -0.1259 0.9877 -0.0925
vn 0.1318 0.9865 0.0966
vn -0.0015 1.0000 0.0022
vn 0.1278 0.9875 0.0920
vn -0.0007 1.0000 0.0010
vn 0.1255 0.9880 0.0899
vn -0.0005 1.0000 0.0006
vn -0.1348 0.9865 -0.0923
vn -0.1292 0.9875 -0.0900
vn -0.1264 0.9880 -0.0885
usemtl feather_003
s 1
f 18//1 10//2 3//3 6//4
f 11//5 18//1 6//4 4//6
f 5//7 1//8 7//9 15//10
f 15//10 7//9 8//11 16//12
f 27//13 19//14 9//15 17//16
f 17//16 9//15 10//2 18//1
f 2//17 5//7 15//10 14//18
f 14//18 15//10 16//12 13//19
f 26//20 27//13 17//16 12//21
f 12//21 17//16 18//1 11//5
f 16//12 8//11 22//22 30//23
f 30//23 22//22 21//24 29//25
f 29//25 21//24 20//26 28//27
f 28//27 20//26 19//14 27//13
f 13//19 16//12 30//23 23//28
f 23//28 30//23 29//25 24//29
f 24//29 29//25 28//27 25//30
f 25//30 28//27 27//13 26//20
