# Blender v2.79 (sub 0) OBJ File: 'pigeon_base_mesh_BI.blend'
# www.blender.org
mtllib pigeon_feather_flight_tertiary_035.mtl
o feather_flight_tertiary_035
v 0.201780 0.140945 0.029457
v 0.199691 0.139349 0.029457
v 0.209891 0.131120 0.029457
v 0.207040 0.128941 0.029457
v 0.200340 0.140664 0.029888
v 0.209330 0.128899 0.029888
v 0.203657 0.139666 0.029457
v 0.205838 0.137801 0.029457
v 0.207847 0.135804 0.029457
v 0.209467 0.133509 0.029457
v 0.204846 0.129978 0.029457
v 0.203057 0.132144 0.029457
v 0.201658 0.134607 0.029457
v 0.200432 0.137202 0.029457
v 0.202044 0.138434 0.029888
v 0.203748 0.136204 0.029888
v 0.205452 0.133974 0.029888
v 0.207156 0.131744 0.029888
vn -0.0122 0.0160 -0.9998
vn -0.1397 -0.0857 -0.9864
vn -0.1742 -0.0865 -0.9809
vn -0.0229 0.0300 -0.9993
vn 0.1194 0.1122 -0.9864
vn 0.1292 0.1453 -0.9809
vn 0.0231 -0.0303 -0.9993
vn -0.1810 -0.1847 -0.9660
vn -0.1527 -0.1503 -0.9767
vn 0.0175 -0.0229 -0.9996
vn -0.1220 -0.1113 -0.9862
vn 0.0092 -0.0120 -0.9999
vn -0.1148 -0.0922 -0.9891
vn 0.0023 -0.0030 -1.0000
vn 0.2257 0.1261 -0.9660
vn 0.1851 0.1079 -0.9767
vn 0.1395 0.0885 -0.9862
vn 0.1192 0.0866 -0.9891
usemtl feather_001
s 1
f 18//1 10//2 3//3 6//4
f 11//5 18//1 6//4 4//6
f 5//7 1//8 7//9 15//10
f 15//10 7//9 8//11 16//12
f 16//12 8//11 9//13 17//14
f 17//14 9//13 10//2 18//1
f 2//15 5//7 15//10 14//16
f 14//16 15//10 16//12 13//17
f 13//17 16//12 17//14 12//18
f 12//18 17//14 18//1 11//5
