# Blender v2.79 (sub 0) OBJ File: 'pigeon_base_mesh_BI.blend'
# www.blender.org
mtllib pigeon_feather_flight_primary_019.mtl
o feather_flight_primary_019
v 0.212905 0.141008 0.028370
v 0.208486 0.134698 0.028370
v 0.297156 0.081739 0.028376
v 0.281714 0.080713 0.028375
v 0.206720 0.140637 0.028800
v 0.297193 0.077287 0.028806
v 0.227279 0.133500 0.028371
v 0.245438 0.122934 0.028372
v 0.263233 0.111847 0.028373
v 0.280203 0.099583 0.028374
v 0.270431 0.085627 0.028374
v 0.253102 0.097379 0.028373
v 0.236598 0.110308 0.028372
v 0.220458 0.123758 0.028371
v 0.223869 0.128629 0.028802
v 0.241018 0.116621 0.028803
v 0.258167 0.104613 0.028804
v 0.275317 0.092605 0.028805
vn -0.0037 -0.0002 -1.0000
vn -0.0372 -0.0472 -0.9982
vn -0.0470 -0.0551 -0.9973
vn -0.0237 -0.0234 -0.9994
vn 0.0303 0.0468 -0.9984
vn 0.0328 0.0537 -0.9980
vn 0.0042 -0.0030 -1.0000
vn -0.0474 -0.0767 -0.9959
vn -0.0402 -0.0641 -0.9971
vn 0.0032 -0.0022 -1.0000
vn -0.0311 -0.0480 -0.9984
vn 0.0017 -0.0012 -1.0000
vn -0.0287 -0.0419 -0.9987
vn 0.0005 -0.0003 -1.0000
vn 0.0558 0.0708 -0.9959
vn 0.0465 0.0597 -0.9971
vn 0.0345 0.0457 -0.9984
vn 0.0295 0.0412 -0.9987
usemtl feather_003
s 1
f 18//1 10//2 3//3 6//4
f 11//5 18//1 6//4 4//6
f 5//7 1//8 7//9 15//10
f 15//10 7//9 8//11 16//12
f 16//12 8//11 9//13 17//14
f 17//14 9//13 10//2 18//1
f 2//15 5//7 15//10 14//16
f 14//16 15//10 16//12 13//17
f 13//17 16//12 17//14 12//18
f 12//18 17//14 18//1 11//5
