# Blender v2.79 (sub 0) OBJ File: 'pigeon_base_mesh_BI.blend'
# www.blender.org
mtllib pigeon_feather_flight_primary_002.mtl
o feather_flight_primary_002
v 0.066358 0.137371 0.028370
v 0.062006 0.137371 0.028370
v 0.067254 0.068361 0.028155
v 0.061110 0.068361 0.028155
v 0.064182 0.140664 0.028800
v 0.064182 0.065732 0.028800
v 0.067541 0.126461 0.028370
v 0.068535 0.112257 0.028370
v 0.069171 0.098054 0.028370
v 0.068994 0.083850 0.028370
v 0.059370 0.083850 0.028370
v 0.059193 0.098054 0.028370
v 0.059828 0.112257 0.028370
v 0.060823 0.126461 0.028370
v 0.064182 0.126461 0.028800
v 0.064182 0.112257 0.028800
v 0.064182 0.098054 0.028800
v 0.064182 0.083850 0.028800
vn 0.0000 0.0071 -1.0000
vn -0.1126 0.0068 -0.9936
vn -0.1397 0.0136 -0.9901
vn 0.0000 0.0137 -0.9999
vn 0.1126 0.0068 -0.9936
vn 0.1397 0.0136 -0.9901
vn 0.0000 -0.0075 -1.0000
vn -0.1581 -0.0074 -0.9874
vn -0.1332 -0.0056 -0.9911
vn 0.0000 -0.0057 -1.0000
vn -0.1010 -0.0029 -0.9949
vn 0.0000 -0.0030 -1.0000
vn -0.0896 -0.0007 -0.9960
vn 0.0000 -0.0007 -1.0000
vn 0.1581 -0.0074 -0.9874
vn 0.1332 -0.0056 -0.9911
vn 0.1010 -0.0029 -0.9949
vn 0.0896 -0.0007 -0.9960
usemtl feather_003
s 1
f 18//1 10//2 3//3 6//4
f 11//5 18//1 6//4 4//6
f 5//7 1//8 7//9 15//10
f 15//10 7//9 8//11 16//12
f 16//12 8//11 9//13 17//14
f 17//14 9//13 10//2 18//1
f 2//15 5//7 15//10 14//16
f 14//16 15//10 16//12 13//17
f 13//17 16//12 17//14 12//18
f 12//18 17//14 18//1 11//5
