# Blender v2.79 (sub 0) OBJ File: 'pigeon_base_mesh_BI.blend'
# www.blender.org
mtllib pigeon_feather_flight_primary_015.mtl
o feather_flight_primary_015
v 0.185340 0.137907 0.028370
v 0.179070 0.135500 0.028370
v 0.217423 0.053779 0.028376
v 0.205751 0.060591 0.028375
v 0.180685 0.140664 0.028800
v 0.215281 0.050538 0.028806
v 0.192082 0.125438 0.028371
v 0.200073 0.108905 0.028372
v 0.207546 0.092173 0.028373
v 0.213849 0.074992 0.028374
v 0.199982 0.069669 0.028374
v 0.193170 0.086654 0.028373
v 0.187528 0.104089 0.028372
v 0.182403 0.121723 0.028371
v 0.187243 0.123581 0.028802
v 0.193800 0.106497 0.028803
v 0.200358 0.089414 0.028804
v 0.206916 0.072330 0.028805
vn -0.0037 0.0021 -1.0000
vn -0.0656 -0.0211 -0.9976
vn -0.0801 -0.0223 -0.9965
vn -0.0376 -0.0070 -0.9992
vn 0.0588 0.0250 -0.9979
vn 0.0656 0.0300 -0.9974
vn 0.0021 -0.0055 -1.0000
vn -0.0941 -0.0424 -0.9946
vn -0.0793 -0.0351 -0.9962
vn 0.0016 -0.0042 -1.0000
vn -0.0604 -0.0257 -0.9978
vn 0.0008 -0.0022 -1.0000
vn -0.0541 -0.0214 -0.9983
vn 0.0002 -0.0006 -1.0000
vn 0.0984 0.0315 -0.9946
vn 0.0824 0.0269 -0.9962
vn 0.0621 0.0213 -0.9978
vn 0.0545 0.0202 -0.9983
usemtl feather_003
s 1
f 18//1 10//2 3//3 6//4
f 11//5 18//1 6//4 4//6
f 5//7 1//8 7//9 15//10
f 15//10 7//9 8//11 16//12
f 16//12 8//11 9//13 17//14
f 17//14 9//13 10//2 18//1
f 2//15 5//7 15//10 14//16
f 14//16 15//10 16//12 13//17
f 13//17 16//12 17//14 12//18
f 12//18 17//14 18//1 11//5
