# Blender v2.79 (sub 0) OBJ File: 'pony_base_mesh_BI.blend'
# www.blender.org
mtllib pony_eye.mtl
o eye
v 0.088280 1.051066 0.708971
v 0.083717 1.058601 0.706843
v 0.076888 1.063636 0.703659
v 0.068832 1.065404 0.699902
v 0.060777 1.063636 0.696146
v 0.053948 1.058601 0.692961
v 0.049385 1.051066 0.690834
v 0.089717 1.050390 0.705888
v 0.086373 1.057351 0.701147
v 0.080358 1.062003 0.696216
v 0.072589 1.063636 0.691847
v 0.064247 1.062003 0.688704
v 0.056604 1.057351 0.687265
v 0.050822 1.050390 0.687751
v 0.090936 1.048463 0.703275
v 0.088625 1.053791 0.696318
v 0.083300 1.057351 0.689907
v 0.075773 1.058601 0.685018
v 0.067189 1.057351 0.682394
v 0.058856 1.053791 0.682437
v 0.052041 1.048463 0.685138
v 0.047783 1.042178 0.690087
v 0.091750 1.045579 0.701529
v 0.090129 1.048463 0.693092
v 0.085266 1.050390 0.685691
v 0.077901 1.051066 0.680455
v 0.069155 1.050390 0.678179
v 0.060360 1.048463 0.679210
v 0.052855 1.045579 0.683391
v 0.092036 1.042178 0.700915
v 0.090658 1.042178 0.691958
v 0.085956 1.042178 0.684211
v 0.078648 1.042178 0.678852
v 0.069846 1.042178 0.676698
v 0.060889 1.042178 0.678077
v 0.053141 1.042178 0.682778
v 0.091750 1.038777 0.701529
v 0.090129 1.035893 0.693092
v 0.085266 1.033966 0.685691
v 0.077901 1.033290 0.680455
v 0.069155 1.033966 0.678179
v 0.060360 1.035893 0.679210
v 0.052855 1.038777 0.683391
v 0.089882 1.042178 0.709718
v 0.090936 1.035893 0.703275
v 0.088625 1.030565 0.696318
v 0.083300 1.027005 0.689907
v 0.075773 1.025755 0.685018
v 0.067189 1.027005 0.682394
v 0.058856 1.030565 0.682437
v 0.052041 1.035893 0.685138
v 0.089717 1.033966 0.705888
v 0.086373 1.027005 0.701147
v 0.080358 1.022353 0.696216
v 0.072589 1.020720 0.691847
v 0.064247 1.022353 0.688704
v 0.056604 1.027005 0.687265
v 0.050822 1.033966 0.687751
v 0.088280 1.033290 0.708971
v 0.083717 1.025755 0.706843
v 0.076888 1.020720 0.703659
v 0.068832 1.018952 0.699902
v 0.060777 1.020720 0.696146
v 0.053948 1.025755 0.692962
v 0.049385 1.033290 0.690834
v 0.086843 1.033966 0.712053
v 0.081061 1.027005 0.712539
v 0.073417 1.022353 0.711101
v 0.065076 1.020720 0.707958
v 0.057307 1.022353 0.703588
v 0.051292 1.027005 0.698658
v 0.047947 1.033966 0.693916
v 0.085624 1.035893 0.714667
v 0.078809 1.030565 0.717368
v 0.070475 1.027005 0.717410
v 0.061892 1.025755 0.714787
v 0.054365 1.027005 0.709897
v 0.049040 1.030565 0.703486
v 0.046729 1.035893 0.696530
v 0.084810 1.038777 0.716413
v 0.077305 1.035893 0.720595
v 0.068510 1.033966 0.721626
v 0.059764 1.033290 0.719350
v 0.052399 1.033966 0.714113
v 0.047535 1.035893 0.706713
v 0.045914 1.038777 0.698276
v 0.084524 1.042178 0.717026
v 0.076776 1.042178 0.721728
v 0.067819 1.042178 0.723106
v 0.059017 1.042178 0.720952
v 0.051708 1.042178 0.715594
v 0.047007 1.042178 0.707846
v 0.045629 1.042178 0.698889
v 0.084810 1.045579 0.716413
v 0.077305 1.048463 0.720595
v 0.068510 1.050390 0.721626
v 0.059764 1.051066 0.719350
v 0.052399 1.050390 0.714113
v 0.047535 1.048463 0.706713
v 0.045914 1.045579 0.698276
v 0.085624 1.048463 0.714667
v 0.078809 1.053791 0.717368
v 0.070475 1.057351 0.717410
v 0.061892 1.058601 0.714787
v 0.054365 1.057351 0.709897
v 0.049040 1.053791 0.703486
v 0.046729 1.048463 0.696530
v 0.086843 1.050390 0.712053
v 0.081061 1.057351 0.712539
v 0.073417 1.062003 0.711101
v 0.065076 1.063636 0.707958
v 0.057307 1.062003 0.703588
v 0.051292 1.057351 0.698658
v 0.047947 1.050390 0.693916
vn 0.3393 0.9273 0.1582
vn 0.6300 0.7188 0.2938
vn 0.7463 0.6641 0.0445
vn 0.4892 0.8567 -0.1634
vn 0.8294 0.4031 0.3867
vn 0.9063 0.0000 0.4226
vn 0.8946 0.3724 0.2470
vn -0.9063 0.0000 -0.4226
vn -0.8294 0.4031 -0.3868
vn -0.7642 0.3724 -0.5266
vn -0.6300 0.7188 -0.2938
vn -0.3393 0.9273 -0.1582
vn -0.1893 0.8567 -0.4798
vn -0.5137 0.6641 -0.5431
vn 0.0000 1.0000 0.0000
vn 0.1617 0.9239 -0.3468
vn -0.0622 0.6557 -0.7525
vn -0.4152 0.5083 -0.7544
vn 0.6164 0.6557 -0.4360
vn 0.2988 0.7071 -0.6409
vn 0.9499 0.2850 0.1284
vn 0.8448 0.5083 -0.1669
vn -0.7089 0.2850 -0.6451
vn -0.3493 0.2751 -0.8957
vn -0.6720 0.1542 -0.7243
vn 0.3904 0.3827 -0.8373
vn 0.0227 0.3548 -0.9346
vn 0.9107 0.2751 -0.3081
vn 0.7013 0.3548 -0.6182
vn 0.9868 0.1542 0.0492
vn 0.4226 0.0000 -0.9063
vn 0.0526 0.0000 -0.9986
vn 0.9338 0.0000 -0.3577
vn 0.7312 0.0000 -0.6822
vn 0.9998 0.0000 0.0214
vn -0.6590 0.0000 -0.7521
vn -0.3262 0.0000 -0.9453
vn -0.6720 -0.1542 -0.7243
vn 0.0227 -0.3548 -0.9346
vn -0.3493 -0.2751 -0.8957
vn 0.7013 -0.3548 -0.6182
vn 0.3904 -0.3827 -0.8373
vn 0.9868 -0.1542 0.0492
vn 0.9107 -0.2751 -0.3081
vn 0.6164 -0.6557 -0.4360
vn 0.2988 -0.7071 -0.6408
vn 0.9499 -0.2850 0.1284
vn 0.8448 -0.5083 -0.1669
vn -0.4152 -0.5083 -0.7544
vn -0.7089 -0.2850 -0.6451
vn -0.0622 -0.6557 -0.7525
vn -0.5137 -0.6641 -0.5431
vn -0.7642 -0.3724 -0.5266
vn 0.1617 -0.9239 -0.3468
vn -0.1893 -0.8567 -0.4798
vn 0.7463 -0.6641 0.0445
vn 0.4892 -0.8567 -0.1634
vn 0.8946 -0.3724 0.2470
vn 0.6300 -0.7188 0.2938
vn 0.3393 -0.9273 0.1582
vn 0.8294 -0.4031 0.3868
vn -0.8294 -0.4031 -0.3868
vn -0.3393 -0.9273 -0.1582
vn -0.6300 -0.7188 -0.2938
vn 0.0000 -1.0000 0.0000
vn -0.8946 -0.3724 -0.2470
vn -0.4892 -0.8567 0.1634
vn -0.7463 -0.6641 -0.0444
vn 0.1893 -0.8567 0.4798
vn -0.1617 -0.9239 0.3468
vn 0.7642 -0.3724 0.5266
vn 0.5137 -0.6641 0.5431
vn 0.7089 -0.2850 0.6451
vn 0.4152 -0.5083 0.7544
vn -0.8448 -0.5083 0.1669
vn -0.9499 -0.2850 -0.1284
vn -0.2988 -0.7071 0.6409
vn -0.6164 -0.6557 0.4360
vn 0.0622 -0.6557 0.7525
vn -0.9107 -0.2751 0.3081
vn -0.9868 -0.1542 -0.0492
vn -0.3904 -0.3827 0.8373
vn -0.7013 -0.3548 0.6182
vn 0.3493 -0.2751 0.8957
vn -0.0227 -0.3548 0.9346
vn 0.6720 -0.1542 0.7243
vn 0.6590 0.0000 0.7521
vn -0.9998 0.0000 -0.0214
vn -0.7312 0.0000 0.6822
vn -0.9338 0.0000 0.3577
vn -0.0526 0.0000 0.9986
vn -0.4226 0.0000 0.9063
vn 0.3262 0.0000 0.9453
vn -0.7013 0.3548 0.6182
vn -0.9107 0.2751 0.3081
vn -0.0227 0.3548 0.9346
vn -0.3904 0.3827 0.8373
vn 0.6720 0.1542 0.7243
vn 0.3493 0.2751 0.8957
vn -0.9868 0.1542 -0.0492
vn -0.8448 0.5083 0.1669
vn -0.9499 0.2850 -0.1284
vn -0.2988 0.7071 0.6409
vn -0.6164 0.6557 0.4360
vn 0.4152 0.5083 0.7544
vn 0.0622 0.6557 0.7525
vn 0.7089 0.2850 0.6451
vn -0.1617 0.9239 0.3468
vn -0.4892 0.8567 0.1634
vn 0.5137 0.6641 0.5431
vn 0.1893 0.8567 0.4798
vn 0.7642 0.3724 0.5266
vn -0.8946 0.3724 -0.2470
vn -0.7463 0.6641 -0.0445
usemtl eyes
s 1
f 3//1 2//2 9//3 10//4
f 1//5 44//6 8//7
f 22//8 7//9 14//10
f 6//11 5//12 12//13 13//14
f 4//15 3//1 10//4 11//16
f 2//2 1//5 8//7 9//3
f 7//9 6//11 13//14 14//10
f 5//12 4//15 11//16 12//13
f 13//14 12//13 19//17 20//18
f 11//16 10//4 17//19 18//20
f 9//3 8//7 15//21 16//22
f 14//10 13//14 20//18 21//23
f 12//13 11//16 18//20 19//17
f 10//4 9//3 16//22 17//19
f 8//7 44//6 15//21
f 22//8 14//10 21//23
f 21//23 20//18 28//24 29//25
f 19//17 18//20 26//26 27//27
f 17//19 16//22 24//28 25//29
f 15//21 44//6 23//30
f 22//8 21//23 29//25
f 20//18 19//17 27//27 28//24
f 18//20 17//19 25//29 26//26
f 16//22 15//21 23//30 24//28
f 27//27 26//26 33//31 34//32
f 25//29 24//28 31//33 32//34
f 23//30 44//6 30//35
f 22//8 29//25 36//36
f 28//24 27//27 34//32 35//37
f 26//26 25//29 32//34 33//31
f 24//28 23//30 30//35 31//33
f 29//25 28//24 35//37 36//36
f 22//8 36//36 43//38
f 35//37 34//32 41//39 42//40
f 33//31 32//34 39//41 40//42
f 31//33 30//35 37//43 38//44
f 36//36 35//37 42//40 43//38
f 34//32 33//31 40//42 41//39
f 32//34 31//33 38//44 39//41
f 30//35 44//6 37//43
f 40//42 39//41 47//45 48//46
f 38//44 37//43 45//47 46//48
f 43//38 42//40 50//49 51//50
f 41//39 40//42 48//46 49//51
f 39//41 38//44 46//48 47//45
f 37//43 44//6 45//47
f 22//8 43//38 51//50
f 42//40 41//39 49//51 50//49
f 51//50 50//49 57//52 58//53
f 49//51 48//46 55//54 56//55
f 47//45 46//48 53//56 54//57
f 45//47 44//6 52//58
f 22//8 51//50 58//53
f 50//49 49//51 56//55 57//52
f 48//46 47//45 54//57 55//54
f 46//48 45//47 52//58 53//56
f 54//57 53//56 60//59 61//60
f 52//58 44//6 59//61
f 22//8 58//53 65//62
f 57//52 56//55 63//63 64//64
f 55//54 54//57 61//60 62//65
f 53//56 52//58 59//61 60//59
f 58//53 57//52 64//64 65//62
f 56//55 55//54 62//65 63//63
f 22//8 65//62 72//66
f 64//64 63//63 70//67 71//68
f 62//65 61//60 68//69 69//70
f 60//59 59//61 66//71 67//72
f 65//62 64//64 71//68 72//66
f 63//63 62//65 69//70 70//67
f 61//60 60//59 67//72 68//69
f 59//61 44//6 66//71
f 67//72 66//71 73//73 74//74
f 72//66 71//68 78//75 79//76
f 70//67 69//70 76//77 77//78
f 68//69 67//72 74//74 75//79
f 66//71 44//6 73//73
f 22//8 72//66 79//76
f 71//68 70//67 77//78 78//75
f 69//70 68//69 75//79 76//77
f 79//76 78//75 85//80 86//81
f 77//78 76//77 83//82 84//83
f 75//79 74//74 81//84 82//85
f 73//73 44//6 80//86
f 22//8 79//76 86//81
f 78//75 77//78 84//83 85//80
f 76//77 75//79 82//85 83//82
f 74//74 73//73 80//86 81//84
f 80//86 44//6 87//87
f 22//8 86//81 93//88
f 85//80 84//83 91//89 92//90
f 83//82 82//85 89//91 90//92
f 81//84 80//86 87//87 88//93
f 86//81 85//80 92//90 93//88
f 84//83 83//82 90//92 91//89
f 82//85 81//84 88//93 89//91
f 92//90 91//89 98//94 99//95
f 90//92 89//91 96//96 97//97
f 88//93 87//87 94//98 95//99
f 93//88 92//90 99//95 100//100
f 91//89 90//92 97//97 98//94
f 89//91 88//93 95//99 96//96
f 87//87 44//6 94//98
f 22//8 93//88 100//100
f 100//100 99//95 106//101 107//102
f 98//94 97//97 104//103 105//104
f 96//96 95//99 102//105 103//106
f 94//98 44//6 101//107
f 22//8 100//100 107//102
f 99//95 98//94 105//104 106//101
f 97//97 96//96 103//106 104//103
f 95//99 94//98 101//107 102//105
f 105//104 104//103 111//108 112//109
f 103//106 102//105 109//110 110//111
f 101//107 44//6 108//112
f 22//8 107//102 114//113
f 106//101 105//104 112//109 113//114
f 104//103 103//106 110//111 111//108
f 102//105 101//107 108//112 109//110
f 107//102 106//101 113//114 114//113
f 22//8 114//113 7//9
f 113//114 112//109 5//12 6//11
f 111//108 110//111 3//1 4//15
f 109//110 108//112 1//5 2//2
f 114//113 113//114 6//11 7//9
f 112//109 111//108 4//15 5//12
f 110//111 109//110 2//2 3//1
f 108//112 44//6 1//5
