# Blender v2.79 (sub 0) OBJ File: 'possum_base_mesh_BI.blend'
# www.blender.org
mtllib possum_eye.mtl
o eye
v 0.011243 0.182969 0.185327
v 0.009503 0.182969 0.189802
v 0.009608 0.182969 0.194602
v 0.011541 0.182969 0.198996
v 0.015009 0.182969 0.202316
v 0.019484 0.182969 0.204056
v 0.024284 0.182969 0.203951
v 0.011537 0.181167 0.185122
v 0.010046 0.179640 0.189422
v 0.010317 0.178619 0.194105
v 0.012309 0.178260 0.198459
v 0.015718 0.178619 0.201820
v 0.020027 0.179640 0.203676
v 0.024577 0.181167 0.203746
v 0.012373 0.179640 0.184536
v 0.011591 0.176817 0.188340
v 0.012335 0.174931 0.192692
v 0.014494 0.174269 0.196929
v 0.017737 0.174931 0.200406
v 0.021571 0.176817 0.202594
v 0.025414 0.179640 0.203160
v 0.028678 0.182969 0.202018
v 0.013624 0.178619 0.183660
v 0.013903 0.174931 0.186721
v 0.015356 0.172467 0.190576
v 0.017763 0.171601 0.194639
v 0.020758 0.172467 0.198291
v 0.023884 0.174931 0.200975
v 0.026665 0.178619 0.202284
v 0.015100 0.178260 0.182626
v 0.016630 0.174269 0.184811
v 0.018920 0.171601 0.188081
v 0.021621 0.170665 0.191938
v 0.024321 0.171601 0.195796
v 0.026611 0.174269 0.199065
v 0.028141 0.178260 0.201250
v 0.016576 0.178619 0.181593
v 0.019358 0.174931 0.182901
v 0.022483 0.172467 0.185586
v 0.025478 0.171601 0.189238
v 0.027885 0.172467 0.193300
v 0.029339 0.174931 0.197156
v 0.029617 0.178619 0.200217
v 0.014563 0.182969 0.181859
v 0.017828 0.179640 0.180717
v 0.021670 0.176817 0.181282
v 0.025504 0.174931 0.183471
v 0.028748 0.174269 0.186948
v 0.030906 0.174931 0.191185
v 0.031651 0.176817 0.195537
v 0.030868 0.179640 0.199341
v 0.018664 0.181167 0.180131
v 0.023215 0.179640 0.180201
v 0.027523 0.178619 0.182057
v 0.030933 0.178260 0.185418
v 0.032925 0.178619 0.189771
v 0.033196 0.179640 0.194455
v 0.031705 0.181167 0.198755
v 0.018957 0.182969 0.179925
v 0.023757 0.182969 0.179821
v 0.028232 0.182969 0.181561
v 0.031700 0.182969 0.184881
v 0.033634 0.182969 0.189275
v 0.033738 0.182969 0.194075
v 0.031998 0.182969 0.198550
v 0.018664 0.184771 0.180131
v 0.023215 0.186299 0.180201
v 0.027523 0.187320 0.182057
v 0.030933 0.187678 0.185418
v 0.032925 0.187320 0.189771
v 0.033196 0.186299 0.194455
v 0.031705 0.184771 0.198755
v 0.017828 0.186299 0.180717
v 0.021670 0.189121 0.181282
v 0.025504 0.191008 0.183471
v 0.028748 0.191670 0.186948
v 0.030906 0.191008 0.191185
v 0.031651 0.189121 0.195537
v 0.030868 0.186299 0.199341
v 0.016576 0.187320 0.181593
v 0.019358 0.191008 0.182901
v 0.022483 0.193472 0.185586
v 0.025478 0.194337 0.189238
v 0.027885 0.193472 0.193300
v 0.029339 0.191008 0.197156
v 0.029617 0.187320 0.200217
v 0.015100 0.187678 0.182626
v 0.016630 0.191670 0.184811
v 0.018920 0.194337 0.188081
v 0.021621 0.195274 0.191938
v 0.024321 0.194337 0.195796
v 0.026611 0.191670 0.199065
v 0.028141 0.187678 0.201250
v 0.013624 0.187320 0.183660
v 0.013903 0.191008 0.186721
v 0.015356 0.193472 0.190576
v 0.017763 0.194337 0.194639
v 0.020758 0.193472 0.198291
v 0.023884 0.191008 0.200975
v 0.026665 0.187320 0.202284
v 0.012373 0.186299 0.184536
v 0.011591 0.189121 0.188340
v 0.012335 0.191008 0.192692
v 0.014494 0.191670 0.196929
v 0.017737 0.191008 0.200406
v 0.021571 0.189121 0.202594
v 0.025414 0.186299 0.203160
v 0.011537 0.184771 0.185122
v 0.010046 0.186299 0.189422
v 0.010317 0.187320 0.194105
v 0.012309 0.187678 0.198459
v 0.015718 0.187320 0.201820
v 0.020027 0.186299 0.203676
v 0.024577 0.184771 0.203746
v 0.021912 0.182969 0.204003
v 0.022329 0.180413 0.203711
v 0.023515 0.178245 0.202881
v 0.025291 0.176797 0.201637
v 0.027385 0.176288 0.200171
v 0.029479 0.176797 0.198704
v 0.031255 0.178245 0.197461
v 0.032441 0.180413 0.196631
v 0.032858 0.182969 0.196339
v 0.032441 0.185526 0.196631
v 0.031255 0.187693 0.197461
v 0.029479 0.189142 0.198704
v 0.027385 0.189650 0.200171
v 0.025291 0.189142 0.201637
v 0.023515 0.187693 0.202881
v 0.022329 0.185526 0.203711
vn 0.0218 0.0000 0.9998
vn -0.1901 0.0000 0.9817
vn -0.1453 -0.2751 0.9503
vn 0.0564 -0.2126 0.9755
vn -0.5448 0.0000 0.8385
vn -0.8191 0.0000 0.5736
vn -0.7568 -0.3827 0.5299
vn -0.4870 -0.3548 0.7980
vn -0.9743 0.0000 0.2252
vn -0.9876 0.0000 -0.1571
vn -0.9427 -0.2751 -0.1885
vn -0.9165 -0.3548 0.1847
vn -0.8551 0.0000 -0.5184
vn -0.5736 0.0000 -0.8191
vn -0.8300 -0.1542 -0.5360
vn -0.7584 -0.2850 -0.5862
vn -0.3224 -0.6557 0.6827
vn -0.0176 -0.5083 0.8610
vn -0.7518 -0.6557 0.0694
vn -0.5792 -0.7071 0.4056
vn -0.8151 -0.5083 -0.2779
vn 0.1551 -0.3928 0.9064
vn -0.0759 -0.8567 0.5102
vn 0.1734 -0.6641 0.7272
vn -0.5054 -0.8567 -0.1031
vn -0.3135 -0.9239 0.2195
vn -0.6513 -0.3724 -0.6612
vn -0.6240 -0.6641 -0.4116
vn 0.3027 -0.5133 0.8030
vn 0.3987 -0.7188 0.5694
vn 0.4769 -0.5556 0.6811
vn 0.0000 -1.0000 0.0000
vn 0.2147 -0.9273 0.3066
vn -0.3987 -0.7188 -0.5694
vn -0.2147 -0.9273 -0.3066
vn -0.5249 -0.4031 -0.7496
vn 0.3135 -0.9239 -0.2195
vn 0.5054 -0.8567 0.1031
vn -0.1734 -0.6641 -0.7272
vn 0.0759 -0.8567 -0.5102
vn -0.3985 -0.3724 -0.8381
vn 0.6240 -0.6641 0.4116
vn 0.6511 -0.5133 0.5591
vn 0.7518 -0.6557 -0.0694
vn 0.8151 -0.5083 0.2779
vn 0.3224 -0.6557 -0.6827
vn 0.5792 -0.7071 -0.4056
vn -0.2914 -0.2850 -0.9131
vn 0.0176 -0.5083 -0.8610
vn 0.7987 -0.3928 0.4558
vn 0.4870 -0.3548 -0.7980
vn 0.7568 -0.3827 -0.5299
vn -0.2199 -0.1542 -0.9633
vn 0.1453 -0.2751 -0.9503
vn 0.9427 -0.2751 0.1885
vn 0.8973 -0.2126 0.3867
vn 0.9165 -0.3548 -0.1847
vn 0.9876 0.0000 0.1571
vn 0.9320 0.0000 0.3624
vn 0.8191 0.0000 -0.5736
vn 0.9743 0.0000 -0.2252
vn 0.1901 0.0000 -0.9817
vn 0.5448 0.0000 -0.8385
vn -0.1947 0.0000 -0.9808
vn 0.1453 0.2751 -0.9503
vn 0.4870 0.3548 -0.7980
vn -0.2198 0.1542 -0.9633
vn 0.9165 0.3548 -0.1847
vn 0.9427 0.2751 0.1885
vn 0.7568 0.3827 -0.5299
vn 0.8973 0.2126 0.3867
vn 0.7518 0.6557 -0.0694
vn 0.8151 0.5083 0.2779
vn 0.3224 0.6557 -0.6827
vn 0.5792 0.7071 -0.4056
vn -0.2914 0.2850 -0.9131
vn 0.0176 0.5083 -0.8610
vn 0.7987 0.3928 0.4558
vn -0.3985 0.3724 -0.8381
vn -0.1734 0.6641 -0.7272
vn 0.6240 0.6641 0.4116
vn 0.6511 0.5133 0.5591
vn 0.3135 0.9239 -0.2195
vn 0.5054 0.8567 0.1031
vn 0.0759 0.8567 -0.5102
vn 0.3987 0.7188 0.5694
vn 0.4769 0.5556 0.6811
vn 0.0000 1.0000 0.0000
vn 0.2147 0.9273 0.3066
vn -0.3987 0.7188 -0.5694
vn -0.2147 0.9273 -0.3066
vn -0.5249 0.4031 -0.7496
vn -0.6513 0.3724 -0.6612
vn -0.0759 0.8567 0.5102
vn 0.1734 0.6641 0.7272
vn -0.5054 0.8567 -0.1031
vn -0.3135 0.9239 0.2195
vn -0.6240 0.6641 -0.4116
vn 0.3027 0.5133 0.8030
vn -0.3224 0.6557 0.6827
vn -0.0176 0.5083 0.8610
vn -0.7518 0.6557 0.0694
vn -0.5792 0.7071 0.4056
vn -0.7584 0.2850 -0.5861
vn -0.8151 0.5083 -0.2779
vn 0.1551 0.3928 0.9064
vn -0.1453 0.2751 0.9503
vn 0.0564 0.2126 0.9755
vn -0.7568 0.3827 0.5299
vn -0.4870 0.3548 0.7980
vn -0.9427 0.2751 -0.1885
vn -0.9165 0.3548 0.1847
vn -0.8300 0.1542 -0.5360
vn 0.5736 0.0000 0.8191
vn 0.1947 0.0000 0.9808
vn 0.2198 -0.1542 0.9633
vn 0.2914 -0.2850 0.9131
vn 0.3985 -0.3724 0.8381
vn 0.5249 -0.4031 0.7496
vn 0.6513 -0.3724 0.6612
vn 0.7584 -0.2850 0.5862
vn 0.8300 -0.1542 0.5360
vn 0.8551 0.0000 0.5184
vn 0.8300 0.1542 0.5360
vn 0.7584 0.2850 0.5862
vn 0.6513 0.3724 0.6612
vn 0.5249 0.4031 0.7496
vn 0.3985 0.3724 0.8381
vn 0.2914 0.2850 0.9131
vn 0.2199 0.1542 0.9633
usemtl eyes_iris
s 1
f 115//1 6//2 13//3 116//4
f 5//5 4//6 11//7 12//8
f 3//9 2//10 9//11 10//12
f 1//13 44//14 8//15
f 6//2 5//5 12//8 13//3
f 4//6 3//9 10//12 11//7
f 2//10 1//13 8//15 9//11
f 8//15 44//14 15//16
f 13//3 12//8 19//17 20//18
f 11//7 10//12 17//19 18//20
f 9//11 8//15 15//16 16//21
f 116//4 13//3 20//18 117//22
f 12//8 11//7 18//20 19//17
f 10//12 9//11 16//21 17//19
f 20//18 19//17 27//23 28//24
f 18//20 17//19 25//25 26//26
f 16//21 15//16 23//27 24//28
f 117//22 20//18 28//24 118//29
f 19//17 18//20 26//26 27//23
f 17//19 16//21 24//28 25//25
f 15//16 44//14 23//27
f 118//29 28//24 35//30 119//31
f 27//23 26//26 33//32 34//33
f 25//25 24//28 31//34 32//35
f 23//27 44//14 30//36
f 28//24 27//23 34//33 35//30
f 26//26 25//25 32//35 33//32
f 24//28 23//27 30//36 31//34
f 34//33 33//32 40//37 41//38
f 32//35 31//34 38//39 39//40
f 30//36 44//14 37//41
f 35//30 34//33 41//38 42//42
f 33//32 32//35 39//40 40//37
f 31//34 30//36 37//41 38//39
f 119//31 35//30 42//42 120//43
f 42//42 41//38 49//44 50//45
f 40//37 39//40 47//46 48//47
f 38//39 37//41 45//48 46//49
f 120//43 42//42 50//45 121//50
f 41//38 40//37 48//47 49//44
f 39//40 38//39 46//49 47//46
f 37//41 44//14 45//48
f 48//47 47//46 54//51 55//52
f 46//49 45//48 52//53 53//54
f 121//50 50//45 57//55 122//56
f 49//44 48//47 55//52 56//57
f 47//46 46//49 53//54 54//51
f 45//48 44//14 52//53
f 50//45 49//44 56//57 57//55
f 122//56 57//55 64//58 123//59
f 56//57 55//52 62//60 63//61
f 54//51 53//54 60//62 61//63
f 52//53 44//14 59//64
f 57//55 56//57 63//61 64//58
f 55//52 54//51 61//63 62//60
f 53//54 52//53 59//64 60//62
f 61//63 60//62 67//65 68//66
f 59//64 44//14 66//67
f 64//58 63//61 70//68 71//69
f 62//60 61//63 68//66 69//70
f 60//62 59//64 66//67 67//65
f 123//59 64//58 71//69 124//71
f 63//61 62//60 69//70 70//68
f 71//69 70//68 77//72 78//73
f 69//70 68//66 75//74 76//75
f 67//65 66//67 73//76 74//77
f 124//71 71//69 78//73 125//78
f 70//68 69//70 76//75 77//72
f 68//66 67//65 74//77 75//74
f 66//67 44//14 73//76
f 74//77 73//76 80//79 81//80
f 125//78 78//73 85//81 126//82
f 77//72 76//75 83//83 84//84
f 75//74 74//77 81//80 82//85
f 73//76 44//14 80//79
f 78//73 77//72 84//84 85//81
f 76//75 75//74 82//85 83//83
f 126//82 85//81 92//86 127//87
f 84//84 83//83 90//88 91//89
f 82//85 81//80 88//90 89//91
f 80//79 44//14 87//92
f 85//81 84//84 91//89 92//86
f 83//83 82//85 89//91 90//88
f 81//80 80//79 87//92 88//90
f 87//92 44//14 94//93
f 92//86 91//89 98//94 99//95
f 90//88 89//91 96//96 97//97
f 88//90 87//92 94//93 95//98
f 127//87 92//86 99//95 128//99
f 91//89 90//88 97//97 98//94
f 89//91 88//90 95//98 96//96
f 99//95 98//94 105//100 106//101
f 97//97 96//96 103//102 104//103
f 95//98 94//93 101//104 102//105
f 128//99 99//95 106//101 129//106
f 98//94 97//97 104//103 105//100
f 96//96 95//98 102//105 103//102
f 94//93 44//14 101//104
f 129//106 106//101 113//107 130//108
f 105//100 104//103 111//109 112//110
f 103//102 102//105 109//111 110//112
f 101//104 44//14 108//113
f 106//101 105//100 112//110 113//107
f 104//103 103//102 110//112 111//109
f 102//105 101//104 108//113 109//111
f 112//110 111//109 4//6 5//5
f 110//112 109//111 2//10 3//9
f 108//113 44//14 1//13
f 113//107 112//110 5//5 6//2
f 111//109 110//112 3//9 4//6
f 109//111 108//113 1//13 2//10
f 130//108 113//107 6//2 115//1
usemtl eyes_pupil
f 22//114 7//115 14//116
f 22//114 14//116 21//117
f 22//114 21//117 29//118
f 22//114 29//118 36//119
f 22//114 36//119 43//120
f 22//114 43//120 51//121
f 22//114 51//121 58//122
f 22//114 58//122 65//123
f 22//114 65//123 72//124
f 22//114 72//124 79//125
f 22//114 79//125 86//126
f 22//114 86//126 93//127
f 22//114 93//127 100//128
f 22//114 100//128 107//129
f 22//114 107//129 114//130
f 22//114 114//130 7//115
f 114//130 130//108 115//1 7//115
f 107//129 129//106 130//108 114//130
f 100//128 128//99 129//106 107//129
f 93//127 127//87 128//99 100//128
f 86//126 126//82 127//87 93//127
f 79//125 125//78 126//82 86//126
f 72//124 124//71 125//78 79//125
f 65//123 123//59 124//71 72//124
f 58//122 122//56 123//59 65//123
f 51//121 121//50 122//56 58//122
f 43//120 120//43 121//50 51//121
f 36//119 119//31 120//43 43//120
f 29//118 118//29 119//31 36//119
f 21//117 117//22 118//29 29//118
f 14//116 116//4 117//22 21//117
f 7//115 115//1 116//4 14//116
