# Blender v2.79 (sub 0) OBJ File: 'quail_base_mesh_BI.blend'
# www.blender.org
mtllib quail_feather_flight_secondary_002.mtl
o feather_flight_secondary_002
v 0.044963 0.103711 0.022873
v 0.042688 0.103711 0.022873
v 0.045378 0.078548 0.022894
v 0.042273 0.078548 0.022894
v 0.043826 0.104996 0.023106
v 0.043826 0.075733 0.023131
v 0.045581 0.099450 0.022876
v 0.046101 0.093903 0.022881
v 0.046433 0.088356 0.022886
v 0.046341 0.082809 0.022890
v 0.041310 0.082809 0.022890
v 0.041218 0.088356 0.022886
v 0.041550 0.093903 0.022881
v 0.042070 0.099450 0.022876
v 0.043826 0.099449 0.023111
v 0.043826 0.093903 0.023115
v 0.043826 0.088356 0.023120
v 0.043826 0.082809 0.023125
vn 0.0000 0.0047 -1.0000
vn -0.1051 0.0043 -0.9944
vn -0.1216 0.0095 -0.9925
vn 0.0000 0.0096 -0.9999
vn 0.1051 0.0043 -0.9944
vn 0.1216 0.0095 -0.9925
vn 0.0000 -0.0114 -0.9999
vn -0.1644 -0.0112 -0.9863
vn -0.1382 -0.0085 -0.9904
vn 0.0000 -0.0088 -0.9999
vn -0.1050 -0.0049 -0.9944
vn 0.0000 -0.0050 -1.0000
vn -0.0933 -0.0019 -0.9956
vn 0.0000 -0.0019 -1.0000
vn 0.1644 -0.0112 -0.9863
vn 0.1382 -0.0085 -0.9904
vn 0.1050 -0.0049 -0.9944
vn 0.0933 -0.0019 -0.9956
usemtl feather_005
s 1
f 18//1 10//2 3//3 6//4
f 11//5 18//1 6//4 4//6
f 5//7 1//8 7//9 15//10
f 15//10 7//9 8//11 16//12
f 16//12 8//11 9//13 17//14
f 17//14 9//13 10//2 18//1
f 2//15 5//7 15//10 14//16
f 14//16 15//10 16//12 13//17
f 13//17 16//12 17//14 12//18
f 12//18 17//14 18//1 11//5
