# Blender v2.79 (sub 0) OBJ File: 'quail_base_mesh_BI.blend'
# www.blender.org
mtllib quail_feather_flight_primary_011.mtl
o feather_flight_primary_011
v 0.091608 0.103054 0.022577
v 0.088513 0.102892 0.022577
v 0.094468 0.060674 0.022467
v 0.090099 0.060445 0.022467
v 0.089955 0.104997 0.022811
v 0.092368 0.058943 0.022819
v 0.092801 0.096392 0.022578
v 0.093966 0.087700 0.022579
v 0.094875 0.078994 0.022581
v 0.095207 0.070258 0.022583
v 0.088363 0.069900 0.022583
v 0.087779 0.078622 0.022581
v 0.087774 0.087376 0.022579
v 0.088024 0.096142 0.022578
v 0.090412 0.096267 0.022812
v 0.090870 0.087538 0.022814
v 0.091327 0.078808 0.022815
v 0.091785 0.070079 0.022817
vn -0.0003 0.0061 -1.0000
vn -0.0864 0.0013 -0.9962
vn -0.1077 0.0062 -0.9941
vn -0.0006 0.0119 -0.9999
vn 0.0858 0.0103 -0.9962
vn 0.1064 0.0175 -0.9941
vn 0.0003 -0.0068 -1.0000
vn -0.1209 -0.0131 -0.9926
vn -0.1016 -0.0104 -0.9948
vn 0.0002 -0.0052 -1.0000
vn -0.0771 -0.0068 -0.9970
vn 0.0001 -0.0028 -1.0000
vn -0.0685 -0.0044 -0.9976
vn 0.0000 -0.0008 -1.0000
vn 0.1216 -0.0004 -0.9926
vn 0.1022 0.0002 -0.9948
vn 0.0774 0.0013 -0.9970
vn 0.0686 0.0027 -0.9976
usemtl feather_006
s 1
f 18//1 10//2 3//3 6//4
f 11//5 18//1 6//4 4//6
f 5//7 1//8 7//9 15//10
f 15//10 7//9 8//11 16//12
f 16//12 8//11 9//13 17//14
f 17//14 9//13 10//2 18//1
f 2//15 5//7 15//10 14//16
f 14//16 15//10 16//12 13//17
f 13//17 16//12 17//14 12//18
f 12//18 17//14 18//1 11//5
