# Blender v2.79 (sub 0) OBJ File: 'quail_base_mesh_BI.blend'
# www.blender.org
mtllib quail_feather_flight_primary_015.mtl
o feather_flight_primary_015
v 0.109836 0.103079 0.022577
v 0.106423 0.101766 0.022577
v 0.130673 0.048410 0.022588
v 0.123925 0.053154 0.022586
v 0.107143 0.104997 0.022811
v 0.129592 0.046422 0.022822
v 0.114033 0.094907 0.022579
v 0.119068 0.084104 0.022581
v 0.123821 0.073193 0.022583
v 0.127938 0.062037 0.022585
v 0.120390 0.059134 0.022585
v 0.115996 0.070183 0.022583
v 0.112239 0.081478 0.022581
v 0.108764 0.092881 0.022579
v 0.111398 0.093894 0.022813
v 0.115653 0.082791 0.022815
v 0.119909 0.071688 0.022817
v 0.124164 0.060585 0.022820
vn -0.0034 0.0015 -1.0000
vn -0.0655 -0.0218 -0.9976
vn -0.0796 -0.0236 -0.9965
vn -0.0392 -0.0089 -0.9992
vn 0.0591 0.0246 -0.9979
vn 0.0660 0.0291 -0.9974
vn 0.0017 -0.0048 -1.0000
vn -0.0945 -0.0416 -0.9946
vn -0.0796 -0.0346 -0.9962
vn 0.0014 -0.0036 -1.0000
vn -0.0605 -0.0255 -0.9978
vn 0.0008 -0.0020 -1.0000
vn -0.0541 -0.0214 -0.9983
vn 0.0002 -0.0006 -1.0000
vn 0.0981 0.0322 -0.9946
vn 0.0824 0.0275 -0.9962
vn 0.0620 0.0215 -0.9978
vn 0.0546 0.0202 -0.9983
usemtl feather_006
s 1
f 18//1 10//2 3//3 6//4
f 11//5 18//1 6//4 4//6
f 5//7 1//8 7//9 15//10
f 15//10 7//9 8//11 16//12
f 16//12 8//11 9//13 17//14
f 17//14 9//13 10//2 18//1
f 2//15 5//7 15//10 14//16
f 14//16 15//10 16//12 13//17
f 13//17 16//12 17//14 12//18
f 12//18 17//14 18//1 11//5
