# Blender v2.79 (sub 0) OBJ File: 'quail_base_mesh_BI.blend'
# www.blender.org
mtllib quail_feather_flight_tertiary_006.mtl
o feather_flight_tertiary_006
v 0.050529 0.104505 0.023168
v 0.049097 0.104505 0.023168
v 0.050790 0.094891 0.023168
v 0.048836 0.094891 0.023168
v 0.049813 0.104997 0.023403
v 0.049813 0.093816 0.023403
v 0.050918 0.102877 0.023168
v 0.051245 0.100758 0.023168
v 0.051454 0.098639 0.023168
v 0.051396 0.096519 0.023168
v 0.048230 0.096519 0.023168
v 0.048172 0.098639 0.023168
v 0.048381 0.100758 0.023168
v 0.048708 0.102877 0.023168
v 0.049813 0.102877 0.023403
v 0.049813 0.100758 0.023403
v 0.049813 0.098639 0.023403
v 0.049813 0.096519 0.023403
vn 0.0000 0.0146 -0.9999
vn -0.1643 0.0127 -0.9863
vn -0.1910 0.0267 -0.9812
vn 0.0000 0.0272 -0.9996
vn 0.1643 0.0127 -0.9863
vn 0.1910 0.0267 -0.9812
vn 0.0000 -0.0275 -0.9996
vn -0.2560 -0.0266 -0.9663
vn -0.2144 -0.0195 -0.9765
vn 0.0000 -0.0208 -0.9998
vn -0.1650 -0.0104 -0.9862
vn 0.0000 -0.0109 -0.9999
vn -0.1473 -0.0026 -0.9891
vn 0.0000 -0.0027 -1.0000
vn 0.2560 -0.0266 -0.9663
vn 0.2144 -0.0195 -0.9765
vn 0.1650 -0.0104 -0.9862
vn 0.1473 -0.0026 -0.9891
usemtl feather_004
s 1
f 18//1 10//2 3//3 6//4
f 11//5 18//1 6//4 4//6
f 5//7 1//8 7//9 15//10
f 15//10 7//9 8//11 16//12
f 16//12 8//11 9//13 17//14
f 17//14 9//13 10//2 18//1
f 2//15 5//7 15//10 14//16
f 14//16 15//10 16//12 13//17
f 13//17 16//12 17//14 12//18
f 12//18 17//14 18//1 11//5
