# Blender v2.79 (sub 0) OBJ File: 'quail_base_mesh_BI.blend'
# www.blender.org
mtllib quail_feather_flight_primary_007.mtl
o feather_flight_primary_007
v 0.069357 0.102737 0.022577
v 0.066761 0.102737 0.022577
v 0.069892 0.055389 0.022464
v 0.066227 0.055389 0.022464
v 0.068059 0.104997 0.022811
v 0.068059 0.053584 0.022816
v 0.070063 0.095251 0.022577
v 0.070656 0.085506 0.022578
v 0.071035 0.075761 0.022579
v 0.070930 0.066016 0.022580
v 0.065188 0.066016 0.022580
v 0.065083 0.075761 0.022579
v 0.065462 0.085506 0.022578
v 0.066055 0.095251 0.022577
v 0.068059 0.095251 0.022812
v 0.068059 0.085506 0.022813
v 0.068059 0.075761 0.022814
v 0.068059 0.066016 0.022815
vn 0.0000 0.0055 -1.0000
vn -0.1030 0.0053 -0.9947
vn -0.1277 0.0107 -0.9917
vn 0.0000 0.0108 -0.9999
vn 0.1030 0.0053 -0.9947
vn 0.1277 0.0107 -0.9917
vn 0.0000 -0.0061 -1.0000
vn -0.1445 -0.0060 -0.9895
vn -0.1219 -0.0045 -0.9925
vn 0.0000 -0.0046 -1.0000
vn -0.0923 -0.0024 -0.9957
vn 0.0000 -0.0025 -1.0000
vn -0.0819 -0.0007 -0.9966
vn 0.0000 -0.0007 -1.0000
vn 0.1445 -0.0060 -0.9895
vn 0.1219 -0.0045 -0.9925
vn 0.0923 -0.0024 -0.9957
vn 0.0819 -0.0007 -0.9966
usemtl feather_006
s 1
f 18//1 10//2 3//3 6//4
f 11//5 18//1 6//4 4//6
f 5//7 1//8 7//9 15//10
f 15//10 7//9 8//11 16//12
f 16//12 8//11 9//13 17//14
f 17//14 9//13 10//2 18//1
f 2//15 5//7 15//10 14//16
f 14//16 15//10 16//12 13//17
f 13//17 16//12 17//14 12//18
f 12//18 17//14 18//1 11//5
