# Blender v2.79 (sub 0) OBJ File: 'quail_base_mesh_BI.blend'
# www.blender.org
mtllib quail_feather_tail_primary_006.mtl
o feather_tail_primary_006
v 0.002452 0.055662 -0.070808
v -0.002452 0.055662 -0.070808
v 0.003294 0.055662 -0.127693
v -0.003294 0.055662 -0.127693
v -0.000000 0.056539 -0.069378
v -0.000000 0.056539 -0.130676
v 0.003555 0.055662 -0.075549
v 0.004380 0.055662 -0.081721
v 0.004993 0.055662 -0.116780
v 0.004565 0.055662 -0.122952
v -0.004565 0.055662 -0.122952
v -0.004993 0.055662 -0.116780
v -0.004380 0.055662 -0.081721
v -0.003555 0.055662 -0.075549
v -0.000000 0.056539 -0.075549
v -0.000000 0.056539 -0.081721
v -0.000000 0.056539 -0.116780
v -0.000000 0.056539 -0.122952
v 0.005025 0.055662 -0.109768
v 0.004965 0.055662 -0.102757
v 0.004866 0.055662 -0.095745
v 0.004729 0.055662 -0.088733
v -0.004729 0.055662 -0.088733
v -0.004866 0.055662 -0.095745
v -0.004965 0.055662 -0.102757
v -0.005025 0.055662 -0.109768
v -0.000000 0.056539 -0.109768
v -0.000000 0.056539 -0.102757
v -0.000000 0.056539 -0.095745
v -0.000000 0.056539 -0.088733
vn 0.0000 0.9999 -0.0150
vn 0.2007 0.9795 -0.0137
vn 0.2260 0.9738 -0.0230
vn 0.0000 0.9997 -0.0237
vn -0.2007 0.9795 -0.0137
vn -0.2260 0.9738 -0.0230
vn 0.0000 0.9995 0.0302
vn 0.2863 0.9577 0.0289
vn 0.2471 0.9687 0.0208
vn 0.0000 0.9997 0.0224
vn 0.2015 0.9794 0.0093
vn 0.0000 0.9999 0.0097
vn 0.0000 1.0000 0.0002
vn 0.1726 0.9850 0.0002
vn 0.1763 0.9843 -0.0032
vn 0.0000 1.0000 -0.0034
vn -0.2863 0.9577 0.0289
vn -0.2471 0.9687 0.0208
vn -0.2015 0.9794 0.0093
vn -0.1726 0.9850 0.0002
vn -0.1763 0.9843 -0.0032
vn 0.1842 0.9828 0.0032
vn 0.0000 1.0000 0.0033
vn 0.1776 0.9841 0.0015
vn 0.0000 1.0000 0.0015
vn 0.1742 0.9847 0.0010
vn 0.0000 1.0000 0.0010
vn -0.1842 0.9828 0.0032
vn -0.1776 0.9841 0.0015
vn -0.1742 0.9847 0.0010
usemtl feather_006
s 1
f 18//1 10//2 3//3 6//4
f 11//5 18//1 6//4 4//6
f 5//7 1//8 7//9 15//10
f 15//10 7//9 8//11 16//12
f 27//13 19//14 9//15 17//16
f 17//16 9//15 10//2 18//1
f 2//17 5//7 15//10 14//18
f 14//18 15//10 16//12 13//19
f 26//20 27//13 17//16 12//21
f 12//21 17//16 18//1 11//5
f 16//12 8//11 22//22 30//23
f 30//23 22//22 21//24 29//25
f 29//25 21//24 20//26 28//27
f 28//27 20//26 19//14 27//13
f 13//19 16//12 30//23 23//28
f 23//28 30//23 29//25 24//29
f 24//29 29//25 28//27 25//30
f 25//30 28//27 27//13 26//20
