# Blender v2.79 (sub 0) OBJ File: 'quail_base_mesh_BI.blend'
# www.blender.org
mtllib quail_feather_flight_primary_005.mtl
o feather_flight_primary_005
v 0.059557 0.102725 0.022577
v 0.057188 0.102725 0.022577
v 0.060045 0.055110 0.022466
v 0.056700 0.055110 0.022466
v 0.058372 0.104997 0.022811
v 0.058372 0.053296 0.022818
v 0.060201 0.095197 0.022578
v 0.060743 0.085397 0.022579
v 0.061088 0.075597 0.022580
v 0.060992 0.065797 0.022582
v 0.055752 0.065797 0.022582
v 0.055656 0.075597 0.022580
v 0.056002 0.085397 0.022579
v 0.056543 0.095197 0.022578
v 0.058372 0.095197 0.022812
v 0.058372 0.085397 0.022813
v 0.058372 0.075597 0.022815
v 0.058372 0.065797 0.022816
vn 0.0000 0.0055 -1.0000
vn -0.1128 0.0052 -0.9936
vn -0.1397 0.0106 -0.9901
vn 0.0000 0.0107 -0.9999
vn 0.1128 0.0052 -0.9936
vn 0.1397 0.0106 -0.9901
vn 0.0000 -0.0061 -1.0000
vn -0.1581 -0.0060 -0.9874
vn -0.1335 -0.0045 -0.9910
vn 0.0000 -0.0046 -1.0000
vn -0.1011 -0.0024 -0.9948
vn 0.0000 -0.0025 -1.0000
vn -0.0896 -0.0007 -0.9960
vn 0.0000 -0.0007 -1.0000
vn 0.1581 -0.0060 -0.9874
vn 0.1335 -0.0045 -0.9910
vn 0.1011 -0.0024 -0.9948
vn 0.0896 -0.0007 -0.9960
usemtl feather_006
s 1
f 18//1 10//2 3//3 6//4
f 11//5 18//1 6//4 4//6
f 5//7 1//8 7//9 15//10
f 15//10 7//9 8//11 16//12
f 16//12 8//11 9//13 17//14
f 17//14 9//13 10//2 18//1
f 2//15 5//7 15//10 14//16
f 14//16 15//10 16//12 13//17
f 13//17 16//12 17//14 12//18
f 12//18 17//14 18//1 11//5
