# Blender v2.79 (sub 0) OBJ File: 'quail_base_mesh_BI.blend'
# www.blender.org
mtllib quail_feather_flight_secondary_018.mtl
o feather_flight_secondary_018
v 0.120016 0.104852 0.022878
v 0.118051 0.103007 0.022865
v 0.135342 0.089241 0.022881
v 0.132660 0.086724 0.022863
v 0.118269 0.104745 0.023106
v 0.135676 0.086199 0.023107
v 0.123085 0.102653 0.022882
v 0.126833 0.099559 0.022885
v 0.130420 0.096313 0.022887
v 0.133639 0.092722 0.022887
v 0.129294 0.088643 0.022858
v 0.125914 0.092083 0.022857
v 0.122902 0.095868 0.022859
v 0.120051 0.099805 0.022862
v 0.121568 0.101229 0.023106
v 0.124868 0.097714 0.023106
v 0.128167 0.094198 0.023107
v 0.131467 0.090683 0.023107
vn -0.0008 0.0079 -0.9999
vn -0.0649 -0.0531 -0.9965
vn -0.0796 -0.0584 -0.9951
vn -0.0046 0.0120 -0.9999
vn 0.0641 0.0680 -0.9956
vn 0.0703 0.0823 -0.9941
vn 0.0118 -0.0055 -0.9999
vn -0.0899 -0.1009 -0.9908
vn -0.0753 -0.0829 -0.9937
vn 0.0098 -0.0034 -0.9999
vn -0.0579 -0.0608 -0.9965
vn 0.0068 -0.0002 -1.0000
vn -0.0532 -0.0515 -0.9973
vn 0.0044 0.0024 -1.0000
vn 0.1133 0.0898 -0.9895
vn 0.0944 0.0764 -0.9926
vn 0.0714 0.0605 -0.9956
vn 0.0618 0.0564 -0.9965
usemtl feather_005
s 1
f 18//1 10//2 3//3 6//4
f 11//5 18//1 6//4 4//6
f 5//7 1//8 7//9 15//10
f 15//10 7//9 8//11 16//12
f 16//12 8//11 9//13 17//14
f 17//14 9//13 10//2 18//1
f 2//15 5//7 15//10 14//16
f 14//16 15//10 16//12 13//17
f 13//17 16//12 17//14 12//18
f 12//18 17//14 18//1 11//5
