# Blender v2.79 (sub 0) OBJ File: 'quail_base_mesh_BI.blend'
# www.blender.org
mtllib quail_feather_flight_tertiary_051.mtl
o feather_flight_tertiary_051
v 0.057681 0.104563 0.022231
v 0.056249 0.104563 0.022231
v 0.057942 0.096077 0.022231
v 0.055988 0.096077 0.022231
v 0.056965 0.104997 0.021996
v 0.056965 0.095127 0.021996
v 0.058070 0.103126 0.022231
v 0.058397 0.101255 0.022231
v 0.058606 0.099385 0.022231
v 0.058548 0.097514 0.022231
v 0.055382 0.097514 0.022231
v 0.055324 0.099385 0.022231
v 0.055533 0.101255 0.022231
v 0.055860 0.103126 0.022231
v 0.056965 0.103126 0.021996
v 0.056965 0.101255 0.021996
v 0.056965 0.099385 0.021996
v 0.056965 0.097514 0.021996
vn 0.0000 -0.0165 -0.9998
vn 0.1639 -0.0141 -0.9864
vn 0.1909 -0.0302 -0.9811
vn 0.0000 -0.0308 -0.9995
vn -0.1639 -0.0141 -0.9864
vn -0.1909 -0.0302 -0.9811
vn 0.0000 0.0311 -0.9995
vn 0.2560 0.0301 -0.9662
vn 0.2138 0.0220 -0.9766
vn 0.0000 0.0236 -0.9997
vn 0.1649 0.0118 -0.9862
vn 0.0000 0.0123 -0.9999
vn 0.1473 0.0029 -0.9891
vn 0.0000 0.0031 -1.0000
vn -0.2560 0.0301 -0.9662
vn -0.2138 0.0220 -0.9766
vn -0.1649 0.0118 -0.9862
vn -0.1473 0.0029 -0.9891
usemtl feather_004
s 1
f 18//1 10//2 3//3 6//4
f 11//5 18//1 6//4 4//6
f 5//7 1//8 7//9 15//10
f 15//10 7//9 8//11 16//12
f 16//12 8//11 9//13 17//14
f 17//14 9//13 10//2 18//1
f 2//15 5//7 15//10 14//16
f 14//16 15//10 16//12 13//17
f 13//17 16//12 17//14 12//18
f 12//18 17//14 18//1 11//5
