# Blender v2.79 (sub 0) OBJ File: 'quail_base_mesh_BI.blend'
# www.blender.org
mtllib quail_feather_flight_tertiary_064.mtl
o feather_flight_tertiary_064
v 0.091409 0.104570 0.022231
v 0.089980 0.104492 0.022231
v 0.092165 0.095471 0.022231
v 0.090215 0.095365 0.022231
v 0.090669 0.104997 0.021996
v 0.091245 0.094399 0.021996
v 0.091882 0.103048 0.022231
v 0.092318 0.101057 0.022231
v 0.092636 0.099059 0.022231
v 0.092687 0.097047 0.022231
v 0.089525 0.096875 0.022231
v 0.089358 0.098881 0.022231
v 0.089458 0.100901 0.022231
v 0.089675 0.102928 0.022231
v 0.090778 0.102988 0.021996
v 0.090888 0.100979 0.021996
v 0.090997 0.098970 0.021996
v 0.091106 0.096961 0.021996
vn 0.0008 -0.0153 -0.9999
vn 0.1646 -0.0043 -0.9863
vn 0.1922 -0.0177 -0.9812
vn 0.0016 -0.0286 -0.9996
vn -0.1632 -0.0222 -0.9863
vn -0.1891 -0.0385 -0.9812
vn -0.0016 0.0289 -0.9996
vn 0.2541 0.0418 -0.9662
vn 0.2127 0.0321 -0.9766
vn -0.0012 0.0219 -0.9998
vn 0.1641 0.0199 -0.9862
vn -0.0006 0.0114 -0.9999
vn 0.1469 0.0107 -0.9891
vn -0.0002 0.0029 -1.0000
vn -0.2571 0.0140 -0.9662
vn -0.2149 0.0089 -0.9766
vn -0.1653 0.0020 -0.9862
vn -0.1472 -0.0052 -0.9891
usemtl feather_004
s 1
f 18//1 10//2 3//3 6//4
f 11//5 18//1 6//4 4//6
f 5//7 1//8 7//9 15//10
f 15//10 7//9 8//11 16//12
f 16//12 8//11 9//13 17//14
f 17//14 9//13 10//2 18//1
f 2//15 5//7 15//10 14//16
f 14//16 15//10 16//12 13//17
f 13//17 16//12 17//14 12//18
f 12//18 17//14 18//1 11//5
