# Blender v2.79 (sub 0) OBJ File: 'quail_base_mesh_BI.blend'
# www.blender.org
mtllib quail_feather_flight_tertiary_004.mtl
o feather_flight_tertiary_004
v 0.045747 0.104490 0.023168
v 0.044316 0.104490 0.023168
v 0.046008 0.094571 0.023168
v 0.044055 0.094571 0.023168
v 0.045031 0.104997 0.023403
v 0.045031 0.093462 0.023403
v 0.046136 0.102810 0.023168
v 0.046463 0.100624 0.023168
v 0.046672 0.098437 0.023168
v 0.046614 0.096251 0.023168
v 0.043448 0.096251 0.023168
v 0.043390 0.098437 0.023168
v 0.043599 0.100624 0.023168
v 0.043926 0.102810 0.023168
v 0.045031 0.102810 0.023403
v 0.045031 0.100624 0.023403
v 0.045031 0.098437 0.023403
v 0.045031 0.096251 0.023403
vn 0.0000 0.0141 -0.9999
vn -0.1644 0.0123 -0.9863
vn -0.1910 0.0259 -0.9812
vn 0.0000 0.0264 -0.9996
vn 0.1644 0.0123 -0.9863
vn 0.1910 0.0259 -0.9812
vn 0.0000 -0.0266 -0.9996
vn -0.2560 -0.0258 -0.9663
vn -0.2145 -0.0190 -0.9765
vn 0.0000 -0.0202 -0.9998
vn -0.1651 -0.0101 -0.9862
vn 0.0000 -0.0105 -0.9999
vn -0.1473 -0.0025 -0.9891
vn 0.0000 -0.0027 -1.0000
vn 0.2560 -0.0258 -0.9663
vn 0.2145 -0.0190 -0.9765
vn 0.1651 -0.0101 -0.9862
vn 0.1473 -0.0025 -0.9891
usemtl feather_004
s 1
f 18//1 10//2 3//3 6//4
f 11//5 18//1 6//4 4//6
f 5//7 1//8 7//9 15//10
f 15//10 7//9 8//11 16//12
f 16//12 8//11 9//13 17//14
f 17//14 9//13 10//2 18//1
f 2//15 5//7 15//10 14//16
f 14//16 15//10 16//12 13//17
f 13//17 16//12 17//14 12//18
f 12//18 17//14 18//1 11//5
