# Blender v2.79 (sub 0) OBJ File: 'quail_base_mesh_BI.blend'
# www.blender.org
mtllib quail_feather_tail_primary_004.mtl
o feather_tail_primary_004
v 0.008362 0.054894 -0.069837
v 0.002759 0.054894 -0.071003
v 0.020785 0.054894 -0.124707
v 0.013260 0.054894 -0.126274
v 0.005272 0.055747 -0.069035
v 0.017629 0.055747 -0.128406
v 0.010576 0.054894 -0.074165
v 0.012763 0.054894 -0.079944
v 0.020527 0.054894 -0.113739
v 0.021281 0.054894 -0.119815
v 0.010853 0.054894 -0.121986
v 0.009120 0.054894 -0.116113
v 0.002756 0.054894 -0.082026
v 0.002456 0.054894 -0.075855
v 0.006516 0.055747 -0.075010
v 0.007759 0.055747 -0.080985
v 0.014824 0.055747 -0.114926
v 0.016067 0.055747 -0.120901
v 0.019150 0.054894 -0.106943
v 0.017669 0.054894 -0.100169
v 0.016143 0.054894 -0.093405
v 0.014573 0.054894 -0.086649
v 0.003771 0.054894 -0.088897
v 0.005027 0.054894 -0.095718
v 0.006327 0.054894 -0.102530
v 0.007671 0.054894 -0.109332
v 0.013411 0.055747 -0.108138
v 0.011998 0.055747 -0.101349
v 0.010585 0.055747 -0.094561
v 0.009172 0.055747 -0.087773
vn 0.0030 0.9999 -0.0144
vn 0.1674 0.9857 0.0211
vn 0.1908 0.9815 0.0164
vn 0.0047 0.9997 -0.0227
vn -0.1619 0.9857 -0.0474
vn -0.1815 0.9815 -0.0611
vn -0.0060 0.9995 0.0291
vn 0.2311 0.9698 0.0775
vn 0.1990 0.9780 0.0624
vn -0.0045 0.9998 0.0216
vn 0.1637 0.9855 0.0434
vn -0.0020 0.9999 0.0094
vn -0.0000 1.0000 0.0002
vn 0.1416 0.9895 0.0296
vn 0.1453 0.9890 0.0270
vn 0.0007 1.0000 -0.0032
vn -0.2428 0.9698 -0.0211
vn -0.2074 0.9780 -0.0221
vn -0.1675 0.9855 -0.0255
vn -0.1417 0.9895 -0.0293
vn -0.1440 0.9890 -0.0332
vn 0.1507 0.9880 0.0346
vn -0.0006 1.0000 0.0031
vn 0.1455 0.9888 0.0318
vn -0.0003 1.0000 0.0015
vn 0.1428 0.9893 0.0307
vn -0.0002 1.0000 0.0009
vn -0.1520 0.9880 -0.0284
vn -0.1461 0.9888 -0.0289
vn -0.1432 0.9893 -0.0288
usemtl feather_006
s 1
f 18//1 10//2 3//3 6//4
f 11//5 18//1 6//4 4//6
f 5//7 1//8 7//9 15//10
f 15//10 7//9 8//11 16//12
f 27//13 19//14 9//15 17//16
f 17//16 9//15 10//2 18//1
f 2//17 5//7 15//10 14//18
f 14//18 15//10 16//12 13//19
f 26//20 27//13 17//16 12//21
f 12//21 17//16 18//1 11//5
f 16//12 8//11 22//22 30//23
f 30//23 22//22 21//24 29//25
f 29//25 21//24 20//26 28//27
f 28//27 20//26 19//14 27//13
f 13//19 16//12 30//23 23//28
f 23//28 30//23 29//25 24//29
f 24//29 29//25 28//27 25//30
f 25//30 28//27 27//13 26//20
