# Blender v2.79 (sub 0) OBJ File: 'quail_base_mesh_BI.blend'
# www.blender.org
mtllib quail_feather_flight_tertiary_052.mtl
o feather_flight_tertiary_052
v 0.060136 0.104580 0.022231
v 0.058704 0.104580 0.022231
v 0.060397 0.096419 0.022231
v 0.058443 0.096419 0.022231
v 0.059420 0.104997 0.021996
v 0.059420 0.095506 0.021996
v 0.060525 0.103198 0.022231
v 0.060852 0.101399 0.022231
v 0.061061 0.099600 0.022231
v 0.061003 0.097801 0.022231
v 0.057837 0.097801 0.022231
v 0.057779 0.099600 0.022231
v 0.057988 0.101399 0.022231
v 0.058315 0.103198 0.022231
v 0.059420 0.103198 0.021996
v 0.059420 0.101399 0.021996
v 0.059420 0.099600 0.021996
v 0.059420 0.097801 0.021996
vn 0.0000 -0.0171 -0.9998
vn 0.1637 -0.0146 -0.9864
vn 0.1909 -0.0315 -0.9811
vn 0.0000 -0.0320 -0.9995
vn -0.1637 -0.0146 -0.9864
vn -0.1909 -0.0315 -0.9811
vn 0.0000 0.0324 -0.9995
vn 0.2560 0.0313 -0.9662
vn 0.2136 0.0228 -0.9767
vn 0.0000 0.0245 -0.9997
vn 0.1648 0.0123 -0.9862
vn 0.0000 0.0128 -0.9999
vn 0.1473 0.0031 -0.9891
vn 0.0000 0.0032 -1.0000
vn -0.2560 0.0313 -0.9662
vn -0.2136 0.0229 -0.9767
vn -0.1648 0.0123 -0.9862
vn -0.1473 0.0031 -0.9891
usemtl feather_004
s 1
f 18//1 10//2 3//3 6//4
f 11//5 18//1 6//4 4//6
f 5//7 1//8 7//9 15//10
f 15//10 7//9 8//11 16//12
f 16//12 8//11 9//13 17//14
f 17//14 9//13 10//2 18//1
f 2//15 5//7 15//10 14//16
f 14//16 15//10 16//12 13//17
f 13//17 16//12 17//14 12//18
f 12//18 17//14 18//1 11//5
