# Blender v2.79 (sub 0) OBJ File: 'quail_base_mesh_BI.blend'
# www.blender.org
mtllib quail_feather_flight_primary_008.mtl
o feather_flight_primary_008
v 0.074965 0.102759 0.022577
v 0.072234 0.102759 0.022577
v 0.075528 0.055856 0.022464
v 0.071672 0.055856 0.022464
v 0.073600 0.104997 0.022811
v 0.073600 0.054069 0.022816
v 0.075708 0.095343 0.022577
v 0.076332 0.085690 0.022578
v 0.076731 0.076037 0.022579
v 0.076620 0.066383 0.022580
v 0.070580 0.066383 0.022580
v 0.070469 0.076037 0.022579
v 0.070868 0.085690 0.022578
v 0.071492 0.095343 0.022577
v 0.073600 0.095343 0.022812
v 0.073600 0.085690 0.022813
v 0.073600 0.076037 0.022814
v 0.073600 0.066383 0.022815
vn 0.0000 0.0056 -1.0000
vn -0.0979 0.0053 -0.9952
vn -0.1215 0.0108 -0.9925
vn 0.0000 0.0109 -0.9999
vn 0.0979 0.0053 -0.9952
vn 0.1215 0.0108 -0.9925
vn 0.0000 -0.0061 -1.0000
vn -0.1375 -0.0061 -0.9904
vn -0.1159 -0.0046 -0.9932
vn 0.0000 -0.0047 -1.0000
vn -0.0878 -0.0024 -0.9961
vn 0.0000 -0.0025 -1.0000
vn -0.0778 -0.0007 -0.9969
vn 0.0000 -0.0007 -1.0000
vn 0.1375 -0.0061 -0.9904
vn 0.1159 -0.0046 -0.9932
vn 0.0878 -0.0024 -0.9961
vn 0.0778 -0.0007 -0.9969
usemtl feather_006
s 1
f 18//1 10//2 3//3 6//4
f 11//5 18//1 6//4 4//6
f 5//7 1//8 7//9 15//10
f 15//10 7//9 8//11 16//12
f 16//12 8//11 9//13 17//14
f 17//14 9//13 10//2 18//1
f 2//15 5//7 15//10 14//16
f 14//16 15//10 16//12 13//17
f 13//17 16//12 17//14 12//18
f 12//18 17//14 18//1 11//5
