# Blender v2.79 (sub 0) OBJ File: 'quail_base_mesh_BI.blend'
# www.blender.org
mtllib quail_feather_flight_secondary_042.mtl
o feather_flight_secondary_042
v 0.131548 0.106050 0.022498
v 0.130941 0.103451 0.022541
v 0.151626 0.101735 0.022336
v 0.150798 0.098188 0.022395
v 0.130226 0.104997 0.022292
v 0.153447 0.099427 0.022113
v 0.135094 0.105945 0.022460
v 0.139634 0.105484 0.022416
v 0.144125 0.104808 0.022376
v 0.148502 0.103646 0.022344
v 0.147159 0.097898 0.022440
v 0.142733 0.098848 0.022475
v 0.138420 0.100284 0.022503
v 0.134157 0.101933 0.022527
v 0.134627 0.103941 0.022258
v 0.139029 0.102885 0.022224
v 0.143431 0.101830 0.022190
v 0.147832 0.100774 0.022156
vn -0.0043 -0.0154 -0.9998
vn 0.0159 0.0719 -0.9973
vn 0.0258 0.0847 -0.9961
vn 0.0013 -0.0173 -0.9998
vn -0.0259 -0.1024 -0.9944
vn -0.0229 -0.1180 -0.9927
vn -0.0235 -0.0104 -0.9997
vn 0.0096 0.1268 -0.9919
vn 0.0074 0.1032 -0.9946
vn -0.0205 -0.0115 -0.9997
vn 0.0051 0.0747 -0.9972
vn -0.0160 -0.0127 -0.9998
vn 0.0064 0.0642 -0.9979
vn -0.0123 -0.0136 -0.9998
vn -0.0562 -0.1479 -0.9874
vn -0.0475 -0.1260 -0.9909
vn -0.0367 -0.1000 -0.9943
vn -0.0308 -0.0913 -0.9953
usemtl feather_005
s 1
f 18//1 10//2 3//3 6//4
f 11//5 18//1 6//4 4//6
f 5//7 1//8 7//9 15//10
f 15//10 7//9 8//11 16//12
f 16//12 8//11 9//13 17//14
f 17//14 9//13 10//2 18//1
f 2//15 5//7 15//10 14//16
f 14//16 15//10 16//12 13//17
f 13//17 16//12 17//14 12//18
f 12//18 17//14 18//1 11//5
