# Blender v2.79 (sub 0) OBJ File: 'quail_base_mesh_BI.blend'
# www.blender.org
mtllib quail_feather_flight_secondary_036.mtl
o feather_flight_secondary_036
v 0.108535 0.104412 0.022525
v 0.106200 0.103522 0.022520
v 0.116662 0.084408 0.022434
v 0.113476 0.083193 0.022427
v 0.106974 0.104997 0.022293
v 0.115931 0.081544 0.022186
v 0.110474 0.101239 0.022511
v 0.112705 0.096997 0.022492
v 0.114744 0.092682 0.022472
v 0.116347 0.088200 0.022452
v 0.111183 0.086231 0.022441
v 0.109391 0.090641 0.022461
v 0.108034 0.095216 0.022482
v 0.106870 0.099865 0.022504
v 0.108672 0.100551 0.022273
v 0.110370 0.096106 0.022252
v 0.112068 0.091660 0.022232
v 0.113765 0.087214 0.022212
vn 0.0025 -0.0014 -1.0000
vn 0.0915 0.0332 -0.9952
vn 0.1081 0.0329 -0.9936
vn 0.0046 -0.0067 -0.9999
vn -0.0869 -0.0349 -0.9956
vn -0.0990 -0.0462 -0.9940
vn -0.0042 0.0161 -0.9998
vn 0.1361 0.0694 -0.9883
vn 0.1143 0.0577 -0.9918
vn -0.0031 0.0133 -0.9999
vn 0.0879 0.0432 -0.9952
vn -0.0015 0.0092 -0.9999
vn 0.0793 0.0361 -0.9962
vn -0.0002 0.0058 -1.0000
vn -0.1443 -0.0376 -0.9888
vn -0.1202 -0.0318 -0.9922
vn -0.0908 -0.0251 -0.9955
vn -0.0796 -0.0246 -0.9965
usemtl feather_005
s 1
f 18//1 10//2 3//3 6//4
f 11//5 18//1 6//4 4//6
f 5//7 1//8 7//9 15//10
f 15//10 7//9 8//11 16//12
f 16//12 8//11 9//13 17//14
f 17//14 9//13 10//2 18//1
f 2//15 5//7 15//10 14//16
f 14//16 15//10 16//12 13//17
f 13//17 16//12 17//14 12//18
f 12//18 17//14 18//1 11//5
