# Blender v2.79 (sub 0) OBJ File: 'quail_base_mesh_BI.blend'
# www.blender.org
mtllib quail_feather_tail_secondary_007.mtl
o feather_tail_secondary_007
v 0.003891 0.055598 -0.071729
v 0.007178 0.055598 -0.069225
v 0.004711 0.054933 -0.069396
v 0.005881 0.055598 -0.075872
v 0.008879 0.055598 -0.080955
v 0.014749 0.055598 -0.076483
v 0.010644 0.055598 -0.072243
v 0.008263 0.054933 -0.074058
v 0.011814 0.054933 -0.078719
v 0.020035 0.055598 -0.095482
v 0.016624 0.055598 -0.091794
v 0.012680 0.055598 -0.086429
v 0.019018 0.055598 -0.081600
v 0.023144 0.055598 -0.086826
v 0.025794 0.055598 -0.091094
v 0.023919 0.054933 -0.094606
v 0.019884 0.054933 -0.089310
v 0.015849 0.054933 -0.084015
vn -0.0146 -0.9997 0.0192
vn -0.2209 -0.9653 -0.1390
vn -0.1887 -0.9743 -0.1226
vn -0.0108 -0.9998 0.0143
vn -0.1495 -0.9832 -0.1046
vn -0.0047 -1.0000 0.0062
vn 0.1927 -0.9653 0.1761
vn 0.1682 -0.9743 0.1494
vn 0.1405 -0.9832 0.1164
vn -0.1340 -0.9860 -0.0988
vn -0.0016 -1.0000 0.0021
vn -0.1310 -0.9860 -0.1032
vn 0.0017 -1.0000 -0.0023
vn -0.1320 -0.9852 -0.1094
vn 0.0043 -1.0000 -0.0056
vn 0.1309 -0.9860 0.1029
vn 0.1342 -0.9860 0.0989
vn 0.1405 -0.9852 0.0982
usemtl feather_001.001
s 1
f 3//1 1//2 4//3 8//4
f 8//4 4//3 5//5 9//6
f 2//7 3//1 8//4 7//8
f 7//8 8//4 9//6 6//9
f 9//6 5//5 12//10 18//11
f 18//11 12//10 11//12 17//13
f 17//13 11//12 10//14 16//15
f 6//9 9//6 18//11 13//16
f 13//16 18//11 17//13 14//17
f 14//17 17//13 16//15 15//18
