# Blender v2.79 (sub 0) OBJ File: 'quail_base_mesh_BI.blend'
# www.blender.org
mtllib quail_feather_flight_primary_013.mtl
o feather_flight_primary_013
v 0.100914 0.102761 0.022577
v 0.097628 0.102181 0.022577
v 0.110249 0.049142 0.022589
v 0.105009 0.054687 0.022588
v 0.098827 0.104997 0.022811
v 0.108939 0.047524 0.022824
v 0.103279 0.094551 0.022579
v 0.105947 0.083790 0.022581
v 0.108343 0.072980 0.022584
v 0.110127 0.062063 0.022586
v 0.102861 0.060779 0.022586
v 0.100811 0.071649 0.022584
v 0.099374 0.082628 0.022581
v 0.098208 0.093654 0.022579
v 0.100744 0.094103 0.022813
v 0.102660 0.083209 0.022816
v 0.104577 0.072315 0.022818
v 0.106494 0.061421 0.022821
vn -0.0034 0.0022 -1.0000
vn -0.0750 -0.0098 -0.9971
vn -0.0904 -0.0089 -0.9958
vn -0.0442 -0.0016 -0.9990
vn 0.0687 0.0140 -0.9975
vn 0.0771 0.0175 -0.9969
vn 0.0009 -0.0054 -1.0000
vn -0.1103 -0.0249 -0.9936
vn -0.0929 -0.0205 -0.9955
vn 0.0007 -0.0042 -1.0000
vn -0.0704 -0.0147 -0.9974
vn 0.0004 -0.0023 -1.0000
vn -0.0627 -0.0118 -0.9980
vn 0.0001 -0.0007 -1.0000
vn 0.1122 0.0142 -0.9936
vn 0.0943 0.0124 -0.9955
vn 0.0712 0.0102 -0.9974
vn 0.0629 0.0103 -0.9980
usemtl feather_006
s 1
f 18//1 10//2 3//3 6//4
f 11//5 18//1 6//4 4//6
f 5//7 1//8 7//9 15//10
f 15//10 7//9 8//11 16//12
f 16//12 8//11 9//13 17//14
f 17//14 9//13 10//2 18//1
f 2//15 5//7 15//10 14//16
f 14//16 15//10 16//12 13//17
f 13//17 16//12 17//14 12//18
f 12//18 17//14 18//1 11//5
