# Blender v2.79 (sub 0) OBJ File: 'quail_base_mesh_BI.blend'
# www.blender.org
mtllib quail_feather_flight_tertiary_082.mtl
o feather_flight_tertiary_082
v 0.130060 0.105512 0.022231
v 0.129420 0.104231 0.022231
v 0.135080 0.103299 0.022231
v 0.134208 0.101551 0.022231
v 0.129489 0.104997 0.021996
v 0.135193 0.102151 0.021996
v 0.131064 0.105446 0.022231
v 0.132291 0.105199 0.022231
v 0.133465 0.104847 0.022231
v 0.134520 0.104255 0.022231
v 0.133107 0.101423 0.022231
v 0.132000 0.101910 0.022231
v 0.131012 0.102636 0.022231
v 0.130077 0.103469 0.022231
v 0.130570 0.104457 0.021996
v 0.131651 0.103918 0.021996
v 0.132732 0.103378 0.021996
v 0.133814 0.102839 0.021996
vn 0.0228 -0.0114 -0.9997
vn 0.0902 0.1359 -0.9866
vn 0.1271 0.1498 -0.9805
vn 0.0427 -0.0213 -0.9988
vn -0.0544 -0.1538 -0.9866
vn -0.0433 -0.1917 -0.9805
vn -0.0431 0.0215 -0.9988
vn 0.0725 0.2497 -0.9656
vn 0.0644 0.2036 -0.9769
vn -0.0327 0.0163 -0.9993
vn 0.0571 0.1549 -0.9863
vn -0.0171 0.0085 -0.9998
vn 0.0617 0.1337 -0.9891
vn -0.0043 0.0021 -1.0000
vn -0.1559 -0.2081 -0.9656
vn -0.1239 -0.1739 -0.9769
vn -0.0894 -0.1388 -0.9863
vn -0.0697 -0.1297 -0.9891
usemtl feather_004
s 1
f 18//1 10//2 3//3 6//4
f 11//5 18//1 6//4 4//6
f 5//7 1//8 7//9 15//10
f 15//10 7//9 8//11 16//12
f 16//12 8//11 9//13 17//14
f 17//14 9//13 10//2 18//1
f 2//15 5//7 15//10 14//16
f 14//16 15//10 16//12 13//17
f 13//17 16//12 17//14 12//18
f 12//18 17//14 18//1 11//5
