# Blender v2.79 (sub 0) OBJ File: 'quail_base_mesh_BI.blend'
# www.blender.org
mtllib quail_feather_flight_primary_009.mtl
o feather_flight_primary_009
v 0.080961 0.102781 0.022577
v 0.078011 0.102781 0.022577
v 0.081568 0.056356 0.022464
v 0.077403 0.056356 0.022464
v 0.079486 0.104997 0.022811
v 0.079486 0.054587 0.022815
v 0.081762 0.095441 0.022577
v 0.082437 0.085886 0.022578
v 0.082867 0.076331 0.022579
v 0.082748 0.066776 0.022580
v 0.076224 0.066776 0.022580
v 0.076104 0.076331 0.022579
v 0.076535 0.085886 0.022578
v 0.077209 0.095441 0.022577
v 0.079486 0.095441 0.022812
v 0.079486 0.085886 0.022812
v 0.079486 0.076331 0.022813
v 0.079486 0.066776 0.022814
vn 0.0000 0.0056 -1.0000
vn -0.0906 0.0054 -0.9958
vn -0.1126 0.0109 -0.9936
vn 0.0000 0.0110 -0.9999
vn 0.0906 0.0054 -0.9958
vn 0.1126 0.0109 -0.9936
vn 0.0000 -0.0062 -1.0000
vn -0.1275 -0.0061 -0.9918
vn -0.1073 -0.0046 -0.9942
vn 0.0000 -0.0047 -1.0000
vn -0.0813 -0.0024 -0.9967
vn 0.0000 -0.0025 -1.0000
vn -0.0721 -0.0007 -0.9974
vn 0.0000 -0.0007 -1.0000
vn 0.1275 -0.0061 -0.9918
vn 0.1073 -0.0046 -0.9942
vn 0.0813 -0.0024 -0.9967
vn 0.0721 -0.0007 -0.9974
usemtl feather_006
s 1
f 18//1 10//2 3//3 6//4
f 11//5 18//1 6//4 4//6
f 5//7 1//8 7//9 15//10
f 15//10 7//9 8//11 16//12
f 16//12 8//11 9//13 17//14
f 17//14 9//13 10//2 18//1
f 2//15 5//7 15//10 14//16
f 14//16 15//10 16//12 13//17
f 13//17 16//12 17//14 12//18
f 12//18 17//14 18//1 11//5
