# Blender v2.79 (sub 0) OBJ File: 'quail_base_mesh_BI.blend'
# www.blender.org
mtllib quail_feather_flight_tertiary_043.mtl
o feather_flight_tertiary_043
v 0.038205 0.104502 0.022231
v 0.036774 0.104502 0.022231
v 0.038466 0.094832 0.022231
v 0.036513 0.094832 0.022231
v 0.037490 0.104997 0.021996
v 0.037490 0.093750 0.021996
v 0.038595 0.102865 0.022231
v 0.038922 0.100733 0.022231
v 0.039131 0.098601 0.022231
v 0.039073 0.096469 0.022231
v 0.035907 0.096469 0.022231
v 0.035849 0.098601 0.022231
v 0.036058 0.100733 0.022231
v 0.036385 0.102865 0.022231
v 0.037490 0.102865 0.021996
v 0.037490 0.100733 0.021996
v 0.037490 0.098601 0.021996
v 0.037490 0.096469 0.021996
vn 0.0000 -0.0145 -0.9999
vn 0.1643 -0.0126 -0.9863
vn 0.1910 -0.0266 -0.9812
vn 0.0000 -0.0270 -0.9996
vn -0.1643 -0.0126 -0.9863
vn -0.1910 -0.0266 -0.9812
vn 0.0000 0.0273 -0.9996
vn 0.2560 0.0264 -0.9663
vn 0.2144 0.0194 -0.9765
vn 0.0000 0.0207 -0.9998
vn 0.1650 0.0104 -0.9862
vn 0.0000 0.0108 -0.9999
vn 0.1473 0.0026 -0.9891
vn 0.0000 0.0027 -1.0000
vn -0.2560 0.0264 -0.9663
vn -0.2144 0.0194 -0.9765
vn -0.1650 0.0104 -0.9862
vn -0.1473 0.0026 -0.9891
usemtl feather_004
s 1
f 18//1 10//2 3//3 6//4
f 11//5 18//1 6//4 4//6
f 5//7 1//8 7//9 15//10
f 15//10 7//9 8//11 16//12
f 16//12 8//11 9//13 17//14
f 17//14 9//13 10//2 18//1
f 2//15 5//7 15//10 14//16
f 14//16 15//10 16//12 13//17
f 13//17 16//12 17//14 12//18
f 12//18 17//14 18//1 11//5
