# Blender v2.79 (sub 0) OBJ File: 'quail_base_mesh_BI.blend'
# www.blender.org
mtllib quail_feather_flight_secondary_035.mtl
o feather_flight_secondary_035
v 0.104225 0.104243 0.022526
v 0.101781 0.103590 0.022524
v 0.110314 0.083232 0.022484
v 0.106978 0.082341 0.022481
v 0.102715 0.104996 0.022293
v 0.109277 0.080422 0.022243
v 0.105845 0.100842 0.022520
v 0.107648 0.096333 0.022511
v 0.109249 0.091771 0.022501
v 0.110393 0.087086 0.022492
v 0.104987 0.085643 0.022488
v 0.103644 0.090274 0.022497
v 0.102757 0.095028 0.022507
v 0.102072 0.099835 0.022517
v 0.103959 0.100338 0.022284
v 0.105202 0.095680 0.022274
v 0.106446 0.091022 0.022265
v 0.107690 0.086364 0.022255
vn 0.0019 -0.0041 -1.0000
vn 0.0928 0.0208 -0.9955
vn 0.1090 0.0188 -0.9938
vn 0.0033 -0.0095 -0.9999
vn -0.0894 -0.0279 -0.9956
vn -0.1025 -0.0377 -0.9940
vn -0.0029 0.0137 -0.9999
vn 0.1403 0.0519 -0.9887
vn 0.1177 0.0426 -0.9921
vn -0.0021 0.0109 -0.9999
vn 0.0902 0.0309 -0.9954
vn -0.0010 0.0067 -1.0000
vn 0.0810 0.0248 -0.9964
vn -0.0001 0.0032 -1.0000
vn -0.1461 -0.0246 -0.9890
vn -0.1219 -0.0214 -0.9923
vn -0.0922 -0.0178 -0.9956
vn -0.0812 -0.0184 -0.9965
usemtl feather_005
s 1
f 18//1 10//2 3//3 6//4
f 11//5 18//1 6//4 4//6
f 5//7 1//8 7//9 15//10
f 15//10 7//9 8//11 16//12
f 16//12 8//11 9//13 17//14
f 17//14 9//13 10//2 18//1
f 2//15 5//7 15//10 14//16
f 14//16 15//10 16//12 13//17
f 13//17 16//12 17//14 12//18
f 12//18 17//14 18//1 11//5
