# Blender v2.79 (sub 0) OBJ File: 'quail_base_mesh_BI.blend'
# www.blender.org
mtllib quail_feather_flight_tertiary_018.mtl
o feather_flight_tertiary_018
v 0.081233 0.104554 0.023168
v 0.079802 0.104554 0.023168
v 0.081494 0.095899 0.023168
v 0.079541 0.095899 0.023168
v 0.080517 0.104997 0.023403
v 0.080517 0.094931 0.023403
v 0.081622 0.103089 0.023168
v 0.081949 0.101181 0.023168
v 0.082158 0.099273 0.023168
v 0.082100 0.097365 0.023168
v 0.078934 0.097365 0.023168
v 0.078876 0.099273 0.023168
v 0.079085 0.101181 0.023168
v 0.079412 0.103089 0.023168
v 0.080517 0.103089 0.023403
v 0.080517 0.101181 0.023403
v 0.080517 0.099273 0.023403
v 0.080517 0.097365 0.023403
vn 0.0000 0.0161 -0.9998
vn -0.1639 0.0139 -0.9864
vn -0.1909 0.0297 -0.9811
vn 0.0000 0.0302 -0.9995
vn 0.1639 0.0139 -0.9864
vn 0.1909 0.0297 -0.9811
vn 0.0000 -0.0305 -0.9995
vn -0.2560 -0.0295 -0.9662
vn -0.2139 -0.0216 -0.9766
vn 0.0000 -0.0231 -0.9997
vn -0.1649 -0.0116 -0.9862
vn 0.0000 -0.0121 -0.9999
vn -0.1473 -0.0029 -0.9891
vn 0.0000 -0.0031 -1.0000
vn 0.2560 -0.0295 -0.9662
vn 0.2139 -0.0216 -0.9766
vn 0.1649 -0.0116 -0.9862
vn 0.1473 -0.0029 -0.9891
usemtl feather_004
s 1
f 18//1 10//2 3//3 6//4
f 11//5 18//1 6//4 4//6
f 5//7 1//8 7//9 15//10
f 15//10 7//9 8//11 16//12
f 16//12 8//11 9//13 17//14
f 17//14 9//13 10//2 18//1
f 2//15 5//7 15//10 14//16
f 14//16 15//10 16//12 13//17
f 13//17 16//12 17//14 12//18
f 12//18 17//14 18//1 11//5
