# Blender v2.79 (sub 0) OBJ File: 'rabbit_base_mesh_BI.blend'
# www.blender.org
mtllib rabbit_eye.mtl
o eye
v 0.038440 0.236186 0.151836
v 0.035327 0.240660 0.151044
v 0.030799 0.243563 0.149859
v 0.025547 0.244455 0.148461
v 0.020370 0.243199 0.147063
v 0.016056 0.239987 0.145877
v 0.013262 0.235307 0.145085
v 0.038989 0.235794 0.149839
v 0.036341 0.239935 0.147355
v 0.032125 0.242616 0.145038
v 0.026982 0.243430 0.143243
v 0.021696 0.242252 0.142242
v 0.017071 0.239262 0.142188
v 0.013811 0.234915 0.143089
v 0.039483 0.234639 0.148146
v 0.037254 0.237802 0.144227
v 0.033318 0.239829 0.140952
v 0.028273 0.240413 0.138820
v 0.022889 0.239465 0.138155
v 0.017984 0.237129 0.139060
v 0.014305 0.233760 0.141396
v 0.012413 0.229872 0.144807
v 0.039848 0.232899 0.147015
v 0.037927 0.234585 0.142137
v 0.034197 0.235626 0.138221
v 0.029224 0.235864 0.135864
v 0.023767 0.235262 0.135425
v 0.018656 0.233912 0.136970
v 0.014669 0.232019 0.140265
v 0.040026 0.230836 0.146618
v 0.038257 0.230775 0.141403
v 0.034628 0.230648 0.137262
v 0.029691 0.230475 0.134826
v 0.024198 0.230284 0.134466
v 0.018986 0.230102 0.136236
v 0.014848 0.229957 0.139868
v 0.039992 0.228767 0.147015
v 0.038194 0.226950 0.142137
v 0.034545 0.225651 0.138221
v 0.029601 0.225067 0.135864
v 0.024116 0.225287 0.135425
v 0.018923 0.226277 0.136970
v 0.014814 0.227887 0.140265
v 0.039666 0.230824 0.152114
v 0.039750 0.227005 0.148146
v 0.037747 0.223695 0.144227
v 0.033961 0.221397 0.140952
v 0.028970 0.220463 0.138820
v 0.023532 0.221033 0.138155
v 0.018476 0.223022 0.139060
v 0.014572 0.226125 0.141396
v 0.039338 0.225819 0.149839
v 0.036985 0.221503 0.147355
v 0.032966 0.218534 0.145038
v 0.027892 0.217364 0.143243
v 0.022537 0.218170 0.142242
v 0.017714 0.220830 0.142188
v 0.014159 0.224939 0.143089
v 0.038817 0.225389 0.151836
v 0.036023 0.220709 0.151044
v 0.031709 0.217497 0.149859
v 0.026532 0.216241 0.148461
v 0.021280 0.217133 0.147063
v 0.016753 0.220036 0.145877
v 0.013639 0.224510 0.145085
v 0.038268 0.225781 0.153833
v 0.035009 0.221434 0.154734
v 0.030384 0.218444 0.154679
v 0.025098 0.217266 0.153678
v 0.019955 0.218080 0.151883
v 0.015738 0.220761 0.149567
v 0.013090 0.224902 0.147082
v 0.037774 0.226936 0.155525
v 0.034096 0.223567 0.157861
v 0.029191 0.221231 0.158766
v 0.023806 0.220283 0.158102
v 0.018762 0.220867 0.155970
v 0.014825 0.222894 0.152695
v 0.012596 0.226056 0.148775
v 0.037410 0.228677 0.156657
v 0.033423 0.226784 0.159951
v 0.028312 0.225434 0.161497
v 0.022855 0.224832 0.161057
v 0.017883 0.225069 0.158700
v 0.014153 0.226111 0.154785
v 0.012232 0.227797 0.149906
v 0.037232 0.230739 0.157054
v 0.033093 0.230594 0.160685
v 0.027881 0.230412 0.162456
v 0.022389 0.230220 0.162095
v 0.017452 0.230048 0.159659
v 0.013823 0.229921 0.155518
v 0.012053 0.229860 0.150303
v 0.037266 0.232808 0.156657
v 0.033156 0.234418 0.159951
v 0.027964 0.235409 0.161497
v 0.022478 0.235629 0.161057
v 0.017535 0.235045 0.158700
v 0.013886 0.233746 0.154785
v 0.012088 0.231929 0.149906
v 0.037508 0.234570 0.155525
v 0.033603 0.237674 0.157861
v 0.028547 0.239663 0.158766
v 0.023110 0.240233 0.158102
v 0.018118 0.239298 0.155970
v 0.014333 0.237001 0.152695
v 0.012329 0.233691 0.148775
v 0.037920 0.235756 0.153833
v 0.034365 0.239866 0.154734
v 0.029543 0.242526 0.154679
v 0.024187 0.243332 0.153678
v 0.019114 0.242162 0.151883
v 0.015095 0.239193 0.149567
v 0.012742 0.234877 0.147082
vn -0.8975 0.3720 -0.2369
vn -0.6961 0.6950 -0.1799
vn -0.6231 0.6428 -0.4456
vn -0.8565 0.3427 -0.3858
vn -0.3937 0.9141 -0.0969
vn -0.0349 0.9994 0.0000
vn 0.0667 0.9268 -0.3696
vn -0.2995 0.8467 -0.4396
vn 0.3290 0.9393 0.0969
vn 0.6460 0.7418 0.1799
vn 0.7190 0.6896 -0.0858
vn 0.4233 0.8720 -0.2459
vn 0.8694 0.4337 0.2369
vn 0.9653 0.0337 0.2588
vn 0.9103 0.4044 0.0878
vn -0.9653 -0.0337 -0.2588
vn 0.7848 0.5360 -0.3110
vn 0.5081 0.6738 -0.5364
vn 0.9472 0.3183 -0.0385
vn -0.8196 0.2566 -0.5122
vn -0.2147 0.6486 -0.7302
vn -0.5573 0.4892 -0.6709
vn 0.1582 0.7130 -0.6830
vn -0.7925 0.1267 -0.5966
vn -0.1522 0.3497 -0.9244
vn -0.5089 0.2575 -0.8214
vn 0.5706 0.3750 -0.7306
vn 0.2256 0.3908 -0.8924
vn 0.9744 0.1884 -0.1228
vn 0.8332 0.3043 -0.4616
vn 0.9877 0.0345 -0.1525
vn 0.8570 0.0299 -0.5144
vn -0.4851 -0.0169 -0.8743
vn -0.7792 -0.0272 -0.6262
vn 0.2586 0.0090 -0.9659
vn -0.1215 -0.0042 -0.9926
vn 0.6012 0.0210 -0.7988
vn -0.4897 -0.2923 -0.8214
vn -0.7817 -0.1816 -0.5966
vn 0.2523 -0.3741 -0.8924
vn -0.1274 -0.3595 -0.9244
vn 0.8524 -0.2455 -0.4616
vn 0.5954 -0.3343 -0.7306
vn 0.9851 -0.1199 -0.1228
vn 0.9671 -0.2514 -0.0385
vn -0.7997 -0.3131 -0.5122
vn -0.1689 -0.6620 -0.7302
vn -0.5218 -0.5268 -0.6709
vn 0.5538 -0.6367 -0.5364
vn 0.2076 -0.7003 -0.6830
vn 0.8203 -0.4800 -0.3110
vn -0.2397 -0.8656 -0.4396
vn -0.5767 -0.6847 -0.4456
vn 0.4830 -0.8403 -0.2459
vn 0.1312 -0.9199 -0.3696
vn 0.9363 -0.3399 0.0878
vn 0.7654 -0.6378 -0.0858
vn -0.8305 -0.4016 -0.3858
vn -0.6460 -0.7418 -0.1799
vn -0.8694 -0.4337 -0.2369
vn 0.0349 -0.9994 0.0000
vn -0.3290 -0.9393 -0.0969
vn 0.6961 -0.6950 0.1799
vn 0.3937 -0.9141 0.0969
vn 0.8975 -0.3720 0.2369
vn -0.0667 -0.9268 0.3696
vn -0.4233 -0.8720 0.2459
vn 0.6231 -0.6428 0.4456
vn 0.2995 -0.8467 0.4396
vn 0.8565 -0.3427 0.3858
vn -0.9103 -0.4044 -0.0878
vn -0.7190 -0.6896 0.0858
vn -0.9472 -0.3183 0.0385
vn -0.5081 -0.6738 0.5364
vn -0.7848 -0.5360 0.3110
vn 0.2147 -0.6486 0.7302
vn -0.1582 -0.7130 0.6830
vn 0.8196 -0.2566 0.5122
vn 0.5573 -0.4892 0.6709
vn 0.1522 -0.3497 0.9244
vn -0.2256 -0.3908 0.8924
vn 0.7925 -0.1267 0.5966
vn 0.5089 -0.2575 0.8214
vn -0.8332 -0.3043 0.4616
vn -0.9744 -0.1884 0.1228
vn -0.5706 -0.3750 0.7306
vn -0.8570 -0.0299 0.5144
vn -0.9877 -0.0345 0.1525
vn -0.2586 -0.0090 0.9659
vn -0.6012 -0.0210 0.7988
vn 0.4851 0.0169 0.8743
vn 0.1215 0.0042 0.9926
vn 0.7792 0.0272 0.6262
vn 0.4897 0.2923 0.8214
vn 0.1274 0.3595 0.9244
vn 0.7817 0.1816 0.5966
vn -0.9851 0.1199 0.1228
vn -0.5954 0.3343 0.7306
vn -0.8524 0.2455 0.4616
vn -0.2523 0.3741 0.8924
vn -0.9671 0.2514 0.0385
vn -0.5538 0.6367 0.5364
vn -0.8203 0.4800 0.3110
vn 0.1689 0.6620 0.7302
vn -0.2076 0.7003 0.6830
vn 0.7997 0.3131 0.5122
vn 0.5218 0.5268 0.6709
vn 0.8305 0.4016 0.3858
vn 0.5767 0.6847 0.4456
vn -0.7654 0.6378 0.0858
vn -0.9363 0.3399 -0.0878
vn -0.1312 0.9199 0.3696
vn -0.4830 0.8403 0.2459
vn 0.2397 0.8656 0.4396
usemtl eyes
s 1
f 7//1 6//2 13//3 14//4
f 5//5 4//6 11//7 12//8
f 3//9 2//10 9//11 10//12
f 1//13 44//14 8//15
f 22//16 7//1 14//4
f 6//2 5//5 12//8 13//3
f 4//6 3//9 10//12 11//7
f 2//10 1//13 8//15 9//11
f 10//12 9//11 16//17 17//18
f 8//15 44//14 15//19
f 22//16 14//4 21//20
f 13//3 12//8 19//21 20//22
f 11//7 10//12 17//18 18//23
f 9//11 8//15 15//19 16//17
f 14//4 13//3 20//22 21//20
f 12//8 11//7 18//23 19//21
f 22//16 21//20 29//24
f 20//22 19//21 27//25 28//26
f 18//23 17//18 25//27 26//28
f 16//17 15//19 23//29 24//30
f 21//20 20//22 28//26 29//24
f 19//21 18//23 26//28 27//25
f 17//18 16//17 24//30 25//27
f 15//19 44//14 23//29
f 24//30 23//29 30//31 31//32
f 29//24 28//26 35//33 36//34
f 27//25 26//28 33//35 34//36
f 25//27 24//30 31//32 32//37
f 23//29 44//14 30//31
f 22//16 29//24 36//34
f 28//26 27//25 34//36 35//33
f 26//28 25//27 32//37 33//35
f 36//34 35//33 42//38 43//39
f 34//36 33//35 40//40 41//41
f 32//37 31//32 38//42 39//43
f 30//31 44//14 37//44
f 22//16 36//34 43//39
f 35//33 34//36 41//41 42//38
f 33//35 32//37 39//43 40//40
f 31//32 30//31 37//44 38//42
f 37//44 44//14 45//45
f 22//16 43//39 51//46
f 42//38 41//41 49//47 50//48
f 40//40 39//43 47//49 48//50
f 38//42 37//44 45//45 46//51
f 43//39 42//38 50//48 51//46
f 41//41 40//40 48//50 49//47
f 39//43 38//42 46//51 47//49
f 50//48 49//47 56//52 57//53
f 48//50 47//49 54//54 55//55
f 46//51 45//45 52//56 53//57
f 51//46 50//48 57//53 58//58
f 49//47 48//50 55//55 56//52
f 47//49 46//51 53//57 54//54
f 45//45 44//14 52//56
f 22//16 51//46 58//58
f 58//58 57//53 64//59 65//60
f 56//52 55//55 62//61 63//62
f 54//54 53//57 60//63 61//64
f 52//56 44//14 59//65
f 22//16 58//58 65//60
f 57//53 56//52 63//62 64//59
f 55//55 54//54 61//64 62//61
f 53//57 52//56 59//65 60//63
f 63//62 62//61 69//66 70//67
f 61//64 60//63 67//68 68//69
f 59//65 44//14 66//70
f 22//16 65//60 72//71
f 64//59 63//62 70//67 71//72
f 62//61 61//64 68//69 69//66
f 60//63 59//65 66//70 67//68
f 65//60 64//59 71//72 72//71
f 22//16 72//71 79//73
f 71//72 70//67 77//74 78//75
f 69//66 68//69 75//76 76//77
f 67//68 66//70 73//78 74//79
f 72//71 71//72 78//75 79//73
f 70//67 69//66 76//77 77//74
f 68//69 67//68 74//79 75//76
f 66//70 44//14 73//78
f 76//77 75//76 82//80 83//81
f 74//79 73//78 80//82 81//83
f 79//73 78//75 85//84 86//85
f 77//74 76//77 83//81 84//86
f 75//76 74//79 81//83 82//80
f 73//78 44//14 80//82
f 22//16 79//73 86//85
f 78//75 77//74 84//86 85//84
f 86//85 85//84 92//87 93//88
f 84//86 83//81 90//89 91//90
f 82//80 81//83 88//91 89//92
f 80//82 44//14 87//93
f 22//16 86//85 93//88
f 85//84 84//86 91//90 92//87
f 83//81 82//80 89//92 90//89
f 81//83 80//82 87//93 88//91
f 89//92 88//91 95//94 96//95
f 87//93 44//14 94//96
f 22//16 93//88 100//97
f 92//87 91//90 98//98 99//99
f 90//89 89//92 96//95 97//100
f 88//91 87//93 94//96 95//94
f 93//88 92//87 99//99 100//97
f 91//90 90//89 97//100 98//98
f 22//16 100//97 107//101
f 99//99 98//98 105//102 106//103
f 97//100 96//95 103//104 104//105
f 95//94 94//96 101//106 102//107
f 100//97 99//99 106//103 107//101
f 98//98 97//100 104//105 105//102
f 96//95 95//94 102//107 103//104
f 94//96 44//14 101//106
f 102//107 101//106 108//108 109//109
f 107//101 106//103 113//110 114//111
f 105//102 104//105 111//112 112//113
f 103//104 102//107 109//109 110//114
f 101//106 44//14 108//108
f 22//16 107//101 114//111
f 106//103 105//102 112//113 113//110
f 104//105 103//104 110//114 111//112
f 114//111 113//110 6//2 7//1
f 112//113 111//112 4//6 5//5
f 110//114 109//109 2//10 3//9
f 108//108 44//14 1//13
f 22//16 114//111 7//1
f 113//110 112//113 5//5 6//2
f 111//112 110//114 3//9 4//6
f 109//109 108//108 1//13 2//10
