# Blender v2.79 (sub 0) OBJ File: 'rooster_base_mesh_BI.blend'
# www.blender.org
mtllib rooster_feather_flight_tertiary_021.mtl
o feather_flight_tertiary_021
v 0.213609 0.239465 0.033298
v 0.208727 0.237816 0.033334
v 0.220279 0.217959 0.033385
v 0.216491 0.216684 0.033414
v 0.210796 0.239727 0.033814
v 0.219192 0.214934 0.033911
v 0.216159 0.236303 0.033302
v 0.218865 0.231979 0.033312
v 0.220633 0.227339 0.033329
v 0.221030 0.222236 0.033356
v 0.213296 0.219628 0.033414
v 0.210513 0.223924 0.033404
v 0.209099 0.228683 0.033384
v 0.208622 0.233759 0.033358
v 0.212387 0.235027 0.033832
v 0.213979 0.230328 0.033851
v 0.215570 0.225628 0.033869
v 0.217162 0.220929 0.033887
vn -0.0133 0.0182 -0.9997
vn -0.1380 -0.0273 -0.9900
vn -0.1851 -0.0280 -0.9823
vn -0.0175 0.0293 -0.9994
vn 0.1133 0.0577 -0.9919
vn 0.1514 0.0859 -0.9847
vn 0.0029 -0.0295 -0.9995
vn -0.1445 -0.0790 -0.9863
vn -0.1208 -0.0635 -0.9906
vn 0.0009 -0.0237 -0.9997
vn -0.0994 -0.0448 -0.9940
vn -0.0029 -0.0127 -0.9999
vn -0.1020 -0.0328 -0.9942
vn -0.0072 -0.0002 -1.0000
vn 0.1503 0.0207 -0.9884
vn 0.1219 0.0186 -0.9924
vn 0.0932 0.0204 -0.9954
vn 0.0879 0.0314 -0.9956
usemtl feather_002
s 1
f 18//1 10//2 3//3 6//4
f 11//5 18//1 6//4 4//6
f 5//7 1//8 7//9 15//10
f 15//10 7//9 8//11 16//12
f 16//12 8//11 9//13 17//14
f 17//14 9//13 10//2 18//1
f 2//15 5//7 15//10 14//16
f 14//16 15//10 16//12 13//17
f 13//17 16//12 17//14 12//18
f 12//18 17//14 18//1 11//5
