# Blender v2.79 (sub 0) OBJ File: 'rooster_base_mesh_BI.blend'
# www.blender.org
mtllib rooster_feather_flight_tertiary_015.mtl
o feather_flight_tertiary_015
v 0.171386 0.238984 0.033312
v 0.166286 0.238383 0.033321
v 0.173175 0.218511 0.033400
v 0.169318 0.218052 0.033403
v 0.168712 0.239724 0.033814
v 0.171515 0.215997 0.033913
v 0.173181 0.235693 0.033324
v 0.174686 0.231311 0.033341
v 0.175180 0.226810 0.033361
v 0.174625 0.222186 0.033382
v 0.167055 0.221288 0.033392
v 0.165438 0.225659 0.033376
v 0.164866 0.230153 0.033359
v 0.165308 0.234765 0.033338
v 0.169244 0.235227 0.033833
v 0.169777 0.230729 0.033852
v 0.170310 0.226232 0.033870
v 0.170841 0.221734 0.033889
vn -0.0038 0.0216 -0.9998
vn -0.1439 0.0017 -0.9896
vn -0.1901 0.0114 -0.9817
vn -0.0049 0.0338 -0.9994
vn 0.1370 0.0351 -0.9899
vn 0.1801 0.0551 -0.9821
vn 0.0020 -0.0316 -0.9995
vn -0.1531 -0.0496 -0.9870
vn -0.1279 -0.0375 -0.9911
vn 0.0010 -0.0240 -0.9997
vn -0.1062 -0.0222 -0.9941
vn -0.0005 -0.0101 -0.9999
vn -0.1084 -0.0105 -0.9940
vn -0.0019 0.0028 -1.0000
vn 0.1570 -0.0130 -0.9875
vn 0.1297 -0.0071 -0.9915
vn 0.1050 0.0029 -0.9944
vn 0.1047 0.0150 -0.9944
usemtl feather_002
s 1
f 18//1 10//2 3//3 6//4
f 11//5 18//1 6//4 4//6
f 5//7 1//8 7//9 15//10
f 15//10 7//9 8//11 16//12
f 16//12 8//11 9//13 17//14
f 17//14 9//13 10//2 18//1
f 2//15 5//7 15//10 14//16
f 14//16 15//10 16//12 13//17
f 13//17 16//12 17//14 12//18
f 12//18 17//14 18//1 11//5
