# Blender v2.79 (sub 0) OBJ File: 'rooster_base_mesh_BI.blend'
# www.blender.org
mtllib rooster_feather_flight_tertiary_059.mtl
o feather_flight_tertiary_059
v 0.256368 0.240679 0.031285
v 0.253128 0.237089 0.031359
v 0.273251 0.224475 0.031035
v 0.270765 0.221692 0.031179
v 0.253878 0.239695 0.030829
v 0.273950 0.221319 0.030579
v 0.260172 0.238980 0.031228
v 0.264717 0.236317 0.031163
v 0.268657 0.232989 0.031098
v 0.271641 0.228607 0.031038
v 0.266533 0.222916 0.031249
v 0.261908 0.225500 0.031284
v 0.258234 0.229133 0.031313
v 0.255170 0.233437 0.031343
v 0.257682 0.236212 0.030782
v 0.261487 0.232729 0.030734
v 0.265291 0.229245 0.030687
v 0.269096 0.225761 0.030639
vn -0.0062 -0.0296 -0.9995
vn 0.0859 0.0802 -0.9930
vn 0.1254 0.1019 -0.9868
vn -0.0031 -0.0430 -0.9991
vn -0.1014 -0.1344 -0.9857
vn -0.1272 -0.1816 -0.9751
vn -0.0343 0.0121 -0.9993
vn 0.0779 0.1342 -0.9879
vn 0.0631 0.1082 -0.9921
vn -0.0305 0.0075 -0.9995
vn 0.0501 0.0796 -0.9955
vn -0.0229 -0.0006 -0.9997
vn 0.0544 0.0691 -0.9961
vn -0.0156 -0.0119 -0.9998
vn -0.1461 -0.1110 -0.9830
vn -0.1219 -0.0943 -0.9880
vn -0.0951 -0.0815 -0.9921
vn -0.0860 -0.0919 -0.9920
usemtl feather_002
s 1
f 18//1 10//2 3//3 6//4
f 11//5 18//1 6//4 4//6
f 5//7 1//8 7//9 15//10
f 15//10 7//9 8//11 16//12
f 16//12 8//11 9//13 17//14
f 17//14 9//13 10//2 18//1
f 2//15 5//7 15//10 14//16
f 14//16 15//10 16//12 13//17
f 13//17 16//12 17//14 12//18
f 12//18 17//14 18//1 11//5
