# Blender v2.79 (sub 0) OBJ File: 'rooster_base_mesh_BI.blend'
# www.blender.org
mtllib rooster_feather_flight_tertiary_051.mtl
o feather_flight_tertiary_051
v 0.200113 0.239129 0.031333
v 0.195309 0.238235 0.031318
v 0.203369 0.218417 0.031210
v 0.199752 0.217746 0.031179
v 0.197513 0.239731 0.030830
v 0.201989 0.215773 0.030678
v 0.202071 0.235884 0.031315
v 0.203845 0.231515 0.031290
v 0.204647 0.226964 0.031266
v 0.204455 0.222229 0.031239
v 0.197361 0.220911 0.031194
v 0.195473 0.225258 0.031225
v 0.194577 0.229790 0.031258
v 0.194654 0.234503 0.031291
v 0.198361 0.235190 0.030801
v 0.199210 0.230648 0.030772
v 0.200059 0.226107 0.030743
v 0.200907 0.221566 0.030715
vn 0.0093 -0.0180 -0.9998
vn 0.1559 0.0117 -0.9877
vn 0.2054 0.0067 -0.9786
vn 0.0129 -0.0294 -0.9995
vn -0.1386 -0.0419 -0.9894
vn -0.1812 -0.0646 -0.9813
vn -0.0031 0.0332 -0.9994
vn 0.1580 0.0628 -0.9854
vn 0.1327 0.0493 -0.9899
vn -0.0016 0.0258 -0.9996
vn 0.1111 0.0321 -0.9933
vn 0.0013 0.0124 -0.9999
vn 0.1155 0.0204 -0.9931
vn 0.0045 -0.0001 -1.0000
vn -0.1642 0.0027 -0.9864
vn -0.1355 -0.0007 -0.9908
vn -0.1084 -0.0082 -0.9940
vn -0.1067 -0.0197 -0.9941
usemtl feather_002
s 1
f 18//1 10//2 3//3 6//4
f 11//5 18//1 6//4 4//6
f 5//7 1//8 7//9 15//10
f 15//10 7//9 8//11 16//12
f 16//12 8//11 9//13 17//14
f 17//14 9//13 10//2 18//1
f 2//15 5//7 15//10 14//16
f 14//16 15//10 16//12 13//17
f 13//17 16//12 17//14 12//18
f 12//18 17//14 18//1 11//5
