# Blender v2.79 (sub 0) OBJ File: 'rooster_base_mesh_BI.blend'
# www.blender.org
mtllib rooster_feather_flight_secondary_001.mtl
o feather_flight_secondary_001
v 0.078008 0.237934 0.032676
v 0.071668 0.237934 0.032676
v 0.077371 0.203804 0.032676
v 0.072305 0.203804 0.032676
v 0.074838 0.239727 0.033178
v 0.074838 0.201066 0.033178
v 0.079715 0.231993 0.032676
v 0.080813 0.224260 0.032676
v 0.080797 0.216526 0.032676
v 0.079590 0.208792 0.032676
v 0.070087 0.208792 0.032676
v 0.068880 0.216526 0.032676
v 0.068863 0.224260 0.032676
v 0.069962 0.231993 0.032676
v 0.074838 0.231993 0.033178
v 0.074838 0.224260 0.033178
v 0.074838 0.216526 0.033178
v 0.074838 0.208792 0.033178
vn 0.0000 0.0165 -0.9998
vn -0.1144 0.0146 -0.9933
vn -0.1458 0.0254 -0.9890
vn 0.0000 0.0257 -0.9997
vn 0.1144 0.0146 -0.9933
vn 0.1458 0.0254 -0.9890
vn 0.0000 -0.0160 -0.9998
vn -0.1272 -0.0159 -0.9917
vn -0.1072 -0.0106 -0.9942
vn 0.0000 -0.0113 -0.9999
vn -0.0877 -0.0031 -0.9961
vn 0.0000 -0.0032 -1.0000
vn -0.0883 0.0035 -0.9961
vn 0.0000 0.0037 -1.0000
vn 0.1272 -0.0159 -0.9917
vn 0.1072 -0.0106 -0.9942
vn 0.0877 -0.0031 -0.9961
vn 0.0883 0.0035 -0.9961
usemtl feather_003
s 1
f 18//1 10//2 3//3 6//4
f 11//5 18//1 6//4 4//6
f 5//7 1//8 7//9 15//10
f 15//10 7//9 8//11 16//12
f 16//12 8//11 9//13 17//14
f 17//14 9//13 10//2 18//1
f 2//15 5//7 15//10 14//16
f 14//16 15//10 16//12 13//17
f 13//17 16//12 17//14 12//18
f 12//18 17//14 18//1 11//5
