# Blender v2.79 (sub 0) OBJ File: 'rooster_base_mesh_BI.blend'
# www.blender.org
mtllib rooster_feather_flight_tertiary_022.mtl
o feather_flight_tertiary_022
v 0.220987 0.239748 0.033297
v 0.216050 0.237687 0.033335
v 0.228408 0.219586 0.033370
v 0.225111 0.218315 0.033422
v 0.218093 0.239723 0.033814
v 0.227711 0.216750 0.033907
v 0.223730 0.236963 0.033300
v 0.226662 0.233071 0.033309
v 0.228479 0.228691 0.033321
v 0.228942 0.223733 0.033340
v 0.221738 0.220841 0.033424
v 0.218588 0.224607 0.033408
v 0.216820 0.228964 0.033385
v 0.216108 0.233781 0.033358
v 0.219916 0.235368 0.033831
v 0.221722 0.231006 0.033849
v 0.223505 0.226634 0.033867
v 0.225323 0.222277 0.033885
vn -0.0179 0.0208 -0.9996
vn -0.1454 -0.0361 -0.9887
vn -0.2015 -0.0439 -0.9785
vn -0.0294 0.0301 -0.9991
vn 0.1105 0.0696 -0.9914
vn 0.1524 0.1066 -0.9825
vn 0.0054 -0.0305 -0.9995
vn -0.1331 -0.0880 -0.9872
vn -0.1113 -0.0704 -0.9913
vn 0.0028 -0.0245 -0.9997
vn -0.0942 -0.0493 -0.9943
vn -0.0024 -0.0125 -0.9999
vn -0.1013 -0.0369 -0.9941
vn -0.0087 0.0014 -0.9999
vn 0.1438 0.0277 -0.9892
vn 0.1161 0.0243 -0.9929
vn 0.0891 0.0256 -0.9957
vn 0.0843 0.0379 -0.9957
usemtl feather_002
s 1
f 18//1 10//2 3//3 6//4
f 11//5 18//1 6//4 4//6
f 5//7 1//8 7//9 15//10
f 15//10 7//9 8//11 16//12
f 16//12 8//11 9//13 17//14
f 17//14 9//13 10//2 18//1
f 2//15 5//7 15//10 14//16
f 14//16 15//10 16//12 13//17
f 13//17 16//12 17//14 12//18
f 12//18 17//14 18//1 11//5
