# Blender v2.79 (sub 0) OBJ File: 'rooster_base_mesh_BI.blend'
# www.blender.org
mtllib rooster_feather_tail_primary_002.mtl
o feather_tail_primary_002
v 0.014094 0.260903 -0.118192
v 0.011366 0.251900 -0.119039
v 0.081950 0.252972 -0.259362
v 0.079575 0.245138 -0.260099
v 0.008012 0.257212 -0.112024
v 0.083802 0.249027 -0.269229
v 0.026335 0.262038 -0.141864
v 0.041903 0.262298 -0.172795
v 0.056929 0.260775 -0.203894
v 0.071343 0.257331 -0.235188
v 0.067086 0.243286 -0.236509
v 0.051561 0.243063 -0.205560
v 0.036592 0.244778 -0.174443
v 0.022165 0.248278 -0.143158
v 0.023010 0.255592 -0.143132
v 0.038007 0.253973 -0.174239
v 0.053004 0.252353 -0.205347
v 0.068029 0.250724 -0.236442
v 0.034181 0.262372 -0.157310
v 0.029317 0.246324 -0.158820
v 0.030508 0.254782 -0.158686
v 0.049506 0.261833 -0.188316
v 0.043987 0.243624 -0.190029
v 0.045506 0.253163 -0.189793
v 0.064220 0.259328 -0.219515
v 0.059240 0.242899 -0.221060
v 0.060517 0.251538 -0.220894
v 0.077456 0.255237 -0.248833
v 0.017249 0.256214 -0.131184
v 0.074039 0.243962 -0.249893
v 0.016690 0.249841 -0.131122
v 0.020290 0.261718 -0.130004
v 0.074538 0.250023 -0.249968
vn -0.8926 0.0555 -0.4474
vn -0.8476 0.2982 -0.4390
vn -0.8462 0.2980 -0.4418
vn -0.8936 0.0092 -0.4488
vn -0.7651 0.5161 -0.3851
vn -0.7831 0.4805 -0.3947
vn -0.8565 0.2991 -0.4205
vn -0.8577 0.2993 -0.4180
vn -0.9044 0.0367 -0.4251
vn -0.8585 0.2994 -0.4162
vn -0.9016 0.0655 -0.4274
vn -0.8556 0.2991 -0.4224
vn -0.7929 0.4590 -0.4007
vn -0.7982 0.4458 -0.4051
vn -0.8546 0.2990 -0.4246
vn -0.8535 0.2988 -0.4268
vn -0.7993 0.4411 -0.4081
vn -0.7972 0.4433 -0.4097
vn -0.8525 0.2987 -0.4289
vn -0.8513 0.2986 -0.4313
vn -0.7918 0.4523 -0.4104
vn -0.7799 0.4733 -0.4096
vn -0.8498 0.2984 -0.4345
vn -0.8926 0.1302 -0.4316
vn -0.8895 0.1446 -0.4335
vn -0.8877 0.1496 -0.4355
vn -0.8871 0.1469 -0.4376
vn -0.8875 0.1366 -0.4401
vn -0.8891 0.1128 -0.4435
vn -0.8966 0.1061 -0.4299
vn -0.7510 0.5227 -0.4034
vn -0.7516 0.5407 -0.3777
vn -0.7262 0.5613 -0.3969
usemtl feather_003
s 1
f 30//1 33//2 6//3 4//4
f 32//5 7//6 15//7 29//8
f 2//9 5//10 29//8 31//11
f 21//12 19//13 8//14 16//15
f 24//16 22//17 9//18 17//19
f 27//20 25//21 10//22 18//23
f 20//24 21//12 16//15 13//25
f 23//26 24//16 17//19 12//27
f 26//28 27//20 18//23 11//29
f 15//7 7//6 19//13 21//12
f 14//30 15//7 21//12 20//24
f 16//15 8//14 22//17 24//16
f 13//25 16//15 24//16 23//26
f 17//19 9//18 25//21 27//20
f 12//27 17//19 27//20 26//28
f 18//23 10//22 28//31 33//2
f 11//29 18//23 33//2 30//1
f 5//10 1//32 32//5 29//8
f 14//30 31//11 29//8 15//7
f 33//2 28//31 3//33 6//3
