# Blender v2.79 (sub 0) OBJ File: 'rooster_base_mesh_BI.blend'
# www.blender.org
mtllib rooster_feather_flight_tertiary_045.mtl
o feather_flight_tertiary_045
v 0.157585 0.238860 0.031332
v 0.152191 0.238510 0.031328
v 0.157890 0.218314 0.031300
v 0.154412 0.218288 0.031283
v 0.154820 0.239725 0.030830
v 0.156360 0.216027 0.030785
v 0.159276 0.235505 0.031327
v 0.160543 0.231063 0.031320
v 0.160589 0.226502 0.031315
v 0.159547 0.221866 0.031309
v 0.152205 0.221626 0.031287
v 0.150602 0.225976 0.031298
v 0.150203 0.230415 0.031310
v 0.150949 0.234964 0.031320
v 0.155104 0.235233 0.030822
v 0.155315 0.230731 0.030813
v 0.155538 0.226231 0.030805
v 0.155846 0.221741 0.030796
vn 0.0006 -0.0280 -0.9996
vn 0.1492 -0.0135 -0.9887
vn 0.2029 -0.0228 -0.9789
vn 0.0132 -0.0399 -0.9991
vn -0.1419 -0.0344 -0.9893
vn -0.1950 -0.0569 -0.9791
vn -0.0012 0.0296 -0.9995
vn 0.1467 0.0387 -0.9884
vn 0.1220 0.0269 -0.9922
vn -0.0005 0.0217 -0.9998
vn 0.1017 0.0114 -0.9947
vn -0.0005 0.0069 -1.0000
vn 0.1063 -0.0010 -0.9943
vn 0.0002 -0.0076 -1.0000
vn -0.1495 0.0198 -0.9886
vn -0.1240 0.0129 -0.9922
vn -0.1023 0.0015 -0.9948
vn -0.1045 -0.0123 -0.9944
usemtl feather_002
s 1
f 18//1 10//2 3//3 6//4
f 11//5 18//1 6//4 4//6
f 5//7 1//8 7//9 15//10
f 15//10 7//9 8//11 16//12
f 16//12 8//11 9//13 17//14
f 17//14 9//13 10//2 18//1
f 2//15 5//7 15//10 14//16
f 14//16 15//10 16//12 13//17
f 13//17 16//12 17//14 12//18
f 12//18 17//14 18//1 11//5
