# Blender v2.79 (sub 0) OBJ File: 'rooster_base_mesh_BI.blend'
# www.blender.org
mtllib rooster_feather_flight_tertiary_049.mtl
o feather_flight_tertiary_049
v 0.186660 0.238960 0.031333
v 0.181857 0.238404 0.031318
v 0.188462 0.218293 0.031212
v 0.184852 0.217877 0.031182
v 0.184135 0.239731 0.030830
v 0.186924 0.215777 0.030680
v 0.188372 0.235624 0.031315
v 0.189809 0.231188 0.031291
v 0.190283 0.226641 0.031267
v 0.189782 0.221980 0.031241
v 0.182720 0.221165 0.031196
v 0.181161 0.225586 0.031227
v 0.180578 0.230120 0.031259
v 0.180957 0.234765 0.031292
v 0.184663 0.235190 0.030801
v 0.185192 0.230650 0.030773
v 0.185721 0.226110 0.030745
v 0.186249 0.221569 0.030716
vn 0.0081 -0.0188 -0.9998
vn 0.1585 0.0010 -0.9873
vn 0.2080 -0.0074 -0.9781
vn 0.0109 -0.0305 -0.9995
vn -0.1434 -0.0328 -0.9891
vn -0.1878 -0.0526 -0.9808
vn -0.0009 0.0336 -0.9994
vn 0.1635 0.0522 -0.9851
vn 0.1374 0.0402 -0.9897
vn 0.0001 0.0260 -0.9996
vn 0.1147 0.0245 -0.9931
vn 0.0021 0.0121 -0.9999
vn 0.1184 0.0125 -0.9929
vn 0.0045 -0.0006 -1.0000
vn -0.1653 0.0140 -0.9861
vn -0.1368 0.0085 -0.9905
vn -0.1103 -0.0010 -0.9939
vn -0.1095 -0.0127 -0.9939
usemtl feather_002
s 1
f 18//1 10//2 3//3 6//4
f 11//5 18//1 6//4 4//6
f 5//7 1//8 7//9 15//10
f 15//10 7//9 8//11 16//12
f 16//12 8//11 9//13 17//14
f 17//14 9//13 10//2 18//1
f 2//15 5//7 15//10 14//16
f 14//16 15//10 16//12 13//17
f 13//17 16//12 17//14 12//18
f 12//18 17//14 18//1 11//5
