# Blender v2.79 (sub 0) OBJ File: 'rooster_base_mesh_BI.blend'
# www.blender.org
mtllib rooster_feather_flight_tertiary_041.mtl
o feather_flight_tertiary_041
v 0.127848 0.238954 0.031333
v 0.122577 0.238585 0.031333
v 0.128013 0.220289 0.031333
v 0.125210 0.219786 0.031333
v 0.125145 0.239727 0.030831
v 0.126669 0.217942 0.030831
v 0.129502 0.235882 0.031333
v 0.130835 0.231837 0.031333
v 0.130946 0.227761 0.031333
v 0.129765 0.223617 0.031333
v 0.123154 0.222802 0.031333
v 0.121347 0.226916 0.031333
v 0.120680 0.231099 0.031333
v 0.121366 0.235313 0.031333
v 0.125442 0.235597 0.030831
v 0.125847 0.231468 0.030831
v 0.126240 0.227339 0.030831
v 0.126508 0.223209 0.030831
vn 0.0111 -0.0373 -0.9992
vn 0.1635 -0.0239 -0.9862
vn 0.2380 -0.0441 -0.9702
vn -0.0082 -0.0535 -0.9985
vn -0.1562 -0.0406 -0.9869
vn -0.2206 -0.0590 -0.9735
vn -0.0021 0.0301 -0.9995
vn 0.1495 0.0405 -0.9879
vn 0.1245 0.0298 -0.9918
vn -0.0017 0.0216 -0.9998
vn 0.1053 0.0141 -0.9943
vn 0.0013 0.0051 -1.0000
vn 0.1127 -0.0023 -0.9936
vn 0.0043 -0.0125 -0.9999
vn -0.1533 0.0189 -0.9880
vn -0.1258 0.0096 -0.9920
vn -0.1030 -0.0049 -0.9947
vn -0.1067 -0.0199 -0.9941
usemtl feather_002
s 1
f 18//1 10//2 3//3 6//4
f 11//5 18//1 6//4 4//6
f 5//7 1//8 7//9 15//10
f 15//10 7//9 8//11 16//12
f 16//12 8//11 9//13 17//14
f 17//14 9//13 10//2 18//1
f 2//15 5//7 15//10 14//16
f 14//16 15//10 16//12 13//17
f 13//17 16//12 17//14 12//18
f 12//18 17//14 18//1 11//5
