# Blender v2.79 (sub 0) OBJ File: 'rooster_base_mesh_BI.blend'
# www.blender.org
mtllib rooster_feather_flight_tertiary_063.mtl
o feather_flight_tertiary_063
v 0.288370 0.240887 0.031297
v 0.287174 0.237663 0.031349
v 0.310065 0.232470 0.031079
v 0.309033 0.229662 0.031174
v 0.286668 0.239702 0.030829
v 0.311994 0.230154 0.030601
v 0.292382 0.240373 0.031249
v 0.297453 0.239292 0.031194
v 0.302296 0.237601 0.031138
v 0.306840 0.235109 0.031088
v 0.304884 0.229804 0.031232
v 0.299827 0.230931 0.031269
v 0.295068 0.232859 0.031299
v 0.290537 0.235397 0.031330
v 0.291468 0.237892 0.030786
v 0.296269 0.236082 0.030742
v 0.301069 0.234272 0.030699
v 0.305870 0.232462 0.030656
vn 0.0042 -0.0259 -0.9996
vn 0.0693 0.1566 -0.9852
vn 0.0980 0.1979 -0.9753
vn 0.0117 -0.0359 -0.9993
vn -0.0640 -0.2065 -0.9763
vn -0.0726 -0.2603 -0.9628
vn -0.0356 -0.0013 -0.9994
vn 0.0465 0.2147 -0.9756
vn 0.0391 0.1769 -0.9834
vn -0.0301 -0.0037 -0.9995
vn 0.0337 0.1340 -0.9904
vn -0.0200 -0.0089 -0.9998
vn 0.0410 0.1244 -0.9914
vn -0.0099 -0.0158 -0.9998
vn -0.1156 -0.2168 -0.9693
vn -0.0967 -0.1843 -0.9781
vn -0.0726 -0.1517 -0.9857
vn -0.0611 -0.1556 -0.9859
usemtl feather_002
s 1
f 18//1 10//2 3//3 6//4
f 11//5 18//1 6//4 4//6
f 5//7 1//8 7//9 15//10
f 15//10 7//9 8//11 16//12
f 16//12 8//11 9//13 17//14
f 17//14 9//13 10//2 18//1
f 2//15 5//7 15//10 14//16
f 14//16 15//10 16//12 13//17
f 13//17 16//12 17//14 12//18
f 12//18 17//14 18//1 11//5
