# Blender v2.79 (sub 0) OBJ File: 'rooster_base_mesh_BI.blend'
# www.blender.org
mtllib rooster_feather_flight_tertiary_012.mtl
o feather_flight_tertiary_012
v 0.150286 0.239010 0.033312
v 0.144853 0.238419 0.033312
v 0.151455 0.219080 0.033318
v 0.147971 0.218732 0.033306
v 0.147459 0.239727 0.033814
v 0.149963 0.216692 0.033814
v 0.152127 0.235816 0.033312
v 0.153573 0.231553 0.033313
v 0.153851 0.227158 0.033316
v 0.153014 0.222641 0.033319
v 0.145667 0.221878 0.033305
v 0.143885 0.226094 0.033308
v 0.143233 0.230433 0.033311
v 0.143741 0.234905 0.033312
v 0.147932 0.235360 0.033814
v 0.148394 0.230992 0.033814
v 0.148860 0.226625 0.033814
v 0.149337 0.222259 0.033814
vn -0.0008 0.0305 -0.9995
vn -0.1451 0.0101 -0.9893
vn -0.1987 0.0204 -0.9798
vn -0.0031 0.0437 -0.9990
vn 0.1428 0.0429 -0.9888
vn 0.1949 0.0654 -0.9786
vn 0.0031 -0.0282 -0.9996
vn -0.1429 -0.0437 -0.9887
vn -0.1192 -0.0312 -0.9924
vn 0.0022 -0.0200 -0.9998
vn -0.1001 -0.0154 -0.9948
vn 0.0009 -0.0048 -1.0000
vn -0.1045 -0.0029 -0.9945
vn 0.0001 0.0097 -0.9999
vn 0.1491 -0.0121 -0.9887
vn 0.1235 -0.0050 -0.9923
vn 0.1019 0.0066 -0.9948
vn 0.1046 0.0205 -0.9943
usemtl feather_002
s 1
f 18//1 10//2 3//3 6//4
f 11//5 18//1 6//4 4//6
f 5//7 1//8 7//9 15//10
f 15//10 7//9 8//11 16//12
f 16//12 8//11 9//13 17//14
f 17//14 9//13 10//2 18//1
f 2//15 5//7 15//10 14//16
f 14//16 15//10 16//12 13//17
f 13//17 16//12 17//14 12//18
f 12//18 17//14 18//1 11//5
