# Blender v2.79 (sub 0) OBJ File: 'rooster_base_mesh_BI.blend'
# www.blender.org
mtllib rooster_feather_flight_primary_012.mtl
o feather_flight_primary_012
v 0.234809 0.238803 0.032044
v 0.226631 0.232861 0.032044
v 0.291103 0.164457 0.032044
v 0.279942 0.156348 0.032044
v 0.227919 0.239687 0.032546
v 0.291654 0.151964 0.032546
v 0.246313 0.227646 0.032044
v 0.260263 0.212376 0.032044
v 0.273538 0.196615 0.032044
v 0.285287 0.179746 0.032044
v 0.267199 0.166605 0.032044
v 0.254786 0.182991 0.032044
v 0.243899 0.200487 0.032044
v 0.233687 0.218473 0.032044
v 0.240000 0.223059 0.032546
v 0.252081 0.206431 0.032546
v 0.264162 0.189803 0.032546
v 0.276243 0.173175 0.032546
vn -0.0019 0.0026 -1.0000
vn -0.0428 -0.0274 -0.9987
vn -0.0511 -0.0297 -0.9982
vn -0.0035 0.0049 -1.0000
vn 0.0393 0.0322 -0.9987
vn 0.0441 0.0394 -0.9982
vn 0.0035 -0.0049 -1.0000
vn -0.0612 -0.0519 -0.9968
vn -0.0515 -0.0429 -0.9977
vn 0.0027 -0.0037 -1.0000
vn -0.0397 -0.0317 -0.9987
vn 0.0014 -0.0019 -1.0000
vn -0.0361 -0.0270 -0.9990
vn 0.0003 -0.0005 -1.0000
vn 0.0683 0.0421 -0.9968
vn 0.0567 0.0357 -0.9977
vn 0.0425 0.0279 -0.9987
vn 0.0368 0.0260 -0.9990
usemtl feather_005
s 1
f 18//1 10//2 3//3 6//4
f 11//5 18//1 6//4 4//6
f 5//7 1//8 7//9 15//10
f 15//10 7//9 8//11 16//12
f 16//12 8//11 9//13 17//14
f 17//14 9//13 10//2 18//1
f 2//15 5//7 15//10 14//16
f 14//16 15//10 16//12 13//17
f 13//17 16//12 17//14 12//18
f 12//18 17//14 18//1 11//5
