# Blender v2.79 (sub 0) OBJ File: 'rooster_base_mesh_BI.blend'
# www.blender.org
mtllib rooster_feather_tail_primary_004.mtl
o feather_tail_primary_004
v 0.024556 0.250709 -0.130570
v 0.021728 0.243684 -0.130395
v 0.089222 0.221570 -0.234431
v 0.086762 0.215458 -0.234279
v 0.018928 0.249008 -0.125830
v 0.091173 0.217055 -0.241547
v 0.036284 0.247708 -0.148205
v 0.051170 0.242852 -0.171140
v 0.065496 0.236604 -0.194040
v 0.079197 0.228858 -0.216917
v 0.074785 0.217899 -0.216644
v 0.059934 0.222783 -0.193696
v 0.045668 0.229181 -0.170800
v 0.031962 0.236971 -0.147938
v 0.033224 0.242685 -0.148729
v 0.047520 0.236362 -0.171627
v 0.061816 0.230039 -0.194525
v 0.076132 0.223709 -0.217408
v 0.043791 0.245439 -0.159676
v 0.038751 0.232917 -0.159365
v 0.040372 0.239524 -0.160178
v 0.058427 0.239960 -0.182596
v 0.052708 0.225751 -0.182242
v 0.054668 0.233201 -0.183076
v 0.072433 0.232946 -0.205484
v 0.067273 0.220126 -0.205165
v 0.068974 0.226874 -0.205967
v 0.084985 0.225025 -0.226836
v 0.027734 0.245114 -0.139934
v 0.081444 0.216227 -0.226617
v 0.026768 0.240134 -0.139162
v 0.030498 0.249402 -0.139392
v 0.082338 0.220963 -0.227367
vn -0.8325 0.0571 -0.5510
vn -0.7642 0.2933 -0.5743
vn -0.7626 0.2926 -0.5768
vn -0.8380 0.0115 -0.5455
vn -0.6660 0.5094 -0.5448
vn -0.6865 0.4744 -0.5510
vn -0.7749 0.2980 -0.5573
vn -0.7763 0.2987 -0.5550
vn -0.8484 0.0432 -0.5276
vn -0.7773 0.2991 -0.5534
vn -0.8425 0.0710 -0.5340
vn -0.7738 0.2976 -0.5591
vn -0.6978 0.4530 -0.5548
vn -0.7039 0.4398 -0.5578
vn -0.7726 0.2970 -0.5611
vn -0.7713 0.2965 -0.5631
vn -0.7052 0.4348 -0.5600
vn -0.7027 0.4365 -0.5618
vn -0.7701 0.2959 -0.5651
vn -0.7688 0.2953 -0.5672
vn -0.6963 0.4448 -0.5632
vn -0.6825 0.4646 -0.5642
vn -0.7669 0.2945 -0.5702
vn -0.8266 0.1331 -0.5468
vn -0.8218 0.1467 -0.5505
vn -0.8193 0.1512 -0.5530
vn -0.8188 0.1482 -0.5546
vn -0.8200 0.1377 -0.5555
vn -0.8237 0.1138 -0.5555
vn -0.8331 0.1100 -0.5420
vn -0.6496 0.5118 -0.5623
vn -0.6510 0.5337 -0.5398
vn -0.6218 0.5487 -0.5588
usemtl feather_002
s 1
f 30//1 33//2 6//3 4//4
f 32//5 7//6 15//7 29//8
f 2//9 5//10 29//8 31//11
f 21//12 19//13 8//14 16//15
f 24//16 22//17 9//18 17//19
f 27//20 25//21 10//22 18//23
f 20//24 21//12 16//15 13//25
f 23//26 24//16 17//19 12//27
f 26//28 27//20 18//23 11//29
f 15//7 7//6 19//13 21//12
f 14//30 15//7 21//12 20//24
f 16//15 8//14 22//17 24//16
f 13//25 16//15 24//16 23//26
f 17//19 9//18 25//21 27//20
f 12//27 17//19 27//20 26//28
f 18//23 10//22 28//31 33//2
f 11//29 18//23 33//2 30//1
f 5//10 1//32 32//5 29//8
f 14//30 31//11 29//8 15//7
f 33//2 28//31 3//33 6//3
