# Blender v2.79 (sub 0) OBJ File: 'rooster_base_mesh_BI.blend'
# www.blender.org
mtllib rooster_feather_tail_primary_003.mtl
o feather_tail_primary_003
v 0.002073 0.260903 -0.119619
v -0.000753 0.251900 -0.119200
v 0.002083 0.252972 -0.276250
v -0.000376 0.245138 -0.275886
v -0.000737 0.257212 -0.111425
v -0.000521 0.249027 -0.285946
v 0.002852 0.262038 -0.146257
v 0.003485 0.262298 -0.180879
v 0.003558 0.260775 -0.215418
v 0.002995 0.257331 -0.249867
v -0.001415 0.243286 -0.249214
v -0.002002 0.243063 -0.214594
v -0.002015 0.244778 -0.180064
v -0.001467 0.248278 -0.145617
v -0.000694 0.255592 -0.145959
v -0.000652 0.253973 -0.180494
v -0.000609 0.252353 -0.215028
v -0.000536 0.250724 -0.249562
v 0.003233 0.262372 -0.163578
v -0.001805 0.246324 -0.162831
v -0.000673 0.254782 -0.163226
v 0.003615 0.261833 -0.198162
v -0.002102 0.243624 -0.197315
v -0.000630 0.253163 -0.197761
v 0.003363 0.259328 -0.232655
v -0.001795 0.242899 -0.231891
v -0.000572 0.251538 -0.232295
v 0.002594 0.255237 -0.264814
v -0.000711 0.256214 -0.132696
v -0.000946 0.243962 -0.264289
v -0.001188 0.249841 -0.132397
v 0.002540 0.261718 -0.132950
v -0.000528 0.250023 -0.264573
vn -0.9983 0.0555 -0.0166
vn -0.9541 0.2982 -0.0285
vn -0.9540 0.2980 -0.0316
vn -0.9998 0.0092 -0.0174
vn -0.8564 0.5161 -0.0157
vn -0.8768 0.4805 -0.0165
vn -0.9542 0.2991 -0.0079
vn -0.9541 0.2993 -0.0052
vn -0.9993 0.0367 0.0086
vn -0.9541 0.2994 -0.0032
vn -0.9978 0.0655 0.0053
vn -0.9542 0.2991 -0.0101
vn -0.8882 0.4590 -0.0177
vn -0.8949 0.4458 -0.0194
vn -0.9542 0.2990 -0.0125
vn -0.9542 0.2988 -0.0150
vn -0.8972 0.4411 -0.0215
vn -0.8961 0.4433 -0.0240
vn -0.9542 0.2987 -0.0173
vn -0.9542 0.2986 -0.0199
vn -0.8914 0.4523 -0.0269
vn -0.8803 0.4733 -0.0314
vn -0.9541 0.2984 -0.0235
vn -0.9915 0.1302 -0.0024
vn -0.9895 0.1446 -0.0054
vn -0.9887 0.1496 -0.0080
vn -0.9891 0.1469 -0.0102
vn -0.9905 0.1366 -0.0122
vn -0.9935 0.1128 -0.0146
vn -0.9943 0.1061 0.0009
vn -0.8516 0.5227 -0.0383
vn -0.8410 0.5407 -0.0148
vn -0.8265 0.5613 -0.0431
usemtl feather_002
s 1
f 30//1 33//2 6//3 4//4
f 32//5 7//6 15//7 29//8
f 2//9 5//10 29//8 31//11
f 21//12 19//13 8//14 16//15
f 24//16 22//17 9//18 17//19
f 27//20 25//21 10//22 18//23
f 20//24 21//12 16//15 13//25
f 23//26 24//16 17//19 12//27
f 26//28 27//20 18//23 11//29
f 15//7 7//6 19//13 21//12
f 14//30 15//7 21//12 20//24
f 16//15 8//14 22//17 24//16
f 13//25 16//15 24//16 23//26
f 17//19 9//18 25//21 27//20
f 12//27 17//19 27//20 26//28
f 18//23 10//22 28//31 33//2
f 11//29 18//23 33//2 30//1
f 5//10 1//32 32//5 29//8
f 14//30 31//11 29//8 15//7
f 33//2 28//31 3//33 6//3
