# Blender v2.79 (sub 0) OBJ File: 'rooster_base_mesh_BI.blend'
# www.blender.org
mtllib rooster_feather_flight_tertiary_048.mtl
o feather_flight_tertiary_048
v 0.179388 0.239176 0.031333
v 0.174602 0.238188 0.031318
v 0.183125 0.218675 0.031209
v 0.179553 0.217671 0.031179
v 0.176777 0.239727 0.030830
v 0.181721 0.215863 0.030678
v 0.181409 0.235970 0.031315
v 0.183314 0.231658 0.031290
v 0.184303 0.227203 0.031266
v 0.184214 0.222543 0.031239
v 0.177184 0.220771 0.031193
v 0.175185 0.225154 0.031224
v 0.174086 0.229721 0.031258
v 0.174021 0.234445 0.031291
v 0.177719 0.235204 0.030801
v 0.178768 0.230693 0.030772
v 0.179813 0.226183 0.030743
v 0.180733 0.221657 0.030714
vn 0.0147 -0.0171 -0.9997
vn 0.1562 0.0127 -0.9876
vn 0.2082 0.0045 -0.9781
vn 0.0045 -0.0310 -0.9995
vn -0.1374 -0.0423 -0.9896
vn -0.1784 -0.0618 -0.9820
vn -0.0038 0.0332 -0.9994
vn 0.1568 0.0661 -0.9854
vn 0.1321 0.0533 -0.9898
vn -0.0024 0.0258 -0.9996
vn 0.1112 0.0370 -0.9931
vn 0.0023 0.0129 -0.9999
vn 0.1162 0.0245 -0.9929
vn 0.0071 0.0006 -1.0000
vn -0.1640 -0.0005 -0.9864
vn -0.1347 -0.0044 -0.9908
vn -0.1067 -0.0121 -0.9942
vn -0.1045 -0.0225 -0.9943
usemtl feather_002
s 1
f 18//1 10//2 3//3 6//4
f 11//5 18//1 6//4 4//6
f 5//7 1//8 7//9 15//10
f 15//10 7//9 8//11 16//12
f 16//12 8//11 9//13 17//14
f 17//14 9//13 10//2 18//1
f 2//15 5//7 15//10 14//16
f 14//16 15//10 16//12 13//17
f 13//17 16//12 17//14 12//18
f 12//18 17//14 18//1 11//5
