# Blender v2.79 (sub 0) OBJ File: 'rooster_base_mesh_BI.blend'
# www.blender.org
mtllib rooster_feather_flight_tertiary_019.mtl
o feather_flight_tertiary_019
v 0.200113 0.239129 0.033311
v 0.195309 0.238235 0.033327
v 0.203367 0.218417 0.033444
v 0.199750 0.217746 0.033456
v 0.197513 0.239731 0.033815
v 0.201990 0.215773 0.033967
v 0.202071 0.235884 0.033329
v 0.203845 0.231515 0.033355
v 0.204646 0.226964 0.033384
v 0.204454 0.222229 0.033416
v 0.197360 0.220911 0.033439
v 0.195472 0.225258 0.033414
v 0.194577 0.229790 0.033385
v 0.194654 0.234503 0.033353
v 0.198361 0.235190 0.033843
v 0.199210 0.230648 0.033872
v 0.200059 0.226107 0.033901
v 0.200907 0.221566 0.033930
vn -0.0066 0.0185 -0.9998
vn -0.1532 -0.0119 -0.9881
vn -0.2018 -0.0065 -0.9794
vn -0.0090 0.0302 -0.9995
vn 0.1411 0.0431 -0.9890
vn 0.1846 0.0657 -0.9806
vn 0.0031 -0.0332 -0.9994
vn -0.1580 -0.0628 -0.9854
vn -0.1327 -0.0493 -0.9899
vn 0.0017 -0.0258 -0.9996
vn -0.1107 -0.0323 -0.9933
vn -0.0009 -0.0123 -0.9999
vn -0.1141 -0.0208 -0.9932
vn -0.0032 0.0004 -1.0000
vn 0.1642 -0.0027 -0.9864
vn 0.1356 0.0007 -0.9908
vn 0.1088 0.0086 -0.9940
vn 0.1079 0.0206 -0.9939
usemtl feather_002
s 1
f 18//1 10//2 3//3 6//4
f 11//5 18//1 6//4 4//6
f 5//7 1//8 7//9 15//10
f 15//10 7//9 8//11 16//12
f 16//12 8//11 9//13 17//14
f 17//14 9//13 10//2 18//1
f 2//15 5//7 15//10 14//16
f 14//16 15//10 16//12 13//17
f 13//17 16//12 17//14 12//18
f 12//18 17//14 18//1 11//5
