# Blender v2.79 (sub 0) OBJ File: 'rooster_base_mesh_BI.blend'
# www.blender.org
mtllib rooster_feather_flight_secondary_025.mtl
o feather_flight_secondary_025
v 0.191495 0.238506 0.031895
v 0.183319 0.236324 0.031889
v 0.203109 0.193175 0.031805
v 0.195901 0.191205 0.031796
v 0.186790 0.239725 0.031395
v 0.200837 0.187124 0.031288
v 0.195763 0.231441 0.031881
v 0.200294 0.221969 0.031862
v 0.203468 0.212143 0.031843
v 0.204386 0.201722 0.031823
v 0.190560 0.197982 0.031809
v 0.186124 0.207496 0.031829
v 0.183936 0.217602 0.031850
v 0.183142 0.228071 0.031871
v 0.189452 0.229755 0.031374
v 0.192117 0.219785 0.031354
v 0.194807 0.209821 0.031334
v 0.197480 0.199853 0.031314
vn 0.0034 -0.0083 -0.9999
vn 0.0774 0.0125 -0.9969
vn 0.1008 0.0119 -0.9948
vn 0.0044 -0.0136 -0.9999
vn -0.0715 -0.0270 -0.9971
vn -0.0914 -0.0388 -0.9951
vn -0.0029 0.0137 -0.9999
vn 0.0894 0.0383 -0.9952
vn 0.0742 0.0309 -0.9967
vn -0.0021 0.0109 -0.9999
vn 0.0589 0.0216 -0.9980
vn -0.0008 0.0058 -1.0000
vn 0.0584 0.0157 -0.9981
vn 0.0009 0.0002 -1.0000
vn -0.0952 -0.0109 -0.9954
vn -0.0783 -0.0099 -0.9969
vn -0.0603 -0.0103 -0.9981
vn -0.0568 -0.0151 -0.9983
usemtl feather_003
s 1
f 18//1 10//2 3//3 6//4
f 11//5 18//1 6//4 4//6
f 5//7 1//8 7//9 15//10
f 15//10 7//9 8//11 16//12
f 16//12 8//11 9//13 17//14
f 17//14 9//13 10//2 18//1
f 2//15 5//7 15//10 14//16
f 14//16 15//10 16//12 13//17
f 13//17 16//12 17//14 12//18
f 12//18 17//14 18//1 11//5
