# Blender v2.79 (sub 0) OBJ File: 'rooster_base_mesh_BI.blend'
# www.blender.org
mtllib rooster_feather_flight_secondary_014.mtl
o feather_flight_secondary_014
v 0.261824 0.241394 0.032741
v 0.256817 0.234644 0.032595
v 0.306522 0.207820 0.032571
v 0.302025 0.201807 0.032429
v 0.257028 0.239727 0.033180
v 0.309313 0.201115 0.032986
v 0.270797 0.237607 0.032752
v 0.281852 0.231831 0.032749
v 0.292327 0.225270 0.032729
v 0.301092 0.216386 0.032663
v 0.292217 0.204467 0.032394
v 0.281175 0.210239 0.032402
v 0.271836 0.218326 0.032456
v 0.263069 0.227187 0.032526
v 0.266939 0.232408 0.033143
v 0.276849 0.225089 0.033106
v 0.286755 0.217763 0.033069
v 0.296658 0.210435 0.033032
vn 0.0006 0.0219 -0.9998
vn -0.0434 -0.0396 -0.9983
vn -0.0609 -0.0539 -0.9967
vn -0.0031 0.0249 -0.9997
vn 0.0458 0.0819 -0.9956
vn 0.0546 0.1034 -0.9931
vn 0.0161 0.0097 -0.9998
vn -0.0415 -0.0683 -0.9968
vn -0.0339 -0.0533 -0.9980
vn 0.0139 0.0109 -0.9998
vn -0.0258 -0.0361 -0.9990
vn 0.0108 0.0134 -0.9998
vn -0.0275 -0.0304 -0.9991
vn 0.0070 0.0165 -0.9998
vn 0.0731 0.0870 -0.9935
vn 0.0613 0.0756 -0.9952
vn 0.0473 0.0631 -0.9969
vn 0.0415 0.0633 -0.9971
usemtl feather_003
s 1
f 18//1 10//2 3//3 6//4
f 11//5 18//1 6//4 4//6
f 5//7 1//8 7//9 15//10
f 15//10 7//9 8//11 16//12
f 16//12 8//11 9//13 17//14
f 17//14 9//13 10//2 18//1
f 2//15 5//7 15//10 14//16
f 14//16 15//10 16//12 13//17
f 13//17 16//12 17//14 12//18
f 12//18 17//14 18//1 11//5
