# Blender v2.79 (sub 0) OBJ File: 'rooster_base_mesh_BI.blend'
# www.blender.org
mtllib rooster_feather_flight_tertiary_064.mtl
o feather_flight_tertiary_064
v 0.297226 0.241483 0.031292
v 0.296407 0.237422 0.031355
v 0.319740 0.235774 0.031069
v 0.319338 0.233677 0.031205
v 0.295662 0.239703 0.030829
v 0.322088 0.234204 0.030612
v 0.301296 0.241787 0.031244
v 0.306491 0.241666 0.031188
v 0.311475 0.240518 0.031128
v 0.316200 0.238104 0.031072
v 0.315184 0.232952 0.031266
v 0.309891 0.232621 0.031292
v 0.304855 0.233553 0.031313
v 0.300032 0.235517 0.031340
v 0.300671 0.238660 0.030788
v 0.305680 0.237618 0.030747
v 0.310689 0.236575 0.030706
v 0.315698 0.235532 0.030664
vn 0.0175 -0.0377 -0.9991
vn 0.0523 0.1666 -0.9846
vn 0.0826 0.2387 -0.9675
vn 0.0260 -0.0583 -0.9980
vn -0.0228 -0.2382 -0.9709
vn -0.0291 -0.3316 -0.9429
vn -0.0346 -0.0068 -0.9994
vn 0.0051 0.1819 -0.9833
vn 0.0048 0.1484 -0.9889
vn -0.0289 -0.0087 -0.9995
vn 0.0089 0.1136 -0.9935
vn -0.0166 -0.0128 -0.9998
vn 0.0217 0.1116 -0.9935
vn -0.0015 -0.0217 -0.9998
vn -0.0731 -0.1958 -0.9779
vn -0.0602 -0.1655 -0.9843
vn -0.0412 -0.1392 -0.9894
vn -0.0264 -0.1536 -0.9878
usemtl feather_002
s 1
f 18//1 10//2 3//3 6//4
f 11//5 18//1 6//4 4//6
f 5//7 1//8 7//9 15//10
f 15//10 7//9 8//11 16//12
f 16//12 8//11 9//13 17//14
f 17//14 9//13 10//2 18//1
f 2//15 5//7 15//10 14//16
f 14//16 15//10 16//12 13//17
f 13//17 16//12 17//14 12//18
f 12//18 17//14 18//1 11//5
