# Blender v2.79 (sub 0) OBJ File: 'rooster_base_mesh_BI.blend'
# www.blender.org
mtllib rooster_feather_tail_primary_015.mtl
o feather_tail_primary_015
v 0.011215 0.232805 -0.147892
v 0.010050 0.224545 -0.144620
v 0.056135 0.174605 -0.277236
v 0.055122 0.167418 -0.274389
v 0.007031 0.231626 -0.140089
v 0.057157 0.167387 -0.284417
v 0.019143 0.225223 -0.170695
v 0.029305 0.214236 -0.199938
v 0.039236 0.201613 -0.228533
v 0.048889 0.187219 -0.256436
v 0.047072 0.174333 -0.251332
v 0.036944 0.185362 -0.222096
v 0.027038 0.198162 -0.193571
v 0.017362 0.212598 -0.165694
v 0.016950 0.218914 -0.168648
v 0.026869 0.206203 -0.197208
v 0.036788 0.193491 -0.225768
v 0.046736 0.180780 -0.254318
v 0.024250 0.219916 -0.185390
v 0.022173 0.205193 -0.179558
v 0.021910 0.212559 -0.182928
v 0.034309 0.208197 -0.214343
v 0.031953 0.191490 -0.207725
v 0.031829 0.199847 -0.211488
v 0.044098 0.194668 -0.242584
v 0.041972 0.179595 -0.236614
v 0.041762 0.187135 -0.240043
v 0.053036 0.180423 -0.268342
v 0.013140 0.223797 -0.157679
v 0.051577 0.170078 -0.264244
v 0.013674 0.218344 -0.155067
v 0.015211 0.229241 -0.159383
v 0.051037 0.175254 -0.266736
vn -0.9434 -0.2282 -0.2407
vn -0.9401 -0.0024 -0.3408
vn -0.9391 -0.0036 -0.3435
vn -0.9366 -0.2704 -0.2230
vn -0.8896 0.2243 -0.3978
vn -0.9024 0.1865 -0.3883
vn -0.9464 0.0056 -0.3229
vn -0.9472 0.0067 -0.3205
vn -0.9485 -0.2365 -0.2109
vn -0.9478 0.0074 -0.3187
vn -0.9511 -0.2115 -0.2252
vn -0.9458 0.0047 -0.3247
vn -0.9091 0.1637 -0.3829
vn -0.9126 0.1494 -0.3805
vn -0.9450 0.0038 -0.3269
vn -0.9443 0.0029 -0.3290
vn -0.9133 0.1438 -0.3809
vn -0.9119 0.1452 -0.3838
vn -0.9436 0.0020 -0.3310
vn -0.9428 0.0009 -0.3333
vn -0.9083 0.1536 -0.3891
vn -0.9001 0.1739 -0.3993
vn -0.9417 -0.0004 -0.3364
vn -0.9540 -0.1543 -0.2569
vn -0.9537 -0.1419 -0.2651
vn -0.9531 -0.1381 -0.2693
vn -0.9523 -0.1413 -0.2702
vn -0.9513 -0.1517 -0.2682
vn -0.9493 -0.1747 -0.2612
vn -0.9535 -0.1756 -0.2449
vn -0.8796 0.2237 -0.4197
vn -0.8797 0.2509 -0.4039
vn -0.8612 0.2635 -0.4345
usemtl feather_005
s 1
f 30//1 33//2 6//3 4//4
f 32//5 7//6 15//7 29//8
f 2//9 5//10 29//8 31//11
f 21//12 19//13 8//14 16//15
f 24//16 22//17 9//18 17//19
f 27//20 25//21 10//22 18//23
f 20//24 21//12 16//15 13//25
f 23//26 24//16 17//19 12//27
f 26//28 27//20 18//23 11//29
f 15//7 7//6 19//13 21//12
f 14//30 15//7 21//12 20//24
f 16//15 8//14 22//17 24//16
f 13//25 16//15 24//16 23//26
f 17//19 9//18 25//21 27//20
f 12//27 17//19 27//20 26//28
f 18//23 10//22 28//31 33//2
f 11//29 18//23 33//2 30//1
f 5//10 1//32 32//5 29//8
f 14//30 31//11 29//8 15//7
f 33//2 28//31 3//33 6//3
