# Blender v2.79 (sub 0) OBJ File: 'rooster_base_mesh_BI.blend'
# www.blender.org
mtllib rooster_feather_flight_secondary_026.mtl
o feather_flight_secondary_026
v 0.205718 0.239013 0.031894
v 0.197909 0.236034 0.031878
v 0.221885 0.195944 0.031700
v 0.215116 0.192872 0.031679
v 0.200971 0.239727 0.031394
v 0.220142 0.189524 0.031165
v 0.210632 0.232513 0.031865
v 0.216050 0.223678 0.031825
v 0.220299 0.214463 0.031784
v 0.222367 0.204507 0.031740
v 0.209332 0.199001 0.031705
v 0.203852 0.208005 0.031748
v 0.200427 0.217718 0.031794
v 0.198577 0.227914 0.031841
v 0.204605 0.230211 0.031351
v 0.208271 0.220703 0.031308
v 0.212185 0.211259 0.031264
v 0.215916 0.201768 0.031221
vn 0.0068 -0.0046 -0.9999
vn 0.0775 0.0229 -0.9967
vn 0.1023 0.0229 -0.9945
vn 0.0033 -0.0116 -0.9999
vn -0.0688 -0.0314 -0.9971
vn -0.0876 -0.0433 -0.9952
vn -0.0042 0.0161 -0.9998
vn 0.0862 0.0505 -0.9950
vn 0.0718 0.0415 -0.9966
vn -0.0031 0.0133 -0.9999
vn 0.0574 0.0313 -0.9978
vn -0.0012 0.0082 -0.9999
vn 0.0579 0.0257 -0.9980
vn 0.0020 0.0032 -1.0000
vn -0.0945 -0.0185 -0.9953
vn -0.0775 -0.0157 -0.9969
vn -0.0590 -0.0148 -0.9981
vn -0.0546 -0.0193 -0.9983
usemtl feather_003
s 1
f 18//1 10//2 3//3 6//4
f 11//5 18//1 6//4 4//6
f 5//7 1//8 7//9 15//10
f 15//10 7//9 8//11 16//12
f 16//12 8//11 9//13 17//14
f 17//14 9//13 10//2 18//1
f 2//15 5//7 15//10 14//16
f 14//16 15//10 16//12 13//17
f 13//17 16//12 17//14 12//18
f 12//18 17//14 18//1 11//5
