# Blender v2.79 (sub 0) OBJ File: 'rooster_base_mesh_BI.blend'
# www.blender.org
mtllib rooster_feather_flight_tertiary_039.mtl
o feather_flight_tertiary_039
v 0.114582 0.238854 0.031333
v 0.109246 0.238668 0.031333
v 0.114042 0.219994 0.031333
v 0.111194 0.219740 0.031333
v 0.111880 0.239727 0.030831
v 0.112647 0.217754 0.030831
v 0.116144 0.235705 0.031333
v 0.117345 0.231583 0.031333
v 0.117272 0.227445 0.031333
v 0.115910 0.223273 0.031333
v 0.109172 0.222861 0.031333
v 0.107493 0.227018 0.031333
v 0.107029 0.231210 0.031333
v 0.107907 0.235418 0.031333
v 0.112029 0.235562 0.030831
v 0.112232 0.231397 0.030831
v 0.112430 0.227232 0.030831
v 0.112566 0.223067 0.030831
vn 0.0055 -0.0374 -0.9993
vn 0.1595 -0.0282 -0.9868
vn 0.2306 -0.0479 -0.9719
vn -0.0040 -0.0531 -0.9986
vn -0.1558 -0.0365 -0.9871
vn -0.2219 -0.0553 -0.9735
vn -0.0010 0.0299 -0.9995
vn 0.1492 0.0349 -0.9882
vn 0.1236 0.0247 -0.9920
vn -0.0009 0.0217 -0.9998
vn 0.1036 0.0093 -0.9946
vn 0.0006 0.0052 -1.0000
vn 0.1098 -0.0068 -0.9939
vn 0.0021 -0.0126 -0.9999
vn -0.1511 0.0242 -0.9882
vn -0.1243 0.0147 -0.9921
vn -0.1025 -0.0000 -0.9947
vn -0.1068 -0.0155 -0.9941
usemtl feather_002
s 1
f 18//1 10//2 3//3 6//4
f 11//5 18//1 6//4 4//6
f 5//7 1//8 7//9 15//10
f 15//10 7//9 8//11 16//12
f 16//12 8//11 9//13 17//14
f 17//14 9//13 10//2 18//1
f 2//15 5//7 15//10 14//16
f 14//16 15//10 16//12 13//17
f 13//17 16//12 17//14 12//18
f 12//18 17//14 18//1 11//5
