# Blender v2.79 (sub 0) OBJ File: 'rooster_base_mesh_BI.blend'
# www.blender.org
mtllib rooster_feather_flight_tertiary_018.mtl
o feather_flight_tertiary_018
v 0.193494 0.239167 0.033312
v 0.188094 0.238078 0.033322
v 0.196915 0.217406 0.033407
v 0.193434 0.216646 0.033409
v 0.190571 0.239724 0.033814
v 0.195644 0.214604 0.033921
v 0.195701 0.235806 0.033324
v 0.197795 0.231274 0.033343
v 0.198659 0.226506 0.033364
v 0.198207 0.221477 0.033388
v 0.190694 0.219896 0.033397
v 0.188305 0.224388 0.033381
v 0.187203 0.229135 0.033362
v 0.187365 0.234124 0.033340
v 0.191532 0.234962 0.033834
v 0.192512 0.230204 0.033854
v 0.193498 0.225447 0.033874
v 0.194459 0.220686 0.033895
vn -0.0070 0.0234 -0.9997
vn -0.1426 -0.0074 -0.9897
vn -0.1975 -0.0023 -0.9803
vn -0.0064 0.0360 -0.9993
vn 0.1318 0.0477 -0.9901
vn 0.1807 0.0720 -0.9809
vn 0.0042 -0.0296 -0.9995
vn -0.1387 -0.0581 -0.9886
vn -0.1154 -0.0455 -0.9922
vn 0.0029 -0.0230 -0.9997
vn -0.0961 -0.0292 -0.9949
vn 0.0000 -0.0099 -0.9999
vn -0.1011 -0.0170 -0.9947
vn -0.0029 0.0041 -1.0000
vn 0.1470 -0.0004 -0.9891
vn 0.1203 0.0024 -0.9927
vn 0.0960 0.0104 -0.9953
vn 0.0959 0.0236 -0.9951
usemtl feather_002
s 1
f 18//1 10//2 3//3 6//4
f 11//5 18//1 6//4 4//6
f 5//7 1//8 7//9 15//10
f 15//10 7//9 8//11 16//12
f 16//12 8//11 9//13 17//14
f 17//14 9//13 10//2 18//1
f 2//15 5//7 15//10 14//16
f 14//16 15//10 16//12 13//17
f 13//17 16//12 17//14 12//18
f 12//18 17//14 18//1 11//5
