# Blender v2.79 (sub 0) OBJ File: 'rooster_base_mesh_BI.blend'
# www.blender.org
mtllib rooster_feather_flight_tertiary_062.mtl
o feather_flight_tertiary_062
v 0.280589 0.240916 0.031290
v 0.278814 0.237317 0.031354
v 0.303093 0.229391 0.031047
v 0.301536 0.226211 0.031163
v 0.278556 0.239701 0.030829
v 0.304854 0.226541 0.030577
v 0.284901 0.239978 0.031236
v 0.290291 0.238306 0.031174
v 0.295402 0.236071 0.031112
v 0.299990 0.232780 0.031056
v 0.296982 0.226655 0.031228
v 0.291599 0.228353 0.031267
v 0.286740 0.231105 0.031301
v 0.282161 0.234422 0.031334
v 0.283540 0.237207 0.030781
v 0.288525 0.234712 0.030733
v 0.293510 0.232217 0.030685
v 0.298494 0.229723 0.030638
vn 0.0001 -0.0262 -0.9996
vn 0.0689 0.1202 -0.9904
vn 0.0986 0.1524 -0.9834
vn 0.0063 -0.0363 -0.9993
vn -0.0717 -0.1700 -0.9828
vn -0.0836 -0.2179 -0.9724
vn -0.0343 0.0008 -0.9994
vn 0.0552 0.1788 -0.9823
vn 0.0455 0.1462 -0.9882
vn -0.0296 -0.0020 -0.9995
vn 0.0366 0.1089 -0.9933
vn -0.0214 -0.0071 -0.9997
vn 0.0415 0.0981 -0.9943
vn -0.0127 -0.0143 -0.9998
vn -0.1225 -0.1772 -0.9765
vn -0.1026 -0.1505 -0.9832
vn -0.0785 -0.1233 -0.9893
vn -0.0672 -0.1263 -0.9897
usemtl feather_002
s 1
f 18//1 10//2 3//3 6//4
f 11//5 18//1 6//4 4//6
f 5//7 1//8 7//9 15//10
f 15//10 7//9 8//11 16//12
f 16//12 8//11 9//13 17//14
f 17//14 9//13 10//2 18//1
f 2//15 5//7 15//10 14//16
f 14//16 15//10 16//12 13//17
f 13//17 16//12 17//14 12//18
f 12//18 17//14 18//1 11//5
