# Blender v2.79 (sub 0) OBJ File: 'rooster_base_mesh_BI.blend'
# www.blender.org
mtllib rooster_feather_flight_tertiary_025.mtl
o feather_flight_tertiary_025
v 0.241062 0.239820 0.033322
v 0.237528 0.237606 0.033302
v 0.252572 0.220487 0.033323
v 0.249901 0.218814 0.033307
v 0.238687 0.239689 0.033813
v 0.252573 0.217519 0.033817
v 0.244045 0.237193 0.033328
v 0.247470 0.233488 0.033333
v 0.250148 0.229315 0.033334
v 0.251906 0.224565 0.033330
v 0.246522 0.221192 0.033299
v 0.243014 0.224846 0.033293
v 0.240428 0.229077 0.033293
v 0.238589 0.233776 0.033297
v 0.241319 0.235486 0.033814
v 0.243951 0.231284 0.033815
v 0.246583 0.227082 0.033815
v 0.249215 0.222879 0.033816
vn -0.0094 0.0237 -0.9997
vn -0.1527 -0.0691 -0.9858
vn -0.2052 -0.0868 -0.9749
vn -0.0151 0.0333 -0.9993
vn 0.1366 0.1120 -0.9843
vn 0.1752 0.1514 -0.9728
vn 0.0173 -0.0190 -0.9997
vn -0.1451 -0.1202 -0.9821
vn -0.1212 -0.0971 -0.9879
vn 0.0139 -0.0138 -0.9998
vn -0.0999 -0.0702 -0.9925
vn 0.0076 -0.0034 -0.9999
vn -0.1064 -0.0595 -0.9925
vn 0.0004 0.0081 -0.9999
vn 0.1787 0.0827 -0.9804
vn 0.1478 0.0714 -0.9864
vn 0.1145 0.0641 -0.9913
vn 0.1078 0.0747 -0.9913
usemtl feather_002
s 1
f 18//1 10//2 3//3 6//4
f 11//5 18//1 6//4 4//6
f 5//7 1//8 7//9 15//10
f 15//10 7//9 8//11 16//12
f 16//12 8//11 9//13 17//14
f 17//14 9//13 10//2 18//1
f 2//15 5//7 15//10 14//16
f 14//16 15//10 16//12 13//17
f 13//17 16//12 17//14 12//18
f 12//18 17//14 18//1 11//5
