# Blender v2.79 (sub 0) OBJ File: 'rooster_base_mesh_BI.blend'
# www.blender.org
mtllib rooster_feather_tail_primary_007.mtl
o feather_tail_primary_007
v 0.009239 0.256893 -0.146048
v 0.007801 0.245936 -0.146567
v 0.064706 0.257170 -0.321183
v 0.063454 0.247636 -0.321634
v 0.004073 0.251599 -0.137867
v 0.065968 0.252700 -0.332934
v 0.019028 0.259956 -0.175562
v 0.031576 0.262462 -0.214054
v 0.043839 0.262797 -0.252648
v 0.055759 0.260788 -0.291365
v 0.053514 0.243693 -0.292174
v 0.041009 0.241238 -0.253668
v 0.028776 0.241138 -0.215062
v 0.016829 0.243208 -0.176354
v 0.016321 0.251817 -0.176467
v 0.028568 0.252035 -0.215067
v 0.040816 0.252253 -0.253667
v 0.053100 0.252465 -0.292256
v 0.025334 0.261457 -0.194796
v 0.022770 0.241924 -0.195720
v 0.022444 0.251926 -0.195767
v 0.037755 0.262991 -0.233334
v 0.034845 0.240827 -0.234382
v 0.034692 0.252144 -0.234367
v 0.049843 0.262128 -0.271991
v 0.047218 0.242131 -0.272937
v 0.046958 0.252359 -0.272961
v 0.060879 0.259194 -0.308217
v 0.011616 0.251733 -0.161642
v 0.059077 0.245471 -0.308867
v 0.012275 0.244270 -0.161475
v 0.014173 0.258726 -0.160791
v 0.058410 0.252562 -0.309038
vn -0.9434 -0.1088 -0.3133
vn -0.9401 0.1382 -0.3115
vn -0.9391 0.1382 -0.3145
vn -0.9366 -0.1546 -0.3146
vn -0.8896 0.3682 -0.2701
vn -0.9024 0.3299 -0.2770
vn -0.9464 0.1380 -0.2919
vn -0.9472 0.1380 -0.2893
vn -0.9485 -0.1287 -0.2896
vn -0.9478 0.1380 -0.2874
vn -0.9511 -0.0999 -0.2923
vn -0.9458 0.1381 -0.2940
vn -0.9091 0.3068 -0.2815
vn -0.9126 0.2928 -0.2852
vn -0.9450 0.1381 -0.2963
vn -0.9443 0.1381 -0.2986
vn -0.9133 0.2879 -0.2879
vn -0.9119 0.2904 -0.2899
vn -0.9436 0.1381 -0.3009
vn -0.9428 0.1381 -0.3033
vn -0.9083 0.3002 -0.2913
vn -0.9001 0.3229 -0.2923
vn -0.9417 0.1381 -0.3068
vn -0.9540 -0.0348 -0.2977
vn -0.9537 -0.0201 -0.3000
vn -0.9531 -0.0149 -0.3023
vn -0.9523 -0.0175 -0.3045
vn -0.9513 -0.0278 -0.3069
vn -0.9493 -0.0516 -0.3100
vn -0.9535 -0.0591 -0.2954
vn -0.8796 0.3767 -0.2903
vn -0.8797 0.3950 -0.2648
vn -0.8612 0.4190 -0.2874
usemtl feather_003
s 1
f 30//1 33//2 6//3 4//4
f 32//5 7//6 15//7 29//8
f 2//9 5//10 29//8 31//11
f 21//12 19//13 8//14 16//15
f 24//16 22//17 9//18 17//19
f 27//20 25//21 10//22 18//23
f 20//24 21//12 16//15 13//25
f 23//26 24//16 17//19 12//27
f 26//28 27//20 18//23 11//29
f 15//7 7//6 19//13 21//12
f 14//30 15//7 21//12 20//24
f 16//15 8//14 22//17 24//16
f 13//25 16//15 24//16 23//26
f 17//19 9//18 25//21 27//20
f 12//27 17//19 27//20 26//28
f 18//23 10//22 28//31 33//2
f 11//29 18//23 33//2 30//1
f 5//10 1//32 32//5 29//8
f 14//30 31//11 29//8 15//7
f 33//2 28//31 3//33 6//3
