# Blender v2.79 (sub 0) OBJ File: 'turtle_base_mesh_BI.blend'
# www.blender.org
mtllib turtle_eye.mtl
o eye
v 0.055459 0.036504 0.493846
v 0.051835 0.041147 0.492184
v 0.046997 0.043922 0.489664
v 0.041681 0.044405 0.486670
v 0.036697 0.042524 0.483658
v 0.032803 0.038564 0.481087
v 0.030592 0.033129 0.479347
v 0.056658 0.036226 0.491854
v 0.054051 0.040634 0.488502
v 0.049892 0.043251 0.484854
v 0.044815 0.043679 0.481464
v 0.039592 0.041853 0.478848
v 0.035019 0.038050 0.477405
v 0.031792 0.032851 0.477355
v 0.057802 0.035086 0.490158
v 0.056164 0.038526 0.485369
v 0.052653 0.040497 0.480760
v 0.047804 0.040698 0.477032
v 0.042353 0.039099 0.474754
v 0.037132 0.035943 0.474272
v 0.032935 0.031710 0.475659
v 0.030401 0.027046 0.478704
v 0.058715 0.033256 0.489016
v 0.057853 0.035146 0.483260
v 0.054860 0.036080 0.478004
v 0.050192 0.035917 0.474050
v 0.044560 0.034682 0.471998
v 0.038821 0.032562 0.472163
v 0.033849 0.029881 0.474517
v 0.059260 0.031016 0.488603
v 0.058860 0.031007 0.482496
v 0.056175 0.030672 0.477007
v 0.051615 0.030064 0.472970
v 0.045875 0.029274 0.471001
v 0.039828 0.028423 0.471399
v 0.034394 0.027641 0.474104
v 0.059353 0.028707 0.488981
v 0.059031 0.026739 0.483195
v 0.056399 0.025097 0.477920
v 0.051858 0.024029 0.473958
v 0.046099 0.023699 0.471914
v 0.039999 0.024156 0.472098
v 0.034487 0.025332 0.474483
v 0.057316 0.030699 0.494398
v 0.058980 0.026679 0.490093
v 0.058342 0.022994 0.485249
v 0.055499 0.020203 0.480604
v 0.050883 0.018732 0.476864
v 0.045199 0.018805 0.474598
v 0.039310 0.020410 0.474153
v 0.034114 0.023304 0.475594
v 0.058198 0.025243 0.491769
v 0.056896 0.020339 0.488347
v 0.053610 0.016735 0.484650
v 0.048839 0.014978 0.481244
v 0.043310 0.015337 0.478645
v 0.037864 0.017756 0.477250
v 0.033331 0.021868 0.477270
v 0.057125 0.024616 0.493755
v 0.054915 0.019181 0.492015
v 0.051021 0.015221 0.489444
v 0.046037 0.013340 0.486432
v 0.040721 0.013823 0.483438
v 0.035883 0.016598 0.480918
v 0.032259 0.021241 0.479256
v 0.055926 0.024894 0.495747
v 0.052699 0.019695 0.495696
v 0.048125 0.015892 0.494253
v 0.042902 0.014066 0.491638
v 0.037825 0.014494 0.488248
v 0.033667 0.017111 0.484599
v 0.031060 0.021519 0.481248
v 0.054782 0.026034 0.497443
v 0.050585 0.021802 0.498830
v 0.045364 0.018646 0.498348
v 0.039914 0.017047 0.496069
v 0.035064 0.017248 0.492342
v 0.031553 0.019219 0.487733
v 0.029916 0.022659 0.482944
v 0.053869 0.027864 0.498584
v 0.048897 0.025183 0.500939
v 0.043158 0.023063 0.501103
v 0.037526 0.021827 0.499052
v 0.032858 0.021665 0.495098
v 0.029865 0.022599 0.489842
v 0.029002 0.024489 0.484085
v 0.053324 0.030104 0.498997
v 0.047890 0.029321 0.501702
v 0.041843 0.028471 0.502100
v 0.036102 0.027681 0.500131
v 0.031543 0.027072 0.496095
v 0.028858 0.026738 0.490605
v 0.028457 0.026729 0.484498
v 0.053231 0.032413 0.498619
v 0.047718 0.033589 0.501003
v 0.041618 0.034046 0.501187
v 0.035859 0.033716 0.499143
v 0.031318 0.032648 0.495182
v 0.028686 0.031005 0.489906
v 0.028364 0.029038 0.484120
v 0.053604 0.034441 0.497507
v 0.048408 0.037334 0.498949
v 0.042519 0.038940 0.498503
v 0.036834 0.039013 0.496238
v 0.032219 0.037542 0.492498
v 0.029376 0.034751 0.487852
v 0.028737 0.031065 0.483009
v 0.054386 0.035877 0.495831
v 0.049853 0.039989 0.495852
v 0.044408 0.042408 0.494457
v 0.038879 0.042767 0.491858
v 0.034108 0.041010 0.488451
v 0.030821 0.037405 0.484755
v 0.029520 0.032502 0.481332
vn -0.8412 0.2926 -0.4548
vn -0.6962 0.6309 -0.3423
vn -0.5526 0.5976 -0.5809
vn -0.7606 0.2739 -0.5885
vn -0.4499 0.8747 -0.1802
vn -0.1388 0.9903 0.0076
vn 0.0609 0.9440 -0.3243
vn -0.2647 0.8317 -0.4880
vn 0.1924 0.9619 0.1943
vn 0.4966 0.7928 0.3532
vn 0.6402 0.7595 0.1146
vn 0.3777 0.9189 -0.1134
vn 0.7292 0.5058 0.4609
vn 0.8580 0.1164 0.5003
vn 0.8098 0.4871 0.3271
vn -0.8580 -0.1164 -0.5003
vn -0.6838 0.1973 -0.7024
vn -0.0880 0.6555 -0.7500
vn -0.4156 0.4610 -0.7840
vn 0.5544 0.7427 -0.3754
vn 0.2515 0.7540 -0.6069
vn 0.8866 0.4105 0.2132
vn 0.7772 0.6229 -0.0885
vn 0.6956 0.4601 -0.5518
vn 0.4037 0.4491 -0.7970
vn 0.9479 0.2876 0.1365
vn 0.8867 0.4038 -0.2252
vn -0.3062 0.2419 -0.9207
vn -0.6225 0.0745 -0.7791
vn 0.0532 0.3729 -0.9263
vn -0.2409 -0.0263 -0.9702
vn -0.5859 -0.0759 -0.8068
vn 0.4945 0.0760 -0.8658
vn 0.1373 0.0268 -0.9901
vn 0.9519 0.1356 -0.2746
vn 0.7797 0.1140 -0.6156
vn 0.9845 0.1372 0.1088
vn 0.9631 -0.1410 -0.2293
vn 0.7941 -0.2427 -0.5571
vn 0.9908 -0.0179 0.1342
vn -0.5796 -0.2310 -0.7814
vn 0.1517 -0.3299 -0.9317
vn -0.2298 -0.3029 -0.9249
vn 0.5100 -0.3088 -0.8028
vn -0.6047 -0.3672 -0.7068
vn 0.0941 -0.6431 -0.7600
vn -0.2745 -0.5457 -0.7917
vn 0.7365 -0.5559 -0.3854
vn 0.4478 -0.6465 -0.6176
vn 0.9657 -0.1540 0.2089
vn 0.9184 -0.3838 -0.0962
vn 0.9132 -0.2505 0.3214
vn 0.8247 -0.5558 0.1045
vn -0.3682 -0.7177 -0.5910
vn -0.6572 -0.4636 -0.5942
vn 0.3175 -0.8858 -0.3383
vn -0.0268 -0.8650 -0.5010
vn 0.6156 -0.7778 -0.1264
vn -0.4966 -0.7928 -0.3532
vn -0.7292 -0.5057 -0.4609
vn 0.1388 -0.9903 -0.0076
vn -0.1924 -0.9619 -0.1943
vn 0.6962 -0.6309 0.3423
vn 0.4499 -0.8747 0.1802
vn 0.8412 -0.2926 0.4548
vn 0.7606 -0.2739 0.5885
vn -0.8098 -0.4871 -0.3271
vn -0.3777 -0.9189 0.1134
vn -0.6402 -0.7595 -0.1146
vn 0.2647 -0.8317 0.4880
vn -0.0609 -0.9440 0.3243
vn 0.5526 -0.5976 0.5809
vn -0.5544 -0.7427 0.3754
vn -0.7772 -0.6229 0.0885
vn 0.0880 -0.6555 0.7500
vn -0.2515 -0.7540 0.6069
vn 0.6838 -0.1973 0.7024
vn 0.4156 -0.4610 0.7840
vn -0.8866 -0.4105 -0.2132
vn -0.8867 -0.4038 0.2252
vn -0.9479 -0.2876 -0.1365
vn -0.4037 -0.4491 0.7970
vn -0.6956 -0.4601 0.5518
vn 0.3062 -0.2419 0.9207
vn -0.0532 -0.3729 0.9263
vn 0.6225 -0.0745 0.7791
vn -0.4945 -0.0760 0.8658
vn -0.7797 -0.1140 0.6156
vn 0.2409 0.0263 0.9702
vn -0.1373 -0.0268 0.9901
vn 0.5859 0.0759 0.8068
vn -0.9845 -0.1372 -0.1088
vn -0.9519 -0.1356 0.2746
vn -0.9908 0.0179 -0.1342
vn -0.7941 0.2427 0.5571
vn -0.9631 0.1410 0.2293
vn -0.1517 0.3299 0.9317
vn -0.5100 0.3088 0.8028
vn 0.5796 0.2310 0.7814
vn 0.2298 0.3029 0.9249
vn -0.0941 0.6431 0.7600
vn -0.4479 0.6465 0.6176
vn 0.6047 0.3672 0.7068
vn 0.2745 0.5457 0.7917
vn -0.9184 0.3838 0.0962
vn -0.9657 0.1540 -0.2089
vn -0.7365 0.5559 0.3854
vn -0.8247 0.5558 -0.1045
vn -0.9132 0.2505 -0.3214
vn -0.3175 0.8858 0.3384
vn -0.6156 0.7778 0.1264
vn 0.3682 0.7177 0.5910
vn 0.0268 0.8650 0.5010
vn 0.6572 0.4636 0.5942
usemtl eyes
s 1
f 7//1 6//2 13//3 14//4
f 5//5 4//6 11//7 12//8
f 3//9 2//10 9//11 10//12
f 1//13 44//14 8//15
f 22//16 7//1 14//4
f 6//2 5//5 12//8 13//3
f 4//6 3//9 10//12 11//7
f 2//10 1//13 8//15 9//11
f 22//16 14//4 21//17
f 13//3 12//8 19//18 20//19
f 11//7 10//12 17//20 18//21
f 9//11 8//15 15//22 16//23
f 14//4 13//3 20//19 21//17
f 12//8 11//7 18//21 19//18
f 10//12 9//11 16//23 17//20
f 8//15 44//14 15//22
f 18//21 17//20 25//24 26//25
f 16//23 15//22 23//26 24//27
f 21//17 20//19 28//28 29//29
f 19//18 18//21 26//25 27//30
f 17//20 16//23 24//27 25//24
f 15//22 44//14 23//26
f 22//16 21//17 29//29
f 20//19 19//18 27//30 28//28
f 29//29 28//28 35//31 36//32
f 27//30 26//25 33//33 34//34
f 25//24 24//27 31//35 32//36
f 23//26 44//14 30//37
f 22//16 29//29 36//32
f 28//28 27//30 34//34 35//31
f 26//25 25//24 32//36 33//33
f 24//27 23//26 30//37 31//35
f 32//36 31//35 38//38 39//39
f 30//37 44//14 37//40
f 22//16 36//32 43//41
f 35//31 34//34 41//42 42//43
f 33//33 32//36 39//39 40//44
f 31//35 30//37 37//40 38//38
f 36//32 35//31 42//43 43//41
f 34//34 33//33 40//44 41//42
f 22//16 43//41 51//45
f 42//43 41//42 49//46 50//47
f 40//44 39//39 47//48 48//49
f 38//38 37//40 45//50 46//51
f 43//41 42//43 50//47 51//45
f 41//42 40//44 48//49 49//46
f 39//39 38//38 46//51 47//48
f 37//40 44//14 45//50
f 46//51 45//50 52//52 53//53
f 51//45 50//47 57//54 58//55
f 49//46 48//49 55//56 56//57
f 47//48 46//51 53//53 54//58
f 45//50 44//14 52//52
f 22//16 51//45 58//55
f 50//47 49//46 56//57 57//54
f 48//49 47//48 54//58 55//56
f 58//55 57//54 64//59 65//60
f 56//57 55//56 62//61 63//62
f 54//58 53//53 60//63 61//64
f 52//52 44//14 59//65
f 22//16 58//55 65//60
f 57//54 56//57 63//62 64//59
f 55//56 54//58 61//64 62//61
f 53//53 52//52 59//65 60//63
f 59//65 44//14 66//66
f 22//16 65//60 72//67
f 64//59 63//62 70//68 71//69
f 62//61 61//64 68//70 69//71
f 60//63 59//65 66//66 67//72
f 65//60 64//59 71//69 72//67
f 63//62 62//61 69//71 70//68
f 61//64 60//63 67//72 68//70
f 71//69 70//68 77//73 78//74
f 69//71 68//70 75//75 76//76
f 67//72 66//66 73//77 74//78
f 72//67 71//69 78//74 79//79
f 70//68 69//71 76//76 77//73
f 68//70 67//72 74//78 75//75
f 66//66 44//14 73//77
f 22//16 72//67 79//79
f 79//79 78//74 85//80 86//81
f 77//73 76//76 83//82 84//83
f 75//75 74//78 81//84 82//85
f 73//77 44//14 80//86
f 22//16 79//79 86//81
f 78//74 77//73 84//83 85//80
f 76//76 75//75 82//85 83//82
f 74//78 73//77 80//86 81//84
f 84//83 83//82 90//87 91//88
f 82//85 81//84 88//89 89//90
f 80//86 44//14 87//91
f 22//16 86//81 93//92
f 85//80 84//83 91//88 92//93
f 83//82 82//85 89//90 90//87
f 81//84 80//86 87//91 88//89
f 86//81 85//80 92//93 93//92
f 22//16 93//92 100//94
f 92//93 91//88 98//95 99//96
f 90//87 89//90 96//97 97//98
f 88//89 87//91 94//99 95//100
f 93//92 92//93 99//96 100//94
f 91//88 90//87 97//98 98//95
f 89//90 88//89 95//100 96//97
f 87//91 44//14 94//99
f 97//98 96//97 103//101 104//102
f 95//100 94//99 101//103 102//104
f 100//94 99//96 106//105 107//106
f 98//95 97//98 104//102 105//107
f 96//97 95//100 102//104 103//101
f 94//99 44//14 101//103
f 22//16 100//94 107//106
f 99//96 98//95 105//107 106//105
f 107//106 106//105 113//108 114//109
f 105//107 104//102 111//110 112//111
f 103//101 102//104 109//112 110//113
f 101//103 44//14 108//114
f 22//16 107//106 114//109
f 106//105 105//107 112//111 113//108
f 104//102 103//101 110//113 111//110
f 102//104 101//103 108//114 109//112
f 110//113 109//112 2//10 3//9
f 108//114 44//14 1//13
f 22//16 114//109 7//1
f 113//108 112//111 5//5 6//2
f 111//110 110//113 3//9 4//6
f 109//112 108//114 1//13 2//10
f 114//109 113//108 6//2 7//1
f 112//111 111//110 4//6 5//5
