# Blender v2.79 (sub 0) OBJ File: 'zebu_base_mesh_BI.blend'
# www.blender.org
mtllib zebu_eye.mtl
o eye
v 0.114157 1.311538 1.322045
v 0.109007 1.319563 1.318839
v 0.101782 1.324660 1.314042
v 0.093583 1.326054 1.308383
v 0.085658 1.323532 1.302724
v 0.079213 1.317479 1.297926
v 0.075229 1.308816 1.294721
v 0.116370 1.310940 1.318952
v 0.113095 1.318458 1.313125
v 0.107124 1.323216 1.306575
v 0.099365 1.324491 1.300301
v 0.091000 1.322088 1.295257
v 0.083301 1.316374 1.292212
v 0.077442 1.308218 1.291628
v 0.118350 1.308935 1.316330
v 0.116755 1.314752 1.308280
v 0.111906 1.318374 1.300245
v 0.104541 1.319250 1.293450
v 0.095781 1.317247 1.288927
v 0.086961 1.312669 1.287367
v 0.079423 1.306213 1.289006
v 0.074314 1.298862 1.293595
v 0.119797 1.305827 1.314578
v 0.119429 1.309010 1.305043
v 0.115399 1.310872 1.296016
v 0.108322 1.311130 1.288872
v 0.099275 1.309745 1.284698
v 0.089635 1.306927 1.284130
v 0.080870 1.303105 1.287254
v 0.120490 1.302091 1.313963
v 0.120709 1.302106 1.303906
v 0.117072 1.301852 1.294531
v 0.110133 1.301367 1.287264
v 0.100948 1.300725 1.283213
v 0.090915 1.300023 1.282993
v 0.081563 1.299369 1.286639
v 0.120324 1.298295 1.314578
v 0.120402 1.295092 1.305043
v 0.116671 1.292687 1.296016
v 0.109698 1.291446 1.288872
v 0.100546 1.291559 1.284698
v 0.090608 1.293008 1.284130
v 0.081396 1.295573 1.287254
v 0.116449 1.301808 1.323171
v 0.119324 1.295016 1.316330
v 0.118553 1.289033 1.308280
v 0.114255 1.284771 1.300245
v 0.107084 1.282879 1.293450
v 0.098131 1.283644 1.288927
v 0.088759 1.286950 1.287367
v 0.080396 1.292294 1.289006
v 0.117641 1.292755 1.318952
v 0.115445 1.284855 1.313125
v 0.110194 1.279312 1.306575
v 0.102688 1.276969 1.300301
v 0.094070 1.278184 1.295257
v 0.085651 1.282771 1.292212
v 0.078714 1.290032 1.291628
v 0.115533 1.291854 1.322045
v 0.111550 1.283191 1.318839
v 0.105105 1.277138 1.314042
v 0.097180 1.274617 1.308383
v 0.088981 1.276011 1.302724
v 0.081756 1.281108 1.297926
v 0.076606 1.289132 1.294721
v 0.113321 1.292452 1.325138
v 0.107461 1.284296 1.324554
v 0.099763 1.278582 1.321509
v 0.091398 1.276180 1.316465
v 0.083639 1.277455 1.310191
v 0.077668 1.282213 1.303641
v 0.074393 1.289730 1.297814
v 0.111340 1.294458 1.327760
v 0.103802 1.288002 1.329399
v 0.094981 1.283424 1.327838
v 0.086222 1.281420 1.323316
v 0.078857 1.282296 1.316520
v 0.074008 1.285918 1.308486
v 0.072412 1.291736 1.300436
v 0.109893 1.297565 1.329512
v 0.101128 1.293744 1.332636
v 0.091488 1.290926 1.332068
v 0.082441 1.289540 1.327894
v 0.075364 1.289798 1.320750
v 0.071334 1.291660 1.311723
v 0.070965 1.294843 1.302188
v 0.109200 1.301302 1.330127
v 0.099847 1.300648 1.333773
v 0.089815 1.299946 1.333553
v 0.080630 1.299304 1.329502
v 0.073690 1.298818 1.322235
v 0.070053 1.298564 1.312860
v 0.070272 1.298579 1.302803
v 0.109366 1.305098 1.329512
v 0.100155 1.307662 1.332636
v 0.090216 1.309111 1.332068
v 0.081064 1.309224 1.327894
v 0.074092 1.307984 1.320750
v 0.070361 1.305579 1.311723
v 0.070439 1.302376 1.302188
v 0.110367 1.308377 1.327760
v 0.102003 1.313721 1.329399
v 0.092632 1.317027 1.327838
v 0.083679 1.317792 1.323316
v 0.076507 1.315899 1.316520
v 0.072209 1.311637 1.308486
v 0.071439 1.305655 1.300436
v 0.112049 1.310638 1.325138
v 0.105112 1.317899 1.324554
v 0.096693 1.322487 1.321509
v 0.088075 1.323702 1.316465
v 0.080569 1.321359 1.310191
v 0.075318 1.315816 1.303641
v 0.073121 1.307916 1.297814
vn -0.7759 0.3498 -0.5249
vn -0.6182 0.6774 -0.3987
vn -0.4570 0.6338 -0.6240
vn -0.6855 0.3254 -0.6513
vn -0.3706 0.9036 -0.2147
vn -0.0697 0.9976 0.0000
vn 0.1545 0.9369 -0.3135
vn -0.1626 0.8474 -0.5054
vn 0.2412 0.9464 0.2147
vn 0.5179 0.7568 0.3987
vn 0.6791 0.7132 0.1734
vn 0.4492 0.8902 -0.0759
vn 0.7197 0.4544 0.5249
vn 0.8171 0.0571 0.5736
vn 0.8101 0.4299 0.3985
vn -0.8171 -0.0571 -0.5736
vn 0.8234 0.5671 -0.0176
vn 0.6353 0.7017 -0.3224
vn 0.8910 0.3480 0.2914
vn -0.6046 0.2434 -0.7584
vn 0.0235 0.6589 -0.7518
vn -0.3127 0.4877 -0.8151
vn 0.3553 0.7337 -0.5792
vn -0.5455 0.1165 -0.8300
vn 0.1595 0.3669 -0.9165
vn -0.2072 0.2613 -0.9427
vn 0.7713 0.4096 -0.4870
vn 0.5019 0.4187 -0.7568
vn 0.9501 0.2211 0.2199
vn 0.9289 0.3407 -0.1453
vn 0.9785 0.0684 0.1947
vn 0.9793 0.0685 -0.1901
vn -0.1567 -0.0110 -0.9876
vn -0.5172 -0.0362 -0.8551
vn 0.5722 0.0400 -0.8191
vn 0.2246 0.0157 -0.9743
vn 0.8365 0.0585 -0.5448
vn -0.1688 -0.2875 -0.9427
vn -0.5240 -0.1913 -0.8300
vn 0.5553 -0.3448 -0.7568
vn 0.2090 -0.3411 -0.9165
vn 0.9672 -0.2081 -0.1453
vn 0.8208 -0.2983 -0.4870
vn 0.9716 -0.0867 0.2198
vn 0.9308 -0.2206 0.2914
vn -0.5648 -0.3252 -0.7584
vn 0.1150 -0.6492 -0.7518
vn -0.2417 -0.5264 -0.8151
vn 0.7268 -0.6064 -0.3224
vn 0.4539 -0.6771 -0.5792
vn 0.8943 -0.4470 -0.0176
vn -0.0431 -0.8618 -0.5054
vn -0.3643 -0.6912 -0.6240
vn 0.5687 -0.8190 -0.0759
vn 0.2834 -0.9063 -0.3135
vn 0.8621 -0.3130 0.3985
vn 0.7718 -0.6118 0.1734
vn -0.6336 -0.4176 -0.6513
vn -0.5179 -0.7568 -0.3987
vn -0.7197 -0.4544 -0.5249
vn 0.0697 -0.9976 0.0000
vn -0.2412 -0.9464 -0.2147
vn 0.6182 -0.6774 0.3987
vn 0.3706 -0.9036 0.2147
vn 0.7759 -0.3498 0.5249
vn -0.1545 -0.9369 0.3135
vn -0.4492 -0.8902 0.0759
vn 0.4570 -0.6338 0.6240
vn 0.1626 -0.8474 0.5054
vn 0.6855 -0.3254 0.6513
vn -0.8101 -0.4299 -0.3985
vn -0.6791 -0.7132 -0.1734
vn -0.8910 -0.3480 -0.2914
vn -0.6353 -0.7017 0.3224
vn -0.8234 -0.5671 0.0176
vn -0.0235 -0.6589 0.7518
vn -0.3553 -0.7337 0.5792
vn 0.6046 -0.2434 0.7584
vn 0.3127 -0.4877 0.8151
vn -0.1595 -0.3669 0.9165
vn -0.5019 -0.4187 0.7568
vn 0.5455 -0.1165 0.8300
vn 0.2072 -0.2613 0.9427
vn -0.9289 -0.3407 0.1453
vn -0.9501 -0.2211 -0.2199
vn -0.7713 -0.4096 0.4870
vn -0.9793 -0.0685 0.1901
vn -0.9785 -0.0684 -0.1947
vn -0.5722 -0.0400 0.8191
vn -0.8365 -0.0585 0.5448
vn 0.1567 0.0110 0.9876
vn -0.2246 -0.0157 0.9743
vn 0.5172 0.0361 0.8551
vn 0.1688 0.2875 0.9427
vn -0.2090 0.3411 0.9165
vn 0.5240 0.1913 0.8300
vn -0.9716 0.0867 -0.2198
vn -0.8208 0.2983 0.4870
vn -0.9672 0.2081 0.1453
vn -0.5553 0.3448 0.7568
vn -0.9308 0.2206 -0.2914
vn -0.7268 0.6065 0.3224
vn -0.8943 0.4470 0.0176
vn -0.1150 0.6492 0.7518
vn -0.4539 0.6771 0.5792
vn 0.5648 0.3252 0.7584
vn 0.2417 0.5264 0.8151
vn 0.6336 0.4176 0.6513
vn 0.3643 0.6912 0.6240
vn -0.7718 0.6118 -0.1734
vn -0.8621 0.3130 -0.3985
vn -0.2834 0.9063 0.3135
vn -0.5687 0.8190 0.0759
vn 0.0431 0.8618 0.5054
usemtl eyes
s 1
f 7//1 6//2 13//3 14//4
f 5//5 4//6 11//7 12//8
f 3//9 2//10 9//11 10//12
f 1//13 44//14 8//15
f 22//16 7//1 14//4
f 6//2 5//5 12//8 13//3
f 4//6 3//9 10//12 11//7
f 2//10 1//13 8//15 9//11
f 10//12 9//11 16//17 17//18
f 8//15 44//14 15//19
f 22//16 14//4 21//20
f 13//3 12//8 19//21 20//22
f 11//7 10//12 17//18 18//23
f 9//11 8//15 15//19 16//17
f 14//4 13//3 20//22 21//20
f 12//8 11//7 18//23 19//21
f 22//16 21//20 29//24
f 20//22 19//21 27//25 28//26
f 18//23 17//18 25//27 26//28
f 16//17 15//19 23//29 24//30
f 21//20 20//22 28//26 29//24
f 19//21 18//23 26//28 27//25
f 17//18 16//17 24//30 25//27
f 15//19 44//14 23//29
f 24//30 23//29 30//31 31//32
f 29//24 28//26 35//33 36//34
f 27//25 26//28 33//35 34//36
f 25//27 24//30 31//32 32//37
f 23//29 44//14 30//31
f 22//16 29//24 36//34
f 28//26 27//25 34//36 35//33
f 26//28 25//27 32//37 33//35
f 36//34 35//33 42//38 43//39
f 34//36 33//35 40//40 41//41
f 32//37 31//32 38//42 39//43
f 30//31 44//14 37//44
f 22//16 36//34 43//39
f 35//33 34//36 41//41 42//38
f 33//35 32//37 39//43 40//40
f 31//32 30//31 37//44 38//42
f 37//44 44//14 45//45
f 22//16 43//39 51//46
f 42//38 41//41 49//47 50//48
f 40//40 39//43 47//49 48//50
f 38//42 37//44 45//45 46//51
f 43//39 42//38 50//48 51//46
f 41//41 40//40 48//50 49//47
f 39//43 38//42 46//51 47//49
f 50//48 49//47 56//52 57//53
f 48//50 47//49 54//54 55//55
f 46//51 45//45 52//56 53//57
f 51//46 50//48 57//53 58//58
f 49//47 48//50 55//55 56//52
f 47//49 46//51 53//57 54//54
f 45//45 44//14 52//56
f 22//16 51//46 58//58
f 58//58 57//53 64//59 65//60
f 56//52 55//55 62//61 63//62
f 54//54 53//57 60//63 61//64
f 52//56 44//14 59//65
f 22//16 58//58 65//60
f 57//53 56//52 63//62 64//59
f 55//55 54//54 61//64 62//61
f 53//57 52//56 59//65 60//63
f 63//62 62//61 69//66 70//67
f 61//64 60//63 67//68 68//69
f 59//65 44//14 66//70
f 22//16 65//60 72//71
f 64//59 63//62 70//67 71//72
f 62//61 61//64 68//69 69//66
f 60//63 59//65 66//70 67//68
f 65//60 64//59 71//72 72//71
f 22//16 72//71 79//73
f 71//72 70//67 77//74 78//75
f 69//66 68//69 75//76 76//77
f 67//68 66//70 73//78 74//79
f 72//71 71//72 78//75 79//73
f 70//67 69//66 76//77 77//74
f 68//69 67//68 74//79 75//76
f 66//70 44//14 73//78
f 76//77 75//76 82//80 83//81
f 74//79 73//78 80//82 81//83
f 79//73 78//75 85//84 86//85
f 77//74 76//77 83//81 84//86
f 75//76 74//79 81//83 82//80
f 73//78 44//14 80//82
f 22//16 79//73 86//85
f 78//75 77//74 84//86 85//84
f 86//85 85//84 92//87 93//88
f 84//86 83//81 90//89 91//90
f 82//80 81//83 88//91 89//92
f 80//82 44//14 87//93
f 22//16 86//85 93//88
f 85//84 84//86 91//90 92//87
f 83//81 82//80 89//92 90//89
f 81//83 80//82 87//93 88//91
f 89//92 88//91 95//94 96//95
f 87//93 44//14 94//96
f 22//16 93//88 100//97
f 92//87 91//90 98//98 99//99
f 90//89 89//92 96//95 97//100
f 88//91 87//93 94//96 95//94
f 93//88 92//87 99//99 100//97
f 91//90 90//89 97//100 98//98
f 22//16 100//97 107//101
f 99//99 98//98 105//102 106//103
f 97//100 96//95 103//104 104//105
f 95//94 94//96 101//106 102//107
f 100//97 99//99 106//103 107//101
f 98//98 97//100 104//105 105//102
f 96//95 95//94 102//107 103//104
f 94//96 44//14 101//106
f 102//107 101//106 108//108 109//109
f 107//101 106//103 113//110 114//111
f 105//102 104//105 111//112 112//113
f 103//104 102//107 109//109 110//114
f 101//106 44//14 108//108
f 22//16 107//101 114//111
f 106//103 105//102 112//113 113//110
f 104//105 103//104 110//114 111//112
f 114//111 113//110 6//2 7//1
f 112//113 111//112 4//6 5//5
f 110//114 109//109 2//10 3//9
f 108//108 44//14 1//13
f 22//16 114//111 7//1
f 113//110 112//113 5//5 6//2
f 111//112 110//114 3//9 4//6
f 109//109 108//108 1//13 2//10
